<?xml version="1.0" encoding="UTF-8" standalone="no"?>
<!DOCTYPE svg PUBLIC "-//W3C//DTD SVG 1.1//EN"
 "http://www.w3.org/Graphics/SVG/1.1/DTD/svg11.dtd">
<!-- Generated by graphviz version 2.40.1 (20161225.0304)
 -->
<!-- Title: %3 Pages: 1 -->
<svg width="1175pt" height="476pt"
 viewBox="0.00 0.00 1174.72 476.00" xmlns="http://www.w3.org/2000/svg" xmlns:xlink="http://www.w3.org/1999/xlink">
<g id="graph0" class="graph" transform="scale(1 1) rotate(0) translate(4 472)">
<title>%3</title>
<polygon fill="#ffffff" stroke="transparent" points="-4,4 -4,-472 1170.7183,-472 1170.7183,4 -4,4"/>
<!-- [root] azurerm_network_interface.nic -->
<g id="node_0" class="node">
<title>[root] azurerm_network_interface.nic</title>
<polygon fill="none" stroke="#000000" points="19.3139,-234 19.3139,-249 145.3139,-249 145.3139,-234 19.3139,-234"/>
<text text-anchor="start" x="22.3042" y="-239.6" font-family="courier new" font-size="8.00" fill="#000000">azurerm_network_interface</text>
<polygon fill="none" stroke="#000000" points="19.3139,-219 19.3139,-234 145.3139,-234 145.3139,-219 19.3139,-219"/>
<text text-anchor="start" x="75.1128" y="-224.6" font-family="courier new" font-size="8.00" fill="#000000">nic</text>
</g>
<!-- [root] azurerm_public_ip.pip -->
<g id="node_1" class="node">
<title>[root] azurerm_public_ip.pip</title>
<polygon fill="none" stroke="#000000" points="942.3139,-162 942.3139,-177 1029.3139,-177 1029.3139,-162 942.3139,-162"/>
<text text-anchor="start" x="945.0073" y="-167.6" font-family="courier new" font-size="8.00" fill="#000000">azurerm_public_ip</text>
<polygon fill="none" stroke="#000000" points="942.3139,-147 942.3139,-162 1029.3139,-162 1029.3139,-147 942.3139,-147"/>
<text text-anchor="start" x="978.6128" y="-152.6" font-family="courier new" font-size="8.00" fill="#000000">pip</text>
</g>
<!-- [root] azurerm_network_interface.nic&#45;&gt;[root] azurerm_public_ip.pip -->
<g id="edge_0" class="edge">
<title>[root] azurerm_network_interface.nic&#45;&gt;[root] azurerm_public_ip.pip</title>
<path fill="none" stroke="#000000" d="M145.3983,-217.5463C148.4029,-216.9777 151.3859,-216.4573 154.3139,-216 305.0956,-192.4499 772.3308,-171.0177 931.539,-164.2261"/>
<polygon fill="#000000" stroke="#000000" points="931.7312,-167.7212 941.5737,-163.8001 931.4342,-160.7275 931.7312,-167.7212"/>
</g>
<!-- [root] var.existing_subnet_id -->
<g id="node_6" class="node">
<title>[root] var.existing_subnet_id</title>
<polygon fill="none" stroke="#000000" points="492.3139,-162 492.3139,-177 584.3139,-177 584.3139,-162 492.3139,-162"/>
<text text-anchor="start" x="531.1128" y="-167.6" font-family="courier new" font-size="8.00" fill="#000000">var</text>
<polygon fill="none" stroke="#000000" points="492.3139,-147 492.3139,-162 584.3139,-162 584.3139,-147 492.3139,-147"/>
<text text-anchor="start" x="495.1069" y="-152.6" font-family="courier new" font-size="8.00" fill="#000000">existing_subnet_id</text>
</g>
<!-- [root] azurerm_network_interface.nic&#45;&gt;[root] var.existing_subnet_id -->
<g id="edge_1" class="edge">
<title>[root] azurerm_network_interface.nic&#45;&gt;[root] var.existing_subnet_id</title>
<path fill="none" stroke="#000000" d="M145.4252,-217.7064C148.4226,-217.0951 151.3967,-216.5218 154.3139,-216 295.8589,-190.684 337.6634,-210.1257 482.1655,-179.9863"/>
<polygon fill="#000000" stroke="#000000" points="483.2401,-183.336 492.2913,-177.8291 481.7815,-176.4897 483.2401,-183.336"/>
</g>
<!-- [root] azurerm_resource_group.rg -->
<g id="node_2" class="node">
<title>[root] azurerm_resource_group.rg</title>
<polygon fill="none" stroke="#000000" points="723.3139,-90 723.3139,-105 834.3139,-105 834.3139,-90 723.3139,-90"/>
<text text-anchor="start" x="726.0053" y="-95.6" font-family="courier new" font-size="8.00" fill="#000000">azurerm_resource_group</text>
<polygon fill="none" stroke="#000000" points="723.3139,-75 723.3139,-90 834.3139,-90 834.3139,-75 723.3139,-75"/>
<text text-anchor="start" x="774.0131" y="-80.6" font-family="courier new" font-size="8.00" fill="#000000">rg</text>
</g>
<!-- [root] azurerm_public_ip.pip&#45;&gt;[root] azurerm_resource_group.rg -->
<g id="edge_2" class="edge">
<title>[root] azurerm_public_ip.pip&#45;&gt;[root] azurerm_resource_group.rg</title>
<path fill="none" stroke="#000000" d="M941.6675,-146.8186C912.0867,-136.5296 872.5676,-122.7839 839.8095,-111.3898"/>
<polygon fill="#000000" stroke="#000000" points="840.9171,-108.0694 830.3223,-108.0899 838.6174,-114.6809 840.9171,-108.0694"/>
</g>
<!-- [root] var.hostname -->
<g id="node_7" class="node">
<title>[root] var.hostname</title>
<polygon fill="none" stroke="#000000" points="963.3139,-90 963.3139,-105 1007.3139,-105 1007.3139,-90 963.3139,-90"/>
<text text-anchor="start" x="978.1128" y="-95.6" font-family="courier new" font-size="8.00" fill="#000000">var</text>
<polygon fill="none" stroke="#000000" points="963.3139,-75 963.3139,-90 1007.3139,-90 1007.3139,-75 963.3139,-75"/>
<text text-anchor="start" x="966.1108" y="-80.6" font-family="courier new" font-size="8.00" fill="#000000">hostname</text>
</g>
<!-- [root] azurerm_public_ip.pip&#45;&gt;[root] var.hostname -->
<g id="edge_3" class="edge">
<title>[root] azurerm_public_ip.pip&#45;&gt;[root] var.hostname</title>
<path fill="none" stroke="#000000" d="M985.3139,-143.8314C985.3139,-136.131 985.3139,-126.9743 985.3139,-118.4166"/>
<polygon fill="#000000" stroke="#000000" points="988.814,-118.4132 985.3139,-108.4133 981.814,-118.4133 988.814,-118.4132"/>
</g>
<!-- [root] provider.azurerm -->
<g id="node_5" class="node">
<title>[root] provider.azurerm</title>
<polygon fill="none" stroke="#000000" points="684.3139,-18 684.3139,-33 728.3139,-33 728.3139,-18 684.3139,-18"/>
<text text-anchor="start" x="687.1108" y="-23.6" font-family="courier new" font-size="8.00" fill="#000000">provider</text>
<polygon fill="none" stroke="#000000" points="684.3139,-3 684.3139,-18 728.3139,-18 728.3139,-3 684.3139,-3"/>
<text text-anchor="start" x="689.5112" y="-8.6" font-family="courier new" font-size="8.00" fill="#000000">azurerm</text>
</g>
<!-- [root] azurerm_resource_group.rg&#45;&gt;[root] provider.azurerm -->
<g id="edge_4" class="edge">
<title>[root] azurerm_resource_group.rg&#45;&gt;[root] provider.azurerm</title>
<path fill="none" stroke="#000000" d="M760.1453,-71.8314C751.5987,-63.2848 741.2582,-52.9443 731.9338,-43.6198"/>
<polygon fill="#000000" stroke="#000000" points="734.2732,-41.0095 724.7272,-36.4133 729.3234,-45.9592 734.2732,-41.0095"/>
</g>
<!-- [root] var.location -->
<g id="node_8" class="node">
<title>[root] var.location</title>
<polygon fill="none" stroke="#000000" points="756.3139,-18 756.3139,-33 800.3139,-33 800.3139,-18 756.3139,-18"/>
<text text-anchor="start" x="771.1128" y="-23.6" font-family="courier new" font-size="8.00" fill="#000000">var</text>
<polygon fill="none" stroke="#000000" points="756.3139,-3 756.3139,-18 800.3139,-18 800.3139,-3 756.3139,-3"/>
<text text-anchor="start" x="759.1108" y="-8.6" font-family="courier new" font-size="8.00" fill="#000000">location</text>
</g>
<!-- [root] azurerm_resource_group.rg&#45;&gt;[root] var.location -->
<g id="edge_5" class="edge">
<title>[root] azurerm_resource_group.rg&#45;&gt;[root] var.location</title>
<path fill="none" stroke="#000000" d="M778.3139,-71.8314C778.3139,-64.131 778.3139,-54.9743 778.3139,-46.4166"/>
<polygon fill="#000000" stroke="#000000" points="781.814,-46.4132 778.3139,-36.4133 774.814,-46.4133 781.814,-46.4132"/>
</g>
<!-- [root] var.resource_group -->
<g id="node_9" class="node">
<title>[root] var.resource_group</title>
<polygon fill="none" stroke="#000000" points="824.3139,-18 824.3139,-33 897.3139,-33 897.3139,-18 824.3139,-18"/>
<text text-anchor="start" x="853.6128" y="-23.6" font-family="courier new" font-size="8.00" fill="#000000">var</text>
<polygon fill="none" stroke="#000000" points="824.3139,-3 824.3139,-18 897.3139,-18 897.3139,-3 824.3139,-3"/>
<text text-anchor="start" x="827.2085" y="-8.6" font-family="courier new" font-size="8.00" fill="#000000">resource_group</text>
</g>
<!-- [root] azurerm_resource_group.rg&#45;&gt;[root] var.resource_group -->
<g id="edge_6" class="edge">
<title>[root] azurerm_resource_group.rg&#45;&gt;[root] var.resource_group</title>
<path fill="none" stroke="#000000" d="M799.006,-71.8314C809.0087,-63.0485 821.169,-52.3712 832.0138,-42.8489"/>
<polygon fill="#000000" stroke="#000000" points="834.4234,-45.3909 839.6285,-36.1628 829.8047,-40.1308 834.4234,-45.3909"/>
</g>
<!-- [root] azurerm_storage_account.stor -->
<g id="node_3" class="node">
<title>[root] azurerm_storage_account.stor</title>
<polygon fill="none" stroke="#000000" points="358.3139,-162 358.3139,-177 474.3139,-177 474.3139,-162 358.3139,-162"/>
<text text-anchor="start" x="361.1049" y="-167.6" font-family="courier new" font-size="8.00" fill="#000000">azurerm_storage_account</text>
<polygon fill="none" stroke="#000000" points="358.3139,-147 358.3139,-162 474.3139,-162 474.3139,-147 358.3139,-147"/>
<text text-anchor="start" x="406.7124" y="-152.6" font-family="courier new" font-size="8.00" fill="#000000">stor</text>
</g>
<!-- [root] azurerm_storage_account.stor&#45;&gt;[root] azurerm_resource_group.rg -->
<g id="edge_7" class="edge">
<title>[root] azurerm_storage_account.stor&#45;&gt;[root] azurerm_resource_group.rg</title>
<path fill="none" stroke="#000000" d="M474.3468,-146.0991C477.3739,-145.3668 480.3766,-144.6623 483.3139,-144 561.5762,-126.3549 652.4997,-110.3877 712.4899,-100.4711"/>
<polygon fill="#000000" stroke="#000000" points="713.2827,-103.8878 722.5824,-98.8116 712.147,-96.9805 713.2827,-103.8878"/>
</g>
<!-- [root] azurerm_storage_account.stor&#45;&gt;[root] var.hostname -->
<g id="edge_8" class="edge">
<title>[root] azurerm_storage_account.stor&#45;&gt;[root] var.hostname</title>
<path fill="none" stroke="#000000" d="M474.6521,-145.7285C477.5715,-145.1024 480.4706,-144.5209 483.3139,-144 641.0443,-115.102 682.9733,-126.0147 842.3139,-108 878.2986,-103.9316 919.3001,-98.7104 948.145,-94.94"/>
<polygon fill="#000000" stroke="#000000" points="948.7309,-98.3932 958.1903,-93.6214 947.8198,-91.4527 948.7309,-98.3932"/>
</g>
<!-- [root] var.storage_account_tier -->
<g id="node_10" class="node">
<title>[root] var.storage_account_tier</title>
<polygon fill="none" stroke="#000000" points="251.3139,-90 251.3139,-105 353.3139,-105 353.3139,-90 251.3139,-90"/>
<text text-anchor="start" x="295.1128" y="-95.6" font-family="courier new" font-size="8.00" fill="#000000">var</text>
<polygon fill="none" stroke="#000000" points="251.3139,-75 251.3139,-90 353.3139,-90 353.3139,-75 251.3139,-75"/>
<text text-anchor="start" x="254.3061" y="-80.6" font-family="courier new" font-size="8.00" fill="#000000">storage_account_tier</text>
</g>
<!-- [root] azurerm_storage_account.stor&#45;&gt;[root] var.storage_account_tier -->
<g id="edge_9" class="edge">
<title>[root] azurerm_storage_account.stor&#45;&gt;[root] var.storage_account_tier</title>
<path fill="none" stroke="#000000" d="M387.5469,-143.8314C373.1006,-134.7074 355.4174,-123.539 339.9099,-113.7449"/>
<polygon fill="#000000" stroke="#000000" points="341.3956,-110.5436 331.0717,-108.1628 337.6577,-116.462 341.3956,-110.5436"/>
</g>
<!-- [root] var.storage_replication_type -->
<g id="node_11" class="node">
<title>[root] var.storage_replication_type</title>
<polygon fill="none" stroke="#000000" points="372.3139,-90 372.3139,-105 493.3139,-105 493.3139,-90 372.3139,-90"/>
<text text-anchor="start" x="425.6128" y="-95.6" font-family="courier new" font-size="8.00" fill="#000000">var</text>
<polygon fill="none" stroke="#000000" points="372.3139,-75 372.3139,-90 493.3139,-90 493.3139,-75 372.3139,-75"/>
<text text-anchor="start" x="375.2046" y="-80.6" font-family="courier new" font-size="8.00" fill="#000000">storage_replication_type</text>
</g>
<!-- [root] azurerm_storage_account.stor&#45;&gt;[root] var.storage_replication_type -->
<g id="edge_10" class="edge">
<title>[root] azurerm_storage_account.stor&#45;&gt;[root] var.storage_replication_type</title>
<path fill="none" stroke="#000000" d="M420.3514,-143.8314C422.0626,-136.131 424.0974,-126.9743 425.9991,-118.4166"/>
<polygon fill="#000000" stroke="#000000" points="429.4694,-118.9344 428.2221,-108.4133 422.6361,-117.4159 429.4694,-118.9344"/>
</g>
<!-- [root] azurerm_virtual_machine.vm -->
<g id="node_4" class="node">
<title>[root] azurerm_virtual_machine.vm</title>
<polygon fill="none" stroke="#000000" points="142.3139,-306 142.3139,-321 258.3139,-321 258.3139,-306 142.3139,-306"/>
<text text-anchor="start" x="145.1049" y="-311.6" font-family="courier new" font-size="8.00" fill="#000000">azurerm_virtual_machine</text>
<polygon fill="none" stroke="#000000" points="142.3139,-291 142.3139,-306 258.3139,-306 258.3139,-291 142.3139,-291"/>
<text text-anchor="start" x="195.5131" y="-296.6" font-family="courier new" font-size="8.00" fill="#000000">vm</text>
</g>
<!-- [root] azurerm_virtual_machine.vm&#45;&gt;[root] azurerm_network_interface.nic -->
<g id="edge_11" class="edge">
<title>[root] azurerm_virtual_machine.vm&#45;&gt;[root] azurerm_network_interface.nic</title>
<path fill="none" stroke="#000000" d="M170.5375,-287.8314C155.4446,-278.6221 136.9383,-267.3301 120.7797,-257.4706"/>
<polygon fill="#000000" stroke="#000000" points="122.4402,-254.3838 112.0808,-252.1628 118.7941,-260.3593 122.4402,-254.3838"/>
</g>
<!-- [root] azurerm_virtual_machine.vm&#45;&gt;[root] azurerm_storage_account.stor -->
<g id="edge_12" class="edge">
<title>[root] azurerm_virtual_machine.vm&#45;&gt;[root] azurerm_storage_account.stor</title>
<path fill="none" stroke="#000000" d="M142.045,-299.0114C71.8757,-288.3248 -31.6492,-263.914 10.3139,-216 32.1772,-191.0363 238.0325,-173.7664 347.9248,-166.2435"/>
<polygon fill="#000000" stroke="#000000" points="348.1865,-169.7339 357.9277,-165.5675 347.7145,-162.7498 348.1865,-169.7339"/>
</g>
<!-- [root] var.admin_password -->
<g id="node_12" class="node">
<title>[root] var.admin_password</title>
<polygon fill="none" stroke="#000000" points="164.3139,-234 164.3139,-249 237.3139,-249 237.3139,-234 164.3139,-234"/>
<text text-anchor="start" x="193.6128" y="-239.6" font-family="courier new" font-size="8.00" fill="#000000">var</text>
<polygon fill="none" stroke="#000000" points="164.3139,-219 164.3139,-234 237.3139,-234 237.3139,-219 164.3139,-219"/>
<text text-anchor="start" x="167.2085" y="-224.6" font-family="courier new" font-size="8.00" fill="#000000">admin_password</text>
</g>
<!-- [root] azurerm_virtual_machine.vm&#45;&gt;[root] var.admin_password -->
<g id="edge_13" class="edge">
<title>[root] azurerm_virtual_machine.vm&#45;&gt;[root] var.admin_password</title>
<path fill="none" stroke="#000000" d="M200.3139,-287.8314C200.3139,-280.131 200.3139,-270.9743 200.3139,-262.4166"/>
<polygon fill="#000000" stroke="#000000" points="203.814,-262.4132 200.3139,-252.4133 196.814,-262.4133 203.814,-262.4132"/>
</g>
<!-- [root] var.admin_username -->
<g id="node_13" class="node">
<title>[root] var.admin_username</title>
<polygon fill="none" stroke="#000000" points="803.3139,-234 803.3139,-249 876.3139,-249 876.3139,-234 803.3139,-234"/>
<text text-anchor="start" x="832.6128" y="-239.6" font-family="courier new" font-size="8.00" fill="#000000">var</text>
<polygon fill="none" stroke="#000000" points="803.3139,-219 803.3139,-234 876.3139,-234 876.3139,-219 803.3139,-219"/>
<text text-anchor="start" x="806.2085" y="-224.6" font-family="courier new" font-size="8.00" fill="#000000">admin_username</text>
</g>
<!-- [root] azurerm_virtual_machine.vm&#45;&gt;[root] var.admin_username -->
<g id="edge_14" class="edge">
<title>[root] azurerm_virtual_machine.vm&#45;&gt;[root] var.admin_username</title>
<path fill="none" stroke="#000000" d="M258.6347,-289.6295C261.5587,-289.0296 264.4635,-288.4808 267.3139,-288 487.4454,-250.8707 547.9249,-287.5688 768.3139,-252 776.3465,-250.7036 784.799,-248.9308 792.9599,-247.0007"/>
<polygon fill="#000000" stroke="#000000" points="793.8527,-250.3855 802.7219,-244.5899 792.1743,-243.5897 793.8527,-250.3855"/>
</g>
<!-- [root] var.existing_storage_acct -->
<g id="node_14" class="node">
<title>[root] var.existing_storage_acct</title>
<polygon fill="none" stroke="#000000" points="255.3139,-234 255.3139,-249 361.3139,-249 361.3139,-234 255.3139,-234"/>
<text text-anchor="start" x="301.1128" y="-239.6" font-family="courier new" font-size="8.00" fill="#000000">var</text>
<polygon fill="none" stroke="#000000" points="255.3139,-219 255.3139,-234 361.3139,-234 361.3139,-219 255.3139,-219"/>
<text text-anchor="start" x="257.9057" y="-224.6" font-family="courier new" font-size="8.00" fill="#000000">existing_storage_acct</text>
</g>
<!-- [root] azurerm_virtual_machine.vm&#45;&gt;[root] var.existing_storage_acct -->
<g id="edge_15" class="edge">
<title>[root] azurerm_virtual_machine.vm&#45;&gt;[root] var.existing_storage_acct</title>
<path fill="none" stroke="#000000" d="M227.5669,-287.8314C241.2528,-278.7074 258.0054,-267.539 272.6966,-257.7449"/>
<polygon fill="#000000" stroke="#000000" points="274.6906,-260.6221 281.0697,-252.1628 270.8077,-254.7977 274.6906,-260.6221"/>
</g>
<!-- [root] var.existing_vnet_resource_group -->
<g id="node_15" class="node">
<title>[root] var.existing_vnet_resource_group</title>
<polygon fill="none" stroke="#000000" points="379.3139,-234 379.3139,-249 519.3139,-249 519.3139,-234 379.3139,-234"/>
<text text-anchor="start" x="442.1128" y="-239.6" font-family="courier new" font-size="8.00" fill="#000000">var</text>
<polygon fill="none" stroke="#000000" points="379.3139,-219 379.3139,-234 519.3139,-234 519.3139,-219 379.3139,-219"/>
<text text-anchor="start" x="382.103" y="-224.6" font-family="courier new" font-size="8.00" fill="#000000">existing_vnet_resource_group</text>
</g>
<!-- [root] azurerm_virtual_machine.vm&#45;&gt;[root] var.existing_vnet_resource_group -->
<g id="edge_16" class="edge">
<title>[root] azurerm_virtual_machine.vm&#45;&gt;[root] var.existing_vnet_resource_group</title>
<path fill="none" stroke="#000000" d="M258.3791,-289.2101C293.7331,-278.9872 339.1949,-265.8417 376.8884,-254.9423"/>
<polygon fill="#000000" stroke="#000000" points="378.1604,-258.218 386.7946,-252.0779 376.2159,-251.4935 378.1604,-258.218"/>
</g>
<!-- [root] var.os_disk_vhd_uri -->
<g id="node_16" class="node">
<title>[root] var.os_disk_vhd_uri</title>
<polygon fill="none" stroke="#000000" points="537.3139,-234 537.3139,-249 615.3139,-249 615.3139,-234 537.3139,-234"/>
<text text-anchor="start" x="569.1128" y="-239.6" font-family="courier new" font-size="8.00" fill="#000000">var</text>
<polygon fill="none" stroke="#000000" points="537.3139,-219 537.3139,-234 615.3139,-234 615.3139,-219 537.3139,-219"/>
<text text-anchor="start" x="540.3081" y="-224.6" font-family="courier new" font-size="8.00" fill="#000000">os_disk_vhd_uri</text>
</g>
<!-- [root] azurerm_virtual_machine.vm&#45;&gt;[root] var.os_disk_vhd_uri -->
<g id="edge_17" class="edge">
<title>[root] azurerm_virtual_machine.vm&#45;&gt;[root] var.os_disk_vhd_uri</title>
<path fill="none" stroke="#000000" d="M258.6772,-289.8583C261.5899,-289.1979 264.4808,-288.5736 267.3139,-288 378.9453,-265.3988 412.9456,-279.8902 527.4001,-251.9182"/>
<polygon fill="#000000" stroke="#000000" points="528.3945,-255.2774 537.2471,-249.4566 526.6968,-248.4863 528.3945,-255.2774"/>
</g>
<!-- [root] var.os_type -->
<g id="node_17" class="node">
<title>[root] var.os_type</title>
<polygon fill="none" stroke="#000000" points="641.3139,-234 641.3139,-249 680.3139,-249 680.3139,-234 641.3139,-234"/>
<text text-anchor="start" x="653.6128" y="-239.6" font-family="courier new" font-size="8.00" fill="#000000">var</text>
<polygon fill="none" stroke="#000000" points="641.3139,-219 641.3139,-234 680.3139,-234 680.3139,-219 641.3139,-219"/>
<text text-anchor="start" x="644.0112" y="-224.6" font-family="courier new" font-size="8.00" fill="#000000">os_type</text>
</g>
<!-- [root] azurerm_virtual_machine.vm&#45;&gt;[root] var.os_type -->
<g id="edge_18" class="edge">
<title>[root] azurerm_virtual_machine.vm&#45;&gt;[root] var.os_type</title>
<path fill="none" stroke="#000000" d="M258.6525,-289.7304C261.5718,-289.1038 264.4707,-288.5217 267.3139,-288 420.9497,-259.808 469.1718,-294.8917 623.3866,-251.6474"/>
<polygon fill="#000000" stroke="#000000" points="624.5679,-254.9497 633.2144,-248.8269 622.6369,-248.2213 624.5679,-254.9497"/>
</g>
<!-- [root] var.vm_size -->
<g id="node_18" class="node">
<title>[root] var.vm_size</title>
<polygon fill="none" stroke="#000000" points="713.3139,-234 713.3139,-249 752.3139,-249 752.3139,-234 713.3139,-234"/>
<text text-anchor="start" x="725.6128" y="-239.6" font-family="courier new" font-size="8.00" fill="#000000">var</text>
<polygon fill="none" stroke="#000000" points="713.3139,-219 713.3139,-234 752.3139,-234 752.3139,-219 713.3139,-219"/>
<text text-anchor="start" x="716.0112" y="-224.6" font-family="courier new" font-size="8.00" fill="#000000">vm_size</text>
</g>
<!-- [root] azurerm_virtual_machine.vm&#45;&gt;[root] var.vm_size -->
<g id="edge_19" class="edge">
<title>[root] azurerm_virtual_machine.vm&#45;&gt;[root] var.vm_size</title>
<path fill="none" stroke="#000000" d="M258.642,-289.6716C261.564,-289.0606 264.4665,-288.4978 267.3139,-288 452.5706,-255.6099 510.1352,-302.0749 695.4458,-251.5996"/>
<polygon fill="#000000" stroke="#000000" points="696.5329,-254.9301 705.2289,-248.8779 694.6567,-248.1862 696.5329,-254.9301"/>
</g>
<!-- [root] meta.count&#45;boundary (count boundary fixup) -->
<g id="node_19" class="node">
<title>[root] meta.count&#45;boundary (count boundary fixup)</title>
<polygon fill="none" stroke="#000000" points="725.3139,-378 725.3139,-393 798.3139,-393 798.3139,-378 725.3139,-378"/>
<text text-anchor="start" x="752.2124" y="-383.6" font-family="courier new" font-size="8.00" fill="#000000">meta</text>
<polygon fill="none" stroke="#000000" points="725.3139,-363 725.3139,-378 798.3139,-378 798.3139,-363 725.3139,-363"/>
<text text-anchor="start" x="728.2085" y="-368.6" font-family="courier new" font-size="8.00" fill="#000000">count&#45;boundary</text>
</g>
<!-- [root] meta.count&#45;boundary (count boundary fixup)&#45;&gt;[root] azurerm_virtual_machine.vm -->
<g id="edge_20" class="edge">
<title>[root] meta.count&#45;boundary (count boundary fixup)&#45;&gt;[root] azurerm_virtual_machine.vm</title>
<path fill="none" stroke="#000000" d="M724.7761,-375.9322C644.0318,-370.9514 444.2811,-356.3684 268.5954,-324.09"/>
<polygon fill="#000000" stroke="#000000" points="269.1296,-320.6294 258.658,-322.2403 267.8486,-327.5112 269.1296,-320.6294"/>
</g>
<!-- [root] output.hostname -->
<g id="node_20" class="node">
<title>[root] output.hostname</title>
<polygon fill="none" stroke="#000000" points="1116.3139,-162 1116.3139,-177 1160.3139,-177 1160.3139,-162 1116.3139,-162"/>
<text text-anchor="start" x="1123.9116" y="-167.6" font-family="courier new" font-size="8.00" fill="#000000">output</text>
<polygon fill="none" stroke="#000000" points="1116.3139,-147 1116.3139,-162 1160.3139,-162 1160.3139,-147 1116.3139,-147"/>
<text text-anchor="start" x="1119.1108" y="-152.6" font-family="courier new" font-size="8.00" fill="#000000">hostname</text>
</g>
<!-- [root] meta.count&#45;boundary (count boundary fixup)&#45;&gt;[root] output.hostname -->
<g id="edge_21" class="edge">
<title>[root] meta.count&#45;boundary (count boundary fixup)&#45;&gt;[root] output.hostname</title>
<path fill="none" stroke="#000000" d="M798.1221,-375.5635C890.1522,-369.0989 1124.5264,-350.1973 1147.3139,-324 1179.4514,-287.0536 1163.7921,-225.5828 1150.4305,-189.9316"/>
<polygon fill="#000000" stroke="#000000" points="1153.5099,-188.1991 1146.589,-180.1771 1146.9968,-190.7641 1153.5099,-188.1991"/>
</g>
<!-- [root] output.ssh_command -->
<g id="node_21" class="node">
<title>[root] output.ssh_command</title>
<polygon fill="none" stroke="#000000" points="1062.3139,-306 1062.3139,-321 1120.3139,-321 1120.3139,-306 1062.3139,-306"/>
<text text-anchor="start" x="1076.9116" y="-311.6" font-family="courier new" font-size="8.00" fill="#000000">output</text>
<polygon fill="none" stroke="#000000" points="1062.3139,-291 1062.3139,-306 1120.3139,-306 1120.3139,-291 1062.3139,-291"/>
<text text-anchor="start" x="1064.9096" y="-296.6" font-family="courier new" font-size="8.00" fill="#000000">ssh_command</text>
</g>
<!-- [root] meta.count&#45;boundary (count boundary fixup)&#45;&gt;[root] output.ssh_command -->
<g id="edge_22" class="edge">
<title>[root] meta.count&#45;boundary (count boundary fixup)&#45;&gt;[root] output.ssh_command</title>
<path fill="none" stroke="#000000" d="M798.0244,-374.306C852.2501,-368.1865 956.7933,-353.8515 1052.3515,-323.8731"/>
<polygon fill="#000000" stroke="#000000" points="1053.708,-327.1137 1062.1627,-320.7287 1051.5716,-320.4477 1053.708,-327.1137"/>
</g>
<!-- [root] output.vm_fqdn -->
<g id="node_22" class="node">
<title>[root] output.vm_fqdn</title>
<polygon fill="none" stroke="#000000" points="1087.3139,-234 1087.3139,-249 1126.3139,-249 1126.3139,-234 1087.3139,-234"/>
<text text-anchor="start" x="1092.4116" y="-239.6" font-family="courier new" font-size="8.00" fill="#000000">output</text>
<polygon fill="none" stroke="#000000" points="1087.3139,-219 1087.3139,-234 1126.3139,-234 1126.3139,-219 1087.3139,-219"/>
<text text-anchor="start" x="1090.0112" y="-224.6" font-family="courier new" font-size="8.00" fill="#000000">vm_fqdn</text>
</g>
<!-- [root] meta.count&#45;boundary (count boundary fixup)&#45;&gt;[root] output.vm_fqdn -->
<g id="edge_23" class="edge">
<title>[root] meta.count&#45;boundary (count boundary fixup)&#45;&gt;[root] output.vm_fqdn</title>
<path fill="none" stroke="#000000" d="M798.0314,-375.3056C886.8838,-368.4142 1107.784,-348.9198 1129.3139,-324 1144.4231,-306.512 1135.4093,-280.4008 1124.5452,-260.8006"/>
<polygon fill="#000000" stroke="#000000" points="1127.4534,-258.8433 1119.3328,-252.0384 1121.4373,-262.4221 1127.4534,-258.8433"/>
</g>
<!-- [root] var.address_space -->
<g id="node_23" class="node">
<title>[root] var.address_space</title>
<polygon fill="none" stroke="#000000" points="276.3139,-306 276.3139,-321 344.3139,-321 344.3139,-306 276.3139,-306"/>
<text text-anchor="start" x="303.1128" y="-311.6" font-family="courier new" font-size="8.00" fill="#000000">var</text>
<polygon fill="none" stroke="#000000" points="276.3139,-291 276.3139,-306 344.3139,-306 344.3139,-291 276.3139,-291"/>
<text text-anchor="start" x="279.1088" y="-296.6" font-family="courier new" font-size="8.00" fill="#000000">address_space</text>
</g>
<!-- [root] meta.count&#45;boundary (count boundary fixup)&#45;&gt;[root] var.address_space -->
<g id="edge_24" class="edge">
<title>[root] meta.count&#45;boundary (count boundary fixup)&#45;&gt;[root] var.address_space</title>
<path fill="none" stroke="#000000" d="M724.6583,-376.3972C654.128,-372.6229 494.8237,-360.7474 354.8164,-324.0343"/>
<polygon fill="#000000" stroke="#000000" points="355.3355,-320.5501 344.7707,-321.3478 353.527,-327.3125 355.3355,-320.5501"/>
</g>
<!-- [root] var.existing_subnet_name -->
<g id="node_24" class="node">
<title>[root] var.existing_subnet_name</title>
<polygon fill="none" stroke="#000000" points="362.3139,-306 362.3139,-321 464.3139,-321 464.3139,-306 362.3139,-306"/>
<text text-anchor="start" x="406.1128" y="-311.6" font-family="courier new" font-size="8.00" fill="#000000">var</text>
<polygon fill="none" stroke="#000000" points="362.3139,-291 362.3139,-306 464.3139,-306 464.3139,-291 362.3139,-291"/>
<text text-anchor="start" x="365.3061" y="-296.6" font-family="courier new" font-size="8.00" fill="#000000">existing_subnet_name</text>
</g>
<!-- [root] meta.count&#45;boundary (count boundary fixup)&#45;&gt;[root] var.existing_subnet_name -->
<g id="edge_25" class="edge">
<title>[root] meta.count&#45;boundary (count boundary fixup)&#45;&gt;[root] var.existing_subnet_name</title>
<path fill="none" stroke="#000000" d="M724.6787,-372.4101C671.5338,-364.0229 569.8298,-346.9285 474.4097,-324.1444"/>
<polygon fill="#000000" stroke="#000000" points="475.1451,-320.7215 464.603,-321.777 473.5024,-327.526 475.1451,-320.7215"/>
</g>
<!-- [root] var.existing_virtual_network_name -->
<g id="node_25" class="node">
<title>[root] var.existing_virtual_network_name</title>
<polygon fill="none" stroke="#000000" points="483.3139,-306 483.3139,-321 628.3139,-321 628.3139,-306 483.3139,-306"/>
<text text-anchor="start" x="548.6128" y="-311.6" font-family="courier new" font-size="8.00" fill="#000000">var</text>
<polygon fill="none" stroke="#000000" points="483.3139,-291 483.3139,-306 628.3139,-306 628.3139,-291 483.3139,-291"/>
<text text-anchor="start" x="486.2026" y="-296.6" font-family="courier new" font-size="8.00" fill="#000000">existing_virtual_network_name</text>
</g>
<!-- [root] meta.count&#45;boundary (count boundary fixup)&#45;&gt;[root] var.existing_virtual_network_name -->
<g id="edge_26" class="edge">
<title>[root] meta.count&#45;boundary (count boundary fixup)&#45;&gt;[root] var.existing_virtual_network_name</title>
<path fill="none" stroke="#000000" d="M724.4853,-365.1278C694.5487,-354.6646 651.6792,-339.6811 616.5867,-327.4157"/>
<polygon fill="#000000" stroke="#000000" points="617.5071,-324.0298 606.9123,-324.0344 615.1974,-330.6379 617.5071,-324.0298"/>
</g>
<!-- [root] var.image_offer -->
<g id="node_26" class="node">
<title>[root] var.image_offer</title>
<polygon fill="none" stroke="#000000" points="646.3139,-306 646.3139,-321 704.3139,-321 704.3139,-306 646.3139,-306"/>
<text text-anchor="start" x="668.1128" y="-311.6" font-family="courier new" font-size="8.00" fill="#000000">var</text>
<polygon fill="none" stroke="#000000" points="646.3139,-291 646.3139,-306 704.3139,-306 704.3139,-291 646.3139,-291"/>
<text text-anchor="start" x="648.9096" y="-296.6" font-family="courier new" font-size="8.00" fill="#000000">image_offer</text>
</g>
<!-- [root] meta.count&#45;boundary (count boundary fixup)&#45;&gt;[root] var.image_offer -->
<g id="edge_27" class="edge">
<title>[root] meta.count&#45;boundary (count boundary fixup)&#45;&gt;[root] var.image_offer</title>
<path fill="none" stroke="#000000" d="M739.6125,-359.8314C729.1218,-351.0485 716.3684,-340.3712 704.9945,-330.8489"/>
<polygon fill="#000000" stroke="#000000" points="706.9228,-327.8986 697.0084,-324.1628 702.4292,-333.2659 706.9228,-327.8986"/>
</g>
<!-- [root] var.image_publisher -->
<g id="node_27" class="node">
<title>[root] var.image_publisher</title>
<polygon fill="none" stroke="#000000" points="722.3139,-306 722.3139,-321 800.3139,-321 800.3139,-306 722.3139,-306"/>
<text text-anchor="start" x="754.1128" y="-311.6" font-family="courier new" font-size="8.00" fill="#000000">var</text>
<polygon fill="none" stroke="#000000" points="722.3139,-291 722.3139,-306 800.3139,-306 800.3139,-291 722.3139,-291"/>
<text text-anchor="start" x="725.3081" y="-296.6" font-family="courier new" font-size="8.00" fill="#000000">image_publisher</text>
</g>
<!-- [root] meta.count&#45;boundary (count boundary fixup)&#45;&gt;[root] var.image_publisher -->
<g id="edge_28" class="edge">
<title>[root] meta.count&#45;boundary (count boundary fixup)&#45;&gt;[root] var.image_publisher</title>
<path fill="none" stroke="#000000" d="M761.3139,-359.8314C761.3139,-352.131 761.3139,-342.9743 761.3139,-334.4166"/>
<polygon fill="#000000" stroke="#000000" points="764.814,-334.4132 761.3139,-324.4133 757.814,-334.4133 764.814,-334.4132"/>
</g>
<!-- [root] var.image_sku -->
<g id="node_28" class="node">
<title>[root] var.image_sku</title>
<polygon fill="none" stroke="#000000" points="821.3139,-306 821.3139,-321 870.3139,-321 870.3139,-306 821.3139,-306"/>
<text text-anchor="start" x="838.6128" y="-311.6" font-family="courier new" font-size="8.00" fill="#000000">var</text>
<polygon fill="none" stroke="#000000" points="821.3139,-291 821.3139,-306 870.3139,-306 870.3139,-291 821.3139,-291"/>
<text text-anchor="start" x="824.2104" y="-296.6" font-family="courier new" font-size="8.00" fill="#000000">image_sku</text>
</g>
<!-- [root] meta.count&#45;boundary (count boundary fixup)&#45;&gt;[root] var.image_sku -->
<g id="edge_29" class="edge">
<title>[root] meta.count&#45;boundary (count boundary fixup)&#45;&gt;[root] var.image_sku</title>
<path fill="none" stroke="#000000" d="M782.5107,-359.8314C792.7574,-351.0485 805.2142,-340.3712 816.3236,-330.8489"/>
<polygon fill="#000000" stroke="#000000" points="818.8092,-333.3282 824.124,-324.1628 814.2536,-328.0134 818.8092,-333.3282"/>
</g>
<!-- [root] var.image_version -->
<g id="node_29" class="node">
<title>[root] var.image_version</title>
<polygon fill="none" stroke="#000000" points="890.3139,-306 890.3139,-321 958.3139,-321 958.3139,-306 890.3139,-306"/>
<text text-anchor="start" x="917.1128" y="-311.6" font-family="courier new" font-size="8.00" fill="#000000">var</text>
<polygon fill="none" stroke="#000000" points="890.3139,-291 890.3139,-306 958.3139,-306 958.3139,-291 890.3139,-291"/>
<text text-anchor="start" x="893.1088" y="-296.6" font-family="courier new" font-size="8.00" fill="#000000">image_version</text>
</g>
<!-- [root] meta.count&#45;boundary (count boundary fixup)&#45;&gt;[root] var.image_version -->
<g id="edge_30" class="edge">
<title>[root] meta.count&#45;boundary (count boundary fixup)&#45;&gt;[root] var.image_version</title>
<path fill="none" stroke="#000000" d="M797.8943,-361.8418C822.4717,-350.9855 854.975,-336.6283 880.8692,-325.1903"/>
<polygon fill="#000000" stroke="#000000" points="882.3501,-328.3625 890.0833,-321.1203 879.5217,-321.9593 882.3501,-328.3625"/>
</g>
<!-- [root] var.subnet_prefix -->
<g id="node_30" class="node">
<title>[root] var.subnet_prefix</title>
<polygon fill="none" stroke="#000000" points="976.3139,-306 976.3139,-321 1044.3139,-321 1044.3139,-306 976.3139,-306"/>
<text text-anchor="start" x="1003.1128" y="-311.6" font-family="courier new" font-size="8.00" fill="#000000">var</text>
<polygon fill="none" stroke="#000000" points="976.3139,-291 976.3139,-306 1044.3139,-306 1044.3139,-291 976.3139,-291"/>
<text text-anchor="start" x="979.1088" y="-296.6" font-family="courier new" font-size="8.00" fill="#000000">subnet_prefix</text>
</g>
<!-- [root] meta.count&#45;boundary (count boundary fixup)&#45;&gt;[root] var.subnet_prefix -->
<g id="edge_31" class="edge">
<title>[root] meta.count&#45;boundary (count boundary fixup)&#45;&gt;[root] var.subnet_prefix</title>
<path fill="none" stroke="#000000" d="M797.864,-370.0519C837.3755,-361.1031 902.2753,-345.3712 966.3537,-324.1019"/>
<polygon fill="#000000" stroke="#000000" points="967.8516,-327.2907 976.2121,-320.7828 965.618,-320.6566 967.8516,-327.2907"/>
</g>
<!-- [root] output.hostname&#45;&gt;[root] var.hostname -->
<g id="edge_32" class="edge">
<title>[root] output.hostname&#45;&gt;[root] var.hostname</title>
<path fill="none" stroke="#000000" d="M1111.3128,-149.2936C1086.4491,-137.593 1049.3601,-120.1394 1021.8537,-107.1952"/>
<polygon fill="#000000" stroke="#000000" points="1023.0983,-103.9127 1012.5598,-102.8216 1020.1177,-110.2465 1023.0983,-103.9127"/>
</g>
<!-- [root] output.ssh_command&#45;&gt;[root] azurerm_public_ip.pip -->
<g id="edge_33" class="edge">
<title>[root] output.ssh_command&#45;&gt;[root] azurerm_public_ip.pip</title>
<path fill="none" stroke="#000000" d="M1077.889,-287.7623C1059.4109,-262.66 1026.0221,-217.3017 1004.7966,-188.4671"/>
<polygon fill="#000000" stroke="#000000" points="1007.3768,-186.0681 998.6299,-180.0896 1001.7394,-190.2179 1007.3768,-186.0681"/>
</g>
<!-- [root] output.ssh_command&#45;&gt;[root] var.admin_username -->
<g id="edge_34" class="edge">
<title>[root] output.ssh_command&#45;&gt;[root] var.admin_username</title>
<path fill="none" stroke="#000000" d="M1062.096,-291.4669C1059.161,-290.217 1056.1995,-289.0363 1053.3139,-288 996.94,-267.755 929.6182,-252.0993 885.7395,-242.977"/>
<polygon fill="#000000" stroke="#000000" points="886.428,-239.5455 875.9287,-240.9651 885.0217,-246.4028 886.428,-239.5455"/>
</g>
<!-- [root] output.vm_fqdn&#45;&gt;[root] azurerm_public_ip.pip -->
<g id="edge_35" class="edge">
<title>[root] output.vm_fqdn&#45;&gt;[root] azurerm_public_ip.pip</title>
<path fill="none" stroke="#000000" d="M1079.1592,-217.8418C1063.1388,-208.309 1042.582,-196.0769 1024.7937,-185.4921"/>
<polygon fill="#000000" stroke="#000000" points="1026.1661,-182.236 1015.7826,-180.1301 1022.5866,-188.2516 1026.1661,-182.236"/>
</g>
<!-- [root] provider.azurerm (close) -->
<g id="node_31" class="node">
<title>[root] provider.azurerm (close)</title>
<polygon fill="none" stroke="#000000" points="418.3139,-378 418.3139,-393 462.3139,-393 462.3139,-378 418.3139,-378"/>
<text text-anchor="start" x="421.1108" y="-383.6" font-family="courier new" font-size="8.00" fill="#000000">provider</text>
<polygon fill="none" stroke="#000000" points="418.3139,-363 418.3139,-378 462.3139,-378 462.3139,-363 418.3139,-363"/>
<text text-anchor="start" x="423.5112" y="-368.6" font-family="courier new" font-size="8.00" fill="#000000">azurerm</text>
</g>
<!-- [root] provider.azurerm (close)&#45;&gt;[root] azurerm_virtual_machine.vm -->
<g id="edge_36" class="edge">
<title>[root] provider.azurerm (close)&#45;&gt;[root] azurerm_virtual_machine.vm</title>
<path fill="none" stroke="#000000" d="M413.2494,-369.8806C378.384,-359.421 316.5496,-340.8707 268.4657,-326.4455"/>
<polygon fill="#000000" stroke="#000000" points="269.3208,-323.048 258.7368,-323.5269 267.3093,-329.7528 269.3208,-323.048"/>
</g>
<!-- [root] root -->
<g id="node_32" class="node">
<title>[root] root</title>
<polygon fill="none" stroke="#000000" points="515.6228,-468 447.0051,-468 447.0051,-432 515.6228,-432 515.6228,-468"/>
<text text-anchor="middle" x="481.3139" y="-448.1313" font-family="courier new" font-size="8.00" fill="#000000">[root] root</text>
</g>
<!-- [root] root&#45;&gt;[root] meta.count&#45;boundary (count boundary fixup) -->
<g id="edge_37" class="edge">
<title>[root] root&#45;&gt;[root] meta.count&#45;boundary (count boundary fixup)</title>
<path fill="none" stroke="#000000" d="M515.6474,-441.1714C565.6543,-428.3125 658.6632,-404.3959 714.7827,-389.9652"/>
<polygon fill="#000000" stroke="#000000" points="715.6617,-393.3531 724.4749,-387.4729 713.9183,-386.5736 715.6617,-393.3531"/>
</g>
<!-- [root] root&#45;&gt;[root] provider.azurerm (close) -->
<g id="edge_38" class="edge">
<title>[root] root&#45;&gt;[root] provider.azurerm (close)</title>
<path fill="none" stroke="#000000" d="M470.9679,-431.8314C466.3902,-423.7925 460.9088,-414.1666 455.8551,-405.2918"/>
<polygon fill="#000000" stroke="#000000" points="458.7891,-403.3712 450.7993,-396.4133 452.7062,-406.8351 458.7891,-403.3712"/>
</g>
</g>
</svg>

