<?xml version="1.0" encoding="UTF-8" standalone="no"?>
<!DOCTYPE svg PUBLIC "-//W3C//DTD SVG 1.1//EN"
 "http://www.w3.org/Graphics/SVG/1.1/DTD/svg11.dtd">
<!-- Generated by graphviz version 2.40.1 (20161225.0304)
 -->
<!-- Title: %3 Pages: 1 -->
<svg width="778pt" height="708pt"
 viewBox="0.00 0.00 778.00 708.00" xmlns="http://www.w3.org/2000/svg" xmlns:xlink="http://www.w3.org/1999/xlink">
<g id="graph0" class="graph" transform="scale(1 1) rotate(0) translate(4 704)">
<title>%3</title>
<polygon fill="#ffffff" stroke="transparent" points="-4,4 -4,-704 774,-704 774,4 -4,4"/>
<g id="clust2" class="cluster">
<title>cluster[root] azurerm_network_interface.nic_var_</title>
</g>
<g id="clust3" class="cluster">
<title>cluster[root] azurerm_resource_group.rg_var_</title>
</g>
<g id="clust4" class="cluster">
<title>cluster[root] azurerm_storage_account.stor_var_</title>
</g>
<g id="clust5" class="cluster">
<title>cluster[root] azurerm_virtual_machine.vm_var_</title>
</g>
<g id="clust6" class="cluster">
<title>cluster[root] meta.count&#45;boundary (count boundary fixup)_var_</title>
</g>
<g id="clust7" class="cluster">
<title>cluster[root] meta.count&#45;boundary (count boundary fixup)_output_[root] var.hostname</title>
</g>
<g id="clust8" class="cluster">
<title>cluster[root] meta.count&#45;boundary (count boundary fixup)_output_[root] azurerm_public_ip.pip</title>
</g>
<!-- [root] azurerm_network_interface.nic -->
<g id="node_0" class="node">
<title>[root] azurerm_network_interface.nic</title>
<polygon fill="none" stroke="#000000" points="227,-466 227,-481 353,-481 353,-466 227,-466"/>
<text text-anchor="start" x="229.9902" y="-471.6" font-family="courier new" font-size="8.00" fill="#000000">azurerm_network_interface</text>
<polygon fill="none" stroke="#000000" points="227,-451 227,-466 353,-466 353,-451 227,-451"/>
<text text-anchor="start" x="282.7988" y="-456.6" font-family="courier new" font-size="8.00" fill="#000000">nic</text>
</g>
<!-- [root] azurerm_public_ip.pip -->
<g id="node_1" class="node">
<title>[root] azurerm_public_ip.pip</title>
<polygon fill="none" stroke="#000000" points="430,-394 430,-409 517,-409 517,-394 430,-394"/>
<text text-anchor="start" x="432.6934" y="-399.6" font-family="courier new" font-size="8.00" fill="#000000">azurerm_public_ip</text>
<polygon fill="none" stroke="#000000" points="430,-379 430,-394 517,-394 517,-379 430,-379"/>
<text text-anchor="start" x="466.2988" y="-384.6" font-family="courier new" font-size="8.00" fill="#000000">pip</text>
</g>
<!-- [root] azurerm_network_interface.nic&#45;&gt;[root] azurerm_public_ip.pip -->
<g id="edge_0" class="edge">
<title>[root] azurerm_network_interface.nic&#45;&gt;[root] azurerm_public_ip.pip</title>
<path fill="none" stroke="#000000" d="M346.3682,-447.944C369.7177,-440.0178 396.918,-430.2007 421,-420 423.6575,-418.8743 426.3701,-417.6758 429.0923,-416.4346"/>
<polygon fill="#000000" stroke="#000000" points="430.7594,-419.5183 438.3186,-412.0948 427.7799,-413.1841 430.7594,-419.5183"/>
</g>
<!-- [root] var.existing_subnet_id -->
<g id="node_6" class="node">
<title>[root] var.existing_subnet_id</title>
<polygon fill="none" stroke="#000000" points="317,-394 317,-409 409,-409 409,-394 317,-394"/>
<text text-anchor="start" x="355.7988" y="-399.6" font-family="courier new" font-size="8.00" fill="#000000">var</text>
<polygon fill="none" stroke="#000000" points="317,-379 317,-394 409,-394 409,-379 317,-379"/>
<text text-anchor="start" x="319.793" y="-384.6" font-family="courier new" font-size="8.00" fill="#000000">existing_subnet_id</text>
</g>
<!-- [root] azurerm_network_interface.nic&#45;&gt;[root] var.existing_subnet_id -->
<g id="edge_1" class="edge">
<title>[root] azurerm_network_interface.nic&#45;&gt;[root] var.existing_subnet_id</title>
<path fill="none" stroke="#000000" d="M308.421,-447.8314C317.1529,-439.219 327.7317,-428.7851 337.2423,-419.4048"/>
<polygon fill="#000000" stroke="#000000" points="339.923,-421.6769 344.5849,-412.1628 335.0075,-416.6931 339.923,-421.6769"/>
</g>
<!-- [root] azurerm_resource_group.rg -->
<g id="node_2" class="node">
<title>[root] azurerm_resource_group.rg</title>
<polygon fill="none" stroke="#000000" points="319,-322 319,-337 430,-337 430,-322 319,-322"/>
<text text-anchor="start" x="321.6914" y="-327.6" font-family="courier new" font-size="8.00" fill="#000000">azurerm_resource_group</text>
<polygon fill="none" stroke="#000000" points="319,-307 319,-322 430,-322 430,-307 319,-307"/>
<text text-anchor="start" x="369.6992" y="-312.6" font-family="courier new" font-size="8.00" fill="#000000">rg</text>
</g>
<!-- [root] azurerm_public_ip.pip&#45;&gt;[root] azurerm_resource_group.rg -->
<g id="edge_2" class="edge">
<title>[root] azurerm_public_ip.pip&#45;&gt;[root] azurerm_resource_group.rg</title>
<path fill="none" stroke="#000000" d="M448.0181,-375.8314C435.7072,-366.8779 420.6893,-355.9558 407.4063,-346.2955"/>
<polygon fill="#000000" stroke="#000000" points="409.1199,-343.214 398.9739,-340.1628 405.0027,-348.8752 409.1199,-343.214"/>
</g>
<!-- [root] var.hostname -->
<g id="node_7" class="node">
<title>[root] var.hostname</title>
<polygon fill="none" stroke="#000000" points="453,-322 453,-337 497,-337 497,-322 453,-322"/>
<text text-anchor="start" x="467.7988" y="-327.6" font-family="courier new" font-size="8.00" fill="#000000">var</text>
<polygon fill="none" stroke="#000000" points="453,-307 453,-322 497,-322 497,-307 453,-307"/>
<text text-anchor="start" x="455.7969" y="-312.6" font-family="courier new" font-size="8.00" fill="#000000">hostname</text>
</g>
<!-- [root] azurerm_public_ip.pip&#45;&gt;[root] var.hostname -->
<g id="edge_3" class="edge">
<title>[root] azurerm_public_ip.pip&#45;&gt;[root] var.hostname</title>
<path fill="none" stroke="#000000" d="M473.5047,-375.8314C473.7186,-368.131 473.9729,-358.9743 474.2106,-350.4166"/>
<polygon fill="#000000" stroke="#000000" points="477.7094,-350.5066 474.4885,-340.4133 470.7121,-350.3122 477.7094,-350.5066"/>
</g>
<!-- [root] provider.azurerm -->
<g id="node_5" class="node">
<title>[root] provider.azurerm</title>
<polygon fill="none" stroke="#000000" points="426,-250 426,-265 470,-265 470,-250 426,-250"/>
<text text-anchor="start" x="428.7969" y="-255.6" font-family="courier new" font-size="8.00" fill="#000000">provider</text>
<polygon fill="none" stroke="#000000" points="426,-235 426,-250 470,-250 470,-235 426,-235"/>
<text text-anchor="start" x="431.1973" y="-240.6" font-family="courier new" font-size="8.00" fill="#000000">azurerm</text>
</g>
<!-- [root] azurerm_resource_group.rg&#45;&gt;[root] provider.azurerm -->
<g id="edge_4" class="edge">
<title>[root] azurerm_resource_group.rg&#45;&gt;[root] provider.azurerm</title>
<path fill="none" stroke="#000000" d="M392.6733,-303.8314C401.5249,-295.219 412.2486,-284.7851 421.8895,-275.4048"/>
<polygon fill="#000000" stroke="#000000" points="424.6061,-277.645 429.3326,-268.1628 419.7246,-272.6279 424.6061,-277.645"/>
</g>
<!-- [root] var.location -->
<g id="node_8" class="node">
<title>[root] var.location</title>
<polygon fill="none" stroke="#000000" points="349,-250 349,-265 393,-265 393,-250 349,-250"/>
<text text-anchor="start" x="363.7988" y="-255.6" font-family="courier new" font-size="8.00" fill="#000000">var</text>
<polygon fill="none" stroke="#000000" points="349,-235 349,-250 393,-250 393,-235 349,-235"/>
<text text-anchor="start" x="351.7969" y="-240.6" font-family="courier new" font-size="8.00" fill="#000000">location</text>
</g>
<!-- [root] azurerm_resource_group.rg&#45;&gt;[root] var.location -->
<g id="edge_5" class="edge">
<title>[root] azurerm_resource_group.rg&#45;&gt;[root] var.location</title>
<path fill="none" stroke="#000000" d="M373.243,-303.8314C372.9221,-296.131 372.5406,-286.9743 372.184,-278.4166"/>
<polygon fill="#000000" stroke="#000000" points="375.6806,-278.2589 371.7672,-268.4133 368.6867,-278.5503 375.6806,-278.2589"/>
</g>
<!-- [root] azurerm_storage_account.stor -->
<g id="node_3" class="node">
<title>[root] azurerm_storage_account.stor</title>
<polygon fill="none" stroke="#000000" points="183,-394 183,-409 299,-409 299,-394 183,-394"/>
<text text-anchor="start" x="185.791" y="-399.6" font-family="courier new" font-size="8.00" fill="#000000">azurerm_storage_account</text>
<polygon fill="none" stroke="#000000" points="183,-379 183,-394 299,-394 299,-379 183,-379"/>
<text text-anchor="start" x="231.3984" y="-384.6" font-family="courier new" font-size="8.00" fill="#000000">stor</text>
</g>
<!-- [root] azurerm_storage_account.stor&#45;&gt;[root] azurerm_resource_group.rg -->
<g id="edge_7" class="edge">
<title>[root] azurerm_storage_account.stor&#45;&gt;[root] azurerm_resource_group.rg</title>
<path fill="none" stroke="#000000" d="M274.5615,-375.8314C291.8881,-366.4516 313.2058,-354.9112 331.6536,-344.9244"/>
<polygon fill="#000000" stroke="#000000" points="333.3214,-348.0015 340.4492,-340.1628 329.9889,-341.8457 333.3214,-348.0015"/>
</g>
<!-- [root] azurerm_storage_account.stor&#45;&gt;[root] var.hostname -->
<g id="edge_8" class="edge">
<title>[root] azurerm_storage_account.stor&#45;&gt;[root] var.hostname</title>
<path fill="none" stroke="#000000" d="M281.4698,-375.8774C289.172,-372.9115 297.2495,-370.1202 305,-368 363.0813,-352.1116 383.2339,-370.7161 439,-348 440.8742,-347.2365 442.7426,-346.3563 444.5866,-345.3912"/>
<polygon fill="#000000" stroke="#000000" points="446.7609,-348.1673 453.5181,-340.007 443.1469,-342.1724 446.7609,-348.1673"/>
</g>
<!-- [root] var.storage_account_tier -->
<g id="node_10" class="node">
<title>[root] var.storage_account_tier</title>
<polygon fill="none" stroke="#000000" points="190,-322 190,-337 292,-337 292,-322 190,-322"/>
<text text-anchor="start" x="233.7988" y="-327.6" font-family="courier new" font-size="8.00" fill="#000000">var</text>
<polygon fill="none" stroke="#000000" points="190,-307 190,-322 292,-322 292,-307 190,-307"/>
<text text-anchor="start" x="192.9922" y="-312.6" font-family="courier new" font-size="8.00" fill="#000000">storage_account_tier</text>
</g>
<!-- [root] azurerm_storage_account.stor&#45;&gt;[root] var.storage_account_tier -->
<g id="edge_9" class="edge">
<title>[root] azurerm_storage_account.stor&#45;&gt;[root] var.storage_account_tier</title>
<path fill="none" stroke="#000000" d="M241,-375.8314C241,-368.131 241,-358.9743 241,-350.4166"/>
<polygon fill="#000000" stroke="#000000" points="244.5001,-350.4132 241,-340.4133 237.5001,-350.4133 244.5001,-350.4132"/>
</g>
<!-- [root] azurerm_virtual_machine.vm -->
<g id="node_4" class="node">
<title>[root] azurerm_virtual_machine.vm</title>
<polygon fill="none" stroke="#000000" points="239,-538 239,-553 355,-553 355,-538 239,-538"/>
<text text-anchor="start" x="241.791" y="-543.6" font-family="courier new" font-size="8.00" fill="#000000">azurerm_virtual_machine</text>
<polygon fill="none" stroke="#000000" points="239,-523 239,-538 355,-538 355,-523 239,-523"/>
<text text-anchor="start" x="292.1992" y="-528.6" font-family="courier new" font-size="8.00" fill="#000000">vm</text>
</g>
<!-- [root] azurerm_virtual_machine.vm&#45;&gt;[root] azurerm_network_interface.nic -->
<g id="edge_11" class="edge">
<title>[root] azurerm_virtual_machine.vm&#45;&gt;[root] azurerm_network_interface.nic</title>
<path fill="none" stroke="#000000" d="M295.2336,-519.8314C294.485,-512.131 293.5947,-502.9743 292.7627,-494.4166"/>
<polygon fill="#000000" stroke="#000000" points="296.2415,-494.0276 291.7902,-484.4133 289.2744,-494.7051 296.2415,-494.0276"/>
</g>
<!-- [root] azurerm_virtual_machine.vm&#45;&gt;[root] azurerm_storage_account.stor -->
<g id="edge_12" class="edge">
<title>[root] azurerm_virtual_machine.vm&#45;&gt;[root] azurerm_storage_account.stor</title>
<path fill="none" stroke="#000000" d="M248.1679,-519.9777C236.2101,-513.1176 224.8818,-503.9705 218,-492 205.3859,-470.0584 214.404,-441.5796 224.6162,-420.9817"/>
<polygon fill="#000000" stroke="#000000" points="227.7209,-422.5977 229.3189,-412.1241 221.5382,-419.3152 227.7209,-422.5977"/>
</g>
<!-- [root] var.admin_username -->
<g id="node_13" class="node">
<title>[root] var.admin_username</title>
<polygon fill="none" stroke="#000000" points="372,-466 372,-481 445,-481 445,-466 372,-466"/>
<text text-anchor="start" x="401.2988" y="-471.6" font-family="courier new" font-size="8.00" fill="#000000">var</text>
<polygon fill="none" stroke="#000000" points="372,-451 372,-466 445,-466 445,-451 372,-451"/>
<text text-anchor="start" x="374.8945" y="-456.6" font-family="courier new" font-size="8.00" fill="#000000">admin_username</text>
</g>
<!-- [root] azurerm_virtual_machine.vm&#45;&gt;[root] var.admin_username -->
<g id="edge_14" class="edge">
<title>[root] azurerm_virtual_machine.vm&#45;&gt;[root] var.admin_username</title>
<path fill="none" stroke="#000000" d="M325.01,-519.8314C339.0761,-510.7074 356.294,-499.539 371.3933,-489.7449"/>
<polygon fill="#000000" stroke="#000000" points="373.514,-492.5412 379.999,-484.1628 369.7047,-486.6684 373.514,-492.5412"/>
</g>
<!-- [root] var.admin_password -->
<g id="node_12" class="node">
<title>[root] var.admin_password</title>
<polygon fill="none" stroke="#000000" points="70,-466 70,-481 143,-481 143,-466 70,-466"/>
<text text-anchor="start" x="99.2988" y="-471.6" font-family="courier new" font-size="8.00" fill="#000000">var</text>
<polygon fill="none" stroke="#000000" points="70,-451 70,-466 143,-466 143,-451 70,-451"/>
<text text-anchor="start" x="72.8945" y="-456.6" font-family="courier new" font-size="8.00" fill="#000000">admin_password</text>
</g>
<!-- [root] azurerm_virtual_machine.vm&#45;&gt;[root] var.admin_password -->
<g id="edge_13" class="edge">
<title>[root] azurerm_virtual_machine.vm&#45;&gt;[root] var.admin_password</title>
<path fill="none" stroke="#000000" d="M248.8026,-519.8314C219.2148,-508.6778 181.5225,-494.4692 152.2923,-483.4505"/>
<polygon fill="#000000" stroke="#000000" points="153.3196,-480.0974 142.7278,-479.845 150.8504,-486.6475 153.3196,-480.0974"/>
</g>
<!-- [root] meta.count&#45;boundary (count boundary fixup) -->
<g id="node_19" class="node">
<title>[root] meta.count&#45;boundary (count boundary fixup)</title>
<polygon fill="none" stroke="#000000" points="406,-610 406,-625 479,-625 479,-610 406,-610"/>
<text text-anchor="start" x="432.8984" y="-615.6" font-family="courier new" font-size="8.00" fill="#000000">meta</text>
<polygon fill="none" stroke="#000000" points="406,-595 406,-610 479,-610 479,-595 406,-595"/>
<text text-anchor="start" x="408.8945" y="-600.6" font-family="courier new" font-size="8.00" fill="#000000">count&#45;boundary</text>
</g>
<!-- [root] meta.count&#45;boundary (count boundary fixup)&#45;&gt;[root] azurerm_virtual_machine.vm -->
<g id="edge_20" class="edge">
<title>[root] meta.count&#45;boundary (count boundary fixup)&#45;&gt;[root] azurerm_virtual_machine.vm</title>
<path fill="none" stroke="#000000" d="M405.4104,-591.8314C386.2761,-582.3302 362.6771,-570.6121 342.3878,-560.5374"/>
<polygon fill="#000000" stroke="#000000" points="343.8397,-557.3506 333.3265,-556.038 340.7265,-563.6203 343.8397,-557.3506"/>
</g>
<!-- [root] output.ssh_command -->
<g id="node_21" class="node">
<title>[root] output.ssh_command</title>
<polygon fill="none" stroke="#000000" points="376,-538 376,-553 434,-553 434,-538 376,-538"/>
<text text-anchor="start" x="390.5977" y="-543.6" font-family="courier new" font-size="8.00" fill="#000000">output</text>
<polygon fill="none" stroke="#000000" points="376,-523 376,-538 434,-538 434,-523 376,-523"/>
<text text-anchor="start" x="378.5957" y="-528.6" font-family="courier new" font-size="8.00" fill="#000000">ssh_command</text>
</g>
<!-- [root] meta.count&#45;boundary (count boundary fixup)&#45;&gt;[root] output.ssh_command -->
<g id="edge_22" class="edge">
<title>[root] meta.count&#45;boundary (count boundary fixup)&#45;&gt;[root] output.ssh_command</title>
<path fill="none" stroke="#000000" d="M432.6633,-591.8314C428.5757,-583.8771 423.6896,-574.369 419.1691,-565.5723"/>
<polygon fill="#000000" stroke="#000000" points="422.1461,-563.7078 414.4624,-556.4133 415.9201,-566.9074 422.1461,-563.7078"/>
</g>
<!-- [root] var.address_space -->
<g id="node_23" class="node">
<title>[root] var.address_space</title>
<polygon fill="none" stroke="#000000" points="622,-538 622,-553 690,-553 690,-538 622,-538"/>
<text text-anchor="start" x="648.7988" y="-543.6" font-family="courier new" font-size="8.00" fill="#000000">var</text>
<polygon fill="none" stroke="#000000" points="622,-523 622,-538 690,-538 690,-523 622,-523"/>
<text text-anchor="start" x="624.7949" y="-528.6" font-family="courier new" font-size="8.00" fill="#000000">address_space</text>
</g>
<!-- [root] meta.count&#45;boundary (count boundary fixup)&#45;&gt;[root] var.address_space -->
<g id="edge_24" class="edge">
<title>[root] meta.count&#45;boundary (count boundary fixup)&#45;&gt;[root] var.address_space</title>
<path fill="none" stroke="#000000" d="M478.8042,-600.3304C510.2561,-591.7535 556.5455,-578.3835 596,-564 601.2663,-562.0801 606.7331,-559.9336 612.1272,-557.7194"/>
<polygon fill="#000000" stroke="#000000" points="613.8373,-560.7972 621.699,-553.6948 611.1241,-554.3444 613.8373,-560.7972"/>
</g>
<!-- [root] output.hostname -->
<g id="node_20" class="node">
<title>[root] output.hostname</title>
<polygon fill="none" stroke="#000000" points="535,-538 535,-553 579,-553 579,-538 535,-538"/>
<text text-anchor="start" x="542.5977" y="-543.6" font-family="courier new" font-size="8.00" fill="#000000">output</text>
<polygon fill="none" stroke="#000000" points="535,-523 535,-538 579,-538 579,-523 535,-523"/>
<text text-anchor="start" x="537.7969" y="-528.6" font-family="courier new" font-size="8.00" fill="#000000">hostname</text>
</g>
<!-- [root] meta.count&#45;boundary (count boundary fixup)&#45;&gt;[root] output.hostname -->
<g id="edge_21" class="edge">
<title>[root] meta.count&#45;boundary (count boundary fixup)&#45;&gt;[root] output.hostname</title>
<path fill="none" stroke="#000000" d="M472.5125,-591.9466C486.4669,-583.5842 503.1609,-573.4308 518,-564 519.2448,-563.2089 520.5088,-562.3995 521.7831,-561.5783"/>
<polygon fill="#000000" stroke="#000000" points="523.7834,-564.4524 530.2472,-556.0577 519.9592,-558.5892 523.7834,-564.4524"/>
</g>
<!-- [root] output.vm_fqdn -->
<g id="node_22" class="node">
<title>[root] output.vm_fqdn</title>
<polygon fill="none" stroke="#000000" points="460,-538 460,-553 499,-553 499,-538 460,-538"/>
<text text-anchor="start" x="465.0977" y="-543.6" font-family="courier new" font-size="8.00" fill="#000000">output</text>
<polygon fill="none" stroke="#000000" points="460,-523 460,-538 499,-538 499,-523 460,-523"/>
<text text-anchor="start" x="462.6973" y="-528.6" font-family="courier new" font-size="8.00" fill="#000000">vm_fqdn</text>
</g>
<!-- [root] meta.count&#45;boundary (count boundary fixup)&#45;&gt;[root] output.vm_fqdn -->
<g id="edge_23" class="edge">
<title>[root] meta.count&#45;boundary (count boundary fixup)&#45;&gt;[root] output.vm_fqdn</title>
<path fill="none" stroke="#000000" d="M451.3367,-591.8314C455.4243,-583.8771 460.3104,-574.369 464.8309,-565.5723"/>
<polygon fill="#000000" stroke="#000000" points="468.0799,-566.9074 469.5376,-556.4133 461.8539,-563.7078 468.0799,-566.9074"/>
</g>
<!-- [root] output.ssh_command&#45;&gt;[root] azurerm_public_ip.pip -->
<g id="edge_33" class="edge">
<title>[root] output.ssh_command&#45;&gt;[root] azurerm_public_ip.pip</title>
<path fill="none" stroke="#000000" d="M430.1093,-519.8439C438.951,-512.2086 448.1372,-502.6246 454,-492 465.8528,-470.5202 470.4069,-442.8302 472.1099,-422.3658"/>
<polygon fill="#000000" stroke="#000000" points="475.6204,-422.3165 472.7776,-412.1102 468.6352,-421.8617 475.6204,-422.3165"/>
</g>
<!-- [root] output.ssh_command&#45;&gt;[root] var.admin_username -->
<g id="edge_34" class="edge">
<title>[root] output.ssh_command&#45;&gt;[root] var.admin_username</title>
<path fill="none" stroke="#000000" d="M405.757,-519.8314C406.0779,-512.131 406.4594,-502.9743 406.816,-494.4166"/>
<polygon fill="#000000" stroke="#000000" points="410.3133,-494.5503 407.2328,-484.4133 403.3194,-494.2589 410.3133,-494.5503"/>
</g>
<!-- [root] provider.azurerm (close) -->
<g id="node_31" class="node">
<title>[root] provider.azurerm (close)</title>
<polygon fill="none" stroke="#000000" points="325,-610 325,-625 369,-625 369,-610 325,-610"/>
<text text-anchor="start" x="327.7969" y="-615.6" font-family="courier new" font-size="8.00" fill="#000000">provider</text>
<polygon fill="none" stroke="#000000" points="325,-595 325,-610 369,-610 369,-595 325,-595"/>
<text text-anchor="start" x="330.1973" y="-600.6" font-family="courier new" font-size="8.00" fill="#000000">azurerm</text>
</g>
<!-- [root] provider.azurerm (close)&#45;&gt;[root] azurerm_virtual_machine.vm -->
<g id="edge_36" class="edge">
<title>[root] provider.azurerm (close)&#45;&gt;[root] azurerm_virtual_machine.vm</title>
<path fill="none" stroke="#000000" d="M334.3829,-591.8314C328.6828,-583.6232 321.8337,-573.7606 315.5641,-564.7323"/>
<polygon fill="#000000" stroke="#000000" points="318.3658,-562.6306 309.787,-556.4133 312.6162,-566.6234 318.3658,-562.6306"/>
</g>
<!-- [root] root -->
<g id="node_32" class="node">
<title>[root] root</title>
<polygon fill="none" stroke="#000000" points="422.3089,-700 353.6911,-700 353.6911,-664 422.3089,-664 422.3089,-700"/>
<text text-anchor="middle" x="388" y="-680.1313" font-family="courier new" font-size="8.00" fill="#000000">[root] root</text>
</g>
<!-- [root] root&#45;&gt;[root] meta.count&#45;boundary (count boundary fixup) -->
<g id="edge_37" class="edge">
<title>[root] root&#45;&gt;[root] meta.count&#45;boundary (count boundary fixup)</title>
<path fill="none" stroke="#000000" d="M401.6265,-663.8314C407.846,-655.5386 415.3322,-645.557 422.16,-636.4533"/>
<polygon fill="#000000" stroke="#000000" points="424.99,-638.5133 428.19,-628.4133 419.39,-634.3133 424.99,-638.5133"/>
</g>
<!-- [root] root&#45;&gt;[root] provider.azurerm (close) -->
<g id="edge_38" class="edge">
<title>[root] root&#45;&gt;[root] provider.azurerm (close)</title>
<path fill="none" stroke="#000000" d="M377.654,-663.8314C373.0763,-655.7925 367.5948,-646.1666 362.5412,-637.2918"/>
<polygon fill="#000000" stroke="#000000" points="365.4752,-635.3712 357.4853,-628.4133 359.3923,-638.8351 365.4752,-635.3712"/>
</g>
<!-- [root] var.resource_group -->
<g id="node_9" class="node">
<title>[root] var.resource_group</title>
<polygon fill="none" stroke="#000000" points="332,-178 332,-193 405,-193 405,-178 332,-178"/>
<text text-anchor="start" x="361.2988" y="-183.6" font-family="courier new" font-size="8.00" fill="#000000">var</text>
<polygon fill="none" stroke="#000000" points="332,-163 332,-178 405,-178 405,-163 332,-163"/>
<text text-anchor="start" x="334.8945" y="-168.6" font-family="courier new" font-size="8.00" fill="#000000">resource_group</text>
</g>
<!-- [root] var.location&#45;&gt;[root] var.resource_group -->
<g id="edge_39" class="edge">
<title>[root] var.location&#45;&gt;[root] var.resource_group</title>
<path fill="none" stroke="#000000" stroke-dasharray="5,2" d="M370.243,-231.8314C369.7917,-221 369.2203,-207.2876 368.7672,-196.4133"/>
</g>
<!-- [root] var.storage_replication_type -->
<g id="node_11" class="node">
<title>[root] var.storage_replication_type</title>
<polygon fill="none" stroke="#000000" points="181,-250 181,-265 302,-265 302,-250 181,-250"/>
<text text-anchor="start" x="234.2988" y="-255.6" font-family="courier new" font-size="8.00" fill="#000000">var</text>
<polygon fill="none" stroke="#000000" points="181,-235 181,-250 302,-250 302,-235 181,-235"/>
<text text-anchor="start" x="183.8906" y="-240.6" font-family="courier new" font-size="8.00" fill="#000000">storage_replication_type</text>
</g>
<!-- [root] var.storage_account_tier&#45;&gt;[root] var.storage_replication_type -->
<g id="edge_40" class="edge">
<title>[root] var.storage_account_tier&#45;&gt;[root] var.storage_replication_type</title>
<path fill="none" stroke="#000000" stroke-dasharray="5,2" d="M241,-303.8314C241,-293 241,-279.2876 241,-268.4133"/>
</g>
<!-- [root] var.existing_storage_acct -->
<g id="node_14" class="node">
<title>[root] var.existing_storage_acct</title>
<polygon fill="none" stroke="#000000" points="41,-394 41,-409 147,-409 147,-394 41,-394"/>
<text text-anchor="start" x="86.7988" y="-399.6" font-family="courier new" font-size="8.00" fill="#000000">var</text>
<polygon fill="none" stroke="#000000" points="41,-379 41,-394 147,-394 147,-379 41,-379"/>
<text text-anchor="start" x="43.5918" y="-384.6" font-family="courier new" font-size="8.00" fill="#000000">existing_storage_acct</text>
</g>
<!-- [root] var.admin_password&#45;&gt;[root] var.existing_storage_acct -->
<g id="edge_41" class="edge">
<title>[root] var.admin_password&#45;&gt;[root] var.existing_storage_acct</title>
<path fill="none" stroke="#000000" stroke-dasharray="5,2" d="M102.9719,-447.8314C101.1667,-437 98.8813,-423.2876 97.0689,-412.4133"/>
</g>
<!-- [root] var.existing_vnet_resource_group -->
<g id="node_15" class="node">
<title>[root] var.existing_vnet_resource_group</title>
<polygon fill="none" stroke="#000000" points="16,-322 16,-337 156,-337 156,-322 16,-322"/>
<text text-anchor="start" x="78.7988" y="-327.6" font-family="courier new" font-size="8.00" fill="#000000">var</text>
<polygon fill="none" stroke="#000000" points="16,-307 16,-322 156,-322 156,-307 16,-307"/>
<text text-anchor="start" x="18.7891" y="-312.6" font-family="courier new" font-size="8.00" fill="#000000">existing_vnet_resource_group</text>
</g>
<!-- [root] var.existing_storage_acct&#45;&gt;[root] var.existing_vnet_resource_group -->
<g id="edge_42" class="edge">
<title>[root] var.existing_storage_acct&#45;&gt;[root] var.existing_vnet_resource_group</title>
<path fill="none" stroke="#000000" stroke-dasharray="5,2" d="M91.9813,-375.8314C90.7778,-365 89.2542,-351.2876 88.0459,-340.4133"/>
</g>
<!-- [root] var.os_disk_vhd_uri -->
<g id="node_16" class="node">
<title>[root] var.os_disk_vhd_uri</title>
<polygon fill="none" stroke="#000000" points="47,-250 47,-265 125,-265 125,-250 47,-250"/>
<text text-anchor="start" x="78.7988" y="-255.6" font-family="courier new" font-size="8.00" fill="#000000">var</text>
<polygon fill="none" stroke="#000000" points="47,-235 47,-250 125,-250 125,-235 47,-235"/>
<text text-anchor="start" x="49.9941" y="-240.6" font-family="courier new" font-size="8.00" fill="#000000">os_disk_vhd_uri</text>
</g>
<!-- [root] var.existing_vnet_resource_group&#45;&gt;[root] var.os_disk_vhd_uri -->
<g id="edge_43" class="edge">
<title>[root] var.existing_vnet_resource_group&#45;&gt;[root] var.os_disk_vhd_uri</title>
<path fill="none" stroke="#000000" stroke-dasharray="5,2" d="M86,-303.8314C86,-293 86,-279.2876 86,-268.4133"/>
</g>
<!-- [root] var.os_type -->
<g id="node_17" class="node">
<title>[root] var.os_type</title>
<polygon fill="none" stroke="#000000" points="67,-178 67,-193 106,-193 106,-178 67,-178"/>
<text text-anchor="start" x="79.2988" y="-183.6" font-family="courier new" font-size="8.00" fill="#000000">var</text>
<polygon fill="none" stroke="#000000" points="67,-163 67,-178 106,-178 106,-163 67,-163"/>
<text text-anchor="start" x="69.6973" y="-168.6" font-family="courier new" font-size="8.00" fill="#000000">os_type</text>
</g>
<!-- [root] var.os_disk_vhd_uri&#45;&gt;[root] var.os_type -->
<g id="edge_44" class="edge">
<title>[root] var.os_disk_vhd_uri&#45;&gt;[root] var.os_type</title>
<path fill="none" stroke="#000000" stroke-dasharray="5,2" d="M86,-231.8314C86,-221 86,-207.2876 86,-196.4133"/>
</g>
<!-- [root] var.vm_size -->
<g id="node_18" class="node">
<title>[root] var.vm_size</title>
<polygon fill="none" stroke="#000000" points="67,-106 67,-121 106,-121 106,-106 67,-106"/>
<text text-anchor="start" x="79.2988" y="-111.6" font-family="courier new" font-size="8.00" fill="#000000">var</text>
<polygon fill="none" stroke="#000000" points="67,-91 67,-106 106,-106 106,-91 67,-91"/>
<text text-anchor="start" x="69.6973" y="-96.6" font-family="courier new" font-size="8.00" fill="#000000">vm_size</text>
</g>
<!-- [root] var.os_type&#45;&gt;[root] var.vm_size -->
<g id="edge_45" class="edge">
<title>[root] var.os_type&#45;&gt;[root] var.vm_size</title>
<path fill="none" stroke="#000000" stroke-dasharray="5,2" d="M86,-159.8314C86,-149 86,-135.2876 86,-124.4133"/>
</g>
<!-- [root] var.existing_subnet_name -->
<g id="node_24" class="node">
<title>[root] var.existing_subnet_name</title>
<polygon fill="none" stroke="#000000" points="619,-466 619,-481 721,-481 721,-466 619,-466"/>
<text text-anchor="start" x="662.7988" y="-471.6" font-family="courier new" font-size="8.00" fill="#000000">var</text>
<polygon fill="none" stroke="#000000" points="619,-451 619,-466 721,-466 721,-451 619,-451"/>
<text text-anchor="start" x="621.9922" y="-456.6" font-family="courier new" font-size="8.00" fill="#000000">existing_subnet_name</text>
</g>
<!-- [root] var.address_space&#45;&gt;[root] var.existing_subnet_name -->
<g id="edge_46" class="edge">
<title>[root] var.address_space&#45;&gt;[root] var.existing_subnet_name</title>
<path fill="none" stroke="#000000" stroke-dasharray="5,2" d="M659.5328,-519.8314C661.6389,-509 664.3052,-495.2876 666.4196,-484.4133"/>
</g>
<!-- [root] var.existing_virtual_network_name -->
<g id="node_25" class="node">
<title>[root] var.existing_virtual_network_name</title>
<polygon fill="none" stroke="#000000" points="609,-394 609,-409 754,-409 754,-394 609,-394"/>
<text text-anchor="start" x="674.2988" y="-399.6" font-family="courier new" font-size="8.00" fill="#000000">var</text>
<polygon fill="none" stroke="#000000" points="609,-379 609,-394 754,-394 754,-379 609,-379"/>
<text text-anchor="start" x="611.8887" y="-384.6" font-family="courier new" font-size="8.00" fill="#000000">existing_virtual_network_name</text>
</g>
<!-- [root] var.existing_subnet_name&#45;&gt;[root] var.existing_virtual_network_name -->
<g id="edge_47" class="edge">
<title>[root] var.existing_subnet_name&#45;&gt;[root] var.existing_virtual_network_name</title>
<path fill="none" stroke="#000000" stroke-dasharray="5,2" d="M672.7758,-447.8314C674.4306,-437 676.5255,-423.2876 678.1869,-412.4133"/>
</g>
<!-- [root] var.image_offer -->
<g id="node_26" class="node">
<title>[root] var.image_offer</title>
<polygon fill="none" stroke="#000000" points="652,-322 652,-337 710,-337 710,-322 652,-322"/>
<text text-anchor="start" x="673.7988" y="-327.6" font-family="courier new" font-size="8.00" fill="#000000">var</text>
<polygon fill="none" stroke="#000000" points="652,-307 652,-322 710,-322 710,-307 652,-307"/>
<text text-anchor="start" x="654.5957" y="-312.6" font-family="courier new" font-size="8.00" fill="#000000">image_offer</text>
</g>
<!-- [root] var.existing_virtual_network_name&#45;&gt;[root] var.image_offer -->
<g id="edge_48" class="edge">
<title>[root] var.existing_virtual_network_name&#45;&gt;[root] var.image_offer</title>
<path fill="none" stroke="#000000" stroke-dasharray="5,2" d="M681,-375.8314C681,-365 681,-351.2876 681,-340.4133"/>
</g>
<!-- [root] var.image_publisher -->
<g id="node_27" class="node">
<title>[root] var.image_publisher</title>
<polygon fill="none" stroke="#000000" points="642,-250 642,-265 720,-265 720,-250 642,-250"/>
<text text-anchor="start" x="673.7988" y="-255.6" font-family="courier new" font-size="8.00" fill="#000000">var</text>
<polygon fill="none" stroke="#000000" points="642,-235 642,-250 720,-250 720,-235 642,-235"/>
<text text-anchor="start" x="644.9941" y="-240.6" font-family="courier new" font-size="8.00" fill="#000000">image_publisher</text>
</g>
<!-- [root] var.image_offer&#45;&gt;[root] var.image_publisher -->
<g id="edge_49" class="edge">
<title>[root] var.image_offer&#45;&gt;[root] var.image_publisher</title>
<path fill="none" stroke="#000000" stroke-dasharray="5,2" d="M681,-303.8314C681,-293 681,-279.2876 681,-268.4133"/>
</g>
<!-- [root] var.image_sku -->
<g id="node_28" class="node">
<title>[root] var.image_sku</title>
<polygon fill="none" stroke="#000000" points="657,-178 657,-193 706,-193 706,-178 657,-178"/>
<text text-anchor="start" x="674.2988" y="-183.6" font-family="courier new" font-size="8.00" fill="#000000">var</text>
<polygon fill="none" stroke="#000000" points="657,-163 657,-178 706,-178 706,-163 657,-163"/>
<text text-anchor="start" x="659.8965" y="-168.6" font-family="courier new" font-size="8.00" fill="#000000">image_sku</text>
</g>
<!-- [root] var.image_publisher&#45;&gt;[root] var.image_sku -->
<g id="edge_50" class="edge">
<title>[root] var.image_publisher&#45;&gt;[root] var.image_sku</title>
<path fill="none" stroke="#000000" stroke-dasharray="5,2" d="M681,-231.8314C681,-221 681,-207.2876 681,-196.4133"/>
</g>
<!-- [root] var.image_version -->
<g id="node_29" class="node">
<title>[root] var.image_version</title>
<polygon fill="none" stroke="#000000" points="647,-106 647,-121 715,-121 715,-106 647,-106"/>
<text text-anchor="start" x="673.7988" y="-111.6" font-family="courier new" font-size="8.00" fill="#000000">var</text>
<polygon fill="none" stroke="#000000" points="647,-91 647,-106 715,-106 715,-91 647,-91"/>
<text text-anchor="start" x="649.7949" y="-96.6" font-family="courier new" font-size="8.00" fill="#000000">image_version</text>
</g>
<!-- [root] var.image_sku&#45;&gt;[root] var.image_version -->
<g id="edge_51" class="edge">
<title>[root] var.image_sku&#45;&gt;[root] var.image_version</title>
<path fill="none" stroke="#000000" stroke-dasharray="5,2" d="M681,-159.8314C681,-149 681,-135.2876 681,-124.4133"/>
</g>
<!-- [root] var.subnet_prefix -->
<g id="node_30" class="node">
<title>[root] var.subnet_prefix</title>
<polygon fill="none" stroke="#000000" points="647,-34 647,-49 715,-49 715,-34 647,-34"/>
<text text-anchor="start" x="673.7988" y="-39.6" font-family="courier new" font-size="8.00" fill="#000000">var</text>
<polygon fill="none" stroke="#000000" points="647,-19 647,-34 715,-34 715,-19 647,-19"/>
<text text-anchor="start" x="649.7949" y="-24.6" font-family="courier new" font-size="8.00" fill="#000000">subnet_prefix</text>
</g>
<!-- [root] var.image_version&#45;&gt;[root] var.subnet_prefix -->
<g id="edge_52" class="edge">
<title>[root] var.image_version&#45;&gt;[root] var.subnet_prefix</title>
<path fill="none" stroke="#000000" stroke-dasharray="5,2" d="M681,-87.8314C681,-77 681,-63.2876 681,-52.4133"/>
</g>
<!-- [root] output.hostname&#45;&gt;[root] var.hostname -->
<g id="edge_32" class="edge">
<title>[root] output.hostname&#45;&gt;[root] var.hostname</title>
<path fill="none" stroke="#000000" d="M557.4161,-519.8552C557.3892,-487.3138 553.7587,-417.7853 526,-368 521.7013,-360.2902 515.6238,-353.1926 509.1558,-346.9979"/>
<polygon fill="#000000" stroke="#000000" points="511.2646,-344.1895 501.4667,-340.1581 506.6121,-349.4196 511.2646,-344.1895"/>
</g>
<!-- [root] output.vm_fqdn&#45;&gt;[root] azurerm_public_ip.pip -->
<g id="edge_35" class="edge">
<title>[root] output.vm_fqdn&#45;&gt;[root] azurerm_public_ip.pip</title>
<path fill="none" stroke="#000000" d="M482.9202,-519.7396C484.5321,-511.3355 486.2054,-501.2066 487,-492 488.6816,-472.5169 489.4737,-467.3985 487,-448 485.9146,-439.4887 483.9038,-430.4011 481.738,-422.1555"/>
<polygon fill="#000000" stroke="#000000" points="485.0363,-420.9542 478.9698,-412.2681 478.2955,-422.8414 485.0363,-420.9542"/>
</g>
</g>
</svg>

