<?xml version="1.0" encoding="UTF-8" standalone="no"?>
<!DOCTYPE svg PUBLIC "-//W3C//DTD SVG 1.1//EN"
 "http://www.w3.org/Graphics/SVG/1.1/DTD/svg11.dtd">
<!-- Generated by graphviz version 2.40.1 (20161225.0304)
 -->
<!-- Title: %3 Pages: 1 -->
<svg width="977pt" height="708pt"
 viewBox="0.00 0.00 977.00 708.00" xmlns="http://www.w3.org/2000/svg" xmlns:xlink="http://www.w3.org/1999/xlink">
<g id="graph0" class="graph" transform="scale(1 1) rotate(0) translate(4 704)">
<title>%3</title>
<polygon fill="#ffffff" stroke="transparent" points="-4,4 -4,-704 973,-704 973,4 -4,4"/>
<g id="clust5" class="cluster">
<title>cluster[root] azurerm_subnet.subnet_var_</title>
</g>
<g id="clust6" class="cluster">
<title>cluster[root] azurerm_virtual_machine.vm_var_</title>
</g>
<g id="clust2" class="cluster">
<title>cluster[root] azurerm_public_ip.lbpip_var_</title>
</g>
<g id="clust3" class="cluster">
<title>cluster[root] azurerm_resource_group.rg_var_</title>
</g>
<g id="clust4" class="cluster">
<title>cluster[root] azurerm_storage_account.stor_var_</title>
</g>
<g id="clust7" class="cluster">
<title>cluster[root] azurerm_virtual_network.vnet_var_</title>
</g>
<g id="clust8" class="cluster">
<title>cluster[root] meta.count&#45;boundary (count boundary fixup)_output_[root] var.hostname</title>
</g>
<g id="clust9" class="cluster">
<title>cluster[root] meta.count&#45;boundary (count boundary fixup)_output_[root] azurerm_public_ip.lbpip</title>
</g>
<!-- [root] azurerm_availability_set.avset -->
<g id="node_0" class="node">
<title>[root] azurerm_availability_set.avset</title>
<polygon fill="none" stroke="#000000" points="335,-466 335,-481 456,-481 456,-466 335,-466"/>
<text text-anchor="start" x="337.8906" y="-471.6" font-family="courier new" font-size="8.00" fill="#000000">azurerm_availability_set</text>
<polygon fill="none" stroke="#000000" points="335,-451 335,-466 456,-466 456,-451 335,-451"/>
<text text-anchor="start" x="383.498" y="-456.6" font-family="courier new" font-size="8.00" fill="#000000">avset</text>
</g>
<!-- [root] azurerm_resource_group.rg -->
<g id="node_8" class="node">
<title>[root] azurerm_resource_group.rg</title>
<polygon fill="none" stroke="#000000" points="364,-178 364,-193 475,-193 475,-178 364,-178"/>
<text text-anchor="start" x="366.6914" y="-183.6" font-family="courier new" font-size="8.00" fill="#000000">azurerm_resource_group</text>
<polygon fill="none" stroke="#000000" points="364,-163 364,-178 475,-178 475,-163 364,-163"/>
<text text-anchor="start" x="414.6992" y="-168.6" font-family="courier new" font-size="8.00" fill="#000000">rg</text>
</g>
<!-- [root] azurerm_availability_set.avset&#45;&gt;[root] azurerm_resource_group.rg -->
<g id="edge_0" class="edge">
<title>[root] azurerm_availability_set.avset&#45;&gt;[root] azurerm_resource_group.rg</title>
<path fill="none" stroke="#000000" d="M395.5456,-447.7241C396.8981,-407.2802 401.0437,-307.1966 411,-224 411.6863,-218.2654 412.6102,-212.1597 413.5864,-206.3336"/>
<polygon fill="#000000" stroke="#000000" points="417.0677,-206.7455 415.3599,-196.2892 410.1744,-205.5283 417.0677,-206.7455"/>
</g>
<!-- [root] var.dns_name -->
<g id="node_14" class="node">
<title>[root] var.dns_name</title>
<polygon fill="none" stroke="#000000" points="310,-394 310,-409 354,-409 354,-394 310,-394"/>
<text text-anchor="start" x="324.7988" y="-399.6" font-family="courier new" font-size="8.00" fill="#000000">var</text>
<polygon fill="none" stroke="#000000" points="310,-379 310,-394 354,-394 354,-379 310,-379"/>
<text text-anchor="start" x="312.7969" y="-384.6" font-family="courier new" font-size="8.00" fill="#000000">dns_name</text>
</g>
<!-- [root] azurerm_availability_set.avset&#45;&gt;[root] var.dns_name -->
<g id="edge_1" class="edge">
<title>[root] azurerm_availability_set.avset&#45;&gt;[root] var.dns_name</title>
<path fill="none" stroke="#000000" d="M379.1024,-447.8314C371.7722,-439.454 362.934,-429.3531 354.9031,-420.1749"/>
<polygon fill="#000000" stroke="#000000" points="357.3307,-417.6343 348.1116,-412.4133 352.0627,-422.2438 357.3307,-417.6343"/>
</g>
<!-- [root] azurerm_lb.lb -->
<g id="node_1" class="node">
<title>[root] azurerm_lb.lb</title>
<polygon fill="none" stroke="#000000" points="724,-322 724,-337 778,-337 778,-322 724,-322"/>
<text text-anchor="start" x="726.9961" y="-327.6" font-family="courier new" font-size="8.00" fill="#000000">azurerm_lb</text>
<polygon fill="none" stroke="#000000" points="724,-307 724,-322 778,-322 778,-307 724,-307"/>
<text text-anchor="start" x="746.1992" y="-312.6" font-family="courier new" font-size="8.00" fill="#000000">lb</text>
</g>
<!-- [root] azurerm_public_ip.lbpip -->
<g id="node_7" class="node">
<title>[root] azurerm_public_ip.lbpip</title>
<polygon fill="none" stroke="#000000" points="708,-250 708,-265 795,-265 795,-250 708,-250"/>
<text text-anchor="start" x="710.6934" y="-255.6" font-family="courier new" font-size="8.00" fill="#000000">azurerm_public_ip</text>
<polygon fill="none" stroke="#000000" points="708,-235 708,-250 795,-250 795,-235 708,-235"/>
<text text-anchor="start" x="739.498" y="-240.6" font-family="courier new" font-size="8.00" fill="#000000">lbpip</text>
</g>
<!-- [root] azurerm_lb.lb&#45;&gt;[root] azurerm_public_ip.lbpip -->
<g id="edge_2" class="edge">
<title>[root] azurerm_lb.lb&#45;&gt;[root] azurerm_public_ip.lbpip</title>
<path fill="none" stroke="#000000" d="M751,-303.8314C751,-296.131 751,-286.9743 751,-278.4166"/>
<polygon fill="#000000" stroke="#000000" points="754.5001,-278.4132 751,-268.4133 747.5001,-278.4133 754.5001,-278.4132"/>
</g>
<!-- [root] azurerm_lb_backend_address_pool.backend_pool -->
<g id="node_2" class="node">
<title>[root] azurerm_lb_backend_address_pool.backend_pool</title>
<polygon fill="none" stroke="#000000" points="674,-394 674,-409 828,-409 828,-394 674,-394"/>
<text text-anchor="start" x="676.5879" y="-399.6" font-family="courier new" font-size="8.00" fill="#000000">azurerm_lb_backend_address_pool</text>
<polygon fill="none" stroke="#000000" points="674,-379 674,-394 828,-394 828,-379 674,-379"/>
<text text-anchor="start" x="722.1953" y="-384.6" font-family="courier new" font-size="8.00" fill="#000000">backend_pool</text>
</g>
<!-- [root] azurerm_lb_backend_address_pool.backend_pool&#45;&gt;[root] azurerm_lb.lb -->
<g id="edge_3" class="edge">
<title>[root] azurerm_lb_backend_address_pool.backend_pool&#45;&gt;[root] azurerm_lb.lb</title>
<path fill="none" stroke="#000000" d="M751,-375.8314C751,-368.131 751,-358.9743 751,-350.4166"/>
<polygon fill="#000000" stroke="#000000" points="754.5001,-350.4132 751,-340.4133 747.5001,-350.4133 754.5001,-350.4132"/>
</g>
<!-- [root] azurerm_lb_nat_rule.tcp -->
<g id="node_3" class="node">
<title>[root] azurerm_lb_nat_rule.tcp</title>
<polygon fill="none" stroke="#000000" points="559,-394 559,-409 656,-409 656,-394 559,-394"/>
<text text-anchor="start" x="561.8926" y="-399.6" font-family="courier new" font-size="8.00" fill="#000000">azurerm_lb_nat_rule</text>
<polygon fill="none" stroke="#000000" points="559,-379 559,-394 656,-394 656,-379 559,-379"/>
<text text-anchor="start" x="600.2988" y="-384.6" font-family="courier new" font-size="8.00" fill="#000000">tcp</text>
</g>
<!-- [root] azurerm_lb_nat_rule.tcp&#45;&gt;[root] azurerm_lb.lb -->
<g id="edge_4" class="edge">
<title>[root] azurerm_lb_nat_rule.tcp&#45;&gt;[root] azurerm_lb.lb</title>
<path fill="none" stroke="#000000" d="M643.3373,-375.8314C665.2083,-364.8959 692.9528,-351.0236 714.7992,-340.1004"/>
<polygon fill="#000000" stroke="#000000" points="716.3876,-343.2194 723.7666,-335.6167 713.257,-336.9584 716.3876,-343.2194"/>
</g>
<!-- [root] azurerm_lb_probe.lb_probe -->
<g id="node_4" class="node">
<title>[root] azurerm_lb_probe.lb_probe</title>
<polygon fill="none" stroke="#000000" points="820,-466 820,-481 902,-481 902,-466 820,-466"/>
<text text-anchor="start" x="822.5938" y="-471.6" font-family="courier new" font-size="8.00" fill="#000000">azurerm_lb_probe</text>
<polygon fill="none" stroke="#000000" points="820,-451 820,-466 902,-466 902,-451 820,-451"/>
<text text-anchor="start" x="841.7969" y="-456.6" font-family="courier new" font-size="8.00" fill="#000000">lb_probe</text>
</g>
<!-- [root] azurerm_lb_probe.lb_probe&#45;&gt;[root] azurerm_lb.lb -->
<g id="edge_5" class="edge">
<title>[root] azurerm_lb_probe.lb_probe&#45;&gt;[root] azurerm_lb.lb</title>
<path fill="none" stroke="#000000" d="M860.8563,-447.8413C859.7943,-426.6056 855.1479,-391.388 837,-368 824.5633,-351.9723 804.9303,-340.8712 787.5612,-333.596"/>
<polygon fill="#000000" stroke="#000000" points="788.7927,-330.3196 778.2046,-329.9408 786.2455,-336.8397 788.7927,-330.3196"/>
</g>
<!-- [root] azurerm_lb_rule.lb_rule -->
<g id="node_5" class="node">
<title>[root] azurerm_lb_rule.lb_rule</title>
<polygon fill="none" stroke="#000000" points="685,-538 685,-553 763,-553 763,-538 685,-538"/>
<text text-anchor="start" x="687.9941" y="-543.6" font-family="courier new" font-size="8.00" fill="#000000">azurerm_lb_rule</text>
<polygon fill="none" stroke="#000000" points="685,-523 685,-538 763,-538 763,-523 685,-523"/>
<text text-anchor="start" x="707.1973" y="-528.6" font-family="courier new" font-size="8.00" fill="#000000">lb_rule</text>
</g>
<!-- [root] azurerm_lb_rule.lb_rule&#45;&gt;[root] azurerm_lb_backend_address_pool.backend_pool -->
<g id="edge_6" class="edge">
<title>[root] azurerm_lb_rule.lb_rule&#45;&gt;[root] azurerm_lb_backend_address_pool.backend_pool</title>
<path fill="none" stroke="#000000" d="M720.0145,-519.7243C716.7272,-501.2912 713.5529,-472.1799 720,-448 722.4952,-438.6419 727.0408,-429.2199 731.8961,-420.925"/>
<polygon fill="#000000" stroke="#000000" points="734.8771,-422.759 737.2037,-412.4228 728.9392,-419.0521 734.8771,-422.759"/>
</g>
<!-- [root] azurerm_lb_rule.lb_rule&#45;&gt;[root] azurerm_lb_probe.lb_probe -->
<g id="edge_7" class="edge">
<title>[root] azurerm_lb_rule.lb_rule&#45;&gt;[root] azurerm_lb_probe.lb_probe</title>
<path fill="none" stroke="#000000" d="M756.9984,-519.9993C762.0143,-517.2998 767.1374,-514.5633 772,-512 789.2319,-502.9161 793.6919,-500.938 811,-492 813.013,-490.9605 815.071,-489.8962 817.1493,-488.8203"/>
<polygon fill="#000000" stroke="#000000" points="819.0483,-491.7783 826.3153,-484.0684 815.8265,-485.5638 819.0483,-491.7783"/>
</g>
<!-- [root] azurerm_network_interface.nic -->
<g id="node_6" class="node">
<title>[root] azurerm_network_interface.nic</title>
<polygon fill="none" stroke="#000000" points="474,-466 474,-481 600,-481 600,-466 474,-466"/>
<text text-anchor="start" x="476.9902" y="-471.6" font-family="courier new" font-size="8.00" fill="#000000">azurerm_network_interface</text>
<polygon fill="none" stroke="#000000" points="474,-451 474,-466 600,-466 600,-451 474,-451"/>
<text text-anchor="start" x="529.7988" y="-456.6" font-family="courier new" font-size="8.00" fill="#000000">nic</text>
</g>
<!-- [root] azurerm_network_interface.nic&#45;&gt;[root] azurerm_lb_backend_address_pool.backend_pool -->
<g id="edge_8" class="edge">
<title>[root] azurerm_network_interface.nic&#45;&gt;[root] azurerm_lb_backend_address_pool.backend_pool</title>
<path fill="none" stroke="#000000" d="M590.725,-447.9243C620.1073,-438.0387 656.6852,-425.7321 687.4758,-415.3726"/>
<polygon fill="#000000" stroke="#000000" points="688.8911,-418.5893 697.2529,-412.0831 686.6588,-411.9548 688.8911,-418.5893"/>
</g>
<!-- [root] azurerm_network_interface.nic&#45;&gt;[root] azurerm_lb_nat_rule.tcp -->
<g id="edge_9" class="edge">
<title>[root] azurerm_network_interface.nic&#45;&gt;[root] azurerm_lb_nat_rule.tcp</title>
<path fill="none" stroke="#000000" d="M554.664,-447.8314C562.9732,-439.2848 573.0264,-428.9443 582.0918,-419.6198"/>
<polygon fill="#000000" stroke="#000000" points="584.6369,-422.023 589.0982,-412.4133 579.6179,-417.1435 584.6369,-422.023"/>
</g>
<!-- [root] azurerm_subnet.subnet -->
<g id="node_10" class="node">
<title>[root] azurerm_subnet.subnet</title>
<polygon fill="none" stroke="#000000" points="512,-322 512,-337 585,-337 585,-322 512,-322"/>
<text text-anchor="start" x="514.8945" y="-327.6" font-family="courier new" font-size="8.00" fill="#000000">azurerm_subnet</text>
<polygon fill="none" stroke="#000000" points="512,-307 512,-322 585,-322 585,-307 512,-307"/>
<text text-anchor="start" x="534.0977" y="-312.6" font-family="courier new" font-size="8.00" fill="#000000">subnet</text>
</g>
<!-- [root] azurerm_network_interface.nic&#45;&gt;[root] azurerm_subnet.subnet -->
<g id="edge_10" class="edge">
<title>[root] azurerm_network_interface.nic&#45;&gt;[root] azurerm_subnet.subnet</title>
<path fill="none" stroke="#000000" d="M538.3932,-447.7623C540.2694,-423.201 543.6269,-379.2474 545.8341,-350.3541"/>
<polygon fill="#000000" stroke="#000000" points="549.3462,-350.3272 546.6182,-340.0896 542.3666,-349.794 549.3462,-350.3272"/>
</g>
<!-- [root] azurerm_public_ip.lbpip&#45;&gt;[root] azurerm_resource_group.rg -->
<g id="edge_11" class="edge">
<title>[root] azurerm_public_ip.lbpip&#45;&gt;[root] azurerm_resource_group.rg</title>
<path fill="none" stroke="#000000" d="M707.2492,-239.5583C685.3284,-234.5103 658.336,-228.5708 634,-224 576.5471,-213.2091 560.9874,-217.0278 504,-204 497.4301,-202.4981 490.6281,-200.7519 483.8644,-198.8886"/>
<polygon fill="#000000" stroke="#000000" points="484.5895,-195.4561 474.0136,-196.0895 482.6761,-202.1896 484.5895,-195.4561"/>
</g>
<!-- [root] var.rg_prefix -->
<g id="node_16" class="node">
<title>[root] var.rg_prefix</title>
<polygon fill="none" stroke="#000000" points="639,-178 639,-193 688,-193 688,-178 639,-178"/>
<text text-anchor="start" x="656.2988" y="-183.6" font-family="courier new" font-size="8.00" fill="#000000">var</text>
<polygon fill="none" stroke="#000000" points="639,-163 639,-178 688,-178 688,-163 639,-163"/>
<text text-anchor="start" x="641.8965" y="-168.6" font-family="courier new" font-size="8.00" fill="#000000">rg_prefix</text>
</g>
<!-- [root] azurerm_public_ip.lbpip&#45;&gt;[root] var.rg_prefix -->
<g id="edge_13" class="edge">
<title>[root] azurerm_public_ip.lbpip&#45;&gt;[root] var.rg_prefix</title>
<path fill="none" stroke="#000000" d="M728.7939,-231.8314C717.955,-222.9632 704.7556,-212.1637 693.0322,-202.5718"/>
<polygon fill="#000000" stroke="#000000" points="695.155,-199.7864 685.199,-196.1628 690.7223,-205.2041 695.155,-199.7864"/>
</g>
<!-- [root] var.lb_ip_dns_name -->
<g id="node_15" class="node">
<title>[root] var.lb_ip_dns_name</title>
<polygon fill="none" stroke="#000000" points="715,-178 715,-193 788,-193 788,-178 715,-178"/>
<text text-anchor="start" x="744.2988" y="-183.6" font-family="courier new" font-size="8.00" fill="#000000">var</text>
<polygon fill="none" stroke="#000000" points="715,-163 715,-178 788,-178 788,-163 715,-163"/>
<text text-anchor="start" x="717.8945" y="-168.6" font-family="courier new" font-size="8.00" fill="#000000">lb_ip_dns_name</text>
</g>
<!-- [root] azurerm_public_ip.lbpip&#45;&gt;[root] var.lb_ip_dns_name -->
<g id="edge_12" class="edge">
<title>[root] azurerm_public_ip.lbpip&#45;&gt;[root] var.lb_ip_dns_name</title>
<path fill="none" stroke="#000000" d="M751,-231.8314C751,-224.131 751,-214.9743 751,-206.4166"/>
<polygon fill="#000000" stroke="#000000" points="754.5001,-206.4132 751,-196.4133 747.5001,-206.4133 754.5001,-206.4132"/>
</g>
<!-- [root] provider.azurerm -->
<g id="node_13" class="node">
<title>[root] provider.azurerm</title>
<polygon fill="none" stroke="#000000" points="335,-106 335,-121 379,-121 379,-106 335,-106"/>
<text text-anchor="start" x="337.7969" y="-111.6" font-family="courier new" font-size="8.00" fill="#000000">provider</text>
<polygon fill="none" stroke="#000000" points="335,-91 335,-106 379,-106 379,-91 335,-91"/>
<text text-anchor="start" x="340.1973" y="-96.6" font-family="courier new" font-size="8.00" fill="#000000">azurerm</text>
</g>
<!-- [root] azurerm_resource_group.rg&#45;&gt;[root] provider.azurerm -->
<g id="edge_14" class="edge">
<title>[root] azurerm_resource_group.rg&#45;&gt;[root] provider.azurerm</title>
<path fill="none" stroke="#000000" d="M403.3548,-159.8314C396.1409,-151.454 387.443,-141.3531 379.5395,-132.1749"/>
<polygon fill="#000000" stroke="#000000" points="382.0333,-129.7071 372.8559,-124.4133 376.7289,-134.2748 382.0333,-129.7071"/>
</g>
<!-- [root] var.location -->
<g id="node_17" class="node">
<title>[root] var.location</title>
<polygon fill="none" stroke="#000000" points="411,-106 411,-121 455,-121 455,-106 411,-106"/>
<text text-anchor="start" x="425.7988" y="-111.6" font-family="courier new" font-size="8.00" fill="#000000">var</text>
<polygon fill="none" stroke="#000000" points="411,-91 411,-106 455,-106 455,-91 411,-91"/>
<text text-anchor="start" x="413.7969" y="-96.6" font-family="courier new" font-size="8.00" fill="#000000">location</text>
</g>
<!-- [root] azurerm_resource_group.rg&#45;&gt;[root] var.location -->
<g id="edge_15" class="edge">
<title>[root] azurerm_resource_group.rg&#45;&gt;[root] var.location</title>
<path fill="none" stroke="#000000" d="M422.5328,-159.8314C424.0301,-152.131 425.8105,-142.9743 427.4745,-134.4166"/>
<polygon fill="#000000" stroke="#000000" points="430.9465,-134.8975 429.4196,-124.4133 424.0752,-133.5614 430.9465,-134.8975"/>
</g>
<!-- [root] azurerm_storage_account.stor -->
<g id="node_9" class="node">
<title>[root] azurerm_storage_account.stor</title>
<polygon fill="none" stroke="#000000" points="248,-538 248,-553 364,-553 364,-538 248,-538"/>
<text text-anchor="start" x="250.791" y="-543.6" font-family="courier new" font-size="8.00" fill="#000000">azurerm_storage_account</text>
<polygon fill="none" stroke="#000000" points="248,-523 248,-538 364,-538 364,-523 248,-523"/>
<text text-anchor="start" x="296.3984" y="-528.6" font-family="courier new" font-size="8.00" fill="#000000">stor</text>
</g>
<!-- [root] azurerm_storage_account.stor&#45;&gt;[root] azurerm_resource_group.rg -->
<g id="edge_17" class="edge">
<title>[root] azurerm_storage_account.stor&#45;&gt;[root] azurerm_resource_group.rg</title>
<path fill="none" stroke="#000000" d="M297.9412,-519.7668C286.7866,-492.8248 268,-440.5405 268,-394 268,-394 268,-394 268,-322 268,-265.5218 324.0075,-224.4256 367.8026,-200.9239"/>
<polygon fill="#000000" stroke="#000000" points="369.6785,-203.8935 376.9381,-196.1767 366.4507,-197.682 369.6785,-203.8935"/>
</g>
<!-- [root] azurerm_storage_account.stor&#45;&gt;[root] var.dns_name -->
<g id="edge_18" class="edge">
<title>[root] azurerm_storage_account.stor&#45;&gt;[root] var.dns_name</title>
<path fill="none" stroke="#000000" d="M309.2929,-519.7623C313.7471,-495.0928 321.7337,-450.8598 326.9493,-421.9731"/>
<polygon fill="#000000" stroke="#000000" points="330.4012,-422.5524 328.7338,-412.0896 323.5126,-421.3086 330.4012,-422.5524"/>
</g>
<!-- [root] var.storage_account_tier -->
<g id="node_19" class="node">
<title>[root] var.storage_account_tier</title>
<polygon fill="none" stroke="#000000" points="31,-466 31,-481 133,-481 133,-466 31,-466"/>
<text text-anchor="start" x="74.7988" y="-471.6" font-family="courier new" font-size="8.00" fill="#000000">var</text>
<polygon fill="none" stroke="#000000" points="31,-451 31,-466 133,-466 133,-451 31,-451"/>
<text text-anchor="start" x="33.9922" y="-456.6" font-family="courier new" font-size="8.00" fill="#000000">storage_account_tier</text>
</g>
<!-- [root] azurerm_storage_account.stor&#45;&gt;[root] var.storage_account_tier -->
<g id="edge_19" class="edge">
<title>[root] azurerm_storage_account.stor&#45;&gt;[root] var.storage_account_tier</title>
<path fill="none" stroke="#000000" d="M247.8747,-522.0335C218.3827,-513.6361 182.0992,-502.8505 150,-492 145.9589,-490.634 141.8015,-489.1763 137.6286,-487.6747"/>
<polygon fill="#000000" stroke="#000000" points="138.505,-484.2684 127.9113,-484.1143 136.0967,-490.8411 138.505,-484.2684"/>
</g>
<!-- [root] azurerm_virtual_network.vnet -->
<g id="node_12" class="node">
<title>[root] azurerm_virtual_network.vnet</title>
<polygon fill="none" stroke="#000000" points="509,-250 509,-265 625,-265 625,-250 509,-250"/>
<text text-anchor="start" x="511.791" y="-255.6" font-family="courier new" font-size="8.00" fill="#000000">azurerm_virtual_network</text>
<polygon fill="none" stroke="#000000" points="509,-235 509,-250 625,-250 625,-235 509,-235"/>
<text text-anchor="start" x="557.3984" y="-240.6" font-family="courier new" font-size="8.00" fill="#000000">vnet</text>
</g>
<!-- [root] azurerm_subnet.subnet&#45;&gt;[root] azurerm_virtual_network.vnet -->
<g id="edge_21" class="edge">
<title>[root] azurerm_subnet.subnet&#45;&gt;[root] azurerm_virtual_network.vnet</title>
<path fill="none" stroke="#000000" d="M552.7945,-303.8314C554.8489,-296.0463 557.296,-286.7729 559.5756,-278.1347"/>
<polygon fill="#000000" stroke="#000000" points="562.9735,-278.9753 562.1409,-268.4133 556.2052,-277.1892 562.9735,-278.9753"/>
</g>
<!-- [root] azurerm_subnet.subnet&#45;&gt;[root] var.rg_prefix -->
<g id="edge_22" class="edge">
<title>[root] azurerm_subnet.subnet&#45;&gt;[root] var.rg_prefix</title>
<path fill="none" stroke="#000000" d="M584.5928,-309.9994C601.7951,-302.659 621.2728,-291.621 634,-276 650.203,-256.113 657.354,-227.4325 660.5095,-206.2333"/>
<polygon fill="#000000" stroke="#000000" points="663.9947,-206.5707 661.791,-196.2076 657.0512,-205.683 663.9947,-206.5707"/>
</g>
<!-- [root] var.subnet_prefix -->
<g id="node_21" class="node">
<title>[root] var.subnet_prefix</title>
<polygon fill="none" stroke="#000000" points="423,-250 423,-265 491,-265 491,-250 423,-250"/>
<text text-anchor="start" x="449.7988" y="-255.6" font-family="courier new" font-size="8.00" fill="#000000">var</text>
<polygon fill="none" stroke="#000000" points="423,-235 423,-250 491,-250 491,-235 423,-235"/>
<text text-anchor="start" x="425.7949" y="-240.6" font-family="courier new" font-size="8.00" fill="#000000">subnet_prefix</text>
</g>
<!-- [root] azurerm_subnet.subnet&#45;&gt;[root] var.subnet_prefix -->
<g id="edge_23" class="edge">
<title>[root] azurerm_subnet.subnet&#45;&gt;[root] var.subnet_prefix</title>
<path fill="none" stroke="#000000" d="M525.0369,-303.8314C513.8285,-294.9632 500.1791,-284.1637 488.0561,-274.5718"/>
<polygon fill="#000000" stroke="#000000" points="489.9697,-271.6229 479.9558,-268.1628 485.6263,-277.1125 489.9697,-271.6229"/>
</g>
<!-- [root] azurerm_virtual_machine.vm -->
<g id="node_11" class="node">
<title>[root] azurerm_virtual_machine.vm</title>
<polygon fill="none" stroke="#000000" points="479,-538 479,-553 595,-553 595,-538 479,-538"/>
<text text-anchor="start" x="481.791" y="-543.6" font-family="courier new" font-size="8.00" fill="#000000">azurerm_virtual_machine</text>
<polygon fill="none" stroke="#000000" points="479,-523 479,-538 595,-538 595,-523 479,-523"/>
<text text-anchor="start" x="532.1992" y="-528.6" font-family="courier new" font-size="8.00" fill="#000000">vm</text>
</g>
<!-- [root] azurerm_virtual_machine.vm&#45;&gt;[root] azurerm_availability_set.avset -->
<g id="edge_24" class="edge">
<title>[root] azurerm_virtual_machine.vm&#45;&gt;[root] azurerm_availability_set.avset</title>
<path fill="none" stroke="#000000" d="M501.1674,-519.8314C482.5843,-510.4089 459.7011,-498.8062 439.9435,-488.7883"/>
<polygon fill="#000000" stroke="#000000" points="441.323,-485.5635 430.8211,-484.1628 438.1573,-491.8069 441.323,-485.5635"/>
</g>
<!-- [root] azurerm_virtual_machine.vm&#45;&gt;[root] azurerm_network_interface.nic -->
<g id="edge_25" class="edge">
<title>[root] azurerm_virtual_machine.vm&#45;&gt;[root] azurerm_network_interface.nic</title>
<path fill="none" stroke="#000000" d="M537,-519.8314C537,-512.131 537,-502.9743 537,-494.4166"/>
<polygon fill="#000000" stroke="#000000" points="540.5001,-494.4132 537,-484.4133 533.5001,-494.4133 540.5001,-494.4132"/>
</g>
<!-- [root] var.admin_username -->
<g id="node_23" class="node">
<title>[root] var.admin_username</title>
<polygon fill="none" stroke="#000000" points="729,-466 729,-481 802,-481 802,-466 729,-466"/>
<text text-anchor="start" x="758.2988" y="-471.6" font-family="courier new" font-size="8.00" fill="#000000">var</text>
<polygon fill="none" stroke="#000000" points="729,-451 729,-466 802,-466 802,-451 729,-451"/>
<text text-anchor="start" x="731.8945" y="-456.6" font-family="courier new" font-size="8.00" fill="#000000">admin_username</text>
</g>
<!-- [root] azurerm_virtual_machine.vm&#45;&gt;[root] var.admin_username -->
<g id="edge_27" class="edge">
<title>[root] azurerm_virtual_machine.vm&#45;&gt;[root] var.admin_username</title>
<path fill="none" stroke="#000000" d="M579.0322,-519.9455C586.2937,-517.1088 593.8172,-514.3439 601,-512 635.8416,-500.6303 645.7033,-501.8666 681,-492 693.2971,-488.5626 706.5255,-484.5959 718.764,-480.8127"/>
<polygon fill="#000000" stroke="#000000" points="719.8242,-484.1484 728.33,-477.8316 717.7415,-477.4654 719.8242,-484.1484"/>
</g>
<!-- [root] var.hostname -->
<g id="node_24" class="node">
<title>[root] var.hostname</title>
<polygon fill="none" stroke="#000000" points="623,-466 623,-481 667,-481 667,-466 623,-466"/>
<text text-anchor="start" x="637.7988" y="-471.6" font-family="courier new" font-size="8.00" fill="#000000">var</text>
<polygon fill="none" stroke="#000000" points="623,-451 623,-466 667,-466 667,-451 623,-451"/>
<text text-anchor="start" x="625.7969" y="-456.6" font-family="courier new" font-size="8.00" fill="#000000">hostname</text>
</g>
<!-- [root] azurerm_virtual_machine.vm&#45;&gt;[root] var.hostname -->
<g id="edge_28" class="edge">
<title>[root] azurerm_virtual_machine.vm&#45;&gt;[root] var.hostname</title>
<path fill="none" stroke="#000000" d="M566.3229,-519.7961C579.4848,-511.4897 595.1377,-501.4229 609,-492 610.0401,-491.293 611.0938,-490.5705 612.1552,-489.8374"/>
<polygon fill="#000000" stroke="#000000" points="614.1693,-492.6999 620.343,-484.0897 610.1474,-486.9706 614.1693,-492.6999"/>
</g>
<!-- [root] var.admin_password -->
<g id="node_22" class="node">
<title>[root] var.admin_password</title>
<polygon fill="none" stroke="#000000" points="166,-466 166,-481 239,-481 239,-466 166,-466"/>
<text text-anchor="start" x="195.2988" y="-471.6" font-family="courier new" font-size="8.00" fill="#000000">var</text>
<polygon fill="none" stroke="#000000" points="166,-451 166,-466 239,-466 239,-451 166,-451"/>
<text text-anchor="start" x="168.8945" y="-456.6" font-family="courier new" font-size="8.00" fill="#000000">admin_password</text>
</g>
<!-- [root] azurerm_virtual_machine.vm&#45;&gt;[root] var.admin_password -->
<g id="edge_26" class="edge">
<title>[root] azurerm_virtual_machine.vm&#45;&gt;[root] var.admin_password</title>
<path fill="none" stroke="#000000" d="M478.6475,-525.4586C413.4347,-511.4427 309.1262,-489.0241 248.9538,-476.0916"/>
<polygon fill="#000000" stroke="#000000" points="249.4821,-472.6252 238.9698,-473.9458 248.0111,-479.469 249.4821,-472.6252"/>
</g>
<!-- [root] azurerm_virtual_network.vnet&#45;&gt;[root] azurerm_resource_group.rg -->
<g id="edge_34" class="edge">
<title>[root] azurerm_virtual_network.vnet&#45;&gt;[root] azurerm_resource_group.rg</title>
<path fill="none" stroke="#000000" d="M529.6534,-231.8314C510.1231,-222.3302 486.0359,-210.6121 465.3269,-200.5374"/>
<polygon fill="#000000" stroke="#000000" points="466.6016,-197.2654 456.0781,-196.038 463.5393,-203.56 466.6016,-197.2654"/>
</g>
<!-- [root] var.address_space -->
<g id="node_30" class="node">
<title>[root] var.address_space</title>
<polygon fill="none" stroke="#000000" points="533,-178 533,-193 601,-193 601,-178 533,-178"/>
<text text-anchor="start" x="559.7988" y="-183.6" font-family="courier new" font-size="8.00" fill="#000000">var</text>
<polygon fill="none" stroke="#000000" points="533,-163 533,-178 601,-178 601,-163 533,-163"/>
<text text-anchor="start" x="535.7949" y="-168.6" font-family="courier new" font-size="8.00" fill="#000000">address_space</text>
</g>
<!-- [root] azurerm_virtual_network.vnet&#45;&gt;[root] var.address_space -->
<g id="edge_35" class="edge">
<title>[root] azurerm_virtual_network.vnet&#45;&gt;[root] var.address_space</title>
<path fill="none" stroke="#000000" d="M567,-231.8314C567,-224.131 567,-214.9743 567,-206.4166"/>
<polygon fill="#000000" stroke="#000000" points="570.5001,-206.4132 567,-196.4133 563.5001,-206.4133 570.5001,-206.4132"/>
</g>
<!-- [root] meta.count&#45;boundary (count boundary fixup) -->
<g id="node_32" class="node">
<title>[root] meta.count&#45;boundary (count boundary fixup)</title>
<polygon fill="none" stroke="#000000" points="604,-610 604,-625 677,-625 677,-610 604,-610"/>
<text text-anchor="start" x="630.8984" y="-615.6" font-family="courier new" font-size="8.00" fill="#000000">meta</text>
<polygon fill="none" stroke="#000000" points="604,-595 604,-610 677,-610 677,-595 604,-595"/>
<text text-anchor="start" x="606.8945" y="-600.6" font-family="courier new" font-size="8.00" fill="#000000">count&#45;boundary</text>
</g>
<!-- [root] meta.count&#45;boundary (count boundary fixup)&#45;&gt;[root] azurerm_lb_rule.lb_rule -->
<g id="edge_37" class="edge">
<title>[root] meta.count&#45;boundary (count boundary fixup)&#45;&gt;[root] azurerm_lb_rule.lb_rule</title>
<path fill="none" stroke="#000000" d="M661.1967,-591.8314C671.4434,-583.0485 683.9003,-572.3712 695.0097,-562.8489"/>
<polygon fill="#000000" stroke="#000000" points="697.4952,-565.3282 702.81,-556.1628 692.9397,-560.0134 697.4952,-565.3282"/>
</g>
<!-- [root] meta.count&#45;boundary (count boundary fixup)&#45;&gt;[root] azurerm_storage_account.stor -->
<g id="edge_38" class="edge">
<title>[root] meta.count&#45;boundary (count boundary fixup)&#45;&gt;[root] azurerm_storage_account.stor</title>
<path fill="none" stroke="#000000" d="M603.4323,-597.5564C596.9954,-595.564 590.3303,-593.626 584,-592 513.1341,-573.7972 430.7165,-558.5097 374.1244,-548.8991"/>
<polygon fill="#000000" stroke="#000000" points="374.6607,-545.4402 364.2181,-547.23 373.4976,-552.3429 374.6607,-545.4402"/>
</g>
<!-- [root] meta.count&#45;boundary (count boundary fixup)&#45;&gt;[root] azurerm_virtual_machine.vm -->
<g id="edge_39" class="edge">
<title>[root] meta.count&#45;boundary (count boundary fixup)&#45;&gt;[root] azurerm_virtual_machine.vm</title>
<path fill="none" stroke="#000000" d="M614.0088,-591.8314C601.0784,-582.7927 585.2778,-571.7476 571.3617,-562.0198"/>
<polygon fill="#000000" stroke="#000000" points="573.1843,-559.0235 562.9829,-556.1628 569.1737,-564.7608 573.1843,-559.0235"/>
</g>
<!-- [root] output.ssh_command -->
<g id="node_34" class="node">
<title>[root] output.ssh_command</title>
<polygon fill="none" stroke="#000000" points="781,-538 781,-553 839,-553 839,-538 781,-538"/>
<text text-anchor="start" x="795.5977" y="-543.6" font-family="courier new" font-size="8.00" fill="#000000">output</text>
<polygon fill="none" stroke="#000000" points="781,-523 781,-538 839,-538 839,-523 781,-523"/>
<text text-anchor="start" x="783.5957" y="-528.6" font-family="courier new" font-size="8.00" fill="#000000">ssh_command</text>
</g>
<!-- [root] meta.count&#45;boundary (count boundary fixup)&#45;&gt;[root] output.ssh_command -->
<g id="edge_41" class="edge">
<title>[root] meta.count&#45;boundary (count boundary fixup)&#45;&gt;[root] output.ssh_command</title>
<path fill="none" stroke="#000000" d="M676.6298,-600.0853C703.7281,-592.0775 741.1313,-579.5905 772,-564 773.5698,-563.2072 775.1503,-562.3586 776.7283,-561.4697"/>
<polygon fill="#000000" stroke="#000000" points="778.9198,-564.2334 785.6436,-556.0455 775.2813,-558.2532 778.9198,-564.2334"/>
</g>
<!-- [root] output.hostname -->
<g id="node_33" class="node">
<title>[root] output.hostname</title>
<polygon fill="none" stroke="#000000" points="618,-538 618,-553 662,-553 662,-538 618,-538"/>
<text text-anchor="start" x="625.5977" y="-543.6" font-family="courier new" font-size="8.00" fill="#000000">output</text>
<polygon fill="none" stroke="#000000" points="618,-523 618,-538 662,-538 662,-523 618,-523"/>
<text text-anchor="start" x="620.7969" y="-528.6" font-family="courier new" font-size="8.00" fill="#000000">hostname</text>
</g>
<!-- [root] meta.count&#45;boundary (count boundary fixup)&#45;&gt;[root] output.hostname -->
<g id="edge_40" class="edge">
<title>[root] meta.count&#45;boundary (count boundary fixup)&#45;&gt;[root] output.hostname</title>
<path fill="none" stroke="#000000" d="M640,-591.8314C640,-584.131 640,-574.9743 640,-566.4166"/>
<polygon fill="#000000" stroke="#000000" points="643.5001,-566.4132 640,-556.4133 636.5001,-566.4133 643.5001,-566.4132"/>
</g>
<!-- [root] output.vm_fqdn -->
<g id="node_35" class="node">
<title>[root] output.vm_fqdn</title>
<polygon fill="none" stroke="#000000" points="907,-538 907,-553 946,-553 946,-538 907,-538"/>
<text text-anchor="start" x="912.0977" y="-543.6" font-family="courier new" font-size="8.00" fill="#000000">output</text>
<polygon fill="none" stroke="#000000" points="907,-523 907,-538 946,-538 946,-523 907,-523"/>
<text text-anchor="start" x="909.6973" y="-528.6" font-family="courier new" font-size="8.00" fill="#000000">vm_fqdn</text>
</g>
<!-- [root] meta.count&#45;boundary (count boundary fixup)&#45;&gt;[root] output.vm_fqdn -->
<g id="edge_42" class="edge">
<title>[root] meta.count&#45;boundary (count boundary fixup)&#45;&gt;[root] output.vm_fqdn</title>
<path fill="none" stroke="#000000" d="M676.73,-603.0801C718.5145,-594.9304 788.6482,-580.407 848,-564 861.5948,-560.2419 876.3156,-555.5113 889.2678,-551.1189"/>
<polygon fill="#000000" stroke="#000000" points="890.4617,-554.4096 898.7798,-547.8476 888.1851,-547.7902 890.4617,-554.4096"/>
</g>
<!-- [root] output.ssh_command&#45;&gt;[root] azurerm_public_ip.lbpip -->
<g id="edge_44" class="edge">
<title>[root] output.ssh_command&#45;&gt;[root] azurerm_public_ip.lbpip</title>
<path fill="none" stroke="#000000" d="M839.1965,-528.6532C865.9898,-519.415 902.738,-504.8414 911,-492 921.581,-475.5542 916.4751,-466.7735 911,-448 889.3526,-373.7733 822.5693,-308.5281 782.4505,-274.654"/>
<polygon fill="#000000" stroke="#000000" points="784.4922,-271.8001 774.5619,-268.1069 780.0217,-277.1866 784.4922,-271.8001"/>
</g>
<!-- [root] output.ssh_command&#45;&gt;[root] var.admin_username -->
<g id="edge_45" class="edge">
<title>[root] output.ssh_command&#45;&gt;[root] var.admin_username</title>
<path fill="none" stroke="#000000" d="M798.6446,-519.8314C793.5674,-511.7079 787.4773,-501.9637 781.8824,-493.0118"/>
<polygon fill="#000000" stroke="#000000" points="784.7763,-491.0383 776.5083,-484.4133 778.8403,-494.7483 784.7763,-491.0383"/>
</g>
<!-- [root] provider.azurerm (close) -->
<g id="node_36" class="node">
<title>[root] provider.azurerm (close)</title>
<polygon fill="none" stroke="#000000" points="526,-610 526,-625 570,-625 570,-610 526,-610"/>
<text text-anchor="start" x="528.7969" y="-615.6" font-family="courier new" font-size="8.00" fill="#000000">provider</text>
<polygon fill="none" stroke="#000000" points="526,-595 526,-610 570,-610 570,-595 526,-595"/>
<text text-anchor="start" x="531.1973" y="-600.6" font-family="courier new" font-size="8.00" fill="#000000">azurerm</text>
</g>
<!-- [root] provider.azurerm (close)&#45;&gt;[root] azurerm_lb_rule.lb_rule -->
<g id="edge_47" class="edge">
<title>[root] provider.azurerm (close)&#45;&gt;[root] azurerm_lb_rule.lb_rule</title>
<path fill="none" stroke="#000000" d="M575.2626,-599.3262C581.7136,-596.8652 588.5833,-594.2969 595,-592 632.0506,-578.7374 643.113,-580.1483 679,-564 681.0725,-563.0674 683.1727,-562.0667 685.2753,-561.0202"/>
<polygon fill="#000000" stroke="#000000" points="687.2057,-563.9597 694.4289,-556.2088 683.9487,-557.7635 687.2057,-563.9597"/>
</g>
<!-- [root] provider.azurerm (close)&#45;&gt;[root] azurerm_storage_account.stor -->
<g id="edge_48" class="edge">
<title>[root] provider.azurerm (close)&#45;&gt;[root] azurerm_storage_account.stor</title>
<path fill="none" stroke="#000000" d="M520.7099,-601.8806C485.4384,-591.3866 422.7938,-572.7486 374.2417,-558.3033"/>
<polygon fill="#000000" stroke="#000000" points="375.004,-554.8786 364.4211,-555.3815 373.0078,-561.5879 375.004,-554.8786"/>
</g>
<!-- [root] provider.azurerm (close)&#45;&gt;[root] azurerm_virtual_machine.vm -->
<g id="edge_49" class="edge">
<title>[root] provider.azurerm (close)&#45;&gt;[root] azurerm_virtual_machine.vm</title>
<path fill="none" stroke="#000000" d="M545.2242,-591.8314C544.0478,-584.131 542.6489,-574.9743 541.3414,-566.4166"/>
<polygon fill="#000000" stroke="#000000" points="544.7833,-565.7699 539.8131,-556.4133 537.8636,-566.8272 544.7833,-565.7699"/>
</g>
<!-- [root] root -->
<g id="node_37" class="node">
<title>[root] root</title>
<polygon fill="none" stroke="#000000" points="623.3089,-700 554.6911,-700 554.6911,-664 623.3089,-664 623.3089,-700"/>
<text text-anchor="middle" x="589" y="-680.1313" font-family="courier new" font-size="8.00" fill="#000000">[root] root</text>
</g>
<!-- [root] root&#45;&gt;[root] meta.count&#45;boundary (count boundary fixup) -->
<g id="edge_50" class="edge">
<title>[root] root&#45;&gt;[root] meta.count&#45;boundary (count boundary fixup)</title>
<path fill="none" stroke="#000000" d="M601.8695,-663.8314C607.6835,-655.6232 614.6696,-645.7606 621.0646,-636.7323"/>
<polygon fill="#000000" stroke="#000000" points="624.0331,-638.5966 626.9573,-628.4133 618.321,-634.5505 624.0331,-638.5966"/>
</g>
<!-- [root] root&#45;&gt;[root] provider.azurerm (close) -->
<g id="edge_51" class="edge">
<title>[root] root&#45;&gt;[root] provider.azurerm (close)</title>
<path fill="none" stroke="#000000" d="M578.654,-663.8314C574.0763,-655.7925 568.5948,-646.1666 563.5412,-637.2918"/>
<polygon fill="#000000" stroke="#000000" points="566.4752,-635.3712 558.4853,-628.4133 560.3923,-638.8351 566.4752,-635.3712"/>
</g>
<!-- [root] var.resource_group -->
<g id="node_18" class="node">
<title>[root] var.resource_group</title>
<polygon fill="none" stroke="#000000" points="401,-34 401,-49 474,-49 474,-34 401,-34"/>
<text text-anchor="start" x="430.2988" y="-39.6" font-family="courier new" font-size="8.00" fill="#000000">var</text>
<polygon fill="none" stroke="#000000" points="401,-19 401,-34 474,-34 474,-19 401,-19"/>
<text text-anchor="start" x="403.8945" y="-24.6" font-family="courier new" font-size="8.00" fill="#000000">resource_group</text>
</g>
<!-- [root] var.location&#45;&gt;[root] var.resource_group -->
<g id="edge_53" class="edge">
<title>[root] var.location&#45;&gt;[root] var.resource_group</title>
<path fill="none" stroke="#000000" stroke-dasharray="5,2" d="M434.0094,-87.8314C434.6111,-77 435.3729,-63.2876 435.977,-52.4133"/>
</g>
<!-- [root] var.storage_replication_type -->
<g id="node_20" class="node">
<title>[root] var.storage_replication_type</title>
<polygon fill="none" stroke="#000000" points="17,-394 17,-409 138,-409 138,-394 17,-394"/>
<text text-anchor="start" x="70.2988" y="-399.6" font-family="courier new" font-size="8.00" fill="#000000">var</text>
<polygon fill="none" stroke="#000000" points="17,-379 17,-394 138,-394 138,-379 17,-379"/>
<text text-anchor="start" x="19.8906" y="-384.6" font-family="courier new" font-size="8.00" fill="#000000">storage_replication_type</text>
</g>
<!-- [root] var.storage_account_tier&#45;&gt;[root] var.storage_replication_type -->
<g id="edge_55" class="edge">
<title>[root] var.storage_account_tier&#45;&gt;[root] var.storage_replication_type</title>
<path fill="none" stroke="#000000" stroke-dasharray="5,2" d="M80.7383,-447.8314C79.9861,-437 79.0339,-423.2876 78.2787,-412.4133"/>
</g>
<!-- [root] var.image_offer -->
<g id="node_25" class="node">
<title>[root] var.image_offer</title>
<polygon fill="none" stroke="#000000" points="172,-394 172,-409 230,-409 230,-394 172,-394"/>
<text text-anchor="start" x="193.7988" y="-399.6" font-family="courier new" font-size="8.00" fill="#000000">var</text>
<polygon fill="none" stroke="#000000" points="172,-379 172,-394 230,-394 230,-379 172,-379"/>
<text text-anchor="start" x="174.5957" y="-384.6" font-family="courier new" font-size="8.00" fill="#000000">image_offer</text>
</g>
<!-- [root] var.admin_password&#45;&gt;[root] var.image_offer -->
<g id="edge_81" class="edge">
<title>[root] var.admin_password&#45;&gt;[root] var.image_offer</title>
<path fill="none" stroke="#000000" stroke-dasharray="5,2" d="M201.7477,-447.8314C201.5972,-437 201.4068,-423.2876 201.2557,-412.4133"/>
</g>
<!-- [root] var.image_publisher -->
<g id="node_26" class="node">
<title>[root] var.image_publisher</title>
<polygon fill="none" stroke="#000000" points="162,-322 162,-337 240,-337 240,-322 162,-322"/>
<text text-anchor="start" x="193.7988" y="-327.6" font-family="courier new" font-size="8.00" fill="#000000">var</text>
<polygon fill="none" stroke="#000000" points="162,-307 162,-322 240,-322 240,-307 162,-307"/>
<text text-anchor="start" x="164.9941" y="-312.6" font-family="courier new" font-size="8.00" fill="#000000">image_publisher</text>
</g>
<!-- [root] var.image_offer&#45;&gt;[root] var.image_publisher -->
<g id="edge_82" class="edge">
<title>[root] var.image_offer&#45;&gt;[root] var.image_publisher</title>
<path fill="none" stroke="#000000" stroke-dasharray="5,2" d="M201,-375.8314C201,-365 201,-351.2876 201,-340.4133"/>
</g>
<!-- [root] var.image_sku -->
<g id="node_27" class="node">
<title>[root] var.image_sku</title>
<polygon fill="none" stroke="#000000" points="177,-250 177,-265 226,-265 226,-250 177,-250"/>
<text text-anchor="start" x="194.2988" y="-255.6" font-family="courier new" font-size="8.00" fill="#000000">var</text>
<polygon fill="none" stroke="#000000" points="177,-235 177,-250 226,-250 226,-235 177,-235"/>
<text text-anchor="start" x="179.8965" y="-240.6" font-family="courier new" font-size="8.00" fill="#000000">image_sku</text>
</g>
<!-- [root] var.image_publisher&#45;&gt;[root] var.image_sku -->
<g id="edge_83" class="edge">
<title>[root] var.image_publisher&#45;&gt;[root] var.image_sku</title>
<path fill="none" stroke="#000000" stroke-dasharray="5,2" d="M201,-303.8314C201,-293 201,-279.2876 201,-268.4133"/>
</g>
<!-- [root] var.image_version -->
<g id="node_28" class="node">
<title>[root] var.image_version</title>
<polygon fill="none" stroke="#000000" points="167,-178 167,-193 235,-193 235,-178 167,-178"/>
<text text-anchor="start" x="193.7988" y="-183.6" font-family="courier new" font-size="8.00" fill="#000000">var</text>
<polygon fill="none" stroke="#000000" points="167,-163 167,-178 235,-178 235,-163 167,-163"/>
<text text-anchor="start" x="169.7949" y="-168.6" font-family="courier new" font-size="8.00" fill="#000000">image_version</text>
</g>
<!-- [root] var.image_sku&#45;&gt;[root] var.image_version -->
<g id="edge_84" class="edge">
<title>[root] var.image_sku&#45;&gt;[root] var.image_version</title>
<path fill="none" stroke="#000000" stroke-dasharray="5,2" d="M201,-231.8314C201,-221 201,-207.2876 201,-196.4133"/>
</g>
<!-- [root] var.vm_size -->
<g id="node_29" class="node">
<title>[root] var.vm_size</title>
<polygon fill="none" stroke="#000000" points="182,-106 182,-121 221,-121 221,-106 182,-106"/>
<text text-anchor="start" x="194.2988" y="-111.6" font-family="courier new" font-size="8.00" fill="#000000">var</text>
<polygon fill="none" stroke="#000000" points="182,-91 182,-106 221,-106 221,-91 182,-91"/>
<text text-anchor="start" x="184.6973" y="-96.6" font-family="courier new" font-size="8.00" fill="#000000">vm_size</text>
</g>
<!-- [root] var.image_version&#45;&gt;[root] var.vm_size -->
<g id="edge_85" class="edge">
<title>[root] var.image_version&#45;&gt;[root] var.vm_size</title>
<path fill="none" stroke="#000000" stroke-dasharray="5,2" d="M201,-159.8314C201,-149 201,-135.2876 201,-124.4133"/>
</g>
<!-- [root] var.virtual_network_name -->
<g id="node_31" class="node">
<title>[root] var.virtual_network_name</title>
<polygon fill="none" stroke="#000000" points="516,-106 516,-121 618,-121 618,-106 516,-106"/>
<text text-anchor="start" x="559.7988" y="-111.6" font-family="courier new" font-size="8.00" fill="#000000">var</text>
<polygon fill="none" stroke="#000000" points="516,-91 516,-106 618,-106 618,-91 516,-91"/>
<text text-anchor="start" x="518.9922" y="-96.6" font-family="courier new" font-size="8.00" fill="#000000">virtual_network_name</text>
</g>
<!-- [root] var.address_space&#45;&gt;[root] var.virtual_network_name -->
<g id="edge_87" class="edge">
<title>[root] var.address_space&#45;&gt;[root] var.virtual_network_name</title>
<path fill="none" stroke="#000000" stroke-dasharray="5,2" d="M567,-159.8314C567,-149 567,-135.2876 567,-124.4133"/>
</g>
<!-- [root] output.hostname&#45;&gt;[root] var.hostname -->
<g id="edge_43" class="edge">
<title>[root] output.hostname&#45;&gt;[root] var.hostname</title>
<path fill="none" stroke="#000000" d="M641.2617,-519.8314C641.7965,-512.131 642.4323,-502.9743 643.0266,-494.4166"/>
<polygon fill="#000000" stroke="#000000" points="646.52,-494.6317 643.7213,-484.4133 639.5368,-494.1467 646.52,-494.6317"/>
</g>
<!-- [root] output.vm_fqdn&#45;&gt;[root] azurerm_public_ip.lbpip -->
<g id="edge_46" class="edge">
<title>[root] output.vm_fqdn&#45;&gt;[root] azurerm_public_ip.lbpip</title>
<path fill="none" stroke="#000000" d="M926.9807,-519.651C927.3838,-511.229 927.802,-501.1106 928,-492 928.4248,-472.4491 931.5941,-467.2224 928,-448 920.9917,-410.5179 915.9885,-401.0675 897,-368 878.8882,-336.4591 873.6436,-327.6367 846,-304 832.1386,-292.1478 815.2913,-281.5823 799.6552,-273.0084"/>
<polygon fill="#000000" stroke="#000000" points="801.0921,-269.8082 790.6206,-268.1957 797.801,-275.9863 801.0921,-269.8082"/>
</g>
</g>
</svg>

