<?xml version="1.0" encoding="UTF-8" standalone="no"?>
<!DOCTYPE svg PUBLIC "-//W3C//DTD SVG 1.1//EN"
 "http://www.w3.org/Graphics/SVG/1.1/DTD/svg11.dtd">
<!-- Generated by graphviz version 2.40.1 (20161225.0304)
 -->
<!-- Title: %3 Pages: 1 -->
<svg width="1445pt" height="620pt"
 viewBox="0.00 0.00 1445.41 620.00" xmlns="http://www.w3.org/2000/svg" xmlns:xlink="http://www.w3.org/1999/xlink">
<g id="graph0" class="graph" transform="scale(1 1) rotate(0) translate(4 616)">
<title>%3</title>
<polygon fill="#ffffff" stroke="transparent" points="-4,4 -4,-616 1441.4123,-616 1441.4123,4 -4,4"/>
<!-- [root] azurerm_availability_set.avset -->
<g id="node_0" class="node">
<title>[root] azurerm_availability_set.avset</title>
<polygon fill="none" stroke="#000000" points="329.4123,-378 329.4123,-393 450.4123,-393 450.4123,-378 329.4123,-378"/>
<text text-anchor="start" x="332.3029" y="-383.6" font-family="courier new" font-size="8.00" fill="#000000">azurerm_availability_set</text>
<polygon fill="none" stroke="#000000" points="329.4123,-363 329.4123,-378 450.4123,-378 450.4123,-363 329.4123,-363"/>
<text text-anchor="start" x="377.9103" y="-368.6" font-family="courier new" font-size="8.00" fill="#000000">avset</text>
</g>
<!-- [root] azurerm_resource_group.rg -->
<g id="node_8" class="node">
<title>[root] azurerm_resource_group.rg</title>
<polygon fill="none" stroke="#000000" points="378.4123,-90 378.4123,-105 489.4123,-105 489.4123,-90 378.4123,-90"/>
<text text-anchor="start" x="381.1037" y="-95.6" font-family="courier new" font-size="8.00" fill="#000000">azurerm_resource_group</text>
<polygon fill="none" stroke="#000000" points="378.4123,-75 378.4123,-90 489.4123,-90 489.4123,-75 378.4123,-75"/>
<text text-anchor="start" x="429.1115" y="-80.6" font-family="courier new" font-size="8.00" fill="#000000">rg</text>
</g>
<!-- [root] azurerm_availability_set.avset&#45;&gt;[root] azurerm_resource_group.rg -->
<g id="edge_0" class="edge">
<title>[root] azurerm_availability_set.avset&#45;&gt;[root] azurerm_resource_group.rg</title>
<path fill="none" stroke="#000000" d="M392.1647,-359.9843C399.6035,-311.2939 420.1518,-176.7961 429.1257,-118.0573"/>
<polygon fill="#000000" stroke="#000000" points="432.6104,-118.4228 430.6609,-108.0089 425.6907,-117.3656 432.6104,-118.4228"/>
</g>
<!-- [root] var.dns_name -->
<g id="node_14" class="node">
<title>[root] var.dns_name</title>
<polygon fill="none" stroke="#000000" points="306.4123,-306 306.4123,-321 350.4123,-321 350.4123,-306 306.4123,-306"/>
<text text-anchor="start" x="321.2111" y="-311.6" font-family="courier new" font-size="8.00" fill="#000000">var</text>
<polygon fill="none" stroke="#000000" points="306.4123,-291 306.4123,-306 350.4123,-306 350.4123,-291 306.4123,-291"/>
<text text-anchor="start" x="309.2092" y="-296.6" font-family="courier new" font-size="8.00" fill="#000000">dns_name</text>
</g>
<!-- [root] azurerm_availability_set.avset&#45;&gt;[root] var.dns_name -->
<g id="edge_1" class="edge">
<title>[root] azurerm_availability_set.avset&#45;&gt;[root] var.dns_name</title>
<path fill="none" stroke="#000000" d="M374.0194,-359.8314C366.9219,-351.454 358.3642,-341.3531 350.5883,-332.1749"/>
<polygon fill="#000000" stroke="#000000" points="353.1471,-329.7807 344.0124,-324.4133 347.8062,-334.3056 353.1471,-329.7807"/>
</g>
<!-- [root] azurerm_lb.lb -->
<g id="node_1" class="node">
<title>[root] azurerm_lb.lb</title>
<polygon fill="none" stroke="#000000" points="1123.4123,-234 1123.4123,-249 1177.4123,-249 1177.4123,-234 1123.4123,-234"/>
<text text-anchor="start" x="1126.4084" y="-239.6" font-family="courier new" font-size="8.00" fill="#000000">azurerm_lb</text>
<polygon fill="none" stroke="#000000" points="1123.4123,-219 1123.4123,-234 1177.4123,-234 1177.4123,-219 1123.4123,-219"/>
<text text-anchor="start" x="1145.6115" y="-224.6" font-family="courier new" font-size="8.00" fill="#000000">lb</text>
</g>
<!-- [root] azurerm_public_ip.lbpip -->
<g id="node_7" class="node">
<title>[root] azurerm_public_ip.lbpip</title>
<polygon fill="none" stroke="#000000" points="1107.4123,-162 1107.4123,-177 1194.4123,-177 1194.4123,-162 1107.4123,-162"/>
<text text-anchor="start" x="1110.1056" y="-167.6" font-family="courier new" font-size="8.00" fill="#000000">azurerm_public_ip</text>
<polygon fill="none" stroke="#000000" points="1107.4123,-147 1107.4123,-162 1194.4123,-162 1194.4123,-147 1107.4123,-147"/>
<text text-anchor="start" x="1138.9103" y="-152.6" font-family="courier new" font-size="8.00" fill="#000000">lbpip</text>
</g>
<!-- [root] azurerm_lb.lb&#45;&gt;[root] azurerm_public_ip.lbpip -->
<g id="edge_2" class="edge">
<title>[root] azurerm_lb.lb&#45;&gt;[root] azurerm_public_ip.lbpip</title>
<path fill="none" stroke="#000000" d="M1150.4123,-215.8314C1150.4123,-208.131 1150.4123,-198.9743 1150.4123,-190.4166"/>
<polygon fill="#000000" stroke="#000000" points="1153.9124,-190.4132 1150.4123,-180.4133 1146.9124,-190.4133 1153.9124,-190.4132"/>
</g>
<!-- [root] azurerm_lb_backend_address_pool.backend_pool -->
<g id="node_2" class="node">
<title>[root] azurerm_lb_backend_address_pool.backend_pool</title>
<polygon fill="none" stroke="#000000" points="1073.4123,-306 1073.4123,-321 1227.4123,-321 1227.4123,-306 1073.4123,-306"/>
<text text-anchor="start" x="1076.0002" y="-311.6" font-family="courier new" font-size="8.00" fill="#000000">azurerm_lb_backend_address_pool</text>
<polygon fill="none" stroke="#000000" points="1073.4123,-291 1073.4123,-306 1227.4123,-306 1227.4123,-291 1073.4123,-291"/>
<text text-anchor="start" x="1121.6076" y="-296.6" font-family="courier new" font-size="8.00" fill="#000000">backend_pool</text>
</g>
<!-- [root] azurerm_lb_backend_address_pool.backend_pool&#45;&gt;[root] azurerm_lb.lb -->
<g id="edge_3" class="edge">
<title>[root] azurerm_lb_backend_address_pool.backend_pool&#45;&gt;[root] azurerm_lb.lb</title>
<path fill="none" stroke="#000000" d="M1150.4123,-287.8314C1150.4123,-280.131 1150.4123,-270.9743 1150.4123,-262.4166"/>
<polygon fill="#000000" stroke="#000000" points="1153.9124,-262.4132 1150.4123,-252.4133 1146.9124,-262.4133 1153.9124,-262.4132"/>
</g>
<!-- [root] azurerm_lb_nat_rule.tcp -->
<g id="node_3" class="node">
<title>[root] azurerm_lb_nat_rule.tcp</title>
<polygon fill="none" stroke="#000000" points="958.4123,-306 958.4123,-321 1055.4123,-321 1055.4123,-306 958.4123,-306"/>
<text text-anchor="start" x="961.3049" y="-311.6" font-family="courier new" font-size="8.00" fill="#000000">azurerm_lb_nat_rule</text>
<polygon fill="none" stroke="#000000" points="958.4123,-291 958.4123,-306 1055.4123,-306 1055.4123,-291 958.4123,-291"/>
<text text-anchor="start" x="999.7111" y="-296.6" font-family="courier new" font-size="8.00" fill="#000000">tcp</text>
</g>
<!-- [root] azurerm_lb_nat_rule.tcp&#45;&gt;[root] azurerm_lb.lb -->
<g id="edge_4" class="edge">
<title>[root] azurerm_lb_nat_rule.tcp&#45;&gt;[root] azurerm_lb.lb</title>
<path fill="none" stroke="#000000" d="M1042.7496,-287.8314C1064.6205,-276.8959 1092.3651,-263.0236 1114.2115,-252.1004"/>
<polygon fill="#000000" stroke="#000000" points="1115.7999,-255.2194 1123.1789,-247.6167 1112.6693,-248.9584 1115.7999,-255.2194"/>
</g>
<!-- [root] azurerm_lb_probe.lb_probe -->
<g id="node_4" class="node">
<title>[root] azurerm_lb_probe.lb_probe</title>
<polygon fill="none" stroke="#000000" points="1245.4123,-306 1245.4123,-321 1327.4123,-321 1327.4123,-306 1245.4123,-306"/>
<text text-anchor="start" x="1248.006" y="-311.6" font-family="courier new" font-size="8.00" fill="#000000">azurerm_lb_probe</text>
<polygon fill="none" stroke="#000000" points="1245.4123,-291 1245.4123,-306 1327.4123,-306 1327.4123,-291 1245.4123,-291"/>
<text text-anchor="start" x="1267.2092" y="-296.6" font-family="courier new" font-size="8.00" fill="#000000">lb_probe</text>
</g>
<!-- [root] azurerm_lb_probe.lb_probe&#45;&gt;[root] azurerm_lb.lb -->
<g id="edge_5" class="edge">
<title>[root] azurerm_lb_probe.lb_probe&#45;&gt;[root] azurerm_lb.lb</title>
<path fill="none" stroke="#000000" d="M1252.0937,-287.8314C1232.0317,-277.2103 1206.7368,-263.8188 1186.395,-253.0497"/>
<polygon fill="#000000" stroke="#000000" points="1187.9095,-249.8912 1177.4339,-248.3056 1184.6342,-256.0778 1187.9095,-249.8912"/>
</g>
<!-- [root] azurerm_lb_rule.lb_rule -->
<g id="node_5" class="node">
<title>[root] azurerm_lb_rule.lb_rule</title>
<polygon fill="none" stroke="#000000" points="1038.4123,-450 1038.4123,-465 1116.4123,-465 1116.4123,-450 1038.4123,-450"/>
<text text-anchor="start" x="1041.4064" y="-455.6" font-family="courier new" font-size="8.00" fill="#000000">azurerm_lb_rule</text>
<polygon fill="none" stroke="#000000" points="1038.4123,-435 1038.4123,-450 1116.4123,-450 1116.4123,-435 1038.4123,-435"/>
<text text-anchor="start" x="1060.6095" y="-440.6" font-family="courier new" font-size="8.00" fill="#000000">lb_rule</text>
</g>
<!-- [root] azurerm_lb_rule.lb_rule&#45;&gt;[root] azurerm_lb_backend_address_pool.backend_pool -->
<g id="edge_6" class="edge">
<title>[root] azurerm_lb_rule.lb_rule&#45;&gt;[root] azurerm_lb_backend_address_pool.backend_pool</title>
<path fill="none" stroke="#000000" d="M1116.5524,-433.3966C1146.7739,-420.1815 1184.1502,-402.8131 1188.4123,-396 1201.0489,-375.7999 1188.3729,-350.667 1174.3602,-332.0984"/>
<polygon fill="#000000" stroke="#000000" points="1176.9041,-329.6763 1167.9141,-324.0701 1171.4458,-334.059 1176.9041,-329.6763"/>
</g>
<!-- [root] azurerm_lb_rule.lb_rule&#45;&gt;[root] azurerm_lb_probe.lb_probe -->
<g id="edge_7" class="edge">
<title>[root] azurerm_lb_rule.lb_rule&#45;&gt;[root] azurerm_lb_probe.lb_probe</title>
<path fill="none" stroke="#000000" d="M1116.5897,-434.3264C1151.0062,-420.3968 1196.7665,-401.4233 1204.4123,-396 1229.3429,-378.3161 1252.272,-351.8947 1267.5064,-332.2487"/>
<polygon fill="#000000" stroke="#000000" points="1270.4913,-334.105 1273.7456,-324.0223 1264.914,-329.8749 1270.4913,-334.105"/>
</g>
<!-- [root] azurerm_network_interface.nic -->
<g id="node_6" class="node">
<title>[root] azurerm_network_interface.nic</title>
<polygon fill="none" stroke="#000000" points="961.4123,-378 961.4123,-393 1087.4123,-393 1087.4123,-378 961.4123,-378"/>
<text text-anchor="start" x="964.4025" y="-383.6" font-family="courier new" font-size="8.00" fill="#000000">azurerm_network_interface</text>
<polygon fill="none" stroke="#000000" points="961.4123,-363 961.4123,-378 1087.4123,-378 1087.4123,-363 961.4123,-363"/>
<text text-anchor="start" x="1017.2111" y="-368.6" font-family="courier new" font-size="8.00" fill="#000000">nic</text>
</g>
<!-- [root] azurerm_network_interface.nic&#45;&gt;[root] azurerm_lb_backend_address_pool.backend_pool -->
<g id="edge_8" class="edge">
<title>[root] azurerm_network_interface.nic&#45;&gt;[root] azurerm_lb_backend_address_pool.backend_pool</title>
<path fill="none" stroke="#000000" d="M1056.2074,-359.8314C1072.4728,-350.5368 1092.4509,-339.1208 1109.8173,-329.1971"/>
<polygon fill="#000000" stroke="#000000" points="1111.6814,-332.1631 1118.6273,-324.1628 1108.2084,-326.0854 1111.6814,-332.1631"/>
</g>
<!-- [root] azurerm_network_interface.nic&#45;&gt;[root] azurerm_lb_nat_rule.tcp -->
<g id="edge_9" class="edge">
<title>[root] azurerm_network_interface.nic&#45;&gt;[root] azurerm_lb_nat_rule.tcp</title>
<path fill="none" stroke="#000000" d="M1019.8701,-359.8314C1017.9239,-352.0463 1015.6055,-342.7729 1013.446,-334.1347"/>
<polygon fill="#000000" stroke="#000000" points="1016.8365,-333.2658 1011.0156,-324.4133 1010.0455,-334.9636 1016.8365,-333.2658"/>
</g>
<!-- [root] azurerm_subnet.subnet -->
<g id="node_10" class="node">
<title>[root] azurerm_subnet.subnet</title>
<polygon fill="none" stroke="#000000" points="893.4123,-234 893.4123,-249 966.4123,-249 966.4123,-234 893.4123,-234"/>
<text text-anchor="start" x="896.3068" y="-239.6" font-family="courier new" font-size="8.00" fill="#000000">azurerm_subnet</text>
<polygon fill="none" stroke="#000000" points="893.4123,-219 893.4123,-234 966.4123,-234 966.4123,-219 893.4123,-219"/>
<text text-anchor="start" x="915.5099" y="-224.6" font-family="courier new" font-size="8.00" fill="#000000">subnet</text>
</g>
<!-- [root] azurerm_network_interface.nic&#45;&gt;[root] azurerm_subnet.subnet -->
<g id="edge_10" class="edge">
<title>[root] azurerm_network_interface.nic&#45;&gt;[root] azurerm_subnet.subnet</title>
<path fill="none" stroke="#000000" d="M987.9783,-359.8689C973.583,-350.9511 958.1777,-338.8875 948.4123,-324 936.3482,-305.6083 931.7657,-280.9546 930.1065,-262.101"/>
<polygon fill="#000000" stroke="#000000" points="933.5931,-261.7803 929.4445,-252.0314 926.6081,-262.2395 933.5931,-261.7803"/>
</g>
<!-- [root] azurerm_public_ip.lbpip&#45;&gt;[root] azurerm_resource_group.rg -->
<g id="edge_11" class="edge">
<title>[root] azurerm_public_ip.lbpip&#45;&gt;[root] azurerm_resource_group.rg</title>
<path fill="none" stroke="#000000" d="M1106.7133,-154.5389C1085.0178,-151.0082 1058.3836,-146.9337 1034.4123,-144 932.3077,-131.5042 633.1807,-106.4021 499.3991,-95.3885"/>
<polygon fill="#000000" stroke="#000000" points="499.5395,-91.8883 489.2863,-94.5569 498.9657,-98.8648 499.5395,-91.8883"/>
</g>
<!-- [root] var.lb_ip_dns_name -->
<g id="node_15" class="node">
<title>[root] var.lb_ip_dns_name</title>
<polygon fill="none" stroke="#000000" points="1114.4123,-90 1114.4123,-105 1187.4123,-105 1187.4123,-90 1114.4123,-90"/>
<text text-anchor="start" x="1143.7111" y="-95.6" font-family="courier new" font-size="8.00" fill="#000000">var</text>
<polygon fill="none" stroke="#000000" points="1114.4123,-75 1114.4123,-90 1187.4123,-90 1187.4123,-75 1114.4123,-75"/>
<text text-anchor="start" x="1117.3068" y="-80.6" font-family="courier new" font-size="8.00" fill="#000000">lb_ip_dns_name</text>
</g>
<!-- [root] azurerm_public_ip.lbpip&#45;&gt;[root] var.lb_ip_dns_name -->
<g id="edge_12" class="edge">
<title>[root] azurerm_public_ip.lbpip&#45;&gt;[root] var.lb_ip_dns_name</title>
<path fill="none" stroke="#000000" d="M1150.4123,-143.8314C1150.4123,-136.131 1150.4123,-126.9743 1150.4123,-118.4166"/>
<polygon fill="#000000" stroke="#000000" points="1153.9124,-118.4132 1150.4123,-108.4133 1146.9124,-118.4133 1153.9124,-118.4132"/>
</g>
<!-- [root] var.rg_prefix -->
<g id="node_16" class="node">
<title>[root] var.rg_prefix</title>
<polygon fill="none" stroke="#000000" points="1031.4123,-90 1031.4123,-105 1080.4123,-105 1080.4123,-90 1031.4123,-90"/>
<text text-anchor="start" x="1048.7111" y="-95.6" font-family="courier new" font-size="8.00" fill="#000000">var</text>
<polygon fill="none" stroke="#000000" points="1031.4123,-75 1031.4123,-90 1080.4123,-90 1080.4123,-75 1031.4123,-75"/>
<text text-anchor="start" x="1034.3088" y="-80.6" font-family="courier new" font-size="8.00" fill="#000000">rg_prefix</text>
</g>
<!-- [root] azurerm_public_ip.lbpip&#45;&gt;[root] var.rg_prefix -->
<g id="edge_13" class="edge">
<title>[root] azurerm_public_ip.lbpip&#45;&gt;[root] var.rg_prefix</title>
<path fill="none" stroke="#000000" d="M1126.4398,-143.8314C1114.6262,-134.8779 1100.2151,-123.9558 1087.4688,-114.2955"/>
<polygon fill="#000000" stroke="#000000" points="1089.4609,-111.4137 1079.3771,-108.1628 1085.2328,-116.9925 1089.4609,-111.4137"/>
</g>
<!-- [root] provider.azurerm -->
<g id="node_13" class="node">
<title>[root] provider.azurerm</title>
<polygon fill="none" stroke="#000000" points="339.4123,-18 339.4123,-33 383.4123,-33 383.4123,-18 339.4123,-18"/>
<text text-anchor="start" x="342.2092" y="-23.6" font-family="courier new" font-size="8.00" fill="#000000">provider</text>
<polygon fill="none" stroke="#000000" points="339.4123,-3 339.4123,-18 383.4123,-18 383.4123,-3 339.4123,-3"/>
<text text-anchor="start" x="344.6095" y="-8.6" font-family="courier new" font-size="8.00" fill="#000000">azurerm</text>
</g>
<!-- [root] azurerm_resource_group.rg&#45;&gt;[root] provider.azurerm -->
<g id="edge_14" class="edge">
<title>[root] azurerm_resource_group.rg&#45;&gt;[root] provider.azurerm</title>
<path fill="none" stroke="#000000" d="M415.2436,-71.8314C406.697,-63.2848 396.3566,-52.9443 387.0321,-43.6198"/>
<polygon fill="#000000" stroke="#000000" points="389.3715,-41.0095 379.8255,-36.4133 384.4218,-45.9592 389.3715,-41.0095"/>
</g>
<!-- [root] var.location -->
<g id="node_17" class="node">
<title>[root] var.location</title>
<polygon fill="none" stroke="#000000" points="411.4123,-18 411.4123,-33 455.4123,-33 455.4123,-18 411.4123,-18"/>
<text text-anchor="start" x="426.2111" y="-23.6" font-family="courier new" font-size="8.00" fill="#000000">var</text>
<polygon fill="none" stroke="#000000" points="411.4123,-3 411.4123,-18 455.4123,-18 455.4123,-3 411.4123,-3"/>
<text text-anchor="start" x="414.2092" y="-8.6" font-family="courier new" font-size="8.00" fill="#000000">location</text>
</g>
<!-- [root] azurerm_resource_group.rg&#45;&gt;[root] var.location -->
<g id="edge_15" class="edge">
<title>[root] azurerm_resource_group.rg&#45;&gt;[root] var.location</title>
<path fill="none" stroke="#000000" d="M433.4123,-71.8314C433.4123,-64.131 433.4123,-54.9743 433.4123,-46.4166"/>
<polygon fill="#000000" stroke="#000000" points="436.9124,-46.4132 433.4123,-36.4133 429.9124,-46.4133 436.9124,-46.4132"/>
</g>
<!-- [root] var.resource_group -->
<g id="node_18" class="node">
<title>[root] var.resource_group</title>
<polygon fill="none" stroke="#000000" points="479.4123,-18 479.4123,-33 552.4123,-33 552.4123,-18 479.4123,-18"/>
<text text-anchor="start" x="508.7111" y="-23.6" font-family="courier new" font-size="8.00" fill="#000000">var</text>
<polygon fill="none" stroke="#000000" points="479.4123,-3 479.4123,-18 552.4123,-18 552.4123,-3 479.4123,-3"/>
<text text-anchor="start" x="482.3068" y="-8.6" font-family="courier new" font-size="8.00" fill="#000000">resource_group</text>
</g>
<!-- [root] azurerm_resource_group.rg&#45;&gt;[root] var.resource_group -->
<g id="edge_16" class="edge">
<title>[root] azurerm_resource_group.rg&#45;&gt;[root] var.resource_group</title>
<path fill="none" stroke="#000000" d="M454.1043,-71.8314C464.1071,-63.0485 476.2673,-52.3712 487.1122,-42.8489"/>
<polygon fill="#000000" stroke="#000000" points="489.5217,-45.3909 494.7268,-36.1628 484.9031,-40.1308 489.5217,-45.3909"/>
</g>
<!-- [root] azurerm_storage_account.stor -->
<g id="node_9" class="node">
<title>[root] azurerm_storage_account.stor</title>
<polygon fill="none" stroke="#000000" points="198.4123,-450 198.4123,-465 314.4123,-465 314.4123,-450 198.4123,-450"/>
<text text-anchor="start" x="201.2033" y="-455.6" font-family="courier new" font-size="8.00" fill="#000000">azurerm_storage_account</text>
<polygon fill="none" stroke="#000000" points="198.4123,-435 198.4123,-450 314.4123,-450 314.4123,-435 198.4123,-435"/>
<text text-anchor="start" x="246.8107" y="-440.6" font-family="courier new" font-size="8.00" fill="#000000">stor</text>
</g>
<!-- [root] azurerm_storage_account.stor&#45;&gt;[root] azurerm_resource_group.rg -->
<g id="edge_17" class="edge">
<title>[root] azurerm_storage_account.stor&#45;&gt;[root] azurerm_resource_group.rg</title>
<path fill="none" stroke="#000000" d="M198.1721,-443.7907C136.7923,-436.0409 45.6879,-420.7118 21.4123,-396 -7.2368,-366.836 2.4123,-346.8816 2.4123,-306 2.4123,-306 2.4123,-306 2.4123,-234 2.4123,-158.0128 246.4573,-114.8466 367.2682,-98.1331"/>
<polygon fill="#000000" stroke="#000000" points="368.072,-101.5561 377.5084,-96.739 367.1276,-94.62 368.072,-101.5561"/>
</g>
<!-- [root] azurerm_storage_account.stor&#45;&gt;[root] var.dns_name -->
<g id="edge_18" class="edge">
<title>[root] azurerm_storage_account.stor&#45;&gt;[root] var.dns_name</title>
<path fill="none" stroke="#000000" d="M265.5311,-431.7623C277.9741,-406.8764 300.3712,-362.0822 314.804,-333.2165"/>
<polygon fill="#000000" stroke="#000000" points="318.0258,-334.5992 319.3675,-324.0896 311.7648,-331.4686 318.0258,-334.5992"/>
</g>
<!-- [root] var.storage_account_tier -->
<g id="node_19" class="node">
<title>[root] var.storage_account_tier</title>
<polygon fill="none" stroke="#000000" points="30.4123,-378 30.4123,-393 132.4123,-393 132.4123,-378 30.4123,-378"/>
<text text-anchor="start" x="74.2111" y="-383.6" font-family="courier new" font-size="8.00" fill="#000000">var</text>
<polygon fill="none" stroke="#000000" points="30.4123,-363 30.4123,-378 132.4123,-378 132.4123,-363 30.4123,-363"/>
<text text-anchor="start" x="33.4045" y="-368.6" font-family="courier new" font-size="8.00" fill="#000000">storage_account_tier</text>
</g>
<!-- [root] azurerm_storage_account.stor&#45;&gt;[root] var.storage_account_tier -->
<g id="edge_19" class="edge">
<title>[root] azurerm_storage_account.stor&#45;&gt;[root] var.storage_account_tier</title>
<path fill="none" stroke="#000000" d="M212.2524,-431.8314C188.6391,-422.1162 159.3921,-410.0831 134.5423,-399.8592"/>
<polygon fill="#000000" stroke="#000000" points="135.8342,-396.6061 125.2546,-396.038 133.1708,-403.0797 135.8342,-396.6061"/>
</g>
<!-- [root] var.storage_replication_type -->
<g id="node_20" class="node">
<title>[root] var.storage_replication_type</title>
<polygon fill="none" stroke="#000000" points="151.4123,-378 151.4123,-393 272.4123,-393 272.4123,-378 151.4123,-378"/>
<text text-anchor="start" x="204.7111" y="-383.6" font-family="courier new" font-size="8.00" fill="#000000">var</text>
<polygon fill="none" stroke="#000000" points="151.4123,-363 151.4123,-378 272.4123,-378 272.4123,-363 151.4123,-363"/>
<text text-anchor="start" x="154.3029" y="-368.6" font-family="courier new" font-size="8.00" fill="#000000">storage_replication_type</text>
</g>
<!-- [root] azurerm_storage_account.stor&#45;&gt;[root] var.storage_replication_type -->
<g id="edge_20" class="edge">
<title>[root] azurerm_storage_account.stor&#45;&gt;[root] var.storage_replication_type</title>
<path fill="none" stroke="#000000" d="M245.0569,-431.8314C239.9797,-423.7079 233.8896,-413.9637 228.2946,-405.0118"/>
<polygon fill="#000000" stroke="#000000" points="231.1886,-403.0383 222.9206,-396.4133 225.2526,-406.7483 231.1886,-403.0383"/>
</g>
<!-- [root] azurerm_virtual_network.vnet -->
<g id="node_12" class="node">
<title>[root] azurerm_virtual_network.vnet</title>
<polygon fill="none" stroke="#000000" points="699.4123,-162 699.4123,-177 815.4123,-177 815.4123,-162 699.4123,-162"/>
<text text-anchor="start" x="702.2033" y="-167.6" font-family="courier new" font-size="8.00" fill="#000000">azurerm_virtual_network</text>
<polygon fill="none" stroke="#000000" points="699.4123,-147 699.4123,-162 815.4123,-162 815.4123,-147 699.4123,-147"/>
<text text-anchor="start" x="747.8107" y="-152.6" font-family="courier new" font-size="8.00" fill="#000000">vnet</text>
</g>
<!-- [root] azurerm_subnet.subnet&#45;&gt;[root] azurerm_virtual_network.vnet -->
<g id="edge_21" class="edge">
<title>[root] azurerm_subnet.subnet&#45;&gt;[root] azurerm_virtual_network.vnet</title>
<path fill="none" stroke="#000000" d="M892.514,-218.5542C868.5137,-208.5076 836.8407,-195.2491 810.1946,-184.0949"/>
<polygon fill="#000000" stroke="#000000" points="811.2046,-180.7235 800.6287,-180.0906 808.5016,-187.1806 811.2046,-180.7235"/>
</g>
<!-- [root] azurerm_subnet.subnet&#45;&gt;[root] var.rg_prefix -->
<g id="edge_22" class="edge">
<title>[root] azurerm_subnet.subnet&#45;&gt;[root] var.rg_prefix</title>
<path fill="none" stroke="#000000" d="M928.8175,-215.8851C929.0971,-196.2355 932.3458,-164.8846 948.4123,-144 965.7308,-121.4879 995.0014,-107.6303 1018.5546,-99.5984"/>
<polygon fill="#000000" stroke="#000000" points="1019.7851,-102.8797 1028.2473,-96.5045 1017.6565,-96.2111 1019.7851,-102.8797"/>
</g>
<!-- [root] var.subnet_prefix -->
<g id="node_21" class="node">
<title>[root] var.subnet_prefix</title>
<polygon fill="none" stroke="#000000" points="957.4123,-162 957.4123,-177 1025.4123,-177 1025.4123,-162 957.4123,-162"/>
<text text-anchor="start" x="984.2111" y="-167.6" font-family="courier new" font-size="8.00" fill="#000000">var</text>
<polygon fill="none" stroke="#000000" points="957.4123,-147 957.4123,-162 1025.4123,-162 1025.4123,-147 957.4123,-147"/>
<text text-anchor="start" x="960.2072" y="-152.6" font-family="courier new" font-size="8.00" fill="#000000">subnet_prefix</text>
</g>
<!-- [root] azurerm_subnet.subnet&#45;&gt;[root] var.subnet_prefix -->
<g id="edge_23" class="edge">
<title>[root] azurerm_subnet.subnet&#45;&gt;[root] var.subnet_prefix</title>
<path fill="none" stroke="#000000" d="M945.0575,-215.8314C952.2713,-207.454 960.9693,-197.3531 968.8728,-188.1749"/>
<polygon fill="#000000" stroke="#000000" points="971.6833,-190.2748 975.5564,-180.4133 966.3789,-185.7071 971.6833,-190.2748"/>
</g>
<!-- [root] azurerm_virtual_machine.vm -->
<g id="node_11" class="node">
<title>[root] azurerm_virtual_machine.vm</title>
<polygon fill="none" stroke="#000000" points="813.4123,-450 813.4123,-465 929.4123,-465 929.4123,-450 813.4123,-450"/>
<text text-anchor="start" x="816.2033" y="-455.6" font-family="courier new" font-size="8.00" fill="#000000">azurerm_virtual_machine</text>
<polygon fill="none" stroke="#000000" points="813.4123,-435 813.4123,-450 929.4123,-450 929.4123,-435 813.4123,-435"/>
<text text-anchor="start" x="866.6115" y="-440.6" font-family="courier new" font-size="8.00" fill="#000000">vm</text>
</g>
<!-- [root] azurerm_virtual_machine.vm&#45;&gt;[root] azurerm_availability_set.avset -->
<g id="edge_24" class="edge">
<title>[root] azurerm_virtual_machine.vm&#45;&gt;[root] azurerm_availability_set.avset</title>
<path fill="none" stroke="#000000" d="M813.2458,-444.7125C734.9949,-437.0869 591.3869,-421.2927 460.4749,-396.2902"/>
<polygon fill="#000000" stroke="#000000" points="460.7531,-392.7792 450.2705,-394.3173 459.4243,-399.652 460.7531,-392.7792"/>
</g>
<!-- [root] azurerm_virtual_machine.vm&#45;&gt;[root] azurerm_network_interface.nic -->
<g id="edge_25" class="edge">
<title>[root] azurerm_virtual_machine.vm&#45;&gt;[root] azurerm_network_interface.nic</title>
<path fill="none" stroke="#000000" d="M910.0206,-431.8314C930.3016,-422.2874 955.336,-410.5065 976.8094,-400.4013"/>
<polygon fill="#000000" stroke="#000000" points="978.5237,-403.4629 986.0815,-396.038 975.543,-397.1291 978.5237,-403.4629"/>
</g>
<!-- [root] var.admin_password -->
<g id="node_22" class="node">
<title>[root] var.admin_password</title>
<polygon fill="none" stroke="#000000" points="468.4123,-378 468.4123,-393 541.4123,-393 541.4123,-378 468.4123,-378"/>
<text text-anchor="start" x="497.7111" y="-383.6" font-family="courier new" font-size="8.00" fill="#000000">var</text>
<polygon fill="none" stroke="#000000" points="468.4123,-363 468.4123,-378 541.4123,-378 541.4123,-363 468.4123,-363"/>
<text text-anchor="start" x="471.3068" y="-368.6" font-family="courier new" font-size="8.00" fill="#000000">admin_password</text>
</g>
<!-- [root] azurerm_virtual_machine.vm&#45;&gt;[root] var.admin_password -->
<g id="edge_26" class="edge">
<title>[root] azurerm_virtual_machine.vm&#45;&gt;[root] var.admin_password</title>
<path fill="none" stroke="#000000" d="M813.2232,-443.8729C750.4615,-436.4508 647.664,-421.9364 551.026,-395.8523"/>
<polygon fill="#000000" stroke="#000000" points="551.663,-392.3977 541.0931,-393.1237 549.8087,-399.1476 551.663,-392.3977"/>
</g>
<!-- [root] var.admin_username -->
<g id="node_23" class="node">
<title>[root] var.admin_username</title>
<polygon fill="none" stroke="#000000" points="1106.4123,-378 1106.4123,-393 1179.4123,-393 1179.4123,-378 1106.4123,-378"/>
<text text-anchor="start" x="1135.7111" y="-383.6" font-family="courier new" font-size="8.00" fill="#000000">var</text>
<polygon fill="none" stroke="#000000" points="1106.4123,-363 1106.4123,-378 1179.4123,-378 1179.4123,-363 1106.4123,-363"/>
<text text-anchor="start" x="1109.3068" y="-368.6" font-family="courier new" font-size="8.00" fill="#000000">admin_username</text>
</g>
<!-- [root] azurerm_virtual_machine.vm&#45;&gt;[root] var.admin_username -->
<g id="edge_27" class="edge">
<title>[root] azurerm_virtual_machine.vm&#45;&gt;[root] var.admin_username</title>
<path fill="none" stroke="#000000" d="M929.8153,-438.2903C973.2646,-429.0549 1034.0894,-415.026 1095.7609,-395.9915"/>
<polygon fill="#000000" stroke="#000000" points="1097.1647,-399.2197 1105.6636,-392.8936 1095.0747,-392.539 1097.1647,-399.2197"/>
</g>
<!-- [root] var.hostname -->
<g id="node_24" class="node">
<title>[root] var.hostname</title>
<polygon fill="none" stroke="#000000" points="1278.4123,-378 1278.4123,-393 1322.4123,-393 1322.4123,-378 1278.4123,-378"/>
<text text-anchor="start" x="1293.2111" y="-383.6" font-family="courier new" font-size="8.00" fill="#000000">var</text>
<polygon fill="none" stroke="#000000" points="1278.4123,-363 1278.4123,-378 1322.4123,-378 1322.4123,-363 1278.4123,-363"/>
<text text-anchor="start" x="1281.2092" y="-368.6" font-family="courier new" font-size="8.00" fill="#000000">hostname</text>
</g>
<!-- [root] azurerm_virtual_machine.vm&#45;&gt;[root] var.hostname -->
<g id="edge_28" class="edge">
<title>[root] azurerm_virtual_machine.vm&#45;&gt;[root] var.hostname</title>
<path fill="none" stroke="#000000" d="M929.7156,-440.2148C1019.425,-425.1587 1188.7458,-396.7412 1263.4291,-384.207"/>
<polygon fill="#000000" stroke="#000000" points="1264.0383,-387.6538 1273.321,-382.5468 1262.8796,-380.7503 1264.0383,-387.6538"/>
</g>
<!-- [root] var.image_offer -->
<g id="node_25" class="node">
<title>[root] var.image_offer</title>
<polygon fill="none" stroke="#000000" points="559.4123,-378 559.4123,-393 617.4123,-393 617.4123,-378 559.4123,-378"/>
<text text-anchor="start" x="581.2111" y="-383.6" font-family="courier new" font-size="8.00" fill="#000000">var</text>
<polygon fill="none" stroke="#000000" points="559.4123,-363 559.4123,-378 617.4123,-378 617.4123,-363 559.4123,-363"/>
<text text-anchor="start" x="562.008" y="-368.6" font-family="courier new" font-size="8.00" fill="#000000">image_offer</text>
</g>
<!-- [root] azurerm_virtual_machine.vm&#45;&gt;[root] var.image_offer -->
<g id="edge_29" class="edge">
<title>[root] azurerm_virtual_machine.vm&#45;&gt;[root] var.image_offer</title>
<path fill="none" stroke="#000000" d="M812.9798,-440.9441C764.9564,-432.6429 695.2455,-418.6222 627.1879,-395.8905"/>
<polygon fill="#000000" stroke="#000000" points="628.1925,-392.5353 617.5981,-392.6248 625.936,-399.1616 628.1925,-392.5353"/>
</g>
<!-- [root] var.image_publisher -->
<g id="node_26" class="node">
<title>[root] var.image_publisher</title>
<polygon fill="none" stroke="#000000" points="635.4123,-378 635.4123,-393 713.4123,-393 713.4123,-378 635.4123,-378"/>
<text text-anchor="start" x="667.2111" y="-383.6" font-family="courier new" font-size="8.00" fill="#000000">var</text>
<polygon fill="none" stroke="#000000" points="635.4123,-363 635.4123,-378 713.4123,-378 713.4123,-363 635.4123,-363"/>
<text text-anchor="start" x="638.4064" y="-368.6" font-family="courier new" font-size="8.00" fill="#000000">image_publisher</text>
</g>
<!-- [root] azurerm_virtual_machine.vm&#45;&gt;[root] var.image_publisher -->
<g id="edge_30" class="edge">
<title>[root] azurerm_virtual_machine.vm&#45;&gt;[root] var.image_publisher</title>
<path fill="none" stroke="#000000" d="M821.0144,-431.8918C794.3817,-422.2864 760.919,-410.1612 723.1305,-396.2486"/>
<polygon fill="#000000" stroke="#000000" points="724.0249,-392.8482 713.4315,-392.6734 721.6038,-399.4161 724.0249,-392.8482"/>
</g>
<!-- [root] var.image_sku -->
<g id="node_27" class="node">
<title>[root] var.image_sku</title>
<polygon fill="none" stroke="#000000" points="734.4123,-378 734.4123,-393 783.4123,-393 783.4123,-378 734.4123,-378"/>
<text text-anchor="start" x="751.7111" y="-383.6" font-family="courier new" font-size="8.00" fill="#000000">var</text>
<polygon fill="none" stroke="#000000" points="734.4123,-363 734.4123,-378 783.4123,-378 783.4123,-363 734.4123,-363"/>
<text text-anchor="start" x="737.3088" y="-368.6" font-family="courier new" font-size="8.00" fill="#000000">image_sku</text>
</g>
<!-- [root] azurerm_virtual_machine.vm&#45;&gt;[root] var.image_sku -->
<g id="edge_31" class="edge">
<title>[root] azurerm_virtual_machine.vm&#45;&gt;[root] var.image_sku</title>
<path fill="none" stroke="#000000" d="M842.8976,-431.8314C828.1132,-422.4112 809.9086,-410.8118 794.1886,-400.7955"/>
<polygon fill="#000000" stroke="#000000" points="796.0627,-397.8396 785.7484,-395.4177 792.3012,-403.7431 796.0627,-397.8396"/>
</g>
<!-- [root] var.image_version -->
<g id="node_28" class="node">
<title>[root] var.image_version</title>
<polygon fill="none" stroke="#000000" points="803.4123,-378 803.4123,-393 871.4123,-393 871.4123,-378 803.4123,-378"/>
<text text-anchor="start" x="830.2111" y="-383.6" font-family="courier new" font-size="8.00" fill="#000000">var</text>
<polygon fill="none" stroke="#000000" points="803.4123,-363 803.4123,-378 871.4123,-378 871.4123,-363 803.4123,-363"/>
<text text-anchor="start" x="806.2072" y="-368.6" font-family="courier new" font-size="8.00" fill="#000000">image_version</text>
</g>
<!-- [root] azurerm_virtual_machine.vm&#45;&gt;[root] var.image_version -->
<g id="edge_32" class="edge">
<title>[root] azurerm_virtual_machine.vm&#45;&gt;[root] var.image_version</title>
<path fill="none" stroke="#000000" d="M862.8326,-431.8314C859.0765,-423.8771 854.5865,-414.369 850.4325,-405.5723"/>
<polygon fill="#000000" stroke="#000000" points="853.5424,-403.9612 846.1074,-396.4133 847.2127,-406.9503 853.5424,-403.9612"/>
</g>
<!-- [root] var.vm_size -->
<g id="node_29" class="node">
<title>[root] var.vm_size</title>
<polygon fill="none" stroke="#000000" points="897.4123,-378 897.4123,-393 936.4123,-393 936.4123,-378 897.4123,-378"/>
<text text-anchor="start" x="909.7111" y="-383.6" font-family="courier new" font-size="8.00" fill="#000000">var</text>
<polygon fill="none" stroke="#000000" points="897.4123,-363 897.4123,-378 936.4123,-378 936.4123,-363 897.4123,-363"/>
<text text-anchor="start" x="900.1095" y="-368.6" font-family="courier new" font-size="8.00" fill="#000000">vm_size</text>
</g>
<!-- [root] azurerm_virtual_machine.vm&#45;&gt;[root] var.vm_size -->
<g id="edge_33" class="edge">
<title>[root] azurerm_virtual_machine.vm&#45;&gt;[root] var.vm_size</title>
<path fill="none" stroke="#000000" d="M882.7677,-431.8314C887.8449,-423.7079 893.9349,-413.9637 899.5299,-405.0118"/>
<polygon fill="#000000" stroke="#000000" points="902.572,-406.7483 904.904,-396.4133 896.636,-403.0383 902.572,-406.7483"/>
</g>
<!-- [root] azurerm_virtual_network.vnet&#45;&gt;[root] azurerm_resource_group.rg -->
<g id="edge_34" class="edge">
<title>[root] azurerm_virtual_network.vnet&#45;&gt;[root] azurerm_resource_group.rg</title>
<path fill="none" stroke="#000000" d="M699.1134,-149.0447C642.7951,-136.5295 557.6305,-117.604 498.9796,-104.5705"/>
<polygon fill="#000000" stroke="#000000" points="499.5986,-101.1228 489.0775,-102.37 498.0801,-107.9561 499.5986,-101.1228"/>
</g>
<!-- [root] var.address_space -->
<g id="node_30" class="node">
<title>[root] var.address_space</title>
<polygon fill="none" stroke="#000000" points="680.4123,-90 680.4123,-105 748.4123,-105 748.4123,-90 680.4123,-90"/>
<text text-anchor="start" x="707.2111" y="-95.6" font-family="courier new" font-size="8.00" fill="#000000">var</text>
<polygon fill="none" stroke="#000000" points="680.4123,-75 680.4123,-90 748.4123,-90 748.4123,-75 680.4123,-75"/>
<text text-anchor="start" x="683.2072" y="-80.6" font-family="courier new" font-size="8.00" fill="#000000">address_space</text>
</g>
<!-- [root] azurerm_virtual_network.vnet&#45;&gt;[root] var.address_space -->
<g id="edge_35" class="edge">
<title>[root] azurerm_virtual_network.vnet&#45;&gt;[root] var.address_space</title>
<path fill="none" stroke="#000000" d="M746.5616,-143.8314C741.71,-135.7079 735.8906,-125.9637 730.5443,-117.0118"/>
<polygon fill="#000000" stroke="#000000" points="733.5415,-115.2041 725.4091,-108.4133 727.5316,-118.7933 733.5415,-115.2041"/>
</g>
<!-- [root] var.virtual_network_name -->
<g id="node_31" class="node">
<title>[root] var.virtual_network_name</title>
<polygon fill="none" stroke="#000000" points="766.4123,-90 766.4123,-105 868.4123,-105 868.4123,-90 766.4123,-90"/>
<text text-anchor="start" x="810.2111" y="-95.6" font-family="courier new" font-size="8.00" fill="#000000">var</text>
<polygon fill="none" stroke="#000000" points="766.4123,-75 766.4123,-90 868.4123,-90 868.4123,-75 766.4123,-75"/>
<text text-anchor="start" x="769.4045" y="-80.6" font-family="courier new" font-size="8.00" fill="#000000">virtual_network_name</text>
</g>
<!-- [root] azurerm_virtual_network.vnet&#45;&gt;[root] var.virtual_network_name -->
<g id="edge_36" class="edge">
<title>[root] azurerm_virtual_network.vnet&#45;&gt;[root] var.virtual_network_name</title>
<path fill="none" stroke="#000000" d="M772.5528,-143.8314C779.5339,-135.454 787.9513,-125.3531 795.5998,-116.1749"/>
<polygon fill="#000000" stroke="#000000" points="798.3548,-118.3362 802.0679,-108.4133 792.9772,-113.8548 798.3548,-118.3362"/>
</g>
<!-- [root] meta.count&#45;boundary (count boundary fixup) -->
<g id="node_32" class="node">
<title>[root] meta.count&#45;boundary (count boundary fixup)</title>
<polygon fill="none" stroke="#000000" points="1041.4123,-522 1041.4123,-537 1114.4123,-537 1114.4123,-522 1041.4123,-522"/>
<text text-anchor="start" x="1068.3107" y="-527.6" font-family="courier new" font-size="8.00" fill="#000000">meta</text>
<polygon fill="none" stroke="#000000" points="1041.4123,-507 1041.4123,-522 1114.4123,-522 1114.4123,-507 1041.4123,-507"/>
<text text-anchor="start" x="1044.3068" y="-512.6" font-family="courier new" font-size="8.00" fill="#000000">count&#45;boundary</text>
</g>
<!-- [root] meta.count&#45;boundary (count boundary fixup)&#45;&gt;[root] azurerm_lb_rule.lb_rule -->
<g id="edge_37" class="edge">
<title>[root] meta.count&#45;boundary (count boundary fixup)&#45;&gt;[root] azurerm_lb_rule.lb_rule</title>
<path fill="none" stroke="#000000" d="M1077.4123,-503.8314C1077.4123,-496.131 1077.4123,-486.9743 1077.4123,-478.4166"/>
<polygon fill="#000000" stroke="#000000" points="1080.9124,-478.4132 1077.4123,-468.4133 1073.9124,-478.4133 1080.9124,-478.4132"/>
</g>
<!-- [root] meta.count&#45;boundary (count boundary fixup)&#45;&gt;[root] azurerm_storage_account.stor -->
<g id="edge_38" class="edge">
<title>[root] meta.count&#45;boundary (count boundary fixup)&#45;&gt;[root] azurerm_storage_account.stor</title>
<path fill="none" stroke="#000000" d="M1040.8069,-515.4534C1018.5003,-511.6554 989.3834,-507.0372 963.4123,-504 730.0238,-476.7063 451.6058,-460.0923 325.069,-453.4063"/>
<polygon fill="#000000" stroke="#000000" points="324.9312,-449.8943 314.7617,-452.8659 324.5647,-456.8847 324.9312,-449.8943"/>
</g>
<!-- [root] meta.count&#45;boundary (count boundary fixup)&#45;&gt;[root] azurerm_virtual_machine.vm -->
<g id="edge_39" class="edge">
<title>[root] meta.count&#45;boundary (count boundary fixup)&#45;&gt;[root] azurerm_virtual_machine.vm</title>
<path fill="none" stroke="#000000" d="M1040.5836,-509.1278C1010.647,-498.6646 967.7775,-483.6811 932.685,-471.4157"/>
<polygon fill="#000000" stroke="#000000" points="933.6054,-468.0298 923.0106,-468.0344 931.2958,-474.6379 933.6054,-468.0298"/>
</g>
<!-- [root] output.hostname -->
<g id="node_33" class="node">
<title>[root] output.hostname</title>
<polygon fill="none" stroke="#000000" points="1236.4123,-450 1236.4123,-465 1280.4123,-465 1280.4123,-450 1236.4123,-450"/>
<text text-anchor="start" x="1244.0099" y="-455.6" font-family="courier new" font-size="8.00" fill="#000000">output</text>
<polygon fill="none" stroke="#000000" points="1236.4123,-435 1236.4123,-450 1280.4123,-450 1280.4123,-435 1236.4123,-435"/>
<text text-anchor="start" x="1239.2092" y="-440.6" font-family="courier new" font-size="8.00" fill="#000000">hostname</text>
</g>
<!-- [root] meta.count&#45;boundary (count boundary fixup)&#45;&gt;[root] output.hostname -->
<g id="edge_40" class="edge">
<title>[root] meta.count&#45;boundary (count boundary fixup)&#45;&gt;[root] output.hostname</title>
<path fill="none" stroke="#000000" d="M1114.0403,-507.4297C1145.3591,-494.9714 1190.2113,-477.1297 1221.5867,-464.6488"/>
<polygon fill="#000000" stroke="#000000" points="1223.2677,-467.747 1231.2658,-460.7986 1220.6803,-461.2427 1223.2677,-467.747"/>
</g>
<!-- [root] output.ssh_command -->
<g id="node_34" class="node">
<title>[root] output.ssh_command</title>
<polygon fill="none" stroke="#000000" points="1134.4123,-450 1134.4123,-465 1192.4123,-465 1192.4123,-450 1134.4123,-450"/>
<text text-anchor="start" x="1149.0099" y="-455.6" font-family="courier new" font-size="8.00" fill="#000000">output</text>
<polygon fill="none" stroke="#000000" points="1134.4123,-435 1134.4123,-450 1192.4123,-450 1192.4123,-435 1134.4123,-435"/>
<text text-anchor="start" x="1137.008" y="-440.6" font-family="courier new" font-size="8.00" fill="#000000">ssh_command</text>
</g>
<!-- [root] meta.count&#45;boundary (count boundary fixup)&#45;&gt;[root] output.ssh_command -->
<g id="edge_41" class="edge">
<title>[root] meta.count&#45;boundary (count boundary fixup)&#45;&gt;[root] output.ssh_command</title>
<path fill="none" stroke="#000000" d="M1099.1137,-503.8314C1109.6044,-495.0485 1122.3578,-484.3712 1133.7317,-474.8489"/>
<polygon fill="#000000" stroke="#000000" points="1136.297,-477.2659 1141.7178,-468.1628 1131.8034,-471.8986 1136.297,-477.2659"/>
</g>
<!-- [root] output.vm_fqdn -->
<g id="node_35" class="node">
<title>[root] output.vm_fqdn</title>
<polygon fill="none" stroke="#000000" points="1391.4123,-234 1391.4123,-249 1430.4123,-249 1430.4123,-234 1391.4123,-234"/>
<text text-anchor="start" x="1396.5099" y="-239.6" font-family="courier new" font-size="8.00" fill="#000000">output</text>
<polygon fill="none" stroke="#000000" points="1391.4123,-219 1391.4123,-234 1430.4123,-234 1430.4123,-219 1391.4123,-219"/>
<text text-anchor="start" x="1394.1095" y="-224.6" font-family="courier new" font-size="8.00" fill="#000000">vm_fqdn</text>
</g>
<!-- [root] meta.count&#45;boundary (count boundary fixup)&#45;&gt;[root] output.vm_fqdn -->
<g id="edge_42" class="edge">
<title>[root] meta.count&#45;boundary (count boundary fixup)&#45;&gt;[root] output.vm_fqdn</title>
<path fill="none" stroke="#000000" d="M1114.1115,-519.4976C1159.4155,-514.9846 1237.4436,-502.4611 1294.4123,-468 1368.8452,-422.9746 1396.8644,-314.0115 1406.2327,-262.2323"/>
<polygon fill="#000000" stroke="#000000" points="1409.7305,-262.5403 1407.9587,-252.0947 1402.8298,-261.3654 1409.7305,-262.5403"/>
</g>
<!-- [root] output.hostname&#45;&gt;[root] var.hostname -->
<g id="edge_43" class="edge">
<title>[root] output.hostname&#45;&gt;[root] var.hostname</title>
<path fill="none" stroke="#000000" d="M1269.0107,-431.8314C1273.7,-423.7925 1279.3151,-414.1666 1284.4921,-405.2918"/>
<polygon fill="#000000" stroke="#000000" points="1287.6557,-406.8146 1289.6712,-396.4133 1281.6092,-403.2875 1287.6557,-406.8146"/>
</g>
<!-- [root] output.ssh_command&#45;&gt;[root] azurerm_public_ip.lbpip -->
<g id="edge_44" class="edge">
<title>[root] output.ssh_command&#45;&gt;[root] azurerm_public_ip.lbpip</title>
<path fill="none" stroke="#000000" d="M1192.6462,-440.9935C1241.8289,-425.825 1335.8618,-396.7485 1336.4123,-396 1364.8508,-357.3315 1358.9046,-330.404 1336.4123,-288 1308.5144,-235.4051 1247.7575,-200.7344 1203.245,-181.3118"/>
<polygon fill="#000000" stroke="#000000" points="1204.5837,-178.0778 1194.0107,-177.3977 1201.8519,-184.5228 1204.5837,-178.0778"/>
</g>
<!-- [root] output.ssh_command&#45;&gt;[root] var.admin_username -->
<g id="edge_45" class="edge">
<title>[root] output.ssh_command&#45;&gt;[root] var.admin_username</title>
<path fill="none" stroke="#000000" d="M1158.1131,-431.8314C1155.8425,-424.0463 1153.1377,-414.7729 1150.6182,-406.1347"/>
<polygon fill="#000000" stroke="#000000" points="1153.9429,-405.0332 1147.7828,-396.4133 1147.2229,-406.9933 1153.9429,-405.0332"/>
</g>
<!-- [root] output.vm_fqdn&#45;&gt;[root] azurerm_public_ip.lbpip -->
<g id="edge_46" class="edge">
<title>[root] output.vm_fqdn&#45;&gt;[root] azurerm_public_ip.lbpip</title>
<path fill="none" stroke="#000000" d="M1383.3237,-221.3288C1378.7333,-219.4072 1373.9755,-217.5514 1369.4123,-216 1314.0902,-197.1916 1248.8567,-181.963 1204.061,-172.5311"/>
<polygon fill="#000000" stroke="#000000" points="1204.7644,-169.1026 1194.2611,-170.4915 1203.3381,-175.9558 1204.7644,-169.1026"/>
</g>
<!-- [root] provider.azurerm (close) -->
<g id="node_36" class="node">
<title>[root] provider.azurerm (close)</title>
<polygon fill="none" stroke="#000000" points="905.4123,-522 905.4123,-537 949.4123,-537 949.4123,-522 905.4123,-522"/>
<text text-anchor="start" x="908.2092" y="-527.6" font-family="courier new" font-size="8.00" fill="#000000">provider</text>
<polygon fill="none" stroke="#000000" points="905.4123,-507 905.4123,-522 949.4123,-522 949.4123,-507 905.4123,-507"/>
<text text-anchor="start" x="910.6095" y="-512.6" font-family="courier new" font-size="8.00" fill="#000000">azurerm</text>
</g>
<!-- [root] provider.azurerm (close)&#45;&gt;[root] azurerm_lb_rule.lb_rule -->
<g id="edge_47" class="edge">
<title>[root] provider.azurerm (close)&#45;&gt;[root] azurerm_lb_rule.lb_rule</title>
<path fill="none" stroke="#000000" d="M954.5761,-508.9613C975.6872,-498.8281 1005.4767,-484.5291 1030.4323,-472.5504"/>
<polygon fill="#000000" stroke="#000000" points="1032.2312,-475.5693 1039.7319,-468.0866 1029.2021,-469.2586 1032.2312,-475.5693"/>
</g>
<!-- [root] provider.azurerm (close)&#45;&gt;[root] azurerm_storage_account.stor -->
<g id="edge_48" class="edge">
<title>[root] provider.azurerm (close)&#45;&gt;[root] azurerm_storage_account.stor</title>
<path fill="none" stroke="#000000" d="M900.2772,-519.0883C802.9465,-508.6445 469.486,-472.8634 324.5663,-457.3131"/>
<polygon fill="#000000" stroke="#000000" points="324.7802,-453.816 314.4638,-456.2291 324.0333,-460.7761 324.7802,-453.816"/>
</g>
<!-- [root] provider.azurerm (close)&#45;&gt;[root] azurerm_virtual_machine.vm -->
<g id="edge_49" class="edge">
<title>[root] provider.azurerm (close)&#45;&gt;[root] azurerm_virtual_machine.vm</title>
<path fill="none" stroke="#000000" d="M913.2811,-503.8314C906.8312,-495.5386 899.0677,-485.557 891.9871,-476.4533"/>
<polygon fill="#000000" stroke="#000000" points="894.6359,-474.158 885.7337,-468.4133 889.1104,-478.4556 894.6359,-474.158"/>
</g>
<!-- [root] root -->
<g id="node_37" class="node">
<title>[root] root</title>
<polygon fill="none" stroke="#000000" points="1002.7211,-612 934.1034,-612 934.1034,-576 1002.7211,-576 1002.7211,-612"/>
<text text-anchor="middle" x="968.4123" y="-592.1313" font-family="courier new" font-size="8.00" fill="#000000">[root] root</text>
</g>
<!-- [root] root&#45;&gt;[root] meta.count&#45;boundary (count boundary fixup) -->
<g id="edge_50" class="edge">
<title>[root] root&#45;&gt;[root] meta.count&#45;boundary (count boundary fixup)</title>
<path fill="none" stroke="#000000" d="M995.9176,-575.8314C1009.7303,-566.7074 1026.6379,-555.539 1041.4652,-545.7449"/>
<polygon fill="#000000" stroke="#000000" points="1043.5009,-548.5949 1049.9158,-540.1628 1039.6427,-542.7541 1043.5009,-548.5949"/>
</g>
<!-- [root] root&#45;&gt;[root] provider.azurerm (close) -->
<g id="edge_51" class="edge">
<title>[root] root&#45;&gt;[root] provider.azurerm (close)</title>
<path fill="none" stroke="#000000" d="M958.0662,-575.8314C953.4886,-567.7925 948.0071,-558.1666 942.9534,-549.2918"/>
<polygon fill="#000000" stroke="#000000" points="945.8875,-547.3712 937.8976,-540.4133 939.8046,-550.8351 945.8875,-547.3712"/>
</g>
</g>
</svg>

