<?xml version="1.0" encoding="UTF-8" standalone="no"?>
<!DOCTYPE svg PUBLIC "-//W3C//DTD SVG 1.1//EN"
 "http://www.w3.org/Graphics/SVG/1.1/DTD/svg11.dtd">
<!-- Generated by graphviz version 2.40.1 (20161225.0304)
 -->
<!-- Title: %3 Pages: 1 -->
<svg width="1021pt" height="852pt"
 viewBox="0.00 0.00 1021.23 852.00" xmlns="http://www.w3.org/2000/svg" xmlns:xlink="http://www.w3.org/1999/xlink">
<g id="graph0" class="graph" transform="scale(1 1) rotate(0) translate(4 848)">
<title>%3</title>
<polygon fill="#ffffff" stroke="transparent" points="-4,4 -4,-848 1017.2312,-848 1017.2312,4 -4,4"/>
<g id="clust2" class="cluster">
<title>cluster[root] azurerm_resource_group.rg_var_</title>
</g>
<g id="clust3" class="cluster">
<title>cluster[root] azurerm_storage_account.existing_var_</title>
</g>
<g id="clust4" class="cluster">
<title>cluster[root] azurerm_storage_account.stor_var_</title>
</g>
<g id="clust5" class="cluster">
<title>cluster[root] azurerm_subnet.subnet_var_</title>
</g>
<g id="clust6" class="cluster">
<title>cluster[root] azurerm_virtual_machine.myvm_var_</title>
</g>
<g id="clust7" class="cluster">
<title>cluster[root] azurerm_virtual_machine.transfer_var_</title>
</g>
<g id="clust8" class="cluster">
<title>cluster[root] azurerm_virtual_network.vnet_var_</title>
</g>
<g id="clust9" class="cluster">
<title>cluster[root] meta.count&#45;boundary (count boundary fixup)_var_</title>
</g>
<g id="clust10" class="cluster">
<title>cluster[root] meta.count&#45;boundary (count boundary fixup)_output_[root] azurerm_public_ip.transferpip</title>
</g>
<g id="clust11" class="cluster">
<title>cluster[root] meta.count&#45;boundary (count boundary fixup)_output_[root] var.hostname</title>
</g>
<!-- [root] azurerm_network_interface.mynic -->
<g id="node_0" class="node">
<title>[root] azurerm_network_interface.mynic</title>
<polygon fill="none" stroke="#000000" points="114,-394 114,-409 240,-409 240,-394 114,-394"/>
<text text-anchor="start" x="116.9902" y="-399.6" font-family="courier new" font-size="8.00" fill="#000000">azurerm_network_interface</text>
<polygon fill="none" stroke="#000000" points="114,-379 114,-394 240,-394 240,-379 114,-379"/>
<text text-anchor="start" x="164.998" y="-384.6" font-family="courier new" font-size="8.00" fill="#000000">mynic</text>
</g>
<!-- [root] azurerm_public_ip.mypip -->
<g id="node_2" class="node">
<title>[root] azurerm_public_ip.mypip</title>
<polygon fill="none" stroke="#000000" points="157,-322 157,-337 244,-337 244,-322 157,-322"/>
<text text-anchor="start" x="159.6934" y="-327.6" font-family="courier new" font-size="8.00" fill="#000000">azurerm_public_ip</text>
<polygon fill="none" stroke="#000000" points="157,-307 157,-322 244,-322 244,-307 157,-307"/>
<text text-anchor="start" x="188.498" y="-312.6" font-family="courier new" font-size="8.00" fill="#000000">mypip</text>
</g>
<!-- [root] azurerm_network_interface.mynic&#45;&gt;[root] azurerm_public_ip.mypip -->
<g id="edge_0" class="edge">
<title>[root] azurerm_network_interface.mynic&#45;&gt;[root] azurerm_public_ip.mypip</title>
<path fill="none" stroke="#000000" d="M182.8039,-375.8314C185.2908,-368.0463 188.2531,-358.7729 191.0125,-350.1347"/>
<polygon fill="#000000" stroke="#000000" points="194.409,-351.0041 194.118,-340.4133 187.7409,-348.874 194.409,-351.0041"/>
</g>
<!-- [root] azurerm_subnet.subnet -->
<g id="node_7" class="node">
<title>[root] azurerm_subnet.subnet</title>
<polygon fill="none" stroke="#000000" points="285,-322 285,-337 358,-337 358,-322 285,-322"/>
<text text-anchor="start" x="287.8945" y="-327.6" font-family="courier new" font-size="8.00" fill="#000000">azurerm_subnet</text>
<polygon fill="none" stroke="#000000" points="285,-307 285,-322 358,-322 358,-307 285,-307"/>
<text text-anchor="start" x="307.0977" y="-312.6" font-family="courier new" font-size="8.00" fill="#000000">subnet</text>
</g>
<!-- [root] azurerm_network_interface.mynic&#45;&gt;[root] azurerm_subnet.subnet -->
<g id="edge_1" class="edge">
<title>[root] azurerm_network_interface.mynic&#45;&gt;[root] azurerm_subnet.subnet</title>
<path fill="none" stroke="#000000" d="M213.3373,-375.8314C232.3396,-366.3302 255.7758,-354.6121 275.9252,-344.5374"/>
<polygon fill="#000000" stroke="#000000" points="277.545,-347.6407 284.924,-340.038 274.4145,-341.3797 277.545,-347.6407"/>
</g>
<!-- [root] azurerm_network_interface.transfernic -->
<g id="node_1" class="node">
<title>[root] azurerm_network_interface.transfernic</title>
<polygon fill="none" stroke="#000000" points="258,-394 258,-409 384,-409 384,-394 258,-394"/>
<text text-anchor="start" x="260.9902" y="-399.6" font-family="courier new" font-size="8.00" fill="#000000">azurerm_network_interface</text>
<polygon fill="none" stroke="#000000" points="258,-379 258,-394 384,-394 384,-379 258,-379"/>
<text text-anchor="start" x="294.5957" y="-384.6" font-family="courier new" font-size="8.00" fill="#000000">transfernic</text>
</g>
<!-- [root] azurerm_public_ip.transferpip -->
<g id="node_3" class="node">
<title>[root] azurerm_public_ip.transferpip</title>
<polygon fill="none" stroke="#000000" points="591,-322 591,-337 678,-337 678,-322 591,-322"/>
<text text-anchor="start" x="593.6934" y="-327.6" font-family="courier new" font-size="8.00" fill="#000000">azurerm_public_ip</text>
<polygon fill="none" stroke="#000000" points="591,-307 591,-322 678,-322 678,-307 591,-307"/>
<text text-anchor="start" x="608.0957" y="-312.6" font-family="courier new" font-size="8.00" fill="#000000">transferpip</text>
</g>
<!-- [root] azurerm_network_interface.transfernic&#45;&gt;[root] azurerm_public_ip.transferpip -->
<g id="edge_2" class="edge">
<title>[root] azurerm_network_interface.transfernic&#45;&gt;[root] azurerm_public_ip.transferpip</title>
<path fill="none" stroke="#000000" d="M384.1947,-378.1081C387.1698,-377.3893 390.1164,-376.6834 393,-376 457.2699,-360.7683 531.4546,-344.3151 580.3513,-333.6255"/>
<polygon fill="#000000" stroke="#000000" points="581.3653,-336.9866 590.3888,-331.4344 579.8724,-330.1477 581.3653,-336.9866"/>
</g>
<!-- [root] azurerm_network_interface.transfernic&#45;&gt;[root] azurerm_subnet.subnet -->
<g id="edge_3" class="edge">
<title>[root] azurerm_network_interface.transfernic&#45;&gt;[root] azurerm_subnet.subnet</title>
<path fill="none" stroke="#000000" d="M321,-375.8314C321,-368.131 321,-358.9743 321,-350.4166"/>
<polygon fill="#000000" stroke="#000000" points="324.5001,-350.4132 321,-340.4133 317.5001,-350.4133 324.5001,-350.4132"/>
</g>
<!-- [root] azurerm_resource_group.rg -->
<g id="node_4" class="node">
<title>[root] azurerm_resource_group.rg</title>
<polygon fill="none" stroke="#000000" points="593,-178 593,-193 704,-193 704,-178 593,-178"/>
<text text-anchor="start" x="595.6914" y="-183.6" font-family="courier new" font-size="8.00" fill="#000000">azurerm_resource_group</text>
<polygon fill="none" stroke="#000000" points="593,-163 593,-178 704,-178 704,-163 593,-163"/>
<text text-anchor="start" x="643.6992" y="-168.6" font-family="courier new" font-size="8.00" fill="#000000">rg</text>
</g>
<!-- [root] azurerm_public_ip.mypip&#45;&gt;[root] azurerm_resource_group.rg -->
<g id="edge_4" class="edge">
<title>[root] azurerm_public_ip.mypip&#45;&gt;[root] azurerm_resource_group.rg</title>
<path fill="none" stroke="#000000" d="M208.036,-303.6862C219.2903,-280.5318 242.1234,-241.5738 275,-224 336.0758,-191.3526 518.5801,-219.8321 586,-204 590.9855,-202.8293 596.0832,-201.2961 601.1083,-199.5592"/>
<polygon fill="#000000" stroke="#000000" points="602.4854,-202.7812 610.6337,-196.0094 600.041,-196.2219 602.4854,-202.7812"/>
</g>
<!-- [root] azurerm_public_ip.transferpip&#45;&gt;[root] azurerm_resource_group.rg -->
<g id="edge_5" class="edge">
<title>[root] azurerm_public_ip.transferpip&#45;&gt;[root] azurerm_resource_group.rg</title>
<path fill="none" stroke="#000000" d="M635.7731,-303.7623C638.161,-279.201 642.4343,-235.2474 645.2434,-206.3541"/>
<polygon fill="#000000" stroke="#000000" points="648.7571,-206.3814 646.2413,-196.0896 641.79,-205.704 648.7571,-206.3814"/>
</g>
<!-- [root] provider.azurerm -->
<g id="node_13" class="node">
<title>[root] provider.azurerm</title>
<polygon fill="none" stroke="#000000" points="556,-106 556,-121 600,-121 600,-106 556,-106"/>
<text text-anchor="start" x="558.7969" y="-111.6" font-family="courier new" font-size="8.00" fill="#000000">provider</text>
<polygon fill="none" stroke="#000000" points="556,-91 556,-106 600,-106 600,-91 556,-91"/>
<text text-anchor="start" x="561.1973" y="-96.6" font-family="courier new" font-size="8.00" fill="#000000">azurerm</text>
</g>
<!-- [root] azurerm_resource_group.rg&#45;&gt;[root] provider.azurerm -->
<g id="edge_6" class="edge">
<title>[root] azurerm_resource_group.rg&#45;&gt;[root] provider.azurerm</title>
<path fill="none" stroke="#000000" d="M630.336,-159.8314C622.0268,-151.2848 611.9736,-140.9443 602.9082,-131.6198"/>
<polygon fill="#000000" stroke="#000000" points="605.3821,-129.1435 595.9018,-124.4133 600.3631,-134.023 605.3821,-129.1435"/>
</g>
<!-- [root] var.location -->
<g id="node_14" class="node">
<title>[root] var.location</title>
<polygon fill="none" stroke="#000000" points="632,-106 632,-121 676,-121 676,-106 632,-106"/>
<text text-anchor="start" x="646.7988" y="-111.6" font-family="courier new" font-size="8.00" fill="#000000">var</text>
<polygon fill="none" stroke="#000000" points="632,-91 632,-106 676,-106 676,-91 632,-91"/>
<text text-anchor="start" x="634.7969" y="-96.6" font-family="courier new" font-size="8.00" fill="#000000">location</text>
</g>
<!-- [root] azurerm_resource_group.rg&#45;&gt;[root] var.location -->
<g id="edge_7" class="edge">
<title>[root] azurerm_resource_group.rg&#45;&gt;[root] var.location</title>
<path fill="none" stroke="#000000" d="M649.5141,-159.8314C650.1558,-152.131 650.9188,-142.9743 651.6319,-134.4166"/>
<polygon fill="#000000" stroke="#000000" points="655.1229,-134.6694 652.4656,-124.4133 648.1471,-134.088 655.1229,-134.6694"/>
</g>
<!-- [root] azurerm_storage_account.existing -->
<g id="node_5" class="node">
<title>[root] azurerm_storage_account.existing</title>
<polygon fill="none" stroke="#000000" points="528,-466 528,-481 644,-481 644,-466 528,-466"/>
<text text-anchor="start" x="530.791" y="-471.6" font-family="courier new" font-size="8.00" fill="#000000">azurerm_storage_account</text>
<polygon fill="none" stroke="#000000" points="528,-451 528,-466 644,-466 644,-451 528,-451"/>
<text text-anchor="start" x="566.7969" y="-456.6" font-family="courier new" font-size="8.00" fill="#000000">existing</text>
</g>
<!-- [root] azurerm_storage_account.existing&#45;&gt;[root] azurerm_resource_group.rg -->
<g id="edge_9" class="edge">
<title>[root] azurerm_storage_account.existing&#45;&gt;[root] azurerm_resource_group.rg</title>
<path fill="none" stroke="#000000" d="M630.4157,-447.982C639.4237,-444.8923 648.9209,-442.029 658,-440 704.613,-429.5831 839.8363,-455.3098 872,-420 909.1121,-379.2578 900.4751,-343.1848 872,-296 862.0091,-279.4446 759.9181,-229.8962 697.0611,-200.5337"/>
<polygon fill="#000000" stroke="#000000" points="698.2517,-197.2272 687.7089,-196.1785 695.2966,-203.5729 698.2517,-197.2272"/>
</g>
<!-- [root] var.existing_resource_group -->
<g id="node_16" class="node">
<title>[root] var.existing_resource_group</title>
<polygon fill="none" stroke="#000000" points="526,-394 526,-409 642,-409 642,-394 526,-394"/>
<text text-anchor="start" x="576.7988" y="-399.6" font-family="courier new" font-size="8.00" fill="#000000">var</text>
<polygon fill="none" stroke="#000000" points="526,-379 526,-394 642,-394 642,-379 526,-379"/>
<text text-anchor="start" x="528.791" y="-384.6" font-family="courier new" font-size="8.00" fill="#000000">existing_resource_group</text>
</g>
<!-- [root] azurerm_storage_account.existing&#45;&gt;[root] var.existing_resource_group -->
<g id="edge_10" class="edge">
<title>[root] azurerm_storage_account.existing&#45;&gt;[root] var.existing_resource_group</title>
<path fill="none" stroke="#000000" d="M585.4953,-447.8314C585.2814,-440.131 585.0271,-430.9743 584.7894,-422.4166"/>
<polygon fill="#000000" stroke="#000000" points="588.2879,-422.3122 584.5115,-412.4133 581.2906,-422.5066 588.2879,-422.3122"/>
</g>
<!-- [root] var.existing_storage_acct -->
<g id="node_17" class="node">
<title>[root] var.existing_storage_acct</title>
<polygon fill="none" stroke="#000000" points="402,-394 402,-409 508,-409 508,-394 402,-394"/>
<text text-anchor="start" x="447.7988" y="-399.6" font-family="courier new" font-size="8.00" fill="#000000">var</text>
<polygon fill="none" stroke="#000000" points="402,-379 402,-394 508,-394 508,-379 402,-379"/>
<text text-anchor="start" x="404.5918" y="-384.6" font-family="courier new" font-size="8.00" fill="#000000">existing_storage_acct</text>
</g>
<!-- [root] azurerm_storage_account.existing&#45;&gt;[root] var.existing_storage_acct -->
<g id="edge_11" class="edge">
<title>[root] azurerm_storage_account.existing&#45;&gt;[root] var.existing_storage_acct</title>
<path fill="none" stroke="#000000" d="M552.9432,-447.8314C536.0323,-438.5368 515.2615,-427.1208 497.2059,-417.1971"/>
<polygon fill="#000000" stroke="#000000" points="498.4957,-413.9122 488.0463,-412.1628 495.124,-420.0468 498.4957,-413.9122"/>
</g>
<!-- [root] var.storage_existing_account_tier -->
<g id="node_18" class="node">
<title>[root] var.storage_existing_account_tier</title>
<polygon fill="none" stroke="#000000" points="702,-394 702,-409 847,-409 847,-394 702,-394"/>
<text text-anchor="start" x="767.2988" y="-399.6" font-family="courier new" font-size="8.00" fill="#000000">var</text>
<polygon fill="none" stroke="#000000" points="702,-379 702,-394 847,-394 847,-379 702,-379"/>
<text text-anchor="start" x="704.8887" y="-384.6" font-family="courier new" font-size="8.00" fill="#000000">storage_existing_account_tier</text>
</g>
<!-- [root] azurerm_storage_account.existing&#45;&gt;[root] var.storage_existing_account_tier -->
<g id="edge_12" class="edge">
<title>[root] azurerm_storage_account.existing&#45;&gt;[root] var.storage_existing_account_tier</title>
<path fill="none" stroke="#000000" d="M633.4403,-447.8314C658.9195,-438.0734 690.5044,-425.977 717.2757,-415.7242"/>
<polygon fill="#000000" stroke="#000000" points="718.814,-418.883 726.9008,-412.038 716.3104,-412.346 718.814,-418.883"/>
</g>
<!-- [root] azurerm_storage_account.stor -->
<g id="node_6" class="node">
<title>[root] azurerm_storage_account.stor</title>
<polygon fill="none" stroke="#000000" points="868,-250 868,-265 984,-265 984,-250 868,-250"/>
<text text-anchor="start" x="870.791" y="-255.6" font-family="courier new" font-size="8.00" fill="#000000">azurerm_storage_account</text>
<polygon fill="none" stroke="#000000" points="868,-235 868,-250 984,-250 984,-235 868,-235"/>
<text text-anchor="start" x="916.3984" y="-240.6" font-family="courier new" font-size="8.00" fill="#000000">stor</text>
</g>
<!-- [root] azurerm_storage_account.stor&#45;&gt;[root] azurerm_resource_group.rg -->
<g id="edge_14" class="edge">
<title>[root] azurerm_storage_account.stor&#45;&gt;[root] azurerm_resource_group.rg</title>
<path fill="none" stroke="#000000" d="M880.3419,-231.9312C871.6894,-228.96 862.6401,-226.153 854,-224 793.0111,-208.8021 774.7642,-220.0725 714,-204 709.0665,-202.6951 704.0009,-201.1314 698.9752,-199.4268"/>
<polygon fill="#000000" stroke="#000000" points="699.9996,-196.0762 689.4049,-196.0065 697.6437,-202.6679 699.9996,-196.0762"/>
</g>
<!-- [root] var.hostname -->
<g id="node_20" class="node">
<title>[root] var.hostname</title>
<polygon fill="none" stroke="#000000" points="907,-178 907,-193 951,-193 951,-178 907,-178"/>
<text text-anchor="start" x="921.7988" y="-183.6" font-family="courier new" font-size="8.00" fill="#000000">var</text>
<polygon fill="none" stroke="#000000" points="907,-163 907,-178 951,-178 951,-163 907,-163"/>
<text text-anchor="start" x="909.7969" y="-168.6" font-family="courier new" font-size="8.00" fill="#000000">hostname</text>
</g>
<!-- [root] azurerm_storage_account.stor&#45;&gt;[root] var.hostname -->
<g id="edge_15" class="edge">
<title>[root] azurerm_storage_account.stor&#45;&gt;[root] var.hostname</title>
<path fill="none" stroke="#000000" d="M926.757,-231.8314C927.0779,-224.131 927.4594,-214.9743 927.816,-206.4166"/>
<polygon fill="#000000" stroke="#000000" points="931.3133,-206.5503 928.2328,-196.4133 924.3194,-206.2589 931.3133,-206.5503"/>
</g>
<!-- [root] var.storage_machine_account_tier -->
<g id="node_21" class="node">
<title>[root] var.storage_machine_account_tier</title>
<polygon fill="none" stroke="#000000" points="740,-178 740,-193 880,-193 880,-178 740,-178"/>
<text text-anchor="start" x="802.7988" y="-183.6" font-family="courier new" font-size="8.00" fill="#000000">var</text>
<polygon fill="none" stroke="#000000" points="740,-163 740,-178 880,-178 880,-163 740,-163"/>
<text text-anchor="start" x="742.7891" y="-168.6" font-family="courier new" font-size="8.00" fill="#000000">storage_machine_account_tier</text>
</g>
<!-- [root] azurerm_storage_account.stor&#45;&gt;[root] var.storage_machine_account_tier -->
<g id="edge_16" class="edge">
<title>[root] azurerm_storage_account.stor&#45;&gt;[root] var.storage_machine_account_tier</title>
<path fill="none" stroke="#000000" d="M896.7283,-231.8314C881.8912,-222.6221 863.6985,-211.3301 847.8138,-201.4706"/>
<polygon fill="#000000" stroke="#000000" points="849.6045,-198.4628 839.2623,-196.1628 845.913,-204.4102 849.6045,-198.4628"/>
</g>
<!-- [root] azurerm_virtual_network.vnet -->
<g id="node_12" class="node">
<title>[root] azurerm_virtual_network.vnet</title>
<polygon fill="none" stroke="#000000" points="492,-250 492,-265 608,-265 608,-250 492,-250"/>
<text text-anchor="start" x="494.791" y="-255.6" font-family="courier new" font-size="8.00" fill="#000000">azurerm_virtual_network</text>
<polygon fill="none" stroke="#000000" points="492,-235 492,-250 608,-250 608,-235 492,-235"/>
<text text-anchor="start" x="540.3984" y="-240.6" font-family="courier new" font-size="8.00" fill="#000000">vnet</text>
</g>
<!-- [root] azurerm_subnet.subnet&#45;&gt;[root] azurerm_virtual_network.vnet -->
<g id="edge_18" class="edge">
<title>[root] azurerm_subnet.subnet&#45;&gt;[root] azurerm_virtual_network.vnet</title>
<path fill="none" stroke="#000000" d="M357.5389,-310.5118C391.2071,-299.9262 442.0018,-283.9558 482.9555,-271.0795"/>
<polygon fill="#000000" stroke="#000000" points="484.1117,-274.385 492.6015,-268.0467 482.0121,-267.7072 484.1117,-274.385"/>
</g>
<!-- [root] var.subnet_prefix -->
<g id="node_23" class="node">
<title>[root] var.subnet_prefix</title>
<polygon fill="none" stroke="#000000" points="287,-250 287,-265 355,-265 355,-250 287,-250"/>
<text text-anchor="start" x="313.7988" y="-255.6" font-family="courier new" font-size="8.00" fill="#000000">var</text>
<polygon fill="none" stroke="#000000" points="287,-235 287,-250 355,-250 355,-235 287,-235"/>
<text text-anchor="start" x="289.7949" y="-240.6" font-family="courier new" font-size="8.00" fill="#000000">subnet_prefix</text>
</g>
<!-- [root] azurerm_subnet.subnet&#45;&gt;[root] var.subnet_prefix -->
<g id="edge_19" class="edge">
<title>[root] azurerm_subnet.subnet&#45;&gt;[root] var.subnet_prefix</title>
<path fill="none" stroke="#000000" d="M321,-303.8314C321,-296.131 321,-286.9743 321,-278.4166"/>
<polygon fill="#000000" stroke="#000000" points="324.5001,-278.4132 321,-268.4133 317.5001,-278.4133 324.5001,-278.4132"/>
</g>
<!-- [root] azurerm_virtual_machine.myvm -->
<g id="node_8" class="node">
<title>[root] azurerm_virtual_machine.myvm</title>
<polygon fill="none" stroke="#000000" points="535,-682 535,-697 651,-697 651,-682 535,-682"/>
<text text-anchor="start" x="537.791" y="-687.6" font-family="courier new" font-size="8.00" fill="#000000">azurerm_virtual_machine</text>
<polygon fill="none" stroke="#000000" points="535,-667 535,-682 651,-682 651,-667 535,-667"/>
<text text-anchor="start" x="583.3984" y="-672.6" font-family="courier new" font-size="8.00" fill="#000000">myvm</text>
</g>
<!-- [root] azurerm_virtual_machine.myvm&#45;&gt;[root] azurerm_network_interface.mynic -->
<g id="edge_20" class="edge">
<title>[root] azurerm_virtual_machine.myvm&#45;&gt;[root] azurerm_network_interface.mynic</title>
<path fill="none" stroke="#000000" d="M534.9868,-679.8809C456.8785,-675.9456 323.2625,-665.066 285,-636 214.8836,-582.7362 189.2433,-473.8561 180.767,-422.2875"/>
<polygon fill="#000000" stroke="#000000" points="184.1936,-421.5428 179.2089,-412.1939 177.2755,-422.6108 184.1936,-421.5428"/>
</g>
<!-- [root] azurerm_virtual_machine_extension.execute -->
<g id="node_10" class="node">
<title>[root] azurerm_virtual_machine_extension.execute</title>
<polygon fill="none" stroke="#000000" points="511,-610 511,-625 675,-625 675,-610 511,-610"/>
<text text-anchor="start" x="513.7871" y="-615.6" font-family="courier new" font-size="8.00" fill="#000000">azurerm_virtual_machine_extension</text>
<polygon fill="none" stroke="#000000" points="511,-595 511,-610 675,-610 675,-595 511,-595"/>
<text text-anchor="start" x="576.1973" y="-600.6" font-family="courier new" font-size="8.00" fill="#000000">execute</text>
</g>
<!-- [root] azurerm_virtual_machine.myvm&#45;&gt;[root] azurerm_virtual_machine_extension.execute -->
<g id="edge_21" class="edge">
<title>[root] azurerm_virtual_machine.myvm&#45;&gt;[root] azurerm_virtual_machine_extension.execute</title>
<path fill="none" stroke="#000000" d="M593,-663.8314C593,-656.131 593,-646.9743 593,-638.4166"/>
<polygon fill="#000000" stroke="#000000" points="596.5001,-638.4132 593,-628.4133 589.5001,-638.4133 596.5001,-638.4132"/>
</g>
<!-- [root] var.custom_image_name -->
<g id="node_24" class="node">
<title>[root] var.custom_image_name</title>
<polygon fill="none" stroke="#000000" points="298,-610 298,-625 385,-625 385,-610 298,-610"/>
<text text-anchor="start" x="334.2988" y="-615.6" font-family="courier new" font-size="8.00" fill="#000000">var</text>
<polygon fill="none" stroke="#000000" points="298,-595 298,-610 385,-610 385,-595 298,-595"/>
<text text-anchor="start" x="300.6934" y="-600.6" font-family="courier new" font-size="8.00" fill="#000000">custom_image_name</text>
</g>
<!-- [root] azurerm_virtual_machine.myvm&#45;&gt;[root] var.custom_image_name -->
<g id="edge_22" class="edge">
<title>[root] azurerm_virtual_machine.myvm&#45;&gt;[root] var.custom_image_name</title>
<path fill="none" stroke="#000000" d="M534.8697,-665.3913C492.5706,-653.3059 435.7259,-637.0645 394.5348,-625.2956"/>
<polygon fill="#000000" stroke="#000000" points="395.2588,-621.8625 384.682,-622.4806 393.3357,-628.5932 395.2588,-621.8625"/>
</g>
<!-- [root] azurerm_virtual_machine.transfer -->
<g id="node_9" class="node">
<title>[root] azurerm_virtual_machine.transfer</title>
<polygon fill="none" stroke="#000000" points="394,-466 394,-481 510,-481 510,-466 394,-466"/>
<text text-anchor="start" x="396.791" y="-471.6" font-family="courier new" font-size="8.00" fill="#000000">azurerm_virtual_machine</text>
<polygon fill="none" stroke="#000000" points="394,-451 394,-466 510,-466 510,-451 394,-451"/>
<text text-anchor="start" x="432.7969" y="-456.6" font-family="courier new" font-size="8.00" fill="#000000">transfer</text>
</g>
<!-- [root] azurerm_virtual_machine.transfer&#45;&gt;[root] azurerm_network_interface.transfernic -->
<g id="edge_24" class="edge">
<title>[root] azurerm_virtual_machine.transfer&#45;&gt;[root] azurerm_network_interface.transfernic</title>
<path fill="none" stroke="#000000" d="M418.9432,-447.8314C402.0323,-438.5368 381.2615,-427.1208 363.2059,-417.1971"/>
<polygon fill="#000000" stroke="#000000" points="364.4957,-413.9122 354.0463,-412.1628 361.124,-420.0468 364.4957,-413.9122"/>
</g>
<!-- [root] azurerm_virtual_machine.transfer&#45;&gt;[root] var.existing_resource_group -->
<g id="edge_27" class="edge">
<title>[root] azurerm_virtual_machine.transfer&#45;&gt;[root] var.existing_resource_group</title>
<path fill="none" stroke="#000000" d="M485.3092,-447.8314C502.4273,-438.4942 523.4706,-427.016 541.7222,-417.0606"/>
<polygon fill="#000000" stroke="#000000" points="543.5985,-420.024 550.7015,-412.1628 540.2465,-413.8788 543.5985,-420.024"/>
</g>
<!-- [root] azurerm_virtual_machine.transfer&#45;&gt;[root] var.existing_storage_acct -->
<g id="edge_28" class="edge">
<title>[root] azurerm_virtual_machine.transfer&#45;&gt;[root] var.existing_storage_acct</title>
<path fill="none" stroke="#000000" d="M452.757,-447.8314C453.0779,-440.131 453.4594,-430.9743 453.816,-422.4166"/>
<polygon fill="#000000" stroke="#000000" points="457.3133,-422.5503 454.2328,-412.4133 450.3194,-422.2589 457.3133,-422.5503"/>
</g>
<!-- [root] var.admin_password -->
<g id="node_26" class="node">
<title>[root] var.admin_password</title>
<polygon fill="none" stroke="#000000" points="22,-394 22,-409 95,-409 95,-394 22,-394"/>
<text text-anchor="start" x="51.2988" y="-399.6" font-family="courier new" font-size="8.00" fill="#000000">var</text>
<polygon fill="none" stroke="#000000" points="22,-379 22,-394 95,-394 95,-379 22,-379"/>
<text text-anchor="start" x="24.8945" y="-384.6" font-family="courier new" font-size="8.00" fill="#000000">admin_password</text>
</g>
<!-- [root] azurerm_virtual_machine.transfer&#45;&gt;[root] var.admin_password -->
<g id="edge_25" class="edge">
<title>[root] azurerm_virtual_machine.transfer&#45;&gt;[root] var.admin_password</title>
<path fill="none" stroke="#000000" d="M393.8999,-460.9362C309.4862,-453.1312 157.3023,-437.2479 105,-420 102.0402,-419.0239 99.0521,-417.8596 96.0936,-416.5727"/>
<polygon fill="#000000" stroke="#000000" points="97.3463,-413.2919 86.8158,-412.126 94.3208,-419.6043 97.3463,-413.2919"/>
</g>
<!-- [root] azurerm_virtual_machine_extension.execute&#45;&gt;[root] azurerm_storage_account.existing -->
<g id="edge_33" class="edge">
<title>[root] azurerm_virtual_machine_extension.execute&#45;&gt;[root] azurerm_storage_account.existing</title>
<path fill="none" stroke="#000000" d="M592.1134,-591.7623C590.9195,-567.201 588.7829,-523.2474 587.3783,-494.3541"/>
<polygon fill="#000000" stroke="#000000" points="590.8609,-493.9079 586.8794,-484.0896 583.8691,-494.2478 590.8609,-493.9079"/>
</g>
<!-- [root] azurerm_virtual_machine_extension.execute&#45;&gt;[root] azurerm_storage_account.stor -->
<g id="edge_34" class="edge">
<title>[root] azurerm_virtual_machine_extension.execute&#45;&gt;[root] azurerm_storage_account.stor</title>
<path fill="none" stroke="#000000" d="M604.9903,-591.9843C630.0446,-556.0138 691.8177,-475.6934 766,-440 819.0729,-414.4636 854.9917,-461.2812 897,-420 934.6093,-383.0417 934.197,-316.4775 930.2774,-278.5336"/>
<polygon fill="#000000" stroke="#000000" points="933.7038,-277.7064 929.0473,-268.1897 926.7527,-278.5331 933.7038,-277.7064"/>
</g>
<!-- [root] azurerm_virtual_machine_extension.script -->
<g id="node_11" class="node">
<title>[root] azurerm_virtual_machine_extension.script</title>
<polygon fill="none" stroke="#000000" points="401,-538 401,-553 565,-553 565,-538 401,-538"/>
<text text-anchor="start" x="403.7871" y="-543.6" font-family="courier new" font-size="8.00" fill="#000000">azurerm_virtual_machine_extension</text>
<polygon fill="none" stroke="#000000" points="401,-523 401,-538 565,-538 565,-523 401,-523"/>
<text text-anchor="start" x="468.5977" y="-528.6" font-family="courier new" font-size="8.00" fill="#000000">script</text>
</g>
<!-- [root] azurerm_virtual_machine_extension.execute&#45;&gt;[root] azurerm_virtual_machine_extension.script -->
<g id="edge_35" class="edge">
<title>[root] azurerm_virtual_machine_extension.execute&#45;&gt;[root] azurerm_virtual_machine_extension.script</title>
<path fill="none" stroke="#000000" d="M565.2424,-591.8314C551.303,-582.7074 534.2402,-571.539 519.2769,-561.7449"/>
<polygon fill="#000000" stroke="#000000" points="521.0326,-558.711 510.7488,-556.1628 517.199,-564.5679 521.0326,-558.711"/>
</g>
<!-- [root] azurerm_virtual_machine_extension.script&#45;&gt;[root] azurerm_virtual_machine.transfer -->
<g id="edge_36" class="edge">
<title>[root] azurerm_virtual_machine_extension.script&#45;&gt;[root] azurerm_virtual_machine.transfer</title>
<path fill="none" stroke="#000000" d="M475.1774,-519.8314C471.7891,-511.9617 467.7459,-502.5712 463.9924,-493.8533"/>
<polygon fill="#000000" stroke="#000000" points="467.0973,-492.214 459.9279,-484.4133 460.6679,-494.9822 467.0973,-492.214"/>
</g>
<!-- [root] azurerm_virtual_network.vnet&#45;&gt;[root] azurerm_resource_group.rg -->
<g id="edge_37" class="edge">
<title>[root] azurerm_virtual_network.vnet&#45;&gt;[root] azurerm_resource_group.rg</title>
<path fill="none" stroke="#000000" d="M574.7295,-231.8314C586.9162,-222.8779 601.7823,-211.9558 614.9312,-202.2955"/>
<polygon fill="#000000" stroke="#000000" points="617.2918,-204.9042 623.2784,-196.1628 613.1473,-199.263 617.2918,-204.9042"/>
</g>
<!-- [root] azurerm_virtual_network.vnet&#45;&gt;[root] var.hostname -->
<g id="edge_39" class="edge">
<title>[root] azurerm_virtual_network.vnet&#45;&gt;[root] var.hostname</title>
<path fill="none" stroke="#000000" d="M608.0505,-246.2666C693.1896,-240.1288 847.3122,-226.312 898,-204 899.4063,-203.3809 900.7987,-202.6779 902.1692,-201.9096"/>
<polygon fill="#000000" stroke="#000000" points="904.4698,-204.5802 910.8129,-196.094 900.5622,-198.7724 904.4698,-204.5802"/>
</g>
<!-- [root] var.address_space -->
<g id="node_32" class="node">
<title>[root] var.address_space</title>
<polygon fill="none" stroke="#000000" points="506,-178 506,-193 574,-193 574,-178 506,-178"/>
<text text-anchor="start" x="532.7988" y="-183.6" font-family="courier new" font-size="8.00" fill="#000000">var</text>
<polygon fill="none" stroke="#000000" points="506,-163 506,-178 574,-178 574,-163 506,-163"/>
<text text-anchor="start" x="508.7949" y="-168.6" font-family="courier new" font-size="8.00" fill="#000000">address_space</text>
</g>
<!-- [root] azurerm_virtual_network.vnet&#45;&gt;[root] var.address_space -->
<g id="edge_38" class="edge">
<title>[root] azurerm_virtual_network.vnet&#45;&gt;[root] var.address_space</title>
<path fill="none" stroke="#000000" d="M547.4766,-231.8314C546.4071,-224.131 545.1353,-214.9743 543.9468,-206.4166"/>
<polygon fill="#000000" stroke="#000000" points="547.3999,-205.8367 542.5574,-196.4133 540.4664,-206.7997 547.3999,-205.8367"/>
</g>
<!-- [root] meta.count&#45;boundary (count boundary fixup) -->
<g id="node_33" class="node">
<title>[root] meta.count&#45;boundary (count boundary fixup)</title>
<polygon fill="none" stroke="#000000" points="691,-754 691,-769 764,-769 764,-754 691,-754"/>
<text text-anchor="start" x="717.8984" y="-759.6" font-family="courier new" font-size="8.00" fill="#000000">meta</text>
<polygon fill="none" stroke="#000000" points="691,-739 691,-754 764,-754 764,-739 691,-739"/>
<text text-anchor="start" x="693.8945" y="-744.6" font-family="courier new" font-size="8.00" fill="#000000">count&#45;boundary</text>
</g>
<!-- [root] meta.count&#45;boundary (count boundary fixup)&#45;&gt;[root] azurerm_virtual_machine.myvm -->
<g id="edge_40" class="edge">
<title>[root] meta.count&#45;boundary (count boundary fixup)&#45;&gt;[root] azurerm_virtual_machine.myvm</title>
<path fill="none" stroke="#000000" d="M693.1861,-735.8314C675.7293,-726.4516 654.2513,-714.9112 635.6648,-704.9244"/>
<polygon fill="#000000" stroke="#000000" points="637.2686,-701.8129 626.803,-700.1628 633.9554,-707.9792 637.2686,-701.8129"/>
</g>
<!-- [root] var.image_offer -->
<g id="node_38" class="node">
<title>[root] var.image_offer</title>
<polygon fill="none" stroke="#000000" points="783,-682 783,-697 841,-697 841,-682 783,-682"/>
<text text-anchor="start" x="804.7988" y="-687.6" font-family="courier new" font-size="8.00" fill="#000000">var</text>
<polygon fill="none" stroke="#000000" points="783,-667 783,-682 841,-682 841,-667 783,-667"/>
<text text-anchor="start" x="785.5957" y="-672.6" font-family="courier new" font-size="8.00" fill="#000000">image_offer</text>
</g>
<!-- [root] meta.count&#45;boundary (count boundary fixup)&#45;&gt;[root] var.image_offer -->
<g id="edge_45" class="edge">
<title>[root] meta.count&#45;boundary (count boundary fixup)&#45;&gt;[root] var.image_offer</title>
<path fill="none" stroke="#000000" d="M748.4491,-735.8314C758.8178,-727.0485 771.4229,-716.3712 782.6646,-706.8489"/>
<polygon fill="#000000" stroke="#000000" points="785.1895,-709.297 790.5578,-700.1628 780.6651,-703.9556 785.1895,-709.297"/>
</g>
<!-- [root] output.fqdn -->
<g id="node_34" class="node">
<title>[root] output.fqdn</title>
<polygon fill="none" stroke="#000000" points="710,-682 710,-697 744,-697 744,-682 710,-682"/>
<text text-anchor="start" x="712.5977" y="-687.6" font-family="courier new" font-size="8.00" fill="#000000">output</text>
<polygon fill="none" stroke="#000000" points="710,-667 710,-682 744,-682 744,-667 710,-667"/>
<text text-anchor="start" x="717.3984" y="-672.6" font-family="courier new" font-size="8.00" fill="#000000">fqdn</text>
</g>
<!-- [root] meta.count&#45;boundary (count boundary fixup)&#45;&gt;[root] output.fqdn -->
<g id="edge_41" class="edge">
<title>[root] meta.count&#45;boundary (count boundary fixup)&#45;&gt;[root] output.fqdn</title>
<path fill="none" stroke="#000000" d="M727,-735.8314C727,-728.131 727,-718.9743 727,-710.4166"/>
<polygon fill="#000000" stroke="#000000" points="730.5001,-710.4132 727,-700.4133 723.5001,-710.4133 730.5001,-710.4132"/>
</g>
<!-- [root] output.hostname -->
<g id="node_35" class="node">
<title>[root] output.hostname</title>
<polygon fill="none" stroke="#000000" points="938,-682 938,-697 982,-697 982,-682 938,-682"/>
<text text-anchor="start" x="945.5977" y="-687.6" font-family="courier new" font-size="8.00" fill="#000000">output</text>
<polygon fill="none" stroke="#000000" points="938,-667 938,-682 982,-682 982,-667 938,-667"/>
<text text-anchor="start" x="940.7969" y="-672.6" font-family="courier new" font-size="8.00" fill="#000000">hostname</text>
</g>
<!-- [root] meta.count&#45;boundary (count boundary fixup)&#45;&gt;[root] output.hostname -->
<g id="edge_42" class="edge">
<title>[root] meta.count&#45;boundary (count boundary fixup)&#45;&gt;[root] output.hostname</title>
<path fill="none" stroke="#000000" d="M763.6626,-742.6708C807.297,-729.1872 879.7225,-706.8068 923.351,-693.325"/>
<polygon fill="#000000" stroke="#000000" points="924.474,-696.6414 932.9949,-690.3449 922.4073,-689.9534 924.474,-696.6414"/>
</g>
<!-- [root] provider.azurerm (close) -->
<g id="node_42" class="node">
<title>[root] provider.azurerm (close)</title>
<polygon fill="none" stroke="#000000" points="593,-754 593,-769 637,-769 637,-754 593,-754"/>
<text text-anchor="start" x="595.7969" y="-759.6" font-family="courier new" font-size="8.00" fill="#000000">provider</text>
<polygon fill="none" stroke="#000000" points="593,-739 593,-754 637,-754 637,-739 593,-739"/>
<text text-anchor="start" x="598.1973" y="-744.6" font-family="courier new" font-size="8.00" fill="#000000">azurerm</text>
</g>
<!-- [root] provider.azurerm (close)&#45;&gt;[root] azurerm_virtual_machine.myvm -->
<g id="edge_53" class="edge">
<title>[root] provider.azurerm (close)&#45;&gt;[root] azurerm_virtual_machine.myvm</title>
<path fill="none" stroke="#000000" d="M609.4485,-735.8314C607.0697,-728.0463 604.2362,-718.7729 601.5967,-710.1347"/>
<polygon fill="#000000" stroke="#000000" points="604.8958,-708.954 598.6263,-700.4133 598.2013,-710.9996 604.8958,-708.954"/>
</g>
<!-- [root] root -->
<g id="node_43" class="node">
<title>[root] root</title>
<polygon fill="none" stroke="#000000" points="701.3089,-844 632.6911,-844 632.6911,-808 701.3089,-808 701.3089,-844"/>
<text text-anchor="middle" x="667" y="-824.1313" font-family="courier new" font-size="8.00" fill="#000000">[root] root</text>
</g>
<!-- [root] root&#45;&gt;[root] meta.count&#45;boundary (count boundary fixup) -->
<g id="edge_54" class="edge">
<title>[root] root&#45;&gt;[root] meta.count&#45;boundary (count boundary fixup)</title>
<path fill="none" stroke="#000000" d="M682.1405,-807.8314C689.1217,-799.454 697.5391,-789.3531 705.1876,-780.1749"/>
<polygon fill="#000000" stroke="#000000" points="707.9425,-782.3362 711.6556,-772.4133 702.5649,-777.8548 707.9425,-782.3362"/>
</g>
<!-- [root] root&#45;&gt;[root] provider.azurerm (close) -->
<g id="edge_55" class="edge">
<title>[root] root&#45;&gt;[root] provider.azurerm (close)</title>
<path fill="none" stroke="#000000" d="M653.8782,-807.8314C647.9501,-799.6232 640.8271,-789.7606 634.3067,-780.7323"/>
<polygon fill="#000000" stroke="#000000" points="636.9908,-778.4708 628.2985,-772.4133 631.316,-782.5693 636.9908,-778.4708"/>
</g>
<!-- [root] var.resource_group -->
<g id="node_15" class="node">
<title>[root] var.resource_group</title>
<polygon fill="none" stroke="#000000" points="622,-34 622,-49 695,-49 695,-34 622,-34"/>
<text text-anchor="start" x="651.2988" y="-39.6" font-family="courier new" font-size="8.00" fill="#000000">var</text>
<polygon fill="none" stroke="#000000" points="622,-19 622,-34 695,-34 695,-19 622,-19"/>
<text text-anchor="start" x="624.8945" y="-24.6" font-family="courier new" font-size="8.00" fill="#000000">resource_group</text>
</g>
<!-- [root] var.location&#45;&gt;[root] var.resource_group -->
<g id="edge_56" class="edge">
<title>[root] var.location&#45;&gt;[root] var.resource_group</title>
<path fill="none" stroke="#000000" stroke-dasharray="5,2" d="M655.0094,-87.8314C655.6111,-77 656.3729,-63.2876 656.977,-52.4133"/>
</g>
<!-- [root] var.storage_existing_replication_type -->
<g id="node_19" class="node">
<title>[root] var.storage_existing_replication_type</title>
<polygon fill="none" stroke="#000000" points="696,-322 696,-337 860,-337 860,-322 696,-322"/>
<text text-anchor="start" x="770.7988" y="-327.6" font-family="courier new" font-size="8.00" fill="#000000">var</text>
<polygon fill="none" stroke="#000000" points="696,-307 696,-322 860,-322 860,-307 696,-307"/>
<text text-anchor="start" x="698.7871" y="-312.6" font-family="courier new" font-size="8.00" fill="#000000">storage_existing_replication_type</text>
</g>
<!-- [root] var.storage_existing_account_tier&#45;&gt;[root] var.storage_existing_replication_type -->
<g id="edge_57" class="edge">
<title>[root] var.storage_existing_account_tier&#45;&gt;[root] var.storage_existing_replication_type</title>
<path fill="none" stroke="#000000" stroke-dasharray="5,2" d="M775.0094,-375.8314C775.6111,-365 776.3729,-351.2876 776.977,-340.4133"/>
</g>
<!-- [root] var.storage_machine_replication_type -->
<g id="node_22" class="node">
<title>[root] var.storage_machine_replication_type</title>
<polygon fill="none" stroke="#000000" points="727,-106 727,-121 886,-121 886,-106 727,-106"/>
<text text-anchor="start" x="799.2988" y="-111.6" font-family="courier new" font-size="8.00" fill="#000000">var</text>
<polygon fill="none" stroke="#000000" points="727,-91 727,-106 886,-106 886,-91 727,-91"/>
<text text-anchor="start" x="729.6875" y="-96.6" font-family="courier new" font-size="8.00" fill="#000000">storage_machine_replication_type</text>
</g>
<!-- [root] var.storage_machine_account_tier&#45;&gt;[root] var.storage_machine_replication_type -->
<g id="edge_58" class="edge">
<title>[root] var.storage_machine_account_tier&#45;&gt;[root] var.storage_machine_replication_type</title>
<path fill="none" stroke="#000000" stroke-dasharray="5,2" d="M808.9906,-159.8314C808.3889,-149 807.6271,-135.2876 807.023,-124.4133"/>
</g>
<!-- [root] var.new_vm_name -->
<g id="node_25" class="node">
<title>[root] var.new_vm_name</title>
<polygon fill="none" stroke="#000000" points="312,-538 312,-553 370,-553 370,-538 312,-538"/>
<text text-anchor="start" x="333.7988" y="-543.6" font-family="courier new" font-size="8.00" fill="#000000">var</text>
<polygon fill="none" stroke="#000000" points="312,-523 312,-538 370,-538 370,-523 312,-523"/>
<text text-anchor="start" x="314.5957" y="-528.6" font-family="courier new" font-size="8.00" fill="#000000">new_vm_name</text>
</g>
<!-- [root] var.custom_image_name&#45;&gt;[root] var.new_vm_name -->
<g id="edge_59" class="edge">
<title>[root] var.custom_image_name&#45;&gt;[root] var.new_vm_name</title>
<path fill="none" stroke="#000000" stroke-dasharray="5,2" d="M341,-591.8314C341,-581 341,-567.2876 341,-556.4133"/>
</g>
<!-- [root] var.admin_username -->
<g id="node_27" class="node">
<title>[root] var.admin_username</title>
<polygon fill="none" stroke="#000000" points="22,-322 22,-337 95,-337 95,-322 22,-322"/>
<text text-anchor="start" x="51.2988" y="-327.6" font-family="courier new" font-size="8.00" fill="#000000">var</text>
<polygon fill="none" stroke="#000000" points="22,-307 22,-322 95,-322 95,-307 22,-307"/>
<text text-anchor="start" x="24.8945" y="-312.6" font-family="courier new" font-size="8.00" fill="#000000">admin_username</text>
</g>
<!-- [root] var.admin_password&#45;&gt;[root] var.admin_username -->
<g id="edge_60" class="edge">
<title>[root] var.admin_password&#45;&gt;[root] var.admin_username</title>
<path fill="none" stroke="#000000" stroke-dasharray="5,2" d="M58,-375.8314C58,-365 58,-351.2876 58,-340.4133"/>
</g>
<!-- [root] var.os_type -->
<g id="node_28" class="node">
<title>[root] var.os_type</title>
<polygon fill="none" stroke="#000000" points="38,-250 38,-265 77,-265 77,-250 38,-250"/>
<text text-anchor="start" x="50.2988" y="-255.6" font-family="courier new" font-size="8.00" fill="#000000">var</text>
<polygon fill="none" stroke="#000000" points="38,-235 38,-250 77,-250 77,-235 38,-235"/>
<text text-anchor="start" x="40.6973" y="-240.6" font-family="courier new" font-size="8.00" fill="#000000">os_type</text>
</g>
<!-- [root] var.admin_username&#45;&gt;[root] var.os_type -->
<g id="edge_61" class="edge">
<title>[root] var.admin_username&#45;&gt;[root] var.os_type</title>
<path fill="none" stroke="#000000" stroke-dasharray="5,2" d="M57.7477,-303.8314C57.5972,-293 57.4068,-279.2876 57.2557,-268.4133"/>
</g>
<!-- [root] var.source_img_uri -->
<g id="node_29" class="node">
<title>[root] var.source_img_uri</title>
<polygon fill="none" stroke="#000000" points="21,-178 21,-193 94,-193 94,-178 21,-178"/>
<text text-anchor="start" x="50.2988" y="-183.6" font-family="courier new" font-size="8.00" fill="#000000">var</text>
<polygon fill="none" stroke="#000000" points="21,-163 21,-178 94,-178 94,-163 21,-163"/>
<text text-anchor="start" x="23.8945" y="-168.6" font-family="courier new" font-size="8.00" fill="#000000">source_img_uri</text>
</g>
<!-- [root] var.os_type&#45;&gt;[root] var.source_img_uri -->
<g id="edge_62" class="edge">
<title>[root] var.os_type&#45;&gt;[root] var.source_img_uri</title>
<path fill="none" stroke="#000000" stroke-dasharray="5,2" d="M57,-231.8314C57,-221 57,-207.2876 57,-196.4133"/>
</g>
<!-- [root] var.transfer_vm_name -->
<g id="node_30" class="node">
<title>[root] var.transfer_vm_name</title>
<polygon fill="none" stroke="#000000" points="16,-106 16,-121 98,-121 98,-106 16,-106"/>
<text text-anchor="start" x="49.7988" y="-111.6" font-family="courier new" font-size="8.00" fill="#000000">var</text>
<polygon fill="none" stroke="#000000" points="16,-91 16,-106 98,-106 98,-91 16,-91"/>
<text text-anchor="start" x="18.5938" y="-96.6" font-family="courier new" font-size="8.00" fill="#000000">transfer_vm_name</text>
</g>
<!-- [root] var.source_img_uri&#45;&gt;[root] var.transfer_vm_name -->
<g id="edge_63" class="edge">
<title>[root] var.source_img_uri&#45;&gt;[root] var.transfer_vm_name</title>
<path fill="none" stroke="#000000" stroke-dasharray="5,2" d="M57,-159.8314C57,-149 57,-135.2876 57,-124.4133"/>
</g>
<!-- [root] var.vm_size -->
<g id="node_31" class="node">
<title>[root] var.vm_size</title>
<polygon fill="none" stroke="#000000" points="38,-34 38,-49 77,-49 77,-34 38,-34"/>
<text text-anchor="start" x="50.2988" y="-39.6" font-family="courier new" font-size="8.00" fill="#000000">var</text>
<polygon fill="none" stroke="#000000" points="38,-19 38,-34 77,-34 77,-19 38,-19"/>
<text text-anchor="start" x="40.6973" y="-24.6" font-family="courier new" font-size="8.00" fill="#000000">vm_size</text>
</g>
<!-- [root] var.transfer_vm_name&#45;&gt;[root] var.vm_size -->
<g id="edge_64" class="edge">
<title>[root] var.transfer_vm_name&#45;&gt;[root] var.vm_size</title>
<path fill="none" stroke="#000000" stroke-dasharray="5,2" d="M57,-87.8314C57,-77 57,-63.2876 57,-52.4133"/>
</g>
<!-- [root] var.image_publisher -->
<g id="node_39" class="node">
<title>[root] var.image_publisher</title>
<polygon fill="none" stroke="#000000" points="778,-610 778,-625 856,-625 856,-610 778,-610"/>
<text text-anchor="start" x="809.7988" y="-615.6" font-family="courier new" font-size="8.00" fill="#000000">var</text>
<polygon fill="none" stroke="#000000" points="778,-595 778,-610 856,-610 856,-595 778,-595"/>
<text text-anchor="start" x="780.9941" y="-600.6" font-family="courier new" font-size="8.00" fill="#000000">image_publisher</text>
</g>
<!-- [root] var.image_offer&#45;&gt;[root] var.image_publisher -->
<g id="edge_65" class="edge">
<title>[root] var.image_offer&#45;&gt;[root] var.image_publisher</title>
<path fill="none" stroke="#000000" stroke-dasharray="5,2" d="M813.2617,-663.8314C814.0139,-653 814.9661,-639.2876 815.7213,-628.4133"/>
</g>
<!-- [root] var.image_sku -->
<g id="node_40" class="node">
<title>[root] var.image_sku</title>
<polygon fill="none" stroke="#000000" points="793,-538 793,-553 842,-553 842,-538 793,-538"/>
<text text-anchor="start" x="810.2988" y="-543.6" font-family="courier new" font-size="8.00" fill="#000000">var</text>
<polygon fill="none" stroke="#000000" points="793,-523 793,-538 842,-538 842,-523 793,-523"/>
<text text-anchor="start" x="795.8965" y="-528.6" font-family="courier new" font-size="8.00" fill="#000000">image_sku</text>
</g>
<!-- [root] var.image_publisher&#45;&gt;[root] var.image_sku -->
<g id="edge_66" class="edge">
<title>[root] var.image_publisher&#45;&gt;[root] var.image_sku</title>
<path fill="none" stroke="#000000" stroke-dasharray="5,2" d="M817,-591.8314C817,-581 817,-567.2876 817,-556.4133"/>
</g>
<!-- [root] var.image_version -->
<g id="node_41" class="node">
<title>[root] var.image_version</title>
<polygon fill="none" stroke="#000000" points="783,-466 783,-481 851,-481 851,-466 783,-466"/>
<text text-anchor="start" x="809.7988" y="-471.6" font-family="courier new" font-size="8.00" fill="#000000">var</text>
<polygon fill="none" stroke="#000000" points="783,-451 783,-466 851,-466 851,-451 783,-451"/>
<text text-anchor="start" x="785.7949" y="-456.6" font-family="courier new" font-size="8.00" fill="#000000">image_version</text>
</g>
<!-- [root] var.image_sku&#45;&gt;[root] var.image_version -->
<g id="edge_67" class="edge">
<title>[root] var.image_sku&#45;&gt;[root] var.image_version</title>
<path fill="none" stroke="#000000" stroke-dasharray="5,2" d="M817,-519.8314C817,-509 817,-495.2876 817,-484.4133"/>
</g>
<!-- [root] output.id -->
<g id="node_36" class="node">
<title>[root] output.id</title>
<polygon fill="none" stroke="#000000" points="710,-610 710,-625 744,-625 744,-610 710,-610"/>
<text text-anchor="start" x="712.5977" y="-615.6" font-family="courier new" font-size="8.00" fill="#000000">output</text>
<polygon fill="none" stroke="#000000" points="710,-595 710,-610 744,-610 744,-595 710,-595"/>
<text text-anchor="start" x="722.1992" y="-600.6" font-family="courier new" font-size="8.00" fill="#000000">id</text>
</g>
<!-- [root] output.fqdn&#45;&gt;[root] output.id -->
<g id="edge_68" class="edge">
<title>[root] output.fqdn&#45;&gt;[root] output.id</title>
<path fill="none" stroke="#000000" stroke-dasharray="5,2" d="M727,-663.8314C727,-653 727,-639.2876 727,-628.4133"/>
</g>
<!-- [root] output.ip_address -->
<g id="node_37" class="node">
<title>[root] output.ip_address</title>
<polygon fill="none" stroke="#000000" points="700,-538 700,-553 754,-553 754,-538 700,-538"/>
<text text-anchor="start" x="712.5977" y="-543.6" font-family="courier new" font-size="8.00" fill="#000000">output</text>
<polygon fill="none" stroke="#000000" points="700,-523 700,-538 754,-538 754,-523 700,-523"/>
<text text-anchor="start" x="702.9961" y="-528.6" font-family="courier new" font-size="8.00" fill="#000000">ip_address</text>
</g>
<!-- [root] output.id&#45;&gt;[root] output.ip_address -->
<g id="edge_69" class="edge">
<title>[root] output.id&#45;&gt;[root] output.ip_address</title>
<path fill="none" stroke="#000000" stroke-dasharray="5,2" d="M727,-591.8314C727,-581 727,-567.2876 727,-556.4133"/>
</g>
<!-- [root] output.ip_address&#45;&gt;[root] azurerm_public_ip.transferpip -->
<g id="edge_52" class="edge">
<title>[root] output.ip_address&#45;&gt;[root] azurerm_public_ip.transferpip</title>
<path fill="none" stroke="#000000" d="M719.2308,-519.9555C702.9559,-482.1556 665.194,-394.4506 645.8646,-349.5564"/>
<polygon fill="#000000" stroke="#000000" points="648.9818,-347.9458 641.8125,-340.1451 642.5524,-350.714 648.9818,-347.9458"/>
</g>
<!-- [root] output.hostname&#45;&gt;[root] var.hostname -->
<g id="edge_50" class="edge">
<title>[root] output.hostname&#45;&gt;[root] var.hostname</title>
<path fill="none" stroke="#000000" d="M971.2832,-663.6673C986.5768,-637.0239 1012,-585.5783 1012,-538 1012,-538 1012,-538 1012,-322 1012,-277.6334 1016.9248,-261.3631 993,-224 985.955,-212.9979 975.2628,-203.804 964.6238,-196.5998"/>
<polygon fill="#000000" stroke="#000000" points="966.4955,-193.6423 956.1737,-191.2523 962.7522,-199.5574 966.4955,-193.6423"/>
</g>
</g>
</svg>

