<?xml version="1.0" encoding="UTF-8" standalone="no"?>
<!DOCTYPE svg PUBLIC "-//W3C//DTD SVG 1.1//EN"
 "http://www.w3.org/Graphics/SVG/1.1/DTD/svg11.dtd">
<!-- Generated by graphviz version 2.40.1 (20161225.0304)
 -->
<!-- Title: %3 Pages: 1 -->
<svg width="154pt" height="404pt"
 viewBox="0.00 0.00 153.50 404.00" xmlns="http://www.w3.org/2000/svg" xmlns:xlink="http://www.w3.org/1999/xlink">
<g id="graph0" class="graph" transform="scale(1 1) rotate(0) translate(4 400)">
<title>%3</title>
<polygon fill="#ffffff" stroke="transparent" points="-4,4 -4,-400 149.5,-400 149.5,4 -4,4"/>
<!-- [root] aws_elb.web -->
<g id="node_0" class="node">
<title>[root] aws_elb.web</title>
<polygon fill="none" stroke="#000000" points="18,-234 18,-249 57,-249 57,-234 18,-234"/>
<text text-anchor="start" x="20.6973" y="-239.6" font-family="courier new" font-size="8.00" fill="#000000">aws_elb</text>
<polygon fill="none" stroke="#000000" points="18,-219 18,-234 57,-234 57,-219 18,-219"/>
<text text-anchor="start" x="30.2988" y="-224.6" font-family="courier new" font-size="8.00" fill="#000000">web</text>
</g>
<!-- [root] aws_instance.web -->
<g id="node_1" class="node">
<title>[root] aws_instance.web</title>
<polygon fill="none" stroke="#000000" points="42,-162 42,-177 105,-177 105,-162 42,-162"/>
<text text-anchor="start" x="44.6953" y="-167.6" font-family="courier new" font-size="8.00" fill="#000000">aws_instance</text>
<polygon fill="none" stroke="#000000" points="42,-147 42,-162 105,-162 105,-147 42,-147"/>
<text text-anchor="start" x="66.2988" y="-152.6" font-family="courier new" font-size="8.00" fill="#000000">web</text>
</g>
<!-- [root] aws_elb.web&#45;&gt;[root] aws_instance.web -->
<g id="edge_0" class="edge">
<title>[root] aws_elb.web&#45;&gt;[root] aws_instance.web</title>
<path fill="none" stroke="#000000" d="M46.0843,-215.8314C50.0615,-207.8771 54.8155,-198.369 59.2139,-189.5723"/>
<polygon fill="#000000" stroke="#000000" points="62.4517,-190.9228 63.7934,-180.4133 56.1907,-187.7923 62.4517,-190.9228"/>
</g>
<!-- [root] provider.aws -->
<g id="node_2" class="node">
<title>[root] provider.aws</title>
<polygon fill="none" stroke="#000000" points="15,-90 15,-105 59,-105 59,-90 15,-90"/>
<text text-anchor="start" x="17.7969" y="-95.6" font-family="courier new" font-size="8.00" fill="#000000">provider</text>
<polygon fill="none" stroke="#000000" points="15,-75 15,-90 59,-90 59,-75 15,-75"/>
<text text-anchor="start" x="29.7988" y="-80.6" font-family="courier new" font-size="8.00" fill="#000000">aws</text>
</g>
<!-- [root] aws_instance.web&#45;&gt;[root] provider.aws -->
<g id="edge_1" class="edge">
<title>[root] aws_instance.web&#45;&gt;[root] provider.aws</title>
<path fill="none" stroke="#000000" d="M63.9157,-143.8314C59.9385,-135.8771 55.1845,-126.369 50.7861,-117.5723"/>
<polygon fill="#000000" stroke="#000000" points="53.8093,-115.7923 46.2066,-108.4133 47.5483,-118.9228 53.8093,-115.7923"/>
</g>
<!-- [root] var.aws_amis -->
<g id="node_3" class="node">
<title>[root] var.aws_amis</title>
<polygon fill="none" stroke="#000000" points="87,-90 87,-105 131,-105 131,-90 87,-90"/>
<text text-anchor="start" x="101.7988" y="-95.6" font-family="courier new" font-size="8.00" fill="#000000">var</text>
<polygon fill="none" stroke="#000000" points="87,-75 87,-90 131,-90 131,-75 87,-75"/>
<text text-anchor="start" x="89.7969" y="-80.6" font-family="courier new" font-size="8.00" fill="#000000">aws_amis</text>
</g>
<!-- [root] aws_instance.web&#45;&gt;[root] var.aws_amis -->
<g id="edge_2" class="edge">
<title>[root] aws_instance.web&#45;&gt;[root] var.aws_amis</title>
<path fill="none" stroke="#000000" d="M82.0843,-143.8314C86.0615,-135.8771 90.8155,-126.369 95.2139,-117.5723"/>
<polygon fill="#000000" stroke="#000000" points="98.4517,-118.9228 99.7934,-108.4133 92.1907,-115.7923 98.4517,-118.9228"/>
</g>
<!-- [root] var.aws_region -->
<g id="node_7" class="node">
<title>[root] var.aws_region</title>
<polygon fill="none" stroke="#000000" points="10,-18 10,-33 64,-33 64,-18 10,-18"/>
<text text-anchor="start" x="29.7988" y="-23.6" font-family="courier new" font-size="8.00" fill="#000000">var</text>
<polygon fill="none" stroke="#000000" points="10,-3 10,-18 64,-18 64,-3 10,-3"/>
<text text-anchor="start" x="12.9961" y="-8.6" font-family="courier new" font-size="8.00" fill="#000000">aws_region</text>
</g>
<!-- [root] provider.aws&#45;&gt;[root] var.aws_region -->
<g id="edge_7" class="edge">
<title>[root] provider.aws&#45;&gt;[root] var.aws_region</title>
<path fill="none" stroke="#000000" d="M37,-71.8314C37,-64.131 37,-54.9743 37,-46.4166"/>
<polygon fill="#000000" stroke="#000000" points="40.5001,-46.4132 37,-36.4133 33.5001,-46.4133 40.5001,-46.4132"/>
</g>
<!-- [root] meta.count&#45;boundary (count boundary fixup) -->
<g id="node_4" class="node">
<title>[root] meta.count&#45;boundary (count boundary fixup)</title>
<polygon fill="none" stroke="#000000" points="73,-306 73,-321 146,-321 146,-306 73,-306"/>
<text text-anchor="start" x="99.8984" y="-311.6" font-family="courier new" font-size="8.00" fill="#000000">meta</text>
<polygon fill="none" stroke="#000000" points="73,-291 73,-306 146,-306 146,-291 73,-291"/>
<text text-anchor="start" x="75.8945" y="-296.6" font-family="courier new" font-size="8.00" fill="#000000">count&#45;boundary</text>
</g>
<!-- [root] meta.count&#45;boundary (count boundary fixup)&#45;&gt;[root] aws_elb.web -->
<g id="edge_3" class="edge">
<title>[root] meta.count&#45;boundary (count boundary fixup)&#45;&gt;[root] aws_elb.web</title>
<path fill="none" stroke="#000000" d="M90.8314,-287.8314C82.2848,-279.2848 71.9443,-268.9443 62.6198,-259.6198"/>
<polygon fill="#000000" stroke="#000000" points="64.9592,-257.0095 55.4133,-252.4133 60.0095,-261.9592 64.9592,-257.0095"/>
</g>
<!-- [root] output.address -->
<g id="node_5" class="node">
<title>[root] output.address</title>
<polygon fill="none" stroke="#000000" points="90,-234 90,-249 129,-249 129,-234 90,-234"/>
<text text-anchor="start" x="95.0977" y="-239.6" font-family="courier new" font-size="8.00" fill="#000000">output</text>
<polygon fill="none" stroke="#000000" points="90,-219 90,-234 129,-234 129,-219 90,-219"/>
<text text-anchor="start" x="92.6973" y="-224.6" font-family="courier new" font-size="8.00" fill="#000000">address</text>
</g>
<!-- [root] meta.count&#45;boundary (count boundary fixup)&#45;&gt;[root] output.address -->
<g id="edge_4" class="edge">
<title>[root] meta.count&#45;boundary (count boundary fixup)&#45;&gt;[root] output.address</title>
<path fill="none" stroke="#000000" d="M109,-287.8314C109,-280.131 109,-270.9743 109,-262.4166"/>
<polygon fill="#000000" stroke="#000000" points="112.5001,-262.4132 109,-252.4133 105.5001,-262.4133 112.5001,-262.4132"/>
</g>
<!-- [root] output.address&#45;&gt;[root] aws_instance.web -->
<g id="edge_5" class="edge">
<title>[root] output.address&#45;&gt;[root] aws_instance.web</title>
<path fill="none" stroke="#000000" d="M99.9157,-215.8314C95.9385,-207.8771 91.1845,-198.369 86.7861,-189.5723"/>
<polygon fill="#000000" stroke="#000000" points="89.8093,-187.7923 82.2066,-180.4133 83.5483,-190.9228 89.8093,-187.7923"/>
</g>
<!-- [root] provider.aws (close) -->
<g id="node_6" class="node">
<title>[root] provider.aws (close)</title>
<polygon fill="none" stroke="#000000" points="5,-306 5,-321 49,-321 49,-306 5,-306"/>
<text text-anchor="start" x="7.7969" y="-311.6" font-family="courier new" font-size="8.00" fill="#000000">provider</text>
<polygon fill="none" stroke="#000000" points="5,-291 5,-306 49,-306 49,-291 5,-291"/>
<text text-anchor="start" x="19.7988" y="-296.6" font-family="courier new" font-size="8.00" fill="#000000">aws</text>
</g>
<!-- [root] provider.aws (close)&#45;&gt;[root] aws_elb.web -->
<g id="edge_6" class="edge">
<title>[root] provider.aws (close)&#45;&gt;[root] aws_elb.web</title>
<path fill="none" stroke="#000000" d="M29.5234,-287.8314C30.5929,-280.131 31.8647,-270.9743 33.0532,-262.4166"/>
<polygon fill="#000000" stroke="#000000" points="36.5336,-262.7997 34.4426,-252.4133 29.6001,-261.8367 36.5336,-262.7997"/>
</g>
<!-- [root] root -->
<g id="node_8" class="node">
<title>[root] root</title>
<polygon fill="none" stroke="#000000" points="102.3089,-396 33.6911,-396 33.6911,-360 102.3089,-360 102.3089,-396"/>
<text text-anchor="middle" x="68" y="-376.1313" font-family="courier new" font-size="8.00" fill="#000000">[root] root</text>
</g>
<!-- [root] root&#45;&gt;[root] meta.count&#45;boundary (count boundary fixup) -->
<g id="edge_8" class="edge">
<title>[root] root&#45;&gt;[root] meta.count&#45;boundary (count boundary fixup)</title>
<path fill="none" stroke="#000000" d="M78.346,-359.8314C82.9237,-351.7925 88.4052,-342.1666 93.4588,-333.2918"/>
<polygon fill="#000000" stroke="#000000" points="96.6077,-334.8351 98.5147,-324.4133 90.5248,-331.3712 96.6077,-334.8351"/>
</g>
<!-- [root] root&#45;&gt;[root] provider.aws (close) -->
<g id="edge_9" class="edge">
<title>[root] root&#45;&gt;[root] provider.aws (close)</title>
<path fill="none" stroke="#000000" d="M57.654,-359.8314C53.0763,-351.7925 47.5948,-342.1666 42.5412,-333.2918"/>
<polygon fill="#000000" stroke="#000000" points="45.4752,-331.3712 37.4853,-324.4133 39.3923,-334.8351 45.4752,-331.3712"/>
</g>
</g>
</svg>

