<?xml version="1.0" encoding="UTF-8" standalone="no"?>
<!DOCTYPE svg PUBLIC "-//W3C//DTD SVG 1.1//EN"
 "http://www.w3.org/Graphics/SVG/1.1/DTD/svg11.dtd">
<!-- Generated by graphviz version 2.40.1 (20161225.0304)
 -->
<!-- Title: %3 Pages: 1 -->
<svg width="196pt" height="420pt"
 viewBox="0.00 0.00 196.00 420.00" xmlns="http://www.w3.org/2000/svg" xmlns:xlink="http://www.w3.org/1999/xlink">
<g id="graph0" class="graph" transform="scale(1 1) rotate(0) translate(4 416)">
<title>%3</title>
<polygon fill="#ffffff" stroke="transparent" points="-4,4 -4,-416 192,-416 192,4 -4,4"/>
<g id="clust2" class="cluster">
<title>cluster[root] aws_instance.web_var_</title>
</g>
<g id="clust3" class="cluster">
<title>cluster[root] provider.aws_var_</title>
</g>
<g id="clust4" class="cluster">
<title>cluster[root] meta.count&#45;boundary (count boundary fixup)_output_[root] aws_instance.web</title>
</g>
<!-- [root] aws_elb.web -->
<g id="node_0" class="node">
<title>[root] aws_elb.web</title>
<polygon fill="none" stroke="#000000" points="18,-250 18,-265 57,-265 57,-250 18,-250"/>
<text text-anchor="start" x="20.6973" y="-255.6" font-family="courier new" font-size="8.00" fill="#000000">aws_elb</text>
<polygon fill="none" stroke="#000000" points="18,-235 18,-250 57,-250 57,-235 18,-235"/>
<text text-anchor="start" x="30.2988" y="-240.6" font-family="courier new" font-size="8.00" fill="#000000">web</text>
</g>
<!-- [root] aws_instance.web -->
<g id="node_1" class="node">
<title>[root] aws_instance.web</title>
<polygon fill="none" stroke="#000000" points="42,-178 42,-193 105,-193 105,-178 42,-178"/>
<text text-anchor="start" x="44.6953" y="-183.6" font-family="courier new" font-size="8.00" fill="#000000">aws_instance</text>
<polygon fill="none" stroke="#000000" points="42,-163 42,-178 105,-178 105,-163 42,-163"/>
<text text-anchor="start" x="66.2988" y="-168.6" font-family="courier new" font-size="8.00" fill="#000000">web</text>
</g>
<!-- [root] aws_elb.web&#45;&gt;[root] aws_instance.web -->
<g id="edge_0" class="edge">
<title>[root] aws_elb.web&#45;&gt;[root] aws_instance.web</title>
<path fill="none" stroke="#000000" d="M46.0843,-231.8314C50.0615,-223.8771 54.8155,-214.369 59.2139,-205.5723"/>
<polygon fill="#000000" stroke="#000000" points="62.4517,-206.9228 63.7934,-196.4133 56.1907,-203.7923 62.4517,-206.9228"/>
</g>
<!-- [root] provider.aws -->
<g id="node_2" class="node">
<title>[root] provider.aws</title>
<polygon fill="none" stroke="#000000" points="51,-106 51,-121 95,-121 95,-106 51,-106"/>
<text text-anchor="start" x="53.7969" y="-111.6" font-family="courier new" font-size="8.00" fill="#000000">provider</text>
<polygon fill="none" stroke="#000000" points="51,-91 51,-106 95,-106 95,-91 51,-91"/>
<text text-anchor="start" x="65.7988" y="-96.6" font-family="courier new" font-size="8.00" fill="#000000">aws</text>
</g>
<!-- [root] aws_instance.web&#45;&gt;[root] provider.aws -->
<g id="edge_1" class="edge">
<title>[root] aws_instance.web&#45;&gt;[root] provider.aws</title>
<path fill="none" stroke="#000000" d="M73,-159.8314C73,-152.131 73,-142.9743 73,-134.4166"/>
<polygon fill="#000000" stroke="#000000" points="76.5001,-134.4132 73,-124.4133 69.5001,-134.4133 76.5001,-134.4132"/>
</g>
<!-- [root] var.aws_amis -->
<g id="node_3" class="node">
<title>[root] var.aws_amis</title>
<polygon fill="none" stroke="#000000" points="123,-106 123,-121 167,-121 167,-106 123,-106"/>
<text text-anchor="start" x="137.7988" y="-111.6" font-family="courier new" font-size="8.00" fill="#000000">var</text>
<polygon fill="none" stroke="#000000" points="123,-91 123,-106 167,-106 167,-91 123,-91"/>
<text text-anchor="start" x="125.7969" y="-96.6" font-family="courier new" font-size="8.00" fill="#000000">aws_amis</text>
</g>
<!-- [root] aws_instance.web&#45;&gt;[root] var.aws_amis -->
<g id="edge_2" class="edge">
<title>[root] aws_instance.web&#45;&gt;[root] var.aws_amis</title>
<path fill="none" stroke="#000000" d="M91.1686,-159.8314C99.7152,-151.2848 110.0557,-140.9443 119.3802,-131.6198"/>
<polygon fill="#000000" stroke="#000000" points="121.9905,-133.9592 126.5867,-124.4133 117.0408,-129.0095 121.9905,-133.9592"/>
</g>
<!-- [root] var.aws_region -->
<g id="node_7" class="node">
<title>[root] var.aws_region</title>
<polygon fill="none" stroke="#000000" points="46,-34 46,-49 100,-49 100,-34 46,-34"/>
<text text-anchor="start" x="65.7988" y="-39.6" font-family="courier new" font-size="8.00" fill="#000000">var</text>
<polygon fill="none" stroke="#000000" points="46,-19 46,-34 100,-34 100,-19 46,-19"/>
<text text-anchor="start" x="48.9961" y="-24.6" font-family="courier new" font-size="8.00" fill="#000000">aws_region</text>
</g>
<!-- [root] provider.aws&#45;&gt;[root] var.aws_region -->
<g id="edge_7" class="edge">
<title>[root] provider.aws&#45;&gt;[root] var.aws_region</title>
<path fill="none" stroke="#000000" d="M73,-87.8314C73,-80.131 73,-70.9743 73,-62.4166"/>
<polygon fill="#000000" stroke="#000000" points="76.5001,-62.4132 73,-52.4133 69.5001,-62.4133 76.5001,-62.4132"/>
</g>
<!-- [root] meta.count&#45;boundary (count boundary fixup) -->
<g id="node_4" class="node">
<title>[root] meta.count&#45;boundary (count boundary fixup)</title>
<polygon fill="none" stroke="#000000" points="73,-322 73,-337 146,-337 146,-322 73,-322"/>
<text text-anchor="start" x="99.8984" y="-327.6" font-family="courier new" font-size="8.00" fill="#000000">meta</text>
<polygon fill="none" stroke="#000000" points="73,-307 73,-322 146,-322 146,-307 73,-307"/>
<text text-anchor="start" x="75.8945" y="-312.6" font-family="courier new" font-size="8.00" fill="#000000">count&#45;boundary</text>
</g>
<!-- [root] meta.count&#45;boundary (count boundary fixup)&#45;&gt;[root] aws_elb.web -->
<g id="edge_3" class="edge">
<title>[root] meta.count&#45;boundary (count boundary fixup)&#45;&gt;[root] aws_elb.web</title>
<path fill="none" stroke="#000000" d="M90.8314,-303.8314C82.2848,-295.2848 71.9443,-284.9443 62.6198,-275.6198"/>
<polygon fill="#000000" stroke="#000000" points="64.9592,-273.0095 55.4133,-268.4133 60.0095,-277.9592 64.9592,-273.0095"/>
</g>
<!-- [root] output.address -->
<g id="node_5" class="node">
<title>[root] output.address</title>
<polygon fill="none" stroke="#000000" points="90,-250 90,-265 129,-265 129,-250 90,-250"/>
<text text-anchor="start" x="95.0977" y="-255.6" font-family="courier new" font-size="8.00" fill="#000000">output</text>
<polygon fill="none" stroke="#000000" points="90,-235 90,-250 129,-250 129,-235 90,-235"/>
<text text-anchor="start" x="92.6973" y="-240.6" font-family="courier new" font-size="8.00" fill="#000000">address</text>
</g>
<!-- [root] meta.count&#45;boundary (count boundary fixup)&#45;&gt;[root] output.address -->
<g id="edge_4" class="edge">
<title>[root] meta.count&#45;boundary (count boundary fixup)&#45;&gt;[root] output.address</title>
<path fill="none" stroke="#000000" d="M109,-303.8314C109,-296.131 109,-286.9743 109,-278.4166"/>
<polygon fill="#000000" stroke="#000000" points="112.5001,-278.4132 109,-268.4133 105.5001,-278.4133 112.5001,-278.4132"/>
</g>
<!-- [root] provider.aws (close) -->
<g id="node_6" class="node">
<title>[root] provider.aws (close)</title>
<polygon fill="none" stroke="#000000" points="5,-322 5,-337 49,-337 49,-322 5,-322"/>
<text text-anchor="start" x="7.7969" y="-327.6" font-family="courier new" font-size="8.00" fill="#000000">provider</text>
<polygon fill="none" stroke="#000000" points="5,-307 5,-322 49,-322 49,-307 5,-307"/>
<text text-anchor="start" x="19.7988" y="-312.6" font-family="courier new" font-size="8.00" fill="#000000">aws</text>
</g>
<!-- [root] provider.aws (close)&#45;&gt;[root] aws_elb.web -->
<g id="edge_6" class="edge">
<title>[root] provider.aws (close)&#45;&gt;[root] aws_elb.web</title>
<path fill="none" stroke="#000000" d="M29.5234,-303.8314C30.5929,-296.131 31.8647,-286.9743 33.0532,-278.4166"/>
<polygon fill="#000000" stroke="#000000" points="36.5336,-278.7997 34.4426,-268.4133 29.6001,-277.8367 36.5336,-278.7997"/>
</g>
<!-- [root] root -->
<g id="node_8" class="node">
<title>[root] root</title>
<polygon fill="none" stroke="#000000" points="102.3089,-412 33.6911,-412 33.6911,-376 102.3089,-376 102.3089,-412"/>
<text text-anchor="middle" x="68" y="-392.1313" font-family="courier new" font-size="8.00" fill="#000000">[root] root</text>
</g>
<!-- [root] root&#45;&gt;[root] meta.count&#45;boundary (count boundary fixup) -->
<g id="edge_8" class="edge">
<title>[root] root&#45;&gt;[root] meta.count&#45;boundary (count boundary fixup)</title>
<path fill="none" stroke="#000000" d="M78.346,-375.8314C82.9237,-367.7925 88.4052,-358.1666 93.4588,-349.2918"/>
<polygon fill="#000000" stroke="#000000" points="96.6077,-350.8351 98.5147,-340.4133 90.5248,-347.3712 96.6077,-350.8351"/>
</g>
<!-- [root] root&#45;&gt;[root] provider.aws (close) -->
<g id="edge_9" class="edge">
<title>[root] root&#45;&gt;[root] provider.aws (close)</title>
<path fill="none" stroke="#000000" d="M57.654,-375.8314C53.0763,-367.7925 47.5948,-358.1666 42.5412,-349.2918"/>
<polygon fill="#000000" stroke="#000000" points="45.4752,-347.3712 37.4853,-340.4133 39.3923,-350.8351 45.4752,-347.3712"/>
</g>
<!-- [root] output.address&#45;&gt;[root] aws_instance.web -->
<g id="edge_5" class="edge">
<title>[root] output.address&#45;&gt;[root] aws_instance.web</title>
<path fill="none" stroke="#000000" d="M99.9157,-231.8314C95.9385,-223.8771 91.1845,-214.369 86.7861,-205.5723"/>
<polygon fill="#000000" stroke="#000000" points="89.8093,-203.7923 82.2066,-196.4133 83.5483,-206.9228 89.8093,-203.7923"/>
</g>
</g>
</svg>

