<?xml version="1.0" encoding="UTF-8" standalone="no"?>
<!DOCTYPE svg PUBLIC "-//W3C//DTD SVG 1.1//EN"
 "http://www.w3.org/Graphics/SVG/1.1/DTD/svg11.dtd">
<!-- Generated by graphviz version 2.40.1 (20161225.0304)
 -->
<!-- Title: %3 Pages: 1 -->
<svg width="154pt" height="476pt"
 viewBox="0.00 0.00 153.50 476.00" xmlns="http://www.w3.org/2000/svg" xmlns:xlink="http://www.w3.org/1999/xlink">
<g id="graph0" class="graph" transform="scale(1 1) rotate(0) translate(4 472)">
<title>%3</title>
<polygon fill="#ffffff" stroke="transparent" points="-4,4 -4,-472 149.5,-472 149.5,4 -4,4"/>
<!-- [root] azurerm_container_group.myhw -->
<g id="node_0" class="node">
<title>[root] azurerm_container_group.myhw</title>
<polygon fill="none" stroke="#000000" points="19.5,-306 19.5,-321 135.5,-321 135.5,-306 19.5,-306"/>
<text text-anchor="start" x="22.291" y="-311.6" font-family="courier new" font-size="8.00" fill="#000000">azurerm_container_group</text>
<polygon fill="none" stroke="#000000" points="19.5,-291 19.5,-306 135.5,-306 135.5,-291 19.5,-291"/>
<text text-anchor="start" x="67.8984" y="-296.6" font-family="courier new" font-size="8.00" fill="#000000">myhw</text>
</g>
<!-- [root] azurerm_storage_share.aci&#45;share -->
<g id="node_3" class="node">
<title>[root] azurerm_storage_share.aci&#45;share</title>
<polygon fill="none" stroke="#000000" points="24.5,-234 24.5,-249 130.5,-249 130.5,-234 24.5,-234"/>
<text text-anchor="start" x="27.0918" y="-239.6" font-family="courier new" font-size="8.00" fill="#000000">azurerm_storage_share</text>
<polygon fill="none" stroke="#000000" points="24.5,-219 24.5,-234 130.5,-234 130.5,-219 24.5,-219"/>
<text text-anchor="start" x="55.8965" y="-224.6" font-family="courier new" font-size="8.00" fill="#000000">aci&#45;share</text>
</g>
<!-- [root] azurerm_container_group.myhw&#45;&gt;[root] azurerm_storage_share.aci&#45;share -->
<g id="edge_0" class="edge">
<title>[root] azurerm_container_group.myhw&#45;&gt;[root] azurerm_storage_share.aci&#45;share</title>
<path fill="none" stroke="#000000" d="M77.5,-287.8314C77.5,-280.131 77.5,-270.9743 77.5,-262.4166"/>
<polygon fill="#000000" stroke="#000000" points="81.0001,-262.4132 77.5,-252.4133 74.0001,-262.4133 81.0001,-262.4132"/>
</g>
<!-- [root] azurerm_resource_group.aci&#45;rg -->
<g id="node_1" class="node">
<title>[root] azurerm_resource_group.aci&#45;rg</title>
<polygon fill="none" stroke="#000000" points="22.5,-90 22.5,-105 133.5,-105 133.5,-90 22.5,-90"/>
<text text-anchor="start" x="25.1914" y="-95.6" font-family="courier new" font-size="8.00" fill="#000000">azurerm_resource_group</text>
<polygon fill="none" stroke="#000000" points="22.5,-75 22.5,-90 133.5,-90 133.5,-75 22.5,-75"/>
<text text-anchor="start" x="63.5977" y="-80.6" font-family="courier new" font-size="8.00" fill="#000000">aci&#45;rg</text>
</g>
<!-- [root] provider.azurerm -->
<g id="node_4" class="node">
<title>[root] provider.azurerm</title>
<polygon fill="none" stroke="#000000" points="55.5,-18 55.5,-33 99.5,-33 99.5,-18 55.5,-18"/>
<text text-anchor="start" x="58.2969" y="-23.6" font-family="courier new" font-size="8.00" fill="#000000">provider</text>
<polygon fill="none" stroke="#000000" points="55.5,-3 55.5,-18 99.5,-18 99.5,-3 55.5,-3"/>
<text text-anchor="start" x="60.6973" y="-8.6" font-family="courier new" font-size="8.00" fill="#000000">azurerm</text>
</g>
<!-- [root] azurerm_resource_group.aci&#45;rg&#45;&gt;[root] provider.azurerm -->
<g id="edge_1" class="edge">
<title>[root] azurerm_resource_group.aci&#45;rg&#45;&gt;[root] provider.azurerm</title>
<path fill="none" stroke="#000000" d="M77.5,-71.8314C77.5,-64.131 77.5,-54.9743 77.5,-46.4166"/>
<polygon fill="#000000" stroke="#000000" points="81.0001,-46.4132 77.5,-36.4133 74.0001,-46.4133 81.0001,-46.4132"/>
</g>
<!-- [root] azurerm_storage_account.aci&#45;sa -->
<g id="node_2" class="node">
<title>[root] azurerm_storage_account.aci&#45;sa</title>
<polygon fill="none" stroke="#000000" points="19.5,-162 19.5,-177 135.5,-177 135.5,-162 19.5,-162"/>
<text text-anchor="start" x="22.291" y="-167.6" font-family="courier new" font-size="8.00" fill="#000000">azurerm_storage_account</text>
<polygon fill="none" stroke="#000000" points="19.5,-147 19.5,-162 135.5,-162 135.5,-147 19.5,-147"/>
<text text-anchor="start" x="63.0977" y="-152.6" font-family="courier new" font-size="8.00" fill="#000000">aci&#45;sa</text>
</g>
<!-- [root] azurerm_storage_account.aci&#45;sa&#45;&gt;[root] azurerm_resource_group.aci&#45;rg -->
<g id="edge_2" class="edge">
<title>[root] azurerm_storage_account.aci&#45;sa&#45;&gt;[root] azurerm_resource_group.aci&#45;rg</title>
<path fill="none" stroke="#000000" d="M77.5,-143.8314C77.5,-136.131 77.5,-126.9743 77.5,-118.4166"/>
<polygon fill="#000000" stroke="#000000" points="81.0001,-118.4132 77.5,-108.4133 74.0001,-118.4133 81.0001,-118.4132"/>
</g>
<!-- [root] azurerm_storage_share.aci&#45;share&#45;&gt;[root] azurerm_storage_account.aci&#45;sa -->
<g id="edge_3" class="edge">
<title>[root] azurerm_storage_share.aci&#45;share&#45;&gt;[root] azurerm_storage_account.aci&#45;sa</title>
<path fill="none" stroke="#000000" d="M77.5,-215.8314C77.5,-208.131 77.5,-198.9743 77.5,-190.4166"/>
<polygon fill="#000000" stroke="#000000" points="81.0001,-190.4132 77.5,-180.4133 74.0001,-190.4133 81.0001,-190.4132"/>
</g>
<!-- [root] meta.count&#45;boundary (count boundary fixup) -->
<g id="node_5" class="node">
<title>[root] meta.count&#45;boundary (count boundary fixup)</title>
<polygon fill="none" stroke="#000000" points=".5,-378 .5,-393 73.5,-393 73.5,-378 .5,-378"/>
<text text-anchor="start" x="27.3984" y="-383.6" font-family="courier new" font-size="8.00" fill="#000000">meta</text>
<polygon fill="none" stroke="#000000" points=".5,-363 .5,-378 73.5,-378 73.5,-363 .5,-363"/>
<text text-anchor="start" x="3.3945" y="-368.6" font-family="courier new" font-size="8.00" fill="#000000">count&#45;boundary</text>
</g>
<!-- [root] meta.count&#45;boundary (count boundary fixup)&#45;&gt;[root] azurerm_container_group.myhw -->
<g id="edge_4" class="edge">
<title>[root] meta.count&#45;boundary (count boundary fixup)&#45;&gt;[root] azurerm_container_group.myhw</title>
<path fill="none" stroke="#000000" d="M46.846,-359.8314C51.4237,-351.7925 56.9052,-342.1666 61.9588,-333.2918"/>
<polygon fill="#000000" stroke="#000000" points="65.1077,-334.8351 67.0147,-324.4133 59.0248,-331.3712 65.1077,-334.8351"/>
</g>
<!-- [root] provider.azurerm (close) -->
<g id="node_6" class="node">
<title>[root] provider.azurerm (close)</title>
<polygon fill="none" stroke="#000000" points="96.5,-378 96.5,-393 140.5,-393 140.5,-378 96.5,-378"/>
<text text-anchor="start" x="99.2969" y="-383.6" font-family="courier new" font-size="8.00" fill="#000000">provider</text>
<polygon fill="none" stroke="#000000" points="96.5,-363 96.5,-378 140.5,-378 140.5,-363 96.5,-363"/>
<text text-anchor="start" x="101.6973" y="-368.6" font-family="courier new" font-size="8.00" fill="#000000">azurerm</text>
</g>
<!-- [root] provider.azurerm (close)&#45;&gt;[root] azurerm_container_group.myhw -->
<g id="edge_5" class="edge">
<title>[root] provider.azurerm (close)&#45;&gt;[root] azurerm_container_group.myhw</title>
<path fill="none" stroke="#000000" d="M108.154,-359.8314C103.5763,-351.7925 98.0948,-342.1666 93.0412,-333.2918"/>
<polygon fill="#000000" stroke="#000000" points="95.9752,-331.3712 87.9853,-324.4133 89.8923,-334.8351 95.9752,-331.3712"/>
</g>
<!-- [root] root -->
<g id="node_7" class="node">
<title>[root] root</title>
<polygon fill="none" stroke="#000000" points="111.8089,-468 43.1911,-468 43.1911,-432 111.8089,-432 111.8089,-468"/>
<text text-anchor="middle" x="77.5" y="-448.1313" font-family="courier new" font-size="8.00" fill="#000000">[root] root</text>
</g>
<!-- [root] root&#45;&gt;[root] meta.count&#45;boundary (count boundary fixup) -->
<g id="edge_6" class="edge">
<title>[root] root&#45;&gt;[root] meta.count&#45;boundary (count boundary fixup)</title>
<path fill="none" stroke="#000000" d="M67.154,-431.8314C62.5763,-423.7925 57.0948,-414.1666 52.0412,-405.2918"/>
<polygon fill="#000000" stroke="#000000" points="54.9752,-403.3712 46.9853,-396.4133 48.8923,-406.8351 54.9752,-403.3712"/>
</g>
<!-- [root] root&#45;&gt;[root] provider.azurerm (close) -->
<g id="edge_7" class="edge">
<title>[root] root&#45;&gt;[root] provider.azurerm (close)</title>
<path fill="none" stroke="#000000" d="M87.846,-431.8314C92.4237,-423.7925 97.9052,-414.1666 102.9588,-405.2918"/>
<polygon fill="#000000" stroke="#000000" points="106.1077,-406.8351 108.0147,-396.4133 100.0248,-403.3712 106.1077,-406.8351"/>
</g>
</g>
</svg>

