<?xml version="1.0" encoding="UTF-8" standalone="no"?>
<!DOCTYPE svg PUBLIC "-//W3C//DTD SVG 1.1//EN"
 "http://www.w3.org/Graphics/SVG/1.1/DTD/svg11.dtd">
<!-- Generated by graphviz version 2.40.1 (20161225.0304)
 -->
<!-- Title: %3 Pages: 1 -->
<svg width="379pt" height="564pt"
 viewBox="0.00 0.00 378.50 564.00" xmlns="http://www.w3.org/2000/svg" xmlns:xlink="http://www.w3.org/1999/xlink">
<g id="graph0" class="graph" transform="scale(1 1) rotate(0) translate(4 560)">
<title>%3</title>
<polygon fill="#ffffff" stroke="transparent" points="-4,4 -4,-560 374.5,-560 374.5,4 -4,4"/>
<g id="clust2" class="cluster">
<title>cluster[root] azurerm_cdn_endpoint.cdnendpt_var_</title>
</g>
<g id="clust3" class="cluster">
<title>cluster[root] azurerm_resource_group.rg_var_</title>
</g>
<g id="clust4" class="cluster">
<title>cluster[root] azurerm_storage_account.stor_var_</title>
</g>
<g id="clust5" class="cluster">
<title>cluster[root] meta.count&#45;boundary (count boundary fixup)_output_[root] azurerm_cdn_endpoint.cdnendpt</title>
</g>
<!-- [root] azurerm_cdn_endpoint.cdnendpt -->
<g id="node_0" class="node">
<title>[root] azurerm_cdn_endpoint.cdnendpt</title>
<polygon fill="none" stroke="#000000" points="74.5,-322 74.5,-337 176.5,-337 176.5,-322 74.5,-322"/>
<text text-anchor="start" x="77.4922" y="-327.6" font-family="courier new" font-size="8.00" fill="#000000">azurerm_cdn_endpoint</text>
<polygon fill="none" stroke="#000000" points="74.5,-307 74.5,-322 176.5,-322 176.5,-307 74.5,-307"/>
<text text-anchor="start" x="106.2969" y="-312.6" font-family="courier new" font-size="8.00" fill="#000000">cdnendpt</text>
</g>
<!-- [root] azurerm_cdn_profile.cdn -->
<g id="node_1" class="node">
<title>[root] azurerm_cdn_profile.cdn</title>
<polygon fill="none" stroke="#000000" points="7.5,-250 7.5,-265 104.5,-265 104.5,-250 7.5,-250"/>
<text text-anchor="start" x="10.3926" y="-255.6" font-family="courier new" font-size="8.00" fill="#000000">azurerm_cdn_profile</text>
<polygon fill="none" stroke="#000000" points="7.5,-235 7.5,-250 104.5,-250 104.5,-235 7.5,-235"/>
<text text-anchor="start" x="48.7988" y="-240.6" font-family="courier new" font-size="8.00" fill="#000000">cdn</text>
</g>
<!-- [root] azurerm_cdn_endpoint.cdnendpt&#45;&gt;[root] azurerm_cdn_profile.cdn -->
<g id="edge_0" class="edge">
<title>[root] azurerm_cdn_endpoint.cdnendpt&#45;&gt;[root] azurerm_cdn_profile.cdn</title>
<path fill="none" stroke="#000000" d="M107.836,-303.8314C99.5268,-295.2848 89.4736,-284.9443 80.4082,-275.6198"/>
<polygon fill="#000000" stroke="#000000" points="82.8821,-273.1435 73.4018,-268.4133 77.8631,-278.023 82.8821,-273.1435"/>
</g>
<!-- [root] var.host_name -->
<g id="node_5" class="node">
<title>[root] var.host_name</title>
<polygon fill="none" stroke="#000000" points="125.5,-250 125.5,-265 174.5,-265 174.5,-250 125.5,-250"/>
<text text-anchor="start" x="142.7988" y="-255.6" font-family="courier new" font-size="8.00" fill="#000000">var</text>
<polygon fill="none" stroke="#000000" points="125.5,-235 125.5,-250 174.5,-250 174.5,-235 125.5,-235"/>
<text text-anchor="start" x="128.3965" y="-240.6" font-family="courier new" font-size="8.00" fill="#000000">host_name</text>
</g>
<!-- [root] azurerm_cdn_endpoint.cdnendpt&#45;&gt;[root] var.host_name -->
<g id="edge_1" class="edge">
<title>[root] azurerm_cdn_endpoint.cdnendpt&#45;&gt;[root] var.host_name</title>
<path fill="none" stroke="#000000" d="M131.5562,-303.8314C134.1512,-296.0463 137.2424,-286.7729 140.1218,-278.1347"/>
<polygon fill="#000000" stroke="#000000" points="143.5203,-279.0069 143.3622,-268.4133 136.8795,-276.7933 143.5203,-279.0069"/>
</g>
<!-- [root] azurerm_resource_group.rg -->
<g id="node_2" class="node">
<title>[root] azurerm_resource_group.rg</title>
<polygon fill="none" stroke="#000000" points=".5,-178 .5,-193 111.5,-193 111.5,-178 .5,-178"/>
<text text-anchor="start" x="3.1914" y="-183.6" font-family="courier new" font-size="8.00" fill="#000000">azurerm_resource_group</text>
<polygon fill="none" stroke="#000000" points=".5,-163 .5,-178 111.5,-178 111.5,-163 .5,-163"/>
<text text-anchor="start" x="51.1992" y="-168.6" font-family="courier new" font-size="8.00" fill="#000000">rg</text>
</g>
<!-- [root] azurerm_cdn_profile.cdn&#45;&gt;[root] azurerm_resource_group.rg -->
<g id="edge_2" class="edge">
<title>[root] azurerm_cdn_profile.cdn&#45;&gt;[root] azurerm_resource_group.rg</title>
<path fill="none" stroke="#000000" d="M55.5,-231.8314C55.5,-224.131 55.5,-214.9743 55.5,-206.4166"/>
<polygon fill="#000000" stroke="#000000" points="59.0001,-206.4132 55.5,-196.4133 52.0001,-206.4133 59.0001,-206.4132"/>
</g>
<!-- [root] provider.azurerm -->
<g id="node_4" class="node">
<title>[root] provider.azurerm</title>
<polygon fill="none" stroke="#000000" points="6.5,-106 6.5,-121 50.5,-121 50.5,-106 6.5,-106"/>
<text text-anchor="start" x="9.2969" y="-111.6" font-family="courier new" font-size="8.00" fill="#000000">provider</text>
<polygon fill="none" stroke="#000000" points="6.5,-91 6.5,-106 50.5,-106 50.5,-91 6.5,-91"/>
<text text-anchor="start" x="11.6973" y="-96.6" font-family="courier new" font-size="8.00" fill="#000000">azurerm</text>
</g>
<!-- [root] azurerm_resource_group.rg&#45;&gt;[root] provider.azurerm -->
<g id="edge_3" class="edge">
<title>[root] azurerm_resource_group.rg&#45;&gt;[root] provider.azurerm</title>
<path fill="none" stroke="#000000" d="M48.6868,-159.8314C45.7356,-151.9617 42.2142,-142.5712 38.945,-133.8533"/>
<polygon fill="#000000" stroke="#000000" points="42.1934,-132.5476 35.405,-124.4133 35.6391,-135.0055 42.1934,-132.5476"/>
</g>
<!-- [root] var.location -->
<g id="node_6" class="node">
<title>[root] var.location</title>
<polygon fill="none" stroke="#000000" points="82.5,-106 82.5,-121 126.5,-121 126.5,-106 82.5,-106"/>
<text text-anchor="start" x="97.2988" y="-111.6" font-family="courier new" font-size="8.00" fill="#000000">var</text>
<polygon fill="none" stroke="#000000" points="82.5,-91 82.5,-106 126.5,-106 126.5,-91 82.5,-91"/>
<text text-anchor="start" x="85.2969" y="-96.6" font-family="courier new" font-size="8.00" fill="#000000">location</text>
</g>
<!-- [root] azurerm_resource_group.rg&#45;&gt;[root] var.location -->
<g id="edge_4" class="edge">
<title>[root] azurerm_resource_group.rg&#45;&gt;[root] var.location</title>
<path fill="none" stroke="#000000" d="M67.8648,-159.8314C73.4509,-151.6232 80.163,-141.7606 86.3072,-132.7323"/>
<polygon fill="#000000" stroke="#000000" points="89.236,-134.6496 91.9687,-124.4133 83.449,-130.7112 89.236,-134.6496"/>
</g>
<!-- [root] azurerm_storage_account.stor -->
<g id="node_3" class="node">
<title>[root] azurerm_storage_account.stor</title>
<polygon fill="none" stroke="#000000" points="174.5,-394 174.5,-409 290.5,-409 290.5,-394 174.5,-394"/>
<text text-anchor="start" x="177.291" y="-399.6" font-family="courier new" font-size="8.00" fill="#000000">azurerm_storage_account</text>
<polygon fill="none" stroke="#000000" points="174.5,-379 174.5,-394 290.5,-394 290.5,-379 174.5,-379"/>
<text text-anchor="start" x="222.8984" y="-384.6" font-family="courier new" font-size="8.00" fill="#000000">stor</text>
</g>
<!-- [root] azurerm_storage_account.stor&#45;&gt;[root] azurerm_resource_group.rg -->
<g id="edge_6" class="edge">
<title>[root] azurerm_storage_account.stor&#45;&gt;[root] azurerm_resource_group.rg</title>
<path fill="none" stroke="#000000" d="M227.7007,-375.6479C225.5011,-367.2253 222.863,-357.1073 220.5,-348 206.2054,-292.9076 227.0955,-265.8317 188.5,-224 170.9534,-204.9822 145.162,-193.8269 120.9506,-187.2836"/>
<polygon fill="#000000" stroke="#000000" points="121.6071,-183.8405 111.0589,-184.8331 119.9239,-190.6351 121.6071,-183.8405"/>
</g>
<!-- [root] var.storage_account_tier -->
<g id="node_8" class="node">
<title>[root] var.storage_account_tier</title>
<polygon fill="none" stroke="#000000" points="237.5,-322 237.5,-337 339.5,-337 339.5,-322 237.5,-322"/>
<text text-anchor="start" x="281.2988" y="-327.6" font-family="courier new" font-size="8.00" fill="#000000">var</text>
<polygon fill="none" stroke="#000000" points="237.5,-307 237.5,-322 339.5,-322 339.5,-307 237.5,-307"/>
<text text-anchor="start" x="240.4922" y="-312.6" font-family="courier new" font-size="8.00" fill="#000000">storage_account_tier</text>
</g>
<!-- [root] azurerm_storage_account.stor&#45;&gt;[root] var.storage_account_tier -->
<g id="edge_7" class="edge">
<title>[root] azurerm_storage_account.stor&#45;&gt;[root] var.storage_account_tier</title>
<path fill="none" stroke="#000000" d="M246.6312,-375.8314C253.0811,-367.5386 260.8445,-357.557 267.9252,-348.4533"/>
<polygon fill="#000000" stroke="#000000" points="270.8019,-350.4556 274.1786,-340.4133 265.2764,-346.158 270.8019,-350.4556"/>
</g>
<!-- [root] meta.count&#45;boundary (count boundary fixup) -->
<g id="node_10" class="node">
<title>[root] meta.count&#45;boundary (count boundary fixup)</title>
<polygon fill="none" stroke="#000000" points="84.5,-466 84.5,-481 157.5,-481 157.5,-466 84.5,-466"/>
<text text-anchor="start" x="111.3984" y="-471.6" font-family="courier new" font-size="8.00" fill="#000000">meta</text>
<polygon fill="none" stroke="#000000" points="84.5,-451 84.5,-466 157.5,-466 157.5,-451 84.5,-451"/>
<text text-anchor="start" x="87.3945" y="-456.6" font-family="courier new" font-size="8.00" fill="#000000">count&#45;boundary</text>
</g>
<!-- [root] meta.count&#45;boundary (count boundary fixup)&#45;&gt;[root] azurerm_storage_account.stor -->
<g id="edge_9" class="edge">
<title>[root] meta.count&#45;boundary (count boundary fixup)&#45;&gt;[root] azurerm_storage_account.stor</title>
<path fill="none" stroke="#000000" d="M148.7623,-447.8314C162.9552,-438.7074 180.3282,-427.539 195.5636,-417.7449"/>
<polygon fill="#000000" stroke="#000000" points="197.7276,-420.5146 204.2467,-412.1628 193.9422,-414.6263 197.7276,-420.5146"/>
</g>
<!-- [root] output.CDN Endpoint ID -->
<g id="node_11" class="node">
<title>[root] output.CDN Endpoint ID</title>
<polygon fill="none" stroke="#000000" points="74.5,-394 74.5,-409 108.5,-409 108.5,-394 74.5,-394"/>
<text text-anchor="start" x="77.0977" y="-399.6" font-family="courier new" font-size="8.00" fill="#000000">output</text>
<polygon fill="none" stroke="#000000" points="74.5,-379 74.5,-394 108.5,-394 108.5,-379 74.5,-379"/>
<text text-anchor="start" x="84.2988" y="-384.6" font-family="courier new" font-size="8.00" fill="#000000">CDN</text>
</g>
<!-- [root] meta.count&#45;boundary (count boundary fixup)&#45;&gt;[root] output.CDN Endpoint ID -->
<g id="edge_10" class="edge">
<title>[root] meta.count&#45;boundary (count boundary fixup)&#45;&gt;[root] output.CDN Endpoint ID</title>
<path fill="none" stroke="#000000" d="M113.1821,-447.8314C110.0124,-439.9617 106.23,-430.5712 102.7187,-421.8533"/>
<polygon fill="#000000" stroke="#000000" points="105.8992,-420.3815 98.9165,-412.4133 99.4061,-422.9968 105.8992,-420.3815"/>
</g>
<!-- [root] provider.azurerm (close) -->
<g id="node_12" class="node">
<title>[root] provider.azurerm (close)</title>
<polygon fill="none" stroke="#000000" points="180.5,-466 180.5,-481 224.5,-481 224.5,-466 180.5,-466"/>
<text text-anchor="start" x="183.2969" y="-471.6" font-family="courier new" font-size="8.00" fill="#000000">provider</text>
<polygon fill="none" stroke="#000000" points="180.5,-451 180.5,-466 224.5,-466 224.5,-451 180.5,-451"/>
<text text-anchor="start" x="185.6973" y="-456.6" font-family="courier new" font-size="8.00" fill="#000000">azurerm</text>
</g>
<!-- [root] provider.azurerm (close)&#45;&gt;[root] azurerm_cdn_endpoint.cdnendpt -->
<g id="edge_12" class="edge">
<title>[root] provider.azurerm (close)&#45;&gt;[root] azurerm_cdn_endpoint.cdnendpt</title>
<path fill="none" stroke="#000000" d="M185.7079,-447.6582C178.8593,-439.5721 171.2232,-429.7131 165.5,-420 152.2523,-397.5165 141.3936,-369.8212 134.3499,-349.6148"/>
<polygon fill="#000000" stroke="#000000" points="137.6409,-348.4209 131.1134,-340.0756 131.012,-350.67 137.6409,-348.4209"/>
</g>
<!-- [root] provider.azurerm (close)&#45;&gt;[root] azurerm_storage_account.stor -->
<g id="edge_13" class="edge">
<title>[root] provider.azurerm (close)&#45;&gt;[root] azurerm_storage_account.stor</title>
<path fill="none" stroke="#000000" d="M210.0703,-447.8314C213.3493,-439.9617 217.262,-430.5712 220.8945,-421.8533"/>
<polygon fill="#000000" stroke="#000000" points="224.2124,-422.9902 224.8278,-412.4133 217.7508,-420.2979 224.2124,-422.9902"/>
</g>
<!-- [root] root -->
<g id="node_13" class="node">
<title>[root] root</title>
<polygon fill="none" stroke="#000000" points="195.8089,-556 127.1911,-556 127.1911,-520 195.8089,-520 195.8089,-556"/>
<text text-anchor="middle" x="161.5" y="-536.1313" font-family="courier new" font-size="8.00" fill="#000000">[root] root</text>
</g>
<!-- [root] root&#45;&gt;[root] meta.count&#45;boundary (count boundary fixup) -->
<g id="edge_14" class="edge">
<title>[root] root&#45;&gt;[root] meta.count&#45;boundary (count boundary fixup)</title>
<path fill="none" stroke="#000000" d="M151.154,-519.8314C146.5763,-511.7925 141.0948,-502.1666 136.0412,-493.2918"/>
<polygon fill="#000000" stroke="#000000" points="138.9752,-491.3712 130.9853,-484.4133 132.8923,-494.8351 138.9752,-491.3712"/>
</g>
<!-- [root] root&#45;&gt;[root] provider.azurerm (close) -->
<g id="edge_15" class="edge">
<title>[root] root&#45;&gt;[root] provider.azurerm (close)</title>
<path fill="none" stroke="#000000" d="M171.846,-519.8314C176.4237,-511.7925 181.9052,-502.1666 186.9588,-493.2918"/>
<polygon fill="#000000" stroke="#000000" points="190.1077,-494.8351 192.0147,-484.4133 184.0248,-491.3712 190.1077,-494.8351"/>
</g>
<!-- [root] var.resource_group -->
<g id="node_7" class="node">
<title>[root] var.resource_group</title>
<polygon fill="none" stroke="#000000" points="72.5,-34 72.5,-49 145.5,-49 145.5,-34 72.5,-34"/>
<text text-anchor="start" x="101.7988" y="-39.6" font-family="courier new" font-size="8.00" fill="#000000">var</text>
<polygon fill="none" stroke="#000000" points="72.5,-19 72.5,-34 145.5,-34 145.5,-19 72.5,-19"/>
<text text-anchor="start" x="75.3945" y="-24.6" font-family="courier new" font-size="8.00" fill="#000000">resource_group</text>
</g>
<!-- [root] var.location&#45;&gt;[root] var.resource_group -->
<g id="edge_16" class="edge">
<title>[root] var.location&#45;&gt;[root] var.resource_group</title>
<path fill="none" stroke="#000000" stroke-dasharray="5,2" d="M105.5094,-87.8314C106.1111,-77 106.8729,-63.2876 107.477,-52.4133"/>
</g>
<!-- [root] var.storage_replication_type -->
<g id="node_9" class="node">
<title>[root] var.storage_replication_type</title>
<polygon fill="none" stroke="#000000" points="233.5,-250 233.5,-265 354.5,-265 354.5,-250 233.5,-250"/>
<text text-anchor="start" x="286.7988" y="-255.6" font-family="courier new" font-size="8.00" fill="#000000">var</text>
<polygon fill="none" stroke="#000000" points="233.5,-235 233.5,-250 354.5,-250 354.5,-235 233.5,-235"/>
<text text-anchor="start" x="236.3906" y="-240.6" font-family="courier new" font-size="8.00" fill="#000000">storage_replication_type</text>
</g>
<!-- [root] var.storage_account_tier&#45;&gt;[root] var.storage_replication_type -->
<g id="edge_17" class="edge">
<title>[root] var.storage_account_tier&#45;&gt;[root] var.storage_replication_type</title>
<path fill="none" stroke="#000000" stroke-dasharray="5,2" d="M289.7617,-303.8314C290.5139,-293 291.4661,-279.2876 292.2213,-268.4133"/>
</g>
<!-- [root] output.CDN Endpoint ID&#45;&gt;[root] azurerm_cdn_endpoint.cdnendpt -->
<g id="edge_11" class="edge">
<title>[root] output.CDN Endpoint ID&#45;&gt;[root] azurerm_cdn_endpoint.cdnendpt</title>
<path fill="none" stroke="#000000" d="M100.0796,-375.8314C103.8358,-367.8771 108.3257,-358.369 112.4798,-349.5723"/>
<polygon fill="#000000" stroke="#000000" points="115.6996,-350.9503 116.8048,-340.4133 109.3699,-347.9612 115.6996,-350.9503"/>
</g>
</g>
</svg>

