<?xml version="1.0" encoding="UTF-8" standalone="no"?>
<!DOCTYPE svg PUBLIC "-//W3C//DTD SVG 1.1//EN"
 "http://www.w3.org/Graphics/SVG/1.1/DTD/svg11.dtd">
<!-- Generated by graphviz version 2.40.1 (20161225.0304)
 -->
<!-- Title: %3 Pages: 1 -->
<svg width="476pt" height="476pt"
 viewBox="0.00 0.00 475.50 476.00" xmlns="http://www.w3.org/2000/svg" xmlns:xlink="http://www.w3.org/1999/xlink">
<g id="graph0" class="graph" transform="scale(1 1) rotate(0) translate(4 472)">
<title>%3</title>
<polygon fill="#ffffff" stroke="transparent" points="-4,4 -4,-472 471.5,-472 471.5,4 -4,4"/>
<!-- [root] azurerm_cdn_endpoint.cdnendpt -->
<g id="node_0" class="node">
<title>[root] azurerm_cdn_endpoint.cdnendpt</title>
<polygon fill="none" stroke="#000000" points="68,-234 68,-249 170,-249 170,-234 68,-234"/>
<text text-anchor="start" x="70.9922" y="-239.6" font-family="courier new" font-size="8.00" fill="#000000">azurerm_cdn_endpoint</text>
<polygon fill="none" stroke="#000000" points="68,-219 68,-234 170,-234 170,-219 68,-219"/>
<text text-anchor="start" x="99.7969" y="-224.6" font-family="courier new" font-size="8.00" fill="#000000">cdnendpt</text>
</g>
<!-- [root] azurerm_cdn_profile.cdn -->
<g id="node_1" class="node">
<title>[root] azurerm_cdn_profile.cdn</title>
<polygon fill="none" stroke="#000000" points="73,-162 73,-177 170,-177 170,-162 73,-162"/>
<text text-anchor="start" x="75.8926" y="-167.6" font-family="courier new" font-size="8.00" fill="#000000">azurerm_cdn_profile</text>
<polygon fill="none" stroke="#000000" points="73,-147 73,-162 170,-162 170,-147 73,-147"/>
<text text-anchor="start" x="114.2988" y="-152.6" font-family="courier new" font-size="8.00" fill="#000000">cdn</text>
</g>
<!-- [root] azurerm_cdn_endpoint.cdnendpt&#45;&gt;[root] azurerm_cdn_profile.cdn -->
<g id="edge_0" class="edge">
<title>[root] azurerm_cdn_endpoint.cdnendpt&#45;&gt;[root] azurerm_cdn_profile.cdn</title>
<path fill="none" stroke="#000000" d="M119.5047,-215.8314C119.7186,-208.131 119.9729,-198.9743 120.2106,-190.4166"/>
<polygon fill="#000000" stroke="#000000" points="123.7094,-190.5066 120.4885,-180.4133 116.7121,-190.3122 123.7094,-190.5066"/>
</g>
<!-- [root] var.host_name -->
<g id="node_5" class="node">
<title>[root] var.host_name</title>
<polygon fill="none" stroke="#000000" points="3,-162 3,-177 52,-177 52,-162 3,-162"/>
<text text-anchor="start" x="20.2988" y="-167.6" font-family="courier new" font-size="8.00" fill="#000000">var</text>
<polygon fill="none" stroke="#000000" points="3,-147 3,-162 52,-162 52,-147 3,-147"/>
<text text-anchor="start" x="5.8965" y="-152.6" font-family="courier new" font-size="8.00" fill="#000000">host_name</text>
</g>
<!-- [root] azurerm_cdn_endpoint.cdnendpt&#45;&gt;[root] var.host_name -->
<g id="edge_1" class="edge">
<title>[root] azurerm_cdn_endpoint.cdnendpt&#45;&gt;[root] var.host_name</title>
<path fill="none" stroke="#000000" d="M95.7845,-215.8314C84.453,-206.9632 70.6536,-196.1637 58.3973,-186.5718"/>
<polygon fill="#000000" stroke="#000000" points="60.2402,-183.5697 50.2081,-180.1628 55.926,-189.0822 60.2402,-183.5697"/>
</g>
<!-- [root] azurerm_resource_group.rg -->
<g id="node_2" class="node">
<title>[root] azurerm_resource_group.rg</title>
<polygon fill="none" stroke="#000000" points="104,-90 104,-105 215,-105 215,-90 104,-90"/>
<text text-anchor="start" x="106.6914" y="-95.6" font-family="courier new" font-size="8.00" fill="#000000">azurerm_resource_group</text>
<polygon fill="none" stroke="#000000" points="104,-75 104,-90 215,-90 215,-75 104,-75"/>
<text text-anchor="start" x="154.6992" y="-80.6" font-family="courier new" font-size="8.00" fill="#000000">rg</text>
</g>
<!-- [root] azurerm_cdn_profile.cdn&#45;&gt;[root] azurerm_resource_group.rg -->
<g id="edge_2" class="edge">
<title>[root] azurerm_cdn_profile.cdn&#45;&gt;[root] azurerm_resource_group.rg</title>
<path fill="none" stroke="#000000" d="M130.589,-143.8314C134.8317,-135.7925 139.9121,-126.1666 144.596,-117.2918"/>
<polygon fill="#000000" stroke="#000000" points="147.7096,-118.8908 149.2819,-108.4133 141.5189,-115.6235 147.7096,-118.8908"/>
</g>
<!-- [root] provider.azurerm -->
<g id="node_4" class="node">
<title>[root] provider.azurerm</title>
<polygon fill="none" stroke="#000000" points="65,-18 65,-33 109,-33 109,-18 65,-18"/>
<text text-anchor="start" x="67.7969" y="-23.6" font-family="courier new" font-size="8.00" fill="#000000">provider</text>
<polygon fill="none" stroke="#000000" points="65,-3 65,-18 109,-18 109,-3 65,-3"/>
<text text-anchor="start" x="70.1973" y="-8.6" font-family="courier new" font-size="8.00" fill="#000000">azurerm</text>
</g>
<!-- [root] azurerm_resource_group.rg&#45;&gt;[root] provider.azurerm -->
<g id="edge_3" class="edge">
<title>[root] azurerm_resource_group.rg&#45;&gt;[root] provider.azurerm</title>
<path fill="none" stroke="#000000" d="M140.8314,-71.8314C132.2848,-63.2848 121.9443,-52.9443 112.6198,-43.6198"/>
<polygon fill="#000000" stroke="#000000" points="114.9592,-41.0095 105.4133,-36.4133 110.0095,-45.9592 114.9592,-41.0095"/>
</g>
<!-- [root] var.location -->
<g id="node_6" class="node">
<title>[root] var.location</title>
<polygon fill="none" stroke="#000000" points="137,-18 137,-33 181,-33 181,-18 137,-18"/>
<text text-anchor="start" x="151.7988" y="-23.6" font-family="courier new" font-size="8.00" fill="#000000">var</text>
<polygon fill="none" stroke="#000000" points="137,-3 137,-18 181,-18 181,-3 137,-3"/>
<text text-anchor="start" x="139.7969" y="-8.6" font-family="courier new" font-size="8.00" fill="#000000">location</text>
</g>
<!-- [root] azurerm_resource_group.rg&#45;&gt;[root] var.location -->
<g id="edge_4" class="edge">
<title>[root] azurerm_resource_group.rg&#45;&gt;[root] var.location</title>
<path fill="none" stroke="#000000" d="M159,-71.8314C159,-64.131 159,-54.9743 159,-46.4166"/>
<polygon fill="#000000" stroke="#000000" points="162.5001,-46.4132 159,-36.4133 155.5001,-46.4133 162.5001,-46.4132"/>
</g>
<!-- [root] var.resource_group -->
<g id="node_7" class="node">
<title>[root] var.resource_group</title>
<polygon fill="none" stroke="#000000" points="205,-18 205,-33 278,-33 278,-18 205,-18"/>
<text text-anchor="start" x="234.2988" y="-23.6" font-family="courier new" font-size="8.00" fill="#000000">var</text>
<polygon fill="none" stroke="#000000" points="205,-3 205,-18 278,-18 278,-3 205,-3"/>
<text text-anchor="start" x="207.8945" y="-8.6" font-family="courier new" font-size="8.00" fill="#000000">resource_group</text>
</g>
<!-- [root] azurerm_resource_group.rg&#45;&gt;[root] var.resource_group -->
<g id="edge_5" class="edge">
<title>[root] azurerm_resource_group.rg&#45;&gt;[root] var.resource_group</title>
<path fill="none" stroke="#000000" d="M179.6921,-71.8314C189.6948,-63.0485 201.855,-52.3712 212.6999,-42.8489"/>
<polygon fill="#000000" stroke="#000000" points="215.1094,-45.3909 220.3146,-36.1628 210.4908,-40.1308 215.1094,-45.3909"/>
</g>
<!-- [root] azurerm_storage_account.stor -->
<g id="node_3" class="node">
<title>[root] azurerm_storage_account.stor</title>
<polygon fill="none" stroke="#000000" points="219,-306 219,-321 335,-321 335,-306 219,-306"/>
<text text-anchor="start" x="221.791" y="-311.6" font-family="courier new" font-size="8.00" fill="#000000">azurerm_storage_account</text>
<polygon fill="none" stroke="#000000" points="219,-291 219,-306 335,-306 335,-291 219,-291"/>
<text text-anchor="start" x="267.3984" y="-296.6" font-family="courier new" font-size="8.00" fill="#000000">stor</text>
</g>
<!-- [root] azurerm_storage_account.stor&#45;&gt;[root] azurerm_resource_group.rg -->
<g id="edge_6" class="edge">
<title>[root] azurerm_storage_account.stor&#45;&gt;[root] azurerm_resource_group.rg</title>
<path fill="none" stroke="#000000" d="M251.49,-287.8361C239.6396,-278.3059 226.175,-265.758 217,-252 188.768,-209.6657 196.2815,-191.8601 179,-144 175.9585,-135.5769 172.5968,-126.4367 169.5113,-118.1127"/>
<polygon fill="#000000" stroke="#000000" points="172.6905,-116.6202 165.9247,-108.467 166.1294,-119.0598 172.6905,-116.6202"/>
</g>
<!-- [root] var.storage_account_tier -->
<g id="node_8" class="node">
<title>[root] var.storage_account_tier</title>
<polygon fill="none" stroke="#000000" points="226,-234 226,-249 328,-249 328,-234 226,-234"/>
<text text-anchor="start" x="269.7988" y="-239.6" font-family="courier new" font-size="8.00" fill="#000000">var</text>
<polygon fill="none" stroke="#000000" points="226,-219 226,-234 328,-234 328,-219 226,-219"/>
<text text-anchor="start" x="228.9922" y="-224.6" font-family="courier new" font-size="8.00" fill="#000000">storage_account_tier</text>
</g>
<!-- [root] azurerm_storage_account.stor&#45;&gt;[root] var.storage_account_tier -->
<g id="edge_7" class="edge">
<title>[root] azurerm_storage_account.stor&#45;&gt;[root] var.storage_account_tier</title>
<path fill="none" stroke="#000000" d="M277,-287.8314C277,-280.131 277,-270.9743 277,-262.4166"/>
<polygon fill="#000000" stroke="#000000" points="280.5001,-262.4132 277,-252.4133 273.5001,-262.4133 280.5001,-262.4132"/>
</g>
<!-- [root] var.storage_replication_type -->
<g id="node_9" class="node">
<title>[root] var.storage_replication_type</title>
<polygon fill="none" stroke="#000000" points="347,-234 347,-249 468,-249 468,-234 347,-234"/>
<text text-anchor="start" x="400.2988" y="-239.6" font-family="courier new" font-size="8.00" fill="#000000">var</text>
<polygon fill="none" stroke="#000000" points="347,-219 347,-234 468,-234 468,-219 347,-219"/>
<text text-anchor="start" x="349.8906" y="-224.6" font-family="courier new" font-size="8.00" fill="#000000">storage_replication_type</text>
</g>
<!-- [root] azurerm_storage_account.stor&#45;&gt;[root] var.storage_replication_type -->
<g id="edge_8" class="edge">
<title>[root] azurerm_storage_account.stor&#45;&gt;[root] var.storage_replication_type</title>
<path fill="none" stroke="#000000" d="M309.8045,-287.8314C326.5862,-278.5368 347.1985,-267.1208 365.1163,-257.1971"/>
<polygon fill="#000000" stroke="#000000" points="367.1538,-260.0696 374.206,-252.1628 363.7623,-253.9461 367.1538,-260.0696"/>
</g>
<!-- [root] meta.count&#45;boundary (count boundary fixup) -->
<g id="node_10" class="node">
<title>[root] meta.count&#45;boundary (count boundary fixup)</title>
<polygon fill="none" stroke="#000000" points="203,-378 203,-393 276,-393 276,-378 203,-378"/>
<text text-anchor="start" x="229.8984" y="-383.6" font-family="courier new" font-size="8.00" fill="#000000">meta</text>
<polygon fill="none" stroke="#000000" points="203,-363 203,-378 276,-378 276,-363 203,-363"/>
<text text-anchor="start" x="205.8945" y="-368.6" font-family="courier new" font-size="8.00" fill="#000000">count&#45;boundary</text>
</g>
<!-- [root] meta.count&#45;boundary (count boundary fixup)&#45;&gt;[root] azurerm_storage_account.stor -->
<g id="edge_9" class="edge">
<title>[root] meta.count&#45;boundary (count boundary fixup)&#45;&gt;[root] azurerm_storage_account.stor</title>
<path fill="none" stroke="#000000" d="M248.589,-359.8314C252.8317,-351.7925 257.9121,-342.1666 262.596,-333.2918"/>
<polygon fill="#000000" stroke="#000000" points="265.7096,-334.8908 267.2819,-324.4133 259.5189,-331.6235 265.7096,-334.8908"/>
</g>
<!-- [root] output.CDN Endpoint ID -->
<g id="node_11" class="node">
<title>[root] output.CDN Endpoint ID</title>
<polygon fill="none" stroke="#000000" points="157,-306 157,-321 191,-321 191,-306 157,-306"/>
<text text-anchor="start" x="159.5977" y="-311.6" font-family="courier new" font-size="8.00" fill="#000000">output</text>
<polygon fill="none" stroke="#000000" points="157,-291 157,-306 191,-306 191,-291 157,-291"/>
<text text-anchor="start" x="166.7988" y="-296.6" font-family="courier new" font-size="8.00" fill="#000000">CDN</text>
</g>
<!-- [root] meta.count&#45;boundary (count boundary fixup)&#45;&gt;[root] output.CDN Endpoint ID -->
<g id="edge_10" class="edge">
<title>[root] meta.count&#45;boundary (count boundary fixup)&#45;&gt;[root] output.CDN Endpoint ID</title>
<path fill="none" stroke="#000000" d="M222.5978,-359.8314C214.9585,-351.3694 205.7317,-341.1489 197.3793,-331.8971"/>
<polygon fill="#000000" stroke="#000000" points="199.9221,-329.4906 190.6231,-324.4133 194.7262,-334.1813 199.9221,-329.4906"/>
</g>
<!-- [root] output.CDN Endpoint ID&#45;&gt;[root] azurerm_cdn_endpoint.cdnendpt -->
<g id="edge_11" class="edge">
<title>[root] output.CDN Endpoint ID&#45;&gt;[root] azurerm_cdn_endpoint.cdnendpt</title>
<path fill="none" stroke="#000000" d="M160.1212,-287.8314C153.7864,-279.5386 146.1616,-269.557 139.2074,-260.4533"/>
<polygon fill="#000000" stroke="#000000" points="141.9175,-258.2353 133.0657,-252.4133 136.3548,-262.4847 141.9175,-258.2353"/>
</g>
<!-- [root] provider.azurerm (close) -->
<g id="node_12" class="node">
<title>[root] provider.azurerm (close)</title>
<polygon fill="none" stroke="#000000" points="135,-378 135,-393 179,-393 179,-378 135,-378"/>
<text text-anchor="start" x="137.7969" y="-383.6" font-family="courier new" font-size="8.00" fill="#000000">provider</text>
<polygon fill="none" stroke="#000000" points="135,-363 135,-378 179,-378 179,-363 135,-363"/>
<text text-anchor="start" x="140.1973" y="-368.6" font-family="courier new" font-size="8.00" fill="#000000">azurerm</text>
</g>
<!-- [root] provider.azurerm (close)&#45;&gt;[root] azurerm_cdn_endpoint.cdnendpt -->
<g id="edge_12" class="edge">
<title>[root] provider.azurerm (close)&#45;&gt;[root] azurerm_cdn_endpoint.cdnendpt</title>
<path fill="none" stroke="#000000" d="M149.8911,-359.6955C146.0341,-349.3278 141.3786,-336.058 138,-324 132.2642,-303.5291 127.3558,-280.0109 123.9655,-262.1505"/>
<polygon fill="#000000" stroke="#000000" points="127.3661,-261.2923 122.1034,-252.097 120.4832,-262.5672 127.3661,-261.2923"/>
</g>
<!-- [root] provider.azurerm (close)&#45;&gt;[root] azurerm_storage_account.stor -->
<g id="edge_13" class="edge">
<title>[root] provider.azurerm (close)&#45;&gt;[root] azurerm_storage_account.stor</title>
<path fill="none" stroke="#000000" d="M184.2299,-361.6621C200.1291,-352.1226 220.4567,-339.926 238.0293,-329.3824"/>
<polygon fill="#000000" stroke="#000000" points="240.1552,-332.1886 246.9294,-324.0423 236.5537,-326.1861 240.1552,-332.1886"/>
</g>
<!-- [root] root -->
<g id="node_13" class="node">
<title>[root] root</title>
<polygon fill="none" stroke="#000000" points="232.3089,-468 163.6911,-468 163.6911,-432 232.3089,-432 232.3089,-468"/>
<text text-anchor="middle" x="198" y="-448.1313" font-family="courier new" font-size="8.00" fill="#000000">[root] root</text>
</g>
<!-- [root] root&#45;&gt;[root] meta.count&#45;boundary (count boundary fixup) -->
<g id="edge_14" class="edge">
<title>[root] root&#45;&gt;[root] meta.count&#45;boundary (count boundary fixup)</title>
<path fill="none" stroke="#000000" d="M208.346,-431.8314C212.9237,-423.7925 218.4052,-414.1666 223.4588,-405.2918"/>
<polygon fill="#000000" stroke="#000000" points="226.6077,-406.8351 228.5147,-396.4133 220.5248,-403.3712 226.6077,-406.8351"/>
</g>
<!-- [root] root&#45;&gt;[root] provider.azurerm (close) -->
<g id="edge_15" class="edge">
<title>[root] root&#45;&gt;[root] provider.azurerm (close)</title>
<path fill="none" stroke="#000000" d="M187.654,-431.8314C183.0763,-423.7925 177.5948,-414.1666 172.5412,-405.2918"/>
<polygon fill="#000000" stroke="#000000" points="175.4752,-403.3712 167.4853,-396.4133 169.3923,-406.8351 175.4752,-403.3712"/>
</g>
</g>
</svg>

