<?xml version="1.0" encoding="UTF-8" standalone="no"?>
<!DOCTYPE svg PUBLIC "-//W3C//DTD SVG 1.1//EN"
 "http://www.w3.org/Graphics/SVG/1.1/DTD/svg11.dtd">
<!-- Generated by graphviz version 2.40.1 (20161225.0304)
 -->
<!-- Title: %3 Pages: 1 -->
<svg width="456pt" height="620pt"
 viewBox="0.00 0.00 456.00 620.00" xmlns="http://www.w3.org/2000/svg" xmlns:xlink="http://www.w3.org/1999/xlink">
<g id="graph0" class="graph" transform="scale(1 1) rotate(0) translate(4 616)">
<title>%3</title>
<polygon fill="#ffffff" stroke="transparent" points="-4,4 -4,-616 452,-616 452,4 -4,4"/>
<!-- [root] aws_elb.web -->
<g id="node_0" class="node">
<title>[root] aws_elb.web</title>
<polygon fill="none" stroke="#000000" points="248,-378 248,-393 287,-393 287,-378 248,-378"/>
<text text-anchor="start" x="250.6973" y="-383.6" font-family="courier new" font-size="8.00" fill="#000000">aws_elb</text>
<polygon fill="none" stroke="#000000" points="248,-363 248,-378 287,-378 287,-363 248,-363"/>
<text text-anchor="start" x="260.2988" y="-368.6" font-family="courier new" font-size="8.00" fill="#000000">web</text>
</g>
<!-- [root] aws_instance.web -->
<g id="node_1" class="node">
<title>[root] aws_instance.web</title>
<polygon fill="none" stroke="#000000" points="257,-306 257,-321 320,-321 320,-306 257,-306"/>
<text text-anchor="start" x="259.6953" y="-311.6" font-family="courier new" font-size="8.00" fill="#000000">aws_instance</text>
<polygon fill="none" stroke="#000000" points="257,-291 257,-306 320,-306 320,-291 257,-291"/>
<text text-anchor="start" x="281.2988" y="-296.6" font-family="courier new" font-size="8.00" fill="#000000">web</text>
</g>
<!-- [root] aws_elb.web&#45;&gt;[root] aws_instance.web -->
<g id="edge_0" class="edge">
<title>[root] aws_elb.web&#45;&gt;[root] aws_instance.web</title>
<path fill="none" stroke="#000000" d="M272.2992,-359.8314C274.5698,-352.0463 277.2746,-342.7729 279.794,-334.1347"/>
<polygon fill="#000000" stroke="#000000" points="283.1894,-334.9933 282.6295,-324.4133 276.4694,-333.0332 283.1894,-334.9933"/>
</g>
<!-- [root] aws_security_group.elb -->
<g id="node_7" class="node">
<title>[root] aws_security_group.elb</title>
<polygon fill="none" stroke="#000000" points="146,-306 146,-321 238,-321 238,-306 146,-306"/>
<text text-anchor="start" x="148.793" y="-311.6" font-family="courier new" font-size="8.00" fill="#000000">aws_security_group</text>
<polygon fill="none" stroke="#000000" points="146,-291 146,-306 238,-306 238,-291 146,-291"/>
<text text-anchor="start" x="184.7988" y="-296.6" font-family="courier new" font-size="8.00" fill="#000000">elb</text>
</g>
<!-- [root] aws_elb.web&#45;&gt;[root] aws_security_group.elb -->
<g id="edge_1" class="edge">
<title>[root] aws_elb.web&#45;&gt;[root] aws_security_group.elb</title>
<path fill="none" stroke="#000000" d="M248.0743,-359.8314C239.0143,-351.1337 228.0191,-340.5783 218.1735,-331.1265"/>
<polygon fill="#000000" stroke="#000000" points="220.5574,-328.5633 210.9196,-324.1628 215.7096,-333.613 220.5574,-328.5633"/>
</g>
<!-- [root] aws_security_group.default -->
<g id="node_6" class="node">
<title>[root] aws_security_group.default</title>
<polygon fill="none" stroke="#000000" points="212,-234 212,-249 304,-249 304,-234 212,-234"/>
<text text-anchor="start" x="214.793" y="-239.6" font-family="courier new" font-size="8.00" fill="#000000">aws_security_group</text>
<polygon fill="none" stroke="#000000" points="212,-219 212,-234 304,-234 304,-219 212,-219"/>
<text text-anchor="start" x="241.1973" y="-224.6" font-family="courier new" font-size="8.00" fill="#000000">default</text>
</g>
<!-- [root] aws_instance.web&#45;&gt;[root] aws_security_group.default -->
<g id="edge_2" class="edge">
<title>[root] aws_instance.web&#45;&gt;[root] aws_security_group.default</title>
<path fill="none" stroke="#000000" d="M280.4297,-287.8314C277.1507,-279.9617 273.238,-270.5712 269.6055,-261.8533"/>
<polygon fill="#000000" stroke="#000000" points="272.7492,-260.2979 265.6722,-252.4133 266.2876,-262.9902 272.7492,-260.2979"/>
</g>
<!-- [root] aws_subnet.tf_test_subnet -->
<g id="node_8" class="node">
<title>[root] aws_subnet.tf_test_subnet</title>
<polygon fill="none" stroke="#000000" points="121,-234 121,-249 194,-249 194,-234 121,-234"/>
<text text-anchor="start" x="133.4961" y="-239.6" font-family="courier new" font-size="8.00" fill="#000000">aws_subnet</text>
<polygon fill="none" stroke="#000000" points="121,-219 121,-234 194,-234 194,-219 121,-219"/>
<text text-anchor="start" x="123.8945" y="-224.6" font-family="courier new" font-size="8.00" fill="#000000">tf_test_subnet</text>
</g>
<!-- [root] aws_instance.web&#45;&gt;[root] aws_subnet.tf_test_subnet -->
<g id="edge_3" class="edge">
<title>[root] aws_instance.web&#45;&gt;[root] aws_subnet.tf_test_subnet</title>
<path fill="none" stroke="#000000" d="M256.2886,-288.5708C238.9789,-279.0571 217.3339,-267.1606 198.6752,-256.9055"/>
<polygon fill="#000000" stroke="#000000" points="200.2369,-253.77 189.7875,-252.0206 196.8652,-259.9045 200.2369,-253.77"/>
</g>
<!-- [root] var.aws_amis -->
<g id="node_11" class="node">
<title>[root] var.aws_amis</title>
<polygon fill="none" stroke="#000000" points="327,-234 327,-249 371,-249 371,-234 327,-234"/>
<text text-anchor="start" x="341.7988" y="-239.6" font-family="courier new" font-size="8.00" fill="#000000">var</text>
<polygon fill="none" stroke="#000000" points="327,-219 327,-234 371,-234 371,-219 327,-219"/>
<text text-anchor="start" x="329.7969" y="-224.6" font-family="courier new" font-size="8.00" fill="#000000">aws_amis</text>
</g>
<!-- [root] aws_instance.web&#45;&gt;[root] var.aws_amis -->
<g id="edge_4" class="edge">
<title>[root] aws_instance.web&#45;&gt;[root] var.aws_amis</title>
<path fill="none" stroke="#000000" d="M303.3929,-287.8314C310.4904,-279.454 319.048,-269.3531 326.824,-260.1749"/>
<polygon fill="#000000" stroke="#000000" points="329.6061,-262.3056 333.3999,-252.4133 324.2652,-257.7807 329.6061,-262.3056"/>
</g>
<!-- [root] var.key_name -->
<g id="node_12" class="node">
<title>[root] var.key_name</title>
<polygon fill="none" stroke="#000000" points="399,-234 399,-249 443,-249 443,-234 399,-234"/>
<text text-anchor="start" x="413.7988" y="-239.6" font-family="courier new" font-size="8.00" fill="#000000">var</text>
<polygon fill="none" stroke="#000000" points="399,-219 399,-234 443,-234 443,-219 399,-219"/>
<text text-anchor="start" x="401.7969" y="-224.6" font-family="courier new" font-size="8.00" fill="#000000">key_name</text>
</g>
<!-- [root] aws_instance.web&#45;&gt;[root] var.key_name -->
<g id="edge_5" class="edge">
<title>[root] aws_instance.web&#45;&gt;[root] var.key_name</title>
<path fill="none" stroke="#000000" d="M319.5191,-288.937C339.1037,-278.3349 364.3469,-264.6693 384.7571,-253.6202"/>
<polygon fill="#000000" stroke="#000000" points="386.6292,-256.5868 393.757,-248.7481 383.2966,-250.4309 386.6292,-256.5868"/>
</g>
<!-- [root] aws_internet_gateway.gw -->
<g id="node_2" class="node">
<title>[root] aws_internet_gateway.gw</title>
<polygon fill="none" stroke="#000000" points="0,-234 0,-249 102,-249 102,-234 0,-234"/>
<text text-anchor="start" x="2.9922" y="-239.6" font-family="courier new" font-size="8.00" fill="#000000">aws_internet_gateway</text>
<polygon fill="none" stroke="#000000" points="0,-219 0,-234 102,-234 102,-219 0,-219"/>
<text text-anchor="start" x="46.1992" y="-224.6" font-family="courier new" font-size="8.00" fill="#000000">gw</text>
</g>
<!-- [root] aws_vpc.default -->
<g id="node_9" class="node">
<title>[root] aws_vpc.default</title>
<polygon fill="none" stroke="#000000" points="138,-162 138,-177 177,-177 177,-162 138,-162"/>
<text text-anchor="start" x="140.6973" y="-167.6" font-family="courier new" font-size="8.00" fill="#000000">aws_vpc</text>
<polygon fill="none" stroke="#000000" points="138,-147 138,-162 177,-162 177,-147 138,-147"/>
<text text-anchor="start" x="140.6973" y="-152.6" font-family="courier new" font-size="8.00" fill="#000000">default</text>
</g>
<!-- [root] aws_internet_gateway.gw&#45;&gt;[root] aws_vpc.default -->
<g id="edge_6" class="edge">
<title>[root] aws_internet_gateway.gw&#45;&gt;[root] aws_vpc.default</title>
<path fill="none" stroke="#000000" d="M77.7483,-215.8314C91.0553,-206.7927 107.316,-195.7476 121.6375,-186.0198"/>
<polygon fill="#000000" stroke="#000000" points="123.9547,-188.677 130.2603,-180.1628 120.0215,-182.8864 123.9547,-188.677"/>
</g>
<!-- [root] aws_lb_cookie_stickiness_policy.default -->
<g id="node_3" class="node">
<title>[root] aws_lb_cookie_stickiness_policy.default</title>
<polygon fill="none" stroke="#000000" points="170,-450 170,-465 324,-465 324,-450 170,-450"/>
<text text-anchor="start" x="172.5879" y="-455.6" font-family="courier new" font-size="8.00" fill="#000000">aws_lb_cookie_stickiness_policy</text>
<polygon fill="none" stroke="#000000" points="170,-435 170,-450 324,-450 324,-435 170,-435"/>
<text text-anchor="start" x="230.1973" y="-440.6" font-family="courier new" font-size="8.00" fill="#000000">default</text>
</g>
<!-- [root] aws_lb_cookie_stickiness_policy.default&#45;&gt;[root] aws_elb.web -->
<g id="edge_7" class="edge">
<title>[root] aws_lb_cookie_stickiness_policy.default&#45;&gt;[root] aws_elb.web</title>
<path fill="none" stroke="#000000" d="M252.0468,-431.8314C254.2094,-424.0463 256.7853,-414.7729 259.1848,-406.1347"/>
<polygon fill="#000000" stroke="#000000" points="262.581,-406.9852 261.8852,-396.4133 255.8364,-405.1117 262.581,-406.9852"/>
</g>
<!-- [root] aws_route_table.r -->
<g id="node_4" class="node">
<title>[root] aws_route_table.r</title>
<polygon fill="none" stroke="#000000" points="12,-378 12,-393 90,-393 90,-378 12,-378"/>
<text text-anchor="start" x="14.9941" y="-383.6" font-family="courier new" font-size="8.00" fill="#000000">aws_route_table</text>
<polygon fill="none" stroke="#000000" points="12,-363 12,-378 90,-378 90,-363 12,-363"/>
<text text-anchor="start" x="48.5996" y="-368.6" font-family="courier new" font-size="8.00" fill="#000000">r</text>
</g>
<!-- [root] aws_route_table.r&#45;&gt;[root] aws_internet_gateway.gw -->
<g id="edge_8" class="edge">
<title>[root] aws_route_table.r&#45;&gt;[root] aws_internet_gateway.gw</title>
<path fill="none" stroke="#000000" d="M51,-359.7623C51,-335.201 51,-291.2474 51,-262.3541"/>
<polygon fill="#000000" stroke="#000000" points="54.5001,-262.0896 51,-252.0896 47.5001,-262.0897 54.5001,-262.0896"/>
</g>
<!-- [root] aws_route_table_association.a -->
<g id="node_5" class="node">
<title>[root] aws_route_table_association.a</title>
<polygon fill="none" stroke="#000000" points="17,-450 17,-465 152,-465 152,-450 17,-450"/>
<text text-anchor="start" x="19.6895" y="-455.6" font-family="courier new" font-size="8.00" fill="#000000">aws_route_table_association</text>
<polygon fill="none" stroke="#000000" points="17,-435 17,-450 152,-450 152,-435 17,-435"/>
<text text-anchor="start" x="82.0996" y="-440.6" font-family="courier new" font-size="8.00" fill="#000000">a</text>
</g>
<!-- [root] aws_route_table_association.a&#45;&gt;[root] aws_route_table.r -->
<g id="edge_9" class="edge">
<title>[root] aws_route_table_association.a&#45;&gt;[root] aws_route_table.r</title>
<path fill="none" stroke="#000000" d="M75.6727,-431.8314C72.027,-423.8771 67.6691,-414.369 63.6373,-405.5723"/>
<polygon fill="#000000" stroke="#000000" points="66.7877,-404.0456 59.4394,-396.4133 60.4243,-406.9622 66.7877,-404.0456"/>
</g>
<!-- [root] aws_route_table_association.a&#45;&gt;[root] aws_subnet.tf_test_subnet -->
<g id="edge_10" class="edge">
<title>[root] aws_route_table_association.a&#45;&gt;[root] aws_subnet.tf_test_subnet</title>
<path fill="none" stroke="#000000" d="M89.6569,-431.9445C99.1129,-401.9415 118.8811,-339.9732 137,-288 139.948,-279.5437 143.2818,-270.3936 146.3703,-262.0706"/>
<polygon fill="#000000" stroke="#000000" points="149.7506,-263.0234 149.9736,-252.4309 143.1937,-260.5724 149.7506,-263.0234"/>
</g>
<!-- [root] aws_security_group.default&#45;&gt;[root] aws_vpc.default -->
<g id="edge_11" class="edge">
<title>[root] aws_security_group.default&#45;&gt;[root] aws_vpc.default</title>
<path fill="none" stroke="#000000" d="M232.5134,-215.8314C219.8341,-206.7927 204.3404,-195.7476 190.6945,-186.0198"/>
<polygon fill="#000000" stroke="#000000" points="192.6529,-183.1176 182.4784,-180.1628 188.5895,-188.8176 192.6529,-183.1176"/>
</g>
<!-- [root] aws_security_group.elb&#45;&gt;[root] aws_internet_gateway.gw -->
<g id="edge_12" class="edge">
<title>[root] aws_security_group.elb&#45;&gt;[root] aws_internet_gateway.gw</title>
<path fill="none" stroke="#000000" d="M156.4197,-287.8314C137.9675,-278.4089 115.2455,-266.8062 95.627,-256.7883"/>
<polygon fill="#000000" stroke="#000000" points="97.0667,-253.5935 86.5689,-252.1628 93.8832,-259.8278 97.0667,-253.5935"/>
</g>
<!-- [root] aws_subnet.tf_test_subnet&#45;&gt;[root] aws_vpc.default -->
<g id="edge_13" class="edge">
<title>[root] aws_subnet.tf_test_subnet&#45;&gt;[root] aws_vpc.default</title>
<path fill="none" stroke="#000000" d="M157,-215.8314C157,-208.131 157,-198.9743 157,-190.4166"/>
<polygon fill="#000000" stroke="#000000" points="160.5001,-190.4132 157,-180.4133 153.5001,-190.4133 160.5001,-190.4132"/>
</g>
<!-- [root] provider.aws -->
<g id="node_10" class="node">
<title>[root] provider.aws</title>
<polygon fill="none" stroke="#000000" points="135,-90 135,-105 179,-105 179,-90 135,-90"/>
<text text-anchor="start" x="137.7969" y="-95.6" font-family="courier new" font-size="8.00" fill="#000000">provider</text>
<polygon fill="none" stroke="#000000" points="135,-75 135,-90 179,-90 179,-75 135,-75"/>
<text text-anchor="start" x="149.7988" y="-80.6" font-family="courier new" font-size="8.00" fill="#000000">aws</text>
</g>
<!-- [root] aws_vpc.default&#45;&gt;[root] provider.aws -->
<g id="edge_14" class="edge">
<title>[root] aws_vpc.default&#45;&gt;[root] provider.aws</title>
<path fill="none" stroke="#000000" d="M157,-143.8314C157,-136.131 157,-126.9743 157,-118.4166"/>
<polygon fill="#000000" stroke="#000000" points="160.5001,-118.4132 157,-108.4133 153.5001,-118.4133 160.5001,-118.4132"/>
</g>
<!-- [root] var.aws_region -->
<g id="node_16" class="node">
<title>[root] var.aws_region</title>
<polygon fill="none" stroke="#000000" points="130,-18 130,-33 184,-33 184,-18 130,-18"/>
<text text-anchor="start" x="149.7988" y="-23.6" font-family="courier new" font-size="8.00" fill="#000000">var</text>
<polygon fill="none" stroke="#000000" points="130,-3 130,-18 184,-18 184,-3 130,-3"/>
<text text-anchor="start" x="132.9961" y="-8.6" font-family="courier new" font-size="8.00" fill="#000000">aws_region</text>
</g>
<!-- [root] provider.aws&#45;&gt;[root] var.aws_region -->
<g id="edge_21" class="edge">
<title>[root] provider.aws&#45;&gt;[root] var.aws_region</title>
<path fill="none" stroke="#000000" d="M157,-71.8314C157,-64.131 157,-54.9743 157,-46.4166"/>
<polygon fill="#000000" stroke="#000000" points="160.5001,-46.4132 157,-36.4133 153.5001,-46.4133 160.5001,-46.4132"/>
</g>
<!-- [root] meta.count&#45;boundary (count boundary fixup) -->
<g id="node_13" class="node">
<title>[root] meta.count&#45;boundary (count boundary fixup)</title>
<polygon fill="none" stroke="#000000" points="211,-522 211,-537 284,-537 284,-522 211,-522"/>
<text text-anchor="start" x="237.8984" y="-527.6" font-family="courier new" font-size="8.00" fill="#000000">meta</text>
<polygon fill="none" stroke="#000000" points="211,-507 211,-522 284,-522 284,-507 211,-507"/>
<text text-anchor="start" x="213.8945" y="-512.6" font-family="courier new" font-size="8.00" fill="#000000">count&#45;boundary</text>
</g>
<!-- [root] meta.count&#45;boundary (count boundary fixup)&#45;&gt;[root] aws_lb_cookie_stickiness_policy.default -->
<g id="edge_15" class="edge">
<title>[root] meta.count&#45;boundary (count boundary fixup)&#45;&gt;[root] aws_lb_cookie_stickiness_policy.default</title>
<path fill="none" stroke="#000000" d="M247,-503.8314C247,-496.131 247,-486.9743 247,-478.4166"/>
<polygon fill="#000000" stroke="#000000" points="250.5001,-478.4132 247,-468.4133 243.5001,-478.4133 250.5001,-478.4132"/>
</g>
<!-- [root] meta.count&#45;boundary (count boundary fixup)&#45;&gt;[root] aws_route_table_association.a -->
<g id="edge_16" class="edge">
<title>[root] meta.count&#45;boundary (count boundary fixup)&#45;&gt;[root] aws_route_table_association.a</title>
<path fill="none" stroke="#000000" d="M210.4196,-505.8418C187.8643,-495.8787 158.6337,-482.967 133.9621,-472.0692"/>
<polygon fill="#000000" stroke="#000000" points="135.3147,-468.8404 124.7531,-468.0014 132.4863,-475.2436 135.3147,-468.8404"/>
</g>
<!-- [root] output.address -->
<g id="node_14" class="node">
<title>[root] output.address</title>
<polygon fill="none" stroke="#000000" points="350,-450 350,-465 389,-465 389,-450 350,-450"/>
<text text-anchor="start" x="355.0977" y="-455.6" font-family="courier new" font-size="8.00" fill="#000000">output</text>
<polygon fill="none" stroke="#000000" points="350,-435 350,-450 389,-450 389,-435 350,-435"/>
<text text-anchor="start" x="352.6973" y="-440.6" font-family="courier new" font-size="8.00" fill="#000000">address</text>
</g>
<!-- [root] meta.count&#45;boundary (count boundary fixup)&#45;&gt;[root] output.address -->
<g id="edge_17" class="edge">
<title>[root] meta.count&#45;boundary (count boundary fixup)&#45;&gt;[root] output.address</title>
<path fill="none" stroke="#000000" d="M277.7858,-503.8314C294.6168,-493.8983 315.5535,-481.5422 333.1217,-471.1741"/>
<polygon fill="#000000" stroke="#000000" points="335.1289,-474.0536 341.9621,-465.9568 331.5711,-468.0251 335.1289,-474.0536"/>
</g>
<!-- [root] output.address&#45;&gt;[root] aws_elb.web -->
<g id="edge_18" class="edge">
<title>[root] output.address&#45;&gt;[root] aws_elb.web</title>
<path fill="none" stroke="#000000" d="M343.2611,-431.8314C330.4563,-422.7927 314.8091,-411.7476 301.0281,-402.0198"/>
<polygon fill="#000000" stroke="#000000" points="302.9188,-399.0703 292.7307,-396.1628 298.882,-404.7891 302.9188,-399.0703"/>
</g>
<!-- [root] provider.aws (close) -->
<g id="node_15" class="node">
<title>[root] provider.aws (close)</title>
<polygon fill="none" stroke="#000000" points="143,-522 143,-537 187,-537 187,-522 143,-522"/>
<text text-anchor="start" x="145.7969" y="-527.6" font-family="courier new" font-size="8.00" fill="#000000">provider</text>
<polygon fill="none" stroke="#000000" points="143,-507 143,-522 187,-522 187,-507 143,-507"/>
<text text-anchor="start" x="157.7988" y="-512.6" font-family="courier new" font-size="8.00" fill="#000000">aws</text>
</g>
<!-- [root] provider.aws (close)&#45;&gt;[root] aws_lb_cookie_stickiness_policy.default -->
<g id="edge_19" class="edge">
<title>[root] provider.aws (close)&#45;&gt;[root] aws_lb_cookie_stickiness_policy.default</title>
<path fill="none" stroke="#000000" d="M185.6921,-503.8314C195.6948,-495.0485 207.855,-484.3712 218.6999,-474.8489"/>
<polygon fill="#000000" stroke="#000000" points="221.1094,-477.3909 226.3146,-468.1628 216.4908,-472.1308 221.1094,-477.3909"/>
</g>
<!-- [root] provider.aws (close)&#45;&gt;[root] aws_route_table_association.a -->
<g id="edge_20" class="edge">
<title>[root] provider.aws (close)&#45;&gt;[root] aws_route_table_association.a</title>
<path fill="none" stroke="#000000" d="M144.5603,-503.8314C134.6795,-495.0485 122.6676,-484.3712 111.955,-474.8489"/>
<polygon fill="#000000" stroke="#000000" points="114.2326,-472.1906 104.4332,-468.1628 109.582,-477.4224 114.2326,-472.1906"/>
</g>
<!-- [root] root -->
<g id="node_17" class="node">
<title>[root] root</title>
<polygon fill="none" stroke="#000000" points="240.3089,-612 171.6911,-612 171.6911,-576 240.3089,-576 240.3089,-612"/>
<text text-anchor="middle" x="206" y="-592.1313" font-family="courier new" font-size="8.00" fill="#000000">[root] root</text>
</g>
<!-- [root] root&#45;&gt;[root] meta.count&#45;boundary (count boundary fixup) -->
<g id="edge_22" class="edge">
<title>[root] root&#45;&gt;[root] meta.count&#45;boundary (count boundary fixup)</title>
<path fill="none" stroke="#000000" d="M216.346,-575.8314C220.9237,-567.7925 226.4052,-558.1666 231.4588,-549.2918"/>
<polygon fill="#000000" stroke="#000000" points="234.6077,-550.8351 236.5147,-540.4133 228.5248,-547.3712 234.6077,-550.8351"/>
</g>
<!-- [root] root&#45;&gt;[root] provider.aws (close) -->
<g id="edge_23" class="edge">
<title>[root] root&#45;&gt;[root] provider.aws (close)</title>
<path fill="none" stroke="#000000" d="M195.654,-575.8314C191.0763,-567.7925 185.5948,-558.1666 180.5412,-549.2918"/>
<polygon fill="#000000" stroke="#000000" points="183.4752,-547.3712 175.4853,-540.4133 177.3923,-550.8351 183.4752,-547.3712"/>
</g>
</g>
</svg>

