<?xml version="1.0" encoding="UTF-8" standalone="no"?>
<!DOCTYPE svg PUBLIC "-//W3C//DTD SVG 1.1//EN"
 "http://www.w3.org/Graphics/SVG/1.1/DTD/svg11.dtd">
<!-- Generated by graphviz version 2.40.1 (20161225.0304)
 -->
<!-- Title: %3 Pages: 1 -->
<svg width="422pt" height="636pt"
 viewBox="0.00 0.00 421.50 636.00" xmlns="http://www.w3.org/2000/svg" xmlns:xlink="http://www.w3.org/1999/xlink">
<g id="graph0" class="graph" transform="scale(1 1) rotate(0) translate(4 632)">
<title>%3</title>
<polygon fill="#ffffff" stroke="transparent" points="-4,4 -4,-632 417.5,-632 417.5,4 -4,4"/>
<g id="clust2" class="cluster">
<title>cluster[root] aws_instance.web_var_</title>
</g>
<g id="clust3" class="cluster">
<title>cluster[root] provider.aws_var_</title>
</g>
<g id="clust4" class="cluster">
<title>cluster[root] meta.count&#45;boundary (count boundary fixup)_output_[root] aws_elb.web</title>
</g>
<!-- [root] aws_elb.web -->
<g id="node_0" class="node">
<title>[root] aws_elb.web</title>
<polygon fill="none" stroke="#000000" points="136,-394 136,-409 175,-409 175,-394 136,-394"/>
<text text-anchor="start" x="138.6973" y="-399.6" font-family="courier new" font-size="8.00" fill="#000000">aws_elb</text>
<polygon fill="none" stroke="#000000" points="136,-379 136,-394 175,-394 175,-379 136,-379"/>
<text text-anchor="start" x="148.2988" y="-384.6" font-family="courier new" font-size="8.00" fill="#000000">web</text>
</g>
<!-- [root] aws_instance.web -->
<g id="node_1" class="node">
<title>[root] aws_instance.web</title>
<polygon fill="none" stroke="#000000" points="95,-322 95,-337 158,-337 158,-322 95,-322"/>
<text text-anchor="start" x="97.6953" y="-327.6" font-family="courier new" font-size="8.00" fill="#000000">aws_instance</text>
<polygon fill="none" stroke="#000000" points="95,-307 95,-322 158,-322 158,-307 95,-307"/>
<text text-anchor="start" x="119.2988" y="-312.6" font-family="courier new" font-size="8.00" fill="#000000">web</text>
</g>
<!-- [root] aws_elb.web&#45;&gt;[root] aws_instance.web -->
<g id="edge_0" class="edge">
<title>[root] aws_elb.web&#45;&gt;[root] aws_instance.web</title>
<path fill="none" stroke="#000000" d="M147.6821,-375.8314C144.5124,-367.9617 140.73,-358.5712 137.2187,-349.8533"/>
<polygon fill="#000000" stroke="#000000" points="140.3992,-348.3815 133.4165,-340.4133 133.9061,-350.9968 140.3992,-348.3815"/>
</g>
<!-- [root] aws_security_group.elb -->
<g id="node_7" class="node">
<title>[root] aws_security_group.elb</title>
<polygon fill="none" stroke="#000000" points="176,-322 176,-337 268,-337 268,-322 176,-322"/>
<text text-anchor="start" x="178.793" y="-327.6" font-family="courier new" font-size="8.00" fill="#000000">aws_security_group</text>
<polygon fill="none" stroke="#000000" points="176,-307 176,-322 268,-322 268,-307 176,-307"/>
<text text-anchor="start" x="214.7988" y="-312.6" font-family="courier new" font-size="8.00" fill="#000000">elb</text>
</g>
<!-- [root] aws_elb.web&#45;&gt;[root] aws_security_group.elb -->
<g id="edge_1" class="edge">
<title>[root] aws_elb.web&#45;&gt;[root] aws_security_group.elb</title>
<path fill="none" stroke="#000000" d="M171.9069,-375.8314C179.7813,-367.3694 189.292,-357.1489 197.9013,-347.8971"/>
<polygon fill="#000000" stroke="#000000" points="200.6153,-350.1183 204.8654,-340.4133 195.4908,-345.3497 200.6153,-350.1183"/>
</g>
<!-- [root] aws_security_group.default -->
<g id="node_6" class="node">
<title>[root] aws_security_group.default</title>
<polygon fill="none" stroke="#000000" points="88,-250 88,-265 180,-265 180,-250 88,-250"/>
<text text-anchor="start" x="90.793" y="-255.6" font-family="courier new" font-size="8.00" fill="#000000">aws_security_group</text>
<polygon fill="none" stroke="#000000" points="88,-235 88,-250 180,-250 180,-235 88,-235"/>
<text text-anchor="start" x="117.1973" y="-240.6" font-family="courier new" font-size="8.00" fill="#000000">default</text>
</g>
<!-- [root] aws_instance.web&#45;&gt;[root] aws_security_group.default -->
<g id="edge_2" class="edge">
<title>[root] aws_instance.web&#45;&gt;[root] aws_security_group.default</title>
<path fill="none" stroke="#000000" d="M128.0187,-303.8314C128.8743,-296.131 129.8917,-286.9743 130.8426,-278.4166"/>
<polygon fill="#000000" stroke="#000000" points="134.3283,-278.7386 131.9541,-268.4133 127.3711,-277.9656 134.3283,-278.7386"/>
</g>
<!-- [root] aws_subnet.tf_test_subnet -->
<g id="node_8" class="node">
<title>[root] aws_subnet.tf_test_subnet</title>
<polygon fill="none" stroke="#000000" points="199,-250 199,-265 272,-265 272,-250 199,-250"/>
<text text-anchor="start" x="211.4961" y="-255.6" font-family="courier new" font-size="8.00" fill="#000000">aws_subnet</text>
<polygon fill="none" stroke="#000000" points="199,-235 199,-250 272,-250 272,-235 199,-235"/>
<text text-anchor="start" x="201.8945" y="-240.6" font-family="courier new" font-size="8.00" fill="#000000">tf_test_subnet</text>
</g>
<!-- [root] aws_instance.web&#45;&gt;[root] aws_subnet.tf_test_subnet -->
<g id="edge_3" class="edge">
<title>[root] aws_instance.web&#45;&gt;[root] aws_subnet.tf_test_subnet</title>
<path fill="none" stroke="#000000" d="M153.5053,-303.8314C167.318,-294.7074 184.2256,-283.539 199.0529,-273.7449"/>
<polygon fill="#000000" stroke="#000000" points="201.0886,-276.5949 207.5035,-268.1628 197.2304,-270.7541 201.0886,-276.5949"/>
</g>
<!-- [root] var.aws_amis -->
<g id="node_11" class="node">
<title>[root] var.aws_amis</title>
<polygon fill="none" stroke="#000000" points="21,-250 21,-265 65,-265 65,-250 21,-250"/>
<text text-anchor="start" x="35.7988" y="-255.6" font-family="courier new" font-size="8.00" fill="#000000">var</text>
<polygon fill="none" stroke="#000000" points="21,-235 21,-250 65,-250 65,-235 21,-235"/>
<text text-anchor="start" x="23.7969" y="-240.6" font-family="courier new" font-size="8.00" fill="#000000">aws_amis</text>
</g>
<!-- [root] aws_instance.web&#45;&gt;[root] var.aws_amis -->
<g id="edge_4" class="edge">
<title>[root] aws_instance.web&#45;&gt;[root] var.aws_amis</title>
<path fill="none" stroke="#000000" d="M105.0556,-303.8314C94.9309,-295.0485 82.6223,-284.3712 71.6452,-274.8489"/>
<polygon fill="#000000" stroke="#000000" points="73.7851,-272.0718 63.9377,-268.1628 69.1981,-277.3595 73.7851,-272.0718"/>
</g>
<!-- [root] aws_internet_gateway.gw -->
<g id="node_2" class="node">
<title>[root] aws_internet_gateway.gw</title>
<polygon fill="none" stroke="#000000" points="290,-250 290,-265 392,-265 392,-250 290,-250"/>
<text text-anchor="start" x="292.9922" y="-255.6" font-family="courier new" font-size="8.00" fill="#000000">aws_internet_gateway</text>
<polygon fill="none" stroke="#000000" points="290,-235 290,-250 392,-250 392,-235 290,-235"/>
<text text-anchor="start" x="336.1992" y="-240.6" font-family="courier new" font-size="8.00" fill="#000000">gw</text>
</g>
<!-- [root] aws_vpc.default -->
<g id="node_9" class="node">
<title>[root] aws_vpc.default</title>
<polygon fill="none" stroke="#000000" points="216,-178 216,-193 255,-193 255,-178 216,-178"/>
<text text-anchor="start" x="218.6973" y="-183.6" font-family="courier new" font-size="8.00" fill="#000000">aws_vpc</text>
<polygon fill="none" stroke="#000000" points="216,-163 216,-178 255,-178 255,-163 216,-163"/>
<text text-anchor="start" x="218.6973" y="-168.6" font-family="courier new" font-size="8.00" fill="#000000">default</text>
</g>
<!-- [root] aws_internet_gateway.gw&#45;&gt;[root] aws_vpc.default -->
<g id="edge_6" class="edge">
<title>[root] aws_internet_gateway.gw&#45;&gt;[root] aws_vpc.default</title>
<path fill="none" stroke="#000000" d="M314.2517,-231.8314C300.9447,-222.7927 284.684,-211.7476 270.3625,-202.0198"/>
<polygon fill="#000000" stroke="#000000" points="271.9785,-198.8864 261.7397,-196.1628 268.0453,-204.677 271.9785,-198.8864"/>
</g>
<!-- [root] aws_lb_cookie_stickiness_policy.default -->
<g id="node_3" class="node">
<title>[root] aws_lb_cookie_stickiness_policy.default</title>
<polygon fill="none" stroke="#000000" points="106,-466 106,-481 260,-481 260,-466 106,-466"/>
<text text-anchor="start" x="108.5879" y="-471.6" font-family="courier new" font-size="8.00" fill="#000000">aws_lb_cookie_stickiness_policy</text>
<polygon fill="none" stroke="#000000" points="106,-451 106,-466 260,-466 260,-451 106,-451"/>
<text text-anchor="start" x="166.1973" y="-456.6" font-family="courier new" font-size="8.00" fill="#000000">default</text>
</g>
<!-- [root] aws_lb_cookie_stickiness_policy.default&#45;&gt;[root] aws_elb.web -->
<g id="edge_7" class="edge">
<title>[root] aws_lb_cookie_stickiness_policy.default&#45;&gt;[root] aws_elb.web</title>
<path fill="none" stroke="#000000" d="M175.9344,-447.8314C172.874,-439.9617 169.2221,-430.5712 165.8318,-421.8533"/>
<polygon fill="#000000" stroke="#000000" points="169.0473,-420.4647 162.1607,-412.4133 162.5232,-423.0019 169.0473,-420.4647"/>
</g>
<!-- [root] aws_route_table.r -->
<g id="node_4" class="node">
<title>[root] aws_route_table.r</title>
<polygon fill="none" stroke="#000000" points="324,-394 324,-409 402,-409 402,-394 324,-394"/>
<text text-anchor="start" x="326.9941" y="-399.6" font-family="courier new" font-size="8.00" fill="#000000">aws_route_table</text>
<polygon fill="none" stroke="#000000" points="324,-379 324,-394 402,-394 402,-379 324,-379"/>
<text text-anchor="start" x="360.5996" y="-384.6" font-family="courier new" font-size="8.00" fill="#000000">r</text>
</g>
<!-- [root] aws_route_table.r&#45;&gt;[root] aws_internet_gateway.gw -->
<g id="edge_8" class="edge">
<title>[root] aws_route_table.r&#45;&gt;[root] aws_internet_gateway.gw</title>
<path fill="none" stroke="#000000" d="M360.2137,-375.7623C356.4613,-351.201 349.7461,-307.2474 345.3319,-278.3541"/>
<polygon fill="#000000" stroke="#000000" points="348.7339,-277.4463 343.7637,-268.0896 341.8142,-278.5035 348.7339,-277.4463"/>
</g>
<!-- [root] aws_route_table_association.a -->
<g id="node_5" class="node">
<title>[root] aws_route_table_association.a</title>
<polygon fill="none" stroke="#000000" points="279,-466 279,-481 414,-481 414,-466 279,-466"/>
<text text-anchor="start" x="281.6895" y="-471.6" font-family="courier new" font-size="8.00" fill="#000000">aws_route_table_association</text>
<polygon fill="none" stroke="#000000" points="279,-451 279,-466 414,-466 414,-451 279,-451"/>
<text text-anchor="start" x="344.0996" y="-456.6" font-family="courier new" font-size="8.00" fill="#000000">a</text>
</g>
<!-- [root] aws_route_table_association.a&#45;&gt;[root] aws_route_table.r -->
<g id="edge_9" class="edge">
<title>[root] aws_route_table_association.a&#45;&gt;[root] aws_route_table.r</title>
<path fill="none" stroke="#000000" d="M350.2898,-447.8314C352.108,-440.131 354.2699,-430.9743 356.2905,-422.4166"/>
<polygon fill="#000000" stroke="#000000" points="359.7608,-422.95 358.6524,-412.4133 352.9481,-421.3414 359.7608,-422.95"/>
</g>
<!-- [root] aws_route_table_association.a&#45;&gt;[root] aws_subnet.tf_test_subnet -->
<g id="edge_10" class="edge">
<title>[root] aws_route_table_association.a&#45;&gt;[root] aws_subnet.tf_test_subnet</title>
<path fill="none" stroke="#000000" d="M334.5268,-447.9463C328.2731,-437.6571 320.6747,-424.3822 315,-412 293.8002,-365.742 301.3812,-348.6631 277,-304 271.793,-294.4614 264.9426,-284.8429 258.2889,-276.4201"/>
<polygon fill="#000000" stroke="#000000" points="260.8074,-273.9709 251.7688,-268.4432 255.3875,-278.401 260.8074,-273.9709"/>
</g>
<!-- [root] aws_security_group.default&#45;&gt;[root] aws_vpc.default -->
<g id="edge_11" class="edge">
<title>[root] aws_security_group.default&#45;&gt;[root] aws_vpc.default</title>
<path fill="none" stroke="#000000" d="M159.4866,-231.8314C172.1659,-222.7927 187.6596,-211.7476 201.3055,-202.0198"/>
<polygon fill="#000000" stroke="#000000" points="203.4105,-204.8176 209.5216,-196.1628 199.3471,-199.1176 203.4105,-204.8176"/>
</g>
<!-- [root] aws_security_group.elb&#45;&gt;[root] aws_internet_gateway.gw -->
<g id="edge_12" class="edge">
<title>[root] aws_security_group.elb&#45;&gt;[root] aws_internet_gateway.gw</title>
<path fill="none" stroke="#000000" d="M252.0287,-303.8314C267.2496,-294.6221 285.9128,-283.3301 302.2083,-273.4706"/>
<polygon fill="#000000" stroke="#000000" points="304.2369,-276.3341 310.9809,-268.1628 300.6132,-270.345 304.2369,-276.3341"/>
</g>
<!-- [root] aws_subnet.tf_test_subnet&#45;&gt;[root] aws_vpc.default -->
<g id="edge_13" class="edge">
<title>[root] aws_subnet.tf_test_subnet&#45;&gt;[root] aws_vpc.default</title>
<path fill="none" stroke="#000000" d="M235,-231.8314C235,-224.131 235,-214.9743 235,-206.4166"/>
<polygon fill="#000000" stroke="#000000" points="238.5001,-206.4132 235,-196.4133 231.5001,-206.4133 238.5001,-206.4132"/>
</g>
<!-- [root] provider.aws -->
<g id="node_10" class="node">
<title>[root] provider.aws</title>
<polygon fill="none" stroke="#000000" points="213,-106 213,-121 257,-121 257,-106 213,-106"/>
<text text-anchor="start" x="215.7969" y="-111.6" font-family="courier new" font-size="8.00" fill="#000000">provider</text>
<polygon fill="none" stroke="#000000" points="213,-91 213,-106 257,-106 257,-91 213,-91"/>
<text text-anchor="start" x="227.7988" y="-96.6" font-family="courier new" font-size="8.00" fill="#000000">aws</text>
</g>
<!-- [root] aws_vpc.default&#45;&gt;[root] provider.aws -->
<g id="edge_14" class="edge">
<title>[root] aws_vpc.default&#45;&gt;[root] provider.aws</title>
<path fill="none" stroke="#000000" d="M235,-159.8314C235,-152.131 235,-142.9743 235,-134.4166"/>
<polygon fill="#000000" stroke="#000000" points="238.5001,-134.4132 235,-124.4133 231.5001,-134.4133 238.5001,-134.4132"/>
</g>
<!-- [root] var.aws_region -->
<g id="node_16" class="node">
<title>[root] var.aws_region</title>
<polygon fill="none" stroke="#000000" points="208,-34 208,-49 262,-49 262,-34 208,-34"/>
<text text-anchor="start" x="227.7988" y="-39.6" font-family="courier new" font-size="8.00" fill="#000000">var</text>
<polygon fill="none" stroke="#000000" points="208,-19 208,-34 262,-34 262,-19 208,-19"/>
<text text-anchor="start" x="210.9961" y="-24.6" font-family="courier new" font-size="8.00" fill="#000000">aws_region</text>
</g>
<!-- [root] provider.aws&#45;&gt;[root] var.aws_region -->
<g id="edge_21" class="edge">
<title>[root] provider.aws&#45;&gt;[root] var.aws_region</title>
<path fill="none" stroke="#000000" d="M235,-87.8314C235,-80.131 235,-70.9743 235,-62.4166"/>
<polygon fill="#000000" stroke="#000000" points="238.5001,-62.4132 235,-52.4133 231.5001,-62.4133 238.5001,-62.4132"/>
</g>
<!-- [root] meta.count&#45;boundary (count boundary fixup) -->
<g id="node_13" class="node">
<title>[root] meta.count&#45;boundary (count boundary fixup)</title>
<polygon fill="none" stroke="#000000" points="147,-538 147,-553 220,-553 220,-538 147,-538"/>
<text text-anchor="start" x="173.8984" y="-543.6" font-family="courier new" font-size="8.00" fill="#000000">meta</text>
<polygon fill="none" stroke="#000000" points="147,-523 147,-538 220,-538 220,-523 147,-523"/>
<text text-anchor="start" x="149.8945" y="-528.6" font-family="courier new" font-size="8.00" fill="#000000">count&#45;boundary</text>
</g>
<!-- [root] meta.count&#45;boundary (count boundary fixup)&#45;&gt;[root] aws_lb_cookie_stickiness_policy.default -->
<g id="edge_15" class="edge">
<title>[root] meta.count&#45;boundary (count boundary fixup)&#45;&gt;[root] aws_lb_cookie_stickiness_policy.default</title>
<path fill="none" stroke="#000000" d="M183,-519.8314C183,-512.131 183,-502.9743 183,-494.4166"/>
<polygon fill="#000000" stroke="#000000" points="186.5001,-494.4132 183,-484.4133 179.5001,-494.4133 186.5001,-494.4132"/>
</g>
<!-- [root] meta.count&#45;boundary (count boundary fixup)&#45;&gt;[root] aws_route_table_association.a -->
<g id="edge_16" class="edge">
<title>[root] meta.count&#45;boundary (count boundary fixup)&#45;&gt;[root] aws_route_table_association.a</title>
<path fill="none" stroke="#000000" d="M219.5804,-521.8418C242.1357,-511.8787 271.3663,-498.967 296.0379,-488.0692"/>
<polygon fill="#000000" stroke="#000000" points="297.5137,-491.2436 305.2469,-484.0014 294.6853,-484.8404 297.5137,-491.2436"/>
</g>
<!-- [root] output.address -->
<g id="node_14" class="node">
<title>[root] output.address</title>
<polygon fill="none" stroke="#000000" points="42,-466 42,-481 81,-481 81,-466 42,-466"/>
<text text-anchor="start" x="47.0977" y="-471.6" font-family="courier new" font-size="8.00" fill="#000000">output</text>
<polygon fill="none" stroke="#000000" points="42,-451 42,-466 81,-466 81,-451 42,-451"/>
<text text-anchor="start" x="44.6973" y="-456.6" font-family="courier new" font-size="8.00" fill="#000000">address</text>
</g>
<!-- [root] meta.count&#45;boundary (count boundary fixup)&#45;&gt;[root] output.address -->
<g id="edge_17" class="edge">
<title>[root] meta.count&#45;boundary (count boundary fixup)&#45;&gt;[root] output.address</title>
<path fill="none" stroke="#000000" d="M146.4037,-519.8084C130.8968,-511.7477 112.797,-501.8671 97,-492 95.8966,-491.3108 94.7822,-490.5994 93.6631,-489.8719"/>
<polygon fill="#000000" stroke="#000000" points="95.3389,-486.7799 85.0951,-484.0754 91.4165,-492.5778 95.3389,-486.7799"/>
</g>
<!-- [root] provider.aws (close) -->
<g id="node_15" class="node">
<title>[root] provider.aws (close)</title>
<polygon fill="none" stroke="#000000" points="243,-538 243,-553 287,-553 287,-538 243,-538"/>
<text text-anchor="start" x="245.7969" y="-543.6" font-family="courier new" font-size="8.00" fill="#000000">provider</text>
<polygon fill="none" stroke="#000000" points="243,-523 243,-538 287,-538 287,-523 243,-523"/>
<text text-anchor="start" x="257.7988" y="-528.6" font-family="courier new" font-size="8.00" fill="#000000">aws</text>
</g>
<!-- [root] provider.aws (close)&#45;&gt;[root] aws_lb_cookie_stickiness_policy.default -->
<g id="edge_19" class="edge">
<title>[root] provider.aws (close)&#45;&gt;[root] aws_lb_cookie_stickiness_policy.default</title>
<path fill="none" stroke="#000000" d="M244.3079,-519.8314C234.3052,-511.0485 222.145,-500.3712 211.3001,-490.8489"/>
<polygon fill="#000000" stroke="#000000" points="213.5092,-488.1308 203.6854,-484.1628 208.8906,-493.3909 213.5092,-488.1308"/>
</g>
<!-- [root] provider.aws (close)&#45;&gt;[root] aws_route_table_association.a -->
<g id="edge_20" class="edge">
<title>[root] provider.aws (close)&#45;&gt;[root] aws_route_table_association.a</title>
<path fill="none" stroke="#000000" d="M285.4397,-519.8314C295.3205,-511.0485 307.3324,-500.3712 318.045,-490.8489"/>
<polygon fill="#000000" stroke="#000000" points="320.418,-493.4224 325.5668,-484.1628 315.7674,-488.1906 320.418,-493.4224"/>
</g>
<!-- [root] root -->
<g id="node_17" class="node">
<title>[root] root</title>
<polygon fill="none" stroke="#000000" points="258.3089,-628 189.6911,-628 189.6911,-592 258.3089,-592 258.3089,-628"/>
<text text-anchor="middle" x="224" y="-608.1313" font-family="courier new" font-size="8.00" fill="#000000">[root] root</text>
</g>
<!-- [root] root&#45;&gt;[root] meta.count&#45;boundary (count boundary fixup) -->
<g id="edge_22" class="edge">
<title>[root] root&#45;&gt;[root] meta.count&#45;boundary (count boundary fixup)</title>
<path fill="none" stroke="#000000" d="M213.654,-591.8314C209.0763,-583.7925 203.5948,-574.1666 198.5412,-565.2918"/>
<polygon fill="#000000" stroke="#000000" points="201.4752,-563.3712 193.4853,-556.4133 195.3923,-566.8351 201.4752,-563.3712"/>
</g>
<!-- [root] root&#45;&gt;[root] provider.aws (close) -->
<g id="edge_23" class="edge">
<title>[root] root&#45;&gt;[root] provider.aws (close)</title>
<path fill="none" stroke="#000000" d="M234.346,-591.8314C238.9237,-583.7925 244.4052,-574.1666 249.4588,-565.2918"/>
<polygon fill="#000000" stroke="#000000" points="252.6077,-566.8351 254.5147,-556.4133 246.5248,-563.3712 252.6077,-566.8351"/>
</g>
<!-- [root] var.key_name -->
<g id="node_12" class="node">
<title>[root] var.key_name</title>
<polygon fill="none" stroke="#000000" points="21,-178 21,-193 65,-193 65,-178 21,-178"/>
<text text-anchor="start" x="35.7988" y="-183.6" font-family="courier new" font-size="8.00" fill="#000000">var</text>
<polygon fill="none" stroke="#000000" points="21,-163 21,-178 65,-178 65,-163 21,-163"/>
<text text-anchor="start" x="23.7969" y="-168.6" font-family="courier new" font-size="8.00" fill="#000000">key_name</text>
</g>
<!-- [root] var.aws_amis&#45;&gt;[root] var.key_name -->
<g id="edge_25" class="edge">
<title>[root] var.aws_amis&#45;&gt;[root] var.key_name</title>
<path fill="none" stroke="#000000" stroke-dasharray="5,2" d="M43,-231.8314C43,-221 43,-207.2876 43,-196.4133"/>
</g>
<!-- [root] output.address&#45;&gt;[root] aws_elb.web -->
<g id="edge_18" class="edge">
<title>[root] output.address&#45;&gt;[root] aws_elb.web</title>
<path fill="none" stroke="#000000" d="M84.7202,-447.8314C96.4094,-438.8779 110.6688,-427.9558 123.2809,-418.2955"/>
<polygon fill="#000000" stroke="#000000" points="125.4769,-421.0222 131.2874,-412.1628 121.2203,-415.4651 125.4769,-421.0222"/>
</g>
</g>
</svg>

