<?xml version="1.0" encoding="UTF-8" standalone="no"?>
<!DOCTYPE svg PUBLIC "-//W3C//DTD SVG 1.1//EN"
 "http://www.w3.org/Graphics/SVG/1.1/DTD/svg11.dtd">
<!-- Generated by graphviz version 2.40.1 (20161225.0304)
 -->
<!-- Title: %3 Pages: 1 -->
<svg width="334pt" height="404pt"
 viewBox="0.00 0.00 334.00 404.00" xmlns="http://www.w3.org/2000/svg" xmlns:xlink="http://www.w3.org/1999/xlink">
<g id="graph0" class="graph" transform="scale(1 1) rotate(0) translate(4 400)">
<title>%3</title>
<polygon fill="#ffffff" stroke="transparent" points="-4,4 -4,-400 330,-400 330,4 -4,4"/>
<!-- [root] azurerm_resource_group.rg -->
<g id="node_0" class="node">
<title>[root] azurerm_resource_group.rg</title>
<polygon fill="none" stroke="#000000" points="108,-90 108,-105 219,-105 219,-90 108,-90"/>
<text text-anchor="start" x="110.6914" y="-95.6" font-family="courier new" font-size="8.00" fill="#000000">azurerm_resource_group</text>
<polygon fill="none" stroke="#000000" points="108,-75 108,-90 219,-90 219,-75 108,-75"/>
<text text-anchor="start" x="158.6992" y="-80.6" font-family="courier new" font-size="8.00" fill="#000000">rg</text>
</g>
<!-- [root] provider.azurerm -->
<g id="node_5" class="node">
<title>[root] provider.azurerm</title>
<polygon fill="none" stroke="#000000" points="69,-18 69,-33 113,-33 113,-18 69,-18"/>
<text text-anchor="start" x="71.7969" y="-23.6" font-family="courier new" font-size="8.00" fill="#000000">provider</text>
<polygon fill="none" stroke="#000000" points="69,-3 69,-18 113,-18 113,-3 69,-3"/>
<text text-anchor="start" x="74.1973" y="-8.6" font-family="courier new" font-size="8.00" fill="#000000">azurerm</text>
</g>
<!-- [root] azurerm_resource_group.rg&#45;&gt;[root] provider.azurerm -->
<g id="edge_0" class="edge">
<title>[root] azurerm_resource_group.rg&#45;&gt;[root] provider.azurerm</title>
<path fill="none" stroke="#000000" d="M144.8314,-71.8314C136.2848,-63.2848 125.9443,-52.9443 116.6198,-43.6198"/>
<polygon fill="#000000" stroke="#000000" points="118.9592,-41.0095 109.4133,-36.4133 114.0095,-45.9592 118.9592,-41.0095"/>
</g>
<!-- [root] var.location -->
<g id="node_6" class="node">
<title>[root] var.location</title>
<polygon fill="none" stroke="#000000" points="141,-18 141,-33 185,-33 185,-18 141,-18"/>
<text text-anchor="start" x="155.7988" y="-23.6" font-family="courier new" font-size="8.00" fill="#000000">var</text>
<polygon fill="none" stroke="#000000" points="141,-3 141,-18 185,-18 185,-3 141,-3"/>
<text text-anchor="start" x="143.7969" y="-8.6" font-family="courier new" font-size="8.00" fill="#000000">location</text>
</g>
<!-- [root] azurerm_resource_group.rg&#45;&gt;[root] var.location -->
<g id="edge_1" class="edge">
<title>[root] azurerm_resource_group.rg&#45;&gt;[root] var.location</title>
<path fill="none" stroke="#000000" d="M163,-71.8314C163,-64.131 163,-54.9743 163,-46.4166"/>
<polygon fill="#000000" stroke="#000000" points="166.5001,-46.4132 163,-36.4133 159.5001,-46.4133 166.5001,-46.4132"/>
</g>
<!-- [root] var.resource_group -->
<g id="node_7" class="node">
<title>[root] var.resource_group</title>
<polygon fill="none" stroke="#000000" points="209,-18 209,-33 282,-33 282,-18 209,-18"/>
<text text-anchor="start" x="238.2988" y="-23.6" font-family="courier new" font-size="8.00" fill="#000000">var</text>
<polygon fill="none" stroke="#000000" points="209,-3 209,-18 282,-18 282,-3 209,-3"/>
<text text-anchor="start" x="211.8945" y="-8.6" font-family="courier new" font-size="8.00" fill="#000000">resource_group</text>
</g>
<!-- [root] azurerm_resource_group.rg&#45;&gt;[root] var.resource_group -->
<g id="edge_2" class="edge">
<title>[root] azurerm_resource_group.rg&#45;&gt;[root] var.resource_group</title>
<path fill="none" stroke="#000000" d="M183.6921,-71.8314C193.6948,-63.0485 205.855,-52.3712 216.6999,-42.8489"/>
<polygon fill="#000000" stroke="#000000" points="219.1094,-45.3909 224.3146,-36.1628 214.4908,-40.1308 219.1094,-45.3909"/>
</g>
<!-- [root] azurerm_virtual_network.vnet1 -->
<g id="node_1" class="node">
<title>[root] azurerm_virtual_network.vnet1</title>
<polygon fill="none" stroke="#000000" points="38,-162 38,-177 154,-177 154,-162 38,-162"/>
<text text-anchor="start" x="40.791" y="-167.6" font-family="courier new" font-size="8.00" fill="#000000">azurerm_virtual_network</text>
<polygon fill="none" stroke="#000000" points="38,-147 38,-162 154,-162 154,-147 38,-147"/>
<text text-anchor="start" x="83.998" y="-152.6" font-family="courier new" font-size="8.00" fill="#000000">vnet1</text>
</g>
<!-- [root] azurerm_virtual_network.vnet1&#45;&gt;[root] azurerm_resource_group.rg -->
<g id="edge_3" class="edge">
<title>[root] azurerm_virtual_network.vnet1&#45;&gt;[root] azurerm_resource_group.rg</title>
<path fill="none" stroke="#000000" d="M112.9069,-143.8314C120.7813,-135.3694 130.292,-125.1489 138.9013,-115.8971"/>
<polygon fill="#000000" stroke="#000000" points="141.6153,-118.1183 145.8654,-108.4133 136.4908,-113.3497 141.6153,-118.1183"/>
</g>
<!-- [root] azurerm_virtual_network.vnet2 -->
<g id="node_2" class="node">
<title>[root] azurerm_virtual_network.vnet2</title>
<polygon fill="none" stroke="#000000" points="172,-162 172,-177 288,-177 288,-162 172,-162"/>
<text text-anchor="start" x="174.791" y="-167.6" font-family="courier new" font-size="8.00" fill="#000000">azurerm_virtual_network</text>
<polygon fill="none" stroke="#000000" points="172,-147 172,-162 288,-162 288,-147 172,-147"/>
<text text-anchor="start" x="217.998" y="-152.6" font-family="courier new" font-size="8.00" fill="#000000">vnet2</text>
</g>
<!-- [root] azurerm_virtual_network.vnet2&#45;&gt;[root] azurerm_resource_group.rg -->
<g id="edge_4" class="edge">
<title>[root] azurerm_virtual_network.vnet2&#45;&gt;[root] azurerm_resource_group.rg</title>
<path fill="none" stroke="#000000" d="M213.0931,-143.8314C205.2187,-135.3694 195.708,-125.1489 187.0987,-115.8971"/>
<polygon fill="#000000" stroke="#000000" points="189.5092,-113.3497 180.1346,-108.4133 184.3847,-118.1183 189.5092,-113.3497"/>
</g>
<!-- [root] azurerm_virtual_network_peering.peer1 -->
<g id="node_3" class="node">
<title>[root] azurerm_virtual_network_peering.peer1</title>
<polygon fill="none" stroke="#000000" points="0,-234 0,-249 154,-249 154,-234 0,-234"/>
<text text-anchor="start" x="2.5879" y="-239.6" font-family="courier new" font-size="8.00" fill="#000000">azurerm_virtual_network_peering</text>
<polygon fill="none" stroke="#000000" points="0,-219 0,-234 154,-234 154,-219 0,-219"/>
<text text-anchor="start" x="64.998" y="-224.6" font-family="courier new" font-size="8.00" fill="#000000">peer1</text>
</g>
<!-- [root] azurerm_virtual_network_peering.peer1&#45;&gt;[root] azurerm_virtual_network.vnet1 -->
<g id="edge_5" class="edge">
<title>[root] azurerm_virtual_network_peering.peer1&#45;&gt;[root] azurerm_virtual_network.vnet1</title>
<path fill="none" stroke="#000000" d="M81.7945,-215.8314C83.8489,-208.0463 86.296,-198.7729 88.5756,-190.1347"/>
<polygon fill="#000000" stroke="#000000" points="91.9735,-190.9753 91.1409,-180.4133 85.2052,-189.1892 91.9735,-190.9753"/>
</g>
<!-- [root] azurerm_virtual_network_peering.peer1&#45;&gt;[root] azurerm_virtual_network.vnet2 -->
<g id="edge_6" class="edge">
<title>[root] azurerm_virtual_network_peering.peer1&#45;&gt;[root] azurerm_virtual_network.vnet2</title>
<path fill="none" stroke="#000000" d="M115.6084,-215.8314C135.8893,-206.2874 160.9238,-194.5065 182.3971,-184.4013"/>
<polygon fill="#000000" stroke="#000000" points="184.1114,-187.4629 191.6693,-180.038 181.1308,-181.1291 184.1114,-187.4629"/>
</g>
<!-- [root] azurerm_virtual_network_peering.peer2 -->
<g id="node_4" class="node">
<title>[root] azurerm_virtual_network_peering.peer2</title>
<polygon fill="none" stroke="#000000" points="172,-234 172,-249 326,-249 326,-234 172,-234"/>
<text text-anchor="start" x="174.5879" y="-239.6" font-family="courier new" font-size="8.00" fill="#000000">azurerm_virtual_network_peering</text>
<polygon fill="none" stroke="#000000" points="172,-219 172,-234 326,-234 326,-219 172,-219"/>
<text text-anchor="start" x="236.998" y="-224.6" font-family="courier new" font-size="8.00" fill="#000000">peer2</text>
</g>
<!-- [root] azurerm_virtual_network_peering.peer2&#45;&gt;[root] azurerm_virtual_network.vnet1 -->
<g id="edge_7" class="edge">
<title>[root] azurerm_virtual_network_peering.peer2&#45;&gt;[root] azurerm_virtual_network.vnet1</title>
<path fill="none" stroke="#000000" d="M210.3916,-215.8314C190.1107,-206.2874 165.0762,-194.5065 143.6029,-184.4013"/>
<polygon fill="#000000" stroke="#000000" points="144.8692,-181.1291 134.3307,-180.038 141.8886,-187.4629 144.8692,-181.1291"/>
</g>
<!-- [root] azurerm_virtual_network_peering.peer2&#45;&gt;[root] azurerm_virtual_network.vnet2 -->
<g id="edge_8" class="edge">
<title>[root] azurerm_virtual_network_peering.peer2&#45;&gt;[root] azurerm_virtual_network.vnet2</title>
<path fill="none" stroke="#000000" d="M244.2055,-215.8314C242.1511,-208.0463 239.704,-198.7729 237.4244,-190.1347"/>
<polygon fill="#000000" stroke="#000000" points="240.7948,-189.1892 234.8591,-180.4133 234.0265,-190.9753 240.7948,-189.1892"/>
</g>
<!-- [root] meta.count&#45;boundary (count boundary fixup) -->
<g id="node_8" class="node">
<title>[root] meta.count&#45;boundary (count boundary fixup)</title>
<polygon fill="none" stroke="#000000" points="86,-306 86,-321 159,-321 159,-306 86,-306"/>
<text text-anchor="start" x="112.8984" y="-311.6" font-family="courier new" font-size="8.00" fill="#000000">meta</text>
<polygon fill="none" stroke="#000000" points="86,-291 86,-306 159,-306 159,-291 86,-291"/>
<text text-anchor="start" x="88.8945" y="-296.6" font-family="courier new" font-size="8.00" fill="#000000">count&#45;boundary</text>
</g>
<!-- [root] meta.count&#45;boundary (count boundary fixup)&#45;&gt;[root] azurerm_virtual_network_peering.peer1 -->
<g id="edge_9" class="edge">
<title>[root] meta.count&#45;boundary (count boundary fixup)&#45;&gt;[root] azurerm_virtual_network_peering.peer1</title>
<path fill="none" stroke="#000000" d="M110.6446,-287.8314C105.5674,-279.7079 99.4773,-269.9637 93.8824,-261.0118"/>
<polygon fill="#000000" stroke="#000000" points="96.7763,-259.0383 88.5083,-252.4133 90.8403,-262.7483 96.7763,-259.0383"/>
</g>
<!-- [root] meta.count&#45;boundary (count boundary fixup)&#45;&gt;[root] azurerm_virtual_network_peering.peer2 -->
<g id="edge_10" class="edge">
<title>[root] meta.count&#45;boundary (count boundary fixup)&#45;&gt;[root] azurerm_virtual_network_peering.peer2</title>
<path fill="none" stroke="#000000" d="M154.0475,-287.8314C170.442,-278.5368 190.5786,-267.1208 208.0829,-257.1971"/>
<polygon fill="#000000" stroke="#000000" points="209.9897,-260.1395 216.9628,-252.1628 206.5374,-254.05 209.9897,-260.1395"/>
</g>
<!-- [root] provider.azurerm (close) -->
<g id="node_9" class="node">
<title>[root] provider.azurerm (close)</title>
<polygon fill="none" stroke="#000000" points="182,-306 182,-321 226,-321 226,-306 182,-306"/>
<text text-anchor="start" x="184.7969" y="-311.6" font-family="courier new" font-size="8.00" fill="#000000">provider</text>
<polygon fill="none" stroke="#000000" points="182,-291 182,-306 226,-306 226,-291 182,-291"/>
<text text-anchor="start" x="187.1973" y="-296.6" font-family="courier new" font-size="8.00" fill="#000000">azurerm</text>
</g>
<!-- [root] provider.azurerm (close)&#45;&gt;[root] azurerm_virtual_network_peering.peer1 -->
<g id="edge_11" class="edge">
<title>[root] provider.azurerm (close)&#45;&gt;[root] azurerm_virtual_network_peering.peer1</title>
<path fill="none" stroke="#000000" d="M176.7553,-290.5542C159.6412,-280.8517 137.2431,-268.1536 118.0074,-257.2483"/>
<polygon fill="#000000" stroke="#000000" points="119.5652,-254.1081 109.1398,-252.221 116.1129,-260.1976 119.5652,-254.1081"/>
</g>
<!-- [root] provider.azurerm (close)&#45;&gt;[root] azurerm_virtual_network_peering.peer2 -->
<g id="edge_12" class="edge">
<title>[root] provider.azurerm (close)&#45;&gt;[root] azurerm_virtual_network_peering.peer2</title>
<path fill="none" stroke="#000000" d="M215.3554,-287.8314C220.4326,-279.7079 226.5227,-269.9637 232.1176,-261.0118"/>
<polygon fill="#000000" stroke="#000000" points="235.1597,-262.7483 237.4917,-252.4133 229.2237,-259.0383 235.1597,-262.7483"/>
</g>
<!-- [root] root -->
<g id="node_10" class="node">
<title>[root] root</title>
<polygon fill="none" stroke="#000000" points="197.3089,-396 128.6911,-396 128.6911,-360 197.3089,-360 197.3089,-396"/>
<text text-anchor="middle" x="163" y="-376.1313" font-family="courier new" font-size="8.00" fill="#000000">[root] root</text>
</g>
<!-- [root] root&#45;&gt;[root] meta.count&#45;boundary (count boundary fixup) -->
<g id="edge_13" class="edge">
<title>[root] root&#45;&gt;[root] meta.count&#45;boundary (count boundary fixup)</title>
<path fill="none" stroke="#000000" d="M152.654,-359.8314C148.0763,-351.7925 142.5948,-342.1666 137.5412,-333.2918"/>
<polygon fill="#000000" stroke="#000000" points="140.4752,-331.3712 132.4853,-324.4133 134.3923,-334.8351 140.4752,-331.3712"/>
</g>
<!-- [root] root&#45;&gt;[root] provider.azurerm (close) -->
<g id="edge_14" class="edge">
<title>[root] root&#45;&gt;[root] provider.azurerm (close)</title>
<path fill="none" stroke="#000000" d="M173.346,-359.8314C177.9237,-351.7925 183.4052,-342.1666 188.4588,-333.2918"/>
<polygon fill="#000000" stroke="#000000" points="191.6077,-334.8351 193.5147,-324.4133 185.5248,-331.3712 191.6077,-334.8351"/>
</g>
</g>
</svg>

