<?xml version="1.0" encoding="UTF-8" standalone="no"?>
<!DOCTYPE svg PUBLIC "-//W3C//DTD SVG 1.1//EN"
 "http://www.w3.org/Graphics/SVG/1.1/DTD/svg11.dtd">
<!-- Generated by graphviz version 2.40.1 (20161225.0304)
 -->
<!-- Title: %3 Pages: 1 -->
<svg width="334pt" height="492pt"
 viewBox="0.00 0.00 334.00 492.00" xmlns="http://www.w3.org/2000/svg" xmlns:xlink="http://www.w3.org/1999/xlink">
<g id="graph0" class="graph" transform="scale(1 1) rotate(0) translate(4 488)">
<title>%3</title>
<polygon fill="#ffffff" stroke="transparent" points="-4,4 -4,-488 330,-488 330,4 -4,4"/>
<g id="clust2" class="cluster">
<title>cluster[root] azurerm_resource_group.rg_var_</title>
</g>
<!-- [root] azurerm_resource_group.rg -->
<g id="node_0" class="node">
<title>[root] azurerm_resource_group.rg</title>
<polygon fill="none" stroke="#000000" points="108,-178 108,-193 219,-193 219,-178 108,-178"/>
<text text-anchor="start" x="110.6914" y="-183.6" font-family="courier new" font-size="8.00" fill="#000000">azurerm_resource_group</text>
<polygon fill="none" stroke="#000000" points="108,-163 108,-178 219,-178 219,-163 108,-163"/>
<text text-anchor="start" x="158.6992" y="-168.6" font-family="courier new" font-size="8.00" fill="#000000">rg</text>
</g>
<!-- [root] provider.azurerm -->
<g id="node_5" class="node">
<title>[root] provider.azurerm</title>
<polygon fill="none" stroke="#000000" points="105,-106 105,-121 149,-121 149,-106 105,-106"/>
<text text-anchor="start" x="107.7969" y="-111.6" font-family="courier new" font-size="8.00" fill="#000000">provider</text>
<polygon fill="none" stroke="#000000" points="105,-91 105,-106 149,-106 149,-91 105,-91"/>
<text text-anchor="start" x="110.1973" y="-96.6" font-family="courier new" font-size="8.00" fill="#000000">azurerm</text>
</g>
<!-- [root] azurerm_resource_group.rg&#45;&gt;[root] provider.azurerm -->
<g id="edge_0" class="edge">
<title>[root] azurerm_resource_group.rg&#45;&gt;[root] provider.azurerm</title>
<path fill="none" stroke="#000000" d="M153.9157,-159.8314C149.9385,-151.8771 145.1845,-142.369 140.7861,-133.5723"/>
<polygon fill="#000000" stroke="#000000" points="143.8093,-131.7923 136.2066,-124.4133 137.5483,-134.9228 143.8093,-131.7923"/>
</g>
<!-- [root] var.location -->
<g id="node_6" class="node">
<title>[root] var.location</title>
<polygon fill="none" stroke="#000000" points="181,-106 181,-121 225,-121 225,-106 181,-106"/>
<text text-anchor="start" x="195.7988" y="-111.6" font-family="courier new" font-size="8.00" fill="#000000">var</text>
<polygon fill="none" stroke="#000000" points="181,-91 181,-106 225,-106 225,-91 181,-91"/>
<text text-anchor="start" x="183.7969" y="-96.6" font-family="courier new" font-size="8.00" fill="#000000">location</text>
</g>
<!-- [root] azurerm_resource_group.rg&#45;&gt;[root] var.location -->
<g id="edge_1" class="edge">
<title>[root] azurerm_resource_group.rg&#45;&gt;[root] var.location</title>
<path fill="none" stroke="#000000" d="M173.0937,-159.8314C177.5597,-151.7925 182.9075,-142.1666 187.8379,-133.2918"/>
<polygon fill="#000000" stroke="#000000" points="190.9735,-134.8546 192.7704,-124.4133 184.8544,-131.4551 190.9735,-134.8546"/>
</g>
<!-- [root] azurerm_virtual_network.vnet1 -->
<g id="node_1" class="node">
<title>[root] azurerm_virtual_network.vnet1</title>
<polygon fill="none" stroke="#000000" points="38,-250 38,-265 154,-265 154,-250 38,-250"/>
<text text-anchor="start" x="40.791" y="-255.6" font-family="courier new" font-size="8.00" fill="#000000">azurerm_virtual_network</text>
<polygon fill="none" stroke="#000000" points="38,-235 38,-250 154,-250 154,-235 38,-235"/>
<text text-anchor="start" x="83.998" y="-240.6" font-family="courier new" font-size="8.00" fill="#000000">vnet1</text>
</g>
<!-- [root] azurerm_virtual_network.vnet1&#45;&gt;[root] azurerm_resource_group.rg -->
<g id="edge_3" class="edge">
<title>[root] azurerm_virtual_network.vnet1&#45;&gt;[root] azurerm_resource_group.rg</title>
<path fill="none" stroke="#000000" d="M112.9069,-231.8314C120.7813,-223.3694 130.292,-213.1489 138.9013,-203.8971"/>
<polygon fill="#000000" stroke="#000000" points="141.6153,-206.1183 145.8654,-196.4133 136.4908,-201.3497 141.6153,-206.1183"/>
</g>
<!-- [root] azurerm_virtual_network.vnet2 -->
<g id="node_2" class="node">
<title>[root] azurerm_virtual_network.vnet2</title>
<polygon fill="none" stroke="#000000" points="172,-250 172,-265 288,-265 288,-250 172,-250"/>
<text text-anchor="start" x="174.791" y="-255.6" font-family="courier new" font-size="8.00" fill="#000000">azurerm_virtual_network</text>
<polygon fill="none" stroke="#000000" points="172,-235 172,-250 288,-250 288,-235 172,-235"/>
<text text-anchor="start" x="217.998" y="-240.6" font-family="courier new" font-size="8.00" fill="#000000">vnet2</text>
</g>
<!-- [root] azurerm_virtual_network.vnet2&#45;&gt;[root] azurerm_resource_group.rg -->
<g id="edge_4" class="edge">
<title>[root] azurerm_virtual_network.vnet2&#45;&gt;[root] azurerm_resource_group.rg</title>
<path fill="none" stroke="#000000" d="M213.0931,-231.8314C205.2187,-223.3694 195.708,-213.1489 187.0987,-203.8971"/>
<polygon fill="#000000" stroke="#000000" points="189.5092,-201.3497 180.1346,-196.4133 184.3847,-206.1183 189.5092,-201.3497"/>
</g>
<!-- [root] azurerm_virtual_network_peering.peer1 -->
<g id="node_3" class="node">
<title>[root] azurerm_virtual_network_peering.peer1</title>
<polygon fill="none" stroke="#000000" points="0,-322 0,-337 154,-337 154,-322 0,-322"/>
<text text-anchor="start" x="2.5879" y="-327.6" font-family="courier new" font-size="8.00" fill="#000000">azurerm_virtual_network_peering</text>
<polygon fill="none" stroke="#000000" points="0,-307 0,-322 154,-322 154,-307 0,-307"/>
<text text-anchor="start" x="64.998" y="-312.6" font-family="courier new" font-size="8.00" fill="#000000">peer1</text>
</g>
<!-- [root] azurerm_virtual_network_peering.peer1&#45;&gt;[root] azurerm_virtual_network.vnet1 -->
<g id="edge_5" class="edge">
<title>[root] azurerm_virtual_network_peering.peer1&#45;&gt;[root] azurerm_virtual_network.vnet1</title>
<path fill="none" stroke="#000000" d="M81.7945,-303.8314C83.8489,-296.0463 86.296,-286.7729 88.5756,-278.1347"/>
<polygon fill="#000000" stroke="#000000" points="91.9735,-278.9753 91.1409,-268.4133 85.2052,-277.1892 91.9735,-278.9753"/>
</g>
<!-- [root] azurerm_virtual_network_peering.peer1&#45;&gt;[root] azurerm_virtual_network.vnet2 -->
<g id="edge_6" class="edge">
<title>[root] azurerm_virtual_network_peering.peer1&#45;&gt;[root] azurerm_virtual_network.vnet2</title>
<path fill="none" stroke="#000000" d="M115.6084,-303.8314C135.8893,-294.2874 160.9238,-282.5065 182.3971,-272.4013"/>
<polygon fill="#000000" stroke="#000000" points="184.1114,-275.4629 191.6693,-268.038 181.1308,-269.1291 184.1114,-275.4629"/>
</g>
<!-- [root] azurerm_virtual_network_peering.peer2 -->
<g id="node_4" class="node">
<title>[root] azurerm_virtual_network_peering.peer2</title>
<polygon fill="none" stroke="#000000" points="172,-322 172,-337 326,-337 326,-322 172,-322"/>
<text text-anchor="start" x="174.5879" y="-327.6" font-family="courier new" font-size="8.00" fill="#000000">azurerm_virtual_network_peering</text>
<polygon fill="none" stroke="#000000" points="172,-307 172,-322 326,-322 326,-307 172,-307"/>
<text text-anchor="start" x="236.998" y="-312.6" font-family="courier new" font-size="8.00" fill="#000000">peer2</text>
</g>
<!-- [root] azurerm_virtual_network_peering.peer2&#45;&gt;[root] azurerm_virtual_network.vnet1 -->
<g id="edge_7" class="edge">
<title>[root] azurerm_virtual_network_peering.peer2&#45;&gt;[root] azurerm_virtual_network.vnet1</title>
<path fill="none" stroke="#000000" d="M210.3916,-303.8314C190.1107,-294.2874 165.0762,-282.5065 143.6029,-272.4013"/>
<polygon fill="#000000" stroke="#000000" points="144.8692,-269.1291 134.3307,-268.038 141.8886,-275.4629 144.8692,-269.1291"/>
</g>
<!-- [root] azurerm_virtual_network_peering.peer2&#45;&gt;[root] azurerm_virtual_network.vnet2 -->
<g id="edge_8" class="edge">
<title>[root] azurerm_virtual_network_peering.peer2&#45;&gt;[root] azurerm_virtual_network.vnet2</title>
<path fill="none" stroke="#000000" d="M244.2055,-303.8314C242.1511,-296.0463 239.704,-286.7729 237.4244,-278.1347"/>
<polygon fill="#000000" stroke="#000000" points="240.7948,-277.1892 234.8591,-268.4133 234.0265,-278.9753 240.7948,-277.1892"/>
</g>
<!-- [root] meta.count&#45;boundary (count boundary fixup) -->
<g id="node_8" class="node">
<title>[root] meta.count&#45;boundary (count boundary fixup)</title>
<polygon fill="none" stroke="#000000" points="86,-394 86,-409 159,-409 159,-394 86,-394"/>
<text text-anchor="start" x="112.8984" y="-399.6" font-family="courier new" font-size="8.00" fill="#000000">meta</text>
<polygon fill="none" stroke="#000000" points="86,-379 86,-394 159,-394 159,-379 86,-379"/>
<text text-anchor="start" x="88.8945" y="-384.6" font-family="courier new" font-size="8.00" fill="#000000">count&#45;boundary</text>
</g>
<!-- [root] meta.count&#45;boundary (count boundary fixup)&#45;&gt;[root] azurerm_virtual_network_peering.peer1 -->
<g id="edge_9" class="edge">
<title>[root] meta.count&#45;boundary (count boundary fixup)&#45;&gt;[root] azurerm_virtual_network_peering.peer1</title>
<path fill="none" stroke="#000000" d="M110.6446,-375.8314C105.5674,-367.7079 99.4773,-357.9637 93.8824,-349.0118"/>
<polygon fill="#000000" stroke="#000000" points="96.7763,-347.0383 88.5083,-340.4133 90.8403,-350.7483 96.7763,-347.0383"/>
</g>
<!-- [root] meta.count&#45;boundary (count boundary fixup)&#45;&gt;[root] azurerm_virtual_network_peering.peer2 -->
<g id="edge_10" class="edge">
<title>[root] meta.count&#45;boundary (count boundary fixup)&#45;&gt;[root] azurerm_virtual_network_peering.peer2</title>
<path fill="none" stroke="#000000" d="M154.0475,-375.8314C170.442,-366.5368 190.5786,-355.1208 208.0829,-345.1971"/>
<polygon fill="#000000" stroke="#000000" points="209.9897,-348.1395 216.9628,-340.1628 206.5374,-342.05 209.9897,-348.1395"/>
</g>
<!-- [root] provider.azurerm (close) -->
<g id="node_9" class="node">
<title>[root] provider.azurerm (close)</title>
<polygon fill="none" stroke="#000000" points="182,-394 182,-409 226,-409 226,-394 182,-394"/>
<text text-anchor="start" x="184.7969" y="-399.6" font-family="courier new" font-size="8.00" fill="#000000">provider</text>
<polygon fill="none" stroke="#000000" points="182,-379 182,-394 226,-394 226,-379 182,-379"/>
<text text-anchor="start" x="187.1973" y="-384.6" font-family="courier new" font-size="8.00" fill="#000000">azurerm</text>
</g>
<!-- [root] provider.azurerm (close)&#45;&gt;[root] azurerm_virtual_network_peering.peer1 -->
<g id="edge_11" class="edge">
<title>[root] provider.azurerm (close)&#45;&gt;[root] azurerm_virtual_network_peering.peer1</title>
<path fill="none" stroke="#000000" d="M176.7553,-378.5542C159.6412,-368.8517 137.2431,-356.1536 118.0074,-345.2483"/>
<polygon fill="#000000" stroke="#000000" points="119.5652,-342.1081 109.1398,-340.221 116.1129,-348.1976 119.5652,-342.1081"/>
</g>
<!-- [root] provider.azurerm (close)&#45;&gt;[root] azurerm_virtual_network_peering.peer2 -->
<g id="edge_12" class="edge">
<title>[root] provider.azurerm (close)&#45;&gt;[root] azurerm_virtual_network_peering.peer2</title>
<path fill="none" stroke="#000000" d="M215.3554,-375.8314C220.4326,-367.7079 226.5227,-357.9637 232.1176,-349.0118"/>
<polygon fill="#000000" stroke="#000000" points="235.1597,-350.7483 237.4917,-340.4133 229.2237,-347.0383 235.1597,-350.7483"/>
</g>
<!-- [root] root -->
<g id="node_10" class="node">
<title>[root] root</title>
<polygon fill="none" stroke="#000000" points="197.3089,-484 128.6911,-484 128.6911,-448 197.3089,-448 197.3089,-484"/>
<text text-anchor="middle" x="163" y="-464.1313" font-family="courier new" font-size="8.00" fill="#000000">[root] root</text>
</g>
<!-- [root] root&#45;&gt;[root] meta.count&#45;boundary (count boundary fixup) -->
<g id="edge_13" class="edge">
<title>[root] root&#45;&gt;[root] meta.count&#45;boundary (count boundary fixup)</title>
<path fill="none" stroke="#000000" d="M152.654,-447.8314C148.0763,-439.7925 142.5948,-430.1666 137.5412,-421.2918"/>
<polygon fill="#000000" stroke="#000000" points="140.4752,-419.3712 132.4853,-412.4133 134.3923,-422.8351 140.4752,-419.3712"/>
</g>
<!-- [root] root&#45;&gt;[root] provider.azurerm (close) -->
<g id="edge_14" class="edge">
<title>[root] root&#45;&gt;[root] provider.azurerm (close)</title>
<path fill="none" stroke="#000000" d="M173.346,-447.8314C177.9237,-439.7925 183.4052,-430.1666 188.4588,-421.2918"/>
<polygon fill="#000000" stroke="#000000" points="191.6077,-422.8351 193.5147,-412.4133 185.5248,-419.3712 191.6077,-422.8351"/>
</g>
<!-- [root] var.resource_group -->
<g id="node_7" class="node">
<title>[root] var.resource_group</title>
<polygon fill="none" stroke="#000000" points="171,-34 171,-49 244,-49 244,-34 171,-34"/>
<text text-anchor="start" x="200.2988" y="-39.6" font-family="courier new" font-size="8.00" fill="#000000">var</text>
<polygon fill="none" stroke="#000000" points="171,-19 171,-34 244,-34 244,-19 171,-19"/>
<text text-anchor="start" x="173.8945" y="-24.6" font-family="courier new" font-size="8.00" fill="#000000">resource_group</text>
</g>
<!-- [root] var.location&#45;&gt;[root] var.resource_group -->
<g id="edge_16" class="edge">
<title>[root] var.location&#45;&gt;[root] var.resource_group</title>
<path fill="none" stroke="#000000" stroke-dasharray="5,2" d="M204.0094,-87.8314C204.6111,-77 205.3729,-63.2876 205.977,-52.4133"/>
</g>
</g>
</svg>

