<?xml version="1.0" encoding="UTF-8" standalone="no"?>
<!DOCTYPE svg PUBLIC "-//W3C//DTD SVG 1.1//EN"
 "http://www.w3.org/Graphics/SVG/1.1/DTD/svg11.dtd">
<!-- Generated by graphviz version 2.40.1 (20161225.0304)
 -->
<!-- Title: %3 Pages: 1 -->
<svg width="644pt" height="636pt"
 viewBox="0.00 0.00 644.00 636.00" xmlns="http://www.w3.org/2000/svg" xmlns:xlink="http://www.w3.org/1999/xlink">
<g id="graph0" class="graph" transform="scale(1 1) rotate(0) translate(4 632)">
<title>%3</title>
<polygon fill="#ffffff" stroke="transparent" points="-4,4 -4,-632 640,-632 640,4 -4,4"/>
<g id="clust2" class="cluster">
<title>cluster[root] azurerm_resource_group.rg_var_</title>
</g>
<g id="clust3" class="cluster">
<title>cluster[root] azurerm_subnet.subnet_var_</title>
</g>
<g id="clust4" class="cluster">
<title>cluster[root] azurerm_virtual_machine.vm_var_</title>
</g>
<g id="clust5" class="cluster">
<title>cluster[root] azurerm_virtual_network.vnet_var_</title>
</g>
<g id="clust6" class="cluster">
<title>cluster[root] meta.count&#45;boundary (count boundary fixup)_var_</title>
</g>
<g id="clust7" class="cluster">
<title>cluster[root] meta.count&#45;boundary (count boundary fixup)_output_[root] var.hostname</title>
</g>
<g id="clust8" class="cluster">
<title>cluster[root] meta.count&#45;boundary (count boundary fixup)_output_[root] azurerm_public_ip.pip</title>
</g>
<!-- [root] azurerm_network_interface.nic -->
<g id="node_0" class="node">
<title>[root] azurerm_network_interface.nic</title>
<polygon fill="none" stroke="#000000" points="134,-394 134,-409 260,-409 260,-394 134,-394"/>
<text text-anchor="start" x="136.9902" y="-399.6" font-family="courier new" font-size="8.00" fill="#000000">azurerm_network_interface</text>
<polygon fill="none" stroke="#000000" points="134,-379 134,-394 260,-394 260,-379 134,-379"/>
<text text-anchor="start" x="189.7988" y="-384.6" font-family="courier new" font-size="8.00" fill="#000000">nic</text>
</g>
<!-- [root] azurerm_public_ip.pip -->
<g id="node_1" class="node">
<title>[root] azurerm_public_ip.pip</title>
<polygon fill="none" stroke="#000000" points="343,-322 343,-337 430,-337 430,-322 343,-322"/>
<text text-anchor="start" x="345.6934" y="-327.6" font-family="courier new" font-size="8.00" fill="#000000">azurerm_public_ip</text>
<polygon fill="none" stroke="#000000" points="343,-307 343,-322 430,-322 430,-307 343,-307"/>
<text text-anchor="start" x="379.2988" y="-312.6" font-family="courier new" font-size="8.00" fill="#000000">pip</text>
</g>
<!-- [root] azurerm_network_interface.nic&#45;&gt;[root] azurerm_public_ip.pip -->
<g id="edge_0" class="edge">
<title>[root] azurerm_network_interface.nic&#45;&gt;[root] azurerm_public_ip.pip</title>
<path fill="none" stroke="#000000" d="M244.6927,-375.8314C271.4957,-365.6207 305.0198,-352.8496 332.6876,-342.3095"/>
<polygon fill="#000000" stroke="#000000" points="334.1103,-345.513 342.2092,-338.6822 331.6183,-338.9715 334.1103,-345.513"/>
</g>
<!-- [root] azurerm_subnet.subnet -->
<g id="node_3" class="node">
<title>[root] azurerm_subnet.subnet</title>
<polygon fill="none" stroke="#000000" points="161,-322 161,-337 234,-337 234,-322 161,-322"/>
<text text-anchor="start" x="163.8945" y="-327.6" font-family="courier new" font-size="8.00" fill="#000000">azurerm_subnet</text>
<polygon fill="none" stroke="#000000" points="161,-307 161,-322 234,-322 234,-307 161,-307"/>
<text text-anchor="start" x="183.0977" y="-312.6" font-family="courier new" font-size="8.00" fill="#000000">subnet</text>
</g>
<!-- [root] azurerm_network_interface.nic&#45;&gt;[root] azurerm_subnet.subnet -->
<g id="edge_1" class="edge">
<title>[root] azurerm_network_interface.nic&#45;&gt;[root] azurerm_subnet.subnet</title>
<path fill="none" stroke="#000000" d="M197,-375.8314C197,-368.131 197,-358.9743 197,-350.4166"/>
<polygon fill="#000000" stroke="#000000" points="200.5001,-350.4132 197,-340.4133 193.5001,-350.4133 200.5001,-350.4132"/>
</g>
<!-- [root] azurerm_resource_group.rg -->
<g id="node_2" class="node">
<title>[root] azurerm_resource_group.rg</title>
<polygon fill="none" stroke="#000000" points="315,-178 315,-193 426,-193 426,-178 315,-178"/>
<text text-anchor="start" x="317.6914" y="-183.6" font-family="courier new" font-size="8.00" fill="#000000">azurerm_resource_group</text>
<polygon fill="none" stroke="#000000" points="315,-163 315,-178 426,-178 426,-163 315,-163"/>
<text text-anchor="start" x="365.6992" y="-168.6" font-family="courier new" font-size="8.00" fill="#000000">rg</text>
</g>
<!-- [root] azurerm_public_ip.pip&#45;&gt;[root] azurerm_resource_group.rg -->
<g id="edge_2" class="edge">
<title>[root] azurerm_public_ip.pip&#45;&gt;[root] azurerm_resource_group.rg</title>
<path fill="none" stroke="#000000" d="M383.9736,-303.7623C381.2446,-279.201 376.3608,-235.2474 373.1505,-206.3541"/>
<polygon fill="#000000" stroke="#000000" points="376.593,-205.6419 372.01,-196.0896 369.6358,-206.415 376.593,-205.6419"/>
</g>
<!-- [root] var.hostname -->
<g id="node_7" class="node">
<title>[root] var.hostname</title>
<polygon fill="none" stroke="#000000" points="449,-178 449,-193 493,-193 493,-178 449,-178"/>
<text text-anchor="start" x="463.7988" y="-183.6" font-family="courier new" font-size="8.00" fill="#000000">var</text>
<polygon fill="none" stroke="#000000" points="449,-163 449,-178 493,-178 493,-163 449,-163"/>
<text text-anchor="start" x="451.7969" y="-168.6" font-family="courier new" font-size="8.00" fill="#000000">hostname</text>
</g>
<!-- [root] azurerm_public_ip.pip&#45;&gt;[root] var.hostname -->
<g id="edge_3" class="edge">
<title>[root] azurerm_public_ip.pip&#45;&gt;[root] var.hostname</title>
<path fill="none" stroke="#000000" d="M396.7653,-303.7623C411.5187,-278.7682 438.126,-233.6924 455.1564,-204.8409"/>
<polygon fill="#000000" stroke="#000000" points="458.2529,-206.4804 460.3221,-196.0896 452.2247,-202.9221 458.2529,-206.4804"/>
</g>
<!-- [root] provider.azurerm -->
<g id="node_6" class="node">
<title>[root] provider.azurerm</title>
<polygon fill="none" stroke="#000000" points="386,-106 386,-121 430,-121 430,-106 386,-106"/>
<text text-anchor="start" x="388.7969" y="-111.6" font-family="courier new" font-size="8.00" fill="#000000">provider</text>
<polygon fill="none" stroke="#000000" points="386,-91 386,-106 430,-106 430,-91 386,-91"/>
<text text-anchor="start" x="391.1973" y="-96.6" font-family="courier new" font-size="8.00" fill="#000000">azurerm</text>
</g>
<!-- [root] azurerm_resource_group.rg&#45;&gt;[root] provider.azurerm -->
<g id="edge_4" class="edge">
<title>[root] azurerm_resource_group.rg&#45;&gt;[root] provider.azurerm</title>
<path fill="none" stroke="#000000" d="M379.589,-159.8314C383.8317,-151.7925 388.9121,-142.1666 393.596,-133.2918"/>
<polygon fill="#000000" stroke="#000000" points="396.7096,-134.8908 398.2819,-124.4133 390.5189,-131.6235 396.7096,-134.8908"/>
</g>
<!-- [root] var.location -->
<g id="node_8" class="node">
<title>[root] var.location</title>
<polygon fill="none" stroke="#000000" points="310,-106 310,-121 354,-121 354,-106 310,-106"/>
<text text-anchor="start" x="324.7988" y="-111.6" font-family="courier new" font-size="8.00" fill="#000000">var</text>
<polygon fill="none" stroke="#000000" points="310,-91 310,-106 354,-106 354,-91 310,-91"/>
<text text-anchor="start" x="312.7969" y="-96.6" font-family="courier new" font-size="8.00" fill="#000000">location</text>
</g>
<!-- [root] azurerm_resource_group.rg&#45;&gt;[root] var.location -->
<g id="edge_5" class="edge">
<title>[root] azurerm_resource_group.rg&#45;&gt;[root] var.location</title>
<path fill="none" stroke="#000000" d="M360.411,-159.8314C356.1683,-151.7925 351.0879,-142.1666 346.404,-133.2918"/>
<polygon fill="#000000" stroke="#000000" points="349.4811,-131.6235 341.7181,-124.4133 343.2904,-134.8908 349.4811,-131.6235"/>
</g>
<!-- [root] azurerm_virtual_network.vnet -->
<g id="node_5" class="node">
<title>[root] azurerm_virtual_network.vnet</title>
<polygon fill="none" stroke="#000000" points="242,-250 242,-265 358,-265 358,-250 242,-250"/>
<text text-anchor="start" x="244.791" y="-255.6" font-family="courier new" font-size="8.00" fill="#000000">azurerm_virtual_network</text>
<polygon fill="none" stroke="#000000" points="242,-235 242,-250 358,-250 358,-235 242,-235"/>
<text text-anchor="start" x="290.3984" y="-240.6" font-family="courier new" font-size="8.00" fill="#000000">vnet</text>
</g>
<!-- [root] azurerm_subnet.subnet&#45;&gt;[root] azurerm_virtual_network.vnet -->
<g id="edge_7" class="edge">
<title>[root] azurerm_subnet.subnet&#45;&gt;[root] azurerm_virtual_network.vnet</title>
<path fill="none" stroke="#000000" d="M222.9912,-303.8314C235.9216,-294.7927 251.7222,-283.7476 265.6383,-274.0198"/>
<polygon fill="#000000" stroke="#000000" points="267.8263,-276.7608 274.0171,-268.1628 263.8157,-271.0235 267.8263,-276.7608"/>
</g>
<!-- [root] var.subnet_prefix -->
<g id="node_10" class="node">
<title>[root] var.subnet_prefix</title>
<polygon fill="none" stroke="#000000" points="156,-250 156,-265 224,-265 224,-250 156,-250"/>
<text text-anchor="start" x="182.7988" y="-255.6" font-family="courier new" font-size="8.00" fill="#000000">var</text>
<polygon fill="none" stroke="#000000" points="156,-235 156,-250 224,-250 224,-235 156,-235"/>
<text text-anchor="start" x="158.7949" y="-240.6" font-family="courier new" font-size="8.00" fill="#000000">subnet_prefix</text>
</g>
<!-- [root] azurerm_subnet.subnet&#45;&gt;[root] var.subnet_prefix -->
<g id="edge_8" class="edge">
<title>[root] azurerm_subnet.subnet&#45;&gt;[root] var.subnet_prefix</title>
<path fill="none" stroke="#000000" d="M195.2336,-303.8314C194.485,-296.131 193.5947,-286.9743 192.7627,-278.4166"/>
<polygon fill="#000000" stroke="#000000" points="196.2415,-278.0276 191.7902,-268.4133 189.2744,-278.7051 196.2415,-278.0276"/>
</g>
<!-- [root] azurerm_virtual_machine.vm -->
<g id="node_4" class="node">
<title>[root] azurerm_virtual_machine.vm</title>
<polygon fill="none" stroke="#000000" points="152,-466 152,-481 268,-481 268,-466 152,-466"/>
<text text-anchor="start" x="154.791" y="-471.6" font-family="courier new" font-size="8.00" fill="#000000">azurerm_virtual_machine</text>
<polygon fill="none" stroke="#000000" points="152,-451 152,-466 268,-466 268,-451 152,-451"/>
<text text-anchor="start" x="205.1992" y="-456.6" font-family="courier new" font-size="8.00" fill="#000000">vm</text>
</g>
<!-- [root] azurerm_virtual_machine.vm&#45;&gt;[root] azurerm_network_interface.nic -->
<g id="edge_9" class="edge">
<title>[root] azurerm_virtual_machine.vm&#45;&gt;[root] azurerm_network_interface.nic</title>
<path fill="none" stroke="#000000" d="M206.7196,-447.8314C205.3292,-440.131 203.6759,-430.9743 202.1308,-422.4166"/>
<polygon fill="#000000" stroke="#000000" points="205.5458,-421.6322 200.3246,-412.4133 198.6572,-422.8761 205.5458,-421.6322"/>
</g>
<!-- [root] var.admin_username -->
<g id="node_12" class="node">
<title>[root] var.admin_username</title>
<polygon fill="none" stroke="#000000" points="279,-394 279,-409 352,-409 352,-394 279,-394"/>
<text text-anchor="start" x="308.2988" y="-399.6" font-family="courier new" font-size="8.00" fill="#000000">var</text>
<polygon fill="none" stroke="#000000" points="279,-379 279,-394 352,-394 352,-379 279,-379"/>
<text text-anchor="start" x="281.8945" y="-384.6" font-family="courier new" font-size="8.00" fill="#000000">admin_username</text>
</g>
<!-- [root] azurerm_virtual_machine.vm&#45;&gt;[root] var.admin_username -->
<g id="edge_11" class="edge">
<title>[root] azurerm_virtual_machine.vm&#45;&gt;[root] var.admin_username</title>
<path fill="none" stroke="#000000" d="M236.4959,-447.8314C249.6774,-438.7927 265.7847,-427.7476 279.9711,-418.0198"/>
<polygon fill="#000000" stroke="#000000" points="282.2446,-420.7047 288.5125,-412.1628 278.2859,-414.9316 282.2446,-420.7047"/>
</g>
<!-- [root] var.admin_password -->
<g id="node_11" class="node">
<title>[root] var.admin_password</title>
<polygon fill="none" stroke="#000000" points="41,-394 41,-409 114,-409 114,-394 41,-394"/>
<text text-anchor="start" x="70.2988" y="-399.6" font-family="courier new" font-size="8.00" fill="#000000">var</text>
<polygon fill="none" stroke="#000000" points="41,-379 41,-394 114,-394 114,-379 41,-379"/>
<text text-anchor="start" x="43.8945" y="-384.6" font-family="courier new" font-size="8.00" fill="#000000">admin_password</text>
</g>
<!-- [root] azurerm_virtual_machine.vm&#45;&gt;[root] var.admin_password -->
<g id="edge_10" class="edge">
<title>[root] azurerm_virtual_machine.vm&#45;&gt;[root] var.admin_password</title>
<path fill="none" stroke="#000000" d="M176.4385,-447.8314C159.1119,-438.4516 137.7942,-426.9112 119.3464,-416.9244"/>
<polygon fill="#000000" stroke="#000000" points="121.0111,-413.8457 110.5508,-412.1628 117.6786,-420.0015 121.0111,-413.8457"/>
</g>
<!-- [root] azurerm_virtual_network.vnet&#45;&gt;[root] azurerm_resource_group.rg -->
<g id="edge_16" class="edge">
<title>[root] azurerm_virtual_network.vnet&#45;&gt;[root] azurerm_resource_group.rg</title>
<path fill="none" stroke="#000000" d="M317.664,-231.8314C325.9732,-223.2848 336.0264,-212.9443 345.0918,-203.6198"/>
<polygon fill="#000000" stroke="#000000" points="347.6369,-206.023 352.0982,-196.4133 342.6179,-201.1435 347.6369,-206.023"/>
</g>
<!-- [root] azurerm_virtual_network.vnet&#45;&gt;[root] var.hostname -->
<g id="edge_18" class="edge">
<title>[root] azurerm_virtual_network.vnet&#45;&gt;[root] var.hostname</title>
<path fill="none" stroke="#000000" d="M358.0335,-234.3809C382.4748,-226.7548 410.8028,-216.5035 435,-204 436.5068,-203.2214 438.0205,-202.3846 439.5288,-201.5053"/>
<polygon fill="#000000" stroke="#000000" points="441.4543,-204.4287 448.0221,-196.1152 437.7035,-198.5184 441.4543,-204.4287"/>
</g>
<!-- [root] var.address_space -->
<g id="node_17" class="node">
<title>[root] var.address_space</title>
<polygon fill="none" stroke="#000000" points="228,-178 228,-193 296,-193 296,-178 228,-178"/>
<text text-anchor="start" x="254.7988" y="-183.6" font-family="courier new" font-size="8.00" fill="#000000">var</text>
<polygon fill="none" stroke="#000000" points="228,-163 228,-178 296,-178 296,-163 228,-163"/>
<text text-anchor="start" x="230.7949" y="-168.6" font-family="courier new" font-size="8.00" fill="#000000">address_space</text>
</g>
<!-- [root] azurerm_virtual_network.vnet&#45;&gt;[root] var.address_space -->
<g id="edge_17" class="edge">
<title>[root] azurerm_virtual_network.vnet&#45;&gt;[root] var.address_space</title>
<path fill="none" stroke="#000000" d="M290.411,-231.8314C286.1683,-223.7925 281.0879,-214.1666 276.404,-205.2918"/>
<polygon fill="#000000" stroke="#000000" points="279.4811,-203.6235 271.7181,-196.4133 273.2904,-206.8908 279.4811,-203.6235"/>
</g>
<!-- [root] meta.count&#45;boundary (count boundary fixup) -->
<g id="node_18" class="node">
<title>[root] meta.count&#45;boundary (count boundary fixup)</title>
<polygon fill="none" stroke="#000000" points="316,-538 316,-553 389,-553 389,-538 316,-538"/>
<text text-anchor="start" x="342.8984" y="-543.6" font-family="courier new" font-size="8.00" fill="#000000">meta</text>
<polygon fill="none" stroke="#000000" points="316,-523 316,-538 389,-538 389,-523 316,-523"/>
<text text-anchor="start" x="318.8945" y="-528.6" font-family="courier new" font-size="8.00" fill="#000000">count&#45;boundary</text>
</g>
<!-- [root] meta.count&#45;boundary (count boundary fixup)&#45;&gt;[root] azurerm_virtual_machine.vm -->
<g id="edge_19" class="edge">
<title>[root] meta.count&#45;boundary (count boundary fixup)&#45;&gt;[root] azurerm_virtual_machine.vm</title>
<path fill="none" stroke="#000000" d="M316.1674,-519.8314C297.5843,-510.4089 274.7011,-498.8062 254.9435,-488.7883"/>
<polygon fill="#000000" stroke="#000000" points="256.323,-485.5635 245.8211,-484.1628 253.1573,-491.8069 256.323,-485.5635"/>
</g>
<!-- [root] output.ssh_command -->
<g id="node_20" class="node">
<title>[root] output.ssh_command</title>
<polygon fill="none" stroke="#000000" points="286,-466 286,-481 344,-481 344,-466 286,-466"/>
<text text-anchor="start" x="300.5977" y="-471.6" font-family="courier new" font-size="8.00" fill="#000000">output</text>
<polygon fill="none" stroke="#000000" points="286,-451 286,-466 344,-466 344,-451 286,-451"/>
<text text-anchor="start" x="288.5957" y="-456.6" font-family="courier new" font-size="8.00" fill="#000000">ssh_command</text>
</g>
<!-- [root] meta.count&#45;boundary (count boundary fixup)&#45;&gt;[root] output.ssh_command -->
<g id="edge_21" class="edge">
<title>[root] meta.count&#45;boundary (count boundary fixup)&#45;&gt;[root] output.ssh_command</title>
<path fill="none" stroke="#000000" d="M342.6633,-519.8314C338.5757,-511.8771 333.6896,-502.369 329.1691,-493.5723"/>
<polygon fill="#000000" stroke="#000000" points="332.1461,-491.7078 324.4624,-484.4133 325.9201,-494.9074 332.1461,-491.7078"/>
</g>
<!-- [root] var.storage_account_type -->
<g id="node_22" class="node">
<title>[root] var.storage_account_type</title>
<polygon fill="none" stroke="#000000" points="440,-466 440,-481 542,-481 542,-466 440,-466"/>
<text text-anchor="start" x="483.7988" y="-471.6" font-family="courier new" font-size="8.00" fill="#000000">var</text>
<polygon fill="none" stroke="#000000" points="440,-451 440,-466 542,-466 542,-451 440,-451"/>
<text text-anchor="start" x="442.9922" y="-456.6" font-family="courier new" font-size="8.00" fill="#000000">storage_account_type</text>
</g>
<!-- [root] meta.count&#45;boundary (count boundary fixup)&#45;&gt;[root] var.storage_account_type -->
<g id="edge_23" class="edge">
<title>[root] meta.count&#45;boundary (count boundary fixup)&#45;&gt;[root] var.storage_account_type</title>
<path fill="none" stroke="#000000" d="M387.0756,-519.8314C405.2661,-510.4089 427.6658,-498.8062 447.006,-488.7883"/>
<polygon fill="#000000" stroke="#000000" points="448.666,-491.8701 455.9357,-484.1628 445.4463,-485.6545 448.666,-491.8701"/>
</g>
<!-- [root] output.hostname -->
<g id="node_19" class="node">
<title>[root] output.hostname</title>
<polygon fill="none" stroke="#000000" points="571,-466 571,-481 615,-481 615,-466 571,-466"/>
<text text-anchor="start" x="578.5977" y="-471.6" font-family="courier new" font-size="8.00" fill="#000000">output</text>
<polygon fill="none" stroke="#000000" points="571,-451 571,-466 615,-466 615,-451 571,-451"/>
<text text-anchor="start" x="573.7969" y="-456.6" font-family="courier new" font-size="8.00" fill="#000000">hostname</text>
</g>
<!-- [root] meta.count&#45;boundary (count boundary fixup)&#45;&gt;[root] output.hostname -->
<g id="edge_20" class="edge">
<title>[root] meta.count&#45;boundary (count boundary fixup)&#45;&gt;[root] output.hostname</title>
<path fill="none" stroke="#000000" d="M388.6317,-533.7354C430.0825,-527.9938 498.9816,-515.6485 554,-492 555.8503,-491.2047 557.7074,-490.3201 559.5527,-489.371"/>
<polygon fill="#000000" stroke="#000000" points="561.6499,-492.2036 568.5941,-484.2018 558.1755,-486.1267 561.6499,-492.2036"/>
</g>
<!-- [root] output.vm_fqdn -->
<g id="node_21" class="node">
<title>[root] output.vm_fqdn</title>
<polygon fill="none" stroke="#000000" points="370,-466 370,-481 409,-481 409,-466 370,-466"/>
<text text-anchor="start" x="375.0977" y="-471.6" font-family="courier new" font-size="8.00" fill="#000000">output</text>
<polygon fill="none" stroke="#000000" points="370,-451 370,-466 409,-466 409,-451 370,-451"/>
<text text-anchor="start" x="372.6973" y="-456.6" font-family="courier new" font-size="8.00" fill="#000000">vm_fqdn</text>
</g>
<!-- [root] meta.count&#45;boundary (count boundary fixup)&#45;&gt;[root] output.vm_fqdn -->
<g id="edge_22" class="edge">
<title>[root] meta.count&#45;boundary (count boundary fixup)&#45;&gt;[root] output.vm_fqdn</title>
<path fill="none" stroke="#000000" d="M361.3367,-519.8314C365.4243,-511.8771 370.3104,-502.369 374.8309,-493.5723"/>
<polygon fill="#000000" stroke="#000000" points="378.0799,-494.9074 379.5376,-484.4133 371.8539,-491.7078 378.0799,-494.9074"/>
</g>
<!-- [root] output.ssh_command&#45;&gt;[root] azurerm_public_ip.pip -->
<g id="edge_25" class="edge">
<title>[root] output.ssh_command&#45;&gt;[root] azurerm_public_ip.pip</title>
<path fill="none" stroke="#000000" d="M337.7704,-447.8441C346.1719,-440.0783 355.0766,-430.4036 361,-420 373.355,-398.3002 379.6981,-370.4673 382.8961,-350.0117"/>
<polygon fill="#000000" stroke="#000000" points="386.3689,-350.449 384.2969,-340.0587 379.4372,-349.4733 386.3689,-350.449"/>
</g>
<!-- [root] output.ssh_command&#45;&gt;[root] var.admin_username -->
<g id="edge_26" class="edge">
<title>[root] output.ssh_command&#45;&gt;[root] var.admin_username</title>
<path fill="none" stroke="#000000" d="M315,-447.8314C315,-440.131 315,-430.9743 315,-422.4166"/>
<polygon fill="#000000" stroke="#000000" points="318.5001,-422.4132 315,-412.4133 311.5001,-422.4133 318.5001,-422.4132"/>
</g>
<!-- [root] provider.azurerm (close) -->
<g id="node_23" class="node">
<title>[root] provider.azurerm (close)</title>
<polygon fill="none" stroke="#000000" points="237,-538 237,-553 281,-553 281,-538 237,-538"/>
<text text-anchor="start" x="239.7969" y="-543.6" font-family="courier new" font-size="8.00" fill="#000000">provider</text>
<polygon fill="none" stroke="#000000" points="237,-523 237,-538 281,-538 281,-523 237,-523"/>
<text text-anchor="start" x="242.1973" y="-528.6" font-family="courier new" font-size="8.00" fill="#000000">azurerm</text>
</g>
<!-- [root] provider.azurerm (close)&#45;&gt;[root] azurerm_virtual_machine.vm -->
<g id="edge_28" class="edge">
<title>[root] provider.azurerm (close)&#45;&gt;[root] azurerm_virtual_machine.vm</title>
<path fill="none" stroke="#000000" d="M246.6352,-519.8314C241.0491,-511.6232 234.337,-501.7606 228.1928,-492.7323"/>
<polygon fill="#000000" stroke="#000000" points="231.051,-490.7112 222.5313,-484.4133 225.264,-494.6496 231.051,-490.7112"/>
</g>
<!-- [root] root -->
<g id="node_24" class="node">
<title>[root] root</title>
<polygon fill="none" stroke="#000000" points="334.3089,-628 265.6911,-628 265.6911,-592 334.3089,-592 334.3089,-628"/>
<text text-anchor="middle" x="300" y="-608.1313" font-family="courier new" font-size="8.00" fill="#000000">[root] root</text>
</g>
<!-- [root] root&#45;&gt;[root] meta.count&#45;boundary (count boundary fixup) -->
<g id="edge_29" class="edge">
<title>[root] root&#45;&gt;[root] meta.count&#45;boundary (count boundary fixup)</title>
<path fill="none" stroke="#000000" d="M313.1218,-591.8314C319.0499,-583.6232 326.1729,-573.7606 332.6933,-564.7323"/>
<polygon fill="#000000" stroke="#000000" points="335.684,-566.5693 338.7015,-556.4133 330.0092,-562.4708 335.684,-566.5693"/>
</g>
<!-- [root] root&#45;&gt;[root] provider.azurerm (close) -->
<g id="edge_30" class="edge">
<title>[root] root&#45;&gt;[root] provider.azurerm (close)</title>
<path fill="none" stroke="#000000" d="M289.654,-591.8314C285.0763,-583.7925 279.5948,-574.1666 274.5412,-565.2918"/>
<polygon fill="#000000" stroke="#000000" points="277.4752,-563.3712 269.4853,-556.4133 271.3923,-566.8351 277.4752,-563.3712"/>
</g>
<!-- [root] var.resource_group -->
<g id="node_9" class="node">
<title>[root] var.resource_group</title>
<polygon fill="none" stroke="#000000" points="292,-34 292,-49 365,-49 365,-34 292,-34"/>
<text text-anchor="start" x="321.2988" y="-39.6" font-family="courier new" font-size="8.00" fill="#000000">var</text>
<polygon fill="none" stroke="#000000" points="292,-19 292,-34 365,-34 365,-19 292,-19"/>
<text text-anchor="start" x="294.8945" y="-24.6" font-family="courier new" font-size="8.00" fill="#000000">resource_group</text>
</g>
<!-- [root] var.location&#45;&gt;[root] var.resource_group -->
<g id="edge_31" class="edge">
<title>[root] var.location&#45;&gt;[root] var.resource_group</title>
<path fill="none" stroke="#000000" stroke-dasharray="5,2" d="M330.9906,-87.8314C330.3889,-77 329.6271,-63.2876 329.023,-52.4133"/>
</g>
<!-- [root] var.image_uri -->
<g id="node_13" class="node">
<title>[root] var.image_uri</title>
<polygon fill="none" stroke="#000000" points="47,-322 47,-337 96,-337 96,-322 47,-322"/>
<text text-anchor="start" x="64.2988" y="-327.6" font-family="courier new" font-size="8.00" fill="#000000">var</text>
<polygon fill="none" stroke="#000000" points="47,-307 47,-322 96,-322 96,-307 47,-307"/>
<text text-anchor="start" x="49.8965" y="-312.6" font-family="courier new" font-size="8.00" fill="#000000">image_uri</text>
</g>
<!-- [root] var.admin_password&#45;&gt;[root] var.image_uri -->
<g id="edge_32" class="edge">
<title>[root] var.admin_password&#45;&gt;[root] var.image_uri</title>
<path fill="none" stroke="#000000" stroke-dasharray="5,2" d="M75.4859,-375.8314C74.5833,-365 73.4406,-351.2876 72.5344,-340.4133"/>
</g>
<!-- [root] var.os_type -->
<g id="node_14" class="node">
<title>[root] var.os_type</title>
<polygon fill="none" stroke="#000000" points="51,-250 51,-265 90,-265 90,-250 51,-250"/>
<text text-anchor="start" x="63.2988" y="-255.6" font-family="courier new" font-size="8.00" fill="#000000">var</text>
<polygon fill="none" stroke="#000000" points="51,-235 51,-250 90,-250 90,-235 51,-235"/>
<text text-anchor="start" x="53.6973" y="-240.6" font-family="courier new" font-size="8.00" fill="#000000">os_type</text>
</g>
<!-- [root] var.image_uri&#45;&gt;[root] var.os_type -->
<g id="edge_33" class="edge">
<title>[root] var.image_uri&#45;&gt;[root] var.os_type</title>
<path fill="none" stroke="#000000" stroke-dasharray="5,2" d="M70.7477,-303.8314C70.5972,-293 70.4068,-279.2876 70.2557,-268.4133"/>
</g>
<!-- [root] var.storage_account_name -->
<g id="node_15" class="node">
<title>[root] var.storage_account_name</title>
<polygon fill="none" stroke="#000000" points="16,-178 16,-193 118,-193 118,-178 16,-178"/>
<text text-anchor="start" x="59.7988" y="-183.6" font-family="courier new" font-size="8.00" fill="#000000">var</text>
<polygon fill="none" stroke="#000000" points="16,-163 16,-178 118,-178 118,-163 16,-163"/>
<text text-anchor="start" x="18.9922" y="-168.6" font-family="courier new" font-size="8.00" fill="#000000">storage_account_name</text>
</g>
<!-- [root] var.os_type&#45;&gt;[root] var.storage_account_name -->
<g id="edge_34" class="edge">
<title>[root] var.os_type&#45;&gt;[root] var.storage_account_name</title>
<path fill="none" stroke="#000000" stroke-dasharray="5,2" d="M69.243,-231.8314C68.7917,-221 68.2203,-207.2876 67.7672,-196.4133"/>
</g>
<!-- [root] var.vm_size -->
<g id="node_16" class="node">
<title>[root] var.vm_size</title>
<polygon fill="none" stroke="#000000" points="48,-106 48,-121 87,-121 87,-106 48,-106"/>
<text text-anchor="start" x="60.2988" y="-111.6" font-family="courier new" font-size="8.00" fill="#000000">var</text>
<polygon fill="none" stroke="#000000" points="48,-91 48,-106 87,-106 87,-91 48,-91"/>
<text text-anchor="start" x="50.6973" y="-96.6" font-family="courier new" font-size="8.00" fill="#000000">vm_size</text>
</g>
<!-- [root] var.storage_account_name&#45;&gt;[root] var.vm_size -->
<g id="edge_35" class="edge">
<title>[root] var.storage_account_name&#45;&gt;[root] var.vm_size</title>
<path fill="none" stroke="#000000" stroke-dasharray="5,2" d="M67,-159.8314C67,-149 67,-135.2876 67,-124.4133"/>
</g>
<!-- [root] output.hostname&#45;&gt;[root] var.hostname -->
<g id="edge_24" class="edge">
<title>[root] output.hostname&#45;&gt;[root] var.hostname</title>
<path fill="none" stroke="#000000" d="M585.3684,-447.9843C564.657,-399.0919 507.2944,-263.6785 482.5773,-205.33"/>
<polygon fill="#000000" stroke="#000000" points="485.7522,-203.8516 478.6288,-196.0089 479.3066,-206.582 485.7522,-203.8516"/>
</g>
<!-- [root] output.vm_fqdn&#45;&gt;[root] azurerm_public_ip.pip -->
<g id="edge_27" class="edge">
<title>[root] output.vm_fqdn&#45;&gt;[root] azurerm_public_ip.pip</title>
<path fill="none" stroke="#000000" d="M391.4511,-447.6822C392.4588,-439.2665 393.5045,-429.1444 394,-420 395.0581,-400.4731 395.4368,-395.5027 394,-376 393.3831,-367.6264 392.2351,-358.5812 390.9974,-350.3322"/>
<polygon fill="#000000" stroke="#000000" points="394.4477,-349.7428 389.415,-340.4196 387.5352,-350.8463 394.4477,-349.7428"/>
</g>
</g>
</svg>

