<?xml version="1.0" encoding="UTF-8" standalone="no"?>
<!DOCTYPE svg PUBLIC "-//W3C//DTD SVG 1.1//EN"
 "http://www.w3.org/Graphics/SVG/1.1/DTD/svg11.dtd">
<!-- Generated by graphviz version 2.40.1 (20161225.0304)
 -->
<!-- Title: %3 Pages: 1 -->
<svg width="891pt" height="548pt"
 viewBox="0.00 0.00 891.00 548.00" xmlns="http://www.w3.org/2000/svg" xmlns:xlink="http://www.w3.org/1999/xlink">
<g id="graph0" class="graph" transform="scale(1 1) rotate(0) translate(4 544)">
<title>%3</title>
<polygon fill="#ffffff" stroke="transparent" points="-4,4 -4,-544 887,-544 887,4 -4,4"/>
<!-- [root] azurerm_network_interface.nic -->
<g id="node_0" class="node">
<title>[root] azurerm_network_interface.nic</title>
<polygon fill="none" stroke="#000000" points="329,-306 329,-321 455,-321 455,-306 329,-306"/>
<text text-anchor="start" x="331.9902" y="-311.6" font-family="courier new" font-size="8.00" fill="#000000">azurerm_network_interface</text>
<polygon fill="none" stroke="#000000" points="329,-291 329,-306 455,-306 455,-291 329,-291"/>
<text text-anchor="start" x="384.7988" y="-296.6" font-family="courier new" font-size="8.00" fill="#000000">nic</text>
</g>
<!-- [root] azurerm_public_ip.pip -->
<g id="node_1" class="node">
<title>[root] azurerm_public_ip.pip</title>
<polygon fill="none" stroke="#000000" points="170,-234 170,-249 257,-249 257,-234 170,-234"/>
<text text-anchor="start" x="172.6934" y="-239.6" font-family="courier new" font-size="8.00" fill="#000000">azurerm_public_ip</text>
<polygon fill="none" stroke="#000000" points="170,-219 170,-234 257,-234 257,-219 170,-219"/>
<text text-anchor="start" x="206.2988" y="-224.6" font-family="courier new" font-size="8.00" fill="#000000">pip</text>
</g>
<!-- [root] azurerm_network_interface.nic&#45;&gt;[root] azurerm_public_ip.pip -->
<g id="edge_0" class="edge">
<title>[root] azurerm_network_interface.nic&#45;&gt;[root] azurerm_public_ip.pip</title>
<path fill="none" stroke="#000000" d="M346.8307,-287.8314C322.3104,-277.9684 291.8509,-265.7166 266.1878,-255.394"/>
<polygon fill="#000000" stroke="#000000" points="267.1932,-252.0259 256.6095,-251.5412 264.5809,-258.5202 267.1932,-252.0259"/>
</g>
<!-- [root] azurerm_subnet.subnet -->
<g id="node_3" class="node">
<title>[root] azurerm_subnet.subnet</title>
<polygon fill="none" stroke="#000000" points="356,-234 356,-249 429,-249 429,-234 356,-234"/>
<text text-anchor="start" x="358.8945" y="-239.6" font-family="courier new" font-size="8.00" fill="#000000">azurerm_subnet</text>
<polygon fill="none" stroke="#000000" points="356,-219 356,-234 429,-234 429,-219 356,-219"/>
<text text-anchor="start" x="378.0977" y="-224.6" font-family="courier new" font-size="8.00" fill="#000000">subnet</text>
</g>
<!-- [root] azurerm_network_interface.nic&#45;&gt;[root] azurerm_subnet.subnet -->
<g id="edge_1" class="edge">
<title>[root] azurerm_network_interface.nic&#45;&gt;[root] azurerm_subnet.subnet</title>
<path fill="none" stroke="#000000" d="M392,-287.8314C392,-280.131 392,-270.9743 392,-262.4166"/>
<polygon fill="#000000" stroke="#000000" points="395.5001,-262.4132 392,-252.4133 388.5001,-262.4133 395.5001,-262.4132"/>
</g>
<!-- [root] azurerm_resource_group.rg -->
<g id="node_2" class="node">
<title>[root] azurerm_resource_group.rg</title>
<polygon fill="none" stroke="#000000" points="193,-90 193,-105 304,-105 304,-90 193,-90"/>
<text text-anchor="start" x="195.6914" y="-95.6" font-family="courier new" font-size="8.00" fill="#000000">azurerm_resource_group</text>
<polygon fill="none" stroke="#000000" points="193,-75 193,-90 304,-90 304,-75 193,-75"/>
<text text-anchor="start" x="243.6992" y="-80.6" font-family="courier new" font-size="8.00" fill="#000000">rg</text>
</g>
<!-- [root] azurerm_public_ip.pip&#45;&gt;[root] azurerm_resource_group.rg -->
<g id="edge_2" class="edge">
<title>[root] azurerm_public_ip.pip&#45;&gt;[root] azurerm_resource_group.rg</title>
<path fill="none" stroke="#000000" d="M216.3652,-215.9728C219.8732,-197.733 225.7267,-168.769 232,-144 234.1505,-135.5093 236.755,-126.3488 239.2326,-118.027"/>
<polygon fill="#000000" stroke="#000000" points="242.6013,-118.9787 242.1526,-108.3934 235.9022,-116.9481 242.6013,-118.9787"/>
</g>
<!-- [root] var.hostname -->
<g id="node_7" class="node">
<title>[root] var.hostname</title>
<polygon fill="none" stroke="#000000" points="125,-90 125,-105 169,-105 169,-90 125,-90"/>
<text text-anchor="start" x="139.7988" y="-95.6" font-family="courier new" font-size="8.00" fill="#000000">var</text>
<polygon fill="none" stroke="#000000" points="125,-75 125,-90 169,-90 169,-75 125,-75"/>
<text text-anchor="start" x="127.7969" y="-80.6" font-family="courier new" font-size="8.00" fill="#000000">hostname</text>
</g>
<!-- [root] azurerm_public_ip.pip&#45;&gt;[root] var.hostname -->
<g id="edge_3" class="edge">
<title>[root] azurerm_public_ip.pip&#45;&gt;[root] var.hostname</title>
<path fill="none" stroke="#000000" d="M204.6411,-215.7623C193.235,-190.8764 172.7044,-146.0822 159.4742,-117.2165"/>
<polygon fill="#000000" stroke="#000000" points="162.6394,-115.722 155.2911,-108.0896 156.2759,-118.6386 162.6394,-115.722"/>
</g>
<!-- [root] provider.azurerm -->
<g id="node_6" class="node">
<title>[root] provider.azurerm</title>
<polygon fill="none" stroke="#000000" points="154,-18 154,-33 198,-33 198,-18 154,-18"/>
<text text-anchor="start" x="156.7969" y="-23.6" font-family="courier new" font-size="8.00" fill="#000000">provider</text>
<polygon fill="none" stroke="#000000" points="154,-3 154,-18 198,-18 198,-3 154,-3"/>
<text text-anchor="start" x="159.1973" y="-8.6" font-family="courier new" font-size="8.00" fill="#000000">azurerm</text>
</g>
<!-- [root] azurerm_resource_group.rg&#45;&gt;[root] provider.azurerm -->
<g id="edge_4" class="edge">
<title>[root] azurerm_resource_group.rg&#45;&gt;[root] provider.azurerm</title>
<path fill="none" stroke="#000000" d="M229.8314,-71.8314C221.2848,-63.2848 210.9443,-52.9443 201.6198,-43.6198"/>
<polygon fill="#000000" stroke="#000000" points="203.9592,-41.0095 194.4133,-36.4133 199.0095,-45.9592 203.9592,-41.0095"/>
</g>
<!-- [root] var.location -->
<g id="node_8" class="node">
<title>[root] var.location</title>
<polygon fill="none" stroke="#000000" points="226,-18 226,-33 270,-33 270,-18 226,-18"/>
<text text-anchor="start" x="240.7988" y="-23.6" font-family="courier new" font-size="8.00" fill="#000000">var</text>
<polygon fill="none" stroke="#000000" points="226,-3 226,-18 270,-18 270,-3 226,-3"/>
<text text-anchor="start" x="228.7969" y="-8.6" font-family="courier new" font-size="8.00" fill="#000000">location</text>
</g>
<!-- [root] azurerm_resource_group.rg&#45;&gt;[root] var.location -->
<g id="edge_5" class="edge">
<title>[root] azurerm_resource_group.rg&#45;&gt;[root] var.location</title>
<path fill="none" stroke="#000000" d="M248,-71.8314C248,-64.131 248,-54.9743 248,-46.4166"/>
<polygon fill="#000000" stroke="#000000" points="251.5001,-46.4132 248,-36.4133 244.5001,-46.4133 251.5001,-46.4132"/>
</g>
<!-- [root] var.resource_group -->
<g id="node_9" class="node">
<title>[root] var.resource_group</title>
<polygon fill="none" stroke="#000000" points="294,-18 294,-33 367,-33 367,-18 294,-18"/>
<text text-anchor="start" x="323.2988" y="-23.6" font-family="courier new" font-size="8.00" fill="#000000">var</text>
<polygon fill="none" stroke="#000000" points="294,-3 294,-18 367,-18 367,-3 294,-3"/>
<text text-anchor="start" x="296.8945" y="-8.6" font-family="courier new" font-size="8.00" fill="#000000">resource_group</text>
</g>
<!-- [root] azurerm_resource_group.rg&#45;&gt;[root] var.resource_group -->
<g id="edge_6" class="edge">
<title>[root] azurerm_resource_group.rg&#45;&gt;[root] var.resource_group</title>
<path fill="none" stroke="#000000" d="M268.6921,-71.8314C278.6948,-63.0485 290.855,-52.3712 301.6999,-42.8489"/>
<polygon fill="#000000" stroke="#000000" points="304.1094,-45.3909 309.3146,-36.1628 299.4908,-40.1308 304.1094,-45.3909"/>
</g>
<!-- [root] azurerm_virtual_network.vnet -->
<g id="node_5" class="node">
<title>[root] azurerm_virtual_network.vnet</title>
<polygon fill="none" stroke="#000000" points="241,-162 241,-177 357,-177 357,-162 241,-162"/>
<text text-anchor="start" x="243.791" y="-167.6" font-family="courier new" font-size="8.00" fill="#000000">azurerm_virtual_network</text>
<polygon fill="none" stroke="#000000" points="241,-147 241,-162 357,-162 357,-147 241,-147"/>
<text text-anchor="start" x="289.3984" y="-152.6" font-family="courier new" font-size="8.00" fill="#000000">vnet</text>
</g>
<!-- [root] azurerm_subnet.subnet&#45;&gt;[root] azurerm_virtual_network.vnet -->
<g id="edge_7" class="edge">
<title>[root] azurerm_subnet.subnet&#45;&gt;[root] azurerm_virtual_network.vnet</title>
<path fill="none" stroke="#000000" d="M368.5322,-215.8314C356.9673,-206.8779 342.8596,-195.9558 330.3817,-186.2955"/>
<polygon fill="#000000" stroke="#000000" points="332.5102,-183.5171 322.4603,-180.1628 328.225,-189.0521 332.5102,-183.5171"/>
</g>
<!-- [root] var.subnet_prefix -->
<g id="node_10" class="node">
<title>[root] var.subnet_prefix</title>
<polygon fill="none" stroke="#000000" points="375,-162 375,-177 443,-177 443,-162 375,-162"/>
<text text-anchor="start" x="401.7988" y="-167.6" font-family="courier new" font-size="8.00" fill="#000000">var</text>
<polygon fill="none" stroke="#000000" points="375,-147 375,-162 443,-162 443,-147 375,-147"/>
<text text-anchor="start" x="377.7949" y="-152.6" font-family="courier new" font-size="8.00" fill="#000000">subnet_prefix</text>
</g>
<!-- [root] azurerm_subnet.subnet&#45;&gt;[root] var.subnet_prefix -->
<g id="edge_8" class="edge">
<title>[root] azurerm_subnet.subnet&#45;&gt;[root] var.subnet_prefix</title>
<path fill="none" stroke="#000000" d="M396.2898,-215.8314C398.108,-208.131 400.2699,-198.9743 402.2905,-190.4166"/>
<polygon fill="#000000" stroke="#000000" points="405.7608,-190.95 404.6524,-180.4133 398.9481,-189.3414 405.7608,-190.95"/>
</g>
<!-- [root] azurerm_virtual_machine.vm -->
<g id="node_4" class="node">
<title>[root] azurerm_virtual_machine.vm</title>
<polygon fill="none" stroke="#000000" points="452,-378 452,-393 568,-393 568,-378 452,-378"/>
<text text-anchor="start" x="454.791" y="-383.6" font-family="courier new" font-size="8.00" fill="#000000">azurerm_virtual_machine</text>
<polygon fill="none" stroke="#000000" points="452,-363 452,-378 568,-378 568,-363 452,-363"/>
<text text-anchor="start" x="505.1992" y="-368.6" font-family="courier new" font-size="8.00" fill="#000000">vm</text>
</g>
<!-- [root] azurerm_virtual_machine.vm&#45;&gt;[root] azurerm_network_interface.nic -->
<g id="edge_9" class="edge">
<title>[root] azurerm_virtual_machine.vm&#45;&gt;[root] azurerm_network_interface.nic</title>
<path fill="none" stroke="#000000" d="M480.2236,-359.8314C465.1307,-350.6221 446.6243,-339.3301 430.4657,-329.4706"/>
<polygon fill="#000000" stroke="#000000" points="432.1263,-326.3838 421.7669,-324.1628 428.4802,-332.3593 432.1263,-326.3838"/>
</g>
<!-- [root] var.admin_password -->
<g id="node_11" class="node">
<title>[root] var.admin_password</title>
<polygon fill="none" stroke="#000000" points="474,-306 474,-321 547,-321 547,-306 474,-306"/>
<text text-anchor="start" x="503.2988" y="-311.6" font-family="courier new" font-size="8.00" fill="#000000">var</text>
<polygon fill="none" stroke="#000000" points="474,-291 474,-306 547,-306 547,-291 474,-291"/>
<text text-anchor="start" x="476.8945" y="-296.6" font-family="courier new" font-size="8.00" fill="#000000">admin_password</text>
</g>
<!-- [root] azurerm_virtual_machine.vm&#45;&gt;[root] var.admin_password -->
<g id="edge_10" class="edge">
<title>[root] azurerm_virtual_machine.vm&#45;&gt;[root] var.admin_password</title>
<path fill="none" stroke="#000000" d="M510,-359.8314C510,-352.131 510,-342.9743 510,-334.4166"/>
<polygon fill="#000000" stroke="#000000" points="513.5001,-334.4132 510,-324.4133 506.5001,-334.4133 513.5001,-334.4132"/>
</g>
<!-- [root] var.admin_username -->
<g id="node_12" class="node">
<title>[root] var.admin_username</title>
<polygon fill="none" stroke="#000000" points="238,-306 238,-321 311,-321 311,-306 238,-306"/>
<text text-anchor="start" x="267.2988" y="-311.6" font-family="courier new" font-size="8.00" fill="#000000">var</text>
<polygon fill="none" stroke="#000000" points="238,-291 238,-306 311,-306 311,-291 238,-291"/>
<text text-anchor="start" x="240.8945" y="-296.6" font-family="courier new" font-size="8.00" fill="#000000">admin_username</text>
</g>
<!-- [root] azurerm_virtual_machine.vm&#45;&gt;[root] var.admin_username -->
<g id="edge_11" class="edge">
<title>[root] azurerm_virtual_machine.vm&#45;&gt;[root] var.admin_username</title>
<path fill="none" stroke="#000000" d="M451.7674,-363.0057C413.9367,-352.8835 363.7096,-338.7253 320,-324 319.9035,-323.9675 319.8069,-323.9349 319.7102,-323.9022"/>
<polygon fill="#000000" stroke="#000000" points="321.1366,-320.6942 310.5418,-320.6646 318.8057,-327.2947 321.1366,-320.6942"/>
</g>
<!-- [root] var.image_uri -->
<g id="node_13" class="node">
<title>[root] var.image_uri</title>
<polygon fill="none" stroke="#000000" points="568,-306 568,-321 617,-321 617,-306 568,-306"/>
<text text-anchor="start" x="585.2988" y="-311.6" font-family="courier new" font-size="8.00" fill="#000000">var</text>
<polygon fill="none" stroke="#000000" points="568,-291 568,-306 617,-306 617,-291 568,-291"/>
<text text-anchor="start" x="570.8965" y="-296.6" font-family="courier new" font-size="8.00" fill="#000000">image_uri</text>
</g>
<!-- [root] azurerm_virtual_machine.vm&#45;&gt;[root] var.image_uri -->
<g id="edge_12" class="edge">
<title>[root] azurerm_virtual_machine.vm&#45;&gt;[root] var.image_uri</title>
<path fill="none" stroke="#000000" d="M530.6921,-359.8314C540.6948,-351.0485 552.855,-340.3712 563.6999,-330.8489"/>
<polygon fill="#000000" stroke="#000000" points="566.1094,-333.3909 571.3146,-324.1628 561.4908,-328.1308 566.1094,-333.3909"/>
</g>
<!-- [root] var.os_type -->
<g id="node_14" class="node">
<title>[root] var.os_type</title>
<polygon fill="none" stroke="#000000" points="645,-306 645,-321 684,-321 684,-306 645,-306"/>
<text text-anchor="start" x="657.2988" y="-311.6" font-family="courier new" font-size="8.00" fill="#000000">var</text>
<polygon fill="none" stroke="#000000" points="645,-291 645,-306 684,-306 684,-291 645,-291"/>
<text text-anchor="start" x="647.6973" y="-296.6" font-family="courier new" font-size="8.00" fill="#000000">os_type</text>
</g>
<!-- [root] azurerm_virtual_machine.vm&#45;&gt;[root] var.os_type -->
<g id="edge_13" class="edge">
<title>[root] azurerm_virtual_machine.vm&#45;&gt;[root] var.os_type</title>
<path fill="none" stroke="#000000" d="M550.3025,-359.9711C571.1241,-350.5626 597.1122,-338.6752 627.7228,-324.069"/>
<polygon fill="#000000" stroke="#000000" points="629.4147,-327.1395 636.9224,-319.6638 626.3914,-320.826 629.4147,-327.1395"/>
</g>
<!-- [root] var.storage_account_name -->
<g id="node_15" class="node">
<title>[root] var.storage_account_name</title>
<polygon fill="none" stroke="#000000" points="709,-306 709,-321 811,-321 811,-306 709,-306"/>
<text text-anchor="start" x="752.7988" y="-311.6" font-family="courier new" font-size="8.00" fill="#000000">var</text>
<polygon fill="none" stroke="#000000" points="709,-291 709,-306 811,-306 811,-291 709,-291"/>
<text text-anchor="start" x="711.9922" y="-296.6" font-family="courier new" font-size="8.00" fill="#000000">storage_account_name</text>
</g>
<!-- [root] azurerm_virtual_machine.vm&#45;&gt;[root] var.storage_account_name -->
<g id="edge_14" class="edge">
<title>[root] azurerm_virtual_machine.vm&#45;&gt;[root] var.storage_account_name</title>
<path fill="none" stroke="#000000" d="M568.2723,-361.6752C603.6229,-351.7169 649.883,-338.589 699.3497,-324.1724"/>
<polygon fill="#000000" stroke="#000000" points="700.3333,-327.5315 708.9519,-321.3695 698.3717,-320.8119 700.3333,-327.5315"/>
</g>
<!-- [root] var.vm_size -->
<g id="node_16" class="node">
<title>[root] var.vm_size</title>
<polygon fill="none" stroke="#000000" points="837,-306 837,-321 876,-321 876,-306 837,-306"/>
<text text-anchor="start" x="849.2988" y="-311.6" font-family="courier new" font-size="8.00" fill="#000000">var</text>
<polygon fill="none" stroke="#000000" points="837,-291 837,-306 876,-306 876,-291 837,-291"/>
<text text-anchor="start" x="839.6973" y="-296.6" font-family="courier new" font-size="8.00" fill="#000000">vm_size</text>
</g>
<!-- [root] azurerm_virtual_machine.vm&#45;&gt;[root] var.vm_size -->
<g id="edge_15" class="edge">
<title>[root] azurerm_virtual_machine.vm&#45;&gt;[root] var.vm_size</title>
<path fill="none" stroke="#000000" d="M568.0727,-372.9761C629.1347,-366.5695 727.7443,-353.0276 819.1571,-323.7746"/>
<polygon fill="#000000" stroke="#000000" points="820.4169,-327.045 828.8332,-320.6094 818.2406,-320.3919 820.4169,-327.045"/>
</g>
<!-- [root] azurerm_virtual_network.vnet&#45;&gt;[root] azurerm_resource_group.rg -->
<g id="edge_16" class="edge">
<title>[root] azurerm_virtual_network.vnet&#45;&gt;[root] azurerm_resource_group.rg</title>
<path fill="none" stroke="#000000" d="M286.1305,-143.8314C280.3165,-135.6232 273.3304,-125.7606 266.9354,-116.7323"/>
<polygon fill="#000000" stroke="#000000" points="269.679,-114.5505 261.0427,-108.4133 263.9669,-118.5966 269.679,-114.5505"/>
</g>
<!-- [root] azurerm_virtual_network.vnet&#45;&gt;[root] var.hostname -->
<g id="edge_18" class="edge">
<title>[root] azurerm_virtual_network.vnet&#45;&gt;[root] var.hostname</title>
<path fill="none" stroke="#000000" d="M259.4085,-143.9022C238.948,-134.4737 213.4006,-122.5854 183.1743,-108.0326"/>
<polygon fill="#000000" stroke="#000000" points="184.6139,-104.8411 174.0868,-103.6448 181.5702,-111.1447 184.6139,-104.8411"/>
</g>
<!-- [root] var.address_space -->
<g id="node_17" class="node">
<title>[root] var.address_space</title>
<polygon fill="none" stroke="#000000" points="322,-90 322,-105 390,-105 390,-90 322,-90"/>
<text text-anchor="start" x="348.7988" y="-95.6" font-family="courier new" font-size="8.00" fill="#000000">var</text>
<polygon fill="none" stroke="#000000" points="322,-75 322,-90 390,-90 390,-75 322,-75"/>
<text text-anchor="start" x="324.7949" y="-80.6" font-family="courier new" font-size="8.00" fill="#000000">address_space</text>
</g>
<!-- [root] azurerm_virtual_network.vnet&#45;&gt;[root] var.address_space -->
<g id="edge_17" class="edge">
<title>[root] azurerm_virtual_network.vnet&#45;&gt;[root] var.address_space</title>
<path fill="none" stroke="#000000" d="M313.3835,-143.8314C319.9486,-135.5386 327.8507,-125.557 335.0578,-116.4533"/>
<polygon fill="#000000" stroke="#000000" points="337.9599,-118.4262 341.4228,-108.4133 332.4716,-114.0813 337.9599,-118.4262"/>
</g>
<!-- [root] meta.count&#45;boundary (count boundary fixup) -->
<g id="node_18" class="node">
<title>[root] meta.count&#45;boundary (count boundary fixup)</title>
<polygon fill="none" stroke="#000000" points="186,-450 186,-465 259,-465 259,-450 186,-450"/>
<text text-anchor="start" x="212.8984" y="-455.6" font-family="courier new" font-size="8.00" fill="#000000">meta</text>
<polygon fill="none" stroke="#000000" points="186,-435 186,-450 259,-450 259,-435 186,-435"/>
<text text-anchor="start" x="188.8945" y="-440.6" font-family="courier new" font-size="8.00" fill="#000000">count&#45;boundary</text>
</g>
<!-- [root] meta.count&#45;boundary (count boundary fixup)&#45;&gt;[root] azurerm_virtual_machine.vm -->
<g id="edge_19" class="edge">
<title>[root] meta.count&#45;boundary (count boundary fixup)&#45;&gt;[root] azurerm_virtual_machine.vm</title>
<path fill="none" stroke="#000000" d="M258.7679,-440.808C304.855,-429.2863 384.7497,-409.3126 442.0777,-394.9806"/>
<polygon fill="#000000" stroke="#000000" points="442.9371,-398.3735 451.7897,-392.5526 441.2393,-391.5825 442.9371,-398.3735"/>
</g>
<!-- [root] output.hostname -->
<g id="node_19" class="node">
<title>[root] output.hostname</title>
<polygon fill="none" stroke="#000000" points="102,-234 102,-249 146,-249 146,-234 102,-234"/>
<text text-anchor="start" x="109.5977" y="-239.6" font-family="courier new" font-size="8.00" fill="#000000">output</text>
<polygon fill="none" stroke="#000000" points="102,-219 102,-234 146,-234 146,-219 102,-219"/>
<text text-anchor="start" x="104.7969" y="-224.6" font-family="courier new" font-size="8.00" fill="#000000">hostname</text>
</g>
<!-- [root] meta.count&#45;boundary (count boundary fixup)&#45;&gt;[root] output.hostname -->
<g id="edge_20" class="edge">
<title>[root] meta.count&#45;boundary (count boundary fixup)&#45;&gt;[root] output.hostname</title>
<path fill="none" stroke="#000000" d="M186.6018,-431.8245C172.7067,-422.8991 157.9676,-410.8419 149,-396 123.9016,-354.4606 121.1484,-296.3713 122.1072,-262.2178"/>
<polygon fill="#000000" stroke="#000000" points="125.6125,-262.1564 122.5253,-252.0214 118.6184,-261.8695 125.6125,-262.1564"/>
</g>
<!-- [root] output.ssh_command -->
<g id="node_20" class="node">
<title>[root] output.ssh_command</title>
<polygon fill="none" stroke="#000000" points="230,-378 230,-393 288,-393 288,-378 230,-378"/>
<text text-anchor="start" x="244.5977" y="-383.6" font-family="courier new" font-size="8.00" fill="#000000">output</text>
<polygon fill="none" stroke="#000000" points="230,-363 230,-378 288,-378 288,-363 230,-363"/>
<text text-anchor="start" x="232.5957" y="-368.6" font-family="courier new" font-size="8.00" fill="#000000">ssh_command</text>
</g>
<!-- [root] meta.count&#45;boundary (count boundary fixup)&#45;&gt;[root] output.ssh_command -->
<g id="edge_21" class="edge">
<title>[root] meta.count&#45;boundary (count boundary fixup)&#45;&gt;[root] output.ssh_command</title>
<path fill="none" stroke="#000000" d="M231.3367,-431.8314C235.4243,-423.8771 240.3104,-414.369 244.8309,-405.5723"/>
<polygon fill="#000000" stroke="#000000" points="248.0799,-406.9074 249.5376,-396.4133 241.8539,-403.7078 248.0799,-406.9074"/>
</g>
<!-- [root] output.vm_fqdn -->
<g id="node_21" class="node">
<title>[root] output.vm_fqdn</title>
<polygon fill="none" stroke="#000000" points="166,-378 166,-393 205,-393 205,-378 166,-378"/>
<text text-anchor="start" x="171.0977" y="-383.6" font-family="courier new" font-size="8.00" fill="#000000">output</text>
<polygon fill="none" stroke="#000000" points="166,-363 166,-378 205,-378 205,-363 166,-363"/>
<text text-anchor="start" x="168.6973" y="-368.6" font-family="courier new" font-size="8.00" fill="#000000">vm_fqdn</text>
</g>
<!-- [root] meta.count&#45;boundary (count boundary fixup)&#45;&gt;[root] output.vm_fqdn -->
<g id="edge_22" class="edge">
<title>[root] meta.count&#45;boundary (count boundary fixup)&#45;&gt;[root] output.vm_fqdn</title>
<path fill="none" stroke="#000000" d="M212.6633,-431.8314C208.5757,-423.8771 203.6896,-414.369 199.1691,-405.5723"/>
<polygon fill="#000000" stroke="#000000" points="202.1461,-403.7078 194.4624,-396.4133 195.9201,-406.9074 202.1461,-403.7078"/>
</g>
<!-- [root] var.storage_account_type -->
<g id="node_22" class="node">
<title>[root] var.storage_account_type</title>
<polygon fill="none" stroke="#000000" points="0,-378 0,-393 102,-393 102,-378 0,-378"/>
<text text-anchor="start" x="43.7988" y="-383.6" font-family="courier new" font-size="8.00" fill="#000000">var</text>
<polygon fill="none" stroke="#000000" points="0,-363 0,-378 102,-378 102,-363 0,-363"/>
<text text-anchor="start" x="2.9922" y="-368.6" font-family="courier new" font-size="8.00" fill="#000000">storage_account_type</text>
</g>
<!-- [root] meta.count&#45;boundary (count boundary fixup)&#45;&gt;[root] var.storage_account_type -->
<g id="edge_23" class="edge">
<title>[root] meta.count&#45;boundary (count boundary fixup)&#45;&gt;[root] var.storage_account_type</title>
<path fill="none" stroke="#000000" d="M185.3162,-434.5542C161.4555,-424.5076 129.9666,-411.2491 103.4755,-400.0949"/>
<polygon fill="#000000" stroke="#000000" points="104.5397,-396.7455 93.9651,-396.0906 101.8233,-403.1969 104.5397,-396.7455"/>
</g>
<!-- [root] output.hostname&#45;&gt;[root] var.hostname -->
<g id="edge_24" class="edge">
<title>[root] output.hostname&#45;&gt;[root] var.hostname</title>
<path fill="none" stroke="#000000" d="M126.913,-215.7623C130.8532,-191.0928 137.9182,-146.8598 142.5321,-117.9731"/>
<polygon fill="#000000" stroke="#000000" points="145.9896,-118.5165 144.1107,-108.0896 139.0772,-117.4124 145.9896,-118.5165"/>
</g>
<!-- [root] output.ssh_command&#45;&gt;[root] azurerm_public_ip.pip -->
<g id="edge_25" class="edge">
<title>[root] output.ssh_command&#45;&gt;[root] azurerm_public_ip.pip</title>
<path fill="none" stroke="#000000" d="M246.3708,-359.8029C239.924,-349.6868 232.5099,-336.6229 228,-324 220.8607,-304.0176 217.0858,-280.3045 215.1091,-262.2365"/>
<polygon fill="#000000" stroke="#000000" points="218.5711,-261.6752 214.119,-252.0613 211.6041,-262.3533 218.5711,-261.6752"/>
</g>
<!-- [root] output.ssh_command&#45;&gt;[root] var.admin_username -->
<g id="edge_26" class="edge">
<title>[root] output.ssh_command&#45;&gt;[root] var.admin_username</title>
<path fill="none" stroke="#000000" d="M262.7851,-359.8314C264.3894,-352.131 266.297,-342.9743 268.0799,-334.4166"/>
<polygon fill="#000000" stroke="#000000" points="271.5507,-334.9169 270.1639,-324.4133 264.6979,-333.4892 271.5507,-334.9169"/>
</g>
<!-- [root] output.vm_fqdn&#45;&gt;[root] azurerm_public_ip.pip -->
<g id="edge_27" class="edge">
<title>[root] output.vm_fqdn&#45;&gt;[root] azurerm_public_ip.pip</title>
<path fill="none" stroke="#000000" d="M185.8876,-359.8882C187.0467,-341.5824 189.6039,-312.5682 195,-288 196.899,-279.3539 199.673,-270.1468 202.477,-261.83"/>
<polygon fill="#000000" stroke="#000000" points="205.8392,-262.8191 205.8555,-252.2243 199.2358,-260.4965 205.8392,-262.8191"/>
</g>
<!-- [root] provider.azurerm (close) -->
<g id="node_23" class="node">
<title>[root] provider.azurerm (close)</title>
<polygon fill="none" stroke="#000000" points="383,-450 383,-465 427,-465 427,-450 383,-450"/>
<text text-anchor="start" x="385.7969" y="-455.6" font-family="courier new" font-size="8.00" fill="#000000">provider</text>
<polygon fill="none" stroke="#000000" points="383,-435 383,-450 427,-450 427,-435 383,-435"/>
<text text-anchor="start" x="388.1973" y="-440.6" font-family="courier new" font-size="8.00" fill="#000000">azurerm</text>
</g>
<!-- [root] provider.azurerm (close)&#45;&gt;[root] azurerm_virtual_machine.vm -->
<g id="edge_28" class="edge">
<title>[root] provider.azurerm (close)&#45;&gt;[root] azurerm_virtual_machine.vm</title>
<path fill="none" stroke="#000000" d="M431.4959,-431.8314C444.6774,-422.7927 460.7847,-411.7476 474.9711,-402.0198"/>
<polygon fill="#000000" stroke="#000000" points="477.2446,-404.7047 483.5125,-396.1628 473.2859,-398.9316 477.2446,-404.7047"/>
</g>
<!-- [root] root -->
<g id="node_24" class="node">
<title>[root] root</title>
<polygon fill="none" stroke="#000000" points="297.3089,-540 228.6911,-540 228.6911,-504 297.3089,-504 297.3089,-540"/>
<text text-anchor="middle" x="263" y="-520.1313" font-family="courier new" font-size="8.00" fill="#000000">[root] root</text>
</g>
<!-- [root] root&#45;&gt;[root] meta.count&#45;boundary (count boundary fixup) -->
<g id="edge_29" class="edge">
<title>[root] root&#45;&gt;[root] meta.count&#45;boundary (count boundary fixup)</title>
<path fill="none" stroke="#000000" d="M252.654,-503.8314C248.0763,-495.7925 242.5948,-486.1666 237.5412,-477.2918"/>
<polygon fill="#000000" stroke="#000000" points="240.4752,-475.3712 232.4853,-468.4133 234.3923,-478.8351 240.4752,-475.3712"/>
</g>
<!-- [root] root&#45;&gt;[root] provider.azurerm (close) -->
<g id="edge_30" class="edge">
<title>[root] root&#45;&gt;[root] provider.azurerm (close)</title>
<path fill="none" stroke="#000000" d="M297.3742,-504.5708C318.9204,-493.646 346.6635,-479.5791 368.5856,-468.4636"/>
<polygon fill="#000000" stroke="#000000" points="370.2532,-471.5423 377.5894,-463.8983 367.0876,-465.299 370.2532,-471.5423"/>
</g>
</g>
</svg>

