<?xml version="1.0" encoding="UTF-8" standalone="no"?>
<!DOCTYPE svg PUBLIC "-//W3C//DTD SVG 1.1//EN"
 "http://www.w3.org/Graphics/SVG/1.1/DTD/svg11.dtd">
<!-- Generated by graphviz version 2.40.1 (20161225.0304)
 -->
<!-- Title: %3 Pages: 1 -->
<svg width="412pt" height="924pt"
 viewBox="0.00 0.00 412.00 924.00" xmlns="http://www.w3.org/2000/svg" xmlns:xlink="http://www.w3.org/1999/xlink">
<g id="graph0" class="graph" transform="scale(1 1) rotate(0) translate(4 920)">
<title>%3</title>
<polygon fill="#ffffff" stroke="transparent" points="-4,4 -4,-920 408,-920 408,4 -4,4"/>
<g id="clust2" class="cluster">
<title>cluster[root] azurerm_container_service.container_service_var_</title>
</g>
<g id="clust3" class="cluster">
<title>cluster[root] azurerm_resource_group.resource_group_var_</title>
</g>
<g id="clust4" class="cluster">
<title>cluster[root] meta.count&#45;boundary (count boundary fixup)_output_[root] azurerm_container_service.container_service</title>
</g>
<!-- [root] azurerm_container_service.container_service -->
<g id="node_0" class="node">
<title>[root] azurerm_container_service.container_service</title>
<polygon fill="none" stroke="#000000" points="122,-610 122,-625 248,-625 248,-610 122,-610"/>
<text text-anchor="start" x="124.9902" y="-615.6" font-family="courier new" font-size="8.00" fill="#000000">azurerm_container_service</text>
<polygon fill="none" stroke="#000000" points="122,-595 122,-610 248,-610 248,-595 122,-595"/>
<text text-anchor="start" x="144.1934" y="-600.6" font-family="courier new" font-size="8.00" fill="#000000">container_service</text>
</g>
<!-- [root] azurerm_resource_group.resource_group -->
<g id="node_1" class="node">
<title>[root] azurerm_resource_group.resource_group</title>
<polygon fill="none" stroke="#000000" points="187,-538 187,-553 298,-553 298,-538 187,-538"/>
<text text-anchor="start" x="189.6914" y="-543.6" font-family="courier new" font-size="8.00" fill="#000000">azurerm_resource_group</text>
<polygon fill="none" stroke="#000000" points="187,-523 187,-538 298,-538 298,-523 187,-523"/>
<text text-anchor="start" x="208.8945" y="-528.6" font-family="courier new" font-size="8.00" fill="#000000">resource_group</text>
</g>
<!-- [root] azurerm_container_service.container_service&#45;&gt;[root] azurerm_resource_group.resource_group -->
<g id="edge_0" class="edge">
<title>[root] azurerm_container_service.container_service&#45;&gt;[root] azurerm_resource_group.resource_group</title>
<path fill="none" stroke="#000000" d="M199.3835,-591.8314C205.9486,-583.5386 213.8507,-573.557 221.0578,-564.4533"/>
<polygon fill="#000000" stroke="#000000" points="223.9599,-566.4262 227.4228,-556.4133 218.4716,-562.0813 223.9599,-566.4262"/>
</g>
<!-- [root] var.dns_name_prefix -->
<g id="node_3" class="node">
<title>[root] var.dns_name_prefix</title>
<polygon fill="none" stroke="#000000" points="78,-538 78,-553 156,-553 156,-538 78,-538"/>
<text text-anchor="start" x="109.7988" y="-543.6" font-family="courier new" font-size="8.00" fill="#000000">var</text>
<polygon fill="none" stroke="#000000" points="78,-523 78,-538 156,-538 156,-523 78,-523"/>
<text text-anchor="start" x="80.9941" y="-528.6" font-family="courier new" font-size="8.00" fill="#000000">dns_name_prefix</text>
</g>
<!-- [root] azurerm_container_service.container_service&#45;&gt;[root] var.dns_name_prefix -->
<g id="edge_1" class="edge">
<title>[root] azurerm_container_service.container_service&#45;&gt;[root] var.dns_name_prefix</title>
<path fill="none" stroke="#000000" d="M167.8407,-591.8314C159.8489,-583.3694 150.1962,-573.1489 141.4584,-563.8971"/>
<polygon fill="#000000" stroke="#000000" points="143.8011,-561.2802 134.3903,-556.4133 138.712,-566.0866 143.8011,-561.2802"/>
</g>
<!-- [root] provider.azurerm -->
<g id="node_2" class="node">
<title>[root] provider.azurerm</title>
<polygon fill="none" stroke="#000000" points="205,-466 205,-481 249,-481 249,-466 205,-466"/>
<text text-anchor="start" x="207.7969" y="-471.6" font-family="courier new" font-size="8.00" fill="#000000">provider</text>
<polygon fill="none" stroke="#000000" points="205,-451 205,-466 249,-466 249,-451 205,-451"/>
<text text-anchor="start" x="210.1973" y="-456.6" font-family="courier new" font-size="8.00" fill="#000000">azurerm</text>
</g>
<!-- [root] azurerm_resource_group.resource_group&#45;&gt;[root] provider.azurerm -->
<g id="edge_9" class="edge">
<title>[root] azurerm_resource_group.resource_group&#45;&gt;[root] provider.azurerm</title>
<path fill="none" stroke="#000000" d="M238.2149,-519.8314C236.6106,-512.131 234.703,-502.9743 232.9201,-494.4166"/>
<polygon fill="#000000" stroke="#000000" points="236.3021,-493.4892 230.8361,-484.4133 229.4493,-494.9169 236.3021,-493.4892"/>
</g>
<!-- [root] var.resource_group_location -->
<g id="node_11" class="node">
<title>[root] var.resource_group_location</title>
<polygon fill="none" stroke="#000000" points="272,-466 272,-481 388,-481 388,-466 272,-466"/>
<text text-anchor="start" x="322.7988" y="-471.6" font-family="courier new" font-size="8.00" fill="#000000">var</text>
<polygon fill="none" stroke="#000000" points="272,-451 272,-466 388,-466 388,-451 272,-451"/>
<text text-anchor="start" x="274.791" y="-456.6" font-family="courier new" font-size="8.00" fill="#000000">resource_group_location</text>
</g>
<!-- [root] azurerm_resource_group.resource_group&#45;&gt;[root] var.resource_group_location -->
<g id="edge_10" class="edge">
<title>[root] azurerm_resource_group.resource_group&#45;&gt;[root] var.resource_group_location</title>
<path fill="none" stroke="#000000" d="M264.2061,-519.8314C275.045,-510.9632 288.2444,-500.1637 299.9678,-490.5718"/>
<polygon fill="#000000" stroke="#000000" points="302.2777,-493.2041 307.801,-484.1628 297.845,-487.7864 302.2777,-493.2041"/>
</g>
<!-- [root] meta.count&#45;boundary (count boundary fixup) -->
<g id="node_13" class="node">
<title>[root] meta.count&#45;boundary (count boundary fixup)</title>
<polygon fill="none" stroke="#000000" points="127,-826 127,-841 200,-841 200,-826 127,-826"/>
<text text-anchor="start" x="153.8984" y="-831.6" font-family="courier new" font-size="8.00" fill="#000000">meta</text>
<polygon fill="none" stroke="#000000" points="127,-811 127,-826 200,-826 200,-811 127,-811"/>
<text text-anchor="start" x="129.8945" y="-816.6" font-family="courier new" font-size="8.00" fill="#000000">count&#45;boundary</text>
</g>
<!-- [root] output.master_fqdn -->
<g id="node_14" class="node">
<title>[root] output.master_fqdn</title>
<polygon fill="none" stroke="#000000" points="135,-754 135,-769 193,-769 193,-754 135,-754"/>
<text text-anchor="start" x="149.5977" y="-759.6" font-family="courier new" font-size="8.00" fill="#000000">output</text>
<polygon fill="none" stroke="#000000" points="135,-739 135,-754 193,-754 193,-739 135,-739"/>
<text text-anchor="start" x="137.5957" y="-744.6" font-family="courier new" font-size="8.00" fill="#000000">master_fqdn</text>
</g>
<!-- [root] meta.count&#45;boundary (count boundary fixup)&#45;&gt;[root] output.master_fqdn -->
<g id="edge_12" class="edge">
<title>[root] meta.count&#45;boundary (count boundary fixup)&#45;&gt;[root] output.master_fqdn</title>
<path fill="none" stroke="#000000" d="M163.2523,-807.8314C163.3593,-800.131 163.4865,-790.9743 163.6053,-782.4166"/>
<polygon fill="#000000" stroke="#000000" points="167.1049,-782.4609 163.7443,-772.4133 160.1056,-782.3637 167.1049,-782.4609"/>
</g>
<!-- [root] provider.azurerm (close) -->
<g id="node_16" class="node">
<title>[root] provider.azurerm (close)</title>
<polygon fill="none" stroke="#000000" points="223,-826 223,-841 267,-841 267,-826 223,-826"/>
<text text-anchor="start" x="225.7969" y="-831.6" font-family="courier new" font-size="8.00" fill="#000000">provider</text>
<polygon fill="none" stroke="#000000" points="223,-811 223,-826 267,-826 267,-811 223,-811"/>
<text text-anchor="start" x="228.1973" y="-816.6" font-family="courier new" font-size="8.00" fill="#000000">azurerm</text>
</g>
<!-- [root] provider.azurerm (close)&#45;&gt;[root] azurerm_container_service.container_service -->
<g id="edge_16" class="edge">
<title>[root] provider.azurerm (close)&#45;&gt;[root] azurerm_container_service.container_service</title>
<path fill="none" stroke="#000000" d="M246.4615,-807.9498C248.3235,-775.8518 248.9294,-707.3941 226,-656 222.8236,-648.8804 218.1331,-642.0865 213.0481,-636.01"/>
<polygon fill="#000000" stroke="#000000" points="215.2833,-633.2643 205.9744,-628.2051 210.0965,-637.9652 215.2833,-633.2643"/>
</g>
<!-- [root] root -->
<g id="node_17" class="node">
<title>[root] root</title>
<polygon fill="none" stroke="#000000" points="238.3089,-916 169.6911,-916 169.6911,-880 238.3089,-880 238.3089,-916"/>
<text text-anchor="middle" x="204" y="-896.1313" font-family="courier new" font-size="8.00" fill="#000000">[root] root</text>
</g>
<!-- [root] root&#45;&gt;[root] meta.count&#45;boundary (count boundary fixup) -->
<g id="edge_17" class="edge">
<title>[root] root&#45;&gt;[root] meta.count&#45;boundary (count boundary fixup)</title>
<path fill="none" stroke="#000000" d="M193.654,-879.8314C189.0763,-871.7925 183.5948,-862.1666 178.5412,-853.2918"/>
<polygon fill="#000000" stroke="#000000" points="181.4752,-851.3712 173.4853,-844.4133 175.3923,-854.8351 181.4752,-851.3712"/>
</g>
<!-- [root] root&#45;&gt;[root] provider.azurerm (close) -->
<g id="edge_18" class="edge">
<title>[root] root&#45;&gt;[root] provider.azurerm (close)</title>
<path fill="none" stroke="#000000" d="M214.346,-879.8314C218.9237,-871.7925 224.4052,-862.1666 229.4588,-853.2918"/>
<polygon fill="#000000" stroke="#000000" points="232.6077,-854.8351 234.5147,-844.4133 226.5248,-851.3712 232.6077,-854.8351"/>
</g>
<!-- [root] var.linux_admin_ssh_publickey -->
<g id="node_4" class="node">
<title>[root] var.linux_admin_ssh_publickey</title>
<polygon fill="none" stroke="#000000" points="43,-466 43,-481 169,-481 169,-466 43,-466"/>
<text text-anchor="start" x="98.7988" y="-471.6" font-family="courier new" font-size="8.00" fill="#000000">var</text>
<polygon fill="none" stroke="#000000" points="43,-451 43,-466 169,-466 169,-451 43,-451"/>
<text text-anchor="start" x="45.9902" y="-456.6" font-family="courier new" font-size="8.00" fill="#000000">linux_admin_ssh_publickey</text>
</g>
<!-- [root] var.dns_name_prefix&#45;&gt;[root] var.linux_admin_ssh_publickey -->
<g id="edge_68" class="edge">
<title>[root] var.dns_name_prefix&#45;&gt;[root] var.linux_admin_ssh_publickey</title>
<path fill="none" stroke="#000000" stroke-dasharray="5,2" d="M114.2242,-519.8314C112.5694,-509 110.4745,-495.2876 108.8131,-484.4133"/>
</g>
<!-- [root] var.linux_admin_username -->
<g id="node_5" class="node">
<title>[root] var.linux_admin_username</title>
<polygon fill="none" stroke="#000000" points="48,-394 48,-409 150,-409 150,-394 48,-394"/>
<text text-anchor="start" x="91.7988" y="-399.6" font-family="courier new" font-size="8.00" fill="#000000">var</text>
<polygon fill="none" stroke="#000000" points="48,-379 48,-394 150,-394 150,-379 48,-379"/>
<text text-anchor="start" x="50.9922" y="-384.6" font-family="courier new" font-size="8.00" fill="#000000">linux_admin_username</text>
</g>
<!-- [root] var.linux_admin_ssh_publickey&#45;&gt;[root] var.linux_admin_username -->
<g id="edge_69" class="edge">
<title>[root] var.linux_admin_ssh_publickey&#45;&gt;[root] var.linux_admin_username</title>
<path fill="none" stroke="#000000" stroke-dasharray="5,2" d="M104.2336,-447.8314C103.1806,-437 101.8474,-423.2876 100.7902,-412.4133"/>
</g>
<!-- [root] var.linux_agent_count -->
<g id="node_6" class="node">
<title>[root] var.linux_agent_count</title>
<polygon fill="none" stroke="#000000" points="53,-322 53,-337 140,-337 140,-322 53,-322"/>
<text text-anchor="start" x="89.2988" y="-327.6" font-family="courier new" font-size="8.00" fill="#000000">var</text>
<polygon fill="none" stroke="#000000" points="53,-307 53,-322 140,-322 140,-307 53,-307"/>
<text text-anchor="start" x="55.6934" y="-312.6" font-family="courier new" font-size="8.00" fill="#000000">linux_agent_count</text>
</g>
<!-- [root] var.linux_admin_username&#45;&gt;[root] var.linux_agent_count -->
<g id="edge_70" class="edge">
<title>[root] var.linux_admin_username&#45;&gt;[root] var.linux_agent_count</title>
<path fill="none" stroke="#000000" stroke-dasharray="5,2" d="M98.243,-375.8314C97.7917,-365 97.2203,-351.2876 96.7672,-340.4133"/>
</g>
<!-- [root] var.linux_agent_vm_size -->
<g id="node_7" class="node">
<title>[root] var.linux_agent_vm_size</title>
<polygon fill="none" stroke="#000000" points="48,-250 48,-265 145,-265 145,-250 48,-250"/>
<text text-anchor="start" x="89.2988" y="-255.6" font-family="courier new" font-size="8.00" fill="#000000">var</text>
<polygon fill="none" stroke="#000000" points="48,-235 48,-250 145,-250 145,-235 48,-235"/>
<text text-anchor="start" x="50.8926" y="-240.6" font-family="courier new" font-size="8.00" fill="#000000">linux_agent_vm_size</text>
</g>
<!-- [root] var.linux_agent_count&#45;&gt;[root] var.linux_agent_vm_size -->
<g id="edge_71" class="edge">
<title>[root] var.linux_agent_count&#45;&gt;[root] var.linux_agent_vm_size</title>
<path fill="none" stroke="#000000" stroke-dasharray="5,2" d="M96,-303.8314C96,-293 96,-279.2876 96,-268.4133"/>
</g>
<!-- [root] var.master_count -->
<g id="node_8" class="node">
<title>[root] var.master_count</title>
<polygon fill="none" stroke="#000000" points="63,-178 63,-193 126,-193 126,-178 63,-178"/>
<text text-anchor="start" x="87.2988" y="-183.6" font-family="courier new" font-size="8.00" fill="#000000">var</text>
<polygon fill="none" stroke="#000000" points="63,-163 63,-178 126,-178 126,-163 63,-163"/>
<text text-anchor="start" x="65.6953" y="-168.6" font-family="courier new" font-size="8.00" fill="#000000">master_count</text>
</g>
<!-- [root] var.linux_agent_vm_size&#45;&gt;[root] var.master_count -->
<g id="edge_72" class="edge">
<title>[root] var.linux_agent_vm_size&#45;&gt;[root] var.master_count</title>
<path fill="none" stroke="#000000" stroke-dasharray="5,2" d="M95.4953,-231.8314C95.1944,-221 94.8135,-207.2876 94.5115,-196.4133"/>
</g>
<!-- [root] var.service_principal_client_id -->
<g id="node_9" class="node">
<title>[root] var.service_principal_client_id</title>
<polygon fill="none" stroke="#000000" points="27,-106 27,-121 162,-121 162,-106 27,-106"/>
<text text-anchor="start" x="87.2988" y="-111.6" font-family="courier new" font-size="8.00" fill="#000000">var</text>
<polygon fill="none" stroke="#000000" points="27,-91 27,-106 162,-106 162,-91 27,-91"/>
<text text-anchor="start" x="29.6895" y="-96.6" font-family="courier new" font-size="8.00" fill="#000000">service_principal_client_id</text>
</g>
<!-- [root] var.master_count&#45;&gt;[root] var.service_principal_client_id -->
<g id="edge_73" class="edge">
<title>[root] var.master_count&#45;&gt;[root] var.service_principal_client_id</title>
<path fill="none" stroke="#000000" stroke-dasharray="5,2" d="M94,-159.8314C94,-149 94,-135.2876 94,-124.4133"/>
</g>
<!-- [root] var.service_principal_client_secret -->
<g id="node_10" class="node">
<title>[root] var.service_principal_client_secret</title>
<polygon fill="none" stroke="#000000" points="16,-34 16,-49 170,-49 170,-34 16,-34"/>
<text text-anchor="start" x="85.7988" y="-39.6" font-family="courier new" font-size="8.00" fill="#000000">var</text>
<polygon fill="none" stroke="#000000" points="16,-19 16,-34 170,-34 170,-19 16,-19"/>
<text text-anchor="start" x="18.5879" y="-24.6" font-family="courier new" font-size="8.00" fill="#000000">service_principal_client_secret</text>
</g>
<!-- [root] var.service_principal_client_id&#45;&gt;[root] var.service_principal_client_secret -->
<g id="edge_74" class="edge">
<title>[root] var.service_principal_client_id&#45;&gt;[root] var.service_principal_client_secret</title>
<path fill="none" stroke="#000000" stroke-dasharray="5,2" d="M93.7477,-87.8314C93.5972,-77 93.4068,-63.2876 93.2557,-52.4133"/>
</g>
<!-- [root] var.resource_group_name -->
<g id="node_12" class="node">
<title>[root] var.resource_group_name</title>
<polygon fill="none" stroke="#000000" points="282,-394 282,-409 379,-409 379,-394 282,-394"/>
<text text-anchor="start" x="323.2988" y="-399.6" font-family="courier new" font-size="8.00" fill="#000000">var</text>
<polygon fill="none" stroke="#000000" points="282,-379 282,-394 379,-394 379,-379 282,-379"/>
<text text-anchor="start" x="284.8926" y="-384.6" font-family="courier new" font-size="8.00" fill="#000000">resource_group_name</text>
</g>
<!-- [root] var.resource_group_location&#45;&gt;[root] var.resource_group_name -->
<g id="edge_76" class="edge">
<title>[root] var.resource_group_location&#45;&gt;[root] var.resource_group_name</title>
<path fill="none" stroke="#000000" stroke-dasharray="5,2" d="M330,-447.8314C330,-437 330,-423.2876 330,-412.4133"/>
</g>
<!-- [root] output.ssh_command_master0 -->
<g id="node_15" class="node">
<title>[root] output.ssh_command_master0</title>
<polygon fill="none" stroke="#000000" points="117,-682 117,-697 214,-697 214,-682 117,-682"/>
<text text-anchor="start" x="151.0977" y="-687.6" font-family="courier new" font-size="8.00" fill="#000000">output</text>
<polygon fill="none" stroke="#000000" points="117,-667 117,-682 214,-682 214,-667 117,-667"/>
<text text-anchor="start" x="119.8926" y="-672.6" font-family="courier new" font-size="8.00" fill="#000000">ssh_command_master0</text>
</g>
<!-- [root] output.master_fqdn&#45;&gt;[root] output.ssh_command_master0 -->
<g id="edge_78" class="edge">
<title>[root] output.master_fqdn&#45;&gt;[root] output.ssh_command_master0</title>
<path fill="none" stroke="#000000" stroke-dasharray="5,2" d="M164.2523,-735.8314C164.4028,-725 164.5932,-711.2876 164.7443,-700.4133"/>
</g>
<!-- [root] output.ssh_command_master0&#45;&gt;[root] azurerm_container_service.container_service -->
<g id="edge_15" class="edge">
<title>[root] output.ssh_command_master0&#45;&gt;[root] azurerm_container_service.container_service</title>
<path fill="none" stroke="#000000" d="M170.0468,-663.8314C172.2094,-656.0463 174.7853,-646.7729 177.1848,-638.1347"/>
<polygon fill="#000000" stroke="#000000" points="180.581,-638.9852 179.8852,-628.4133 173.8364,-637.1117 180.581,-638.9852"/>
</g>
</g>
</svg>

