<?xml version="1.0" encoding="UTF-8" standalone="no"?>
<!DOCTYPE svg PUBLIC "-//W3C//DTD SVG 1.1//EN"
 "http://www.w3.org/Graphics/SVG/1.1/DTD/svg11.dtd">
<!-- Generated by graphviz version 2.40.1 (20161225.0304)
 -->
<!-- Title: %3 Pages: 1 -->
<svg width="1181pt" height="404pt"
 viewBox="0.00 0.00 1181.00 404.00" xmlns="http://www.w3.org/2000/svg" xmlns:xlink="http://www.w3.org/1999/xlink">
<g id="graph0" class="graph" transform="scale(1 1) rotate(0) translate(4 400)">
<title>%3</title>
<polygon fill="#ffffff" stroke="transparent" points="-4,4 -4,-400 1177,-400 1177,4 -4,4"/>
<!-- [root] azurerm_container_service.container_service -->
<g id="node_0" class="node">
<title>[root] azurerm_container_service.container_service</title>
<polygon fill="none" stroke="#000000" points="545,-162 545,-177 671,-177 671,-162 545,-162"/>
<text text-anchor="start" x="547.9902" y="-167.6" font-family="courier new" font-size="8.00" fill="#000000">azurerm_container_service</text>
<polygon fill="none" stroke="#000000" points="545,-147 545,-162 671,-162 671,-147 545,-147"/>
<text text-anchor="start" x="567.1934" y="-152.6" font-family="courier new" font-size="8.00" fill="#000000">container_service</text>
</g>
<!-- [root] azurerm_resource_group.resource_group -->
<g id="node_1" class="node">
<title>[root] azurerm_resource_group.resource_group</title>
<polygon fill="none" stroke="#000000" points="75,-90 75,-105 186,-105 186,-90 75,-90"/>
<text text-anchor="start" x="77.6914" y="-95.6" font-family="courier new" font-size="8.00" fill="#000000">azurerm_resource_group</text>
<polygon fill="none" stroke="#000000" points="75,-75 75,-90 186,-90 186,-75 75,-75"/>
<text text-anchor="start" x="96.8945" y="-80.6" font-family="courier new" font-size="8.00" fill="#000000">resource_group</text>
</g>
<!-- [root] azurerm_container_service.container_service&#45;&gt;[root] azurerm_resource_group.resource_group -->
<g id="edge_0" class="edge">
<title>[root] azurerm_container_service.container_service&#45;&gt;[root] azurerm_resource_group.resource_group</title>
<path fill="none" stroke="#000000" d="M544.9263,-156.5259C465.5969,-149.0246 325.1405,-133.7031 195.6428,-107.9659"/>
<polygon fill="#000000" stroke="#000000" points="196.0394,-104.4756 185.5453,-105.9331 194.6579,-111.3379 196.0394,-104.4756"/>
</g>
<!-- [root] var.dns_name_prefix -->
<g id="node_3" class="node">
<title>[root] var.dns_name_prefix</title>
<polygon fill="none" stroke="#000000" points="204,-90 204,-105 282,-105 282,-90 204,-90"/>
<text text-anchor="start" x="235.7988" y="-95.6" font-family="courier new" font-size="8.00" fill="#000000">var</text>
<polygon fill="none" stroke="#000000" points="204,-75 204,-90 282,-90 282,-75 204,-75"/>
<text text-anchor="start" x="206.9941" y="-80.6" font-family="courier new" font-size="8.00" fill="#000000">dns_name_prefix</text>
</g>
<!-- [root] azurerm_container_service.container_service&#45;&gt;[root] var.dns_name_prefix -->
<g id="edge_1" class="edge">
<title>[root] azurerm_container_service.container_service&#45;&gt;[root] var.dns_name_prefix</title>
<path fill="none" stroke="#000000" d="M544.9853,-154.8528C482.6689,-146.9805 384.6236,-132.434 291.915,-107.9851"/>
<polygon fill="#000000" stroke="#000000" points="292.6594,-104.5612 282.0941,-105.3521 290.8466,-111.3224 292.6594,-104.5612"/>
</g>
<!-- [root] var.linux_admin_ssh_publickey -->
<g id="node_4" class="node">
<title>[root] var.linux_admin_ssh_publickey</title>
<polygon fill="none" stroke="#000000" points="300,-90 300,-105 426,-105 426,-90 300,-90"/>
<text text-anchor="start" x="355.7988" y="-95.6" font-family="courier new" font-size="8.00" fill="#000000">var</text>
<polygon fill="none" stroke="#000000" points="300,-75 300,-90 426,-90 426,-75 300,-75"/>
<text text-anchor="start" x="302.9902" y="-80.6" font-family="courier new" font-size="8.00" fill="#000000">linux_admin_ssh_publickey</text>
</g>
<!-- [root] azurerm_container_service.container_service&#45;&gt;[root] var.linux_admin_ssh_publickey -->
<g id="edge_2" class="edge">
<title>[root] azurerm_container_service.container_service&#45;&gt;[root] var.linux_admin_ssh_publickey</title>
<path fill="none" stroke="#000000" d="M546.4924,-143.9243C512.417,-133.9103 469.8882,-121.412 434.3563,-110.97"/>
<polygon fill="#000000" stroke="#000000" points="435.1141,-107.5448 424.5329,-108.0831 433.1403,-114.2608 435.1141,-107.5448"/>
</g>
<!-- [root] var.linux_admin_username -->
<g id="node_5" class="node">
<title>[root] var.linux_admin_username</title>
<polygon fill="none" stroke="#000000" points="444,-90 444,-105 546,-105 546,-90 444,-90"/>
<text text-anchor="start" x="487.7988" y="-95.6" font-family="courier new" font-size="8.00" fill="#000000">var</text>
<polygon fill="none" stroke="#000000" points="444,-75 444,-90 546,-90 546,-75 444,-75"/>
<text text-anchor="start" x="446.9922" y="-80.6" font-family="courier new" font-size="8.00" fill="#000000">linux_admin_username</text>
</g>
<!-- [root] azurerm_container_service.container_service&#45;&gt;[root] var.linux_admin_username -->
<g id="edge_3" class="edge">
<title>[root] azurerm_container_service.container_service&#45;&gt;[root] var.linux_admin_username</title>
<path fill="none" stroke="#000000" d="M579.4853,-143.8314C565.1658,-134.7074 547.6376,-123.539 532.2662,-113.7449"/>
<polygon fill="#000000" stroke="#000000" points="533.8199,-110.5847 523.5055,-108.1628 530.0583,-116.4882 533.8199,-110.5847"/>
</g>
<!-- [root] var.linux_agent_count -->
<g id="node_6" class="node">
<title>[root] var.linux_agent_count</title>
<polygon fill="none" stroke="#000000" points="565,-90 565,-105 652,-105 652,-90 565,-90"/>
<text text-anchor="start" x="601.2988" y="-95.6" font-family="courier new" font-size="8.00" fill="#000000">var</text>
<polygon fill="none" stroke="#000000" points="565,-75 565,-90 652,-90 652,-75 565,-75"/>
<text text-anchor="start" x="567.6934" y="-80.6" font-family="courier new" font-size="8.00" fill="#000000">linux_agent_count</text>
</g>
<!-- [root] azurerm_container_service.container_service&#45;&gt;[root] var.linux_agent_count -->
<g id="edge_4" class="edge">
<title>[root] azurerm_container_service.container_service&#45;&gt;[root] var.linux_agent_count</title>
<path fill="none" stroke="#000000" d="M608,-143.8314C608,-136.131 608,-126.9743 608,-118.4166"/>
<polygon fill="#000000" stroke="#000000" points="611.5001,-118.4132 608,-108.4133 604.5001,-118.4133 611.5001,-118.4132"/>
</g>
<!-- [root] var.linux_agent_vm_size -->
<g id="node_7" class="node">
<title>[root] var.linux_agent_vm_size</title>
<polygon fill="none" stroke="#000000" points="670,-90 670,-105 767,-105 767,-90 670,-90"/>
<text text-anchor="start" x="711.2988" y="-95.6" font-family="courier new" font-size="8.00" fill="#000000">var</text>
<polygon fill="none" stroke="#000000" points="670,-75 670,-90 767,-90 767,-75 670,-75"/>
<text text-anchor="start" x="672.8926" y="-80.6" font-family="courier new" font-size="8.00" fill="#000000">linux_agent_vm_size</text>
</g>
<!-- [root] azurerm_container_service.container_service&#45;&gt;[root] var.linux_agent_vm_size -->
<g id="edge_5" class="edge">
<title>[root] azurerm_container_service.container_service&#45;&gt;[root] var.linux_agent_vm_size</title>
<path fill="none" stroke="#000000" d="M635.7576,-143.8314C649.697,-134.7074 666.7598,-123.539 681.7231,-113.7449"/>
<polygon fill="#000000" stroke="#000000" points="683.801,-116.5679 690.2512,-108.1628 679.9674,-110.711 683.801,-116.5679"/>
</g>
<!-- [root] var.master_count -->
<g id="node_8" class="node">
<title>[root] var.master_count</title>
<polygon fill="none" stroke="#000000" points="785,-90 785,-105 848,-105 848,-90 785,-90"/>
<text text-anchor="start" x="809.2988" y="-95.6" font-family="courier new" font-size="8.00" fill="#000000">var</text>
<polygon fill="none" stroke="#000000" points="785,-75 785,-90 848,-90 848,-75 785,-75"/>
<text text-anchor="start" x="787.6953" y="-80.6" font-family="courier new" font-size="8.00" fill="#000000">master_count</text>
</g>
<!-- [root] azurerm_container_service.container_service&#45;&gt;[root] var.master_count -->
<g id="edge_6" class="edge">
<title>[root] azurerm_container_service.container_service&#45;&gt;[root] var.master_count</title>
<path fill="none" stroke="#000000" d="M670.0159,-143.8822C699.6016,-134.8166 735.5867,-123.1809 774.7738,-108.309"/>
<polygon fill="#000000" stroke="#000000" points="776.1763,-111.5198 784.2587,-104.6695 773.6685,-104.9844 776.1763,-111.5198"/>
</g>
<!-- [root] var.service_principal_client_id -->
<g id="node_9" class="node">
<title>[root] var.service_principal_client_id</title>
<polygon fill="none" stroke="#000000" points="866,-90 866,-105 1001,-105 1001,-90 866,-90"/>
<text text-anchor="start" x="926.2988" y="-95.6" font-family="courier new" font-size="8.00" fill="#000000">var</text>
<polygon fill="none" stroke="#000000" points="866,-75 866,-90 1001,-90 1001,-75 866,-75"/>
<text text-anchor="start" x="868.6895" y="-80.6" font-family="courier new" font-size="8.00" fill="#000000">service_principal_client_id</text>
</g>
<!-- [root] azurerm_container_service.container_service&#45;&gt;[root] var.service_principal_client_id -->
<g id="edge_7" class="edge">
<title>[root] azurerm_container_service.container_service&#45;&gt;[root] var.service_principal_client_id</title>
<path fill="none" stroke="#000000" d="M671.0096,-148.681C719.0304,-138.4509 787.0625,-123.7882 855.3896,-108.3475"/>
<polygon fill="#000000" stroke="#000000" points="856.4907,-111.6868 865.4704,-106.0641 854.9443,-104.8597 856.4907,-111.6868"/>
</g>
<!-- [root] var.service_principal_client_secret -->
<g id="node_10" class="node">
<title>[root] var.service_principal_client_secret</title>
<polygon fill="none" stroke="#000000" points="1019,-90 1019,-105 1173,-105 1173,-90 1019,-90"/>
<text text-anchor="start" x="1088.7988" y="-95.6" font-family="courier new" font-size="8.00" fill="#000000">var</text>
<polygon fill="none" stroke="#000000" points="1019,-75 1019,-90 1173,-90 1173,-75 1019,-75"/>
<text text-anchor="start" x="1021.5879" y="-80.6" font-family="courier new" font-size="8.00" fill="#000000">service_principal_client_secret</text>
</g>
<!-- [root] azurerm_container_service.container_service&#45;&gt;[root] var.service_principal_client_secret -->
<g id="edge_8" class="edge">
<title>[root] azurerm_container_service.container_service&#45;&gt;[root] var.service_principal_client_secret</title>
<path fill="none" stroke="#000000" d="M671.2298,-154.9493C748.5061,-146.0098 883.4471,-129.3602 1008.5544,-108.1871"/>
<polygon fill="#000000" stroke="#000000" points="1009.4266,-111.589 1018.6956,-106.457 1008.2494,-104.6887 1009.4266,-111.589"/>
</g>
<!-- [root] provider.azurerm -->
<g id="node_2" class="node">
<title>[root] provider.azurerm</title>
<polygon fill="none" stroke="#000000" points="5,-18 5,-33 49,-33 49,-18 5,-18"/>
<text text-anchor="start" x="7.7969" y="-23.6" font-family="courier new" font-size="8.00" fill="#000000">provider</text>
<polygon fill="none" stroke="#000000" points="5,-3 5,-18 49,-18 49,-3 5,-3"/>
<text text-anchor="start" x="10.1973" y="-8.6" font-family="courier new" font-size="8.00" fill="#000000">azurerm</text>
</g>
<!-- [root] azurerm_resource_group.resource_group&#45;&gt;[root] provider.azurerm -->
<g id="edge_9" class="edge">
<title>[root] azurerm_resource_group.resource_group&#45;&gt;[root] provider.azurerm</title>
<path fill="none" stroke="#000000" d="M104.0088,-71.8314C91.0784,-62.7927 75.2778,-51.7476 61.3617,-42.0198"/>
<polygon fill="#000000" stroke="#000000" points="63.1843,-39.0235 52.9829,-36.1628 59.1737,-44.7608 63.1843,-39.0235"/>
</g>
<!-- [root] var.resource_group_location -->
<g id="node_11" class="node">
<title>[root] var.resource_group_location</title>
<polygon fill="none" stroke="#000000" points="72,-18 72,-33 188,-33 188,-18 72,-18"/>
<text text-anchor="start" x="122.7988" y="-23.6" font-family="courier new" font-size="8.00" fill="#000000">var</text>
<polygon fill="none" stroke="#000000" points="72,-3 72,-18 188,-18 188,-3 72,-3"/>
<text text-anchor="start" x="74.791" y="-8.6" font-family="courier new" font-size="8.00" fill="#000000">resource_group_location</text>
</g>
<!-- [root] azurerm_resource_group.resource_group&#45;&gt;[root] var.resource_group_location -->
<g id="edge_10" class="edge">
<title>[root] azurerm_resource_group.resource_group&#45;&gt;[root] var.resource_group_location</title>
<path fill="none" stroke="#000000" d="M130,-71.8314C130,-64.131 130,-54.9743 130,-46.4166"/>
<polygon fill="#000000" stroke="#000000" points="133.5001,-46.4132 130,-36.4133 126.5001,-46.4133 133.5001,-46.4132"/>
</g>
<!-- [root] var.resource_group_name -->
<g id="node_12" class="node">
<title>[root] var.resource_group_name</title>
<polygon fill="none" stroke="#000000" points="207,-18 207,-33 304,-33 304,-18 207,-18"/>
<text text-anchor="start" x="248.2988" y="-23.6" font-family="courier new" font-size="8.00" fill="#000000">var</text>
<polygon fill="none" stroke="#000000" points="207,-3 207,-18 304,-18 304,-3 207,-3"/>
<text text-anchor="start" x="209.8926" y="-8.6" font-family="courier new" font-size="8.00" fill="#000000">resource_group_name</text>
</g>
<!-- [root] azurerm_resource_group.resource_group&#45;&gt;[root] var.resource_group_name -->
<g id="edge_11" class="edge">
<title>[root] azurerm_resource_group.resource_group&#45;&gt;[root] var.resource_group_name</title>
<path fill="none" stroke="#000000" d="M161.5428,-71.8314C177.6791,-62.5368 197.4986,-51.1208 214.7272,-41.1971"/>
<polygon fill="#000000" stroke="#000000" points="216.5489,-44.187 223.4673,-36.1628 213.055,-38.1212 216.5489,-44.187"/>
</g>
<!-- [root] meta.count&#45;boundary (count boundary fixup) -->
<g id="node_13" class="node">
<title>[root] meta.count&#45;boundary (count boundary fixup)</title>
<polygon fill="none" stroke="#000000" points="567,-306 567,-321 640,-321 640,-306 567,-306"/>
<text text-anchor="start" x="593.8984" y="-311.6" font-family="courier new" font-size="8.00" fill="#000000">meta</text>
<polygon fill="none" stroke="#000000" points="567,-291 567,-306 640,-306 640,-291 567,-291"/>
<text text-anchor="start" x="569.8945" y="-296.6" font-family="courier new" font-size="8.00" fill="#000000">count&#45;boundary</text>
</g>
<!-- [root] output.master_fqdn -->
<g id="node_14" class="node">
<title>[root] output.master_fqdn</title>
<polygon fill="none" stroke="#000000" points="483,-234 483,-249 541,-249 541,-234 483,-234"/>
<text text-anchor="start" x="497.5977" y="-239.6" font-family="courier new" font-size="8.00" fill="#000000">output</text>
<polygon fill="none" stroke="#000000" points="483,-219 483,-234 541,-234 541,-219 483,-219"/>
<text text-anchor="start" x="485.5957" y="-224.6" font-family="courier new" font-size="8.00" fill="#000000">master_fqdn</text>
</g>
<!-- [root] meta.count&#45;boundary (count boundary fixup)&#45;&gt;[root] output.master_fqdn -->
<g id="edge_12" class="edge">
<title>[root] meta.count&#45;boundary (count boundary fixup)&#45;&gt;[root] output.master_fqdn</title>
<path fill="none" stroke="#000000" d="M580.0369,-287.8314C568.8285,-278.9632 555.1791,-268.1637 543.0561,-258.5718"/>
<polygon fill="#000000" stroke="#000000" points="544.9697,-255.6229 534.9558,-252.1628 540.6263,-261.1125 544.9697,-255.6229"/>
</g>
<!-- [root] output.ssh_command_master0 -->
<g id="node_15" class="node">
<title>[root] output.ssh_command_master0</title>
<polygon fill="none" stroke="#000000" points="560,-234 560,-249 657,-249 657,-234 560,-234"/>
<text text-anchor="start" x="594.0977" y="-239.6" font-family="courier new" font-size="8.00" fill="#000000">output</text>
<polygon fill="none" stroke="#000000" points="560,-219 560,-234 657,-234 657,-219 560,-219"/>
<text text-anchor="start" x="562.8926" y="-224.6" font-family="courier new" font-size="8.00" fill="#000000">ssh_command_master0</text>
</g>
<!-- [root] meta.count&#45;boundary (count boundary fixup)&#45;&gt;[root] output.ssh_command_master0 -->
<g id="edge_13" class="edge">
<title>[root] meta.count&#45;boundary (count boundary fixup)&#45;&gt;[root] output.ssh_command_master0</title>
<path fill="none" stroke="#000000" d="M604.2617,-287.8314C604.7965,-280.131 605.4323,-270.9743 606.0266,-262.4166"/>
<polygon fill="#000000" stroke="#000000" points="609.52,-262.6317 606.7213,-252.4133 602.5368,-262.1467 609.52,-262.6317"/>
</g>
<!-- [root] output.master_fqdn&#45;&gt;[root] azurerm_container_service.container_service -->
<g id="edge_14" class="edge">
<title>[root] output.master_fqdn&#45;&gt;[root] azurerm_container_service.container_service</title>
<path fill="none" stroke="#000000" d="M536.2249,-215.8314C548.1628,-206.8779 562.7256,-195.9558 575.606,-186.2955"/>
<polygon fill="#000000" stroke="#000000" points="577.8829,-188.9629 583.7829,-180.1628 573.6829,-183.3629 577.8829,-188.9629"/>
</g>
<!-- [root] output.ssh_command_master0&#45;&gt;[root] azurerm_container_service.container_service -->
<g id="edge_15" class="edge">
<title>[root] output.ssh_command_master0&#45;&gt;[root] azurerm_container_service.container_service</title>
<path fill="none" stroke="#000000" d="M608,-215.8314C608,-208.131 608,-198.9743 608,-190.4166"/>
<polygon fill="#000000" stroke="#000000" points="611.5001,-190.4132 608,-180.4133 604.5001,-190.4133 611.5001,-190.4132"/>
</g>
<!-- [root] provider.azurerm (close) -->
<g id="node_16" class="node">
<title>[root] provider.azurerm (close)</title>
<polygon fill="none" stroke="#000000" points="663,-306 663,-321 707,-321 707,-306 663,-306"/>
<text text-anchor="start" x="665.7969" y="-311.6" font-family="courier new" font-size="8.00" fill="#000000">provider</text>
<polygon fill="none" stroke="#000000" points="663,-291 663,-306 707,-306 707,-291 663,-291"/>
<text text-anchor="start" x="668.1973" y="-296.6" font-family="courier new" font-size="8.00" fill="#000000">azurerm</text>
</g>
<!-- [root] provider.azurerm (close)&#45;&gt;[root] azurerm_container_service.container_service -->
<g id="edge_16" class="edge">
<title>[root] provider.azurerm (close)&#45;&gt;[root] azurerm_container_service.container_service</title>
<path fill="none" stroke="#000000" d="M684.0919,-287.984C682.4537,-268.9792 677.8626,-238.699 665,-216 658.8571,-205.1594 649.834,-195.1759 640.7708,-186.8193"/>
<polygon fill="#000000" stroke="#000000" points="643.0397,-184.1539 633.2105,-180.1994 638.4283,-189.4203 643.0397,-184.1539"/>
</g>
<!-- [root] root -->
<g id="node_17" class="node">
<title>[root] root</title>
<polygon fill="none" stroke="#000000" points="678.3089,-396 609.6911,-396 609.6911,-360 678.3089,-360 678.3089,-396"/>
<text text-anchor="middle" x="644" y="-376.1313" font-family="courier new" font-size="8.00" fill="#000000">[root] root</text>
</g>
<!-- [root] root&#45;&gt;[root] meta.count&#45;boundary (count boundary fixup) -->
<g id="edge_17" class="edge">
<title>[root] root&#45;&gt;[root] meta.count&#45;boundary (count boundary fixup)</title>
<path fill="none" stroke="#000000" d="M633.654,-359.8314C629.0763,-351.7925 623.5948,-342.1666 618.5412,-333.2918"/>
<polygon fill="#000000" stroke="#000000" points="621.4752,-331.3712 613.4853,-324.4133 615.3923,-334.8351 621.4752,-331.3712"/>
</g>
<!-- [root] root&#45;&gt;[root] provider.azurerm (close) -->
<g id="edge_18" class="edge">
<title>[root] root&#45;&gt;[root] provider.azurerm (close)</title>
<path fill="none" stroke="#000000" d="M654.346,-359.8314C658.9237,-351.7925 664.4052,-342.1666 669.4588,-333.2918"/>
<polygon fill="#000000" stroke="#000000" points="672.6077,-334.8351 674.5147,-324.4133 666.5248,-331.3712 672.6077,-334.8351"/>
</g>
</g>
</svg>

