<?xml version="1.0" encoding="UTF-8" standalone="no"?>
<!DOCTYPE svg PUBLIC "-//W3C//DTD SVG 1.1//EN"
 "http://www.w3.org/Graphics/SVG/1.1/DTD/svg11.dtd">
<!-- Generated by graphviz version 2.40.1 (20161225.0304)
 -->
<!-- Title: %3 Pages: 1 -->
<svg width="226pt" height="404pt"
 viewBox="0.00 0.00 225.50 404.00" xmlns="http://www.w3.org/2000/svg" xmlns:xlink="http://www.w3.org/1999/xlink">
<g id="graph0" class="graph" transform="scale(1 1) rotate(0) translate(4 400)">
<title>%3</title>
<polygon fill="#ffffff" stroke="transparent" points="-4,4 -4,-400 221.5,-400 221.5,4 -4,4"/>
<!-- [root] azurerm_resource_group.rg -->
<g id="node_0" class="node">
<title>[root] azurerm_resource_group.rg</title>
<polygon fill="none" stroke="#000000" points="44,-90 44,-105 155,-105 155,-90 44,-90"/>
<text text-anchor="start" x="46.6914" y="-95.6" font-family="courier new" font-size="8.00" fill="#000000">azurerm_resource_group</text>
<polygon fill="none" stroke="#000000" points="44,-75 44,-90 155,-90 155,-75 44,-75"/>
<text text-anchor="start" x="94.6992" y="-80.6" font-family="courier new" font-size="8.00" fill="#000000">rg</text>
</g>
<!-- [root] provider.azurerm -->
<g id="node_4" class="node">
<title>[root] provider.azurerm</title>
<polygon fill="none" stroke="#000000" points="5,-18 5,-33 49,-33 49,-18 5,-18"/>
<text text-anchor="start" x="7.7969" y="-23.6" font-family="courier new" font-size="8.00" fill="#000000">provider</text>
<polygon fill="none" stroke="#000000" points="5,-3 5,-18 49,-18 49,-3 5,-3"/>
<text text-anchor="start" x="10.1973" y="-8.6" font-family="courier new" font-size="8.00" fill="#000000">azurerm</text>
</g>
<!-- [root] azurerm_resource_group.rg&#45;&gt;[root] provider.azurerm -->
<g id="edge_0" class="edge">
<title>[root] azurerm_resource_group.rg&#45;&gt;[root] provider.azurerm</title>
<path fill="none" stroke="#000000" d="M80.8314,-71.8314C72.2848,-63.2848 61.9443,-52.9443 52.6198,-43.6198"/>
<polygon fill="#000000" stroke="#000000" points="54.9592,-41.0095 45.4133,-36.4133 50.0095,-45.9592 54.9592,-41.0095"/>
</g>
<!-- [root] var.location -->
<g id="node_5" class="node">
<title>[root] var.location</title>
<polygon fill="none" stroke="#000000" points="77,-18 77,-33 121,-33 121,-18 77,-18"/>
<text text-anchor="start" x="91.7988" y="-23.6" font-family="courier new" font-size="8.00" fill="#000000">var</text>
<polygon fill="none" stroke="#000000" points="77,-3 77,-18 121,-18 121,-3 77,-3"/>
<text text-anchor="start" x="79.7969" y="-8.6" font-family="courier new" font-size="8.00" fill="#000000">location</text>
</g>
<!-- [root] azurerm_resource_group.rg&#45;&gt;[root] var.location -->
<g id="edge_1" class="edge">
<title>[root] azurerm_resource_group.rg&#45;&gt;[root] var.location</title>
<path fill="none" stroke="#000000" d="M99,-71.8314C99,-64.131 99,-54.9743 99,-46.4166"/>
<polygon fill="#000000" stroke="#000000" points="102.5001,-46.4132 99,-36.4133 95.5001,-46.4133 102.5001,-46.4132"/>
</g>
<!-- [root] var.resource_group -->
<g id="node_6" class="node">
<title>[root] var.resource_group</title>
<polygon fill="none" stroke="#000000" points="145,-18 145,-33 218,-33 218,-18 145,-18"/>
<text text-anchor="start" x="174.2988" y="-23.6" font-family="courier new" font-size="8.00" fill="#000000">var</text>
<polygon fill="none" stroke="#000000" points="145,-3 145,-18 218,-18 218,-3 145,-3"/>
<text text-anchor="start" x="147.8945" y="-8.6" font-family="courier new" font-size="8.00" fill="#000000">resource_group</text>
</g>
<!-- [root] azurerm_resource_group.rg&#45;&gt;[root] var.resource_group -->
<g id="edge_2" class="edge">
<title>[root] azurerm_resource_group.rg&#45;&gt;[root] var.resource_group</title>
<path fill="none" stroke="#000000" d="M119.6921,-71.8314C129.6948,-63.0485 141.855,-52.3712 152.6999,-42.8489"/>
<polygon fill="#000000" stroke="#000000" points="155.1094,-45.3909 160.3146,-36.1628 150.4908,-40.1308 155.1094,-45.3909"/>
</g>
<!-- [root] azurerm_subnet.subnet1 -->
<g id="node_1" class="node">
<title>[root] azurerm_subnet.subnet1</title>
<polygon fill="none" stroke="#000000" points="18,-234 18,-249 91,-249 91,-234 18,-234"/>
<text text-anchor="start" x="20.8945" y="-239.6" font-family="courier new" font-size="8.00" fill="#000000">azurerm_subnet</text>
<polygon fill="none" stroke="#000000" points="18,-219 18,-234 91,-234 91,-219 18,-219"/>
<text text-anchor="start" x="37.6973" y="-224.6" font-family="courier new" font-size="8.00" fill="#000000">subnet1</text>
</g>
<!-- [root] azurerm_virtual_network.vnet -->
<g id="node_3" class="node">
<title>[root] azurerm_virtual_network.vnet</title>
<polygon fill="none" stroke="#000000" points="41,-162 41,-177 157,-177 157,-162 41,-162"/>
<text text-anchor="start" x="43.791" y="-167.6" font-family="courier new" font-size="8.00" fill="#000000">azurerm_virtual_network</text>
<polygon fill="none" stroke="#000000" points="41,-147 41,-162 157,-162 157,-147 41,-147"/>
<text text-anchor="start" x="89.3984" y="-152.6" font-family="courier new" font-size="8.00" fill="#000000">vnet</text>
</g>
<!-- [root] azurerm_subnet.subnet1&#45;&gt;[root] azurerm_virtual_network.vnet -->
<g id="edge_3" class="edge">
<title>[root] azurerm_subnet.subnet1&#45;&gt;[root] azurerm_virtual_network.vnet</title>
<path fill="none" stroke="#000000" d="M65.3554,-215.8314C70.4326,-207.7079 76.5227,-197.9637 82.1176,-189.0118"/>
<polygon fill="#000000" stroke="#000000" points="85.1597,-190.7483 87.4917,-180.4133 79.2237,-187.0383 85.1597,-190.7483"/>
</g>
<!-- [root] azurerm_subnet.subnet2 -->
<g id="node_2" class="node">
<title>[root] azurerm_subnet.subnet2</title>
<polygon fill="none" stroke="#000000" points="109,-234 109,-249 182,-249 182,-234 109,-234"/>
<text text-anchor="start" x="111.8945" y="-239.6" font-family="courier new" font-size="8.00" fill="#000000">azurerm_subnet</text>
<polygon fill="none" stroke="#000000" points="109,-219 109,-234 182,-234 182,-219 109,-219"/>
<text text-anchor="start" x="128.6973" y="-224.6" font-family="courier new" font-size="8.00" fill="#000000">subnet2</text>
</g>
<!-- [root] azurerm_subnet.subnet2&#45;&gt;[root] azurerm_virtual_network.vnet -->
<g id="edge_4" class="edge">
<title>[root] azurerm_subnet.subnet2&#45;&gt;[root] azurerm_virtual_network.vnet</title>
<path fill="none" stroke="#000000" d="M133.3923,-215.8314C128.2022,-207.7079 121.9768,-197.9637 116.2575,-189.0118"/>
<polygon fill="#000000" stroke="#000000" points="119.0974,-186.9559 110.764,-180.4133 113.1985,-190.7246 119.0974,-186.9559"/>
</g>
<!-- [root] azurerm_virtual_network.vnet&#45;&gt;[root] azurerm_resource_group.rg -->
<g id="edge_5" class="edge">
<title>[root] azurerm_virtual_network.vnet&#45;&gt;[root] azurerm_resource_group.rg</title>
<path fill="none" stroke="#000000" d="M99,-143.8314C99,-136.131 99,-126.9743 99,-118.4166"/>
<polygon fill="#000000" stroke="#000000" points="102.5001,-118.4132 99,-108.4133 95.5001,-118.4133 102.5001,-118.4132"/>
</g>
<!-- [root] meta.count&#45;boundary (count boundary fixup) -->
<g id="node_7" class="node">
<title>[root] meta.count&#45;boundary (count boundary fixup)</title>
<polygon fill="none" stroke="#000000" points="22,-306 22,-321 95,-321 95,-306 22,-306"/>
<text text-anchor="start" x="48.8984" y="-311.6" font-family="courier new" font-size="8.00" fill="#000000">meta</text>
<polygon fill="none" stroke="#000000" points="22,-291 22,-306 95,-306 95,-291 22,-291"/>
<text text-anchor="start" x="24.8945" y="-296.6" font-family="courier new" font-size="8.00" fill="#000000">count&#45;boundary</text>
</g>
<!-- [root] meta.count&#45;boundary (count boundary fixup)&#45;&gt;[root] azurerm_subnet.subnet1 -->
<g id="edge_6" class="edge">
<title>[root] meta.count&#45;boundary (count boundary fixup)&#45;&gt;[root] azurerm_subnet.subnet1</title>
<path fill="none" stroke="#000000" d="M56.9906,-287.8314C56.5628,-280.131 56.0541,-270.9743 55.5787,-262.4166"/>
<polygon fill="#000000" stroke="#000000" points="59.0724,-262.2037 55.023,-252.4133 52.0831,-262.592 59.0724,-262.2037"/>
</g>
<!-- [root] meta.count&#45;boundary (count boundary fixup)&#45;&gt;[root] azurerm_subnet.subnet2 -->
<g id="edge_7" class="edge">
<title>[root] meta.count&#45;boundary (count boundary fixup)&#45;&gt;[root] azurerm_subnet.subnet2</title>
<path fill="none" stroke="#000000" d="M79.9538,-287.8314C90.6695,-278.9632 103.7189,-268.1637 115.309,-258.5718"/>
<polygon fill="#000000" stroke="#000000" points="117.5808,-261.2349 123.0533,-252.1628 113.1178,-255.8422 117.5808,-261.2349"/>
</g>
<!-- [root] provider.azurerm (close) -->
<g id="node_8" class="node">
<title>[root] provider.azurerm (close)</title>
<polygon fill="none" stroke="#000000" points="118,-306 118,-321 162,-321 162,-306 118,-306"/>
<text text-anchor="start" x="120.7969" y="-311.6" font-family="courier new" font-size="8.00" fill="#000000">provider</text>
<polygon fill="none" stroke="#000000" points="118,-291 118,-306 162,-306 162,-291 118,-291"/>
<text text-anchor="start" x="123.1973" y="-296.6" font-family="courier new" font-size="8.00" fill="#000000">azurerm</text>
</g>
<!-- [root] provider.azurerm (close)&#45;&gt;[root] azurerm_subnet.subnet1 -->
<g id="edge_8" class="edge">
<title>[root] provider.azurerm (close)&#45;&gt;[root] azurerm_subnet.subnet1</title>
<path fill="none" stroke="#000000" d="M118.2986,-287.8314C107.8079,-279.0485 95.0545,-268.3712 83.6806,-258.8489"/>
<polygon fill="#000000" stroke="#000000" points="85.6089,-255.8986 75.6945,-252.1628 81.1153,-261.2659 85.6089,-255.8986"/>
</g>
<!-- [root] provider.azurerm (close)&#45;&gt;[root] azurerm_subnet.subnet2 -->
<g id="edge_9" class="edge">
<title>[root] provider.azurerm (close)&#45;&gt;[root] azurerm_subnet.subnet2</title>
<path fill="none" stroke="#000000" d="M141.2617,-287.8314C141.7965,-280.131 142.4323,-270.9743 143.0266,-262.4166"/>
<polygon fill="#000000" stroke="#000000" points="146.52,-262.6317 143.7213,-252.4133 139.5368,-262.1467 146.52,-262.6317"/>
</g>
<!-- [root] root -->
<g id="node_9" class="node">
<title>[root] root</title>
<polygon fill="none" stroke="#000000" points="133.3089,-396 64.6911,-396 64.6911,-360 133.3089,-360 133.3089,-396"/>
<text text-anchor="middle" x="99" y="-376.1313" font-family="courier new" font-size="8.00" fill="#000000">[root] root</text>
</g>
<!-- [root] root&#45;&gt;[root] meta.count&#45;boundary (count boundary fixup) -->
<g id="edge_10" class="edge">
<title>[root] root&#45;&gt;[root] meta.count&#45;boundary (count boundary fixup)</title>
<path fill="none" stroke="#000000" d="M88.654,-359.8314C84.0763,-351.7925 78.5948,-342.1666 73.5412,-333.2918"/>
<polygon fill="#000000" stroke="#000000" points="76.4752,-331.3712 68.4853,-324.4133 70.3923,-334.8351 76.4752,-331.3712"/>
</g>
<!-- [root] root&#45;&gt;[root] provider.azurerm (close) -->
<g id="edge_11" class="edge">
<title>[root] root&#45;&gt;[root] provider.azurerm (close)</title>
<path fill="none" stroke="#000000" d="M109.346,-359.8314C113.9237,-351.7925 119.4052,-342.1666 124.4588,-333.2918"/>
<polygon fill="#000000" stroke="#000000" points="127.6077,-334.8351 129.5147,-324.4133 121.5248,-331.3712 127.6077,-334.8351"/>
</g>
</g>
</svg>

