<?xml version="1.0" encoding="UTF-8" standalone="no"?>
<!DOCTYPE svg PUBLIC "-//W3C//DTD SVG 1.1//EN"
 "http://www.w3.org/Graphics/SVG/1.1/DTD/svg11.dtd">
<!-- Generated by graphviz version 2.40.1 (20161225.0304)
 -->
<!-- Title: %3 Pages: 1 -->
<svg width="187pt" height="492pt"
 viewBox="0.00 0.00 186.50 492.00" xmlns="http://www.w3.org/2000/svg" xmlns:xlink="http://www.w3.org/1999/xlink">
<g id="graph0" class="graph" transform="scale(1 1) rotate(0) translate(4 488)">
<title>%3</title>
<polygon fill="#ffffff" stroke="transparent" points="-4,4 -4,-488 182.5,-488 182.5,4 -4,4"/>
<g id="clust2" class="cluster">
<title>cluster[root] azurerm_resource_group.rg_var_</title>
</g>
<!-- [root] azurerm_resource_group.rg -->
<g id="node_0" class="node">
<title>[root] azurerm_resource_group.rg</title>
<polygon fill="none" stroke="#000000" points="26.5,-178 26.5,-193 137.5,-193 137.5,-178 26.5,-178"/>
<text text-anchor="start" x="29.1914" y="-183.6" font-family="courier new" font-size="8.00" fill="#000000">azurerm_resource_group</text>
<polygon fill="none" stroke="#000000" points="26.5,-163 26.5,-178 137.5,-178 137.5,-163 26.5,-163"/>
<text text-anchor="start" x="77.1992" y="-168.6" font-family="courier new" font-size="8.00" fill="#000000">rg</text>
</g>
<!-- [root] provider.azurerm -->
<g id="node_4" class="node">
<title>[root] provider.azurerm</title>
<polygon fill="none" stroke="#000000" points="23.5,-106 23.5,-121 67.5,-121 67.5,-106 23.5,-106"/>
<text text-anchor="start" x="26.2969" y="-111.6" font-family="courier new" font-size="8.00" fill="#000000">provider</text>
<polygon fill="none" stroke="#000000" points="23.5,-91 23.5,-106 67.5,-106 67.5,-91 23.5,-91"/>
<text text-anchor="start" x="28.6973" y="-96.6" font-family="courier new" font-size="8.00" fill="#000000">azurerm</text>
</g>
<!-- [root] azurerm_resource_group.rg&#45;&gt;[root] provider.azurerm -->
<g id="edge_0" class="edge">
<title>[root] azurerm_resource_group.rg&#45;&gt;[root] provider.azurerm</title>
<path fill="none" stroke="#000000" d="M72.4157,-159.8314C68.4385,-151.8771 63.6845,-142.369 59.2861,-133.5723"/>
<polygon fill="#000000" stroke="#000000" points="62.3093,-131.7923 54.7066,-124.4133 56.0483,-134.9228 62.3093,-131.7923"/>
</g>
<!-- [root] var.location -->
<g id="node_5" class="node">
<title>[root] var.location</title>
<polygon fill="none" stroke="#000000" points="99.5,-106 99.5,-121 143.5,-121 143.5,-106 99.5,-106"/>
<text text-anchor="start" x="114.2988" y="-111.6" font-family="courier new" font-size="8.00" fill="#000000">var</text>
<polygon fill="none" stroke="#000000" points="99.5,-91 99.5,-106 143.5,-106 143.5,-91 99.5,-91"/>
<text text-anchor="start" x="102.2969" y="-96.6" font-family="courier new" font-size="8.00" fill="#000000">location</text>
</g>
<!-- [root] azurerm_resource_group.rg&#45;&gt;[root] var.location -->
<g id="edge_1" class="edge">
<title>[root] azurerm_resource_group.rg&#45;&gt;[root] var.location</title>
<path fill="none" stroke="#000000" d="M91.5937,-159.8314C96.0597,-151.7925 101.4075,-142.1666 106.3379,-133.2918"/>
<polygon fill="#000000" stroke="#000000" points="109.4735,-134.8546 111.2704,-124.4133 103.3544,-131.4551 109.4735,-134.8546"/>
</g>
<!-- [root] azurerm_subnet.subnet1 -->
<g id="node_1" class="node">
<title>[root] azurerm_subnet.subnet1</title>
<polygon fill="none" stroke="#000000" points=".5,-322 .5,-337 73.5,-337 73.5,-322 .5,-322"/>
<text text-anchor="start" x="3.3945" y="-327.6" font-family="courier new" font-size="8.00" fill="#000000">azurerm_subnet</text>
<polygon fill="none" stroke="#000000" points=".5,-307 .5,-322 73.5,-322 73.5,-307 .5,-307"/>
<text text-anchor="start" x="20.1973" y="-312.6" font-family="courier new" font-size="8.00" fill="#000000">subnet1</text>
</g>
<!-- [root] azurerm_virtual_network.vnet -->
<g id="node_3" class="node">
<title>[root] azurerm_virtual_network.vnet</title>
<polygon fill="none" stroke="#000000" points="23.5,-250 23.5,-265 139.5,-265 139.5,-250 23.5,-250"/>
<text text-anchor="start" x="26.291" y="-255.6" font-family="courier new" font-size="8.00" fill="#000000">azurerm_virtual_network</text>
<polygon fill="none" stroke="#000000" points="23.5,-235 23.5,-250 139.5,-250 139.5,-235 23.5,-235"/>
<text text-anchor="start" x="71.8984" y="-240.6" font-family="courier new" font-size="8.00" fill="#000000">vnet</text>
</g>
<!-- [root] azurerm_subnet.subnet1&#45;&gt;[root] azurerm_virtual_network.vnet -->
<g id="edge_3" class="edge">
<title>[root] azurerm_subnet.subnet1&#45;&gt;[root] azurerm_virtual_network.vnet</title>
<path fill="none" stroke="#000000" d="M47.8554,-303.8314C52.9326,-295.7079 59.0227,-285.9637 64.6176,-277.0118"/>
<polygon fill="#000000" stroke="#000000" points="67.6597,-278.7483 69.9917,-268.4133 61.7237,-275.0383 67.6597,-278.7483"/>
</g>
<!-- [root] azurerm_subnet.subnet2 -->
<g id="node_2" class="node">
<title>[root] azurerm_subnet.subnet2</title>
<polygon fill="none" stroke="#000000" points="91.5,-322 91.5,-337 164.5,-337 164.5,-322 91.5,-322"/>
<text text-anchor="start" x="94.3945" y="-327.6" font-family="courier new" font-size="8.00" fill="#000000">azurerm_subnet</text>
<polygon fill="none" stroke="#000000" points="91.5,-307 91.5,-322 164.5,-322 164.5,-307 91.5,-307"/>
<text text-anchor="start" x="111.1973" y="-312.6" font-family="courier new" font-size="8.00" fill="#000000">subnet2</text>
</g>
<!-- [root] azurerm_subnet.subnet2&#45;&gt;[root] azurerm_virtual_network.vnet -->
<g id="edge_4" class="edge">
<title>[root] azurerm_subnet.subnet2&#45;&gt;[root] azurerm_virtual_network.vnet</title>
<path fill="none" stroke="#000000" d="M115.8923,-303.8314C110.7022,-295.7079 104.4768,-285.9637 98.7575,-277.0118"/>
<polygon fill="#000000" stroke="#000000" points="101.5974,-274.9559 93.264,-268.4133 95.6985,-278.7246 101.5974,-274.9559"/>
</g>
<!-- [root] azurerm_virtual_network.vnet&#45;&gt;[root] azurerm_resource_group.rg -->
<g id="edge_5" class="edge">
<title>[root] azurerm_virtual_network.vnet&#45;&gt;[root] azurerm_resource_group.rg</title>
<path fill="none" stroke="#000000" d="M81.5,-231.8314C81.5,-224.131 81.5,-214.9743 81.5,-206.4166"/>
<polygon fill="#000000" stroke="#000000" points="85.0001,-206.4132 81.5,-196.4133 78.0001,-206.4133 85.0001,-206.4132"/>
</g>
<!-- [root] meta.count&#45;boundary (count boundary fixup) -->
<g id="node_7" class="node">
<title>[root] meta.count&#45;boundary (count boundary fixup)</title>
<polygon fill="none" stroke="#000000" points="4.5,-394 4.5,-409 77.5,-409 77.5,-394 4.5,-394"/>
<text text-anchor="start" x="31.3984" y="-399.6" font-family="courier new" font-size="8.00" fill="#000000">meta</text>
<polygon fill="none" stroke="#000000" points="4.5,-379 4.5,-394 77.5,-394 77.5,-379 4.5,-379"/>
<text text-anchor="start" x="7.3945" y="-384.6" font-family="courier new" font-size="8.00" fill="#000000">count&#45;boundary</text>
</g>
<!-- [root] meta.count&#45;boundary (count boundary fixup)&#45;&gt;[root] azurerm_subnet.subnet1 -->
<g id="edge_6" class="edge">
<title>[root] meta.count&#45;boundary (count boundary fixup)&#45;&gt;[root] azurerm_subnet.subnet1</title>
<path fill="none" stroke="#000000" d="M39.4906,-375.8314C39.0628,-368.131 38.5541,-358.9743 38.0787,-350.4166"/>
<polygon fill="#000000" stroke="#000000" points="41.5724,-350.2037 37.523,-340.4133 34.5831,-350.592 41.5724,-350.2037"/>
</g>
<!-- [root] meta.count&#45;boundary (count boundary fixup)&#45;&gt;[root] azurerm_subnet.subnet2 -->
<g id="edge_7" class="edge">
<title>[root] meta.count&#45;boundary (count boundary fixup)&#45;&gt;[root] azurerm_subnet.subnet2</title>
<path fill="none" stroke="#000000" d="M62.4538,-375.8314C73.1695,-366.9632 86.2189,-356.1637 97.809,-346.5718"/>
<polygon fill="#000000" stroke="#000000" points="100.0808,-349.2349 105.5533,-340.1628 95.6178,-343.8422 100.0808,-349.2349"/>
</g>
<!-- [root] provider.azurerm (close) -->
<g id="node_8" class="node">
<title>[root] provider.azurerm (close)</title>
<polygon fill="none" stroke="#000000" points="100.5,-394 100.5,-409 144.5,-409 144.5,-394 100.5,-394"/>
<text text-anchor="start" x="103.2969" y="-399.6" font-family="courier new" font-size="8.00" fill="#000000">provider</text>
<polygon fill="none" stroke="#000000" points="100.5,-379 100.5,-394 144.5,-394 144.5,-379 100.5,-379"/>
<text text-anchor="start" x="105.6973" y="-384.6" font-family="courier new" font-size="8.00" fill="#000000">azurerm</text>
</g>
<!-- [root] provider.azurerm (close)&#45;&gt;[root] azurerm_subnet.subnet1 -->
<g id="edge_8" class="edge">
<title>[root] provider.azurerm (close)&#45;&gt;[root] azurerm_subnet.subnet1</title>
<path fill="none" stroke="#000000" d="M100.7986,-375.8314C90.3079,-367.0485 77.5545,-356.3712 66.1806,-346.8489"/>
<polygon fill="#000000" stroke="#000000" points="68.1089,-343.8986 58.1945,-340.1628 63.6153,-349.2659 68.1089,-343.8986"/>
</g>
<!-- [root] provider.azurerm (close)&#45;&gt;[root] azurerm_subnet.subnet2 -->
<g id="edge_9" class="edge">
<title>[root] provider.azurerm (close)&#45;&gt;[root] azurerm_subnet.subnet2</title>
<path fill="none" stroke="#000000" d="M123.7617,-375.8314C124.2965,-368.131 124.9323,-358.9743 125.5266,-350.4166"/>
<polygon fill="#000000" stroke="#000000" points="129.02,-350.6317 126.2213,-340.4133 122.0368,-350.1467 129.02,-350.6317"/>
</g>
<!-- [root] root -->
<g id="node_9" class="node">
<title>[root] root</title>
<polygon fill="none" stroke="#000000" points="115.8089,-484 47.1911,-484 47.1911,-448 115.8089,-448 115.8089,-484"/>
<text text-anchor="middle" x="81.5" y="-464.1313" font-family="courier new" font-size="8.00" fill="#000000">[root] root</text>
</g>
<!-- [root] root&#45;&gt;[root] meta.count&#45;boundary (count boundary fixup) -->
<g id="edge_10" class="edge">
<title>[root] root&#45;&gt;[root] meta.count&#45;boundary (count boundary fixup)</title>
<path fill="none" stroke="#000000" d="M71.154,-447.8314C66.5763,-439.7925 61.0948,-430.1666 56.0412,-421.2918"/>
<polygon fill="#000000" stroke="#000000" points="58.9752,-419.3712 50.9853,-412.4133 52.8923,-422.8351 58.9752,-419.3712"/>
</g>
<!-- [root] root&#45;&gt;[root] provider.azurerm (close) -->
<g id="edge_11" class="edge">
<title>[root] root&#45;&gt;[root] provider.azurerm (close)</title>
<path fill="none" stroke="#000000" d="M91.846,-447.8314C96.4237,-439.7925 101.9052,-430.1666 106.9588,-421.2918"/>
<polygon fill="#000000" stroke="#000000" points="110.1077,-422.8351 112.0147,-412.4133 104.0248,-419.3712 110.1077,-422.8351"/>
</g>
<!-- [root] var.resource_group -->
<g id="node_6" class="node">
<title>[root] var.resource_group</title>
<polygon fill="none" stroke="#000000" points="89.5,-34 89.5,-49 162.5,-49 162.5,-34 89.5,-34"/>
<text text-anchor="start" x="118.7988" y="-39.6" font-family="courier new" font-size="8.00" fill="#000000">var</text>
<polygon fill="none" stroke="#000000" points="89.5,-19 89.5,-34 162.5,-34 162.5,-19 89.5,-19"/>
<text text-anchor="start" x="92.3945" y="-24.6" font-family="courier new" font-size="8.00" fill="#000000">resource_group</text>
</g>
<!-- [root] var.location&#45;&gt;[root] var.resource_group -->
<g id="edge_12" class="edge">
<title>[root] var.location&#45;&gt;[root] var.resource_group</title>
<path fill="none" stroke="#000000" stroke-dasharray="5,2" d="M122.5094,-87.8314C123.1111,-77 123.8729,-63.2876 124.477,-52.4133"/>
</g>
</g>
</svg>

