<?xml version="1.0" encoding="UTF-8" standalone="no"?>
<!DOCTYPE svg PUBLIC "-//W3C//DTD SVG 1.1//EN"
 "http://www.w3.org/Graphics/SVG/1.1/DTD/svg11.dtd">
<!-- Generated by graphviz version 2.40.1 (20161225.0304)
 -->
<!-- Title: %3 Pages: 1 -->
<svg width="441pt" height="476pt"
 viewBox="0.00 0.00 440.50 476.00" xmlns="http://www.w3.org/2000/svg" xmlns:xlink="http://www.w3.org/1999/xlink">
<g id="graph0" class="graph" transform="scale(1 1) rotate(0) translate(4 472)">
<title>%3</title>
<polygon fill="#ffffff" stroke="transparent" points="-4,4 -4,-472 436.5,-472 436.5,4 -4,4"/>
<!-- [root] aws_cloudwatch_event_rule.foo -->
<g id="node_0" class="node">
<title>[root] aws_cloudwatch_event_rule.foo</title>
<polygon fill="none" stroke="#000000" points="185.5,-234 185.5,-249 311.5,-249 311.5,-234 185.5,-234"/>
<text text-anchor="start" x="188.4902" y="-239.6" font-family="courier new" font-size="8.00" fill="#000000">aws_cloudwatch_event_rule</text>
<polygon fill="none" stroke="#000000" points="185.5,-219 185.5,-234 311.5,-234 311.5,-219 185.5,-219"/>
<text text-anchor="start" x="241.2988" y="-224.6" font-family="courier new" font-size="8.00" fill="#000000">foo</text>
</g>
<!-- [root] aws_iam_role.role -->
<g id="node_2" class="node">
<title>[root] aws_iam_role.role</title>
<polygon fill="none" stroke="#000000" points="144.5,-162 144.5,-177 207.5,-177 207.5,-162 144.5,-162"/>
<text text-anchor="start" x="147.1953" y="-167.6" font-family="courier new" font-size="8.00" fill="#000000">aws_iam_role</text>
<polygon fill="none" stroke="#000000" points="144.5,-147 144.5,-162 207.5,-162 207.5,-147 144.5,-147"/>
<text text-anchor="start" x="166.3984" y="-152.6" font-family="courier new" font-size="8.00" fill="#000000">role</text>
</g>
<!-- [root] aws_cloudwatch_event_rule.foo&#45;&gt;[root] aws_iam_role.role -->
<g id="edge_0" class="edge">
<title>[root] aws_cloudwatch_event_rule.foo&#45;&gt;[root] aws_iam_role.role</title>
<path fill="none" stroke="#000000" d="M230.079,-215.8314C221.3471,-207.219 210.7683,-196.7851 201.2577,-187.4048"/>
<polygon fill="#000000" stroke="#000000" points="203.4925,-184.6931 193.9151,-180.1628 198.577,-189.6769 203.4925,-184.6931"/>
</g>
<!-- [root] var.rule_name -->
<g id="node_6" class="node">
<title>[root] var.rule_name</title>
<polygon fill="none" stroke="#000000" points="228.5,-162 228.5,-177 277.5,-177 277.5,-162 228.5,-162"/>
<text text-anchor="start" x="245.7988" y="-167.6" font-family="courier new" font-size="8.00" fill="#000000">var</text>
<polygon fill="none" stroke="#000000" points="228.5,-147 228.5,-162 277.5,-162 277.5,-147 228.5,-147"/>
<text text-anchor="start" x="231.3965" y="-152.6" font-family="courier new" font-size="8.00" fill="#000000">rule_name</text>
</g>
<!-- [root] aws_cloudwatch_event_rule.foo&#45;&gt;[root] var.rule_name -->
<g id="edge_1" class="edge">
<title>[root] aws_cloudwatch_event_rule.foo&#45;&gt;[root] var.rule_name</title>
<path fill="none" stroke="#000000" d="M249.5094,-215.8314C249.9372,-208.131 250.4459,-198.9743 250.9213,-190.4166"/>
<polygon fill="#000000" stroke="#000000" points="254.4169,-190.592 251.477,-180.4133 247.4276,-190.2037 254.4169,-190.592"/>
</g>
<!-- [root] aws_cloudwatch_event_target.foobar -->
<g id="node_1" class="node">
<title>[root] aws_cloudwatch_event_target.foobar</title>
<polygon fill="none" stroke="#000000" points="115.5,-306 115.5,-321 250.5,-321 250.5,-306 115.5,-306"/>
<text text-anchor="start" x="118.1895" y="-311.6" font-family="courier new" font-size="8.00" fill="#000000">aws_cloudwatch_event_target</text>
<polygon fill="none" stroke="#000000" points="115.5,-291 115.5,-306 250.5,-306 250.5,-291 115.5,-291"/>
<text text-anchor="start" x="168.5977" y="-296.6" font-family="courier new" font-size="8.00" fill="#000000">foobar</text>
</g>
<!-- [root] aws_cloudwatch_event_target.foobar&#45;&gt;[root] aws_cloudwatch_event_rule.foo -->
<g id="edge_2" class="edge">
<title>[root] aws_cloudwatch_event_target.foobar&#45;&gt;[root] aws_cloudwatch_event_rule.foo</title>
<path fill="none" stroke="#000000" d="M199.1546,-287.8314C206.9114,-279.3694 216.2802,-269.1489 224.761,-259.8971"/>
<polygon fill="#000000" stroke="#000000" points="227.4439,-262.1499 231.6212,-252.4133 222.2838,-257.4198 227.4439,-262.1499"/>
</g>
<!-- [root] aws_kinesis_stream.foo -->
<g id="node_4" class="node">
<title>[root] aws_kinesis_stream.foo</title>
<polygon fill="none" stroke="#000000" points="329.5,-234 329.5,-249 421.5,-249 421.5,-234 329.5,-234"/>
<text text-anchor="start" x="332.293" y="-239.6" font-family="courier new" font-size="8.00" fill="#000000">aws_kinesis_stream</text>
<polygon fill="none" stroke="#000000" points="329.5,-219 329.5,-234 421.5,-234 421.5,-219 329.5,-219"/>
<text text-anchor="start" x="368.2988" y="-224.6" font-family="courier new" font-size="8.00" fill="#000000">foo</text>
</g>
<!-- [root] aws_cloudwatch_event_target.foobar&#45;&gt;[root] aws_kinesis_stream.foo -->
<g id="edge_3" class="edge">
<title>[root] aws_cloudwatch_event_target.foobar&#45;&gt;[root] aws_kinesis_stream.foo</title>
<path fill="none" stroke="#000000" d="M231.202,-287.8314C258.1728,-277.7697 291.8079,-265.2219 319.8181,-254.7725"/>
<polygon fill="#000000" stroke="#000000" points="321.325,-257.946 329.4709,-251.1715 318.8783,-251.3875 321.325,-257.946"/>
</g>
<!-- [root] var.target_name -->
<g id="node_7" class="node">
<title>[root] var.target_name</title>
<polygon fill="none" stroke="#000000" points="109.5,-234 109.5,-249 167.5,-249 167.5,-234 109.5,-234"/>
<text text-anchor="start" x="131.2988" y="-239.6" font-family="courier new" font-size="8.00" fill="#000000">var</text>
<polygon fill="none" stroke="#000000" points="109.5,-219 109.5,-234 167.5,-234 167.5,-219 109.5,-219"/>
<text text-anchor="start" x="112.0957" y="-224.6" font-family="courier new" font-size="8.00" fill="#000000">target_name</text>
</g>
<!-- [root] aws_cloudwatch_event_target.foobar&#45;&gt;[root] var.target_name -->
<g id="edge_4" class="edge">
<title>[root] aws_cloudwatch_event_target.foobar&#45;&gt;[root] var.target_name</title>
<path fill="none" stroke="#000000" d="M171.3969,-287.8314C166.4326,-279.7079 160.4778,-269.9637 155.0072,-261.0118"/>
<polygon fill="#000000" stroke="#000000" points="157.9536,-259.121 149.7526,-252.4133 151.9806,-262.7712 157.9536,-259.121"/>
</g>
<!-- [root] provider.aws -->
<g id="node_5" class="node">
<title>[root] provider.aws</title>
<polygon fill="none" stroke="#000000" points="266.5,-90 266.5,-105 310.5,-105 310.5,-90 266.5,-90"/>
<text text-anchor="start" x="269.2969" y="-95.6" font-family="courier new" font-size="8.00" fill="#000000">provider</text>
<polygon fill="none" stroke="#000000" points="266.5,-75 266.5,-90 310.5,-90 310.5,-75 266.5,-75"/>
<text text-anchor="start" x="281.2988" y="-80.6" font-family="courier new" font-size="8.00" fill="#000000">aws</text>
</g>
<!-- [root] aws_iam_role.role&#45;&gt;[root] provider.aws -->
<g id="edge_5" class="edge">
<title>[root] aws_iam_role.role&#45;&gt;[root] provider.aws</title>
<path fill="none" stroke="#000000" d="M204.0147,-143.8314C218.7991,-134.4112 237.0037,-122.8118 252.7237,-112.7955"/>
<polygon fill="#000000" stroke="#000000" points="254.6111,-115.7431 261.1639,-107.4177 250.8495,-109.8396 254.6111,-115.7431"/>
</g>
<!-- [root] var.iam_role_name -->
<g id="node_8" class="node">
<title>[root] var.iam_role_name</title>
<polygon fill="none" stroke="#000000" points="141.5,-90 141.5,-105 209.5,-105 209.5,-90 141.5,-90"/>
<text text-anchor="start" x="168.2988" y="-95.6" font-family="courier new" font-size="8.00" fill="#000000">var</text>
<polygon fill="none" stroke="#000000" points="141.5,-75 141.5,-90 209.5,-90 209.5,-75 141.5,-75"/>
<text text-anchor="start" x="144.2949" y="-80.6" font-family="courier new" font-size="8.00" fill="#000000">iam_role_name</text>
</g>
<!-- [root] aws_iam_role.role&#45;&gt;[root] var.iam_role_name -->
<g id="edge_6" class="edge">
<title>[root] aws_iam_role.role&#45;&gt;[root] var.iam_role_name</title>
<path fill="none" stroke="#000000" d="M175.5,-143.8314C175.5,-136.131 175.5,-126.9743 175.5,-118.4166"/>
<polygon fill="#000000" stroke="#000000" points="179.0001,-118.4132 175.5,-108.4133 172.0001,-118.4133 179.0001,-118.4132"/>
</g>
<!-- [root] aws_iam_role_policy.policy -->
<g id="node_3" class="node">
<title>[root] aws_iam_role_policy.policy</title>
<polygon fill="none" stroke="#000000" points=".5,-306 .5,-321 97.5,-321 97.5,-306 .5,-306"/>
<text text-anchor="start" x="3.3926" y="-311.6" font-family="courier new" font-size="8.00" fill="#000000">aws_iam_role_policy</text>
<polygon fill="none" stroke="#000000" points=".5,-291 .5,-306 97.5,-306 97.5,-291 .5,-291"/>
<text text-anchor="start" x="34.5977" y="-296.6" font-family="courier new" font-size="8.00" fill="#000000">policy</text>
</g>
<!-- [root] aws_iam_role_policy.policy&#45;&gt;[root] aws_iam_role.role -->
<g id="edge_7" class="edge">
<title>[root] aws_iam_role_policy.policy&#45;&gt;[root] aws_iam_role.role</title>
<path fill="none" stroke="#000000" d="M56.1282,-287.9873C64.8895,-268.7107 80.6466,-237.9474 100.5,-216 110.7321,-204.6888 123.7069,-194.332 135.9766,-185.7805"/>
<polygon fill="#000000" stroke="#000000" points="137.9803,-188.6508 144.316,-180.1591 134.0676,-182.8464 137.9803,-188.6508"/>
</g>
<!-- [root] aws_kinesis_stream.foo&#45;&gt;[root] provider.aws -->
<g id="edge_8" class="edge">
<title>[root] aws_kinesis_stream.foo&#45;&gt;[root] provider.aws</title>
<path fill="none" stroke="#000000" d="M361.9514,-215.859C354.4467,-205.5424 345.1221,-192.2693 337.5,-180 324.8261,-159.5988 311.8927,-135.6863 302.498,-117.6392"/>
<polygon fill="#000000" stroke="#000000" points="305.3626,-115.5579 297.6669,-108.276 299.1419,-118.7676 305.3626,-115.5579"/>
</g>
<!-- [root] var.stream_name -->
<g id="node_9" class="node">
<title>[root] var.stream_name</title>
<polygon fill="none" stroke="#000000" points="346.5,-162 346.5,-177 404.5,-177 404.5,-162 346.5,-162"/>
<text text-anchor="start" x="368.2988" y="-167.6" font-family="courier new" font-size="8.00" fill="#000000">var</text>
<polygon fill="none" stroke="#000000" points="346.5,-147 346.5,-162 404.5,-162 404.5,-147 346.5,-147"/>
<text text-anchor="start" x="349.0957" y="-152.6" font-family="courier new" font-size="8.00" fill="#000000">stream_name</text>
</g>
<!-- [root] aws_kinesis_stream.foo&#45;&gt;[root] var.stream_name -->
<g id="edge_9" class="edge">
<title>[root] aws_kinesis_stream.foo&#45;&gt;[root] var.stream_name</title>
<path fill="none" stroke="#000000" d="M375.5,-215.8314C375.5,-208.131 375.5,-198.9743 375.5,-190.4166"/>
<polygon fill="#000000" stroke="#000000" points="379.0001,-190.4132 375.5,-180.4133 372.0001,-190.4133 379.0001,-190.4132"/>
</g>
<!-- [root] var.aws_region -->
<g id="node_14" class="node">
<title>[root] var.aws_region</title>
<polygon fill="none" stroke="#000000" points="261.5,-18 261.5,-33 315.5,-33 315.5,-18 261.5,-18"/>
<text text-anchor="start" x="281.2988" y="-23.6" font-family="courier new" font-size="8.00" fill="#000000">var</text>
<polygon fill="none" stroke="#000000" points="261.5,-3 261.5,-18 315.5,-18 315.5,-3 261.5,-3"/>
<text text-anchor="start" x="264.4961" y="-8.6" font-family="courier new" font-size="8.00" fill="#000000">aws_region</text>
</g>
<!-- [root] provider.aws&#45;&gt;[root] var.aws_region -->
<g id="edge_18" class="edge">
<title>[root] provider.aws&#45;&gt;[root] var.aws_region</title>
<path fill="none" stroke="#000000" d="M288.5,-71.8314C288.5,-64.131 288.5,-54.9743 288.5,-46.4166"/>
<polygon fill="#000000" stroke="#000000" points="292.0001,-46.4132 288.5,-36.4133 285.0001,-46.4133 292.0001,-46.4132"/>
</g>
<!-- [root] meta.count&#45;boundary (count boundary fixup) -->
<g id="node_10" class="node">
<title>[root] meta.count&#45;boundary (count boundary fixup)</title>
<polygon fill="none" stroke="#000000" points="187.5,-378 187.5,-393 260.5,-393 260.5,-378 187.5,-378"/>
<text text-anchor="start" x="214.3984" y="-383.6" font-family="courier new" font-size="8.00" fill="#000000">meta</text>
<polygon fill="none" stroke="#000000" points="187.5,-363 187.5,-378 260.5,-378 260.5,-363 187.5,-363"/>
<text text-anchor="start" x="190.3945" y="-368.6" font-family="courier new" font-size="8.00" fill="#000000">count&#45;boundary</text>
</g>
<!-- [root] meta.count&#45;boundary (count boundary fixup)&#45;&gt;[root] aws_cloudwatch_event_target.foobar -->
<g id="edge_10" class="edge">
<title>[root] meta.count&#45;boundary (count boundary fixup)&#45;&gt;[root] aws_cloudwatch_event_target.foobar</title>
<path fill="none" stroke="#000000" d="M213.154,-359.8314C208.5763,-351.7925 203.0948,-342.1666 198.0412,-333.2918"/>
<polygon fill="#000000" stroke="#000000" points="200.9752,-331.3712 192.9853,-324.4133 194.8923,-334.8351 200.9752,-331.3712"/>
</g>
<!-- [root] meta.count&#45;boundary (count boundary fixup)&#45;&gt;[root] aws_iam_role_policy.policy -->
<g id="edge_11" class="edge">
<title>[root] meta.count&#45;boundary (count boundary fixup)&#45;&gt;[root] aws_iam_role_policy.policy</title>
<path fill="none" stroke="#000000" d="M186.8143,-362.9064C162.1591,-352.7626 129.2668,-339.2298 101.744,-327.9061"/>
<polygon fill="#000000" stroke="#000000" points="102.8347,-324.5703 92.2551,-324.0021 100.1713,-331.0438 102.8347,-324.5703"/>
</g>
<!-- [root] output.kinesis_stream_arn -->
<g id="node_11" class="node">
<title>[root] output.kinesis_stream_arn</title>
<polygon fill="none" stroke="#000000" points="340.5,-306 340.5,-321 432.5,-321 432.5,-306 340.5,-306"/>
<text text-anchor="start" x="372.0977" y="-311.6" font-family="courier new" font-size="8.00" fill="#000000">output</text>
<polygon fill="none" stroke="#000000" points="340.5,-291 340.5,-306 432.5,-306 432.5,-291 340.5,-291"/>
<text text-anchor="start" x="343.293" y="-296.6" font-family="courier new" font-size="8.00" fill="#000000">kinesis_stream_arn</text>
</g>
<!-- [root] meta.count&#45;boundary (count boundary fixup)&#45;&gt;[root] output.kinesis_stream_arn -->
<g id="edge_12" class="edge">
<title>[root] meta.count&#45;boundary (count boundary fixup)&#45;&gt;[root] output.kinesis_stream_arn</title>
<path fill="none" stroke="#000000" d="M260.0804,-361.8418C282.6357,-351.8787 311.8663,-338.967 336.5379,-328.0692"/>
<polygon fill="#000000" stroke="#000000" points="338.0137,-331.2436 345.7469,-324.0014 335.1853,-324.8404 338.0137,-331.2436"/>
</g>
<!-- [root] output.rule_arn -->
<g id="node_12" class="node">
<title>[root] output.rule_arn</title>
<polygon fill="none" stroke="#000000" points="273.5,-306 273.5,-321 317.5,-321 317.5,-306 273.5,-306"/>
<text text-anchor="start" x="281.0977" y="-311.6" font-family="courier new" font-size="8.00" fill="#000000">output</text>
<polygon fill="none" stroke="#000000" points="273.5,-291 273.5,-306 317.5,-306 317.5,-291 273.5,-291"/>
<text text-anchor="start" x="276.2969" y="-296.6" font-family="courier new" font-size="8.00" fill="#000000">rule_arn</text>
</g>
<!-- [root] meta.count&#45;boundary (count boundary fixup)&#45;&gt;[root] output.rule_arn -->
<g id="edge_13" class="edge">
<title>[root] meta.count&#45;boundary (count boundary fixup)&#45;&gt;[root] output.rule_arn</title>
<path fill="none" stroke="#000000" d="M241.6686,-359.8314C250.2152,-351.2848 260.5557,-340.9443 269.8802,-331.6198"/>
<polygon fill="#000000" stroke="#000000" points="272.4905,-333.9592 277.0867,-324.4133 267.5408,-329.0095 272.4905,-333.9592"/>
</g>
<!-- [root] output.kinesis_stream_arn&#45;&gt;[root] aws_kinesis_stream.foo -->
<g id="edge_14" class="edge">
<title>[root] output.kinesis_stream_arn&#45;&gt;[root] aws_kinesis_stream.foo</title>
<path fill="none" stroke="#000000" d="M383.7242,-287.8314C382.5478,-280.131 381.1489,-270.9743 379.8414,-262.4166"/>
<polygon fill="#000000" stroke="#000000" points="383.2833,-261.7699 378.3131,-252.4133 376.3636,-262.8272 383.2833,-261.7699"/>
</g>
<!-- [root] output.rule_arn&#45;&gt;[root] aws_cloudwatch_event_rule.foo -->
<g id="edge_15" class="edge">
<title>[root] output.rule_arn&#45;&gt;[root] aws_cloudwatch_event_rule.foo</title>
<path fill="none" stroke="#000000" d="M283.6399,-287.8314C278.3371,-279.7079 271.9763,-269.9637 266.1327,-261.0118"/>
<polygon fill="#000000" stroke="#000000" points="268.9169,-258.8739 260.5198,-252.4133 263.0552,-262.7003 268.9169,-258.8739"/>
</g>
<!-- [root] provider.aws (close) -->
<g id="node_13" class="node">
<title>[root] provider.aws (close)</title>
<polygon fill="none" stroke="#000000" points="119.5,-378 119.5,-393 163.5,-393 163.5,-378 119.5,-378"/>
<text text-anchor="start" x="122.2969" y="-383.6" font-family="courier new" font-size="8.00" fill="#000000">provider</text>
<polygon fill="none" stroke="#000000" points="119.5,-363 119.5,-378 163.5,-378 163.5,-363 119.5,-363"/>
<text text-anchor="start" x="134.2988" y="-368.6" font-family="courier new" font-size="8.00" fill="#000000">aws</text>
</g>
<!-- [root] provider.aws (close)&#45;&gt;[root] aws_cloudwatch_event_target.foobar -->
<g id="edge_16" class="edge">
<title>[root] provider.aws (close)&#45;&gt;[root] aws_cloudwatch_event_target.foobar</title>
<path fill="none" stroke="#000000" d="M151.846,-359.8314C156.4237,-351.7925 161.9052,-342.1666 166.9588,-333.2918"/>
<polygon fill="#000000" stroke="#000000" points="170.1077,-334.8351 172.0147,-324.4133 164.0248,-331.3712 170.1077,-334.8351"/>
</g>
<!-- [root] provider.aws (close)&#45;&gt;[root] aws_iam_role_policy.policy -->
<g id="edge_17" class="edge">
<title>[root] provider.aws (close)&#45;&gt;[root] aws_iam_role_policy.policy</title>
<path fill="none" stroke="#000000" d="M118.0322,-359.8314C106.4673,-350.8779 92.3596,-339.9558 79.8817,-330.2955"/>
<polygon fill="#000000" stroke="#000000" points="82.0102,-327.5171 71.9603,-324.1628 77.725,-333.0521 82.0102,-327.5171"/>
</g>
<!-- [root] root -->
<g id="node_15" class="node">
<title>[root] root</title>
<polygon fill="none" stroke="#000000" points="216.8089,-468 148.1911,-468 148.1911,-432 216.8089,-432 216.8089,-468"/>
<text text-anchor="middle" x="182.5" y="-448.1313" font-family="courier new" font-size="8.00" fill="#000000">[root] root</text>
</g>
<!-- [root] root&#45;&gt;[root] meta.count&#45;boundary (count boundary fixup) -->
<g id="edge_19" class="edge">
<title>[root] root&#45;&gt;[root] meta.count&#45;boundary (count boundary fixup)</title>
<path fill="none" stroke="#000000" d="M192.846,-431.8314C197.4237,-423.7925 202.9052,-414.1666 207.9588,-405.2918"/>
<polygon fill="#000000" stroke="#000000" points="211.1077,-406.8351 213.0147,-396.4133 205.0248,-403.3712 211.1077,-406.8351"/>
</g>
<!-- [root] root&#45;&gt;[root] provider.aws (close) -->
<g id="edge_20" class="edge">
<title>[root] root&#45;&gt;[root] provider.aws (close)</title>
<path fill="none" stroke="#000000" d="M172.154,-431.8314C167.5763,-423.7925 162.0948,-414.1666 157.0412,-405.2918"/>
<polygon fill="#000000" stroke="#000000" points="159.9752,-403.3712 151.9853,-396.4133 153.8923,-406.8351 159.9752,-403.3712"/>
</g>
</g>
</svg>

