<?xml version="1.0" encoding="UTF-8" standalone="no"?>
<!DOCTYPE svg PUBLIC "-//W3C//DTD SVG 1.1//EN"
 "http://www.w3.org/Graphics/SVG/1.1/DTD/svg11.dtd">
<!-- Generated by graphviz version 2.40.1 (20161225.0304)
 -->
<!-- Title: %3 Pages: 1 -->
<svg width="463pt" height="492pt"
 viewBox="0.00 0.00 462.50 492.00" xmlns="http://www.w3.org/2000/svg" xmlns:xlink="http://www.w3.org/1999/xlink">
<g id="graph0" class="graph" transform="scale(1 1) rotate(0) translate(4 488)">
<title>%3</title>
<polygon fill="#ffffff" stroke="transparent" points="-4,4 -4,-488 458.5,-488 458.5,4 -4,4"/>
<g id="clust2" class="cluster">
<title>cluster[root] aws_cloudwatch_event_rule.foo_var_</title>
</g>
<g id="clust3" class="cluster">
<title>cluster[root] aws_cloudwatch_event_target.foobar_var_</title>
</g>
<g id="clust4" class="cluster">
<title>cluster[root] aws_iam_role.role_var_</title>
</g>
<g id="clust5" class="cluster">
<title>cluster[root] aws_kinesis_stream.foo_var_</title>
</g>
<g id="clust6" class="cluster">
<title>cluster[root] provider.aws_var_</title>
</g>
<g id="clust7" class="cluster">
<title>cluster[root] meta.count&#45;boundary (count boundary fixup)_output_[root] aws_kinesis_stream.foo</title>
</g>
<g id="clust8" class="cluster">
<title>cluster[root] meta.count&#45;boundary (count boundary fixup)_output_[root] aws_cloudwatch_event_rule.foo</title>
</g>
<!-- [root] aws_cloudwatch_event_rule.foo -->
<g id="node_0" class="node">
<title>[root] aws_cloudwatch_event_rule.foo</title>
<polygon fill="none" stroke="#000000" points="189.5,-250 189.5,-265 315.5,-265 315.5,-250 189.5,-250"/>
<text text-anchor="start" x="192.4902" y="-255.6" font-family="courier new" font-size="8.00" fill="#000000">aws_cloudwatch_event_rule</text>
<polygon fill="none" stroke="#000000" points="189.5,-235 189.5,-250 315.5,-250 315.5,-235 189.5,-235"/>
<text text-anchor="start" x="245.2988" y="-240.6" font-family="courier new" font-size="8.00" fill="#000000">foo</text>
</g>
<!-- [root] aws_iam_role.role -->
<g id="node_2" class="node">
<title>[root] aws_iam_role.role</title>
<polygon fill="none" stroke="#000000" points="148.5,-178 148.5,-193 211.5,-193 211.5,-178 148.5,-178"/>
<text text-anchor="start" x="151.1953" y="-183.6" font-family="courier new" font-size="8.00" fill="#000000">aws_iam_role</text>
<polygon fill="none" stroke="#000000" points="148.5,-163 148.5,-178 211.5,-178 211.5,-163 148.5,-163"/>
<text text-anchor="start" x="170.3984" y="-168.6" font-family="courier new" font-size="8.00" fill="#000000">role</text>
</g>
<!-- [root] aws_cloudwatch_event_rule.foo&#45;&gt;[root] aws_iam_role.role -->
<g id="edge_0" class="edge">
<title>[root] aws_cloudwatch_event_rule.foo&#45;&gt;[root] aws_iam_role.role</title>
<path fill="none" stroke="#000000" d="M234.079,-231.8314C225.3471,-223.219 214.7683,-212.7851 205.2577,-203.4048"/>
<polygon fill="#000000" stroke="#000000" points="207.4925,-200.6931 197.9151,-196.1628 202.577,-205.6769 207.4925,-200.6931"/>
</g>
<!-- [root] var.rule_name -->
<g id="node_6" class="node">
<title>[root] var.rule_name</title>
<polygon fill="none" stroke="#000000" points="232.5,-178 232.5,-193 281.5,-193 281.5,-178 232.5,-178"/>
<text text-anchor="start" x="249.7988" y="-183.6" font-family="courier new" font-size="8.00" fill="#000000">var</text>
<polygon fill="none" stroke="#000000" points="232.5,-163 232.5,-178 281.5,-178 281.5,-163 232.5,-163"/>
<text text-anchor="start" x="235.3965" y="-168.6" font-family="courier new" font-size="8.00" fill="#000000">rule_name</text>
</g>
<!-- [root] aws_cloudwatch_event_rule.foo&#45;&gt;[root] var.rule_name -->
<g id="edge_1" class="edge">
<title>[root] aws_cloudwatch_event_rule.foo&#45;&gt;[root] var.rule_name</title>
<path fill="none" stroke="#000000" d="M253.5094,-231.8314C253.9372,-224.131 254.4459,-214.9743 254.9213,-206.4166"/>
<polygon fill="#000000" stroke="#000000" points="258.4169,-206.592 255.477,-196.4133 251.4276,-206.2037 258.4169,-206.592"/>
</g>
<!-- [root] aws_cloudwatch_event_target.foobar -->
<g id="node_1" class="node">
<title>[root] aws_cloudwatch_event_target.foobar</title>
<polygon fill="none" stroke="#000000" points="115.5,-322 115.5,-337 250.5,-337 250.5,-322 115.5,-322"/>
<text text-anchor="start" x="118.1895" y="-327.6" font-family="courier new" font-size="8.00" fill="#000000">aws_cloudwatch_event_target</text>
<polygon fill="none" stroke="#000000" points="115.5,-307 115.5,-322 250.5,-322 250.5,-307 115.5,-307"/>
<text text-anchor="start" x="168.5977" y="-312.6" font-family="courier new" font-size="8.00" fill="#000000">foobar</text>
</g>
<!-- [root] aws_cloudwatch_event_target.foobar&#45;&gt;[root] aws_cloudwatch_event_rule.foo -->
<g id="edge_2" class="edge">
<title>[root] aws_cloudwatch_event_target.foobar&#45;&gt;[root] aws_cloudwatch_event_rule.foo</title>
<path fill="none" stroke="#000000" d="M200.164,-303.8314C208.4732,-295.2848 218.5264,-284.9443 227.5918,-275.6198"/>
<polygon fill="#000000" stroke="#000000" points="230.1369,-278.023 234.5982,-268.4133 225.1179,-273.1435 230.1369,-278.023"/>
</g>
<!-- [root] aws_kinesis_stream.foo -->
<g id="node_4" class="node">
<title>[root] aws_kinesis_stream.foo</title>
<polygon fill="none" stroke="#000000" points="333.5,-250 333.5,-265 425.5,-265 425.5,-250 333.5,-250"/>
<text text-anchor="start" x="336.293" y="-255.6" font-family="courier new" font-size="8.00" fill="#000000">aws_kinesis_stream</text>
<polygon fill="none" stroke="#000000" points="333.5,-235 333.5,-250 425.5,-250 425.5,-235 333.5,-235"/>
<text text-anchor="start" x="372.2988" y="-240.6" font-family="courier new" font-size="8.00" fill="#000000">foo</text>
</g>
<!-- [root] aws_cloudwatch_event_target.foobar&#45;&gt;[root] aws_kinesis_stream.foo -->
<g id="edge_3" class="edge">
<title>[root] aws_cloudwatch_event_target.foobar&#45;&gt;[root] aws_kinesis_stream.foo</title>
<path fill="none" stroke="#000000" d="M232.9361,-303.8872C240.8013,-301.1762 248.8537,-298.4659 256.5,-296 286.4818,-286.331 295.0597,-287.21 324.5,-276 327.7064,-274.7791 330.9846,-273.4494 334.2648,-272.0582"/>
<polygon fill="#000000" stroke="#000000" points="335.7129,-275.2449 343.4564,-268.0138 332.8937,-268.8377 335.7129,-275.2449"/>
</g>
<!-- [root] var.target_name -->
<g id="node_7" class="node">
<title>[root] var.target_name</title>
<polygon fill="none" stroke="#000000" points="113.5,-250 113.5,-265 171.5,-265 171.5,-250 113.5,-250"/>
<text text-anchor="start" x="135.2988" y="-255.6" font-family="courier new" font-size="8.00" fill="#000000">var</text>
<polygon fill="none" stroke="#000000" points="113.5,-235 113.5,-250 171.5,-250 171.5,-235 113.5,-235"/>
<text text-anchor="start" x="116.0957" y="-240.6" font-family="courier new" font-size="8.00" fill="#000000">target_name</text>
</g>
<!-- [root] aws_cloudwatch_event_target.foobar&#45;&gt;[root] var.target_name -->
<g id="edge_4" class="edge">
<title>[root] aws_cloudwatch_event_target.foobar&#45;&gt;[root] var.target_name</title>
<path fill="none" stroke="#000000" d="M172.4063,-303.8314C167.9403,-295.7925 162.5925,-286.1666 157.6621,-277.2918"/>
<polygon fill="#000000" stroke="#000000" points="160.6456,-275.4551 152.7296,-268.4133 154.5265,-278.8546 160.6456,-275.4551"/>
</g>
<!-- [root] provider.aws -->
<g id="node_5" class="node">
<title>[root] provider.aws</title>
<polygon fill="none" stroke="#000000" points="266.5,-106 266.5,-121 310.5,-121 310.5,-106 266.5,-106"/>
<text text-anchor="start" x="269.2969" y="-111.6" font-family="courier new" font-size="8.00" fill="#000000">provider</text>
<polygon fill="none" stroke="#000000" points="266.5,-91 266.5,-106 310.5,-106 310.5,-91 266.5,-91"/>
<text text-anchor="start" x="281.2988" y="-96.6" font-family="courier new" font-size="8.00" fill="#000000">aws</text>
</g>
<!-- [root] aws_iam_role.role&#45;&gt;[root] provider.aws -->
<g id="edge_5" class="edge">
<title>[root] aws_iam_role.role&#45;&gt;[root] provider.aws</title>
<path fill="none" stroke="#000000" d="M206.018,-159.7311C209.8598,-157.1209 213.774,-154.4811 217.5,-152 228.9953,-144.3453 241.625,-136.1078 253.0048,-128.7483"/>
<polygon fill="#000000" stroke="#000000" points="254.9189,-131.6786 261.4239,-123.3158 251.1236,-125.7968 254.9189,-131.6786"/>
</g>
<!-- [root] var.iam_role_name -->
<g id="node_8" class="node">
<title>[root] var.iam_role_name</title>
<polygon fill="none" stroke="#000000" points="145.5,-106 145.5,-121 213.5,-121 213.5,-106 145.5,-106"/>
<text text-anchor="start" x="172.2988" y="-111.6" font-family="courier new" font-size="8.00" fill="#000000">var</text>
<polygon fill="none" stroke="#000000" points="145.5,-91 145.5,-106 213.5,-106 213.5,-91 145.5,-91"/>
<text text-anchor="start" x="148.2949" y="-96.6" font-family="courier new" font-size="8.00" fill="#000000">iam_role_name</text>
</g>
<!-- [root] aws_iam_role.role&#45;&gt;[root] var.iam_role_name -->
<g id="edge_6" class="edge">
<title>[root] aws_iam_role.role&#45;&gt;[root] var.iam_role_name</title>
<path fill="none" stroke="#000000" d="M179.5,-159.8314C179.5,-152.131 179.5,-142.9743 179.5,-134.4166"/>
<polygon fill="#000000" stroke="#000000" points="183.0001,-134.4132 179.5,-124.4133 176.0001,-134.4133 183.0001,-134.4132"/>
</g>
<!-- [root] aws_iam_role_policy.policy -->
<g id="node_3" class="node">
<title>[root] aws_iam_role_policy.policy</title>
<polygon fill="none" stroke="#000000" points=".5,-322 .5,-337 97.5,-337 97.5,-322 .5,-322"/>
<text text-anchor="start" x="3.3926" y="-327.6" font-family="courier new" font-size="8.00" fill="#000000">aws_iam_role_policy</text>
<polygon fill="none" stroke="#000000" points=".5,-307 .5,-322 97.5,-322 97.5,-307 .5,-307"/>
<text text-anchor="start" x="34.5977" y="-312.6" font-family="courier new" font-size="8.00" fill="#000000">policy</text>
</g>
<!-- [root] aws_iam_role_policy.policy&#45;&gt;[root] aws_iam_role.role -->
<g id="edge_7" class="edge">
<title>[root] aws_iam_role_policy.policy&#45;&gt;[root] aws_iam_role.role</title>
<path fill="none" stroke="#000000" d="M54.8441,-303.8937C62.9855,-282.7083 78.8178,-247.5392 101.5,-224 112.1358,-212.9623 125.9843,-203.6598 139.0556,-196.3717"/>
<polygon fill="#000000" stroke="#000000" points="140.746,-199.437 147.9318,-191.6514 137.4592,-193.2566 140.746,-199.437"/>
</g>
<!-- [root] aws_kinesis_stream.foo&#45;&gt;[root] provider.aws -->
<g id="edge_8" class="edge">
<title>[root] aws_kinesis_stream.foo&#45;&gt;[root] provider.aws</title>
<path fill="none" stroke="#000000" d="M361.1867,-231.6581C353.6475,-223.572 345.1434,-213.713 338.5,-204 323.1173,-181.5096 309.3522,-153.653 300.1787,-133.3947"/>
<polygon fill="#000000" stroke="#000000" points="303.3156,-131.8348 296.0572,-124.1169 296.9184,-134.6767 303.3156,-131.8348"/>
</g>
<!-- [root] var.stream_name -->
<g id="node_9" class="node">
<title>[root] var.stream_name</title>
<polygon fill="none" stroke="#000000" points="350.5,-178 350.5,-193 408.5,-193 408.5,-178 350.5,-178"/>
<text text-anchor="start" x="372.2988" y="-183.6" font-family="courier new" font-size="8.00" fill="#000000">var</text>
<polygon fill="none" stroke="#000000" points="350.5,-163 350.5,-178 408.5,-178 408.5,-163 350.5,-163"/>
<text text-anchor="start" x="353.0957" y="-168.6" font-family="courier new" font-size="8.00" fill="#000000">stream_name</text>
</g>
<!-- [root] aws_kinesis_stream.foo&#45;&gt;[root] var.stream_name -->
<g id="edge_9" class="edge">
<title>[root] aws_kinesis_stream.foo&#45;&gt;[root] var.stream_name</title>
<path fill="none" stroke="#000000" d="M379.5,-231.8314C379.5,-224.131 379.5,-214.9743 379.5,-206.4166"/>
<polygon fill="#000000" stroke="#000000" points="383.0001,-206.4132 379.5,-196.4133 376.0001,-206.4133 383.0001,-206.4132"/>
</g>
<!-- [root] var.aws_region -->
<g id="node_14" class="node">
<title>[root] var.aws_region</title>
<polygon fill="none" stroke="#000000" points="261.5,-34 261.5,-49 315.5,-49 315.5,-34 261.5,-34"/>
<text text-anchor="start" x="281.2988" y="-39.6" font-family="courier new" font-size="8.00" fill="#000000">var</text>
<polygon fill="none" stroke="#000000" points="261.5,-19 261.5,-34 315.5,-34 315.5,-19 261.5,-19"/>
<text text-anchor="start" x="264.4961" y="-24.6" font-family="courier new" font-size="8.00" fill="#000000">aws_region</text>
</g>
<!-- [root] provider.aws&#45;&gt;[root] var.aws_region -->
<g id="edge_18" class="edge">
<title>[root] provider.aws&#45;&gt;[root] var.aws_region</title>
<path fill="none" stroke="#000000" d="M288.5,-87.8314C288.5,-80.131 288.5,-70.9743 288.5,-62.4166"/>
<polygon fill="#000000" stroke="#000000" points="292.0001,-62.4132 288.5,-52.4133 285.0001,-62.4133 292.0001,-62.4132"/>
</g>
<!-- [root] meta.count&#45;boundary (count boundary fixup) -->
<g id="node_10" class="node">
<title>[root] meta.count&#45;boundary (count boundary fixup)</title>
<polygon fill="none" stroke="#000000" points="187.5,-394 187.5,-409 260.5,-409 260.5,-394 187.5,-394"/>
<text text-anchor="start" x="214.3984" y="-399.6" font-family="courier new" font-size="8.00" fill="#000000">meta</text>
<polygon fill="none" stroke="#000000" points="187.5,-379 187.5,-394 260.5,-394 260.5,-379 187.5,-379"/>
<text text-anchor="start" x="190.3945" y="-384.6" font-family="courier new" font-size="8.00" fill="#000000">count&#45;boundary</text>
</g>
<!-- [root] meta.count&#45;boundary (count boundary fixup)&#45;&gt;[root] aws_cloudwatch_event_target.foobar -->
<g id="edge_10" class="edge">
<title>[root] meta.count&#45;boundary (count boundary fixup)&#45;&gt;[root] aws_cloudwatch_event_target.foobar</title>
<path fill="none" stroke="#000000" d="M213.154,-375.8314C208.5763,-367.7925 203.0948,-358.1666 198.0412,-349.2918"/>
<polygon fill="#000000" stroke="#000000" points="200.9752,-347.3712 192.9853,-340.4133 194.8923,-350.8351 200.9752,-347.3712"/>
</g>
<!-- [root] meta.count&#45;boundary (count boundary fixup)&#45;&gt;[root] aws_iam_role_policy.policy -->
<g id="edge_11" class="edge">
<title>[root] meta.count&#45;boundary (count boundary fixup)&#45;&gt;[root] aws_iam_role_policy.policy</title>
<path fill="none" stroke="#000000" d="M186.9368,-379.6724C154.1101,-366.8015 110.4737,-349.6707 106.5,-348 103.4992,-346.7383 100.4197,-345.4221 97.3197,-344.0808"/>
<polygon fill="#000000" stroke="#000000" points="98.5801,-340.812 88.0157,-340.0106 95.7746,-347.2252 98.5801,-340.812"/>
</g>
<!-- [root] output.kinesis_stream_arn -->
<g id="node_11" class="node">
<title>[root] output.kinesis_stream_arn</title>
<polygon fill="none" stroke="#000000" points="346.5,-322 346.5,-337 438.5,-337 438.5,-322 346.5,-322"/>
<text text-anchor="start" x="378.0977" y="-327.6" font-family="courier new" font-size="8.00" fill="#000000">output</text>
<polygon fill="none" stroke="#000000" points="346.5,-307 346.5,-322 438.5,-322 438.5,-307 346.5,-307"/>
<text text-anchor="start" x="349.293" y="-312.6" font-family="courier new" font-size="8.00" fill="#000000">kinesis_stream_arn</text>
</g>
<!-- [root] meta.count&#45;boundary (count boundary fixup)&#45;&gt;[root] output.kinesis_stream_arn -->
<g id="edge_12" class="edge">
<title>[root] meta.count&#45;boundary (count boundary fixup)&#45;&gt;[root] output.kinesis_stream_arn</title>
<path fill="none" stroke="#000000" d="M260.1057,-379.137C281.798,-370.253 309.7902,-358.6559 334.5,-348 337.3467,-346.7724 340.2671,-345.5011 343.2107,-344.2105"/>
<polygon fill="#000000" stroke="#000000" points="344.8947,-347.293 352.6295,-340.0526 342.0678,-340.8892 344.8947,-347.293"/>
</g>
<!-- [root] output.rule_arn -->
<g id="node_12" class="node">
<title>[root] output.rule_arn</title>
<polygon fill="none" stroke="#000000" points="273.5,-322 273.5,-337 317.5,-337 317.5,-322 273.5,-322"/>
<text text-anchor="start" x="281.0977" y="-327.6" font-family="courier new" font-size="8.00" fill="#000000">output</text>
<polygon fill="none" stroke="#000000" points="273.5,-307 273.5,-322 317.5,-322 317.5,-307 273.5,-307"/>
<text text-anchor="start" x="276.2969" y="-312.6" font-family="courier new" font-size="8.00" fill="#000000">rule_arn</text>
</g>
<!-- [root] meta.count&#45;boundary (count boundary fixup)&#45;&gt;[root] output.rule_arn -->
<g id="edge_13" class="edge">
<title>[root] meta.count&#45;boundary (count boundary fixup)&#45;&gt;[root] output.rule_arn</title>
<path fill="none" stroke="#000000" d="M241.6686,-375.8314C250.2152,-367.2848 260.5557,-356.9443 269.8802,-347.6198"/>
<polygon fill="#000000" stroke="#000000" points="272.4905,-349.9592 277.0867,-340.4133 267.5408,-345.0095 272.4905,-349.9592"/>
</g>
<!-- [root] provider.aws (close) -->
<g id="node_13" class="node">
<title>[root] provider.aws (close)</title>
<polygon fill="none" stroke="#000000" points="119.5,-394 119.5,-409 163.5,-409 163.5,-394 119.5,-394"/>
<text text-anchor="start" x="122.2969" y="-399.6" font-family="courier new" font-size="8.00" fill="#000000">provider</text>
<polygon fill="none" stroke="#000000" points="119.5,-379 119.5,-394 163.5,-394 163.5,-379 119.5,-379"/>
<text text-anchor="start" x="134.2988" y="-384.6" font-family="courier new" font-size="8.00" fill="#000000">aws</text>
</g>
<!-- [root] provider.aws (close)&#45;&gt;[root] aws_cloudwatch_event_target.foobar -->
<g id="edge_16" class="edge">
<title>[root] provider.aws (close)&#45;&gt;[root] aws_cloudwatch_event_target.foobar</title>
<path fill="none" stroke="#000000" d="M151.846,-375.8314C156.4237,-367.7925 161.9052,-358.1666 166.9588,-349.2918"/>
<polygon fill="#000000" stroke="#000000" points="170.1077,-350.8351 172.0147,-340.4133 164.0248,-347.3712 170.1077,-350.8351"/>
</g>
<!-- [root] provider.aws (close)&#45;&gt;[root] aws_iam_role_policy.policy -->
<g id="edge_17" class="edge">
<title>[root] provider.aws (close)&#45;&gt;[root] aws_iam_role_policy.policy</title>
<path fill="none" stroke="#000000" d="M118.0322,-375.8314C106.4673,-366.8779 92.3596,-355.9558 79.8817,-346.2955"/>
<polygon fill="#000000" stroke="#000000" points="82.0102,-343.5171 71.9603,-340.1628 77.725,-349.0521 82.0102,-343.5171"/>
</g>
<!-- [root] root -->
<g id="node_15" class="node">
<title>[root] root</title>
<polygon fill="none" stroke="#000000" points="216.8089,-484 148.1911,-484 148.1911,-448 216.8089,-448 216.8089,-484"/>
<text text-anchor="middle" x="182.5" y="-464.1313" font-family="courier new" font-size="8.00" fill="#000000">[root] root</text>
</g>
<!-- [root] root&#45;&gt;[root] meta.count&#45;boundary (count boundary fixup) -->
<g id="edge_19" class="edge">
<title>[root] root&#45;&gt;[root] meta.count&#45;boundary (count boundary fixup)</title>
<path fill="none" stroke="#000000" d="M192.846,-447.8314C197.4237,-439.7925 202.9052,-430.1666 207.9588,-421.2918"/>
<polygon fill="#000000" stroke="#000000" points="211.1077,-422.8351 213.0147,-412.4133 205.0248,-419.3712 211.1077,-422.8351"/>
</g>
<!-- [root] root&#45;&gt;[root] provider.aws (close) -->
<g id="edge_20" class="edge">
<title>[root] root&#45;&gt;[root] provider.aws (close)</title>
<path fill="none" stroke="#000000" d="M172.154,-447.8314C167.5763,-439.7925 162.0948,-430.1666 157.0412,-421.2918"/>
<polygon fill="#000000" stroke="#000000" points="159.9752,-419.3712 151.9853,-412.4133 153.8923,-422.8351 159.9752,-419.3712"/>
</g>
<!-- [root] output.kinesis_stream_arn&#45;&gt;[root] aws_kinesis_stream.foo -->
<g id="edge_14" class="edge">
<title>[root] output.kinesis_stream_arn&#45;&gt;[root] aws_kinesis_stream.foo</title>
<path fill="none" stroke="#000000" d="M389.2196,-303.8314C387.8292,-296.131 386.1759,-286.9743 384.6308,-278.4166"/>
<polygon fill="#000000" stroke="#000000" points="388.0458,-277.6322 382.8246,-268.4133 381.1572,-278.8761 388.0458,-277.6322"/>
</g>
<!-- [root] output.rule_arn&#45;&gt;[root] aws_cloudwatch_event_rule.foo -->
<g id="edge_15" class="edge">
<title>[root] output.rule_arn&#45;&gt;[root] aws_cloudwatch_event_rule.foo</title>
<path fill="none" stroke="#000000" d="M284.6493,-303.8314C279.7977,-295.7079 273.9783,-285.9637 268.632,-277.0118"/>
<polygon fill="#000000" stroke="#000000" points="271.6292,-275.2041 263.4968,-268.4133 265.6194,-278.7933 271.6292,-275.2041"/>
</g>
</g>
</svg>

