<?xml version="1.0" encoding="UTF-8" standalone="no"?>
<!DOCTYPE svg PUBLIC "-//W3C//DTD SVG 1.1//EN"
 "http://www.w3.org/Graphics/SVG/1.1/DTD/svg11.dtd">
<!-- Generated by graphviz version 2.40.1 (20161225.0304)
 -->
<!-- Title: %3 Pages: 1 -->
<svg width="673pt" height="476pt"
 viewBox="0.00 0.00 673.00 476.00" xmlns="http://www.w3.org/2000/svg" xmlns:xlink="http://www.w3.org/1999/xlink">
<g id="graph0" class="graph" transform="scale(1 1) rotate(0) translate(4 472)">
<title>%3</title>
<polygon fill="#ffffff" stroke="transparent" points="-4,4 -4,-472 669,-472 669,4 -4,4"/>
<!-- [root] azurerm_resource_group.rg -->
<g id="node_0" class="node">
<title>[root] azurerm_resource_group.rg</title>
<polygon fill="none" stroke="#000000" points="279,-90 279,-105 390,-105 390,-90 279,-90"/>
<text text-anchor="start" x="281.6914" y="-95.6" font-family="courier new" font-size="8.00" fill="#000000">azurerm_resource_group</text>
<polygon fill="none" stroke="#000000" points="279,-75 279,-90 390,-90 390,-75 279,-75"/>
<text text-anchor="start" x="329.6992" y="-80.6" font-family="courier new" font-size="8.00" fill="#000000">rg</text>
</g>
<!-- [root] provider.azurerm -->
<g id="node_4" class="node">
<title>[root] provider.azurerm</title>
<polygon fill="none" stroke="#000000" points="240,-18 240,-33 284,-33 284,-18 240,-18"/>
<text text-anchor="start" x="242.7969" y="-23.6" font-family="courier new" font-size="8.00" fill="#000000">provider</text>
<polygon fill="none" stroke="#000000" points="240,-3 240,-18 284,-18 284,-3 240,-3"/>
<text text-anchor="start" x="245.1973" y="-8.6" font-family="courier new" font-size="8.00" fill="#000000">azurerm</text>
</g>
<!-- [root] azurerm_resource_group.rg&#45;&gt;[root] provider.azurerm -->
<g id="edge_0" class="edge">
<title>[root] azurerm_resource_group.rg&#45;&gt;[root] provider.azurerm</title>
<path fill="none" stroke="#000000" d="M315.8314,-71.8314C307.2848,-63.2848 296.9443,-52.9443 287.6198,-43.6198"/>
<polygon fill="#000000" stroke="#000000" points="289.9592,-41.0095 280.4133,-36.4133 285.0095,-45.9592 289.9592,-41.0095"/>
</g>
<!-- [root] var.location -->
<g id="node_5" class="node">
<title>[root] var.location</title>
<polygon fill="none" stroke="#000000" points="312,-18 312,-33 356,-33 356,-18 312,-18"/>
<text text-anchor="start" x="326.7988" y="-23.6" font-family="courier new" font-size="8.00" fill="#000000">var</text>
<polygon fill="none" stroke="#000000" points="312,-3 312,-18 356,-18 356,-3 312,-3"/>
<text text-anchor="start" x="314.7969" y="-8.6" font-family="courier new" font-size="8.00" fill="#000000">location</text>
</g>
<!-- [root] azurerm_resource_group.rg&#45;&gt;[root] var.location -->
<g id="edge_1" class="edge">
<title>[root] azurerm_resource_group.rg&#45;&gt;[root] var.location</title>
<path fill="none" stroke="#000000" d="M334,-71.8314C334,-64.131 334,-54.9743 334,-46.4166"/>
<polygon fill="#000000" stroke="#000000" points="337.5001,-46.4132 334,-36.4133 330.5001,-46.4133 337.5001,-46.4132"/>
</g>
<!-- [root] var.resource_group -->
<g id="node_6" class="node">
<title>[root] var.resource_group</title>
<polygon fill="none" stroke="#000000" points="380,-18 380,-33 453,-33 453,-18 380,-18"/>
<text text-anchor="start" x="409.2988" y="-23.6" font-family="courier new" font-size="8.00" fill="#000000">var</text>
<polygon fill="none" stroke="#000000" points="380,-3 380,-18 453,-18 453,-3 380,-3"/>
<text text-anchor="start" x="382.8945" y="-8.6" font-family="courier new" font-size="8.00" fill="#000000">resource_group</text>
</g>
<!-- [root] azurerm_resource_group.rg&#45;&gt;[root] var.resource_group -->
<g id="edge_2" class="edge">
<title>[root] azurerm_resource_group.rg&#45;&gt;[root] var.resource_group</title>
<path fill="none" stroke="#000000" d="M354.6921,-71.8314C364.6948,-63.0485 376.855,-52.3712 387.6999,-42.8489"/>
<polygon fill="#000000" stroke="#000000" points="390.1094,-45.3909 395.3146,-36.1628 385.4908,-40.1308 390.1094,-45.3909"/>
</g>
<!-- [root] azurerm_sql_database.db -->
<g id="node_1" class="node">
<title>[root] azurerm_sql_database.db</title>
<polygon fill="none" stroke="#000000" points="12,-234 12,-249 114,-249 114,-234 12,-234"/>
<text text-anchor="start" x="14.9922" y="-239.6" font-family="courier new" font-size="8.00" fill="#000000">azurerm_sql_database</text>
<polygon fill="none" stroke="#000000" points="12,-219 12,-234 114,-234 114,-219 12,-219"/>
<text text-anchor="start" x="58.1992" y="-224.6" font-family="courier new" font-size="8.00" fill="#000000">db</text>
</g>
<!-- [root] azurerm_sql_server.server -->
<g id="node_3" class="node">
<title>[root] azurerm_sql_server.server</title>
<polygon fill="none" stroke="#000000" points="408,-162 408,-177 500,-177 500,-162 408,-162"/>
<text text-anchor="start" x="410.793" y="-167.6" font-family="courier new" font-size="8.00" fill="#000000">azurerm_sql_server</text>
<polygon fill="none" stroke="#000000" points="408,-147 408,-162 500,-162 500,-147 408,-147"/>
<text text-anchor="start" x="439.5977" y="-152.6" font-family="courier new" font-size="8.00" fill="#000000">server</text>
</g>
<!-- [root] azurerm_sql_database.db&#45;&gt;[root] azurerm_sql_server.server -->
<g id="edge_3" class="edge">
<title>[root] azurerm_sql_database.db&#45;&gt;[root] azurerm_sql_server.server</title>
<path fill="none" stroke="#000000" d="M114.3214,-219.2468C118.9313,-218.0858 123.5406,-216.9839 128,-216 221.8561,-195.2923 332.4894,-178.5607 397.7424,-169.4699"/>
<polygon fill="#000000" stroke="#000000" points="398.3896,-172.9138 407.816,-168.0771 397.4308,-165.9798 398.3896,-172.9138"/>
</g>
<!-- [root] var.db_edition -->
<g id="node_7" class="node">
<title>[root] var.db_edition</title>
<polygon fill="none" stroke="#000000" points="0,-162 0,-177 54,-177 54,-162 0,-162"/>
<text text-anchor="start" x="19.7988" y="-167.6" font-family="courier new" font-size="8.00" fill="#000000">var</text>
<polygon fill="none" stroke="#000000" points="0,-147 0,-162 54,-162 54,-147 0,-147"/>
<text text-anchor="start" x="2.9961" y="-152.6" font-family="courier new" font-size="8.00" fill="#000000">db_edition</text>
</g>
<!-- [root] azurerm_sql_database.db&#45;&gt;[root] var.db_edition -->
<g id="edge_4" class="edge">
<title>[root] azurerm_sql_database.db&#45;&gt;[root] var.db_edition</title>
<path fill="none" stroke="#000000" d="M53.9157,-215.8314C49.9385,-207.8771 45.1845,-198.369 40.7861,-189.5723"/>
<polygon fill="#000000" stroke="#000000" points="43.8093,-187.7923 36.2066,-180.4133 37.5483,-190.9228 43.8093,-187.7923"/>
</g>
<!-- [root] var.db_name -->
<g id="node_8" class="node">
<title>[root] var.db_name</title>
<polygon fill="none" stroke="#000000" points="80,-162 80,-177 119,-177 119,-162 80,-162"/>
<text text-anchor="start" x="92.2988" y="-167.6" font-family="courier new" font-size="8.00" fill="#000000">var</text>
<polygon fill="none" stroke="#000000" points="80,-147 80,-162 119,-162 119,-147 80,-147"/>
<text text-anchor="start" x="82.6973" y="-152.6" font-family="courier new" font-size="8.00" fill="#000000">db_name</text>
</g>
<!-- [root] azurerm_sql_database.db&#45;&gt;[root] var.db_name -->
<g id="edge_5" class="edge">
<title>[root] azurerm_sql_database.db&#45;&gt;[root] var.db_name</title>
<path fill="none" stroke="#000000" d="M72.0843,-215.8314C76.0615,-207.8771 80.8155,-198.369 85.2139,-189.5723"/>
<polygon fill="#000000" stroke="#000000" points="88.4517,-190.9228 89.7934,-180.4133 82.1907,-187.7923 88.4517,-190.9228"/>
</g>
<!-- [root] azurerm_sql_firewall_rule.fw -->
<g id="node_2" class="node">
<title>[root] azurerm_sql_firewall_rule.fw</title>
<polygon fill="none" stroke="#000000" points="242,-306 242,-321 368,-321 368,-306 242,-306"/>
<text text-anchor="start" x="244.9902" y="-311.6" font-family="courier new" font-size="8.00" fill="#000000">azurerm_sql_firewall_rule</text>
<polygon fill="none" stroke="#000000" points="242,-291 242,-306 368,-306 368,-291 242,-291"/>
<text text-anchor="start" x="300.1992" y="-296.6" font-family="courier new" font-size="8.00" fill="#000000">fw</text>
</g>
<!-- [root] azurerm_sql_firewall_rule.fw&#45;&gt;[root] azurerm_sql_server.server -->
<g id="edge_6" class="edge">
<title>[root] azurerm_sql_firewall_rule.fw&#45;&gt;[root] azurerm_sql_server.server</title>
<path fill="none" stroke="#000000" d="M241.8715,-289.9994C207.8647,-279.9668 170.8853,-266.2645 161,-252 151.8865,-238.8492 150.7628,-228.2963 161,-216 190.4746,-180.5969 320.7809,-168.3173 397.3344,-164.1226"/>
<polygon fill="#000000" stroke="#000000" points="397.9579,-167.5951 407.7636,-163.5828 397.596,-160.6044 397.9579,-167.5951"/>
</g>
<!-- [root] var.end_ip_address -->
<g id="node_9" class="node">
<title>[root] var.end_ip_address</title>
<polygon fill="none" stroke="#000000" points="171,-234 171,-249 244,-249 244,-234 171,-234"/>
<text text-anchor="start" x="200.2988" y="-239.6" font-family="courier new" font-size="8.00" fill="#000000">var</text>
<polygon fill="none" stroke="#000000" points="171,-219 171,-234 244,-234 244,-219 171,-219"/>
<text text-anchor="start" x="173.8945" y="-224.6" font-family="courier new" font-size="8.00" fill="#000000">end_ip_address</text>
</g>
<!-- [root] azurerm_sql_firewall_rule.fw&#45;&gt;[root] var.end_ip_address -->
<g id="edge_7" class="edge">
<title>[root] azurerm_sql_firewall_rule.fw&#45;&gt;[root] var.end_ip_address</title>
<path fill="none" stroke="#000000" d="M280.2705,-287.8314C268.0838,-278.8779 253.2177,-267.9558 240.0688,-258.2955"/>
<polygon fill="#000000" stroke="#000000" points="241.8527,-255.263 231.7216,-252.1628 237.7082,-260.9042 241.8527,-255.263"/>
</g>
<!-- [root] var.start_ip_address -->
<g id="node_10" class="node">
<title>[root] var.start_ip_address</title>
<polygon fill="none" stroke="#000000" points="262,-234 262,-249 344,-249 344,-234 262,-234"/>
<text text-anchor="start" x="295.7988" y="-239.6" font-family="courier new" font-size="8.00" fill="#000000">var</text>
<polygon fill="none" stroke="#000000" points="262,-219 262,-234 344,-234 344,-219 262,-219"/>
<text text-anchor="start" x="264.5938" y="-224.6" font-family="courier new" font-size="8.00" fill="#000000">start_ip_address</text>
</g>
<!-- [root] azurerm_sql_firewall_rule.fw&#45;&gt;[root] var.start_ip_address -->
<g id="edge_8" class="edge">
<title>[root] azurerm_sql_firewall_rule.fw&#45;&gt;[root] var.start_ip_address</title>
<path fill="none" stroke="#000000" d="M304.4953,-287.8314C304.2814,-280.131 304.0271,-270.9743 303.7894,-262.4166"/>
<polygon fill="#000000" stroke="#000000" points="307.2879,-262.3122 303.5115,-252.4133 300.2906,-262.5066 307.2879,-262.3122"/>
</g>
<!-- [root] azurerm_sql_server.server&#45;&gt;[root] azurerm_resource_group.rg -->
<g id="edge_9" class="edge">
<title>[root] azurerm_sql_server.server&#45;&gt;[root] azurerm_resource_group.rg</title>
<path fill="none" stroke="#000000" d="M423.7189,-143.8314C408.3702,-134.6221 389.5502,-123.3301 373.1177,-113.4706"/>
<polygon fill="#000000" stroke="#000000" points="374.6471,-110.3066 364.2714,-108.1628 371.0456,-116.3091 374.6471,-110.3066"/>
</g>
<!-- [root] var.sql_admin_username -->
<g id="node_11" class="node">
<title>[root] var.sql_admin_username</title>
<polygon fill="none" stroke="#000000" points="408,-90 408,-105 500,-105 500,-90 408,-90"/>
<text text-anchor="start" x="446.7988" y="-95.6" font-family="courier new" font-size="8.00" fill="#000000">var</text>
<polygon fill="none" stroke="#000000" points="408,-75 408,-90 500,-90 500,-75 408,-75"/>
<text text-anchor="start" x="410.793" y="-80.6" font-family="courier new" font-size="8.00" fill="#000000">sql_admin_username</text>
</g>
<!-- [root] azurerm_sql_server.server&#45;&gt;[root] var.sql_admin_username -->
<g id="edge_10" class="edge">
<title>[root] azurerm_sql_server.server&#45;&gt;[root] var.sql_admin_username</title>
<path fill="none" stroke="#000000" d="M454,-143.8314C454,-136.131 454,-126.9743 454,-118.4166"/>
<polygon fill="#000000" stroke="#000000" points="457.5001,-118.4132 454,-108.4133 450.5001,-118.4133 457.5001,-118.4132"/>
</g>
<!-- [root] var.sql_password -->
<g id="node_12" class="node">
<title>[root] var.sql_password</title>
<polygon fill="none" stroke="#000000" points="519,-90 519,-105 582,-105 582,-90 519,-90"/>
<text text-anchor="start" x="543.2988" y="-95.6" font-family="courier new" font-size="8.00" fill="#000000">var</text>
<polygon fill="none" stroke="#000000" points="519,-75 519,-90 582,-90 582,-75 519,-75"/>
<text text-anchor="start" x="521.6953" y="-80.6" font-family="courier new" font-size="8.00" fill="#000000">sql_password</text>
</g>
<!-- [root] azurerm_sql_server.server&#45;&gt;[root] var.sql_password -->
<g id="edge_11" class="edge">
<title>[root] azurerm_sql_server.server&#45;&gt;[root] var.sql_password</title>
<path fill="none" stroke="#000000" d="M478.2249,-143.8314C490.1628,-134.8779 504.7256,-123.9558 517.606,-114.2955"/>
<polygon fill="#000000" stroke="#000000" points="519.8829,-116.9629 525.7829,-108.1628 515.6829,-111.3629 519.8829,-116.9629"/>
</g>
<!-- [root] meta.count&#45;boundary (count boundary fixup) -->
<g id="node_13" class="node">
<title>[root] meta.count&#45;boundary (count boundary fixup)</title>
<polygon fill="none" stroke="#000000" points="355,-378 355,-393 428,-393 428,-378 355,-378"/>
<text text-anchor="start" x="381.8984" y="-383.6" font-family="courier new" font-size="8.00" fill="#000000">meta</text>
<polygon fill="none" stroke="#000000" points="355,-363 355,-378 428,-378 428,-363 355,-363"/>
<text text-anchor="start" x="357.8945" y="-368.6" font-family="courier new" font-size="8.00" fill="#000000">count&#45;boundary</text>
</g>
<!-- [root] meta.count&#45;boundary (count boundary fixup)&#45;&gt;[root] azurerm_sql_firewall_rule.fw -->
<g id="edge_12" class="edge">
<title>[root] meta.count&#45;boundary (count boundary fixup)&#45;&gt;[root] azurerm_sql_firewall_rule.fw</title>
<path fill="none" stroke="#000000" d="M369.2986,-359.8314C358.8079,-351.0485 346.0545,-340.3712 334.6806,-330.8489"/>
<polygon fill="#000000" stroke="#000000" points="336.6089,-327.8986 326.6945,-324.1628 332.1153,-333.2659 336.6089,-327.8986"/>
</g>
<!-- [root] output.connection_string -->
<g id="node_14" class="node">
<title>[root] output.connection_string</title>
<polygon fill="none" stroke="#000000" points="51,-306 51,-321 138,-321 138,-306 51,-306"/>
<text text-anchor="start" x="80.0977" y="-311.6" font-family="courier new" font-size="8.00" fill="#000000">output</text>
<polygon fill="none" stroke="#000000" points="51,-291 51,-306 138,-306 138,-291 51,-291"/>
<text text-anchor="start" x="53.6934" y="-296.6" font-family="courier new" font-size="8.00" fill="#000000">connection_string</text>
</g>
<!-- [root] meta.count&#45;boundary (count boundary fixup)&#45;&gt;[root] output.connection_string -->
<g id="edge_13" class="edge">
<title>[root] meta.count&#45;boundary (count boundary fixup)&#45;&gt;[root] output.connection_string</title>
<path fill="none" stroke="#000000" d="M354.353,-364.0442C349.8884,-362.5708 345.3635,-361.1819 341,-360 259.3317,-337.8789 233.6462,-345.5586 147.2171,-323.8304"/>
<polygon fill="#000000" stroke="#000000" points="148.0786,-320.4382 137.5219,-321.3353 146.3339,-327.2173 148.0786,-320.4382"/>
</g>
<!-- [root] output.database_name -->
<g id="node_15" class="node">
<title>[root] output.database_name</title>
<polygon fill="none" stroke="#000000" points="156,-306 156,-321 224,-321 224,-306 156,-306"/>
<text text-anchor="start" x="175.5977" y="-311.6" font-family="courier new" font-size="8.00" fill="#000000">output</text>
<polygon fill="none" stroke="#000000" points="156,-291 156,-306 224,-306 224,-291 156,-291"/>
<text text-anchor="start" x="158.7949" y="-296.6" font-family="courier new" font-size="8.00" fill="#000000">database_name</text>
</g>
<!-- [root] meta.count&#45;boundary (count boundary fixup)&#45;&gt;[root] output.database_name -->
<g id="edge_14" class="edge">
<title>[root] meta.count&#45;boundary (count boundary fixup)&#45;&gt;[root] output.database_name</title>
<path fill="none" stroke="#000000" d="M354.4438,-364.7264C349.9219,-363.118 345.3586,-361.5107 341,-360 295.995,-344.4007 281.9921,-342.0255 233.6223,-324.1096"/>
<polygon fill="#000000" stroke="#000000" points="234.7678,-320.8013 224.1754,-320.5768 232.3159,-327.3579 234.7678,-320.8013"/>
</g>
<!-- [root] output.sql_server_fqdn -->
<g id="node_16" class="node">
<title>[root] output.sql_server_fqdn</title>
<polygon fill="none" stroke="#000000" points="362,-234 362,-249 440,-249 440,-234 362,-234"/>
<text text-anchor="start" x="386.5977" y="-239.6" font-family="courier new" font-size="8.00" fill="#000000">output</text>
<polygon fill="none" stroke="#000000" points="362,-219 362,-234 440,-234 440,-219 362,-219"/>
<text text-anchor="start" x="364.9941" y="-224.6" font-family="courier new" font-size="8.00" fill="#000000">sql_server_fqdn</text>
</g>
<!-- [root] meta.count&#45;boundary (count boundary fixup)&#45;&gt;[root] output.sql_server_fqdn -->
<g id="edge_15" class="edge">
<title>[root] meta.count&#45;boundary (count boundary fixup)&#45;&gt;[root] output.sql_server_fqdn</title>
<path fill="none" stroke="#000000" d="M392.2665,-359.7623C393.9721,-335.201 397.0245,-291.2474 399.031,-262.3541"/>
<polygon fill="#000000" stroke="#000000" points="402.5425,-262.3081 399.7438,-252.0896 395.5593,-261.8231 402.5425,-262.3081"/>
</g>
<!-- [root] output.sql_server_location -->
<g id="node_17" class="node">
<title>[root] output.sql_server_location</title>
<polygon fill="none" stroke="#000000" points="459,-234 459,-249 556,-249 556,-234 459,-234"/>
<text text-anchor="start" x="493.0977" y="-239.6" font-family="courier new" font-size="8.00" fill="#000000">output</text>
<polygon fill="none" stroke="#000000" points="459,-219 459,-234 556,-234 556,-219 459,-219"/>
<text text-anchor="start" x="461.8926" y="-224.6" font-family="courier new" font-size="8.00" fill="#000000">sql_server_location</text>
</g>
<!-- [root] meta.count&#45;boundary (count boundary fixup)&#45;&gt;[root] output.sql_server_location -->
<g id="edge_16" class="edge">
<title>[root] meta.count&#45;boundary (count boundary fixup)&#45;&gt;[root] output.sql_server_location</title>
<path fill="none" stroke="#000000" d="M405.6915,-359.7623C425.9999,-334.5518 462.7667,-288.9103 485.9789,-260.0952"/>
<polygon fill="#000000" stroke="#000000" points="488.8801,-262.0728 492.4278,-252.0896 483.4288,-257.6815 488.8801,-262.0728"/>
</g>
<!-- [root] output.sql_server_name -->
<g id="node_18" class="node">
<title>[root] output.sql_server_name</title>
<polygon fill="none" stroke="#000000" points="474,-306 474,-321 552,-321 552,-306 474,-306"/>
<text text-anchor="start" x="498.5977" y="-311.6" font-family="courier new" font-size="8.00" fill="#000000">output</text>
<polygon fill="none" stroke="#000000" points="474,-291 474,-306 552,-306 552,-291 474,-291"/>
<text text-anchor="start" x="476.9941" y="-296.6" font-family="courier new" font-size="8.00" fill="#000000">sql_server_name</text>
</g>
<!-- [root] meta.count&#45;boundary (count boundary fixup)&#45;&gt;[root] output.sql_server_name -->
<g id="edge_17" class="edge">
<title>[root] meta.count&#45;boundary (count boundary fixup)&#45;&gt;[root] output.sql_server_name</title>
<path fill="none" stroke="#000000" d="M421.7858,-359.8314C437.3903,-350.6221 456.524,-339.3301 473.2303,-329.4706"/>
<polygon fill="#000000" stroke="#000000" points="475.3909,-332.2596 482.2241,-324.1628 471.8331,-326.2312 475.3909,-332.2596"/>
</g>
<!-- [root] output.sql_server_version -->
<g id="node_19" class="node">
<title>[root] output.sql_server_version</title>
<polygon fill="none" stroke="#000000" points="573,-306 573,-321 665,-321 665,-306 573,-306"/>
<text text-anchor="start" x="604.5977" y="-311.6" font-family="courier new" font-size="8.00" fill="#000000">output</text>
<polygon fill="none" stroke="#000000" points="573,-291 573,-306 665,-306 665,-291 573,-291"/>
<text text-anchor="start" x="575.793" y="-296.6" font-family="courier new" font-size="8.00" fill="#000000">sql_server_version</text>
</g>
<!-- [root] meta.count&#45;boundary (count boundary fixup)&#45;&gt;[root] output.sql_server_version -->
<g id="edge_18" class="edge">
<title>[root] meta.count&#45;boundary (count boundary fixup)&#45;&gt;[root] output.sql_server_version</title>
<path fill="none" stroke="#000000" d="M427.6321,-366.432C464.1851,-354.8889 520.8313,-337.0006 563.0213,-323.6775"/>
<polygon fill="#000000" stroke="#000000" points="564.1192,-327.0012 572.601,-320.6523 562.0112,-320.3262 564.1192,-327.0012"/>
</g>
<!-- [root] output.connection_string&#45;&gt;[root] azurerm_sql_database.db -->
<g id="edge_19" class="edge">
<title>[root] output.connection_string&#45;&gt;[root] azurerm_sql_database.db</title>
<path fill="none" stroke="#000000" d="M86.1774,-287.8314C82.7891,-279.9617 78.7459,-270.5712 74.9924,-261.8533"/>
<polygon fill="#000000" stroke="#000000" points="78.0973,-260.214 70.9279,-252.4133 71.6679,-262.9822 78.0973,-260.214"/>
</g>
<!-- [root] output.database_name&#45;&gt;[root] azurerm_sql_database.db -->
<g id="edge_20" class="edge">
<title>[root] output.database_name&#45;&gt;[root] azurerm_sql_database.db</title>
<path fill="none" stroke="#000000" d="M157.9525,-287.8314C141.558,-278.5368 121.4214,-267.1208 103.9171,-257.1971"/>
<polygon fill="#000000" stroke="#000000" points="105.4626,-254.05 95.0372,-252.1628 102.0103,-260.1395 105.4626,-254.05"/>
</g>
<!-- [root] output.sql_server_fqdn&#45;&gt;[root] azurerm_sql_server.server -->
<g id="edge_21" class="edge">
<title>[root] output.sql_server_fqdn&#45;&gt;[root] azurerm_sql_server.server</title>
<path fill="none" stroke="#000000" d="M414.3741,-215.8314C420.4162,-207.6232 427.6763,-197.7606 434.3221,-188.7323"/>
<polygon fill="#000000" stroke="#000000" points="437.3363,-190.5415 440.4458,-180.4133 431.6989,-186.3918 437.3363,-190.5415"/>
</g>
<!-- [root] output.sql_server_location&#45;&gt;[root] azurerm_sql_server.server -->
<g id="edge_22" class="edge">
<title>[root] output.sql_server_location&#45;&gt;[root] azurerm_sql_server.server</title>
<path fill="none" stroke="#000000" d="M493.6259,-215.8314C487.5838,-207.6232 480.3237,-197.7606 473.6779,-188.7323"/>
<polygon fill="#000000" stroke="#000000" points="476.3011,-186.3918 467.5542,-180.4133 470.6637,-190.5415 476.3011,-186.3918"/>
</g>
<!-- [root] output.sql_server_name&#45;&gt;[root] azurerm_sql_server.server -->
<g id="edge_23" class="edge">
<title>[root] output.sql_server_name&#45;&gt;[root] azurerm_sql_server.server</title>
<path fill="none" stroke="#000000" d="M535.5475,-287.8122C555.4751,-269.4473 579.1959,-240.3881 564,-216 551.8534,-196.5058 530.3873,-183.8499 509.6228,-175.7317"/>
<polygon fill="#000000" stroke="#000000" points="510.762,-172.4219 500.1678,-172.3127 508.3816,-179.0047 510.762,-172.4219"/>
</g>
<!-- [root] output.sql_server_version&#45;&gt;[root] azurerm_sql_server.server -->
<g id="edge_24" class="edge">
<title>[root] output.sql_server_version&#45;&gt;[root] azurerm_sql_server.server</title>
<path fill="none" stroke="#000000" d="M615.5849,-287.8415C610.9583,-267.8581 600.8833,-235.9335 581,-216 561.5815,-196.5324 534.0498,-183.6669 509.5819,-175.3965"/>
<polygon fill="#000000" stroke="#000000" points="510.6171,-172.053 500.0262,-172.3412 508.4852,-178.7205 510.6171,-172.053"/>
</g>
<!-- [root] provider.azurerm (close) -->
<g id="node_20" class="node">
<title>[root] provider.azurerm (close)</title>
<polygon fill="none" stroke="#000000" points="283,-378 283,-393 327,-393 327,-378 283,-378"/>
<text text-anchor="start" x="285.7969" y="-383.6" font-family="courier new" font-size="8.00" fill="#000000">provider</text>
<polygon fill="none" stroke="#000000" points="283,-363 283,-378 327,-378 327,-363 283,-363"/>
<text text-anchor="start" x="288.1973" y="-368.6" font-family="courier new" font-size="8.00" fill="#000000">azurerm</text>
</g>
<!-- [root] provider.azurerm (close)&#45;&gt;[root] azurerm_sql_database.db -->
<g id="edge_25" class="edge">
<title>[root] provider.azurerm (close)&#45;&gt;[root] azurerm_sql_database.db</title>
<path fill="none" stroke="#000000" d="M277.7956,-376.6373C216.5221,-372.9406 70.7283,-360.4246 41,-324 26.5129,-306.2497 34.9585,-280.3889 45.3018,-260.9385"/>
<polygon fill="#000000" stroke="#000000" points="48.3514,-262.6561 50.2753,-252.2374 42.2741,-259.1824 48.3514,-262.6561"/>
</g>
<!-- [root] provider.azurerm (close)&#45;&gt;[root] azurerm_sql_firewall_rule.fw -->
<g id="edge_26" class="edge">
<title>[root] provider.azurerm (close)&#45;&gt;[root] azurerm_sql_firewall_rule.fw</title>
<path fill="none" stroke="#000000" d="M305,-359.8314C305,-352.131 305,-342.9743 305,-334.4166"/>
<polygon fill="#000000" stroke="#000000" points="308.5001,-334.4132 305,-324.4133 301.5001,-334.4133 308.5001,-334.4132"/>
</g>
<!-- [root] root -->
<g id="node_21" class="node">
<title>[root] root</title>
<polygon fill="none" stroke="#000000" points="380.3089,-468 311.6911,-468 311.6911,-432 380.3089,-432 380.3089,-468"/>
<text text-anchor="middle" x="346" y="-448.1313" font-family="courier new" font-size="8.00" fill="#000000">[root] root</text>
</g>
<!-- [root] root&#45;&gt;[root] meta.count&#45;boundary (count boundary fixup) -->
<g id="edge_27" class="edge">
<title>[root] root&#45;&gt;[root] meta.count&#45;boundary (count boundary fixup)</title>
<path fill="none" stroke="#000000" d="M357.3554,-431.8314C362.4326,-423.7079 368.5227,-413.9637 374.1176,-405.0118"/>
<polygon fill="#000000" stroke="#000000" points="377.1597,-406.7483 379.4917,-396.4133 371.2237,-403.0383 377.1597,-406.7483"/>
</g>
<!-- [root] root&#45;&gt;[root] provider.azurerm (close) -->
<g id="edge_28" class="edge">
<title>[root] root&#45;&gt;[root] provider.azurerm (close)</title>
<path fill="none" stroke="#000000" d="M335.654,-431.8314C331.0763,-423.7925 325.5948,-414.1666 320.5412,-405.2918"/>
<polygon fill="#000000" stroke="#000000" points="323.4752,-403.3712 315.4853,-396.4133 317.3923,-406.8351 323.4752,-403.3712"/>
</g>
</g>
</svg>

