<?xml version="1.0" encoding="UTF-8" standalone="no"?>
<!DOCTYPE svg PUBLIC "-//W3C//DTD SVG 1.1//EN"
 "http://www.w3.org/Graphics/SVG/1.1/DTD/svg11.dtd">
<!-- Generated by graphviz version 2.40.1 (20161225.0304)
 -->
<!-- Title: %3 Pages: 1 -->
<svg width="430pt" height="708pt"
 viewBox="0.00 0.00 430.00 708.00" xmlns="http://www.w3.org/2000/svg" xmlns:xlink="http://www.w3.org/1999/xlink">
<g id="graph0" class="graph" transform="scale(1 1) rotate(0) translate(4 704)">
<title>%3</title>
<polygon fill="#ffffff" stroke="transparent" points="-4,4 -4,-704 426,-704 426,4 -4,4"/>
<g id="clust2" class="cluster">
<title>cluster[root] azurerm_resource_group.rg_var_</title>
</g>
<g id="clust3" class="cluster">
<title>cluster[root] azurerm_sql_database.db_var_</title>
</g>
<g id="clust4" class="cluster">
<title>cluster[root] azurerm_sql_firewall_rule.fw_var_</title>
</g>
<g id="clust5" class="cluster">
<title>cluster[root] azurerm_sql_server.server_var_</title>
</g>
<g id="clust6" class="cluster">
<title>cluster[root] meta.count&#45;boundary (count boundary fixup)_output_[root] azurerm_sql_database.db</title>
</g>
<g id="clust7" class="cluster">
<title>cluster[root] meta.count&#45;boundary (count boundary fixup)_output_[root] azurerm_sql_server.server</title>
</g>
<!-- [root] azurerm_resource_group.rg -->
<g id="node_0" class="node">
<title>[root] azurerm_resource_group.rg</title>
<polygon fill="none" stroke="#000000" points="55,-178 55,-193 166,-193 166,-178 55,-178"/>
<text text-anchor="start" x="57.6914" y="-183.6" font-family="courier new" font-size="8.00" fill="#000000">azurerm_resource_group</text>
<polygon fill="none" stroke="#000000" points="55,-163 55,-178 166,-178 166,-163 55,-163"/>
<text text-anchor="start" x="105.6992" y="-168.6" font-family="courier new" font-size="8.00" fill="#000000">rg</text>
</g>
<!-- [root] provider.azurerm -->
<g id="node_4" class="node">
<title>[root] provider.azurerm</title>
<polygon fill="none" stroke="#000000" points="111,-106 111,-121 155,-121 155,-106 111,-106"/>
<text text-anchor="start" x="113.7969" y="-111.6" font-family="courier new" font-size="8.00" fill="#000000">provider</text>
<polygon fill="none" stroke="#000000" points="111,-91 111,-106 155,-106 155,-91 111,-91"/>
<text text-anchor="start" x="116.1973" y="-96.6" font-family="courier new" font-size="8.00" fill="#000000">azurerm</text>
</g>
<!-- [root] azurerm_resource_group.rg&#45;&gt;[root] provider.azurerm -->
<g id="edge_0" class="edge">
<title>[root] azurerm_resource_group.rg&#45;&gt;[root] provider.azurerm</title>
<path fill="none" stroke="#000000" d="M115.8039,-159.8314C118.2908,-152.0463 121.2531,-142.7729 124.0125,-134.1347"/>
<polygon fill="#000000" stroke="#000000" points="127.409,-135.0041 127.118,-124.4133 120.7409,-132.874 127.409,-135.0041"/>
</g>
<!-- [root] var.location -->
<g id="node_5" class="node">
<title>[root] var.location</title>
<polygon fill="none" stroke="#000000" points="35,-106 35,-121 79,-121 79,-106 35,-106"/>
<text text-anchor="start" x="49.7988" y="-111.6" font-family="courier new" font-size="8.00" fill="#000000">var</text>
<polygon fill="none" stroke="#000000" points="35,-91 35,-106 79,-106 79,-91 35,-91"/>
<text text-anchor="start" x="37.7969" y="-96.6" font-family="courier new" font-size="8.00" fill="#000000">location</text>
</g>
<!-- [root] azurerm_resource_group.rg&#45;&gt;[root] var.location -->
<g id="edge_1" class="edge">
<title>[root] azurerm_resource_group.rg&#45;&gt;[root] var.location</title>
<path fill="none" stroke="#000000" d="M96.6259,-159.8314C90.5838,-151.6232 83.3237,-141.7606 76.6779,-132.7323"/>
<polygon fill="#000000" stroke="#000000" points="79.3011,-130.3918 70.5542,-124.4133 73.6637,-134.5415 79.3011,-130.3918"/>
</g>
<!-- [root] azurerm_sql_database.db -->
<g id="node_1" class="node">
<title>[root] azurerm_sql_database.db</title>
<polygon fill="none" stroke="#000000" points="37,-394 37,-409 139,-409 139,-394 37,-394"/>
<text text-anchor="start" x="39.9922" y="-399.6" font-family="courier new" font-size="8.00" fill="#000000">azurerm_sql_database</text>
<polygon fill="none" stroke="#000000" points="37,-379 37,-394 139,-394 139,-379 37,-379"/>
<text text-anchor="start" x="83.1992" y="-384.6" font-family="courier new" font-size="8.00" fill="#000000">db</text>
</g>
<!-- [root] azurerm_sql_server.server -->
<g id="node_3" class="node">
<title>[root] azurerm_sql_server.server</title>
<polygon fill="none" stroke="#000000" points="128,-250 128,-265 220,-265 220,-250 128,-250"/>
<text text-anchor="start" x="130.793" y="-255.6" font-family="courier new" font-size="8.00" fill="#000000">azurerm_sql_server</text>
<polygon fill="none" stroke="#000000" points="128,-235 128,-250 220,-250 220,-235 128,-235"/>
<text text-anchor="start" x="159.5977" y="-240.6" font-family="courier new" font-size="8.00" fill="#000000">server</text>
</g>
<!-- [root] azurerm_sql_database.db&#45;&gt;[root] azurerm_sql_server.server -->
<g id="edge_3" class="edge">
<title>[root] azurerm_sql_database.db&#45;&gt;[root] azurerm_sql_server.server</title>
<path fill="none" stroke="#000000" d="M101.2141,-375.938C107.1636,-367.574 114.1493,-357.4216 120,-348 134.5315,-324.5997 149.5323,-297.0557 160.0243,-277.1375"/>
<polygon fill="#000000" stroke="#000000" points="163.2578,-278.507 164.7909,-268.0237 157.0549,-275.2628 163.2578,-278.507"/>
</g>
<!-- [root] var.db_edition -->
<g id="node_7" class="node">
<title>[root] var.db_edition</title>
<polygon fill="none" stroke="#000000" points="54,-322 54,-337 108,-337 108,-322 54,-322"/>
<text text-anchor="start" x="73.7988" y="-327.6" font-family="courier new" font-size="8.00" fill="#000000">var</text>
<polygon fill="none" stroke="#000000" points="54,-307 54,-322 108,-322 108,-307 54,-307"/>
<text text-anchor="start" x="56.9961" y="-312.6" font-family="courier new" font-size="8.00" fill="#000000">db_edition</text>
</g>
<!-- [root] azurerm_sql_database.db&#45;&gt;[root] var.db_edition -->
<g id="edge_4" class="edge">
<title>[root] azurerm_sql_database.db&#45;&gt;[root] var.db_edition</title>
<path fill="none" stroke="#000000" d="M86.2336,-375.8314C85.485,-368.131 84.5947,-358.9743 83.7627,-350.4166"/>
<polygon fill="#000000" stroke="#000000" points="87.2415,-350.0276 82.7902,-340.4133 80.2744,-350.7051 87.2415,-350.0276"/>
</g>
<!-- [root] azurerm_sql_firewall_rule.fw -->
<g id="node_2" class="node">
<title>[root] azurerm_sql_firewall_rule.fw</title>
<polygon fill="none" stroke="#000000" points="166,-538 166,-553 292,-553 292,-538 166,-538"/>
<text text-anchor="start" x="168.9902" y="-543.6" font-family="courier new" font-size="8.00" fill="#000000">azurerm_sql_firewall_rule</text>
<polygon fill="none" stroke="#000000" points="166,-523 166,-538 292,-538 292,-523 166,-523"/>
<text text-anchor="start" x="224.1992" y="-528.6" font-family="courier new" font-size="8.00" fill="#000000">fw</text>
</g>
<!-- [root] azurerm_sql_firewall_rule.fw&#45;&gt;[root] azurerm_sql_server.server -->
<g id="edge_6" class="edge">
<title>[root] azurerm_sql_firewall_rule.fw&#45;&gt;[root] azurerm_sql_server.server</title>
<path fill="none" stroke="#000000" d="M208.8112,-519.7244C201.5664,-511.9422 194.1642,-502.2874 190,-492 160.6131,-419.4012 165.4842,-324.5388 170.3443,-278.0952"/>
<polygon fill="#000000" stroke="#000000" points="173.8223,-278.4858 171.4636,-268.1569 166.8663,-277.7023 173.8223,-278.4858"/>
</g>
<!-- [root] var.end_ip_address -->
<g id="node_9" class="node">
<title>[root] var.end_ip_address</title>
<polygon fill="none" stroke="#000000" points="205,-466 205,-481 278,-481 278,-466 205,-466"/>
<text text-anchor="start" x="234.2988" y="-471.6" font-family="courier new" font-size="8.00" fill="#000000">var</text>
<polygon fill="none" stroke="#000000" points="205,-451 205,-466 278,-466 278,-451 205,-451"/>
<text text-anchor="start" x="207.8945" y="-456.6" font-family="courier new" font-size="8.00" fill="#000000">end_ip_address</text>
</g>
<!-- [root] azurerm_sql_firewall_rule.fw&#45;&gt;[root] var.end_ip_address -->
<g id="edge_7" class="edge">
<title>[root] azurerm_sql_firewall_rule.fw&#45;&gt;[root] var.end_ip_address</title>
<path fill="none" stroke="#000000" d="M232.0281,-519.8314C233.3115,-512.131 234.8376,-502.9743 236.2639,-494.4166"/>
<polygon fill="#000000" stroke="#000000" points="239.7394,-494.8526 237.9311,-484.4133 232.8347,-493.7018 239.7394,-494.8526"/>
</g>
<!-- [root] azurerm_sql_server.server&#45;&gt;[root] azurerm_resource_group.rg -->
<g id="edge_9" class="edge">
<title>[root] azurerm_sql_server.server&#45;&gt;[root] azurerm_resource_group.rg</title>
<path fill="none" stroke="#000000" d="M157.8501,-231.8314C150.3283,-223.3694 141.2435,-213.1489 133.0196,-203.8971"/>
<polygon fill="#000000" stroke="#000000" points="135.627,-201.5621 126.3673,-196.4133 130.3951,-206.2127 135.627,-201.5621"/>
</g>
<!-- [root] var.sql_admin_username -->
<g id="node_11" class="node">
<title>[root] var.sql_admin_username</title>
<polygon fill="none" stroke="#000000" points="184,-178 184,-193 276,-193 276,-178 184,-178"/>
<text text-anchor="start" x="222.7988" y="-183.6" font-family="courier new" font-size="8.00" fill="#000000">var</text>
<polygon fill="none" stroke="#000000" points="184,-163 184,-178 276,-178 276,-163 184,-163"/>
<text text-anchor="start" x="186.793" y="-168.6" font-family="courier new" font-size="8.00" fill="#000000">sql_admin_username</text>
</g>
<!-- [root] azurerm_sql_server.server&#45;&gt;[root] var.sql_admin_username -->
<g id="edge_10" class="edge">
<title>[root] azurerm_sql_server.server&#45;&gt;[root] var.sql_admin_username</title>
<path fill="none" stroke="#000000" d="M188.1312,-231.8314C194.5811,-223.5386 202.3445,-213.557 209.4252,-204.4533"/>
<polygon fill="#000000" stroke="#000000" points="212.3019,-206.4556 215.6786,-196.4133 206.7764,-202.158 212.3019,-206.4556"/>
</g>
<!-- [root] meta.count&#45;boundary (count boundary fixup) -->
<g id="node_13" class="node">
<title>[root] meta.count&#45;boundary (count boundary fixup)</title>
<polygon fill="none" stroke="#000000" points="193,-610 193,-625 266,-625 266,-610 193,-610"/>
<text text-anchor="start" x="219.8984" y="-615.6" font-family="courier new" font-size="8.00" fill="#000000">meta</text>
<polygon fill="none" stroke="#000000" points="193,-595 193,-610 266,-610 266,-595 193,-595"/>
<text text-anchor="start" x="195.8945" y="-600.6" font-family="courier new" font-size="8.00" fill="#000000">count&#45;boundary</text>
</g>
<!-- [root] meta.count&#45;boundary (count boundary fixup)&#45;&gt;[root] azurerm_sql_firewall_rule.fw -->
<g id="edge_12" class="edge">
<title>[root] meta.count&#45;boundary (count boundary fixup)&#45;&gt;[root] azurerm_sql_firewall_rule.fw</title>
<path fill="none" stroke="#000000" d="M229,-591.8314C229,-584.131 229,-574.9743 229,-566.4166"/>
<polygon fill="#000000" stroke="#000000" points="232.5001,-566.4132 229,-556.4133 225.5001,-566.4133 232.5001,-566.4132"/>
</g>
<!-- [root] output.connection_string -->
<g id="node_14" class="node">
<title>[root] output.connection_string</title>
<polygon fill="none" stroke="#000000" points="61,-538 61,-553 148,-553 148,-538 61,-538"/>
<text text-anchor="start" x="90.0977" y="-543.6" font-family="courier new" font-size="8.00" fill="#000000">output</text>
<polygon fill="none" stroke="#000000" points="61,-523 61,-538 148,-538 148,-523 61,-523"/>
<text text-anchor="start" x="63.6934" y="-528.6" font-family="courier new" font-size="8.00" fill="#000000">connection_string</text>
</g>
<!-- [root] meta.count&#45;boundary (count boundary fixup)&#45;&gt;[root] output.connection_string -->
<g id="edge_13" class="edge">
<title>[root] meta.count&#45;boundary (count boundary fixup)&#45;&gt;[root] output.connection_string</title>
<path fill="none" stroke="#000000" d="M197.4572,-591.8314C181.3209,-582.5368 161.5014,-571.1208 144.2728,-561.1971"/>
<polygon fill="#000000" stroke="#000000" points="145.945,-558.1212 135.5327,-556.1628 142.4511,-564.187 145.945,-558.1212"/>
</g>
<!-- [root] output.sql_server_fqdn -->
<g id="node_16" class="node">
<title>[root] output.sql_server_fqdn</title>
<polygon fill="none" stroke="#000000" points="314,-538 314,-553 392,-553 392,-538 314,-538"/>
<text text-anchor="start" x="338.5977" y="-543.6" font-family="courier new" font-size="8.00" fill="#000000">output</text>
<polygon fill="none" stroke="#000000" points="314,-523 314,-538 392,-538 392,-523 314,-523"/>
<text text-anchor="start" x="316.9941" y="-528.6" font-family="courier new" font-size="8.00" fill="#000000">sql_server_fqdn</text>
</g>
<!-- [root] meta.count&#45;boundary (count boundary fixup)&#45;&gt;[root] output.sql_server_fqdn -->
<g id="edge_15" class="edge">
<title>[root] meta.count&#45;boundary (count boundary fixup)&#45;&gt;[root] output.sql_server_fqdn</title>
<path fill="none" stroke="#000000" d="M260.2904,-591.8314C276.2977,-582.5368 295.9586,-571.1208 313.0494,-561.1971"/>
<polygon fill="#000000" stroke="#000000" points="314.8292,-564.211 321.7196,-556.1628 311.3142,-558.1575 314.8292,-564.211"/>
</g>
<!-- [root] provider.azurerm (close) -->
<g id="node_20" class="node">
<title>[root] provider.azurerm (close)</title>
<polygon fill="none" stroke="#000000" points="125,-610 125,-625 169,-625 169,-610 125,-610"/>
<text text-anchor="start" x="127.7969" y="-615.6" font-family="courier new" font-size="8.00" fill="#000000">provider</text>
<polygon fill="none" stroke="#000000" points="125,-595 125,-610 169,-610 169,-595 125,-595"/>
<text text-anchor="start" x="130.1973" y="-600.6" font-family="courier new" font-size="8.00" fill="#000000">azurerm</text>
</g>
<!-- [root] provider.azurerm (close)&#45;&gt;[root] azurerm_sql_database.db -->
<g id="edge_25" class="edge">
<title>[root] provider.azurerm (close)&#45;&gt;[root] azurerm_sql_database.db</title>
<path fill="none" stroke="#000000" d="M119.8512,-605.6297C96.3358,-600.2534 63.6987,-588.6049 48,-564 18.3571,-517.54 28.6956,-491.6195 48,-440 50.7015,-432.7762 55.1064,-425.9374 60.026,-419.85"/>
<polygon fill="#000000" stroke="#000000" points="62.927,-421.8537 66.9418,-412.049 57.689,-417.21 62.927,-421.8537"/>
</g>
<!-- [root] provider.azurerm (close)&#45;&gt;[root] azurerm_sql_firewall_rule.fw -->
<g id="edge_26" class="edge">
<title>[root] provider.azurerm (close)&#45;&gt;[root] azurerm_sql_firewall_rule.fw</title>
<path fill="none" stroke="#000000" d="M167.6921,-591.8314C177.6948,-583.0485 189.855,-572.3712 200.6999,-562.8489"/>
<polygon fill="#000000" stroke="#000000" points="203.1094,-565.3909 208.3146,-556.1628 198.4908,-560.1308 203.1094,-565.3909"/>
</g>
<!-- [root] root -->
<g id="node_21" class="node">
<title>[root] root</title>
<polygon fill="none" stroke="#000000" points="222.3089,-700 153.6911,-700 153.6911,-664 222.3089,-664 222.3089,-700"/>
<text text-anchor="middle" x="188" y="-680.1313" font-family="courier new" font-size="8.00" fill="#000000">[root] root</text>
</g>
<!-- [root] root&#45;&gt;[root] meta.count&#45;boundary (count boundary fixup) -->
<g id="edge_27" class="edge">
<title>[root] root&#45;&gt;[root] meta.count&#45;boundary (count boundary fixup)</title>
<path fill="none" stroke="#000000" d="M198.346,-663.8314C202.9237,-655.7925 208.4052,-646.1666 213.4588,-637.2918"/>
<polygon fill="#000000" stroke="#000000" points="216.6077,-638.8351 218.5147,-628.4133 210.5248,-635.3712 216.6077,-638.8351"/>
</g>
<!-- [root] root&#45;&gt;[root] provider.azurerm (close) -->
<g id="edge_28" class="edge">
<title>[root] root&#45;&gt;[root] provider.azurerm (close)</title>
<path fill="none" stroke="#000000" d="M177.654,-663.8314C173.0763,-655.7925 167.5948,-646.1666 162.5412,-637.2918"/>
<polygon fill="#000000" stroke="#000000" points="165.4752,-635.3712 157.4853,-628.4133 159.3923,-638.8351 165.4752,-635.3712"/>
</g>
<!-- [root] var.resource_group -->
<g id="node_6" class="node">
<title>[root] var.resource_group</title>
<polygon fill="none" stroke="#000000" points="17,-34 17,-49 90,-49 90,-34 17,-34"/>
<text text-anchor="start" x="46.2988" y="-39.6" font-family="courier new" font-size="8.00" fill="#000000">var</text>
<polygon fill="none" stroke="#000000" points="17,-19 17,-34 90,-34 90,-19 17,-19"/>
<text text-anchor="start" x="19.8945" y="-24.6" font-family="courier new" font-size="8.00" fill="#000000">resource_group</text>
</g>
<!-- [root] var.location&#45;&gt;[root] var.resource_group -->
<g id="edge_30" class="edge">
<title>[root] var.location&#45;&gt;[root] var.resource_group</title>
<path fill="none" stroke="#000000" stroke-dasharray="5,2" d="M55.9906,-87.8314C55.3889,-77 54.6271,-63.2876 54.023,-52.4133"/>
</g>
<!-- [root] var.db_name -->
<g id="node_8" class="node">
<title>[root] var.db_name</title>
<polygon fill="none" stroke="#000000" points="62,-250 62,-265 101,-265 101,-250 62,-250"/>
<text text-anchor="start" x="74.2988" y="-255.6" font-family="courier new" font-size="8.00" fill="#000000">var</text>
<polygon fill="none" stroke="#000000" points="62,-235 62,-250 101,-250 101,-235 62,-235"/>
<text text-anchor="start" x="64.6973" y="-240.6" font-family="courier new" font-size="8.00" fill="#000000">db_name</text>
</g>
<!-- [root] var.db_edition&#45;&gt;[root] var.db_name -->
<g id="edge_32" class="edge">
<title>[root] var.db_edition&#45;&gt;[root] var.db_name</title>
<path fill="none" stroke="#000000" stroke-dasharray="5,2" d="M81,-303.8314C81,-293 81,-279.2876 81,-268.4133"/>
</g>
<!-- [root] var.start_ip_address -->
<g id="node_10" class="node">
<title>[root] var.start_ip_address</title>
<polygon fill="none" stroke="#000000" points="202,-394 202,-409 284,-409 284,-394 202,-394"/>
<text text-anchor="start" x="235.7988" y="-399.6" font-family="courier new" font-size="8.00" fill="#000000">var</text>
<polygon fill="none" stroke="#000000" points="202,-379 202,-394 284,-394 284,-379 202,-379"/>
<text text-anchor="start" x="204.5938" y="-384.6" font-family="courier new" font-size="8.00" fill="#000000">start_ip_address</text>
</g>
<!-- [root] var.end_ip_address&#45;&gt;[root] var.start_ip_address -->
<g id="edge_34" class="edge">
<title>[root] var.end_ip_address&#45;&gt;[root] var.start_ip_address</title>
<path fill="none" stroke="#000000" stroke-dasharray="5,2" d="M241.5047,-447.8314C241.8056,-437 242.1865,-423.2876 242.4885,-412.4133"/>
</g>
<!-- [root] var.sql_password -->
<g id="node_12" class="node">
<title>[root] var.sql_password</title>
<polygon fill="none" stroke="#000000" points="199,-106 199,-121 262,-121 262,-106 199,-106"/>
<text text-anchor="start" x="223.2988" y="-111.6" font-family="courier new" font-size="8.00" fill="#000000">var</text>
<polygon fill="none" stroke="#000000" points="199,-91 199,-106 262,-106 262,-91 199,-91"/>
<text text-anchor="start" x="201.6953" y="-96.6" font-family="courier new" font-size="8.00" fill="#000000">sql_password</text>
</g>
<!-- [root] var.sql_admin_username&#45;&gt;[root] var.sql_password -->
<g id="edge_36" class="edge">
<title>[root] var.sql_admin_username&#45;&gt;[root] var.sql_password</title>
<path fill="none" stroke="#000000" stroke-dasharray="5,2" d="M230,-159.8314C230,-149 230,-135.2876 230,-124.4133"/>
</g>
<!-- [root] output.database_name -->
<g id="node_15" class="node">
<title>[root] output.database_name</title>
<polygon fill="none" stroke="#000000" points="60,-466 60,-481 128,-481 128,-466 60,-466"/>
<text text-anchor="start" x="79.5977" y="-471.6" font-family="courier new" font-size="8.00" fill="#000000">output</text>
<polygon fill="none" stroke="#000000" points="60,-451 60,-466 128,-466 128,-451 60,-451"/>
<text text-anchor="start" x="62.7949" y="-456.6" font-family="courier new" font-size="8.00" fill="#000000">database_name</text>
</g>
<!-- [root] output.connection_string&#45;&gt;[root] output.database_name -->
<g id="edge_38" class="edge">
<title>[root] output.connection_string&#45;&gt;[root] output.database_name</title>
<path fill="none" stroke="#000000" stroke-dasharray="5,2" d="M101.4766,-519.8314C99.9722,-509 98.0677,-495.2876 96.5574,-484.4133"/>
</g>
<!-- [root] output.database_name&#45;&gt;[root] azurerm_sql_database.db -->
<g id="edge_20" class="edge">
<title>[root] output.database_name&#45;&gt;[root] azurerm_sql_database.db</title>
<path fill="none" stroke="#000000" d="M92.4859,-447.8314C91.8442,-440.131 91.0812,-430.9743 90.3681,-422.4166"/>
<polygon fill="#000000" stroke="#000000" points="93.8529,-422.088 89.5344,-412.4133 86.8771,-422.6694 93.8529,-422.088"/>
</g>
<!-- [root] output.sql_server_location -->
<g id="node_17" class="node">
<title>[root] output.sql_server_location</title>
<polygon fill="none" stroke="#000000" points="309,-466 309,-481 406,-481 406,-466 309,-466"/>
<text text-anchor="start" x="343.0977" y="-471.6" font-family="courier new" font-size="8.00" fill="#000000">output</text>
<polygon fill="none" stroke="#000000" points="309,-451 309,-466 406,-466 406,-451 309,-451"/>
<text text-anchor="start" x="311.8926" y="-456.6" font-family="courier new" font-size="8.00" fill="#000000">sql_server_location</text>
</g>
<!-- [root] output.sql_server_fqdn&#45;&gt;[root] output.sql_server_location -->
<g id="edge_48" class="edge">
<title>[root] output.sql_server_fqdn&#45;&gt;[root] output.sql_server_location</title>
<path fill="none" stroke="#000000" stroke-dasharray="5,2" d="M354.0094,-519.8314C354.6111,-509 355.3729,-495.2876 355.977,-484.4133"/>
</g>
<!-- [root] output.sql_server_name -->
<g id="node_18" class="node">
<title>[root] output.sql_server_name</title>
<polygon fill="none" stroke="#000000" points="317,-394 317,-409 395,-409 395,-394 317,-394"/>
<text text-anchor="start" x="341.5977" y="-399.6" font-family="courier new" font-size="8.00" fill="#000000">output</text>
<polygon fill="none" stroke="#000000" points="317,-379 317,-394 395,-394 395,-379 317,-379"/>
<text text-anchor="start" x="319.9941" y="-384.6" font-family="courier new" font-size="8.00" fill="#000000">sql_server_name</text>
</g>
<!-- [root] output.sql_server_location&#45;&gt;[root] output.sql_server_name -->
<g id="edge_49" class="edge">
<title>[root] output.sql_server_location&#45;&gt;[root] output.sql_server_name</title>
<path fill="none" stroke="#000000" stroke-dasharray="5,2" d="M356.7477,-447.8314C356.5972,-437 356.4068,-423.2876 356.2557,-412.4133"/>
</g>
<!-- [root] output.sql_server_version -->
<g id="node_19" class="node">
<title>[root] output.sql_server_version</title>
<polygon fill="none" stroke="#000000" points="309,-322 309,-337 401,-337 401,-322 309,-322"/>
<text text-anchor="start" x="340.5977" y="-327.6" font-family="courier new" font-size="8.00" fill="#000000">output</text>
<polygon fill="none" stroke="#000000" points="309,-307 309,-322 401,-322 401,-307 309,-307"/>
<text text-anchor="start" x="311.793" y="-312.6" font-family="courier new" font-size="8.00" fill="#000000">sql_server_version</text>
</g>
<!-- [root] output.sql_server_name&#45;&gt;[root] output.sql_server_version -->
<g id="edge_50" class="edge">
<title>[root] output.sql_server_name&#45;&gt;[root] output.sql_server_version</title>
<path fill="none" stroke="#000000" stroke-dasharray="5,2" d="M355.7477,-375.8314C355.5972,-365 355.4068,-351.2876 355.2557,-340.4133"/>
</g>
<!-- [root] output.sql_server_version&#45;&gt;[root] azurerm_sql_server.server -->
<g id="edge_24" class="edge">
<title>[root] output.sql_server_version&#45;&gt;[root] azurerm_sql_server.server</title>
<path fill="none" stroke="#000000" d="M309.3261,-303.8314C284.9032,-294.1162 254.6534,-282.0831 228.9516,-271.8592"/>
<polygon fill="#000000" stroke="#000000" points="229.931,-268.4821 219.3455,-268.038 227.3437,-274.9864 229.931,-268.4821"/>
</g>
</g>
</svg>

