<?xml version="1.0" encoding="UTF-8" standalone="no"?>
<!DOCTYPE svg PUBLIC "-//W3C//DTD SVG 1.1//EN"
 "http://www.w3.org/Graphics/SVG/1.1/DTD/svg11.dtd">
<!-- Generated by graphviz version 2.40.1 (20161225.0304)
 -->
<!-- Title: %3 Pages: 1 -->
<svg width="707pt" height="708pt"
 viewBox="0.00 0.00 707.44 708.00" xmlns="http://www.w3.org/2000/svg" xmlns:xlink="http://www.w3.org/1999/xlink">
<g id="graph0" class="graph" transform="scale(1 1) rotate(0) translate(4 704)">
<title>%3</title>
<polygon fill="#ffffff" stroke="transparent" points="-4,4 -4,-704 703.4387,-704 703.4387,4 -4,4"/>
<g id="clust2" class="cluster">
<title>cluster[root] kubernetes_replication_controller.mysql_var_</title>
</g>
<g id="clust3" class="cluster">
<title>cluster[root] kubernetes_replication_controller.wordpress_var_</title>
</g>
<g id="clust4" class="cluster">
<title>cluster[root] kubernetes_secret.mysql_var_</title>
</g>
<g id="clust5" class="cluster">
<title>cluster[root] provider.google_var_</title>
</g>
<g id="clust6" class="cluster">
<title>cluster[root] meta.count&#45;boundary (count boundary fixup)_output_[root] kubernetes_service.wordpress</title>
</g>
<!-- [root] google_compute_disk.mysql -->
<g id="node_0" class="node">
<title>[root] google_compute_disk.mysql</title>
<polygon fill="none" stroke="#000000" points="383,-178 383,-193 480,-193 480,-178 383,-178"/>
<text text-anchor="start" x="385.8926" y="-183.6" font-family="courier new" font-size="8.00" fill="#000000">google_compute_disk</text>
<polygon fill="none" stroke="#000000" points="383,-163 383,-178 480,-178 480,-163 383,-163"/>
<text text-anchor="start" x="419.498" y="-168.6" font-family="courier new" font-size="8.00" fill="#000000">mysql</text>
</g>
<!-- [root] provider.google -->
<g id="node_11" class="node">
<title>[root] provider.google</title>
<polygon fill="none" stroke="#000000" points="430,-106 430,-121 474,-121 474,-106 430,-106"/>
<text text-anchor="start" x="432.7969" y="-111.6" font-family="courier new" font-size="8.00" fill="#000000">provider</text>
<polygon fill="none" stroke="#000000" points="430,-91 430,-106 474,-106 474,-91 430,-91"/>
<text text-anchor="start" x="437.5977" y="-96.6" font-family="courier new" font-size="8.00" fill="#000000">google</text>
</g>
<!-- [root] google_compute_disk.mysql&#45;&gt;[root] provider.google -->
<g id="edge_0" class="edge">
<title>[root] google_compute_disk.mysql&#45;&gt;[root] provider.google</title>
<path fill="none" stroke="#000000" d="M436.2992,-159.8314C438.5698,-152.0463 441.2746,-142.7729 443.794,-134.1347"/>
<polygon fill="#000000" stroke="#000000" points="447.1894,-134.9933 446.6295,-124.4133 440.4694,-133.0332 447.1894,-134.9933"/>
</g>
<!-- [root] var.gcp_zone -->
<g id="node_13" class="node">
<title>[root] var.gcp_zone</title>
<polygon fill="none" stroke="#000000" points="513,-106 513,-121 557,-121 557,-106 513,-106"/>
<text text-anchor="start" x="527.7988" y="-111.6" font-family="courier new" font-size="8.00" fill="#000000">var</text>
<polygon fill="none" stroke="#000000" points="513,-91 513,-106 557,-106 557,-91 513,-91"/>
<text text-anchor="start" x="515.7969" y="-96.6" font-family="courier new" font-size="8.00" fill="#000000">gcp_zone</text>
</g>
<!-- [root] google_compute_disk.mysql&#45;&gt;[root] var.gcp_zone -->
<g id="edge_1" class="edge">
<title>[root] google_compute_disk.mysql&#45;&gt;[root] var.gcp_zone</title>
<path fill="none" stroke="#000000" d="M457.2436,-159.8314C470.2995,-150.7927 486.2535,-139.7476 500.3047,-130.0198"/>
<polygon fill="#000000" stroke="#000000" points="502.5351,-132.7326 508.7648,-124.1628 498.5506,-126.9773 502.5351,-132.7326"/>
</g>
<!-- [root] google_compute_disk.wordpress -->
<g id="node_1" class="node">
<title>[root] google_compute_disk.wordpress</title>
<polygon fill="none" stroke="#000000" points="498,-178 498,-193 595,-193 595,-178 498,-178"/>
<text text-anchor="start" x="500.8926" y="-183.6" font-family="courier new" font-size="8.00" fill="#000000">google_compute_disk</text>
<polygon fill="none" stroke="#000000" points="498,-163 498,-178 595,-178 595,-163 498,-163"/>
<text text-anchor="start" x="524.8965" y="-168.6" font-family="courier new" font-size="8.00" fill="#000000">wordpress</text>
</g>
<!-- [root] google_compute_disk.wordpress&#45;&gt;[root] provider.google -->
<g id="edge_2" class="edge">
<title>[root] google_compute_disk.wordpress&#45;&gt;[root] provider.google</title>
<path fill="none" stroke="#000000" d="M522.2798,-159.8314C510.5906,-150.8779 496.3312,-139.9558 483.7191,-130.2955"/>
<polygon fill="#000000" stroke="#000000" points="485.7797,-127.4651 475.7126,-124.1628 481.5231,-133.0222 485.7797,-127.4651"/>
</g>
<!-- [root] google_compute_disk.wordpress&#45;&gt;[root] var.gcp_zone -->
<g id="edge_3" class="edge">
<title>[root] google_compute_disk.wordpress&#45;&gt;[root] var.gcp_zone</title>
<path fill="none" stroke="#000000" d="M543.2242,-159.8314C542.0478,-152.131 540.6489,-142.9743 539.3414,-134.4166"/>
<polygon fill="#000000" stroke="#000000" points="542.7833,-133.7699 537.8131,-124.4133 535.8636,-134.8272 542.7833,-133.7699"/>
</g>
<!-- [root] kubernetes_persistent_volume.mysql -->
<g id="node_2" class="node">
<title>[root] kubernetes_persistent_volume.mysql</title>
<polygon fill="none" stroke="#000000" points="121,-250 121,-265 261,-265 261,-250 121,-250"/>
<text text-anchor="start" x="123.7891" y="-255.6" font-family="courier new" font-size="8.00" fill="#000000">kubernetes_persistent_volume</text>
<polygon fill="none" stroke="#000000" points="121,-235 121,-250 261,-250 261,-235 121,-235"/>
<text text-anchor="start" x="178.998" y="-240.6" font-family="courier new" font-size="8.00" fill="#000000">mysql</text>
</g>
<!-- [root] kubernetes_persistent_volume.mysql&#45;&gt;[root] google_compute_disk.mysql -->
<g id="edge_4" class="edge">
<title>[root] kubernetes_persistent_volume.mysql&#45;&gt;[root] google_compute_disk.mysql</title>
<path fill="none" stroke="#000000" d="M251.2523,-231.9243C288.4714,-220.7586 335.9857,-206.5043 372.8144,-195.4557"/>
<polygon fill="#000000" stroke="#000000" points="373.8441,-198.801 382.4166,-192.575 371.8326,-192.0962 373.8441,-198.801"/>
</g>
<!-- [root] provider.kubernetes -->
<g id="node_12" class="node">
<title>[root] provider.kubernetes</title>
<polygon fill="none" stroke="#000000" points="262,-178 262,-193 316,-193 316,-178 262,-178"/>
<text text-anchor="start" x="269.7969" y="-183.6" font-family="courier new" font-size="8.00" fill="#000000">provider</text>
<polygon fill="none" stroke="#000000" points="262,-163 262,-178 316,-178 316,-163 262,-163"/>
<text text-anchor="start" x="264.9961" y="-168.6" font-family="courier new" font-size="8.00" fill="#000000">kubernetes</text>
</g>
<!-- [root] kubernetes_persistent_volume.mysql&#45;&gt;[root] provider.kubernetes -->
<g id="edge_5" class="edge">
<title>[root] kubernetes_persistent_volume.mysql&#45;&gt;[root] provider.kubernetes</title>
<path fill="none" stroke="#000000" d="M215.7295,-231.8314C227.9162,-222.8779 242.7823,-211.9558 255.9312,-202.2955"/>
<polygon fill="#000000" stroke="#000000" points="258.2918,-204.9042 264.2784,-196.1628 254.1473,-199.263 258.2918,-204.9042"/>
</g>
<!-- [root] kubernetes_persistent_volume.wordpress -->
<g id="node_3" class="node">
<title>[root] kubernetes_persistent_volume.wordpress</title>
<polygon fill="none" stroke="#000000" points="409,-250 409,-265 549,-265 549,-250 409,-250"/>
<text text-anchor="start" x="411.7891" y="-255.6" font-family="courier new" font-size="8.00" fill="#000000">kubernetes_persistent_volume</text>
<polygon fill="none" stroke="#000000" points="409,-235 409,-250 549,-250 549,-235 409,-235"/>
<text text-anchor="start" x="457.3965" y="-240.6" font-family="courier new" font-size="8.00" fill="#000000">wordpress</text>
</g>
<!-- [root] kubernetes_persistent_volume.wordpress&#45;&gt;[root] google_compute_disk.wordpress -->
<g id="edge_6" class="edge">
<title>[root] kubernetes_persistent_volume.wordpress&#45;&gt;[root] google_compute_disk.wordpress</title>
<path fill="none" stroke="#000000" d="M495.9069,-231.8314C503.7813,-223.3694 513.292,-213.1489 521.9013,-203.8971"/>
<polygon fill="#000000" stroke="#000000" points="524.6153,-206.1183 528.8654,-196.4133 519.4908,-201.3497 524.6153,-206.1183"/>
</g>
<!-- [root] kubernetes_persistent_volume.wordpress&#45;&gt;[root] provider.kubernetes -->
<g id="edge_7" class="edge">
<title>[root] kubernetes_persistent_volume.wordpress&#45;&gt;[root] provider.kubernetes</title>
<path fill="none" stroke="#000000" d="M431.055,-231.8314C398.3627,-219.4427 355.724,-203.2849 325.7221,-191.9158"/>
<polygon fill="#000000" stroke="#000000" points="326.6561,-188.5268 316.0647,-188.2561 324.1755,-195.0726 326.6561,-188.5268"/>
</g>
<!-- [root] kubernetes_persistent_volume_claim.mysql -->
<g id="node_4" class="node">
<title>[root] kubernetes_persistent_volume_claim.mysql</title>
<polygon fill="none" stroke="#000000" points="103,-322 103,-337 272,-337 272,-322 103,-322"/>
<text text-anchor="start" x="105.8867" y="-327.6" font-family="courier new" font-size="8.00" fill="#000000">kubernetes_persistent_volume_claim</text>
<polygon fill="none" stroke="#000000" points="103,-307 103,-322 272,-322 272,-307 103,-307"/>
<text text-anchor="start" x="175.498" y="-312.6" font-family="courier new" font-size="8.00" fill="#000000">mysql</text>
</g>
<!-- [root] kubernetes_persistent_volume_claim.mysql&#45;&gt;[root] kubernetes_persistent_volume.mysql -->
<g id="edge_8" class="edge">
<title>[root] kubernetes_persistent_volume_claim.mysql&#45;&gt;[root] kubernetes_persistent_volume.mysql</title>
<path fill="none" stroke="#000000" d="M188.0094,-303.8314C188.4372,-296.131 188.9459,-286.9743 189.4213,-278.4166"/>
<polygon fill="#000000" stroke="#000000" points="192.9169,-278.592 189.977,-268.4133 185.9276,-278.2037 192.9169,-278.592"/>
</g>
<!-- [root] kubernetes_persistent_volume_claim.wordpress -->
<g id="node_5" class="node">
<title>[root] kubernetes_persistent_volume_claim.wordpress</title>
<polygon fill="none" stroke="#000000" points="395,-322 395,-337 564,-337 564,-322 395,-322"/>
<text text-anchor="start" x="397.8867" y="-327.6" font-family="courier new" font-size="8.00" fill="#000000">kubernetes_persistent_volume_claim</text>
<polygon fill="none" stroke="#000000" points="395,-307 395,-322 564,-322 564,-307 395,-307"/>
<text text-anchor="start" x="457.8965" y="-312.6" font-family="courier new" font-size="8.00" fill="#000000">wordpress</text>
</g>
<!-- [root] kubernetes_persistent_volume_claim.wordpress&#45;&gt;[root] kubernetes_persistent_volume.wordpress -->
<g id="edge_9" class="edge">
<title>[root] kubernetes_persistent_volume_claim.wordpress&#45;&gt;[root] kubernetes_persistent_volume.wordpress</title>
<path fill="none" stroke="#000000" d="M479,-303.8314C479,-296.131 479,-286.9743 479,-278.4166"/>
<polygon fill="#000000" stroke="#000000" points="482.5001,-278.4132 479,-268.4133 475.5001,-278.4133 482.5001,-278.4132"/>
</g>
<!-- [root] kubernetes_replication_controller.mysql -->
<g id="node_6" class="node">
<title>[root] kubernetes_replication_controller.mysql</title>
<polygon fill="none" stroke="#000000" points="160,-394 160,-409 324,-409 324,-394 160,-394"/>
<text text-anchor="start" x="162.7871" y="-399.6" font-family="courier new" font-size="8.00" fill="#000000">kubernetes_replication_controller</text>
<polygon fill="none" stroke="#000000" points="160,-379 160,-394 324,-394 324,-379 160,-379"/>
<text text-anchor="start" x="229.998" y="-384.6" font-family="courier new" font-size="8.00" fill="#000000">mysql</text>
</g>
<!-- [root] kubernetes_replication_controller.mysql&#45;&gt;[root] kubernetes_persistent_volume_claim.mysql -->
<g id="edge_10" class="edge">
<title>[root] kubernetes_replication_controller.mysql&#45;&gt;[root] kubernetes_persistent_volume_claim.mysql</title>
<path fill="none" stroke="#000000" d="M228.1212,-375.8314C221.7864,-367.5386 214.1616,-357.557 207.2074,-348.4533"/>
<polygon fill="#000000" stroke="#000000" points="209.9175,-346.2353 201.0657,-340.4133 204.3548,-350.4847 209.9175,-346.2353"/>
</g>
<!-- [root] kubernetes_secret.mysql -->
<g id="node_8" class="node">
<title>[root] kubernetes_secret.mysql</title>
<polygon fill="none" stroke="#000000" points="290,-322 290,-337 377,-337 377,-322 290,-322"/>
<text text-anchor="start" x="292.6934" y="-327.6" font-family="courier new" font-size="8.00" fill="#000000">kubernetes_secret</text>
<polygon fill="none" stroke="#000000" points="290,-307 290,-322 377,-322 377,-307 290,-307"/>
<text text-anchor="start" x="321.498" y="-312.6" font-family="courier new" font-size="8.00" fill="#000000">mysql</text>
</g>
<!-- [root] kubernetes_replication_controller.mysql&#45;&gt;[root] kubernetes_secret.mysql -->
<g id="edge_11" class="edge">
<title>[root] kubernetes_replication_controller.mysql&#45;&gt;[root] kubernetes_secret.mysql</title>
<path fill="none" stroke="#000000" d="M264.9631,-375.8314C276.1715,-366.9632 289.8209,-356.1637 301.9439,-346.5718"/>
<polygon fill="#000000" stroke="#000000" points="304.3737,-349.1125 310.0442,-340.1628 300.0303,-343.6229 304.3737,-349.1125"/>
</g>
<!-- [root] var.mysql_version -->
<g id="node_14" class="node">
<title>[root] var.mysql_version</title>
<polygon fill="none" stroke="#000000" points="16,-322 16,-337 84,-337 84,-322 16,-322"/>
<text text-anchor="start" x="42.7988" y="-327.6" font-family="courier new" font-size="8.00" fill="#000000">var</text>
<polygon fill="none" stroke="#000000" points="16,-307 16,-322 84,-322 84,-307 16,-307"/>
<text text-anchor="start" x="18.7949" y="-312.6" font-family="courier new" font-size="8.00" fill="#000000">mysql_version</text>
</g>
<!-- [root] kubernetes_replication_controller.mysql&#45;&gt;[root] var.mysql_version -->
<g id="edge_12" class="edge">
<title>[root] kubernetes_replication_controller.mysql&#45;&gt;[root] var.mysql_version</title>
<path fill="none" stroke="#000000" d="M172.2532,-375.95C147.1183,-368.5045 118.8414,-359.0199 94,-348 91.8912,-347.0645 89.757,-346.0509 87.6241,-344.9846"/>
<polygon fill="#000000" stroke="#000000" points="88.8368,-341.665 78.3655,-340.0517 85.5453,-347.8429 88.8368,-341.665"/>
</g>
<!-- [root] kubernetes_replication_controller.wordpress -->
<g id="node_7" class="node">
<title>[root] kubernetes_replication_controller.wordpress</title>
<polygon fill="none" stroke="#000000" points="397,-394 397,-409 561,-409 561,-394 397,-394"/>
<text text-anchor="start" x="399.7871" y="-399.6" font-family="courier new" font-size="8.00" fill="#000000">kubernetes_replication_controller</text>
<polygon fill="none" stroke="#000000" points="397,-379 397,-394 561,-394 561,-379 397,-379"/>
<text text-anchor="start" x="457.3965" y="-384.6" font-family="courier new" font-size="8.00" fill="#000000">wordpress</text>
</g>
<!-- [root] kubernetes_replication_controller.wordpress&#45;&gt;[root] kubernetes_persistent_volume_claim.wordpress -->
<g id="edge_13" class="edge">
<title>[root] kubernetes_replication_controller.wordpress&#45;&gt;[root] kubernetes_persistent_volume_claim.wordpress</title>
<path fill="none" stroke="#000000" d="M479,-375.8314C479,-368.131 479,-358.9743 479,-350.4166"/>
<polygon fill="#000000" stroke="#000000" points="482.5001,-350.4132 479,-340.4133 475.5001,-350.4133 482.5001,-350.4132"/>
</g>
<!-- [root] kubernetes_replication_controller.wordpress&#45;&gt;[root] kubernetes_secret.mysql -->
<g id="edge_14" class="edge">
<title>[root] kubernetes_replication_controller.wordpress&#45;&gt;[root] kubernetes_secret.mysql</title>
<path fill="none" stroke="#000000" d="M442.158,-375.8314C422.8918,-366.3302 399.1301,-354.6121 378.7008,-344.5374"/>
<polygon fill="#000000" stroke="#000000" points="380.0938,-341.3219 369.577,-340.038 376.9977,-347.6 380.0938,-341.3219"/>
</g>
<!-- [root] var.wordpress_version -->
<g id="node_15" class="node">
<title>[root] var.wordpress_version</title>
<polygon fill="none" stroke="#000000" points="582,-322 582,-337 669,-337 669,-322 582,-322"/>
<text text-anchor="start" x="618.2988" y="-327.6" font-family="courier new" font-size="8.00" fill="#000000">var</text>
<polygon fill="none" stroke="#000000" points="582,-307 582,-322 669,-322 669,-307 582,-307"/>
<text text-anchor="start" x="584.6934" y="-312.6" font-family="courier new" font-size="8.00" fill="#000000">wordpress_version</text>
</g>
<!-- [root] kubernetes_replication_controller.wordpress&#45;&gt;[root] var.wordpress_version -->
<g id="edge_15" class="edge">
<title>[root] kubernetes_replication_controller.wordpress&#45;&gt;[root] var.wordpress_version</title>
<path fill="none" stroke="#000000" d="M516.0916,-375.9393C533.401,-367.4877 554.2721,-357.2641 573,-348 575.2561,-346.884 577.5661,-345.7387 579.898,-344.5804"/>
<polygon fill="#000000" stroke="#000000" points="581.5412,-347.6721 588.934,-340.0828 578.422,-341.4055 581.5412,-347.6721"/>
</g>
<!-- [root] kubernetes_secret.mysql&#45;&gt;[root] provider.kubernetes -->
<g id="edge_16" class="edge">
<title>[root] kubernetes_secret.mysql&#45;&gt;[root] provider.kubernetes</title>
<path fill="none" stroke="#000000" d="M319.5479,-303.5921C314.2395,-295.4948 308.5681,-285.6454 305,-276 296.6347,-253.3864 292.6342,-226.2304 290.7261,-206.2453"/>
<polygon fill="#000000" stroke="#000000" points="294.21,-205.9055 289.8869,-196.2328 287.2344,-206.4902 294.21,-205.9055"/>
</g>
<!-- [root] var.mysql_password -->
<g id="node_16" class="node">
<title>[root] var.mysql_password</title>
<polygon fill="none" stroke="#000000" points="318,-250 318,-265 391,-265 391,-250 318,-250"/>
<text text-anchor="start" x="347.2988" y="-255.6" font-family="courier new" font-size="8.00" fill="#000000">var</text>
<polygon fill="none" stroke="#000000" points="318,-235 318,-250 391,-250 391,-235 318,-235"/>
<text text-anchor="start" x="320.8945" y="-240.6" font-family="courier new" font-size="8.00" fill="#000000">mysql_password</text>
</g>
<!-- [root] kubernetes_secret.mysql&#45;&gt;[root] var.mysql_password -->
<g id="edge_17" class="edge">
<title>[root] kubernetes_secret.mysql&#45;&gt;[root] var.mysql_password</title>
<path fill="none" stroke="#000000" d="M338.2992,-303.8314C340.5698,-296.0463 343.2746,-286.7729 345.794,-278.1347"/>
<polygon fill="#000000" stroke="#000000" points="349.1894,-278.9933 348.6295,-268.4133 342.4694,-277.0332 349.1894,-278.9933"/>
</g>
<!-- [root] kubernetes_service.mysql -->
<g id="node_9" class="node">
<title>[root] kubernetes_service.mysql</title>
<polygon fill="none" stroke="#000000" points="315,-466 315,-481 407,-481 407,-466 315,-466"/>
<text text-anchor="start" x="317.793" y="-471.6" font-family="courier new" font-size="8.00" fill="#000000">kubernetes_service</text>
<polygon fill="none" stroke="#000000" points="315,-451 315,-466 407,-466 407,-451 315,-451"/>
<text text-anchor="start" x="348.998" y="-456.6" font-family="courier new" font-size="8.00" fill="#000000">mysql</text>
</g>
<!-- [root] kubernetes_service.mysql&#45;&gt;[root] kubernetes_replication_controller.mysql -->
<g id="edge_18" class="edge">
<title>[root] kubernetes_service.mysql&#45;&gt;[root] kubernetes_replication_controller.mysql</title>
<path fill="none" stroke="#000000" d="M330.9713,-447.8314C315.7504,-438.6221 297.0872,-427.3301 280.7917,-417.4706"/>
<polygon fill="#000000" stroke="#000000" points="282.3868,-414.345 272.0191,-412.1628 278.7631,-420.3341 282.3868,-414.345"/>
</g>
<!-- [root] kubernetes_service.wordpress -->
<g id="node_10" class="node">
<title>[root] kubernetes_service.wordpress</title>
<polygon fill="none" stroke="#000000" points="433,-466 433,-481 525,-481 525,-466 433,-466"/>
<text text-anchor="start" x="435.793" y="-471.6" font-family="courier new" font-size="8.00" fill="#000000">kubernetes_service</text>
<polygon fill="none" stroke="#000000" points="433,-451 433,-466 525,-466 525,-451 433,-451"/>
<text text-anchor="start" x="457.3965" y="-456.6" font-family="courier new" font-size="8.00" fill="#000000">wordpress</text>
</g>
<!-- [root] kubernetes_service.wordpress&#45;&gt;[root] kubernetes_replication_controller.wordpress -->
<g id="edge_19" class="edge">
<title>[root] kubernetes_service.wordpress&#45;&gt;[root] kubernetes_replication_controller.wordpress</title>
<path fill="none" stroke="#000000" d="M479,-447.8314C479,-440.131 479,-430.9743 479,-422.4166"/>
<polygon fill="#000000" stroke="#000000" points="482.5001,-422.4132 479,-412.4133 475.5001,-422.4133 482.5001,-422.4132"/>
</g>
<!-- [root] var.gcp_region -->
<g id="node_20" class="node">
<title>[root] var.gcp_region</title>
<polygon fill="none" stroke="#000000" points="425,-34 425,-49 479,-49 479,-34 425,-34"/>
<text text-anchor="start" x="444.7988" y="-39.6" font-family="courier new" font-size="8.00" fill="#000000">var</text>
<polygon fill="none" stroke="#000000" points="425,-19 425,-34 479,-34 479,-19 425,-19"/>
<text text-anchor="start" x="427.9961" y="-24.6" font-family="courier new" font-size="8.00" fill="#000000">gcp_region</text>
</g>
<!-- [root] provider.google&#45;&gt;[root] var.gcp_region -->
<g id="edge_25" class="edge">
<title>[root] provider.google&#45;&gt;[root] var.gcp_region</title>
<path fill="none" stroke="#000000" d="M452,-87.8314C452,-80.131 452,-70.9743 452,-62.4166"/>
<polygon fill="#000000" stroke="#000000" points="455.5001,-62.4132 452,-52.4133 448.5001,-62.4133 455.5001,-62.4132"/>
</g>
<!-- [root] meta.count&#45;boundary (count boundary fixup) -->
<g id="node_17" class="node">
<title>[root] meta.count&#45;boundary (count boundary fixup)</title>
<polygon fill="none" stroke="#000000" points="380,-610 380,-625 453,-625 453,-610 380,-610"/>
<text text-anchor="start" x="406.8984" y="-615.6" font-family="courier new" font-size="8.00" fill="#000000">meta</text>
<polygon fill="none" stroke="#000000" points="380,-595 380,-610 453,-610 453,-595 380,-595"/>
<text text-anchor="start" x="382.8945" y="-600.6" font-family="courier new" font-size="8.00" fill="#000000">count&#45;boundary</text>
</g>
<!-- [root] meta.count&#45;boundary (count boundary fixup)&#45;&gt;[root] kubernetes_service.mysql -->
<g id="edge_20" class="edge">
<title>[root] meta.count&#45;boundary (count boundary fixup)&#45;&gt;[root] kubernetes_service.mysql</title>
<path fill="none" stroke="#000000" d="M396.7195,-591.9471C389.4216,-584.0574 381.7399,-574.2663 377,-564 366.832,-541.9766 363.0078,-514.5561 361.6256,-494.3252"/>
<polygon fill="#000000" stroke="#000000" points="365.113,-493.9902 361.0944,-484.1871 358.1226,-494.3566 365.113,-493.9902"/>
</g>
<!-- [root] output.lb_ip -->
<g id="node_18" class="node">
<title>[root] output.lb_ip</title>
<polygon fill="none" stroke="#000000" points="399,-538 399,-553 433,-553 433,-538 399,-538"/>
<text text-anchor="start" x="401.5977" y="-543.6" font-family="courier new" font-size="8.00" fill="#000000">output</text>
<polygon fill="none" stroke="#000000" points="399,-523 399,-538 433,-538 433,-523 399,-523"/>
<text text-anchor="start" x="403.998" y="-528.6" font-family="courier new" font-size="8.00" fill="#000000">lb_ip</text>
</g>
<!-- [root] meta.count&#45;boundary (count boundary fixup)&#45;&gt;[root] output.lb_ip -->
<g id="edge_21" class="edge">
<title>[root] meta.count&#45;boundary (count boundary fixup)&#45;&gt;[root] output.lb_ip</title>
<path fill="none" stroke="#000000" d="M416,-591.8314C416,-584.131 416,-574.9743 416,-566.4166"/>
<polygon fill="#000000" stroke="#000000" points="419.5001,-566.4132 416,-556.4133 412.5001,-566.4133 419.5001,-566.4132"/>
</g>
<!-- [root] provider.google (close) -->
<g id="node_19" class="node">
<title>[root] provider.google (close)</title>
<polygon fill="none" stroke="#000000" points="572,-250 572,-265 616,-265 616,-250 572,-250"/>
<text text-anchor="start" x="574.7969" y="-255.6" font-family="courier new" font-size="8.00" fill="#000000">provider</text>
<polygon fill="none" stroke="#000000" points="572,-235 572,-250 616,-250 616,-235 572,-235"/>
<text text-anchor="start" x="579.5977" y="-240.6" font-family="courier new" font-size="8.00" fill="#000000">google</text>
</g>
<!-- [root] provider.google (close)&#45;&gt;[root] google_compute_disk.mysql -->
<g id="edge_23" class="edge">
<title>[root] provider.google (close)&#45;&gt;[root] google_compute_disk.mysql</title>
<path fill="none" stroke="#000000" d="M570.9853,-231.9553C566.7925,-229.0853 562.3617,-226.3069 558,-224 545.4369,-217.3555 516.3,-206.6908 489.1001,-197.3025"/>
<polygon fill="#000000" stroke="#000000" points="490.1849,-193.9745 479.5903,-194.0436 487.9156,-200.5964 490.1849,-193.9745"/>
</g>
<!-- [root] provider.google (close)&#45;&gt;[root] google_compute_disk.wordpress -->
<g id="edge_24" class="edge">
<title>[root] provider.google (close)&#45;&gt;[root] google_compute_disk.wordpress</title>
<path fill="none" stroke="#000000" d="M581.8876,-231.8314C576.4719,-223.7079 569.9758,-213.9637 564.0079,-205.0118"/>
<polygon fill="#000000" stroke="#000000" points="566.7347,-202.7923 558.2755,-196.4133 560.9104,-206.6753 566.7347,-202.7923"/>
</g>
<!-- [root] provider.kubernetes (close) -->
<g id="node_21" class="node">
<title>[root] provider.kubernetes (close)</title>
<polygon fill="none" stroke="#000000" points="461,-538 461,-553 515,-553 515,-538 461,-538"/>
<text text-anchor="start" x="468.7969" y="-543.6" font-family="courier new" font-size="8.00" fill="#000000">provider</text>
<polygon fill="none" stroke="#000000" points="461,-523 461,-538 515,-538 515,-523 461,-523"/>
<text text-anchor="start" x="463.9961" y="-528.6" font-family="courier new" font-size="8.00" fill="#000000">kubernetes</text>
</g>
<!-- [root] provider.kubernetes (close)&#45;&gt;[root] kubernetes_service.mysql -->
<g id="edge_26" class="edge">
<title>[root] provider.kubernetes (close)&#45;&gt;[root] kubernetes_service.mysql</title>
<path fill="none" stroke="#000000" d="M466.4651,-519.9827C462.7382,-517.1727 458.8285,-514.4067 455,-512 441.4988,-503.5128 426.2054,-495.4379 411.9361,-488.4903"/>
<polygon fill="#000000" stroke="#000000" points="413.2679,-485.2477 402.736,-484.0946 410.2501,-491.5638 413.2679,-485.2477"/>
</g>
<!-- [root] provider.kubernetes (close)&#45;&gt;[root] kubernetes_service.wordpress -->
<g id="edge_27" class="edge">
<title>[root] provider.kubernetes (close)&#45;&gt;[root] kubernetes_service.wordpress</title>
<path fill="none" stroke="#000000" d="M485.7289,-519.8314C484.7664,-512.131 483.6218,-502.9743 482.5521,-494.4166"/>
<polygon fill="#000000" stroke="#000000" points="486.0151,-493.9019 481.3017,-484.4133 479.0691,-494.7702 486.0151,-493.9019"/>
</g>
<!-- [root] root -->
<g id="node_22" class="node">
<title>[root] root</title>
<polygon fill="none" stroke="#000000" points="522.3089,-700 453.6911,-700 453.6911,-664 522.3089,-664 522.3089,-700"/>
<text text-anchor="middle" x="488" y="-680.1313" font-family="courier new" font-size="8.00" fill="#000000">[root] root</text>
</g>
<!-- [root] root&#45;&gt;[root] meta.count&#45;boundary (count boundary fixup) -->
<g id="edge_28" class="edge">
<title>[root] root&#45;&gt;[root] meta.count&#45;boundary (count boundary fixup)</title>
<path fill="none" stroke="#000000" d="M469.8314,-663.8314C461.2848,-655.2848 450.9443,-644.9443 441.6198,-635.6198"/>
<polygon fill="#000000" stroke="#000000" points="443.9592,-633.0095 434.4133,-628.4133 439.0095,-637.9592 443.9592,-633.0095"/>
</g>
<!-- [root] root&#45;&gt;[root] provider.google (close) -->
<g id="edge_29" class="edge">
<title>[root] root&#45;&gt;[root] provider.google (close)</title>
<path fill="none" stroke="#000000" d="M522.5121,-674.9153C581.874,-660.4896 697,-621.7204 697,-538 697,-538 697,-538 697,-394 697,-349.8678 706.7547,-331.8378 681,-296 668.8855,-279.1427 648.6732,-267.9249 630.7786,-260.7908"/>
<polygon fill="#000000" stroke="#000000" points="631.735,-257.4132 621.1417,-257.2376 629.3134,-263.981 631.735,-257.4132"/>
</g>
<!-- [root] root&#45;&gt;[root] provider.kubernetes (close) -->
<g id="edge_30" class="edge">
<title>[root] root&#45;&gt;[root] provider.kubernetes (close)</title>
<path fill="none" stroke="#000000" d="M488,-663.7623C488,-639.201 488,-595.2474 488,-566.3541"/>
<polygon fill="#000000" stroke="#000000" points="491.5001,-566.0896 488,-556.0896 484.5001,-566.0897 491.5001,-566.0896"/>
</g>
<!-- [root] output.lb_ip&#45;&gt;[root] kubernetes_service.wordpress -->
<g id="edge_22" class="edge">
<title>[root] output.lb_ip&#45;&gt;[root] kubernetes_service.wordpress</title>
<path fill="none" stroke="#000000" d="M431.8976,-519.8314C439.2278,-511.454 448.066,-501.3531 456.0969,-492.1749"/>
<polygon fill="#000000" stroke="#000000" points="458.9373,-494.2438 462.8884,-484.4133 453.6693,-489.6343 458.9373,-494.2438"/>
</g>
</g>
</svg>

