<?xml version="1.0" encoding="UTF-8" standalone="no"?>
<!DOCTYPE svg PUBLIC "-//W3C//DTD SVG 1.1//EN"
 "http://www.w3.org/Graphics/SVG/1.1/DTD/svg11.dtd">
<!-- Generated by graphviz version 2.40.1 (20161225.0304)
 -->
<!-- Title: %3 Pages: 1 -->
<svg width="690pt" height="692pt"
 viewBox="0.00 0.00 689.50 692.00" xmlns="http://www.w3.org/2000/svg" xmlns:xlink="http://www.w3.org/1999/xlink">
<g id="graph0" class="graph" transform="scale(1 1) rotate(0) translate(4 688)">
<title>%3</title>
<polygon fill="#ffffff" stroke="transparent" points="-4,4 -4,-688 685.5,-688 685.5,4 -4,4"/>
<!-- [root] google_compute_disk.mysql -->
<g id="node_0" class="node">
<title>[root] google_compute_disk.mysql</title>
<polygon fill="none" stroke="#000000" points="383.5,-162 383.5,-177 480.5,-177 480.5,-162 383.5,-162"/>
<text text-anchor="start" x="386.3926" y="-167.6" font-family="courier new" font-size="8.00" fill="#000000">google_compute_disk</text>
<polygon fill="none" stroke="#000000" points="383.5,-147 383.5,-162 480.5,-162 480.5,-147 383.5,-147"/>
<text text-anchor="start" x="419.998" y="-152.6" font-family="courier new" font-size="8.00" fill="#000000">mysql</text>
</g>
<!-- [root] provider.google -->
<g id="node_11" class="node">
<title>[root] provider.google</title>
<polygon fill="none" stroke="#000000" points="430.5,-90 430.5,-105 474.5,-105 474.5,-90 430.5,-90"/>
<text text-anchor="start" x="433.2969" y="-95.6" font-family="courier new" font-size="8.00" fill="#000000">provider</text>
<polygon fill="none" stroke="#000000" points="430.5,-75 430.5,-90 474.5,-90 474.5,-75 430.5,-75"/>
<text text-anchor="start" x="438.0977" y="-80.6" font-family="courier new" font-size="8.00" fill="#000000">google</text>
</g>
<!-- [root] google_compute_disk.mysql&#45;&gt;[root] provider.google -->
<g id="edge_0" class="edge">
<title>[root] google_compute_disk.mysql&#45;&gt;[root] provider.google</title>
<path fill="none" stroke="#000000" d="M436.7992,-143.8314C439.0698,-136.0463 441.7746,-126.7729 444.294,-118.1347"/>
<polygon fill="#000000" stroke="#000000" points="447.6894,-118.9933 447.1295,-108.4133 440.9694,-117.0332 447.6894,-118.9933"/>
</g>
<!-- [root] var.gcp_zone -->
<g id="node_13" class="node">
<title>[root] var.gcp_zone</title>
<polygon fill="none" stroke="#000000" points="513.5,-90 513.5,-105 557.5,-105 557.5,-90 513.5,-90"/>
<text text-anchor="start" x="528.2988" y="-95.6" font-family="courier new" font-size="8.00" fill="#000000">var</text>
<polygon fill="none" stroke="#000000" points="513.5,-75 513.5,-90 557.5,-90 557.5,-75 513.5,-75"/>
<text text-anchor="start" x="516.2969" y="-80.6" font-family="courier new" font-size="8.00" fill="#000000">gcp_zone</text>
</g>
<!-- [root] google_compute_disk.mysql&#45;&gt;[root] var.gcp_zone -->
<g id="edge_1" class="edge">
<title>[root] google_compute_disk.mysql&#45;&gt;[root] var.gcp_zone</title>
<path fill="none" stroke="#000000" d="M457.7436,-143.8314C470.7995,-134.7927 486.7535,-123.7476 500.8047,-114.0198"/>
<polygon fill="#000000" stroke="#000000" points="503.0351,-116.7326 509.2648,-108.1628 499.0506,-110.9773 503.0351,-116.7326"/>
</g>
<!-- [root] google_compute_disk.wordpress -->
<g id="node_1" class="node">
<title>[root] google_compute_disk.wordpress</title>
<polygon fill="none" stroke="#000000" points="498.5,-162 498.5,-177 595.5,-177 595.5,-162 498.5,-162"/>
<text text-anchor="start" x="501.3926" y="-167.6" font-family="courier new" font-size="8.00" fill="#000000">google_compute_disk</text>
<polygon fill="none" stroke="#000000" points="498.5,-147 498.5,-162 595.5,-162 595.5,-147 498.5,-147"/>
<text text-anchor="start" x="525.3965" y="-152.6" font-family="courier new" font-size="8.00" fill="#000000">wordpress</text>
</g>
<!-- [root] google_compute_disk.wordpress&#45;&gt;[root] provider.google -->
<g id="edge_2" class="edge">
<title>[root] google_compute_disk.wordpress&#45;&gt;[root] provider.google</title>
<path fill="none" stroke="#000000" d="M522.7798,-143.8314C511.0906,-134.8779 496.8312,-123.9558 484.2191,-114.2955"/>
<polygon fill="#000000" stroke="#000000" points="486.2797,-111.4651 476.2126,-108.1628 482.0231,-117.0222 486.2797,-111.4651"/>
</g>
<!-- [root] google_compute_disk.wordpress&#45;&gt;[root] var.gcp_zone -->
<g id="edge_3" class="edge">
<title>[root] google_compute_disk.wordpress&#45;&gt;[root] var.gcp_zone</title>
<path fill="none" stroke="#000000" d="M543.7242,-143.8314C542.5478,-136.131 541.1489,-126.9743 539.8414,-118.4166"/>
<polygon fill="#000000" stroke="#000000" points="543.2833,-117.7699 538.3131,-108.4133 536.3636,-118.8272 543.2833,-117.7699"/>
</g>
<!-- [root] kubernetes_persistent_volume.mysql -->
<g id="node_2" class="node">
<title>[root] kubernetes_persistent_volume.mysql</title>
<polygon fill="none" stroke="#000000" points="149.5,-234 149.5,-249 289.5,-249 289.5,-234 149.5,-234"/>
<text text-anchor="start" x="152.2891" y="-239.6" font-family="courier new" font-size="8.00" fill="#000000">kubernetes_persistent_volume</text>
<polygon fill="none" stroke="#000000" points="149.5,-219 149.5,-234 289.5,-234 289.5,-219 149.5,-219"/>
<text text-anchor="start" x="207.498" y="-224.6" font-family="courier new" font-size="8.00" fill="#000000">mysql</text>
</g>
<!-- [root] kubernetes_persistent_volume.mysql&#45;&gt;[root] google_compute_disk.mysql -->
<g id="edge_4" class="edge">
<title>[root] kubernetes_persistent_volume.mysql&#45;&gt;[root] google_compute_disk.mysql</title>
<path fill="none" stroke="#000000" d="M272.7229,-215.9243C303.4016,-205.5051 341.9989,-192.3966 373.4563,-181.713"/>
<polygon fill="#000000" stroke="#000000" points="374.6297,-185.0108 382.973,-178.4809 372.3786,-178.3827 374.6297,-185.0108"/>
</g>
<!-- [root] provider.kubernetes -->
<g id="node_12" class="node">
<title>[root] provider.kubernetes</title>
<polygon fill="none" stroke="#000000" points="290.5,-162 290.5,-177 344.5,-177 344.5,-162 290.5,-162"/>
<text text-anchor="start" x="298.2969" y="-167.6" font-family="courier new" font-size="8.00" fill="#000000">provider</text>
<polygon fill="none" stroke="#000000" points="290.5,-147 290.5,-162 344.5,-162 344.5,-147 290.5,-147"/>
<text text-anchor="start" x="293.4961" y="-152.6" font-family="courier new" font-size="8.00" fill="#000000">kubernetes</text>
</g>
<!-- [root] kubernetes_persistent_volume.mysql&#45;&gt;[root] provider.kubernetes -->
<g id="edge_5" class="edge">
<title>[root] kubernetes_persistent_volume.mysql&#45;&gt;[root] provider.kubernetes</title>
<path fill="none" stroke="#000000" d="M244.2295,-215.8314C256.4162,-206.8779 271.2823,-195.9558 284.4312,-186.2955"/>
<polygon fill="#000000" stroke="#000000" points="286.7918,-188.9042 292.7784,-180.1628 282.6473,-183.263 286.7918,-188.9042"/>
</g>
<!-- [root] kubernetes_persistent_volume.wordpress -->
<g id="node_3" class="node">
<title>[root] kubernetes_persistent_volume.wordpress</title>
<polygon fill="none" stroke="#000000" points="457.5,-234 457.5,-249 597.5,-249 597.5,-234 457.5,-234"/>
<text text-anchor="start" x="460.2891" y="-239.6" font-family="courier new" font-size="8.00" fill="#000000">kubernetes_persistent_volume</text>
<polygon fill="none" stroke="#000000" points="457.5,-219 457.5,-234 597.5,-234 597.5,-219 457.5,-219"/>
<text text-anchor="start" x="505.8965" y="-224.6" font-family="courier new" font-size="8.00" fill="#000000">wordpress</text>
</g>
<!-- [root] kubernetes_persistent_volume.wordpress&#45;&gt;[root] google_compute_disk.wordpress -->
<g id="edge_6" class="edge">
<title>[root] kubernetes_persistent_volume.wordpress&#45;&gt;[root] google_compute_disk.wordpress</title>
<path fill="none" stroke="#000000" d="M532.2945,-215.8314C534.3489,-208.0463 536.796,-198.7729 539.0756,-190.1347"/>
<polygon fill="#000000" stroke="#000000" points="542.4735,-190.9753 541.6409,-180.4133 535.7052,-189.1892 542.4735,-190.9753"/>
</g>
<!-- [root] kubernetes_persistent_volume.wordpress&#45;&gt;[root] provider.kubernetes -->
<g id="edge_7" class="edge">
<title>[root] kubernetes_persistent_volume.wordpress&#45;&gt;[root] provider.kubernetes</title>
<path fill="none" stroke="#000000" d="M474.7792,-215.9243C437.2331,-203.0513 387.7133,-186.0731 354.3522,-174.635"/>
<polygon fill="#000000" stroke="#000000" points="355.1432,-171.2063 344.5486,-171.2738 352.8729,-177.8279 355.1432,-171.2063"/>
</g>
<!-- [root] kubernetes_persistent_volume_claim.mysql -->
<g id="node_4" class="node">
<title>[root] kubernetes_persistent_volume_claim.mysql</title>
<polygon fill="none" stroke="#000000" points=".5,-306 .5,-321 169.5,-321 169.5,-306 .5,-306"/>
<text text-anchor="start" x="3.3867" y="-311.6" font-family="courier new" font-size="8.00" fill="#000000">kubernetes_persistent_volume_claim</text>
<polygon fill="none" stroke="#000000" points=".5,-291 .5,-306 169.5,-306 169.5,-291 .5,-291"/>
<text text-anchor="start" x="72.998" y="-296.6" font-family="courier new" font-size="8.00" fill="#000000">mysql</text>
</g>
<!-- [root] kubernetes_persistent_volume_claim.mysql&#45;&gt;[root] kubernetes_persistent_volume.mysql -->
<g id="edge_8" class="edge">
<title>[root] kubernetes_persistent_volume_claim.mysql&#45;&gt;[root] kubernetes_persistent_volume.mysql</title>
<path fill="none" stroke="#000000" d="M118.5662,-287.8314C136.1533,-278.4516 157.7916,-266.9112 176.5168,-256.9244"/>
<polygon fill="#000000" stroke="#000000" points="178.2682,-259.957 185.4447,-252.1628 174.9741,-253.7805 178.2682,-259.957"/>
</g>
<!-- [root] kubernetes_persistent_volume_claim.wordpress -->
<g id="node_5" class="node">
<title>[root] kubernetes_persistent_volume_claim.wordpress</title>
<polygon fill="none" stroke="#000000" points="484.5,-306 484.5,-321 653.5,-321 653.5,-306 484.5,-306"/>
<text text-anchor="start" x="487.3867" y="-311.6" font-family="courier new" font-size="8.00" fill="#000000">kubernetes_persistent_volume_claim</text>
<polygon fill="none" stroke="#000000" points="484.5,-291 484.5,-306 653.5,-306 653.5,-291 484.5,-291"/>
<text text-anchor="start" x="547.3965" y="-296.6" font-family="courier new" font-size="8.00" fill="#000000">wordpress</text>
</g>
<!-- [root] kubernetes_persistent_volume_claim.wordpress&#45;&gt;[root] kubernetes_persistent_volume.wordpress -->
<g id="edge_9" class="edge">
<title>[root] kubernetes_persistent_volume_claim.wordpress&#45;&gt;[root] kubernetes_persistent_volume.wordpress</title>
<path fill="none" stroke="#000000" d="M558.154,-287.8314C553.5763,-279.7925 548.0948,-270.1666 543.0412,-261.2918"/>
<polygon fill="#000000" stroke="#000000" points="545.9752,-259.3712 537.9853,-252.4133 539.8923,-262.8351 545.9752,-259.3712"/>
</g>
<!-- [root] kubernetes_replication_controller.mysql -->
<g id="node_6" class="node">
<title>[root] kubernetes_replication_controller.mysql</title>
<polygon fill="none" stroke="#000000" points="149.5,-378 149.5,-393 313.5,-393 313.5,-378 149.5,-378"/>
<text text-anchor="start" x="152.2871" y="-383.6" font-family="courier new" font-size="8.00" fill="#000000">kubernetes_replication_controller</text>
<polygon fill="none" stroke="#000000" points="149.5,-363 149.5,-378 313.5,-378 313.5,-363 149.5,-363"/>
<text text-anchor="start" x="219.498" y="-368.6" font-family="courier new" font-size="8.00" fill="#000000">mysql</text>
</g>
<!-- [root] kubernetes_replication_controller.mysql&#45;&gt;[root] kubernetes_persistent_volume_claim.mysql -->
<g id="edge_10" class="edge">
<title>[root] kubernetes_replication_controller.mysql&#45;&gt;[root] kubernetes_persistent_volume_claim.mysql</title>
<path fill="none" stroke="#000000" d="M194.4057,-359.8314C175.0074,-350.3302 151.083,-338.6121 130.5138,-328.5374"/>
<polygon fill="#000000" stroke="#000000" points="131.8478,-325.2935 121.3276,-324.038 128.7686,-331.5799 131.8478,-325.2935"/>
</g>
<!-- [root] kubernetes_secret.mysql -->
<g id="node_8" class="node">
<title>[root] kubernetes_secret.mysql</title>
<polygon fill="none" stroke="#000000" points="274.5,-306 274.5,-321 361.5,-321 361.5,-306 274.5,-306"/>
<text text-anchor="start" x="277.1934" y="-311.6" font-family="courier new" font-size="8.00" fill="#000000">kubernetes_secret</text>
<polygon fill="none" stroke="#000000" points="274.5,-291 274.5,-306 361.5,-306 361.5,-291 274.5,-291"/>
<text text-anchor="start" x="305.998" y="-296.6" font-family="courier new" font-size="8.00" fill="#000000">mysql</text>
</g>
<!-- [root] kubernetes_replication_controller.mysql&#45;&gt;[root] kubernetes_secret.mysql -->
<g id="edge_11" class="edge">
<title>[root] kubernetes_replication_controller.mysql&#45;&gt;[root] kubernetes_secret.mysql</title>
<path fill="none" stroke="#000000" d="M253.2014,-359.8314C263.6921,-351.0485 276.4455,-340.3712 287.8194,-330.8489"/>
<polygon fill="#000000" stroke="#000000" points="290.3847,-333.2659 295.8055,-324.1628 285.8911,-327.8986 290.3847,-333.2659"/>
</g>
<!-- [root] var.mysql_version -->
<g id="node_14" class="node">
<title>[root] var.mysql_version</title>
<polygon fill="none" stroke="#000000" points="187.5,-306 187.5,-321 255.5,-321 255.5,-306 187.5,-306"/>
<text text-anchor="start" x="214.2988" y="-311.6" font-family="courier new" font-size="8.00" fill="#000000">var</text>
<polygon fill="none" stroke="#000000" points="187.5,-291 187.5,-306 255.5,-306 255.5,-291 187.5,-291"/>
<text text-anchor="start" x="190.2949" y="-296.6" font-family="courier new" font-size="8.00" fill="#000000">mysql_version</text>
</g>
<!-- [root] kubernetes_replication_controller.mysql&#45;&gt;[root] var.mysql_version -->
<g id="edge_12" class="edge">
<title>[root] kubernetes_replication_controller.mysql&#45;&gt;[root] var.mysql_version</title>
<path fill="none" stroke="#000000" d="M228.9766,-359.8314C227.9071,-352.131 226.6353,-342.9743 225.4468,-334.4166"/>
<polygon fill="#000000" stroke="#000000" points="228.8999,-333.8367 224.0574,-324.4133 221.9664,-334.7997 228.8999,-333.8367"/>
</g>
<!-- [root] kubernetes_replication_controller.wordpress -->
<g id="node_7" class="node">
<title>[root] kubernetes_replication_controller.wordpress</title>
<polygon fill="none" stroke="#000000" points="340.5,-378 340.5,-393 504.5,-393 504.5,-378 340.5,-378"/>
<text text-anchor="start" x="343.2871" y="-383.6" font-family="courier new" font-size="8.00" fill="#000000">kubernetes_replication_controller</text>
<polygon fill="none" stroke="#000000" points="340.5,-363 340.5,-378 504.5,-378 504.5,-363 340.5,-363"/>
<text text-anchor="start" x="400.8965" y="-368.6" font-family="courier new" font-size="8.00" fill="#000000">wordpress</text>
</g>
<!-- [root] kubernetes_replication_controller.wordpress&#45;&gt;[root] kubernetes_persistent_volume_claim.wordpress -->
<g id="edge_13" class="edge">
<title>[root] kubernetes_replication_controller.wordpress&#45;&gt;[root] kubernetes_persistent_volume_claim.wordpress</title>
<path fill="none" stroke="#000000" d="M459.342,-359.8314C478.6082,-350.3302 502.3699,-338.6121 522.7992,-328.5374"/>
<polygon fill="#000000" stroke="#000000" points="524.5023,-331.6 531.923,-324.038 521.4062,-325.3219 524.5023,-331.6"/>
</g>
<!-- [root] kubernetes_replication_controller.wordpress&#45;&gt;[root] kubernetes_secret.mysql -->
<g id="edge_14" class="edge">
<title>[root] kubernetes_replication_controller.wordpress&#45;&gt;[root] kubernetes_secret.mysql</title>
<path fill="none" stroke="#000000" d="M396.0041,-359.8314C382.8226,-350.7927 366.7153,-339.7476 352.5289,-330.0198"/>
<polygon fill="#000000" stroke="#000000" points="354.2141,-326.9316 343.9875,-324.1628 350.2554,-332.7047 354.2141,-326.9316"/>
</g>
<!-- [root] var.wordpress_version -->
<g id="node_15" class="node">
<title>[root] var.wordpress_version</title>
<polygon fill="none" stroke="#000000" points="379.5,-306 379.5,-321 466.5,-321 466.5,-306 379.5,-306"/>
<text text-anchor="start" x="415.7988" y="-311.6" font-family="courier new" font-size="8.00" fill="#000000">var</text>
<polygon fill="none" stroke="#000000" points="379.5,-291 379.5,-306 466.5,-306 466.5,-291 379.5,-291"/>
<text text-anchor="start" x="382.1934" y="-296.6" font-family="courier new" font-size="8.00" fill="#000000">wordpress_version</text>
</g>
<!-- [root] kubernetes_replication_controller.wordpress&#45;&gt;[root] var.wordpress_version -->
<g id="edge_15" class="edge">
<title>[root] kubernetes_replication_controller.wordpress&#45;&gt;[root] var.wordpress_version</title>
<path fill="none" stroke="#000000" d="M422.5,-359.8314C422.5,-352.131 422.5,-342.9743 422.5,-334.4166"/>
<polygon fill="#000000" stroke="#000000" points="426.0001,-334.4132 422.5,-324.4133 419.0001,-334.4133 426.0001,-334.4132"/>
</g>
<!-- [root] kubernetes_secret.mysql&#45;&gt;[root] provider.kubernetes -->
<g id="edge_16" class="edge">
<title>[root] kubernetes_secret.mysql&#45;&gt;[root] provider.kubernetes</title>
<path fill="none" stroke="#000000" d="M317.5,-287.7623C317.5,-263.201 317.5,-219.2474 317.5,-190.3541"/>
<polygon fill="#000000" stroke="#000000" points="321.0001,-190.0896 317.5,-180.0896 314.0001,-190.0897 321.0001,-190.0896"/>
</g>
<!-- [root] var.mysql_password -->
<g id="node_16" class="node">
<title>[root] var.mysql_password</title>
<polygon fill="none" stroke="#000000" points="346.5,-234 346.5,-249 419.5,-249 419.5,-234 346.5,-234"/>
<text text-anchor="start" x="375.7988" y="-239.6" font-family="courier new" font-size="8.00" fill="#000000">var</text>
<polygon fill="none" stroke="#000000" points="346.5,-219 346.5,-234 419.5,-234 419.5,-219 346.5,-219"/>
<text text-anchor="start" x="349.3945" y="-224.6" font-family="courier new" font-size="8.00" fill="#000000">mysql_password</text>
</g>
<!-- [root] kubernetes_secret.mysql&#45;&gt;[root] var.mysql_password -->
<g id="edge_17" class="edge">
<title>[root] kubernetes_secret.mysql&#45;&gt;[root] var.mysql_password</title>
<path fill="none" stroke="#000000" d="M333.9022,-287.8314C341.5415,-279.3694 350.7683,-269.1489 359.1207,-259.8971"/>
<polygon fill="#000000" stroke="#000000" points="361.7738,-262.1813 365.8769,-252.4133 356.5779,-257.4906 361.7738,-262.1813"/>
</g>
<!-- [root] kubernetes_service.mysql -->
<g id="node_9" class="node">
<title>[root] kubernetes_service.mysql</title>
<polygon fill="none" stroke="#000000" points="385.5,-522 385.5,-537 477.5,-537 477.5,-522 385.5,-522"/>
<text text-anchor="start" x="388.293" y="-527.6" font-family="courier new" font-size="8.00" fill="#000000">kubernetes_service</text>
<polygon fill="none" stroke="#000000" points="385.5,-507 385.5,-522 477.5,-522 477.5,-507 385.5,-507"/>
<text text-anchor="start" x="419.498" y="-512.6" font-family="courier new" font-size="8.00" fill="#000000">mysql</text>
</g>
<!-- [root] kubernetes_service.mysql&#45;&gt;[root] kubernetes_replication_controller.mysql -->
<g id="edge_18" class="edge">
<title>[root] kubernetes_service.mysql&#45;&gt;[root] kubernetes_replication_controller.mysql</title>
<path fill="none" stroke="#000000" d="M406.1699,-503.7623C370.3288,-477.9567 304.7558,-430.7442 264.9489,-402.0832"/>
<polygon fill="#000000" stroke="#000000" points="266.7849,-399.0923 256.6245,-396.0896 262.6947,-404.7731 266.7849,-399.0923"/>
</g>
<!-- [root] kubernetes_service.wordpress -->
<g id="node_10" class="node">
<title>[root] kubernetes_service.wordpress</title>
<polygon fill="none" stroke="#000000" points="376.5,-450 376.5,-465 468.5,-465 468.5,-450 376.5,-450"/>
<text text-anchor="start" x="379.293" y="-455.6" font-family="courier new" font-size="8.00" fill="#000000">kubernetes_service</text>
<polygon fill="none" stroke="#000000" points="376.5,-435 376.5,-450 468.5,-450 468.5,-435 376.5,-435"/>
<text text-anchor="start" x="400.8965" y="-440.6" font-family="courier new" font-size="8.00" fill="#000000">wordpress</text>
</g>
<!-- [root] kubernetes_service.wordpress&#45;&gt;[root] kubernetes_replication_controller.wordpress -->
<g id="edge_19" class="edge">
<title>[root] kubernetes_service.wordpress&#45;&gt;[root] kubernetes_replication_controller.wordpress</title>
<path fill="none" stroke="#000000" d="M422.5,-431.8314C422.5,-424.131 422.5,-414.9743 422.5,-406.4166"/>
<polygon fill="#000000" stroke="#000000" points="426.0001,-406.4132 422.5,-396.4133 419.0001,-406.4133 426.0001,-406.4132"/>
</g>
<!-- [root] var.gcp_region -->
<g id="node_20" class="node">
<title>[root] var.gcp_region</title>
<polygon fill="none" stroke="#000000" points="425.5,-18 425.5,-33 479.5,-33 479.5,-18 425.5,-18"/>
<text text-anchor="start" x="445.2988" y="-23.6" font-family="courier new" font-size="8.00" fill="#000000">var</text>
<polygon fill="none" stroke="#000000" points="425.5,-3 425.5,-18 479.5,-18 479.5,-3 425.5,-3"/>
<text text-anchor="start" x="428.4961" y="-8.6" font-family="courier new" font-size="8.00" fill="#000000">gcp_region</text>
</g>
<!-- [root] provider.google&#45;&gt;[root] var.gcp_region -->
<g id="edge_25" class="edge">
<title>[root] provider.google&#45;&gt;[root] var.gcp_region</title>
<path fill="none" stroke="#000000" d="M452.5,-71.8314C452.5,-64.131 452.5,-54.9743 452.5,-46.4166"/>
<polygon fill="#000000" stroke="#000000" points="456.0001,-46.4132 452.5,-36.4133 449.0001,-46.4133 456.0001,-46.4132"/>
</g>
<!-- [root] meta.count&#45;boundary (count boundary fixup) -->
<g id="node_17" class="node">
<title>[root] meta.count&#45;boundary (count boundary fixup)</title>
<polygon fill="none" stroke="#000000" points="387.5,-594 387.5,-609 460.5,-609 460.5,-594 387.5,-594"/>
<text text-anchor="start" x="414.3984" y="-599.6" font-family="courier new" font-size="8.00" fill="#000000">meta</text>
<polygon fill="none" stroke="#000000" points="387.5,-579 387.5,-594 460.5,-594 460.5,-579 387.5,-579"/>
<text text-anchor="start" x="390.3945" y="-584.6" font-family="courier new" font-size="8.00" fill="#000000">count&#45;boundary</text>
</g>
<!-- [root] meta.count&#45;boundary (count boundary fixup)&#45;&gt;[root] kubernetes_service.mysql -->
<g id="edge_20" class="edge">
<title>[root] meta.count&#45;boundary (count boundary fixup)&#45;&gt;[root] kubernetes_service.mysql</title>
<path fill="none" stroke="#000000" d="M425.5187,-575.8314C426.3743,-568.131 427.3917,-558.9743 428.3426,-550.4166"/>
<polygon fill="#000000" stroke="#000000" points="431.8283,-550.7386 429.4541,-540.4133 424.8711,-549.9656 431.8283,-550.7386"/>
</g>
<!-- [root] output.lb_ip -->
<g id="node_18" class="node">
<title>[root] output.lb_ip</title>
<polygon fill="none" stroke="#000000" points="323.5,-522 323.5,-537 357.5,-537 357.5,-522 323.5,-522"/>
<text text-anchor="start" x="326.0977" y="-527.6" font-family="courier new" font-size="8.00" fill="#000000">output</text>
<polygon fill="none" stroke="#000000" points="323.5,-507 323.5,-522 357.5,-522 357.5,-507 323.5,-507"/>
<text text-anchor="start" x="328.498" y="-512.6" font-family="courier new" font-size="8.00" fill="#000000">lb_ip</text>
</g>
<!-- [root] meta.count&#45;boundary (count boundary fixup)&#45;&gt;[root] output.lb_ip -->
<g id="edge_21" class="edge">
<title>[root] meta.count&#45;boundary (count boundary fixup)&#45;&gt;[root] output.lb_ip</title>
<path fill="none" stroke="#000000" d="M402.5556,-575.8314C392.4309,-567.0485 380.1223,-556.3712 369.1452,-546.8489"/>
<polygon fill="#000000" stroke="#000000" points="371.2851,-544.0718 361.4377,-540.1628 366.6981,-549.3595 371.2851,-544.0718"/>
</g>
<!-- [root] output.lb_ip&#45;&gt;[root] kubernetes_service.wordpress -->
<g id="edge_22" class="edge">
<title>[root] output.lb_ip&#45;&gt;[root] kubernetes_service.wordpress</title>
<path fill="none" stroke="#000000" d="M361.1921,-503.8314C371.1948,-495.0485 383.355,-484.3712 394.1999,-474.8489"/>
<polygon fill="#000000" stroke="#000000" points="396.6094,-477.3909 401.8146,-468.1628 391.9908,-472.1308 396.6094,-477.3909"/>
</g>
<!-- [root] provider.google (close) -->
<g id="node_19" class="node">
<title>[root] provider.google (close)</title>
<polygon fill="none" stroke="#000000" points="620.5,-234 620.5,-249 664.5,-249 664.5,-234 620.5,-234"/>
<text text-anchor="start" x="623.2969" y="-239.6" font-family="courier new" font-size="8.00" fill="#000000">provider</text>
<polygon fill="none" stroke="#000000" points="620.5,-219 620.5,-234 664.5,-234 664.5,-219 620.5,-219"/>
<text text-anchor="start" x="628.0977" y="-224.6" font-family="courier new" font-size="8.00" fill="#000000">google</text>
</g>
<!-- [root] provider.google (close)&#45;&gt;[root] google_compute_disk.mysql -->
<g id="edge_23" class="edge">
<title>[root] provider.google (close)&#45;&gt;[root] google_compute_disk.mysql</title>
<path fill="none" stroke="#000000" d="M615.1967,-219.765C612.2905,-218.4256 609.354,-217.1435 606.5,-216 558.7588,-196.8721 543.1759,-196.0918 489.8745,-180.0727"/>
<polygon fill="#000000" stroke="#000000" points="490.8176,-176.7012 480.2316,-177.133 488.7763,-183.397 490.8176,-176.7012"/>
</g>
<!-- [root] provider.google (close)&#45;&gt;[root] google_compute_disk.wordpress -->
<g id="edge_24" class="edge">
<title>[root] provider.google (close)&#45;&gt;[root] google_compute_disk.wordpress</title>
<path fill="none" stroke="#000000" d="M618.2751,-215.8314C606.3372,-206.8779 591.7744,-195.9558 578.894,-186.2955"/>
<polygon fill="#000000" stroke="#000000" points="580.8171,-183.3629 570.7171,-180.1628 576.6171,-188.9629 580.8171,-183.3629"/>
</g>
<!-- [root] provider.kubernetes (close) -->
<g id="node_21" class="node">
<title>[root] provider.kubernetes (close)</title>
<polygon fill="none" stroke="#000000" points="478.5,-594 478.5,-609 532.5,-609 532.5,-594 478.5,-594"/>
<text text-anchor="start" x="486.2969" y="-599.6" font-family="courier new" font-size="8.00" fill="#000000">provider</text>
<polygon fill="none" stroke="#000000" points="478.5,-579 478.5,-594 532.5,-594 532.5,-579 478.5,-579"/>
<text text-anchor="start" x="481.4961" y="-584.6" font-family="courier new" font-size="8.00" fill="#000000">kubernetes</text>
</g>
<!-- [root] provider.kubernetes (close)&#45;&gt;[root] kubernetes_service.mysql -->
<g id="edge_26" class="edge">
<title>[root] provider.kubernetes (close)&#45;&gt;[root] kubernetes_service.mysql</title>
<path fill="none" stroke="#000000" d="M486.8267,-575.8314C477.9751,-567.219 467.2514,-556.7851 457.6105,-547.4048"/>
<polygon fill="#000000" stroke="#000000" points="459.7754,-544.6279 450.1674,-540.1628 454.8939,-549.645 459.7754,-544.6279"/>
</g>
<!-- [root] provider.kubernetes (close)&#45;&gt;[root] kubernetes_service.wordpress -->
<g id="edge_27" class="edge">
<title>[root] provider.kubernetes (close)&#45;&gt;[root] kubernetes_service.wordpress</title>
<path fill="none" stroke="#000000" d="M505.0891,-575.8417C503.9102,-556.7181 499.8607,-526.3396 486.5,-504 479.7289,-492.6784 469.7168,-482.5982 459.6121,-474.3019"/>
<polygon fill="#000000" stroke="#000000" points="461.5938,-471.4094 451.5487,-468.0412 457.3009,-476.9385 461.5938,-471.4094"/>
</g>
<!-- [root] root -->
<g id="node_22" class="node">
<title>[root] root</title>
<polygon fill="none" stroke="#000000" points="539.8089,-684 471.1911,-684 471.1911,-648 539.8089,-648 539.8089,-684"/>
<text text-anchor="middle" x="505.5" y="-664.1313" font-family="courier new" font-size="8.00" fill="#000000">[root] root</text>
</g>
<!-- [root] root&#45;&gt;[root] meta.count&#45;boundary (count boundary fixup) -->
<g id="edge_28" class="edge">
<title>[root] root&#45;&gt;[root] meta.count&#45;boundary (count boundary fixup)</title>
<path fill="none" stroke="#000000" d="M484.8079,-647.8314C474.8052,-639.0485 462.645,-628.3712 451.8001,-618.8489"/>
<polygon fill="#000000" stroke="#000000" points="454.0092,-616.1308 444.1854,-612.1628 449.3906,-621.3909 454.0092,-616.1308"/>
</g>
<!-- [root] root&#45;&gt;[root] provider.google (close) -->
<g id="edge_29" class="edge">
<title>[root] root&#45;&gt;[root] provider.google (close)</title>
<path fill="none" stroke="#000000" d="M539.8524,-655.3247C591.0716,-637.0203 681.5,-594.4451 681.5,-522 681.5,-522 681.5,-522 681.5,-378 681.5,-336.2959 666.0716,-290.0864 654.6227,-261.5372"/>
<polygon fill="#000000" stroke="#000000" points="657.8235,-260.1183 650.7709,-252.2119 651.3537,-262.7907 657.8235,-260.1183"/>
</g>
<!-- [root] root&#45;&gt;[root] provider.kubernetes (close) -->
<g id="edge_30" class="edge">
<title>[root] root&#45;&gt;[root] provider.kubernetes (close)</title>
<path fill="none" stroke="#000000" d="M505.5,-647.8314C505.5,-640.131 505.5,-630.9743 505.5,-622.4166"/>
<polygon fill="#000000" stroke="#000000" points="509.0001,-622.4132 505.5,-612.4133 502.0001,-622.4133 509.0001,-622.4132"/>
</g>
</g>
</svg>

