<?xml version="1.0" encoding="UTF-8" standalone="no"?>
<!DOCTYPE svg PUBLIC "-//W3C//DTD SVG 1.1//EN"
 "http://www.w3.org/Graphics/SVG/1.1/DTD/svg11.dtd">
<!-- Generated by graphviz version 2.40.1 (20161225.0304)
 -->
<!-- Title: %3 Pages: 1 -->
<svg width="401pt" height="564pt"
 viewBox="0.00 0.00 401.00 564.00" xmlns="http://www.w3.org/2000/svg" xmlns:xlink="http://www.w3.org/1999/xlink">
<g id="graph0" class="graph" transform="scale(1 1) rotate(0) translate(4 560)">
<title>%3</title>
<polygon fill="#ffffff" stroke="transparent" points="-4,4 -4,-560 397,-560 397,4 -4,4"/>
<g id="clust2" class="cluster">
<title>cluster[root] azurerm_resource_group.rg_var_</title>
</g>
<g id="clust3" class="cluster">
<title>cluster[root] azurerm_sql_server.server_var_</title>
</g>
<g id="clust4" class="cluster">
<title>cluster[root] meta.count&#45;boundary (count boundary fixup)_output_[root] azurerm_sql_database.db</title>
</g>
<g id="clust5" class="cluster">
<title>cluster[root] meta.count&#45;boundary (count boundary fixup)_output_[root] azurerm_sql_server.server</title>
</g>
<!-- [root] azurerm_resource_group.rg -->
<g id="node_0" class="node">
<title>[root] azurerm_resource_group.rg</title>
<polygon fill="none" stroke="#000000" points="64,-178 64,-193 175,-193 175,-178 64,-178"/>
<text text-anchor="start" x="66.6914" y="-183.6" font-family="courier new" font-size="8.00" fill="#000000">azurerm_resource_group</text>
<polygon fill="none" stroke="#000000" points="64,-163 64,-178 175,-178 175,-163 64,-163"/>
<text text-anchor="start" x="114.6992" y="-168.6" font-family="courier new" font-size="8.00" fill="#000000">rg</text>
</g>
<!-- [root] provider.azurerm -->
<g id="node_4" class="node">
<title>[root] provider.azurerm</title>
<polygon fill="none" stroke="#000000" points="111,-106 111,-121 155,-121 155,-106 111,-106"/>
<text text-anchor="start" x="113.7969" y="-111.6" font-family="courier new" font-size="8.00" fill="#000000">provider</text>
<polygon fill="none" stroke="#000000" points="111,-91 111,-106 155,-106 155,-91 111,-91"/>
<text text-anchor="start" x="116.1973" y="-96.6" font-family="courier new" font-size="8.00" fill="#000000">azurerm</text>
</g>
<!-- [root] azurerm_resource_group.rg&#45;&gt;[root] provider.azurerm -->
<g id="edge_0" class="edge">
<title>[root] azurerm_resource_group.rg&#45;&gt;[root] provider.azurerm</title>
<path fill="none" stroke="#000000" d="M122.5328,-159.8314C124.0301,-152.131 125.8105,-142.9743 127.4745,-134.4166"/>
<polygon fill="#000000" stroke="#000000" points="130.9465,-134.8975 129.4196,-124.4133 124.0752,-133.5614 130.9465,-134.8975"/>
</g>
<!-- [root] var.location -->
<g id="node_5" class="node">
<title>[root] var.location</title>
<polygon fill="none" stroke="#000000" points="35,-106 35,-121 79,-121 79,-106 35,-106"/>
<text text-anchor="start" x="49.7988" y="-111.6" font-family="courier new" font-size="8.00" fill="#000000">var</text>
<polygon fill="none" stroke="#000000" points="35,-91 35,-106 79,-106 79,-91 35,-91"/>
<text text-anchor="start" x="37.7969" y="-96.6" font-family="courier new" font-size="8.00" fill="#000000">location</text>
</g>
<!-- [root] azurerm_resource_group.rg&#45;&gt;[root] var.location -->
<g id="edge_1" class="edge">
<title>[root] azurerm_resource_group.rg&#45;&gt;[root] var.location</title>
<path fill="none" stroke="#000000" d="M103.3548,-159.8314C96.1409,-151.454 87.443,-141.3531 79.5395,-132.1749"/>
<polygon fill="#000000" stroke="#000000" points="82.0333,-129.7071 72.8559,-124.4133 76.7289,-134.2748 82.0333,-129.7071"/>
</g>
<!-- [root] azurerm_sql_database.db -->
<g id="node_1" class="node">
<title>[root] azurerm_sql_database.db</title>
<polygon fill="none" stroke="#000000" points="39,-322 39,-337 141,-337 141,-322 39,-322"/>
<text text-anchor="start" x="41.9922" y="-327.6" font-family="courier new" font-size="8.00" fill="#000000">azurerm_sql_database</text>
<polygon fill="none" stroke="#000000" points="39,-307 39,-322 141,-322 141,-307 39,-307"/>
<text text-anchor="start" x="85.1992" y="-312.6" font-family="courier new" font-size="8.00" fill="#000000">db</text>
</g>
<!-- [root] azurerm_sql_server.server -->
<g id="node_3" class="node">
<title>[root] azurerm_sql_server.server</title>
<polygon fill="none" stroke="#000000" points="123,-250 123,-265 215,-265 215,-250 123,-250"/>
<text text-anchor="start" x="125.793" y="-255.6" font-family="courier new" font-size="8.00" fill="#000000">azurerm_sql_server</text>
<polygon fill="none" stroke="#000000" points="123,-235 123,-250 215,-250 215,-235 123,-235"/>
<text text-anchor="start" x="154.5977" y="-240.6" font-family="courier new" font-size="8.00" fill="#000000">server</text>
</g>
<!-- [root] azurerm_sql_database.db&#45;&gt;[root] azurerm_sql_server.server -->
<g id="edge_3" class="edge">
<title>[root] azurerm_sql_database.db&#45;&gt;[root] azurerm_sql_server.server</title>
<path fill="none" stroke="#000000" d="M109.935,-303.8314C119.4783,-295.1337 131.0599,-284.5783 141.4306,-275.1265"/>
<polygon fill="#000000" stroke="#000000" points="144.038,-277.4857 149.0713,-268.1628 139.3228,-272.3121 144.038,-277.4857"/>
</g>
<!-- [root] azurerm_sql_firewall_rule.fw -->
<g id="node_2" class="node">
<title>[root] azurerm_sql_firewall_rule.fw</title>
<polygon fill="none" stroke="#000000" points="63,-394 63,-409 189,-409 189,-394 63,-394"/>
<text text-anchor="start" x="65.9902" y="-399.6" font-family="courier new" font-size="8.00" fill="#000000">azurerm_sql_firewall_rule</text>
<polygon fill="none" stroke="#000000" points="63,-379 63,-394 189,-394 189,-379 63,-379"/>
<text text-anchor="start" x="121.1992" y="-384.6" font-family="courier new" font-size="8.00" fill="#000000">fw</text>
</g>
<!-- [root] azurerm_sql_firewall_rule.fw&#45;&gt;[root] azurerm_sql_server.server -->
<g id="edge_4" class="edge">
<title>[root] azurerm_sql_firewall_rule.fw&#45;&gt;[root] azurerm_sql_server.server</title>
<path fill="none" stroke="#000000" d="M135.2007,-375.8812C140.1418,-365.5716 146.018,-352.298 150,-340 156.5489,-319.7746 161.4246,-296.2465 164.5965,-278.3201"/>
<polygon fill="#000000" stroke="#000000" points="168.0877,-278.6658 166.3088,-268.2214 161.1862,-277.4955 168.0877,-278.6658"/>
</g>
<!-- [root] azurerm_sql_server.server&#45;&gt;[root] azurerm_resource_group.rg -->
<g id="edge_5" class="edge">
<title>[root] azurerm_sql_server.server&#45;&gt;[root] azurerm_resource_group.rg</title>
<path fill="none" stroke="#000000" d="M156.3829,-231.8314C150.6828,-223.6232 143.8337,-213.7606 137.5641,-204.7323"/>
<polygon fill="#000000" stroke="#000000" points="140.3658,-202.6306 131.787,-196.4133 134.6162,-206.6234 140.3658,-202.6306"/>
</g>
<!-- [root] var.sql_admin -->
<g id="node_7" class="node">
<title>[root] var.sql_admin</title>
<polygon fill="none" stroke="#000000" points="197,-178 197,-193 246,-193 246,-178 197,-178"/>
<text text-anchor="start" x="214.2988" y="-183.6" font-family="courier new" font-size="8.00" fill="#000000">var</text>
<polygon fill="none" stroke="#000000" points="197,-163 197,-178 246,-178 246,-163 197,-163"/>
<text text-anchor="start" x="199.8965" y="-168.6" font-family="courier new" font-size="8.00" fill="#000000">sql_admin</text>
</g>
<!-- [root] azurerm_sql_server.server&#45;&gt;[root] var.sql_admin -->
<g id="edge_6" class="edge">
<title>[root] azurerm_sql_server.server&#45;&gt;[root] var.sql_admin</title>
<path fill="none" stroke="#000000" d="M182.1218,-231.8314C188.0499,-223.6232 195.1729,-213.7606 201.6933,-204.7323"/>
<polygon fill="#000000" stroke="#000000" points="204.684,-206.5693 207.7015,-196.4133 199.0092,-202.4708 204.684,-206.5693"/>
</g>
<!-- [root] meta.count&#45;boundary (count boundary fixup) -->
<g id="node_9" class="node">
<title>[root] meta.count&#45;boundary (count boundary fixup)</title>
<polygon fill="none" stroke="#000000" points="188,-466 188,-481 261,-481 261,-466 188,-466"/>
<text text-anchor="start" x="214.8984" y="-471.6" font-family="courier new" font-size="8.00" fill="#000000">meta</text>
<polygon fill="none" stroke="#000000" points="188,-451 188,-466 261,-466 261,-451 188,-451"/>
<text text-anchor="start" x="190.8945" y="-456.6" font-family="courier new" font-size="8.00" fill="#000000">count&#45;boundary</text>
</g>
<!-- [root] meta.count&#45;boundary (count boundary fixup)&#45;&gt;[root] azurerm_sql_firewall_rule.fw -->
<g id="edge_8" class="edge">
<title>[root] meta.count&#45;boundary (count boundary fixup)&#45;&gt;[root] azurerm_sql_firewall_rule.fw</title>
<path fill="none" stroke="#000000" d="M199.2705,-447.8314C187.0838,-438.8779 172.2177,-427.9558 159.0688,-418.2955"/>
<polygon fill="#000000" stroke="#000000" points="160.8527,-415.263 150.7216,-412.1628 156.7082,-420.9042 160.8527,-415.263"/>
</g>
<!-- [root] output.database_name -->
<g id="node_10" class="node">
<title>[root] output.database_name</title>
<polygon fill="none" stroke="#000000" points="207,-394 207,-409 275,-409 275,-394 207,-394"/>
<text text-anchor="start" x="226.5977" y="-399.6" font-family="courier new" font-size="8.00" fill="#000000">output</text>
<polygon fill="none" stroke="#000000" points="207,-379 207,-394 275,-394 275,-379 207,-379"/>
<text text-anchor="start" x="209.7949" y="-384.6" font-family="courier new" font-size="8.00" fill="#000000">database_name</text>
</g>
<!-- [root] meta.count&#45;boundary (count boundary fixup)&#45;&gt;[root] output.database_name -->
<g id="edge_9" class="edge">
<title>[root] meta.count&#45;boundary (count boundary fixup)&#45;&gt;[root] output.database_name</title>
<path fill="none" stroke="#000000" d="M228.2898,-447.8314C230.108,-440.131 232.2699,-430.9743 234.2905,-422.4166"/>
<polygon fill="#000000" stroke="#000000" points="237.7608,-422.95 236.6524,-412.4133 230.9481,-421.3414 237.7608,-422.95"/>
</g>
<!-- [root] output.sql_server_fqdn -->
<g id="node_11" class="node">
<title>[root] output.sql_server_fqdn</title>
<polygon fill="none" stroke="#000000" points="299,-394 299,-409 377,-409 377,-394 299,-394"/>
<text text-anchor="start" x="323.5977" y="-399.6" font-family="courier new" font-size="8.00" fill="#000000">output</text>
<polygon fill="none" stroke="#000000" points="299,-379 299,-394 377,-394 377,-379 299,-379"/>
<text text-anchor="start" x="301.9941" y="-384.6" font-family="courier new" font-size="8.00" fill="#000000">sql_server_fqdn</text>
</g>
<!-- [root] meta.count&#45;boundary (count boundary fixup)&#45;&gt;[root] output.sql_server_fqdn -->
<g id="edge_10" class="edge">
<title>[root] meta.count&#45;boundary (count boundary fixup)&#45;&gt;[root] output.sql_server_fqdn</title>
<path fill="none" stroke="#000000" d="M252.767,-447.8314C267.2133,-438.7074 284.8965,-427.539 300.404,-417.7449"/>
<polygon fill="#000000" stroke="#000000" points="302.6563,-420.462 309.2422,-412.1628 298.9183,-414.5436 302.6563,-420.462"/>
</g>
<!-- [root] provider.azurerm (close) -->
<g id="node_12" class="node">
<title>[root] provider.azurerm (close)</title>
<polygon fill="none" stroke="#000000" points="104,-466 104,-481 148,-481 148,-466 104,-466"/>
<text text-anchor="start" x="106.7969" y="-471.6" font-family="courier new" font-size="8.00" fill="#000000">provider</text>
<polygon fill="none" stroke="#000000" points="104,-451 104,-466 148,-466 148,-451 104,-451"/>
<text text-anchor="start" x="109.1973" y="-456.6" font-family="courier new" font-size="8.00" fill="#000000">azurerm</text>
</g>
<!-- [root] provider.azurerm (close)&#45;&gt;[root] azurerm_sql_database.db -->
<g id="edge_13" class="edge">
<title>[root] provider.azurerm (close)&#45;&gt;[root] azurerm_sql_database.db</title>
<path fill="none" stroke="#000000" d="M98.6722,-456.3298C82.5414,-449.0426 63.4779,-437.3025 54,-420 42.8969,-399.7307 46.4668,-389.8489 54,-368 56.3542,-361.1721 60.1847,-354.5831 64.4879,-348.6285"/>
<polygon fill="#000000" stroke="#000000" points="67.5396,-350.4133 71.0139,-340.4043 62.0563,-346.0622 67.5396,-350.4133"/>
</g>
<!-- [root] provider.azurerm (close)&#45;&gt;[root] azurerm_sql_firewall_rule.fw -->
<g id="edge_14" class="edge">
<title>[root] provider.azurerm (close)&#45;&gt;[root] azurerm_sql_firewall_rule.fw</title>
<path fill="none" stroke="#000000" d="M126,-447.8314C126,-440.131 126,-430.9743 126,-422.4166"/>
<polygon fill="#000000" stroke="#000000" points="129.5001,-422.4132 126,-412.4133 122.5001,-422.4133 129.5001,-422.4132"/>
</g>
<!-- [root] root -->
<g id="node_13" class="node">
<title>[root] root</title>
<polygon fill="none" stroke="#000000" points="201.3089,-556 132.6911,-556 132.6911,-520 201.3089,-520 201.3089,-556"/>
<text text-anchor="middle" x="167" y="-536.1313" font-family="courier new" font-size="8.00" fill="#000000">[root] root</text>
</g>
<!-- [root] root&#45;&gt;[root] meta.count&#45;boundary (count boundary fixup) -->
<g id="edge_15" class="edge">
<title>[root] root&#45;&gt;[root] meta.count&#45;boundary (count boundary fixup)</title>
<path fill="none" stroke="#000000" d="M181.3835,-519.8314C187.9486,-511.5386 195.8507,-501.557 203.0578,-492.4533"/>
<polygon fill="#000000" stroke="#000000" points="205.9599,-494.4262 209.4228,-484.4133 200.4716,-490.0813 205.9599,-494.4262"/>
</g>
<!-- [root] root&#45;&gt;[root] provider.azurerm (close) -->
<g id="edge_16" class="edge">
<title>[root] root&#45;&gt;[root] provider.azurerm (close)</title>
<path fill="none" stroke="#000000" d="M156.654,-519.8314C152.0763,-511.7925 146.5948,-502.1666 141.5412,-493.2918"/>
<polygon fill="#000000" stroke="#000000" points="144.4752,-491.3712 136.4853,-484.4133 138.3923,-494.8351 144.4752,-491.3712"/>
</g>
<!-- [root] var.resource_group -->
<g id="node_6" class="node">
<title>[root] var.resource_group</title>
<polygon fill="none" stroke="#000000" points="17,-34 17,-49 90,-49 90,-34 17,-34"/>
<text text-anchor="start" x="46.2988" y="-39.6" font-family="courier new" font-size="8.00" fill="#000000">var</text>
<polygon fill="none" stroke="#000000" points="17,-19 17,-34 90,-34 90,-19 17,-19"/>
<text text-anchor="start" x="19.8945" y="-24.6" font-family="courier new" font-size="8.00" fill="#000000">resource_group</text>
</g>
<!-- [root] var.location&#45;&gt;[root] var.resource_group -->
<g id="edge_17" class="edge">
<title>[root] var.location&#45;&gt;[root] var.resource_group</title>
<path fill="none" stroke="#000000" stroke-dasharray="5,2" d="M55.9906,-87.8314C55.3889,-77 54.6271,-63.2876 54.023,-52.4133"/>
</g>
<!-- [root] var.sql_password -->
<g id="node_8" class="node">
<title>[root] var.sql_password</title>
<polygon fill="none" stroke="#000000" points="192,-106 192,-121 255,-121 255,-106 192,-106"/>
<text text-anchor="start" x="216.2988" y="-111.6" font-family="courier new" font-size="8.00" fill="#000000">var</text>
<polygon fill="none" stroke="#000000" points="192,-91 192,-106 255,-106 255,-91 192,-91"/>
<text text-anchor="start" x="194.6953" y="-96.6" font-family="courier new" font-size="8.00" fill="#000000">sql_password</text>
</g>
<!-- [root] var.sql_admin&#45;&gt;[root] var.sql_password -->
<g id="edge_18" class="edge">
<title>[root] var.sql_admin&#45;&gt;[root] var.sql_password</title>
<path fill="none" stroke="#000000" stroke-dasharray="5,2" d="M221.5047,-159.8314C221.8056,-149 222.1865,-135.2876 222.4885,-124.4133"/>
</g>
<!-- [root] output.database_name&#45;&gt;[root] azurerm_sql_database.db -->
<g id="edge_11" class="edge">
<title>[root] output.database_name&#45;&gt;[root] azurerm_sql_database.db</title>
<path fill="none" stroke="#000000" d="M212.1721,-375.8105C207.4962,-373.0813 202.659,-370.3857 198,-368 181.3168,-359.4573 162.6818,-351.1157 145.6506,-343.9333"/>
<polygon fill="#000000" stroke="#000000" points="146.9533,-340.6844 136.3764,-340.0684 144.2606,-347.1458 146.9533,-340.6844"/>
</g>
<!-- [root] output.sql_server_fqdn&#45;&gt;[root] azurerm_sql_server.server -->
<g id="edge_12" class="edge">
<title>[root] output.sql_server_fqdn&#45;&gt;[root] azurerm_sql_server.server</title>
<path fill="none" stroke="#000000" d="M316.596,-375.7623C286.5008,-350.119 231.5971,-303.3372 197.9016,-274.6262"/>
<polygon fill="#000000" stroke="#000000" points="200.1118,-271.9112 190.2302,-268.0896 195.5718,-277.2394 200.1118,-271.9112"/>
</g>
</g>
</svg>

