<?xml version="1.0" encoding="UTF-8" standalone="no"?>
<!DOCTYPE svg PUBLIC "-//W3C//DTD SVG 1.1//EN"
 "http://www.w3.org/Graphics/SVG/1.1/DTD/svg11.dtd">
<!-- Generated by graphviz version 2.40.1 (20161225.0304)
 -->
<!-- Title: %3 Pages: 1 -->
<svg width="369pt" height="476pt"
 viewBox="0.00 0.00 369.00 476.00" xmlns="http://www.w3.org/2000/svg" xmlns:xlink="http://www.w3.org/1999/xlink">
<g id="graph0" class="graph" transform="scale(1 1) rotate(0) translate(4 472)">
<title>%3</title>
<polygon fill="#ffffff" stroke="transparent" points="-4,4 -4,-472 365,-472 365,4 -4,4"/>
<!-- [root] azurerm_resource_group.rg -->
<g id="node_0" class="node">
<title>[root] azurerm_resource_group.rg</title>
<polygon fill="none" stroke="#000000" points="44,-90 44,-105 155,-105 155,-90 44,-90"/>
<text text-anchor="start" x="46.6914" y="-95.6" font-family="courier new" font-size="8.00" fill="#000000">azurerm_resource_group</text>
<polygon fill="none" stroke="#000000" points="44,-75 44,-90 155,-90 155,-75 44,-75"/>
<text text-anchor="start" x="94.6992" y="-80.6" font-family="courier new" font-size="8.00" fill="#000000">rg</text>
</g>
<!-- [root] provider.azurerm -->
<g id="node_4" class="node">
<title>[root] provider.azurerm</title>
<polygon fill="none" stroke="#000000" points="5,-18 5,-33 49,-33 49,-18 5,-18"/>
<text text-anchor="start" x="7.7969" y="-23.6" font-family="courier new" font-size="8.00" fill="#000000">provider</text>
<polygon fill="none" stroke="#000000" points="5,-3 5,-18 49,-18 49,-3 5,-3"/>
<text text-anchor="start" x="10.1973" y="-8.6" font-family="courier new" font-size="8.00" fill="#000000">azurerm</text>
</g>
<!-- [root] azurerm_resource_group.rg&#45;&gt;[root] provider.azurerm -->
<g id="edge_0" class="edge">
<title>[root] azurerm_resource_group.rg&#45;&gt;[root] provider.azurerm</title>
<path fill="none" stroke="#000000" d="M80.8314,-71.8314C72.2848,-63.2848 61.9443,-52.9443 52.6198,-43.6198"/>
<polygon fill="#000000" stroke="#000000" points="54.9592,-41.0095 45.4133,-36.4133 50.0095,-45.9592 54.9592,-41.0095"/>
</g>
<!-- [root] var.location -->
<g id="node_5" class="node">
<title>[root] var.location</title>
<polygon fill="none" stroke="#000000" points="77,-18 77,-33 121,-33 121,-18 77,-18"/>
<text text-anchor="start" x="91.7988" y="-23.6" font-family="courier new" font-size="8.00" fill="#000000">var</text>
<polygon fill="none" stroke="#000000" points="77,-3 77,-18 121,-18 121,-3 77,-3"/>
<text text-anchor="start" x="79.7969" y="-8.6" font-family="courier new" font-size="8.00" fill="#000000">location</text>
</g>
<!-- [root] azurerm_resource_group.rg&#45;&gt;[root] var.location -->
<g id="edge_1" class="edge">
<title>[root] azurerm_resource_group.rg&#45;&gt;[root] var.location</title>
<path fill="none" stroke="#000000" d="M99,-71.8314C99,-64.131 99,-54.9743 99,-46.4166"/>
<polygon fill="#000000" stroke="#000000" points="102.5001,-46.4132 99,-36.4133 95.5001,-46.4133 102.5001,-46.4132"/>
</g>
<!-- [root] var.resource_group -->
<g id="node_6" class="node">
<title>[root] var.resource_group</title>
<polygon fill="none" stroke="#000000" points="145,-18 145,-33 218,-33 218,-18 145,-18"/>
<text text-anchor="start" x="174.2988" y="-23.6" font-family="courier new" font-size="8.00" fill="#000000">var</text>
<polygon fill="none" stroke="#000000" points="145,-3 145,-18 218,-18 218,-3 145,-3"/>
<text text-anchor="start" x="147.8945" y="-8.6" font-family="courier new" font-size="8.00" fill="#000000">resource_group</text>
</g>
<!-- [root] azurerm_resource_group.rg&#45;&gt;[root] var.resource_group -->
<g id="edge_2" class="edge">
<title>[root] azurerm_resource_group.rg&#45;&gt;[root] var.resource_group</title>
<path fill="none" stroke="#000000" d="M119.6921,-71.8314C129.6948,-63.0485 141.855,-52.3712 152.6999,-42.8489"/>
<polygon fill="#000000" stroke="#000000" points="155.1094,-45.3909 160.3146,-36.1628 150.4908,-40.1308 155.1094,-45.3909"/>
</g>
<!-- [root] azurerm_sql_database.db -->
<g id="node_1" class="node">
<title>[root] azurerm_sql_database.db</title>
<polygon fill="none" stroke="#000000" points="70,-234 70,-249 172,-249 172,-234 70,-234"/>
<text text-anchor="start" x="72.9922" y="-239.6" font-family="courier new" font-size="8.00" fill="#000000">azurerm_sql_database</text>
<polygon fill="none" stroke="#000000" points="70,-219 70,-234 172,-234 172,-219 70,-219"/>
<text text-anchor="start" x="116.1992" y="-224.6" font-family="courier new" font-size="8.00" fill="#000000">db</text>
</g>
<!-- [root] azurerm_sql_server.server -->
<g id="node_3" class="node">
<title>[root] azurerm_sql_server.server</title>
<polygon fill="none" stroke="#000000" points="154,-162 154,-177 246,-177 246,-162 154,-162"/>
<text text-anchor="start" x="156.793" y="-167.6" font-family="courier new" font-size="8.00" fill="#000000">azurerm_sql_server</text>
<polygon fill="none" stroke="#000000" points="154,-147 154,-162 246,-162 246,-147 154,-147"/>
<text text-anchor="start" x="185.5977" y="-152.6" font-family="courier new" font-size="8.00" fill="#000000">server</text>
</g>
<!-- [root] azurerm_sql_database.db&#45;&gt;[root] azurerm_sql_server.server -->
<g id="edge_3" class="edge">
<title>[root] azurerm_sql_database.db&#45;&gt;[root] azurerm_sql_server.server</title>
<path fill="none" stroke="#000000" d="M140.935,-215.8314C150.4783,-207.1337 162.0599,-196.5783 172.4306,-187.1265"/>
<polygon fill="#000000" stroke="#000000" points="175.038,-189.4857 180.0713,-180.1628 170.3228,-184.3121 175.038,-189.4857"/>
</g>
<!-- [root] azurerm_sql_firewall_rule.fw -->
<g id="node_2" class="node">
<title>[root] azurerm_sql_firewall_rule.fw</title>
<polygon fill="none" stroke="#000000" points="110,-306 110,-321 236,-321 236,-306 110,-306"/>
<text text-anchor="start" x="112.9902" y="-311.6" font-family="courier new" font-size="8.00" fill="#000000">azurerm_sql_firewall_rule</text>
<polygon fill="none" stroke="#000000" points="110,-291 110,-306 236,-306 236,-291 110,-291"/>
<text text-anchor="start" x="168.1992" y="-296.6" font-family="courier new" font-size="8.00" fill="#000000">fw</text>
</g>
<!-- [root] azurerm_sql_firewall_rule.fw&#45;&gt;[root] azurerm_sql_server.server -->
<g id="edge_4" class="edge">
<title>[root] azurerm_sql_firewall_rule.fw&#45;&gt;[root] azurerm_sql_server.server</title>
<path fill="none" stroke="#000000" d="M176.4196,-287.7623C181.0451,-263.0928 189.3388,-218.8598 194.755,-189.9731"/>
<polygon fill="#000000" stroke="#000000" points="198.2053,-190.5634 196.6082,-180.0896 191.3252,-189.2733 198.2053,-190.5634"/>
</g>
<!-- [root] azurerm_sql_server.server&#45;&gt;[root] azurerm_resource_group.rg -->
<g id="edge_5" class="edge">
<title>[root] azurerm_sql_server.server&#45;&gt;[root] azurerm_resource_group.rg</title>
<path fill="none" stroke="#000000" d="M174.5134,-143.8314C161.8341,-134.7927 146.3404,-123.7476 132.6945,-114.0198"/>
<polygon fill="#000000" stroke="#000000" points="134.6529,-111.1176 124.4784,-108.1628 130.5895,-116.8176 134.6529,-111.1176"/>
</g>
<!-- [root] var.sql_admin -->
<g id="node_7" class="node">
<title>[root] var.sql_admin</title>
<polygon fill="none" stroke="#000000" points="176,-90 176,-105 225,-105 225,-90 176,-90"/>
<text text-anchor="start" x="193.2988" y="-95.6" font-family="courier new" font-size="8.00" fill="#000000">var</text>
<polygon fill="none" stroke="#000000" points="176,-75 176,-90 225,-90 225,-75 176,-75"/>
<text text-anchor="start" x="178.8965" y="-80.6" font-family="courier new" font-size="8.00" fill="#000000">sql_admin</text>
</g>
<!-- [root] azurerm_sql_server.server&#45;&gt;[root] var.sql_admin -->
<g id="edge_6" class="edge">
<title>[root] azurerm_sql_server.server&#45;&gt;[root] var.sql_admin</title>
<path fill="none" stroke="#000000" d="M200,-143.8314C200,-136.131 200,-126.9743 200,-118.4166"/>
<polygon fill="#000000" stroke="#000000" points="203.5001,-118.4132 200,-108.4133 196.5001,-118.4133 203.5001,-118.4132"/>
</g>
<!-- [root] var.sql_password -->
<g id="node_8" class="node">
<title>[root] var.sql_password</title>
<polygon fill="none" stroke="#000000" points="246,-90 246,-105 309,-105 309,-90 246,-90"/>
<text text-anchor="start" x="270.2988" y="-95.6" font-family="courier new" font-size="8.00" fill="#000000">var</text>
<polygon fill="none" stroke="#000000" points="246,-75 246,-90 309,-90 309,-75 246,-75"/>
<text text-anchor="start" x="248.6953" y="-80.6" font-family="courier new" font-size="8.00" fill="#000000">sql_password</text>
</g>
<!-- [root] azurerm_sql_server.server&#45;&gt;[root] var.sql_password -->
<g id="edge_7" class="edge">
<title>[root] azurerm_sql_server.server&#45;&gt;[root] var.sql_password</title>
<path fill="none" stroke="#000000" d="M219.4304,-143.8314C228.732,-135.1337 240.0204,-124.5783 250.1286,-115.1265"/>
<polygon fill="#000000" stroke="#000000" points="252.6621,-117.5493 257.5759,-108.1628 247.8811,-112.4363 252.6621,-117.5493"/>
</g>
<!-- [root] meta.count&#45;boundary (count boundary fixup) -->
<g id="node_9" class="node">
<title>[root] meta.count&#45;boundary (count boundary fixup)</title>
<polygon fill="none" stroke="#000000" points="235,-378 235,-393 308,-393 308,-378 235,-378"/>
<text text-anchor="start" x="261.8984" y="-383.6" font-family="courier new" font-size="8.00" fill="#000000">meta</text>
<polygon fill="none" stroke="#000000" points="235,-363 235,-378 308,-378 308,-363 235,-363"/>
<text text-anchor="start" x="237.8945" y="-368.6" font-family="courier new" font-size="8.00" fill="#000000">count&#45;boundary</text>
</g>
<!-- [root] meta.count&#45;boundary (count boundary fixup)&#45;&gt;[root] azurerm_sql_firewall_rule.fw -->
<g id="edge_8" class="edge">
<title>[root] meta.count&#45;boundary (count boundary fixup)&#45;&gt;[root] azurerm_sql_firewall_rule.fw</title>
<path fill="none" stroke="#000000" d="M246.2705,-359.8314C234.0838,-350.8779 219.2177,-339.9558 206.0688,-330.2955"/>
<polygon fill="#000000" stroke="#000000" points="207.8527,-327.263 197.7216,-324.1628 203.7082,-332.9042 207.8527,-327.263"/>
</g>
<!-- [root] output.database_name -->
<g id="node_10" class="node">
<title>[root] output.database_name</title>
<polygon fill="none" stroke="#000000" points="254,-306 254,-321 322,-321 322,-306 254,-306"/>
<text text-anchor="start" x="273.5977" y="-311.6" font-family="courier new" font-size="8.00" fill="#000000">output</text>
<polygon fill="none" stroke="#000000" points="254,-291 254,-306 322,-306 322,-291 254,-291"/>
<text text-anchor="start" x="256.7949" y="-296.6" font-family="courier new" font-size="8.00" fill="#000000">database_name</text>
</g>
<!-- [root] meta.count&#45;boundary (count boundary fixup)&#45;&gt;[root] output.database_name -->
<g id="edge_9" class="edge">
<title>[root] meta.count&#45;boundary (count boundary fixup)&#45;&gt;[root] output.database_name</title>
<path fill="none" stroke="#000000" d="M275.2898,-359.8314C277.108,-352.131 279.2699,-342.9743 281.2905,-334.4166"/>
<polygon fill="#000000" stroke="#000000" points="284.7608,-334.95 283.6524,-324.4133 277.9481,-333.3414 284.7608,-334.95"/>
</g>
<!-- [root] output.sql_server_fqdn -->
<g id="node_11" class="node">
<title>[root] output.sql_server_fqdn</title>
<polygon fill="none" stroke="#000000" points="283,-234 283,-249 361,-249 361,-234 283,-234"/>
<text text-anchor="start" x="307.5977" y="-239.6" font-family="courier new" font-size="8.00" fill="#000000">output</text>
<polygon fill="none" stroke="#000000" points="283,-219 283,-234 361,-234 361,-219 283,-219"/>
<text text-anchor="start" x="285.9941" y="-224.6" font-family="courier new" font-size="8.00" fill="#000000">sql_server_fqdn</text>
</g>
<!-- [root] meta.count&#45;boundary (count boundary fixup)&#45;&gt;[root] output.sql_server_fqdn -->
<g id="edge_10" class="edge">
<title>[root] meta.count&#45;boundary (count boundary fixup)&#45;&gt;[root] output.sql_server_fqdn</title>
<path fill="none" stroke="#000000" d="M300.2184,-359.8172C312.1119,-350.6828 324.5573,-338.4662 331,-324 339.6919,-304.4835 336.6029,-280.2908 331.8001,-261.9048"/>
<polygon fill="#000000" stroke="#000000" points="335.0977,-260.7109 328.9354,-252.0926 328.3783,-262.6728 335.0977,-260.7109"/>
</g>
<!-- [root] output.database_name&#45;&gt;[root] azurerm_sql_database.db -->
<g id="edge_11" class="edge">
<title>[root] output.database_name&#45;&gt;[root] azurerm_sql_database.db</title>
<path fill="none" stroke="#000000" d="M253.8021,-291.256C230.3452,-281.1428 198.8011,-267.543 172.3419,-256.1354"/>
<polygon fill="#000000" stroke="#000000" points="173.4168,-252.7875 162.8482,-252.0423 170.6454,-259.2155 173.4168,-252.7875"/>
</g>
<!-- [root] output.sql_server_fqdn&#45;&gt;[root] azurerm_sql_server.server -->
<g id="edge_12" class="edge">
<title>[root] output.sql_server_fqdn&#45;&gt;[root] azurerm_sql_server.server</title>
<path fill="none" stroke="#000000" d="M291.2142,-215.8314C275.6097,-206.6221 256.476,-195.3301 239.7697,-185.4706"/>
<polygon fill="#000000" stroke="#000000" points="241.1669,-182.2312 230.7759,-180.1628 237.6091,-188.2596 241.1669,-182.2312"/>
</g>
<!-- [root] provider.azurerm (close) -->
<g id="node_12" class="node">
<title>[root] provider.azurerm (close)</title>
<polygon fill="none" stroke="#000000" points="151,-378 151,-393 195,-393 195,-378 151,-378"/>
<text text-anchor="start" x="153.7969" y="-383.6" font-family="courier new" font-size="8.00" fill="#000000">provider</text>
<polygon fill="none" stroke="#000000" points="151,-363 151,-378 195,-378 195,-363 151,-363"/>
<text text-anchor="start" x="156.1973" y="-368.6" font-family="courier new" font-size="8.00" fill="#000000">azurerm</text>
</g>
<!-- [root] provider.azurerm (close)&#45;&gt;[root] azurerm_sql_database.db -->
<g id="edge_13" class="edge">
<title>[root] provider.azurerm (close)&#45;&gt;[root] azurerm_sql_database.db</title>
<path fill="none" stroke="#000000" d="M145.9091,-365.6565C129.6517,-356.6445 110.3635,-342.7271 101,-324 91.1251,-304.2502 97.7008,-279.6507 105.8649,-261.1635"/>
<polygon fill="#000000" stroke="#000000" points="109.0374,-262.642 110.2002,-252.1111 102.7241,-259.6183 109.0374,-262.642"/>
</g>
<!-- [root] provider.azurerm (close)&#45;&gt;[root] azurerm_sql_firewall_rule.fw -->
<g id="edge_14" class="edge">
<title>[root] provider.azurerm (close)&#45;&gt;[root] azurerm_sql_firewall_rule.fw</title>
<path fill="none" stroke="#000000" d="M173,-359.8314C173,-352.131 173,-342.9743 173,-334.4166"/>
<polygon fill="#000000" stroke="#000000" points="176.5001,-334.4132 173,-324.4133 169.5001,-334.4133 176.5001,-334.4132"/>
</g>
<!-- [root] root -->
<g id="node_13" class="node">
<title>[root] root</title>
<polygon fill="none" stroke="#000000" points="248.3089,-468 179.6911,-468 179.6911,-432 248.3089,-432 248.3089,-468"/>
<text text-anchor="middle" x="214" y="-448.1313" font-family="courier new" font-size="8.00" fill="#000000">[root] root</text>
</g>
<!-- [root] root&#45;&gt;[root] meta.count&#45;boundary (count boundary fixup) -->
<g id="edge_15" class="edge">
<title>[root] root&#45;&gt;[root] meta.count&#45;boundary (count boundary fixup)</title>
<path fill="none" stroke="#000000" d="M228.3835,-431.8314C234.9486,-423.5386 242.8507,-413.557 250.0578,-404.4533"/>
<polygon fill="#000000" stroke="#000000" points="252.9599,-406.4262 256.4228,-396.4133 247.4716,-402.0813 252.9599,-406.4262"/>
</g>
<!-- [root] root&#45;&gt;[root] provider.azurerm (close) -->
<g id="edge_16" class="edge">
<title>[root] root&#45;&gt;[root] provider.azurerm (close)</title>
<path fill="none" stroke="#000000" d="M203.654,-431.8314C199.0763,-423.7925 193.5948,-414.1666 188.5412,-405.2918"/>
<polygon fill="#000000" stroke="#000000" points="191.4752,-403.3712 183.4853,-396.4133 185.3923,-406.8351 191.4752,-403.3712"/>
</g>
</g>
</svg>

