<?xml version="1.0" encoding="UTF-8" standalone="no"?>
<!DOCTYPE svg PUBLIC "-//W3C//DTD SVG 1.1//EN"
 "http://www.w3.org/Graphics/SVG/1.1/DTD/svg11.dtd">
<!-- Generated by graphviz version 2.40.1 (20161225.0304)
 -->
<!-- Title: %3 Pages: 1 -->
<svg width="706pt" height="708pt"
 viewBox="0.00 0.00 706.00 708.00" xmlns="http://www.w3.org/2000/svg" xmlns:xlink="http://www.w3.org/1999/xlink">
<g id="graph0" class="graph" transform="scale(1 1) rotate(0) translate(4 704)">
<title>%3</title>
<polygon fill="#ffffff" stroke="transparent" points="-4,4 -4,-704 702,-704 702,4 -4,4"/>
<g id="clust2" class="cluster">
<title>cluster[root] azurerm_public_ip.pip_var_</title>
</g>
<g id="clust3" class="cluster">
<title>cluster[root] azurerm_resource_group.rg_var_</title>
</g>
<g id="clust4" class="cluster">
<title>cluster[root] azurerm_storage_account.stor_var_</title>
</g>
<g id="clust5" class="cluster">
<title>cluster[root] azurerm_virtual_machine_scale_set.scaleset_var_</title>
</g>
<g id="clust6" class="cluster">
<title>cluster[root] meta.count&#45;boundary (count boundary fixup)_output_[root] var.vmss_name</title>
</g>
<!-- [root] azurerm_lb.lb -->
<g id="node_0" class="node">
<title>[root] azurerm_lb.lb</title>
<polygon fill="none" stroke="#000000" points="286,-394 286,-409 340,-409 340,-394 286,-394"/>
<text text-anchor="start" x="288.9961" y="-399.6" font-family="courier new" font-size="8.00" fill="#000000">azurerm_lb</text>
<polygon fill="none" stroke="#000000" points="286,-379 286,-394 340,-394 340,-379 286,-379"/>
<text text-anchor="start" x="308.1992" y="-384.6" font-family="courier new" font-size="8.00" fill="#000000">lb</text>
</g>
<!-- [root] azurerm_public_ip.pip -->
<g id="node_3" class="node">
<title>[root] azurerm_public_ip.pip</title>
<polygon fill="none" stroke="#000000" points="277,-322 277,-337 364,-337 364,-322 277,-322"/>
<text text-anchor="start" x="279.6934" y="-327.6" font-family="courier new" font-size="8.00" fill="#000000">azurerm_public_ip</text>
<polygon fill="none" stroke="#000000" points="277,-307 277,-322 364,-322 364,-307 277,-307"/>
<text text-anchor="start" x="313.2988" y="-312.6" font-family="courier new" font-size="8.00" fill="#000000">pip</text>
</g>
<!-- [root] azurerm_lb.lb&#45;&gt;[root] azurerm_public_ip.pip -->
<g id="edge_0" class="edge">
<title>[root] azurerm_lb.lb&#45;&gt;[root] azurerm_public_ip.pip</title>
<path fill="none" stroke="#000000" d="M314.7664,-375.8314C315.515,-368.131 316.4053,-358.9743 317.2373,-350.4166"/>
<polygon fill="#000000" stroke="#000000" points="320.7256,-350.7051 318.2098,-340.4133 313.7585,-350.0276 320.7256,-350.7051"/>
</g>
<!-- [root] azurerm_lb_backend_address_pool.backlb -->
<g id="node_1" class="node">
<title>[root] azurerm_lb_backend_address_pool.backlb</title>
<polygon fill="none" stroke="#000000" points="236,-466 236,-481 390,-481 390,-466 236,-466"/>
<text text-anchor="start" x="238.5879" y="-471.6" font-family="courier new" font-size="8.00" fill="#000000">azurerm_lb_backend_address_pool</text>
<polygon fill="none" stroke="#000000" points="236,-451 236,-466 390,-466 390,-451 236,-451"/>
<text text-anchor="start" x="298.5977" y="-456.6" font-family="courier new" font-size="8.00" fill="#000000">backlb</text>
</g>
<!-- [root] azurerm_lb_backend_address_pool.backlb&#45;&gt;[root] azurerm_lb.lb -->
<g id="edge_1" class="edge">
<title>[root] azurerm_lb_backend_address_pool.backlb&#45;&gt;[root] azurerm_lb.lb</title>
<path fill="none" stroke="#000000" d="M313,-447.8314C313,-440.131 313,-430.9743 313,-422.4166"/>
<polygon fill="#000000" stroke="#000000" points="316.5001,-422.4132 313,-412.4133 309.5001,-422.4133 316.5001,-422.4132"/>
</g>
<!-- [root] azurerm_lb_nat_pool.np -->
<g id="node_2" class="node">
<title>[root] azurerm_lb_nat_pool.np</title>
<polygon fill="none" stroke="#000000" points="121,-466 121,-481 218,-481 218,-466 121,-466"/>
<text text-anchor="start" x="123.8926" y="-471.6" font-family="courier new" font-size="8.00" fill="#000000">azurerm_lb_nat_pool</text>
<polygon fill="none" stroke="#000000" points="121,-451 121,-466 218,-466 218,-451 121,-451"/>
<text text-anchor="start" x="164.6992" y="-456.6" font-family="courier new" font-size="8.00" fill="#000000">np</text>
</g>
<!-- [root] azurerm_lb_nat_pool.np&#45;&gt;[root] azurerm_lb.lb -->
<g id="edge_2" class="edge">
<title>[root] azurerm_lb_nat_pool.np&#45;&gt;[root] azurerm_lb.lb</title>
<path fill="none" stroke="#000000" d="M205.3373,-447.8314C227.2083,-436.8959 254.9528,-423.0236 276.7992,-412.1004"/>
<polygon fill="#000000" stroke="#000000" points="278.3876,-415.2194 285.7666,-407.6167 275.257,-408.9584 278.3876,-415.2194"/>
</g>
<!-- [root] azurerm_resource_group.rg -->
<g id="node_4" class="node">
<title>[root] azurerm_resource_group.rg</title>
<polygon fill="none" stroke="#000000" points="374,-250 374,-265 485,-265 485,-250 374,-250"/>
<text text-anchor="start" x="376.6914" y="-255.6" font-family="courier new" font-size="8.00" fill="#000000">azurerm_resource_group</text>
<polygon fill="none" stroke="#000000" points="374,-235 374,-250 485,-250 485,-235 374,-235"/>
<text text-anchor="start" x="424.6992" y="-240.6" font-family="courier new" font-size="8.00" fill="#000000">rg</text>
</g>
<!-- [root] azurerm_public_ip.pip&#45;&gt;[root] azurerm_resource_group.rg -->
<g id="edge_3" class="edge">
<title>[root] azurerm_public_ip.pip&#45;&gt;[root] azurerm_resource_group.rg</title>
<path fill="none" stroke="#000000" d="M347.5053,-303.8314C361.318,-294.7074 378.2256,-283.539 393.0529,-273.7449"/>
<polygon fill="#000000" stroke="#000000" points="395.0886,-276.5949 401.5035,-268.1628 391.2304,-270.7541 395.0886,-276.5949"/>
</g>
<!-- [root] var.hostname -->
<g id="node_11" class="node">
<title>[root] var.hostname</title>
<polygon fill="none" stroke="#000000" points="298,-250 298,-265 342,-265 342,-250 298,-250"/>
<text text-anchor="start" x="312.7988" y="-255.6" font-family="courier new" font-size="8.00" fill="#000000">var</text>
<polygon fill="none" stroke="#000000" points="298,-235 298,-250 342,-250 342,-235 298,-235"/>
<text text-anchor="start" x="300.7969" y="-240.6" font-family="courier new" font-size="8.00" fill="#000000">hostname</text>
</g>
<!-- [root] azurerm_public_ip.pip&#45;&gt;[root] var.hostname -->
<g id="edge_4" class="edge">
<title>[root] azurerm_public_ip.pip&#45;&gt;[root] var.hostname</title>
<path fill="none" stroke="#000000" d="M320,-303.8314C320,-296.131 320,-286.9743 320,-278.4166"/>
<polygon fill="#000000" stroke="#000000" points="323.5001,-278.4132 320,-268.4133 316.5001,-278.4133 323.5001,-278.4132"/>
</g>
<!-- [root] provider.azurerm -->
<g id="node_10" class="node">
<title>[root] provider.azurerm</title>
<polygon fill="none" stroke="#000000" points="445,-178 445,-193 489,-193 489,-178 445,-178"/>
<text text-anchor="start" x="447.7969" y="-183.6" font-family="courier new" font-size="8.00" fill="#000000">provider</text>
<polygon fill="none" stroke="#000000" points="445,-163 445,-178 489,-178 489,-163 445,-163"/>
<text text-anchor="start" x="450.1973" y="-168.6" font-family="courier new" font-size="8.00" fill="#000000">azurerm</text>
</g>
<!-- [root] azurerm_resource_group.rg&#45;&gt;[root] provider.azurerm -->
<g id="edge_5" class="edge">
<title>[root] azurerm_resource_group.rg&#45;&gt;[root] provider.azurerm</title>
<path fill="none" stroke="#000000" d="M438.589,-231.8314C442.8317,-223.7925 447.9121,-214.1666 452.596,-205.2918"/>
<polygon fill="#000000" stroke="#000000" points="455.7096,-206.8908 457.2819,-196.4133 449.5189,-203.6235 455.7096,-206.8908"/>
</g>
<!-- [root] var.location -->
<g id="node_12" class="node">
<title>[root] var.location</title>
<polygon fill="none" stroke="#000000" points="369,-178 369,-193 413,-193 413,-178 369,-178"/>
<text text-anchor="start" x="383.7988" y="-183.6" font-family="courier new" font-size="8.00" fill="#000000">var</text>
<polygon fill="none" stroke="#000000" points="369,-163 369,-178 413,-178 413,-163 369,-163"/>
<text text-anchor="start" x="371.7969" y="-168.6" font-family="courier new" font-size="8.00" fill="#000000">location</text>
</g>
<!-- [root] azurerm_resource_group.rg&#45;&gt;[root] var.location -->
<g id="edge_6" class="edge">
<title>[root] azurerm_resource_group.rg&#45;&gt;[root] var.location</title>
<path fill="none" stroke="#000000" d="M419.411,-231.8314C415.1683,-223.7925 410.0879,-214.1666 405.404,-205.2918"/>
<polygon fill="#000000" stroke="#000000" points="408.4811,-203.6235 400.7181,-196.4133 402.2904,-206.8908 408.4811,-203.6235"/>
</g>
<!-- [root] azurerm_storage_account.stor -->
<g id="node_5" class="node">
<title>[root] azurerm_storage_account.stor</title>
<polygon fill="none" stroke="#000000" points="505,-394 505,-409 621,-409 621,-394 505,-394"/>
<text text-anchor="start" x="507.791" y="-399.6" font-family="courier new" font-size="8.00" fill="#000000">azurerm_storage_account</text>
<polygon fill="none" stroke="#000000" points="505,-379 505,-394 621,-394 621,-379 505,-379"/>
<text text-anchor="start" x="553.3984" y="-384.6" font-family="courier new" font-size="8.00" fill="#000000">stor</text>
</g>
<!-- [root] azurerm_storage_account.stor&#45;&gt;[root] azurerm_resource_group.rg -->
<g id="edge_8" class="edge">
<title>[root] azurerm_storage_account.stor&#45;&gt;[root] azurerm_resource_group.rg</title>
<path fill="none" stroke="#000000" d="M527.2289,-375.8504C514.5519,-368.3373 500.7744,-358.834 490,-348 469.4119,-327.2979 452.5011,-298.4198 441.7498,-277.3761"/>
<polygon fill="#000000" stroke="#000000" points="444.8339,-275.7171 437.2524,-268.3163 438.5639,-278.8296 444.8339,-275.7171"/>
</g>
<!-- [root] var.storage_account_tier -->
<g id="node_14" class="node">
<title>[root] var.storage_account_tier</title>
<polygon fill="none" stroke="#000000" points="512,-322 512,-337 614,-337 614,-322 512,-322"/>
<text text-anchor="start" x="555.7988" y="-327.6" font-family="courier new" font-size="8.00" fill="#000000">var</text>
<polygon fill="none" stroke="#000000" points="512,-307 512,-322 614,-322 614,-307 512,-307"/>
<text text-anchor="start" x="514.9922" y="-312.6" font-family="courier new" font-size="8.00" fill="#000000">storage_account_tier</text>
</g>
<!-- [root] azurerm_storage_account.stor&#45;&gt;[root] var.storage_account_tier -->
<g id="edge_9" class="edge">
<title>[root] azurerm_storage_account.stor&#45;&gt;[root] var.storage_account_tier</title>
<path fill="none" stroke="#000000" d="M563,-375.8314C563,-368.131 563,-358.9743 563,-350.4166"/>
<polygon fill="#000000" stroke="#000000" points="566.5001,-350.4132 563,-340.4133 559.5001,-350.4133 566.5001,-350.4132"/>
</g>
<!-- [root] azurerm_storage_container.vhds -->
<g id="node_6" class="node">
<title>[root] azurerm_storage_container.vhds</title>
<polygon fill="none" stroke="#000000" points="500,-466 500,-481 626,-481 626,-466 500,-466"/>
<text text-anchor="start" x="502.9902" y="-471.6" font-family="courier new" font-size="8.00" fill="#000000">azurerm_storage_container</text>
<polygon fill="none" stroke="#000000" points="500,-451 500,-466 626,-466 626,-451 500,-451"/>
<text text-anchor="start" x="553.3984" y="-456.6" font-family="courier new" font-size="8.00" fill="#000000">vhds</text>
</g>
<!-- [root] azurerm_storage_container.vhds&#45;&gt;[root] azurerm_storage_account.stor -->
<g id="edge_11" class="edge">
<title>[root] azurerm_storage_container.vhds&#45;&gt;[root] azurerm_storage_account.stor</title>
<path fill="none" stroke="#000000" d="M563,-447.8314C563,-440.131 563,-430.9743 563,-422.4166"/>
<polygon fill="#000000" stroke="#000000" points="566.5001,-422.4132 563,-412.4133 559.5001,-422.4133 566.5001,-422.4132"/>
</g>
<!-- [root] azurerm_subnet.subnet -->
<g id="node_7" class="node">
<title>[root] azurerm_subnet.subnet</title>
<polygon fill="none" stroke="#000000" points="409,-466 409,-481 482,-481 482,-466 409,-466"/>
<text text-anchor="start" x="411.8945" y="-471.6" font-family="courier new" font-size="8.00" fill="#000000">azurerm_subnet</text>
<polygon fill="none" stroke="#000000" points="409,-451 409,-466 482,-466 482,-451 409,-451"/>
<text text-anchor="start" x="431.0977" y="-456.6" font-family="courier new" font-size="8.00" fill="#000000">subnet</text>
</g>
<!-- [root] azurerm_virtual_network.vnet -->
<g id="node_9" class="node">
<title>[root] azurerm_virtual_network.vnet</title>
<polygon fill="none" stroke="#000000" points="371,-394 371,-409 487,-409 487,-394 371,-394"/>
<text text-anchor="start" x="373.791" y="-399.6" font-family="courier new" font-size="8.00" fill="#000000">azurerm_virtual_network</text>
<polygon fill="none" stroke="#000000" points="371,-379 371,-394 487,-394 487,-379 371,-379"/>
<text text-anchor="start" x="419.3984" y="-384.6" font-family="courier new" font-size="8.00" fill="#000000">vnet</text>
</g>
<!-- [root] azurerm_subnet.subnet&#45;&gt;[root] azurerm_virtual_network.vnet -->
<g id="edge_12" class="edge">
<title>[root] azurerm_subnet.subnet&#45;&gt;[root] azurerm_virtual_network.vnet</title>
<path fill="none" stroke="#000000" d="M440.9625,-447.8314C439.2513,-440.131 437.2165,-430.9743 435.3148,-422.4166"/>
<polygon fill="#000000" stroke="#000000" points="438.6779,-421.4159 433.0918,-412.4133 431.8446,-422.9344 438.6779,-421.4159"/>
</g>
<!-- [root] azurerm_virtual_machine_scale_set.scaleset -->
<g id="node_8" class="node">
<title>[root] azurerm_virtual_machine_scale_set.scaleset</title>
<polygon fill="none" stroke="#000000" points="363,-538 363,-553 527,-553 527,-538 363,-538"/>
<text text-anchor="start" x="365.7871" y="-543.6" font-family="courier new" font-size="8.00" fill="#000000">azurerm_virtual_machine_scale_set</text>
<polygon fill="none" stroke="#000000" points="363,-523 363,-538 527,-538 527,-523 363,-523"/>
<text text-anchor="start" x="425.7969" y="-528.6" font-family="courier new" font-size="8.00" fill="#000000">scaleset</text>
</g>
<!-- [root] azurerm_virtual_machine_scale_set.scaleset&#45;&gt;[root] azurerm_lb_backend_address_pool.backlb -->
<g id="edge_13" class="edge">
<title>[root] azurerm_virtual_machine_scale_set.scaleset&#45;&gt;[root] azurerm_lb_backend_address_pool.backlb</title>
<path fill="none" stroke="#000000" d="M411.6908,-519.8314C394.5727,-510.4942 373.5294,-499.016 355.2778,-489.0606"/>
<polygon fill="#000000" stroke="#000000" points="356.7535,-485.8788 346.2985,-484.1628 353.4015,-492.024 356.7535,-485.8788"/>
</g>
<!-- [root] azurerm_virtual_machine_scale_set.scaleset&#45;&gt;[root] azurerm_lb_nat_pool.np -->
<g id="edge_14" class="edge">
<title>[root] azurerm_virtual_machine_scale_set.scaleset&#45;&gt;[root] azurerm_lb_nat_pool.np</title>
<path fill="none" stroke="#000000" d="M362.9061,-524.963C321.5853,-517.3264 271.0454,-506.337 227,-492 223.2701,-490.7859 219.4577,-489.4076 215.6577,-487.9343"/>
<polygon fill="#000000" stroke="#000000" points="216.8727,-484.65 206.2914,-484.1152 214.2297,-491.1318 216.8727,-484.65"/>
</g>
<!-- [root] azurerm_virtual_machine_scale_set.scaleset&#45;&gt;[root] azurerm_storage_container.vhds -->
<g id="edge_15" class="edge">
<title>[root] azurerm_virtual_machine_scale_set.scaleset&#45;&gt;[root] azurerm_storage_container.vhds</title>
<path fill="none" stroke="#000000" d="M474.7764,-519.8314C489.8693,-510.6221 508.3757,-499.3301 524.5343,-489.4706"/>
<polygon fill="#000000" stroke="#000000" points="526.5198,-492.3593 533.2331,-484.1628 522.8737,-486.3838 526.5198,-492.3593"/>
</g>
<!-- [root] azurerm_virtual_machine_scale_set.scaleset&#45;&gt;[root] azurerm_subnet.subnet -->
<g id="edge_16" class="edge">
<title>[root] azurerm_virtual_machine_scale_set.scaleset&#45;&gt;[root] azurerm_subnet.subnet</title>
<path fill="none" stroke="#000000" d="M445,-519.8314C445,-512.131 445,-502.9743 445,-494.4166"/>
<polygon fill="#000000" stroke="#000000" points="448.5001,-494.4132 445,-484.4133 441.5001,-494.4133 448.5001,-494.4132"/>
</g>
<!-- [root] var.vmss_name -->
<g id="node_23" class="node">
<title>[root] var.vmss_name</title>
<polygon fill="none" stroke="#000000" points="647,-466 647,-481 696,-481 696,-466 647,-466"/>
<text text-anchor="start" x="664.2988" y="-471.6" font-family="courier new" font-size="8.00" fill="#000000">var</text>
<polygon fill="none" stroke="#000000" points="647,-451 647,-466 696,-466 696,-451 647,-451"/>
<text text-anchor="start" x="649.8965" y="-456.6" font-family="courier new" font-size="8.00" fill="#000000">vmss_name</text>
</g>
<!-- [root] azurerm_virtual_machine_scale_set.scaleset&#45;&gt;[root] var.vmss_name -->
<g id="edge_24" class="edge">
<title>[root] azurerm_virtual_machine_scale_set.scaleset&#45;&gt;[root] var.vmss_name</title>
<path fill="none" stroke="#000000" d="M525.765,-519.9759C572.7137,-509.2282 624.6341,-496.773 635,-492 636.5888,-491.2684 638.1787,-490.4624 639.7571,-489.6007"/>
<polygon fill="#000000" stroke="#000000" points="641.8866,-492.4005 648.5825,-484.1898 638.2278,-486.4329 641.8866,-492.4005"/>
</g>
<!-- [root] var.admin_password -->
<g id="node_16" class="node">
<title>[root] var.admin_password</title>
<polygon fill="none" stroke="#000000" points="28,-466 28,-481 101,-481 101,-466 28,-466"/>
<text text-anchor="start" x="57.2988" y="-471.6" font-family="courier new" font-size="8.00" fill="#000000">var</text>
<polygon fill="none" stroke="#000000" points="28,-451 28,-466 101,-466 101,-451 28,-451"/>
<text text-anchor="start" x="30.8945" y="-456.6" font-family="courier new" font-size="8.00" fill="#000000">admin_password</text>
</g>
<!-- [root] azurerm_virtual_machine_scale_set.scaleset&#45;&gt;[root] var.admin_password -->
<g id="edge_17" class="edge">
<title>[root] azurerm_virtual_machine_scale_set.scaleset&#45;&gt;[root] var.admin_password</title>
<path fill="none" stroke="#000000" d="M362.711,-530.1591C279.2964,-521.5874 156.2669,-507.0551 111,-492 108.0427,-491.0164 105.0564,-489.8465 102.0993,-488.5557"/>
<polygon fill="#000000" stroke="#000000" points="103.3536,-485.2754 92.824,-484.1013 100.3231,-491.5855 103.3536,-485.2754"/>
</g>
<!-- [root] azurerm_virtual_network.vnet&#45;&gt;[root] azurerm_resource_group.rg -->
<g id="edge_25" class="edge">
<title>[root] azurerm_virtual_network.vnet&#45;&gt;[root] azurerm_resource_group.rg</title>
<path fill="none" stroke="#000000" d="M429,-375.7623C429,-351.201 429,-307.2474 429,-278.3541"/>
<polygon fill="#000000" stroke="#000000" points="432.5001,-278.0896 429,-268.0896 425.5001,-278.0897 432.5001,-278.0896"/>
</g>
<!-- [root] meta.count&#45;boundary (count boundary fixup) -->
<g id="node_24" class="node">
<title>[root] meta.count&#45;boundary (count boundary fixup)</title>
<polygon fill="none" stroke="#000000" points="491,-610 491,-625 564,-625 564,-610 491,-610"/>
<text text-anchor="start" x="517.8984" y="-615.6" font-family="courier new" font-size="8.00" fill="#000000">meta</text>
<polygon fill="none" stroke="#000000" points="491,-595 491,-610 564,-610 564,-595 491,-595"/>
<text text-anchor="start" x="493.8945" y="-600.6" font-family="courier new" font-size="8.00" fill="#000000">count&#45;boundary</text>
</g>
<!-- [root] meta.count&#45;boundary (count boundary fixup)&#45;&gt;[root] azurerm_virtual_machine_scale_set.scaleset -->
<g id="edge_26" class="edge">
<title>[root] meta.count&#45;boundary (count boundary fixup)&#45;&gt;[root] azurerm_virtual_machine_scale_set.scaleset</title>
<path fill="none" stroke="#000000" d="M506.3079,-591.8314C496.3052,-583.0485 484.145,-572.3712 473.3001,-562.8489"/>
<polygon fill="#000000" stroke="#000000" points="475.5092,-560.1308 465.6854,-556.1628 470.8906,-565.3909 475.5092,-560.1308"/>
</g>
<!-- [root] output.hostname -->
<g id="node_25" class="node">
<title>[root] output.hostname</title>
<polygon fill="none" stroke="#000000" points="581,-538 581,-553 625,-553 625,-538 581,-538"/>
<text text-anchor="start" x="588.5977" y="-543.6" font-family="courier new" font-size="8.00" fill="#000000">output</text>
<polygon fill="none" stroke="#000000" points="581,-523 581,-538 625,-538 625,-523 581,-523"/>
<text text-anchor="start" x="583.7969" y="-528.6" font-family="courier new" font-size="8.00" fill="#000000">hostname</text>
</g>
<!-- [root] meta.count&#45;boundary (count boundary fixup)&#45;&gt;[root] output.hostname -->
<g id="edge_27" class="edge">
<title>[root] meta.count&#45;boundary (count boundary fixup)&#45;&gt;[root] output.hostname</title>
<path fill="none" stroke="#000000" d="M546.178,-591.8314C555.3588,-583.1337 566.5006,-572.5783 576.4776,-563.1265"/>
<polygon fill="#000000" stroke="#000000" points="578.9757,-565.5811 583.8281,-556.1628 574.1615,-560.4995 578.9757,-565.5811"/>
</g>
<!-- [root] provider.azurerm (close) -->
<g id="node_26" class="node">
<title>[root] provider.azurerm (close)</title>
<polygon fill="none" stroke="#000000" points="423,-610 423,-625 467,-625 467,-610 423,-610"/>
<text text-anchor="start" x="425.7969" y="-615.6" font-family="courier new" font-size="8.00" fill="#000000">provider</text>
<polygon fill="none" stroke="#000000" points="423,-595 423,-610 467,-610 467,-595 423,-595"/>
<text text-anchor="start" x="428.1973" y="-600.6" font-family="courier new" font-size="8.00" fill="#000000">azurerm</text>
</g>
<!-- [root] provider.azurerm (close)&#45;&gt;[root] azurerm_virtual_machine_scale_set.scaleset -->
<g id="edge_29" class="edge">
<title>[root] provider.azurerm (close)&#45;&gt;[root] azurerm_virtual_machine_scale_set.scaleset</title>
<path fill="none" stroke="#000000" d="M445,-591.8314C445,-584.131 445,-574.9743 445,-566.4166"/>
<polygon fill="#000000" stroke="#000000" points="448.5001,-566.4132 445,-556.4133 441.5001,-566.4133 448.5001,-566.4132"/>
</g>
<!-- [root] root -->
<g id="node_27" class="node">
<title>[root] root</title>
<polygon fill="none" stroke="#000000" points="520.3089,-700 451.6911,-700 451.6911,-664 520.3089,-664 520.3089,-700"/>
<text text-anchor="middle" x="486" y="-680.1313" font-family="courier new" font-size="8.00" fill="#000000">[root] root</text>
</g>
<!-- [root] root&#45;&gt;[root] meta.count&#45;boundary (count boundary fixup) -->
<g id="edge_30" class="edge">
<title>[root] root&#45;&gt;[root] meta.count&#45;boundary (count boundary fixup)</title>
<path fill="none" stroke="#000000" d="M496.346,-663.8314C500.9237,-655.7925 506.4052,-646.1666 511.4588,-637.2918"/>
<polygon fill="#000000" stroke="#000000" points="514.6077,-638.8351 516.5147,-628.4133 508.5248,-635.3712 514.6077,-638.8351"/>
</g>
<!-- [root] root&#45;&gt;[root] provider.azurerm (close) -->
<g id="edge_31" class="edge">
<title>[root] root&#45;&gt;[root] provider.azurerm (close)</title>
<path fill="none" stroke="#000000" d="M475.654,-663.8314C471.0763,-655.7925 465.5948,-646.1666 460.5412,-637.2918"/>
<polygon fill="#000000" stroke="#000000" points="463.4752,-635.3712 455.4853,-628.4133 457.3923,-638.8351 463.4752,-635.3712"/>
</g>
<!-- [root] var.resource_group -->
<g id="node_13" class="node">
<title>[root] var.resource_group</title>
<polygon fill="none" stroke="#000000" points="351,-106 351,-121 424,-121 424,-106 351,-106"/>
<text text-anchor="start" x="380.2988" y="-111.6" font-family="courier new" font-size="8.00" fill="#000000">var</text>
<polygon fill="none" stroke="#000000" points="351,-91 351,-106 424,-106 424,-91 351,-91"/>
<text text-anchor="start" x="353.8945" y="-96.6" font-family="courier new" font-size="8.00" fill="#000000">resource_group</text>
</g>
<!-- [root] var.location&#45;&gt;[root] var.resource_group -->
<g id="edge_32" class="edge">
<title>[root] var.location&#45;&gt;[root] var.resource_group</title>
<path fill="none" stroke="#000000" stroke-dasharray="5,2" d="M389.9906,-159.8314C389.3889,-149 388.6271,-135.2876 388.023,-124.4133"/>
</g>
<!-- [root] var.storage_replication_type -->
<g id="node_15" class="node">
<title>[root] var.storage_replication_type</title>
<polygon fill="none" stroke="#000000" points="503,-250 503,-265 624,-265 624,-250 503,-250"/>
<text text-anchor="start" x="556.2988" y="-255.6" font-family="courier new" font-size="8.00" fill="#000000">var</text>
<polygon fill="none" stroke="#000000" points="503,-235 503,-250 624,-250 624,-235 503,-235"/>
<text text-anchor="start" x="505.8906" y="-240.6" font-family="courier new" font-size="8.00" fill="#000000">storage_replication_type</text>
</g>
<!-- [root] var.storage_account_tier&#45;&gt;[root] var.storage_replication_type -->
<g id="edge_33" class="edge">
<title>[root] var.storage_account_tier&#45;&gt;[root] var.storage_replication_type</title>
<path fill="none" stroke="#000000" stroke-dasharray="5,2" d="M563,-303.8314C563,-293 563,-279.2876 563,-268.4133"/>
</g>
<!-- [root] var.admin_username -->
<g id="node_17" class="node">
<title>[root] var.admin_username</title>
<polygon fill="none" stroke="#000000" points="28,-394 28,-409 101,-409 101,-394 28,-394"/>
<text text-anchor="start" x="57.2988" y="-399.6" font-family="courier new" font-size="8.00" fill="#000000">var</text>
<polygon fill="none" stroke="#000000" points="28,-379 28,-394 101,-394 101,-379 28,-379"/>
<text text-anchor="start" x="30.8945" y="-384.6" font-family="courier new" font-size="8.00" fill="#000000">admin_username</text>
</g>
<!-- [root] var.admin_password&#45;&gt;[root] var.admin_username -->
<g id="edge_34" class="edge">
<title>[root] var.admin_password&#45;&gt;[root] var.admin_username</title>
<path fill="none" stroke="#000000" stroke-dasharray="5,2" d="M64,-447.8314C64,-437 64,-423.2876 64,-412.4133"/>
</g>
<!-- [root] var.image_offer -->
<g id="node_18" class="node">
<title>[root] var.image_offer</title>
<polygon fill="none" stroke="#000000" points="34,-322 34,-337 92,-337 92,-322 34,-322"/>
<text text-anchor="start" x="55.7988" y="-327.6" font-family="courier new" font-size="8.00" fill="#000000">var</text>
<polygon fill="none" stroke="#000000" points="34,-307 34,-322 92,-322 92,-307 34,-307"/>
<text text-anchor="start" x="36.5957" y="-312.6" font-family="courier new" font-size="8.00" fill="#000000">image_offer</text>
</g>
<!-- [root] var.admin_username&#45;&gt;[root] var.image_offer -->
<g id="edge_35" class="edge">
<title>[root] var.admin_username&#45;&gt;[root] var.image_offer</title>
<path fill="none" stroke="#000000" stroke-dasharray="5,2" d="M63.7477,-375.8314C63.5972,-365 63.4068,-351.2876 63.2557,-340.4133"/>
</g>
<!-- [root] var.image_publisher -->
<g id="node_19" class="node">
<title>[root] var.image_publisher</title>
<polygon fill="none" stroke="#000000" points="24,-250 24,-265 102,-265 102,-250 24,-250"/>
<text text-anchor="start" x="55.7988" y="-255.6" font-family="courier new" font-size="8.00" fill="#000000">var</text>
<polygon fill="none" stroke="#000000" points="24,-235 24,-250 102,-250 102,-235 24,-235"/>
<text text-anchor="start" x="26.9941" y="-240.6" font-family="courier new" font-size="8.00" fill="#000000">image_publisher</text>
</g>
<!-- [root] var.image_offer&#45;&gt;[root] var.image_publisher -->
<g id="edge_36" class="edge">
<title>[root] var.image_offer&#45;&gt;[root] var.image_publisher</title>
<path fill="none" stroke="#000000" stroke-dasharray="5,2" d="M63,-303.8314C63,-293 63,-279.2876 63,-268.4133"/>
</g>
<!-- [root] var.instance_count -->
<g id="node_20" class="node">
<title>[root] var.instance_count</title>
<polygon fill="none" stroke="#000000" points="25,-178 25,-193 98,-193 98,-178 25,-178"/>
<text text-anchor="start" x="54.2988" y="-183.6" font-family="courier new" font-size="8.00" fill="#000000">var</text>
<polygon fill="none" stroke="#000000" points="25,-163 25,-178 98,-178 98,-163 25,-163"/>
<text text-anchor="start" x="27.8945" y="-168.6" font-family="courier new" font-size="8.00" fill="#000000">instance_count</text>
</g>
<!-- [root] var.image_publisher&#45;&gt;[root] var.instance_count -->
<g id="edge_37" class="edge">
<title>[root] var.image_publisher&#45;&gt;[root] var.instance_count</title>
<path fill="none" stroke="#000000" stroke-dasharray="5,2" d="M62.4953,-231.8314C62.1944,-221 61.8135,-207.2876 61.5115,-196.4133"/>
</g>
<!-- [root] var.ubuntu_os_version -->
<g id="node_21" class="node">
<title>[root] var.ubuntu_os_version</title>
<polygon fill="none" stroke="#000000" points="17,-106 17,-121 104,-121 104,-106 17,-106"/>
<text text-anchor="start" x="53.2988" y="-111.6" font-family="courier new" font-size="8.00" fill="#000000">var</text>
<polygon fill="none" stroke="#000000" points="17,-91 17,-106 104,-106 104,-91 17,-91"/>
<text text-anchor="start" x="19.6934" y="-96.6" font-family="courier new" font-size="8.00" fill="#000000">ubuntu_os_version</text>
</g>
<!-- [root] var.instance_count&#45;&gt;[root] var.ubuntu_os_version -->
<g id="edge_38" class="edge">
<title>[root] var.instance_count&#45;&gt;[root] var.ubuntu_os_version</title>
<path fill="none" stroke="#000000" stroke-dasharray="5,2" d="M60.7477,-159.8314C60.5972,-149 60.4068,-135.2876 60.2557,-124.4133"/>
</g>
<!-- [root] var.vm_sku -->
<g id="node_22" class="node">
<title>[root] var.vm_sku</title>
<polygon fill="none" stroke="#000000" points="43,-34 43,-49 77,-49 77,-34 43,-34"/>
<text text-anchor="start" x="52.7988" y="-39.6" font-family="courier new" font-size="8.00" fill="#000000">var</text>
<polygon fill="none" stroke="#000000" points="43,-19 43,-34 77,-34 77,-19 43,-19"/>
<text text-anchor="start" x="45.5977" y="-24.6" font-family="courier new" font-size="8.00" fill="#000000">vm_sku</text>
</g>
<!-- [root] var.ubuntu_os_version&#45;&gt;[root] var.vm_sku -->
<g id="edge_39" class="edge">
<title>[root] var.ubuntu_os_version&#45;&gt;[root] var.vm_sku</title>
<path fill="none" stroke="#000000" stroke-dasharray="5,2" d="M60,-87.8314C60,-77 60,-63.2876 60,-52.4133"/>
</g>
<!-- [root] output.hostname&#45;&gt;[root] var.vmss_name -->
<g id="edge_28" class="edge">
<title>[root] output.hostname&#45;&gt;[root] var.vmss_name</title>
<path fill="none" stroke="#000000" d="M620.1593,-519.8314C628.1511,-511.3694 637.8038,-501.1489 646.5416,-491.8971"/>
<polygon fill="#000000" stroke="#000000" points="649.288,-494.0866 653.6097,-484.4133 644.1989,-489.2802 649.288,-494.0866"/>
</g>
</g>
</svg>

