<?xml version="1.0" encoding="UTF-8" standalone="no"?>
<!DOCTYPE svg PUBLIC "-//W3C//DTD SVG 1.1//EN"
 "http://www.w3.org/Graphics/SVG/1.1/DTD/svg11.dtd">
<!-- Generated by graphviz version 2.40.1 (20161225.0304)
 -->
<!-- Title: %3 Pages: 1 -->
<svg width="1209pt" height="548pt"
 viewBox="0.00 0.00 1209.00 548.00" xmlns="http://www.w3.org/2000/svg" xmlns:xlink="http://www.w3.org/1999/xlink">
<g id="graph0" class="graph" transform="scale(1 1) rotate(0) translate(4 544)">
<title>%3</title>
<polygon fill="#ffffff" stroke="transparent" points="-4,4 -4,-544 1205,-544 1205,4 -4,4"/>
<!-- [root] azurerm_lb.lb -->
<g id="node_0" class="node">
<title>[root] azurerm_lb.lb</title>
<polygon fill="none" stroke="#000000" points="116,-234 116,-249 170,-249 170,-234 116,-234"/>
<text text-anchor="start" x="118.9961" y="-239.6" font-family="courier new" font-size="8.00" fill="#000000">azurerm_lb</text>
<polygon fill="none" stroke="#000000" points="116,-219 116,-234 170,-234 170,-219 116,-219"/>
<text text-anchor="start" x="138.1992" y="-224.6" font-family="courier new" font-size="8.00" fill="#000000">lb</text>
</g>
<!-- [root] azurerm_public_ip.pip -->
<g id="node_3" class="node">
<title>[root] azurerm_public_ip.pip</title>
<polygon fill="none" stroke="#000000" points="100,-162 100,-177 187,-177 187,-162 100,-162"/>
<text text-anchor="start" x="102.6934" y="-167.6" font-family="courier new" font-size="8.00" fill="#000000">azurerm_public_ip</text>
<polygon fill="none" stroke="#000000" points="100,-147 100,-162 187,-162 187,-147 100,-147"/>
<text text-anchor="start" x="136.2988" y="-152.6" font-family="courier new" font-size="8.00" fill="#000000">pip</text>
</g>
<!-- [root] azurerm_lb.lb&#45;&gt;[root] azurerm_public_ip.pip -->
<g id="edge_0" class="edge">
<title>[root] azurerm_lb.lb&#45;&gt;[root] azurerm_public_ip.pip</title>
<path fill="none" stroke="#000000" d="M143,-215.8314C143,-208.131 143,-198.9743 143,-190.4166"/>
<polygon fill="#000000" stroke="#000000" points="146.5001,-190.4132 143,-180.4133 139.5001,-190.4133 146.5001,-190.4132"/>
</g>
<!-- [root] azurerm_lb_backend_address_pool.backlb -->
<g id="node_1" class="node">
<title>[root] azurerm_lb_backend_address_pool.backlb</title>
<polygon fill="none" stroke="#000000" points="0,-306 0,-321 154,-321 154,-306 0,-306"/>
<text text-anchor="start" x="2.5879" y="-311.6" font-family="courier new" font-size="8.00" fill="#000000">azurerm_lb_backend_address_pool</text>
<polygon fill="none" stroke="#000000" points="0,-291 0,-306 154,-306 154,-291 0,-291"/>
<text text-anchor="start" x="62.5977" y="-296.6" font-family="courier new" font-size="8.00" fill="#000000">backlb</text>
</g>
<!-- [root] azurerm_lb_backend_address_pool.backlb&#45;&gt;[root] azurerm_lb.lb -->
<g id="edge_1" class="edge">
<title>[root] azurerm_lb_backend_address_pool.backlb&#45;&gt;[root] azurerm_lb.lb</title>
<path fill="none" stroke="#000000" d="M93.6546,-287.8314C101.4114,-279.3694 110.7802,-269.1489 119.261,-259.8971"/>
<polygon fill="#000000" stroke="#000000" points="121.9439,-262.1499 126.1212,-252.4133 116.7838,-257.4198 121.9439,-262.1499"/>
</g>
<!-- [root] azurerm_lb_nat_pool.np -->
<g id="node_2" class="node">
<title>[root] azurerm_lb_nat_pool.np</title>
<polygon fill="none" stroke="#000000" points="173,-306 173,-321 270,-321 270,-306 173,-306"/>
<text text-anchor="start" x="175.8926" y="-311.6" font-family="courier new" font-size="8.00" fill="#000000">azurerm_lb_nat_pool</text>
<polygon fill="none" stroke="#000000" points="173,-291 173,-306 270,-306 270,-291 173,-291"/>
<text text-anchor="start" x="216.6992" y="-296.6" font-family="courier new" font-size="8.00" fill="#000000">np</text>
</g>
<!-- [root] azurerm_lb_nat_pool.np&#45;&gt;[root] azurerm_lb.lb -->
<g id="edge_2" class="edge">
<title>[root] azurerm_lb_nat_pool.np&#45;&gt;[root] azurerm_lb.lb</title>
<path fill="none" stroke="#000000" d="M201.3173,-287.8314C191.8949,-279.1337 180.4599,-268.5783 170.2204,-259.1265"/>
<polygon fill="#000000" stroke="#000000" points="172.3984,-256.3738 162.6764,-252.1628 167.6505,-261.5175 172.3984,-256.3738"/>
</g>
<!-- [root] azurerm_resource_group.rg -->
<g id="node_4" class="node">
<title>[root] azurerm_resource_group.rg</title>
<polygon fill="none" stroke="#000000" points="175,-90 175,-105 286,-105 286,-90 175,-90"/>
<text text-anchor="start" x="177.6914" y="-95.6" font-family="courier new" font-size="8.00" fill="#000000">azurerm_resource_group</text>
<polygon fill="none" stroke="#000000" points="175,-75 175,-90 286,-90 286,-75 175,-75"/>
<text text-anchor="start" x="225.6992" y="-80.6" font-family="courier new" font-size="8.00" fill="#000000">rg</text>
</g>
<!-- [root] azurerm_public_ip.pip&#45;&gt;[root] azurerm_resource_group.rg -->
<g id="edge_3" class="edge">
<title>[root] azurerm_public_ip.pip&#45;&gt;[root] azurerm_resource_group.rg</title>
<path fill="none" stroke="#000000" d="M164.9538,-143.8314C175.6695,-134.9632 188.7189,-124.1637 200.309,-114.5718"/>
<polygon fill="#000000" stroke="#000000" points="202.5808,-117.2349 208.0533,-108.1628 198.1178,-111.8422 202.5808,-117.2349"/>
</g>
<!-- [root] var.hostname -->
<g id="node_11" class="node">
<title>[root] var.hostname</title>
<polygon fill="none" stroke="#000000" points="107,-90 107,-105 151,-105 151,-90 107,-90"/>
<text text-anchor="start" x="121.7988" y="-95.6" font-family="courier new" font-size="8.00" fill="#000000">var</text>
<polygon fill="none" stroke="#000000" points="107,-75 107,-90 151,-90 151,-75 107,-75"/>
<text text-anchor="start" x="109.7969" y="-80.6" font-family="courier new" font-size="8.00" fill="#000000">hostname</text>
</g>
<!-- [root] azurerm_public_ip.pip&#45;&gt;[root] var.hostname -->
<g id="edge_4" class="edge">
<title>[root] azurerm_public_ip.pip&#45;&gt;[root] var.hostname</title>
<path fill="none" stroke="#000000" d="M139.4672,-143.8314C137.9699,-136.131 136.1895,-126.9743 134.5255,-118.4166"/>
<polygon fill="#000000" stroke="#000000" points="137.9248,-117.5614 132.5804,-108.4133 131.0535,-118.8975 137.9248,-117.5614"/>
</g>
<!-- [root] provider.azurerm -->
<g id="node_10" class="node">
<title>[root] provider.azurerm</title>
<polygon fill="none" stroke="#000000" points="136,-18 136,-33 180,-33 180,-18 136,-18"/>
<text text-anchor="start" x="138.7969" y="-23.6" font-family="courier new" font-size="8.00" fill="#000000">provider</text>
<polygon fill="none" stroke="#000000" points="136,-3 136,-18 180,-18 180,-3 136,-3"/>
<text text-anchor="start" x="141.1973" y="-8.6" font-family="courier new" font-size="8.00" fill="#000000">azurerm</text>
</g>
<!-- [root] azurerm_resource_group.rg&#45;&gt;[root] provider.azurerm -->
<g id="edge_5" class="edge">
<title>[root] azurerm_resource_group.rg&#45;&gt;[root] provider.azurerm</title>
<path fill="none" stroke="#000000" d="M211.8314,-71.8314C203.2848,-63.2848 192.9443,-52.9443 183.6198,-43.6198"/>
<polygon fill="#000000" stroke="#000000" points="185.9592,-41.0095 176.4133,-36.4133 181.0095,-45.9592 185.9592,-41.0095"/>
</g>
<!-- [root] var.location -->
<g id="node_12" class="node">
<title>[root] var.location</title>
<polygon fill="none" stroke="#000000" points="208,-18 208,-33 252,-33 252,-18 208,-18"/>
<text text-anchor="start" x="222.7988" y="-23.6" font-family="courier new" font-size="8.00" fill="#000000">var</text>
<polygon fill="none" stroke="#000000" points="208,-3 208,-18 252,-18 252,-3 208,-3"/>
<text text-anchor="start" x="210.7969" y="-8.6" font-family="courier new" font-size="8.00" fill="#000000">location</text>
</g>
<!-- [root] azurerm_resource_group.rg&#45;&gt;[root] var.location -->
<g id="edge_6" class="edge">
<title>[root] azurerm_resource_group.rg&#45;&gt;[root] var.location</title>
<path fill="none" stroke="#000000" d="M230,-71.8314C230,-64.131 230,-54.9743 230,-46.4166"/>
<polygon fill="#000000" stroke="#000000" points="233.5001,-46.4132 230,-36.4133 226.5001,-46.4133 233.5001,-46.4132"/>
</g>
<!-- [root] var.resource_group -->
<g id="node_13" class="node">
<title>[root] var.resource_group</title>
<polygon fill="none" stroke="#000000" points="276,-18 276,-33 349,-33 349,-18 276,-18"/>
<text text-anchor="start" x="305.2988" y="-23.6" font-family="courier new" font-size="8.00" fill="#000000">var</text>
<polygon fill="none" stroke="#000000" points="276,-3 276,-18 349,-18 349,-3 276,-3"/>
<text text-anchor="start" x="278.8945" y="-8.6" font-family="courier new" font-size="8.00" fill="#000000">resource_group</text>
</g>
<!-- [root] azurerm_resource_group.rg&#45;&gt;[root] var.resource_group -->
<g id="edge_7" class="edge">
<title>[root] azurerm_resource_group.rg&#45;&gt;[root] var.resource_group</title>
<path fill="none" stroke="#000000" d="M250.6921,-71.8314C260.6948,-63.0485 272.855,-52.3712 283.6999,-42.8489"/>
<polygon fill="#000000" stroke="#000000" points="286.1094,-45.3909 291.3146,-36.1628 281.4908,-40.1308 286.1094,-45.3909"/>
</g>
<!-- [root] azurerm_storage_account.stor -->
<g id="node_5" class="node">
<title>[root] azurerm_storage_account.stor</title>
<polygon fill="none" stroke="#000000" points="264,-234 264,-249 380,-249 380,-234 264,-234"/>
<text text-anchor="start" x="266.791" y="-239.6" font-family="courier new" font-size="8.00" fill="#000000">azurerm_storage_account</text>
<polygon fill="none" stroke="#000000" points="264,-219 264,-234 380,-234 380,-219 264,-219"/>
<text text-anchor="start" x="312.3984" y="-224.6" font-family="courier new" font-size="8.00" fill="#000000">stor</text>
</g>
<!-- [root] azurerm_storage_account.stor&#45;&gt;[root] azurerm_resource_group.rg -->
<g id="edge_8" class="edge">
<title>[root] azurerm_storage_account.stor&#45;&gt;[root] azurerm_resource_group.rg</title>
<path fill="none" stroke="#000000" d="M280.8407,-215.817C265.9002,-207.132 250.3977,-195.2523 241,-180 229.6268,-161.5413 227.3075,-136.8927 227.592,-118.0581"/>
<polygon fill="#000000" stroke="#000000" points="231.0917,-118.1324 227.994,-108.0005 224.0973,-117.8527 231.0917,-118.1324"/>
</g>
<!-- [root] var.storage_account_tier -->
<g id="node_14" class="node">
<title>[root] var.storage_account_tier</title>
<polygon fill="none" stroke="#000000" points="250,-162 250,-177 352,-177 352,-162 250,-162"/>
<text text-anchor="start" x="293.7988" y="-167.6" font-family="courier new" font-size="8.00" fill="#000000">var</text>
<polygon fill="none" stroke="#000000" points="250,-147 250,-162 352,-162 352,-147 250,-147"/>
<text text-anchor="start" x="252.9922" y="-152.6" font-family="courier new" font-size="8.00" fill="#000000">storage_account_tier</text>
</g>
<!-- [root] azurerm_storage_account.stor&#45;&gt;[root] var.storage_account_tier -->
<g id="edge_9" class="edge">
<title>[root] azurerm_storage_account.stor&#45;&gt;[root] var.storage_account_tier</title>
<path fill="none" stroke="#000000" d="M316.7008,-215.8314C314.4302,-208.0463 311.7254,-198.7729 309.206,-190.1347"/>
<polygon fill="#000000" stroke="#000000" points="312.5306,-189.0332 306.3705,-180.4133 305.8106,-190.9933 312.5306,-189.0332"/>
</g>
<!-- [root] var.storage_replication_type -->
<g id="node_15" class="node">
<title>[root] var.storage_replication_type</title>
<polygon fill="none" stroke="#000000" points="371,-162 371,-177 492,-177 492,-162 371,-162"/>
<text text-anchor="start" x="424.2988" y="-167.6" font-family="courier new" font-size="8.00" fill="#000000">var</text>
<polygon fill="none" stroke="#000000" points="371,-147 371,-162 492,-162 492,-147 371,-147"/>
<text text-anchor="start" x="373.8906" y="-152.6" font-family="courier new" font-size="8.00" fill="#000000">storage_replication_type</text>
</g>
<!-- [root] azurerm_storage_account.stor&#45;&gt;[root] var.storage_replication_type -->
<g id="edge_10" class="edge">
<title>[root] azurerm_storage_account.stor&#45;&gt;[root] var.storage_replication_type</title>
<path fill="none" stroke="#000000" d="M349.5053,-215.8314C363.318,-206.7074 380.2256,-195.539 395.0529,-185.7449"/>
<polygon fill="#000000" stroke="#000000" points="397.0886,-188.5949 403.5035,-180.1628 393.2304,-182.7541 397.0886,-188.5949"/>
</g>
<!-- [root] azurerm_storage_container.vhds -->
<g id="node_6" class="node">
<title>[root] azurerm_storage_container.vhds</title>
<polygon fill="none" stroke="#000000" points="288,-306 288,-321 414,-321 414,-306 288,-306"/>
<text text-anchor="start" x="290.9902" y="-311.6" font-family="courier new" font-size="8.00" fill="#000000">azurerm_storage_container</text>
<polygon fill="none" stroke="#000000" points="288,-291 288,-306 414,-306 414,-291 288,-291"/>
<text text-anchor="start" x="341.3984" y="-296.6" font-family="courier new" font-size="8.00" fill="#000000">vhds</text>
</g>
<!-- [root] azurerm_storage_container.vhds&#45;&gt;[root] azurerm_storage_account.stor -->
<g id="edge_11" class="edge">
<title>[root] azurerm_storage_container.vhds&#45;&gt;[root] azurerm_storage_account.stor</title>
<path fill="none" stroke="#000000" d="M343.6821,-287.8314C340.5124,-279.9617 336.73,-270.5712 333.2187,-261.8533"/>
<polygon fill="#000000" stroke="#000000" points="336.3992,-260.3815 329.4165,-252.4133 329.9061,-262.9968 336.3992,-260.3815"/>
</g>
<!-- [root] azurerm_subnet.subnet -->
<g id="node_7" class="node">
<title>[root] azurerm_subnet.subnet</title>
<polygon fill="none" stroke="#000000" points="433,-306 433,-321 506,-321 506,-306 433,-306"/>
<text text-anchor="start" x="435.8945" y="-311.6" font-family="courier new" font-size="8.00" fill="#000000">azurerm_subnet</text>
<polygon fill="none" stroke="#000000" points="433,-291 433,-306 506,-306 506,-291 433,-291"/>
<text text-anchor="start" x="455.0977" y="-296.6" font-family="courier new" font-size="8.00" fill="#000000">subnet</text>
</g>
<!-- [root] azurerm_virtual_network.vnet -->
<g id="node_9" class="node">
<title>[root] azurerm_virtual_network.vnet</title>
<polygon fill="none" stroke="#000000" points="440,-234 440,-249 556,-249 556,-234 440,-234"/>
<text text-anchor="start" x="442.791" y="-239.6" font-family="courier new" font-size="8.00" fill="#000000">azurerm_virtual_network</text>
<polygon fill="none" stroke="#000000" points="440,-219 440,-234 556,-234 556,-219 440,-219"/>
<text text-anchor="start" x="488.3984" y="-224.6" font-family="courier new" font-size="8.00" fill="#000000">vnet</text>
</g>
<!-- [root] azurerm_subnet.subnet&#45;&gt;[root] azurerm_virtual_network.vnet -->
<g id="edge_12" class="edge">
<title>[root] azurerm_subnet.subnet&#45;&gt;[root] azurerm_virtual_network.vnet</title>
<path fill="none" stroke="#000000" d="M476.3179,-287.8314C479.4876,-279.9617 483.27,-270.5712 486.7813,-261.8533"/>
<polygon fill="#000000" stroke="#000000" points="490.0939,-262.9968 490.5835,-252.4133 483.6008,-260.3815 490.0939,-262.9968"/>
</g>
<!-- [root] azurerm_virtual_machine_scale_set.scaleset -->
<g id="node_8" class="node">
<title>[root] azurerm_virtual_machine_scale_set.scaleset</title>
<polygon fill="none" stroke="#000000" points="653,-378 653,-393 817,-393 817,-378 653,-378"/>
<text text-anchor="start" x="655.7871" y="-383.6" font-family="courier new" font-size="8.00" fill="#000000">azurerm_virtual_machine_scale_set</text>
<polygon fill="none" stroke="#000000" points="653,-363 653,-378 817,-378 817,-363 653,-363"/>
<text text-anchor="start" x="715.7969" y="-368.6" font-family="courier new" font-size="8.00" fill="#000000">scaleset</text>
</g>
<!-- [root] azurerm_virtual_machine_scale_set.scaleset&#45;&gt;[root] azurerm_lb_backend_address_pool.backlb -->
<g id="edge_13" class="edge">
<title>[root] azurerm_virtual_machine_scale_set.scaleset&#45;&gt;[root] azurerm_lb_backend_address_pool.backlb</title>
<path fill="none" stroke="#000000" d="M652.7118,-373.1421C543.3303,-366.0343 343.9038,-350.8147 164.4375,-324.1279"/>
<polygon fill="#000000" stroke="#000000" points="164.69,-320.6266 154.281,-322.602 163.65,-327.5489 164.69,-320.6266"/>
</g>
<!-- [root] azurerm_virtual_machine_scale_set.scaleset&#45;&gt;[root] azurerm_lb_nat_pool.np -->
<g id="edge_14" class="edge">
<title>[root] azurerm_virtual_machine_scale_set.scaleset&#45;&gt;[root] azurerm_lb_nat_pool.np</title>
<path fill="none" stroke="#000000" d="M652.7138,-372.8081C563.0704,-366.1268 415.4777,-352.1306 279.7313,-323.9236"/>
<polygon fill="#000000" stroke="#000000" points="280.0705,-320.4182 269.5634,-321.7791 278.6259,-327.2675 280.0705,-320.4182"/>
</g>
<!-- [root] azurerm_virtual_machine_scale_set.scaleset&#45;&gt;[root] azurerm_storage_container.vhds -->
<g id="edge_15" class="edge">
<title>[root] azurerm_virtual_machine_scale_set.scaleset&#45;&gt;[root] azurerm_storage_container.vhds</title>
<path fill="none" stroke="#000000" d="M652.8995,-365.4829C592.2004,-355.8357 507.3426,-341.5292 424.041,-324.1471"/>
<polygon fill="#000000" stroke="#000000" points="424.6615,-320.7011 414.1552,-322.0681 423.2208,-327.5513 424.6615,-320.7011"/>
</g>
<!-- [root] azurerm_virtual_machine_scale_set.scaleset&#45;&gt;[root] azurerm_subnet.subnet -->
<g id="edge_16" class="edge">
<title>[root] azurerm_virtual_machine_scale_set.scaleset&#45;&gt;[root] azurerm_subnet.subnet</title>
<path fill="none" stroke="#000000" d="M652.8924,-360.8352C613.4845,-351.9126 565.5394,-340.062 515.4026,-324.266"/>
<polygon fill="#000000" stroke="#000000" points="516.2739,-320.8702 505.6831,-321.1624 514.1446,-327.5385 516.2739,-320.8702"/>
</g>
<!-- [root] var.admin_password -->
<g id="node_16" class="node">
<title>[root] var.admin_password</title>
<polygon fill="none" stroke="#000000" points="524,-306 524,-321 597,-321 597,-306 524,-306"/>
<text text-anchor="start" x="553.2988" y="-311.6" font-family="courier new" font-size="8.00" fill="#000000">var</text>
<polygon fill="none" stroke="#000000" points="524,-291 524,-306 597,-306 597,-291 524,-291"/>
<text text-anchor="start" x="526.8945" y="-296.6" font-family="courier new" font-size="8.00" fill="#000000">admin_password</text>
</g>
<!-- [root] azurerm_virtual_machine_scale_set.scaleset&#45;&gt;[root] var.admin_password -->
<g id="edge_17" class="edge">
<title>[root] azurerm_virtual_machine_scale_set.scaleset&#45;&gt;[root] var.admin_password</title>
<path fill="none" stroke="#000000" d="M690.8401,-359.8314C664.9585,-349.1829 632.3087,-335.7499 606.0993,-324.9666"/>
<polygon fill="#000000" stroke="#000000" points="607.3387,-321.6919 596.7591,-321.1237 604.6752,-328.1654 607.3387,-321.6919"/>
</g>
<!-- [root] var.admin_username -->
<g id="node_17" class="node">
<title>[root] var.admin_username</title>
<polygon fill="none" stroke="#000000" points="615,-306 615,-321 688,-321 688,-306 615,-306"/>
<text text-anchor="start" x="644.2988" y="-311.6" font-family="courier new" font-size="8.00" fill="#000000">var</text>
<polygon fill="none" stroke="#000000" points="615,-291 615,-306 688,-306 688,-291 615,-291"/>
<text text-anchor="start" x="617.8945" y="-296.6" font-family="courier new" font-size="8.00" fill="#000000">admin_username</text>
</g>
<!-- [root] azurerm_virtual_machine_scale_set.scaleset&#45;&gt;[root] var.admin_username -->
<g id="edge_18" class="edge">
<title>[root] azurerm_virtual_machine_scale_set.scaleset&#45;&gt;[root] var.admin_username</title>
<path fill="none" stroke="#000000" d="M713.8033,-359.8314C703.5566,-351.0485 691.0997,-340.3712 679.9903,-330.8489"/>
<polygon fill="#000000" stroke="#000000" points="682.0603,-328.0134 672.19,-324.1628 677.5048,-333.3282 682.0603,-328.0134"/>
</g>
<!-- [root] var.image_offer -->
<g id="node_18" class="node">
<title>[root] var.image_offer</title>
<polygon fill="none" stroke="#000000" points="706,-306 706,-321 764,-321 764,-306 706,-306"/>
<text text-anchor="start" x="727.7988" y="-311.6" font-family="courier new" font-size="8.00" fill="#000000">var</text>
<polygon fill="none" stroke="#000000" points="706,-291 706,-306 764,-306 764,-291 706,-291"/>
<text text-anchor="start" x="708.5957" y="-296.6" font-family="courier new" font-size="8.00" fill="#000000">image_offer</text>
</g>
<!-- [root] azurerm_virtual_machine_scale_set.scaleset&#45;&gt;[root] var.image_offer -->
<g id="edge_19" class="edge">
<title>[root] azurerm_virtual_machine_scale_set.scaleset&#45;&gt;[root] var.image_offer</title>
<path fill="none" stroke="#000000" d="M735,-359.8314C735,-352.131 735,-342.9743 735,-334.4166"/>
<polygon fill="#000000" stroke="#000000" points="738.5001,-334.4132 735,-324.4133 731.5001,-334.4133 738.5001,-334.4132"/>
</g>
<!-- [root] var.image_publisher -->
<g id="node_19" class="node">
<title>[root] var.image_publisher</title>
<polygon fill="none" stroke="#000000" points="782,-306 782,-321 860,-321 860,-306 782,-306"/>
<text text-anchor="start" x="813.7988" y="-311.6" font-family="courier new" font-size="8.00" fill="#000000">var</text>
<polygon fill="none" stroke="#000000" points="782,-291 782,-306 860,-306 860,-291 782,-291"/>
<text text-anchor="start" x="784.9941" y="-296.6" font-family="courier new" font-size="8.00" fill="#000000">image_publisher</text>
</g>
<!-- [root] azurerm_virtual_machine_scale_set.scaleset&#45;&gt;[root] var.image_publisher -->
<g id="edge_20" class="edge">
<title>[root] azurerm_virtual_machine_scale_set.scaleset&#45;&gt;[root] var.image_publisher</title>
<path fill="none" stroke="#000000" d="M756.7014,-359.8314C767.1921,-351.0485 779.9455,-340.3712 791.3194,-330.8489"/>
<polygon fill="#000000" stroke="#000000" points="793.8847,-333.2659 799.3055,-324.1628 789.3911,-327.8986 793.8847,-333.2659"/>
</g>
<!-- [root] var.instance_count -->
<g id="node_20" class="node">
<title>[root] var.instance_count</title>
<polygon fill="none" stroke="#000000" points="879,-306 879,-321 952,-321 952,-306 879,-306"/>
<text text-anchor="start" x="908.2988" y="-311.6" font-family="courier new" font-size="8.00" fill="#000000">var</text>
<polygon fill="none" stroke="#000000" points="879,-291 879,-306 952,-306 952,-291 879,-291"/>
<text text-anchor="start" x="881.8945" y="-296.6" font-family="courier new" font-size="8.00" fill="#000000">instance_count</text>
</g>
<!-- [root] azurerm_virtual_machine_scale_set.scaleset&#45;&gt;[root] var.instance_count -->
<g id="edge_21" class="edge">
<title>[root] azurerm_virtual_machine_scale_set.scaleset&#45;&gt;[root] var.instance_count</title>
<path fill="none" stroke="#000000" d="M780.4216,-359.8314C807.5321,-348.9872 841.8624,-335.255 869.0636,-324.3746"/>
<polygon fill="#000000" stroke="#000000" points="870.3793,-327.618 878.3641,-320.6543 867.7795,-321.1186 870.3793,-327.618"/>
</g>
<!-- [root] var.ubuntu_os_version -->
<g id="node_21" class="node">
<title>[root] var.ubuntu_os_version</title>
<polygon fill="none" stroke="#000000" points="970,-306 970,-321 1057,-321 1057,-306 970,-306"/>
<text text-anchor="start" x="1006.2988" y="-311.6" font-family="courier new" font-size="8.00" fill="#000000">var</text>
<polygon fill="none" stroke="#000000" points="970,-291 970,-306 1057,-306 1057,-291 970,-291"/>
<text text-anchor="start" x="972.6934" y="-296.6" font-family="courier new" font-size="8.00" fill="#000000">ubuntu_os_version</text>
</g>
<!-- [root] azurerm_virtual_machine_scale_set.scaleset&#45;&gt;[root] var.ubuntu_os_version -->
<g id="edge_22" class="edge">
<title>[root] azurerm_virtual_machine_scale_set.scaleset&#45;&gt;[root] var.ubuntu_os_version</title>
<path fill="none" stroke="#000000" d="M817.1055,-360.4337C857.6868,-351.2658 907.5158,-339.287 959.6483,-324.2774"/>
<polygon fill="#000000" stroke="#000000" points="960.7827,-327.5926 969.4077,-321.4395 958.8281,-320.871 960.7827,-327.5926"/>
</g>
<!-- [root] var.vm_sku -->
<g id="node_22" class="node">
<title>[root] var.vm_sku</title>
<polygon fill="none" stroke="#000000" points="1085,-306 1085,-321 1119,-321 1119,-306 1085,-306"/>
<text text-anchor="start" x="1094.7988" y="-311.6" font-family="courier new" font-size="8.00" fill="#000000">var</text>
<polygon fill="none" stroke="#000000" points="1085,-291 1085,-306 1119,-306 1119,-291 1085,-291"/>
<text text-anchor="start" x="1087.5977" y="-296.6" font-family="courier new" font-size="8.00" fill="#000000">vm_sku</text>
</g>
<!-- [root] azurerm_virtual_machine_scale_set.scaleset&#45;&gt;[root] var.vm_sku -->
<g id="edge_23" class="edge">
<title>[root] azurerm_virtual_machine_scale_set.scaleset&#45;&gt;[root] var.vm_sku</title>
<path fill="none" stroke="#000000" d="M817.2162,-371.5362C882.8057,-364.8004 976.7091,-351.6119 1065.1945,-323.7466"/>
<polygon fill="#000000" stroke="#000000" points="1066.3965,-327.0366 1074.8437,-320.6417 1064.2523,-320.3731 1066.3965,-327.0366"/>
</g>
<!-- [root] var.vmss_name -->
<g id="node_23" class="node">
<title>[root] var.vmss_name</title>
<polygon fill="none" stroke="#000000" points="1150,-306 1150,-321 1199,-321 1199,-306 1150,-306"/>
<text text-anchor="start" x="1167.2988" y="-311.6" font-family="courier new" font-size="8.00" fill="#000000">var</text>
<polygon fill="none" stroke="#000000" points="1150,-291 1150,-306 1199,-306 1199,-291 1150,-291"/>
<text text-anchor="start" x="1152.8965" y="-296.6" font-family="courier new" font-size="8.00" fill="#000000">vmss_name</text>
</g>
<!-- [root] azurerm_virtual_machine_scale_set.scaleset&#45;&gt;[root] var.vmss_name -->
<g id="edge_24" class="edge">
<title>[root] azurerm_virtual_machine_scale_set.scaleset&#45;&gt;[root] var.vmss_name</title>
<path fill="none" stroke="#000000" d="M817.3568,-374.9003C897.7607,-370.0944 1023.1313,-357.8499 1137.2724,-323.6633"/>
<polygon fill="#000000" stroke="#000000" points="1138.3317,-326.9994 1146.8709,-320.7278 1136.2844,-320.3055 1138.3317,-326.9994"/>
</g>
<!-- [root] azurerm_virtual_network.vnet&#45;&gt;[root] azurerm_resource_group.rg -->
<g id="edge_25" class="edge">
<title>[root] azurerm_virtual_network.vnet&#45;&gt;[root] azurerm_resource_group.rg</title>
<path fill="none" stroke="#000000" d="M504.6666,-215.8897C510.7242,-195.9496 516.4481,-164.0635 500,-144 474.6885,-113.125 367.46,-99.5512 295.989,-93.8456"/>
<polygon fill="#000000" stroke="#000000" points="295.9555,-90.3329 285.7176,-93.0598 295.4214,-97.3125 295.9555,-90.3329"/>
</g>
<!-- [root] meta.count&#45;boundary (count boundary fixup) -->
<g id="node_24" class="node">
<title>[root] meta.count&#45;boundary (count boundary fixup)</title>
<polygon fill="none" stroke="#000000" points="781,-450 781,-465 854,-465 854,-450 781,-450"/>
<text text-anchor="start" x="807.8984" y="-455.6" font-family="courier new" font-size="8.00" fill="#000000">meta</text>
<polygon fill="none" stroke="#000000" points="781,-435 781,-450 854,-450 854,-435 781,-435"/>
<text text-anchor="start" x="783.8945" y="-440.6" font-family="courier new" font-size="8.00" fill="#000000">count&#45;boundary</text>
</g>
<!-- [root] meta.count&#45;boundary (count boundary fixup)&#45;&gt;[root] azurerm_virtual_machine_scale_set.scaleset -->
<g id="edge_26" class="edge">
<title>[root] meta.count&#45;boundary (count boundary fixup)&#45;&gt;[root] azurerm_virtual_machine_scale_set.scaleset</title>
<path fill="none" stroke="#000000" d="M796.3079,-431.8314C786.3052,-423.0485 774.145,-412.3712 763.3001,-402.8489"/>
<polygon fill="#000000" stroke="#000000" points="765.5092,-400.1308 755.6854,-396.1628 760.8906,-405.3909 765.5092,-400.1308"/>
</g>
<!-- [root] output.hostname -->
<g id="node_25" class="node">
<title>[root] output.hostname</title>
<polygon fill="none" stroke="#000000" points="996,-378 996,-393 1040,-393 1040,-378 996,-378"/>
<text text-anchor="start" x="1003.5977" y="-383.6" font-family="courier new" font-size="8.00" fill="#000000">output</text>
<polygon fill="none" stroke="#000000" points="996,-363 996,-378 1040,-378 1040,-363 996,-363"/>
<text text-anchor="start" x="998.7969" y="-368.6" font-family="courier new" font-size="8.00" fill="#000000">hostname</text>
</g>
<!-- [root] meta.count&#45;boundary (count boundary fixup)&#45;&gt;[root] output.hostname -->
<g id="edge_27" class="edge">
<title>[root] meta.count&#45;boundary (count boundary fixup)&#45;&gt;[root] output.hostname</title>
<path fill="none" stroke="#000000" d="M853.8665,-436.7941C890.0209,-423.8433 944.8401,-404.2065 981.0301,-391.243"/>
<polygon fill="#000000" stroke="#000000" points="982.4786,-394.4419 990.7125,-387.7746 980.118,-387.852 982.4786,-394.4419"/>
</g>
<!-- [root] output.hostname&#45;&gt;[root] var.vmss_name -->
<g id="edge_28" class="edge">
<title>[root] output.hostname&#45;&gt;[root] var.vmss_name</title>
<path fill="none" stroke="#000000" d="M1045.3109,-366.0898C1067.8206,-356.1903 1100.7654,-341.5129 1137.5112,-324.1525"/>
<polygon fill="#000000" stroke="#000000" points="1139.3973,-327.1316 1146.9312,-319.6824 1136.3963,-320.8076 1139.3973,-327.1316"/>
</g>
<!-- [root] provider.azurerm (close) -->
<g id="node_26" class="node">
<title>[root] provider.azurerm (close)</title>
<polygon fill="none" stroke="#000000" points="713,-450 713,-465 757,-465 757,-450 713,-450"/>
<text text-anchor="start" x="715.7969" y="-455.6" font-family="courier new" font-size="8.00" fill="#000000">provider</text>
<polygon fill="none" stroke="#000000" points="713,-435 713,-450 757,-450 757,-435 713,-435"/>
<text text-anchor="start" x="718.1973" y="-440.6" font-family="courier new" font-size="8.00" fill="#000000">azurerm</text>
</g>
<!-- [root] provider.azurerm (close)&#45;&gt;[root] azurerm_virtual_machine_scale_set.scaleset -->
<g id="edge_29" class="edge">
<title>[root] provider.azurerm (close)&#45;&gt;[root] azurerm_virtual_machine_scale_set.scaleset</title>
<path fill="none" stroke="#000000" d="M735,-431.8314C735,-424.131 735,-414.9743 735,-406.4166"/>
<polygon fill="#000000" stroke="#000000" points="738.5001,-406.4132 735,-396.4133 731.5001,-406.4133 738.5001,-406.4132"/>
</g>
<!-- [root] root -->
<g id="node_27" class="node">
<title>[root] root</title>
<polygon fill="none" stroke="#000000" points="810.3089,-540 741.6911,-540 741.6911,-504 810.3089,-504 810.3089,-540"/>
<text text-anchor="middle" x="776" y="-520.1313" font-family="courier new" font-size="8.00" fill="#000000">[root] root</text>
</g>
<!-- [root] root&#45;&gt;[root] meta.count&#45;boundary (count boundary fixup) -->
<g id="edge_30" class="edge">
<title>[root] root&#45;&gt;[root] meta.count&#45;boundary (count boundary fixup)</title>
<path fill="none" stroke="#000000" d="M786.346,-503.8314C790.9237,-495.7925 796.4052,-486.1666 801.4588,-477.2918"/>
<polygon fill="#000000" stroke="#000000" points="804.6077,-478.8351 806.5147,-468.4133 798.5248,-475.3712 804.6077,-478.8351"/>
</g>
<!-- [root] root&#45;&gt;[root] provider.azurerm (close) -->
<g id="edge_31" class="edge">
<title>[root] root&#45;&gt;[root] provider.azurerm (close)</title>
<path fill="none" stroke="#000000" d="M765.654,-503.8314C761.0763,-495.7925 755.5948,-486.1666 750.5412,-477.2918"/>
<polygon fill="#000000" stroke="#000000" points="753.4752,-475.3712 745.4853,-468.4133 747.3923,-478.8351 753.4752,-475.3712"/>
</g>
</g>
</svg>

