<?xml version="1.0" encoding="UTF-8" standalone="no"?>
<!DOCTYPE svg PUBLIC "-//W3C//DTD SVG 1.1//EN"
 "http://www.w3.org/Graphics/SVG/1.1/DTD/svg11.dtd">
<!-- Generated by graphviz version 2.40.1 (20161225.0304)
 -->
<!-- Title: %3 Pages: 1 -->
<svg width="756pt" height="476pt"
 viewBox="0.00 0.00 755.50 476.00" xmlns="http://www.w3.org/2000/svg" xmlns:xlink="http://www.w3.org/1999/xlink">
<g id="graph0" class="graph" transform="scale(1 1) rotate(0) translate(4 472)">
<title>%3</title>
<polygon fill="#ffffff" stroke="transparent" points="-4,4 -4,-472 751.5,-472 751.5,4 -4,4"/>
<!-- [root] azurerm_network_security_group.security_group -->
<g id="node_0" class="node">
<title>[root] azurerm_network_security_group.security_group</title>
<polygon fill="none" stroke="#000000" points="135.5,-162 135.5,-177 285.5,-177 285.5,-162 135.5,-162"/>
<text text-anchor="start" x="138.4883" y="-167.6" font-family="courier new" font-size="8.00" fill="#000000">azurerm_network_security_group</text>
<polygon fill="none" stroke="#000000" points="135.5,-147 135.5,-162 285.5,-162 285.5,-147 135.5,-147"/>
<text text-anchor="start" x="176.8945" y="-152.6" font-family="courier new" font-size="8.00" fill="#000000">security_group</text>
</g>
<!-- [root] azurerm_resource_group.rg -->
<g id="node_3" class="node">
<title>[root] azurerm_resource_group.rg</title>
<polygon fill="none" stroke="#000000" points="213.5,-90 213.5,-105 324.5,-105 324.5,-90 213.5,-90"/>
<text text-anchor="start" x="216.1914" y="-95.6" font-family="courier new" font-size="8.00" fill="#000000">azurerm_resource_group</text>
<polygon fill="none" stroke="#000000" points="213.5,-75 213.5,-90 324.5,-90 324.5,-75 213.5,-75"/>
<text text-anchor="start" x="264.1992" y="-80.6" font-family="courier new" font-size="8.00" fill="#000000">rg</text>
</g>
<!-- [root] azurerm_network_security_group.security_group&#45;&gt;[root] azurerm_resource_group.rg -->
<g id="edge_0" class="edge">
<title>[root] azurerm_network_security_group.security_group&#45;&gt;[root] azurerm_resource_group.rg</title>
<path fill="none" stroke="#000000" d="M225.1358,-143.8314C231.8161,-135.5386 239.8568,-125.557 247.1904,-116.4533"/>
<polygon fill="#000000" stroke="#000000" points="250.1194,-118.3965 253.6671,-108.4133 244.6681,-114.0052 250.1194,-118.3965"/>
</g>
<!-- [root] var.tags -->
<g id="node_7" class="node">
<title>[root] var.tags</title>
<polygon fill="none" stroke="#000000" points="391.5,-90 391.5,-105 416.5,-105 416.5,-90 391.5,-90"/>
<text text-anchor="start" x="396.7988" y="-95.6" font-family="courier new" font-size="8.00" fill="#000000">var</text>
<polygon fill="none" stroke="#000000" points="391.5,-75 391.5,-90 416.5,-90 416.5,-75 391.5,-75"/>
<text text-anchor="start" x="394.3984" y="-80.6" font-family="courier new" font-size="8.00" fill="#000000">tags</text>
</g>
<!-- [root] azurerm_network_security_group.security_group&#45;&gt;[root] var.tags -->
<g id="edge_1" class="edge">
<title>[root] azurerm_network_security_group.security_group&#45;&gt;[root] var.tags</title>
<path fill="none" stroke="#000000" d="M259.202,-143.8314C292.6557,-131.3512 336.3625,-115.0461 366.8709,-103.6648"/>
<polygon fill="#000000" stroke="#000000" points="368.1368,-106.9282 376.2827,-100.1536 365.69,-100.3697 368.1368,-106.9282"/>
</g>
<!-- [root] azurerm_network_security_rule.security_rule_rdp -->
<g id="node_1" class="node">
<title>[root] azurerm_network_security_rule.security_rule_rdp</title>
<polygon fill="none" stroke="#000000" points=".5,-306 .5,-321 145.5,-321 145.5,-306 .5,-306"/>
<text text-anchor="start" x="3.3887" y="-311.6" font-family="courier new" font-size="8.00" fill="#000000">azurerm_network_security_rule</text>
<polygon fill="none" stroke="#000000" points=".5,-291 .5,-306 145.5,-306 145.5,-291 .5,-291"/>
<text text-anchor="start" x="32.1934" y="-296.6" font-family="courier new" font-size="8.00" fill="#000000">security_rule_rdp</text>
</g>
<!-- [root] azurerm_network_security_rule.security_rule_rdp&#45;&gt;[root] azurerm_network_security_group.security_group -->
<g id="edge_2" class="edge">
<title>[root] azurerm_network_security_rule.security_rule_rdp&#45;&gt;[root] azurerm_network_security_group.security_group</title>
<path fill="none" stroke="#000000" d="M89.9778,-287.7623C114.3452,-262.3354 158.63,-216.1253 186.1997,-187.3569"/>
<polygon fill="#000000" stroke="#000000" points="188.772,-189.7312 193.1641,-180.0896 183.7181,-184.8878 188.772,-189.7312"/>
</g>
<!-- [root] azurerm_network_security_rule.security_rule_ssh -->
<g id="node_2" class="node">
<title>[root] azurerm_network_security_rule.security_rule_ssh</title>
<polygon fill="none" stroke="#000000" points="163.5,-306 163.5,-321 308.5,-321 308.5,-306 163.5,-306"/>
<text text-anchor="start" x="166.3887" y="-311.6" font-family="courier new" font-size="8.00" fill="#000000">azurerm_network_security_rule</text>
<polygon fill="none" stroke="#000000" points="163.5,-291 163.5,-306 308.5,-306 308.5,-291 163.5,-291"/>
<text text-anchor="start" x="195.1934" y="-296.6" font-family="courier new" font-size="8.00" fill="#000000">security_rule_ssh</text>
</g>
<!-- [root] azurerm_network_security_rule.security_rule_ssh&#45;&gt;[root] azurerm_network_security_group.security_group -->
<g id="edge_3" class="edge">
<title>[root] azurerm_network_security_rule.security_rule_ssh&#45;&gt;[root] azurerm_network_security_group.security_group</title>
<path fill="none" stroke="#000000" d="M211.6509,-287.928C201.2058,-278.5042 190.074,-266.02 184.5,-252 176.3131,-231.4082 184.2057,-207.2415 193.3809,-189.1382"/>
<polygon fill="#000000" stroke="#000000" points="196.4996,-190.7297 198.2176,-180.2751 190.355,-187.3766 196.4996,-190.7297"/>
</g>
<!-- [root] provider.azurerm -->
<g id="node_6" class="node">
<title>[root] provider.azurerm</title>
<polygon fill="none" stroke="#000000" points="174.5,-18 174.5,-33 218.5,-33 218.5,-18 174.5,-18"/>
<text text-anchor="start" x="177.2969" y="-23.6" font-family="courier new" font-size="8.00" fill="#000000">provider</text>
<polygon fill="none" stroke="#000000" points="174.5,-3 174.5,-18 218.5,-18 218.5,-3 174.5,-3"/>
<text text-anchor="start" x="179.6973" y="-8.6" font-family="courier new" font-size="8.00" fill="#000000">azurerm</text>
</g>
<!-- [root] azurerm_resource_group.rg&#45;&gt;[root] provider.azurerm -->
<g id="edge_4" class="edge">
<title>[root] azurerm_resource_group.rg&#45;&gt;[root] provider.azurerm</title>
<path fill="none" stroke="#000000" d="M250.3314,-71.8314C241.7848,-63.2848 231.4443,-52.9443 222.1198,-43.6198"/>
<polygon fill="#000000" stroke="#000000" points="224.4592,-41.0095 214.9133,-36.4133 219.5095,-45.9592 224.4592,-41.0095"/>
</g>
<!-- [root] var.location -->
<g id="node_8" class="node">
<title>[root] var.location</title>
<polygon fill="none" stroke="#000000" points="246.5,-18 246.5,-33 290.5,-33 290.5,-18 246.5,-18"/>
<text text-anchor="start" x="261.2988" y="-23.6" font-family="courier new" font-size="8.00" fill="#000000">var</text>
<polygon fill="none" stroke="#000000" points="246.5,-3 246.5,-18 290.5,-18 290.5,-3 246.5,-3"/>
<text text-anchor="start" x="249.2969" y="-8.6" font-family="courier new" font-size="8.00" fill="#000000">location</text>
</g>
<!-- [root] azurerm_resource_group.rg&#45;&gt;[root] var.location -->
<g id="edge_5" class="edge">
<title>[root] azurerm_resource_group.rg&#45;&gt;[root] var.location</title>
<path fill="none" stroke="#000000" d="M268.5,-71.8314C268.5,-64.131 268.5,-54.9743 268.5,-46.4166"/>
<polygon fill="#000000" stroke="#000000" points="272.0001,-46.4132 268.5,-36.4133 265.0001,-46.4133 272.0001,-46.4132"/>
</g>
<!-- [root] var.prefix -->
<g id="node_9" class="node">
<title>[root] var.prefix</title>
<polygon fill="none" stroke="#000000" points="323.5,-18 323.5,-33 357.5,-33 357.5,-18 323.5,-18"/>
<text text-anchor="start" x="333.2988" y="-23.6" font-family="courier new" font-size="8.00" fill="#000000">var</text>
<polygon fill="none" stroke="#000000" points="323.5,-3 323.5,-18 357.5,-18 357.5,-3 323.5,-3"/>
<text text-anchor="start" x="326.0977" y="-8.6" font-family="courier new" font-size="8.00" fill="#000000">prefix</text>
</g>
<!-- [root] azurerm_resource_group.rg&#45;&gt;[root] var.prefix -->
<g id="edge_6" class="edge">
<title>[root] azurerm_resource_group.rg&#45;&gt;[root] var.prefix</title>
<path fill="none" stroke="#000000" d="M286.6686,-71.8314C295.2152,-63.2848 305.5557,-52.9443 314.8802,-43.6198"/>
<polygon fill="#000000" stroke="#000000" points="317.4905,-45.9592 322.0867,-36.4133 312.5408,-41.0095 317.4905,-45.9592"/>
</g>
<!-- [root] azurerm_subnet.subnet -->
<g id="node_4" class="node">
<title>[root] azurerm_subnet.subnet</title>
<polygon fill="none" stroke="#000000" points="299.5,-234 299.5,-249 372.5,-249 372.5,-234 299.5,-234"/>
<text text-anchor="start" x="302.3945" y="-239.6" font-family="courier new" font-size="8.00" fill="#000000">azurerm_subnet</text>
<polygon fill="none" stroke="#000000" points="299.5,-219 299.5,-234 372.5,-234 372.5,-219 299.5,-219"/>
<text text-anchor="start" x="321.5977" y="-224.6" font-family="courier new" font-size="8.00" fill="#000000">subnet</text>
</g>
<!-- [root] azurerm_subnet.subnet&#45;&gt;[root] azurerm_network_security_group.security_group -->
<g id="edge_7" class="edge">
<title>[root] azurerm_subnet.subnet&#45;&gt;[root] azurerm_network_security_group.security_group</title>
<path fill="none" stroke="#000000" d="M303.9572,-215.8314C287.8209,-206.5368 268.0014,-195.1208 250.7728,-185.1971"/>
<polygon fill="#000000" stroke="#000000" points="252.445,-182.1212 242.0327,-180.1628 248.9511,-188.187 252.445,-182.1212"/>
</g>
<!-- [root] azurerm_virtual_network.vnet -->
<g id="node_5" class="node">
<title>[root] azurerm_virtual_network.vnet</title>
<polygon fill="none" stroke="#000000" points="482.5,-162 482.5,-177 598.5,-177 598.5,-162 482.5,-162"/>
<text text-anchor="start" x="485.291" y="-167.6" font-family="courier new" font-size="8.00" fill="#000000">azurerm_virtual_network</text>
<polygon fill="none" stroke="#000000" points="482.5,-147 482.5,-162 598.5,-162 598.5,-147 482.5,-147"/>
<text text-anchor="start" x="530.8984" y="-152.6" font-family="courier new" font-size="8.00" fill="#000000">vnet</text>
</g>
<!-- [root] azurerm_subnet.subnet&#45;&gt;[root] azurerm_virtual_network.vnet -->
<g id="edge_8" class="edge">
<title>[root] azurerm_subnet.subnet&#45;&gt;[root] azurerm_virtual_network.vnet</title>
<path fill="none" stroke="#000000" d="M372.1011,-219.5043C375.2732,-218.3007 378.439,-217.118 381.5,-216 412.3758,-204.7227 446.8981,-192.9039 475.8651,-183.2083"/>
<polygon fill="#000000" stroke="#000000" points="477.0846,-186.4911 485.4624,-180.0055 474.8687,-179.8511 477.0846,-186.4911"/>
</g>
<!-- [root] var.subnet_names -->
<g id="node_10" class="node">
<title>[root] var.subnet_names</title>
<polygon fill="none" stroke="#000000" points="304.5,-162 304.5,-177 367.5,-177 367.5,-162 304.5,-162"/>
<text text-anchor="start" x="328.7988" y="-167.6" font-family="courier new" font-size="8.00" fill="#000000">var</text>
<polygon fill="none" stroke="#000000" points="304.5,-147 304.5,-162 367.5,-162 367.5,-147 304.5,-147"/>
<text text-anchor="start" x="307.1953" y="-152.6" font-family="courier new" font-size="8.00" fill="#000000">subnet_names</text>
</g>
<!-- [root] azurerm_subnet.subnet&#45;&gt;[root] var.subnet_names -->
<g id="edge_9" class="edge">
<title>[root] azurerm_subnet.subnet&#45;&gt;[root] var.subnet_names</title>
<path fill="none" stroke="#000000" d="M335.5,-215.8314C335.5,-208.131 335.5,-198.9743 335.5,-190.4166"/>
<polygon fill="#000000" stroke="#000000" points="339.0001,-190.4132 335.5,-180.4133 332.0001,-190.4133 339.0001,-190.4132"/>
</g>
<!-- [root] var.subnet_prefixes -->
<g id="node_11" class="node">
<title>[root] var.subnet_prefixes</title>
<polygon fill="none" stroke="#000000" points="385.5,-162 385.5,-177 463.5,-177 463.5,-162 385.5,-162"/>
<text text-anchor="start" x="417.2988" y="-167.6" font-family="courier new" font-size="8.00" fill="#000000">var</text>
<polygon fill="none" stroke="#000000" points="385.5,-147 385.5,-162 463.5,-162 463.5,-147 385.5,-147"/>
<text text-anchor="start" x="388.4941" y="-152.6" font-family="courier new" font-size="8.00" fill="#000000">subnet_prefixes</text>
</g>
<!-- [root] azurerm_subnet.subnet&#45;&gt;[root] var.subnet_prefixes -->
<g id="edge_10" class="edge">
<title>[root] azurerm_subnet.subnet&#45;&gt;[root] var.subnet_prefixes</title>
<path fill="none" stroke="#000000" d="M357.9585,-215.8314C368.9205,-206.9632 382.2699,-196.1637 394.1265,-186.5718"/>
<polygon fill="#000000" stroke="#000000" points="396.4755,-189.1734 402.0487,-180.1628 392.0729,-183.7313 396.4755,-189.1734"/>
</g>
<!-- [root] azurerm_virtual_network.vnet&#45;&gt;[root] azurerm_resource_group.rg -->
<g id="edge_11" class="edge">
<title>[root] azurerm_virtual_network.vnet&#45;&gt;[root] azurerm_resource_group.rg</title>
<path fill="none" stroke="#000000" d="M482.4828,-146.6425C438.8758,-135.0995 379.113,-119.2799 333.8272,-107.2925"/>
<polygon fill="#000000" stroke="#000000" points="334.6673,-103.8944 324.1046,-104.7189 332.876,-110.6613 334.6673,-103.8944"/>
</g>
<!-- [root] azurerm_virtual_network.vnet&#45;&gt;[root] var.tags -->
<g id="edge_14" class="edge">
<title>[root] azurerm_virtual_network.vnet&#45;&gt;[root] var.tags</title>
<path fill="none" stroke="#000000" d="M505.9291,-143.8314C485.7195,-133.2103 460.2386,-119.8188 439.7473,-109.0497"/>
<polygon fill="#000000" stroke="#000000" points="441.2006,-105.8596 430.7203,-104.3056 437.9441,-112.056 441.2006,-105.8596"/>
</g>
<!-- [root] var.address_space -->
<g id="node_12" class="node">
<title>[root] var.address_space</title>
<polygon fill="none" stroke="#000000" points="465.5,-90 465.5,-105 533.5,-105 533.5,-90 465.5,-90"/>
<text text-anchor="start" x="492.2988" y="-95.6" font-family="courier new" font-size="8.00" fill="#000000">var</text>
<polygon fill="none" stroke="#000000" points="465.5,-75 465.5,-90 533.5,-90 533.5,-75 465.5,-75"/>
<text text-anchor="start" x="468.2949" y="-80.6" font-family="courier new" font-size="8.00" fill="#000000">address_space</text>
</g>
<!-- [root] azurerm_virtual_network.vnet&#45;&gt;[root] var.address_space -->
<g id="edge_12" class="edge">
<title>[root] azurerm_virtual_network.vnet&#45;&gt;[root] var.address_space</title>
<path fill="none" stroke="#000000" d="M530.154,-143.8314C525.5763,-135.7925 520.0948,-126.1666 515.0412,-117.2918"/>
<polygon fill="#000000" stroke="#000000" points="517.9752,-115.3712 509.9853,-108.4133 511.8923,-118.8351 517.9752,-115.3712"/>
</g>
<!-- [root] var.dns_servers -->
<g id="node_13" class="node">
<title>[root] var.dns_servers</title>
<polygon fill="none" stroke="#000000" points="551.5,-90 551.5,-105 609.5,-105 609.5,-90 551.5,-90"/>
<text text-anchor="start" x="573.2988" y="-95.6" font-family="courier new" font-size="8.00" fill="#000000">var</text>
<polygon fill="none" stroke="#000000" points="551.5,-75 551.5,-90 609.5,-90 609.5,-75 551.5,-75"/>
<text text-anchor="start" x="554.0957" y="-80.6" font-family="courier new" font-size="8.00" fill="#000000">dns_servers</text>
</g>
<!-- [root] azurerm_virtual_network.vnet&#45;&gt;[root] var.dns_servers -->
<g id="edge_13" class="edge">
<title>[root] azurerm_virtual_network.vnet&#45;&gt;[root] var.dns_servers</title>
<path fill="none" stroke="#000000" d="M550.5937,-143.8314C555.0597,-135.7925 560.4075,-126.1666 565.3379,-117.2918"/>
<polygon fill="#000000" stroke="#000000" points="568.4735,-118.8546 570.2704,-108.4133 562.3544,-115.4551 568.4735,-118.8546"/>
</g>
<!-- [root] meta.count&#45;boundary (count boundary fixup) -->
<g id="node_14" class="node">
<title>[root] meta.count&#45;boundary (count boundary fixup)</title>
<polygon fill="none" stroke="#000000" points="428.5,-378 428.5,-393 501.5,-393 501.5,-378 428.5,-378"/>
<text text-anchor="start" x="455.3984" y="-383.6" font-family="courier new" font-size="8.00" fill="#000000">meta</text>
<polygon fill="none" stroke="#000000" points="428.5,-363 428.5,-378 501.5,-378 501.5,-363 428.5,-363"/>
<text text-anchor="start" x="431.3945" y="-368.6" font-family="courier new" font-size="8.00" fill="#000000">count&#45;boundary</text>
</g>
<!-- [root] meta.count&#45;boundary (count boundary fixup)&#45;&gt;[root] azurerm_network_security_rule.security_rule_rdp -->
<g id="edge_15" class="edge">
<title>[root] meta.count&#45;boundary (count boundary fixup)&#45;&gt;[root] azurerm_network_security_rule.security_rule_rdp</title>
<path fill="none" stroke="#000000" d="M427.5337,-372.1554C370.99,-363.0904 259.4045,-344.7097 155.3665,-324.3298"/>
<polygon fill="#000000" stroke="#000000" points="155.8119,-320.8504 145.3239,-322.3516 154.4589,-327.7184 155.8119,-320.8504"/>
</g>
<!-- [root] meta.count&#45;boundary (count boundary fixup)&#45;&gt;[root] azurerm_network_security_rule.security_rule_ssh -->
<g id="edge_16" class="edge">
<title>[root] meta.count&#45;boundary (count boundary fixup)&#45;&gt;[root] azurerm_network_security_rule.security_rule_ssh</title>
<path fill="none" stroke="#000000" d="M427.9611,-366.5118C394.2929,-355.9262 343.4982,-339.9558 302.5445,-327.0795"/>
<polygon fill="#000000" stroke="#000000" points="303.4879,-323.7072 292.8985,-324.0467 301.3883,-330.385 303.4879,-323.7072"/>
</g>
<!-- [root] output.security_group_id -->
<g id="node_15" class="node">
<title>[root] output.security_group_id</title>
<polygon fill="none" stroke="#000000" points="194.5,-234 194.5,-249 281.5,-249 281.5,-234 194.5,-234"/>
<text text-anchor="start" x="223.5977" y="-239.6" font-family="courier new" font-size="8.00" fill="#000000">output</text>
<polygon fill="none" stroke="#000000" points="194.5,-219 194.5,-234 281.5,-234 281.5,-219 194.5,-219"/>
<text text-anchor="start" x="197.1934" y="-224.6" font-family="courier new" font-size="8.00" fill="#000000">security_group_id</text>
</g>
<!-- [root] meta.count&#45;boundary (count boundary fixup)&#45;&gt;[root] output.security_group_id -->
<g id="edge_17" class="edge">
<title>[root] meta.count&#45;boundary (count boundary fixup)&#45;&gt;[root] output.security_group_id</title>
<path fill="none" stroke="#000000" d="M435.7503,-359.7623C394.8149,-333.7945 319.7078,-286.1495 274.6155,-257.5446"/>
<polygon fill="#000000" stroke="#000000" points="276.3354,-254.4909 266.0163,-252.0896 272.5857,-260.4019 276.3354,-254.4909"/>
</g>
<!-- [root] output.vnet_address_space -->
<g id="node_16" class="node">
<title>[root] output.vnet_address_space</title>
<polygon fill="none" stroke="#000000" points="390.5,-234 390.5,-249 482.5,-249 482.5,-234 390.5,-234"/>
<text text-anchor="start" x="422.0977" y="-239.6" font-family="courier new" font-size="8.00" fill="#000000">output</text>
<polygon fill="none" stroke="#000000" points="390.5,-219 390.5,-234 482.5,-234 482.5,-219 390.5,-219"/>
<text text-anchor="start" x="393.293" y="-224.6" font-family="courier new" font-size="8.00" fill="#000000">vnet_address_space</text>
</g>
<!-- [root] meta.count&#45;boundary (count boundary fixup)&#45;&gt;[root] output.vnet_address_space -->
<g id="edge_18" class="edge">
<title>[root] meta.count&#45;boundary (count boundary fixup)&#45;&gt;[root] output.vnet_address_space</title>
<path fill="none" stroke="#000000" d="M470.7653,-359.9859C476.2147,-341.5065 482.1394,-312.1307 474.5,-288 471.4185,-278.2664 465.8817,-268.7695 459.9711,-260.5228"/>
<polygon fill="#000000" stroke="#000000" points="462.6248,-258.2316 453.7635,-252.4239 457.069,-262.49 462.6248,-258.2316"/>
</g>
<!-- [root] output.vnet_dns_servers -->
<g id="node_17" class="node">
<title>[root] output.vnet_dns_servers</title>
<polygon fill="none" stroke="#000000" points="500.5,-234 500.5,-249 582.5,-249 582.5,-234 500.5,-234"/>
<text text-anchor="start" x="527.0977" y="-239.6" font-family="courier new" font-size="8.00" fill="#000000">output</text>
<polygon fill="none" stroke="#000000" points="500.5,-219 500.5,-234 582.5,-234 582.5,-219 500.5,-219"/>
<text text-anchor="start" x="503.0938" y="-224.6" font-family="courier new" font-size="8.00" fill="#000000">vnet_dns_servers</text>
</g>
<!-- [root] meta.count&#45;boundary (count boundary fixup)&#45;&gt;[root] output.vnet_dns_servers -->
<g id="edge_19" class="edge">
<title>[root] meta.count&#45;boundary (count boundary fixup)&#45;&gt;[root] output.vnet_dns_servers</title>
<path fill="none" stroke="#000000" d="M474.2521,-359.7623C487.5591,-334.8764 511.5116,-290.0822 526.9467,-261.2165"/>
<polygon fill="#000000" stroke="#000000" points="530.1981,-262.5585 531.8271,-252.0896 524.0252,-259.2577 530.1981,-262.5585"/>
</g>
<!-- [root] output.vnet_id -->
<g id="node_18" class="node">
<title>[root] output.vnet_id</title>
<polygon fill="none" stroke="#000000" points="608.5,-234 608.5,-249 647.5,-249 647.5,-234 608.5,-234"/>
<text text-anchor="start" x="613.5977" y="-239.6" font-family="courier new" font-size="8.00" fill="#000000">output</text>
<polygon fill="none" stroke="#000000" points="608.5,-219 608.5,-234 647.5,-234 647.5,-219 608.5,-219"/>
<text text-anchor="start" x="611.1973" y="-224.6" font-family="courier new" font-size="8.00" fill="#000000">vnet_id</text>
</g>
<!-- [root] meta.count&#45;boundary (count boundary fixup)&#45;&gt;[root] output.vnet_id -->
<g id="edge_20" class="edge">
<title>[root] meta.count&#45;boundary (count boundary fixup)&#45;&gt;[root] output.vnet_id</title>
<path fill="none" stroke="#000000" d="M485.1441,-359.7623C514.0483,-334.2272 566.6788,-287.7316 599.2121,-258.9906"/>
<polygon fill="#000000" stroke="#000000" points="601.8465,-261.3335 607.0236,-252.0896 597.2119,-256.0874 601.8465,-261.3335"/>
</g>
<!-- [root] output.vnet_location -->
<g id="node_19" class="node">
<title>[root] output.vnet_location</title>
<polygon fill="none" stroke="#000000" points="606.5,-306 606.5,-321 674.5,-321 674.5,-306 606.5,-306"/>
<text text-anchor="start" x="626.0977" y="-311.6" font-family="courier new" font-size="8.00" fill="#000000">output</text>
<polygon fill="none" stroke="#000000" points="606.5,-291 606.5,-306 674.5,-306 674.5,-291 606.5,-291"/>
<text text-anchor="start" x="609.2949" y="-296.6" font-family="courier new" font-size="8.00" fill="#000000">vnet_location</text>
</g>
<!-- [root] meta.count&#45;boundary (count boundary fixup)&#45;&gt;[root] output.vnet_location -->
<g id="edge_21" class="edge">
<title>[root] meta.count&#45;boundary (count boundary fixup)&#45;&gt;[root] output.vnet_location</title>
<path fill="none" stroke="#000000" d="M501.3954,-362.9064C529.1976,-351.5328 567.4147,-335.8985 596.7569,-323.8949"/>
<polygon fill="#000000" stroke="#000000" points="598.4094,-327.0005 606.3396,-319.9747 595.7589,-320.5217 598.4094,-327.0005"/>
</g>
<!-- [root] output.vnet_name -->
<g id="node_20" class="node">
<title>[root] output.vnet_name</title>
<polygon fill="none" stroke="#000000" points="696.5,-306 696.5,-321 745.5,-321 745.5,-306 696.5,-306"/>
<text text-anchor="start" x="706.5977" y="-311.6" font-family="courier new" font-size="8.00" fill="#000000">output</text>
<polygon fill="none" stroke="#000000" points="696.5,-291 696.5,-306 745.5,-306 745.5,-291 696.5,-291"/>
<text text-anchor="start" x="699.3965" y="-296.6" font-family="courier new" font-size="8.00" fill="#000000">vnet_name</text>
</g>
<!-- [root] meta.count&#45;boundary (count boundary fixup)&#45;&gt;[root] output.vnet_name -->
<g id="edge_22" class="edge">
<title>[root] meta.count&#45;boundary (count boundary fixup)&#45;&gt;[root] output.vnet_name</title>
<path fill="none" stroke="#000000" d="M501.2358,-371.4079C545.3151,-362.9385 621.0866,-346.5894 683.5,-324 683.6008,-323.9635 683.7016,-323.9269 683.8025,-323.89"/>
<polygon fill="#000000" stroke="#000000" points="685.3551,-327.0371 693.2999,-320.0278 682.7181,-320.5527 685.3551,-327.0371"/>
</g>
<!-- [root] output.vnet_subnets -->
<g id="node_21" class="node">
<title>[root] output.vnet_subnets</title>
<polygon fill="none" stroke="#000000" points="403.5,-306 403.5,-321 466.5,-321 466.5,-306 403.5,-306"/>
<text text-anchor="start" x="420.5977" y="-311.6" font-family="courier new" font-size="8.00" fill="#000000">output</text>
<polygon fill="none" stroke="#000000" points="403.5,-291 403.5,-306 466.5,-306 466.5,-291 403.5,-291"/>
<text text-anchor="start" x="406.1953" y="-296.6" font-family="courier new" font-size="8.00" fill="#000000">vnet_subnets</text>
</g>
<!-- [root] meta.count&#45;boundary (count boundary fixup)&#45;&gt;[root] output.vnet_subnets -->
<g id="edge_23" class="edge">
<title>[root] meta.count&#45;boundary (count boundary fixup)&#45;&gt;[root] output.vnet_subnets</title>
<path fill="none" stroke="#000000" d="M456.9297,-359.8314C453.6507,-351.9617 449.738,-342.5712 446.1055,-333.8533"/>
<polygon fill="#000000" stroke="#000000" points="449.2492,-332.2979 442.1722,-324.4133 442.7876,-334.9902 449.2492,-332.2979"/>
</g>
<!-- [root] output.security_group_id&#45;&gt;[root] azurerm_network_security_group.security_group -->
<g id="edge_24" class="edge">
<title>[root] output.security_group_id&#45;&gt;[root] azurerm_network_security_group.security_group</title>
<path fill="none" stroke="#000000" d="M230.6868,-215.8314C227.7356,-207.9617 224.2142,-198.5712 220.945,-189.8533"/>
<polygon fill="#000000" stroke="#000000" points="224.1934,-188.5476 217.405,-180.4133 217.6391,-191.0055 224.1934,-188.5476"/>
</g>
<!-- [root] output.vnet_address_space&#45;&gt;[root] azurerm_virtual_network.vnet -->
<g id="edge_25" class="edge">
<title>[root] output.vnet_address_space&#45;&gt;[root] azurerm_virtual_network.vnet</title>
<path fill="none" stroke="#000000" d="M462.7436,-215.8314C475.7995,-206.7927 491.7535,-195.7476 505.8047,-186.0198"/>
<polygon fill="#000000" stroke="#000000" points="508.0351,-188.7326 514.2648,-180.1628 504.0506,-182.9773 508.0351,-188.7326"/>
</g>
<!-- [root] output.vnet_dns_servers&#45;&gt;[root] azurerm_virtual_network.vnet -->
<g id="edge_26" class="edge">
<title>[root] output.vnet_dns_servers&#45;&gt;[root] azurerm_virtual_network.vnet</title>
<path fill="none" stroke="#000000" d="M541.2477,-215.8314C541.1407,-208.131 541.0135,-198.9743 540.8947,-190.4166"/>
<polygon fill="#000000" stroke="#000000" points="544.3944,-190.3637 540.7557,-180.4133 537.3951,-190.4609 544.3944,-190.3637"/>
</g>
<!-- [root] output.vnet_id&#45;&gt;[root] azurerm_virtual_network.vnet -->
<g id="edge_27" class="edge">
<title>[root] output.vnet_id&#45;&gt;[root] azurerm_virtual_network.vnet</title>
<path fill="none" stroke="#000000" d="M605.5462,-215.8314C594.8305,-206.9632 581.7811,-196.1637 570.191,-186.5718"/>
<polygon fill="#000000" stroke="#000000" points="572.3822,-183.8422 562.4467,-180.1628 567.9192,-189.2349 572.3822,-183.8422"/>
</g>
<!-- [root] output.vnet_location&#45;&gt;[root] azurerm_virtual_network.vnet -->
<g id="edge_28" class="edge">
<title>[root] output.vnet_location&#45;&gt;[root] azurerm_virtual_network.vnet</title>
<path fill="none" stroke="#000000" d="M653.0918,-287.7109C664.6193,-268.478 677.8742,-238.0091 663.5,-216 650.8362,-196.6098 629.489,-184.1373 608.1006,-176.1333"/>
<polygon fill="#000000" stroke="#000000" points="609.2254,-172.819 598.6307,-172.8656 606.9421,-179.4361 609.2254,-172.819"/>
</g>
<!-- [root] output.vnet_name&#45;&gt;[root] azurerm_virtual_network.vnet -->
<g id="edge_29" class="edge">
<title>[root] output.vnet_name&#45;&gt;[root] azurerm_virtual_network.vnet</title>
<path fill="none" stroke="#000000" d="M716.9982,-287.7002C712.2528,-267.5903 701.9152,-235.5525 681.5,-216 661.4401,-196.7878 633.8293,-184.2284 608.3553,-176.106"/>
<polygon fill="#000000" stroke="#000000" points="609.3014,-172.7357 598.717,-173.2056 607.2842,-179.4388 609.3014,-172.7357"/>
</g>
<!-- [root] output.vnet_subnets&#45;&gt;[root] azurerm_subnet.subnet -->
<g id="edge_30" class="edge">
<title>[root] output.vnet_subnets&#45;&gt;[root] azurerm_subnet.subnet</title>
<path fill="none" stroke="#000000" d="M409.5181,-287.8314C397.2072,-278.8779 382.1893,-267.9558 368.9063,-258.2955"/>
<polygon fill="#000000" stroke="#000000" points="370.6199,-255.214 360.4739,-252.1628 366.5027,-260.8752 370.6199,-255.214"/>
</g>
<!-- [root] provider.azurerm (close) -->
<g id="node_22" class="node">
<title>[root] provider.azurerm (close)</title>
<polygon fill="none" stroke="#000000" points="264.5,-378 264.5,-393 308.5,-393 308.5,-378 264.5,-378"/>
<text text-anchor="start" x="267.2969" y="-383.6" font-family="courier new" font-size="8.00" fill="#000000">provider</text>
<polygon fill="none" stroke="#000000" points="264.5,-363 264.5,-378 308.5,-378 308.5,-363 264.5,-363"/>
<text text-anchor="start" x="269.6973" y="-368.6" font-family="courier new" font-size="8.00" fill="#000000">azurerm</text>
</g>
<!-- [root] provider.azurerm (close)&#45;&gt;[root] azurerm_network_security_rule.security_rule_rdp -->
<g id="edge_31" class="edge">
<title>[root] provider.azurerm (close)&#45;&gt;[root] azurerm_network_security_rule.security_rule_rdp</title>
<path fill="none" stroke="#000000" d="M259.3968,-368.8812C228.4725,-358.4767 176.8621,-341.1125 135.702,-327.2642"/>
<polygon fill="#000000" stroke="#000000" points="136.6143,-323.8784 126.0203,-324.0068 134.3821,-330.513 136.6143,-323.8784"/>
</g>
<!-- [root] provider.azurerm (close)&#45;&gt;[root] azurerm_network_security_rule.security_rule_ssh -->
<g id="edge_32" class="edge">
<title>[root] provider.azurerm (close)&#45;&gt;[root] azurerm_network_security_rule.security_rule_ssh</title>
<path fill="none" stroke="#000000" d="M273.6305,-359.8314C267.8165,-351.6232 260.8304,-341.7606 254.4354,-332.7323"/>
<polygon fill="#000000" stroke="#000000" points="257.179,-330.5505 248.5427,-324.4133 251.4669,-334.5966 257.179,-330.5505"/>
</g>
<!-- [root] provider.azurerm (close)&#45;&gt;[root] azurerm_subnet.subnet -->
<g id="edge_33" class="edge">
<title>[root] provider.azurerm (close)&#45;&gt;[root] azurerm_subnet.subnet</title>
<path fill="none" stroke="#000000" d="M298.4904,-359.6709C304.6614,-349.5161 311.8454,-336.4574 316.5,-324 324.0225,-303.8669 328.8868,-280.0279 331.8088,-261.9441"/>
<polygon fill="#000000" stroke="#000000" points="335.2728,-262.4446 333.3102,-252.0332 328.3518,-261.3961 335.2728,-262.4446"/>
</g>
<!-- [root] root -->
<g id="node_23" class="node">
<title>[root] root</title>
<polygon fill="none" stroke="#000000" points="369.8089,-468 301.1911,-468 301.1911,-432 369.8089,-432 369.8089,-468"/>
<text text-anchor="middle" x="335.5" y="-448.1313" font-family="courier new" font-size="8.00" fill="#000000">[root] root</text>
</g>
<!-- [root] root&#45;&gt;[root] meta.count&#45;boundary (count boundary fixup) -->
<g id="edge_34" class="edge">
<title>[root] root&#45;&gt;[root] meta.count&#45;boundary (count boundary fixup)</title>
<path fill="none" stroke="#000000" d="M368.0521,-431.8314C384.7048,-422.5368 405.1585,-411.1208 422.9385,-401.1971"/>
<polygon fill="#000000" stroke="#000000" points="424.9321,-404.0927 431.9583,-396.1628 421.5205,-397.9803 424.9321,-404.0927"/>
</g>
<!-- [root] root&#45;&gt;[root] provider.azurerm (close) -->
<g id="edge_35" class="edge">
<title>[root] root&#45;&gt;[root] provider.azurerm (close)</title>
<path fill="none" stroke="#000000" d="M323.1352,-431.8314C317.5491,-423.6232 310.837,-413.7606 304.6928,-404.7323"/>
<polygon fill="#000000" stroke="#000000" points="307.551,-402.7112 299.0313,-396.4133 301.764,-406.6496 307.551,-402.7112"/>
</g>
</g>
</svg>

