<?xml version="1.0" encoding="UTF-8" standalone="no"?>
<!DOCTYPE svg PUBLIC "-//W3C//DTD SVG 1.1//EN"
 "http://www.w3.org/Graphics/SVG/1.1/DTD/svg11.dtd">
<!-- Generated by graphviz version 2.40.1 (20161225.0304)
 -->
<!-- Title: %3 Pages: 1 -->
<svg width="585pt" height="780pt"
 viewBox="0.00 0.00 584.50 780.00" xmlns="http://www.w3.org/2000/svg" xmlns:xlink="http://www.w3.org/1999/xlink">
<g id="graph0" class="graph" transform="scale(1 1) rotate(0) translate(4 776)">
<title>%3</title>
<polygon fill="#ffffff" stroke="transparent" points="-4,4 -4,-776 580.5,-776 580.5,4 -4,4"/>
<g id="clust2" class="cluster">
<title>cluster[root] azurerm_resource_group.rg_var_</title>
</g>
<g id="clust3" class="cluster">
<title>cluster[root] azurerm_subnet.subnet_var_</title>
</g>
<g id="clust4" class="cluster">
<title>cluster[root] azurerm_virtual_network.vnet_var_</title>
</g>
<g id="clust5" class="cluster">
<title>cluster[root] meta.count&#45;boundary (count boundary fixup)_output_[root] azurerm_network_security_group.security_group</title>
</g>
<g id="clust6" class="cluster">
<title>cluster[root] meta.count&#45;boundary (count boundary fixup)_output_[root] azurerm_virtual_network.vnet</title>
</g>
<g id="clust7" class="cluster">
<title>cluster[root] meta.count&#45;boundary (count boundary fixup)_output_[root] azurerm_subnet.subnet</title>
</g>
<!-- [root] azurerm_network_security_group.security_group -->
<g id="node_0" class="node">
<title>[root] azurerm_network_security_group.security_group</title>
<polygon fill="none" stroke="#000000" points="160.5,-466 160.5,-481 310.5,-481 310.5,-466 160.5,-466"/>
<text text-anchor="start" x="163.4883" y="-471.6" font-family="courier new" font-size="8.00" fill="#000000">azurerm_network_security_group</text>
<polygon fill="none" stroke="#000000" points="160.5,-451 160.5,-466 310.5,-466 310.5,-451 160.5,-451"/>
<text text-anchor="start" x="201.8945" y="-456.6" font-family="courier new" font-size="8.00" fill="#000000">security_group</text>
</g>
<!-- [root] azurerm_resource_group.rg -->
<g id="node_3" class="node">
<title>[root] azurerm_resource_group.rg</title>
<polygon fill="none" stroke="#000000" points="270.5,-178 270.5,-193 381.5,-193 381.5,-178 270.5,-178"/>
<text text-anchor="start" x="273.1914" y="-183.6" font-family="courier new" font-size="8.00" fill="#000000">azurerm_resource_group</text>
<polygon fill="none" stroke="#000000" points="270.5,-163 270.5,-178 381.5,-178 381.5,-163 270.5,-163"/>
<text text-anchor="start" x="321.1992" y="-168.6" font-family="courier new" font-size="8.00" fill="#000000">rg</text>
</g>
<!-- [root] azurerm_network_security_group.security_group&#45;&gt;[root] azurerm_resource_group.rg -->
<g id="edge_0" class="edge">
<title>[root] azurerm_network_security_group.security_group&#45;&gt;[root] azurerm_resource_group.rg</title>
<path fill="none" stroke="#000000" d="M239.3081,-447.5138C241.4449,-437.0893 244.1464,-423.8231 246.5,-412 262.4117,-332.0701 246.9431,-305.8092 281.5,-232 286.163,-222.0404 293.0653,-212.3426 300.0276,-203.9774"/>
<polygon fill="#000000" stroke="#000000" points="302.7044,-206.2332 306.65,-196.4004 297.4338,-201.6265 302.7044,-206.2332"/>
</g>
<!-- [root] var.tags -->
<g id="node_7" class="node">
<title>[root] var.tags</title>
<polygon fill="none" stroke="#000000" points="212.5,-178 212.5,-193 237.5,-193 237.5,-178 212.5,-178"/>
<text text-anchor="start" x="217.7988" y="-183.6" font-family="courier new" font-size="8.00" fill="#000000">var</text>
<polygon fill="none" stroke="#000000" points="212.5,-163 212.5,-178 237.5,-178 237.5,-163 212.5,-163"/>
<text text-anchor="start" x="215.3984" y="-168.6" font-family="courier new" font-size="8.00" fill="#000000">tags</text>
</g>
<!-- [root] azurerm_network_security_group.security_group&#45;&gt;[root] var.tags -->
<g id="edge_1" class="edge">
<title>[root] azurerm_network_security_group.security_group&#45;&gt;[root] var.tags</title>
<path fill="none" stroke="#000000" d="M234.8119,-447.9843C232.9522,-399.2939 227.8151,-264.7961 225.5716,-206.0573"/>
<polygon fill="#000000" stroke="#000000" points="229.0671,-205.868 225.1878,-196.0089 222.0722,-206.1352 229.0671,-205.868"/>
</g>
<!-- [root] azurerm_network_security_rule.security_rule_rdp -->
<g id="node_1" class="node">
<title>[root] azurerm_network_security_rule.security_rule_rdp</title>
<polygon fill="none" stroke="#000000" points=".5,-538 .5,-553 145.5,-553 145.5,-538 .5,-538"/>
<text text-anchor="start" x="3.3887" y="-543.6" font-family="courier new" font-size="8.00" fill="#000000">azurerm_network_security_rule</text>
<polygon fill="none" stroke="#000000" points=".5,-523 .5,-538 145.5,-538 145.5,-523 .5,-523"/>
<text text-anchor="start" x="32.1934" y="-528.6" font-family="courier new" font-size="8.00" fill="#000000">security_rule_rdp</text>
</g>
<!-- [root] azurerm_network_security_rule.security_rule_rdp&#45;&gt;[root] azurerm_network_security_group.security_group -->
<g id="edge_2" class="edge">
<title>[root] azurerm_network_security_rule.security_rule_rdp&#45;&gt;[root] azurerm_network_security_group.security_group</title>
<path fill="none" stroke="#000000" d="M113.6318,-519.8314C135.4321,-510.2018 162.3878,-498.295 185.4004,-488.1299"/>
<polygon fill="#000000" stroke="#000000" points="186.9308,-491.2802 194.664,-484.038 184.1024,-484.877 186.9308,-491.2802"/>
</g>
<!-- [root] azurerm_network_security_rule.security_rule_ssh -->
<g id="node_2" class="node">
<title>[root] azurerm_network_security_rule.security_rule_ssh</title>
<polygon fill="none" stroke="#000000" points="163.5,-538 163.5,-553 308.5,-553 308.5,-538 163.5,-538"/>
<text text-anchor="start" x="166.3887" y="-543.6" font-family="courier new" font-size="8.00" fill="#000000">azurerm_network_security_rule</text>
<polygon fill="none" stroke="#000000" points="163.5,-523 163.5,-538 308.5,-538 308.5,-523 163.5,-523"/>
<text text-anchor="start" x="195.1934" y="-528.6" font-family="courier new" font-size="8.00" fill="#000000">security_rule_ssh</text>
</g>
<!-- [root] azurerm_network_security_rule.security_rule_ssh&#45;&gt;[root] azurerm_network_security_group.security_group -->
<g id="edge_3" class="edge">
<title>[root] azurerm_network_security_rule.security_rule_ssh&#45;&gt;[root] azurerm_network_security_group.security_group</title>
<path fill="none" stroke="#000000" d="M235.5,-519.8314C235.5,-512.131 235.5,-502.9743 235.5,-494.4166"/>
<polygon fill="#000000" stroke="#000000" points="239.0001,-494.4132 235.5,-484.4133 232.0001,-494.4133 239.0001,-494.4132"/>
</g>
<!-- [root] provider.azurerm -->
<g id="node_6" class="node">
<title>[root] provider.azurerm</title>
<polygon fill="none" stroke="#000000" points="242.5,-106 242.5,-121 286.5,-121 286.5,-106 242.5,-106"/>
<text text-anchor="start" x="245.2969" y="-111.6" font-family="courier new" font-size="8.00" fill="#000000">provider</text>
<polygon fill="none" stroke="#000000" points="242.5,-91 242.5,-106 286.5,-106 286.5,-91 242.5,-91"/>
<text text-anchor="start" x="247.6973" y="-96.6" font-family="courier new" font-size="8.00" fill="#000000">azurerm</text>
</g>
<!-- [root] azurerm_resource_group.rg&#45;&gt;[root] provider.azurerm -->
<g id="edge_4" class="edge">
<title>[root] azurerm_resource_group.rg&#45;&gt;[root] provider.azurerm</title>
<path fill="none" stroke="#000000" d="M310.1071,-159.8314C303.0096,-151.454 294.452,-141.3531 286.676,-132.1749"/>
<polygon fill="#000000" stroke="#000000" points="289.2348,-129.7807 280.1001,-124.4133 283.8939,-134.3056 289.2348,-129.7807"/>
</g>
<!-- [root] var.location -->
<g id="node_8" class="node">
<title>[root] var.location</title>
<polygon fill="none" stroke="#000000" points="314.5,-106 314.5,-121 358.5,-121 358.5,-106 314.5,-106"/>
<text text-anchor="start" x="329.2988" y="-111.6" font-family="courier new" font-size="8.00" fill="#000000">var</text>
<polygon fill="none" stroke="#000000" points="314.5,-91 314.5,-106 358.5,-106 358.5,-91 314.5,-91"/>
<text text-anchor="start" x="317.2969" y="-96.6" font-family="courier new" font-size="8.00" fill="#000000">location</text>
</g>
<!-- [root] azurerm_resource_group.rg&#45;&gt;[root] var.location -->
<g id="edge_5" class="edge">
<title>[root] azurerm_resource_group.rg&#45;&gt;[root] var.location</title>
<path fill="none" stroke="#000000" d="M328.2758,-159.8314C329.4522,-152.131 330.8511,-142.9743 332.1586,-134.4166"/>
<polygon fill="#000000" stroke="#000000" points="335.6364,-134.8272 333.6869,-124.4133 328.7167,-133.7699 335.6364,-134.8272"/>
</g>
<!-- [root] azurerm_subnet.subnet -->
<g id="node_4" class="node">
<title>[root] azurerm_subnet.subnet</title>
<polygon fill="none" stroke="#000000" points="365.5,-538 365.5,-553 438.5,-553 438.5,-538 365.5,-538"/>
<text text-anchor="start" x="368.3945" y="-543.6" font-family="courier new" font-size="8.00" fill="#000000">azurerm_subnet</text>
<polygon fill="none" stroke="#000000" points="365.5,-523 365.5,-538 438.5,-538 438.5,-523 365.5,-523"/>
<text text-anchor="start" x="387.5977" y="-528.6" font-family="courier new" font-size="8.00" fill="#000000">subnet</text>
</g>
<!-- [root] azurerm_subnet.subnet&#45;&gt;[root] azurerm_network_security_group.security_group -->
<g id="edge_7" class="edge">
<title>[root] azurerm_subnet.subnet&#45;&gt;[root] azurerm_network_security_group.security_group</title>
<path fill="none" stroke="#000000" d="M364.6592,-522.0209C341.7063,-512.0654 311.8478,-499.1147 286.6219,-488.1733"/>
<polygon fill="#000000" stroke="#000000" points="287.7716,-484.857 277.2047,-484.0888 284.9861,-491.279 287.7716,-484.857"/>
</g>
<!-- [root] azurerm_virtual_network.vnet -->
<g id="node_5" class="node">
<title>[root] azurerm_virtual_network.vnet</title>
<polygon fill="none" stroke="#000000" points="290.5,-250 290.5,-265 406.5,-265 406.5,-250 290.5,-250"/>
<text text-anchor="start" x="293.291" y="-255.6" font-family="courier new" font-size="8.00" fill="#000000">azurerm_virtual_network</text>
<polygon fill="none" stroke="#000000" points="290.5,-235 290.5,-250 406.5,-250 406.5,-235 290.5,-235"/>
<text text-anchor="start" x="338.8984" y="-240.6" font-family="courier new" font-size="8.00" fill="#000000">vnet</text>
</g>
<!-- [root] azurerm_subnet.subnet&#45;&gt;[root] azurerm_virtual_network.vnet -->
<g id="edge_8" class="edge">
<title>[root] azurerm_subnet.subnet&#45;&gt;[root] azurerm_virtual_network.vnet</title>
<path fill="none" stroke="#000000" d="M375.9834,-519.6814C367.5525,-512.1501 359.1472,-502.6785 354.5,-492 323.3053,-420.3193 334.2753,-325.0408 342.6052,-278.3011"/>
<polygon fill="#000000" stroke="#000000" points="346.0782,-278.7704 344.4826,-268.2964 339.1983,-277.4793 346.0782,-278.7704"/>
</g>
<!-- [root] var.subnet_names -->
<g id="node_10" class="node">
<title>[root] var.subnet_names</title>
<polygon fill="none" stroke="#000000" points="372.5,-466 372.5,-481 435.5,-481 435.5,-466 372.5,-466"/>
<text text-anchor="start" x="396.7988" y="-471.6" font-family="courier new" font-size="8.00" fill="#000000">var</text>
<polygon fill="none" stroke="#000000" points="372.5,-451 372.5,-466 435.5,-466 435.5,-451 372.5,-451"/>
<text text-anchor="start" x="375.1953" y="-456.6" font-family="courier new" font-size="8.00" fill="#000000">subnet_names</text>
</g>
<!-- [root] azurerm_subnet.subnet&#45;&gt;[root] var.subnet_names -->
<g id="edge_9" class="edge">
<title>[root] azurerm_subnet.subnet&#45;&gt;[root] var.subnet_names</title>
<path fill="none" stroke="#000000" d="M402.0047,-519.8314C402.2186,-512.131 402.4729,-502.9743 402.7106,-494.4166"/>
<polygon fill="#000000" stroke="#000000" points="406.2094,-494.5066 402.9885,-484.4133 399.2121,-494.3122 406.2094,-494.5066"/>
</g>
<!-- [root] azurerm_virtual_network.vnet&#45;&gt;[root] azurerm_resource_group.rg -->
<g id="edge_11" class="edge">
<title>[root] azurerm_virtual_network.vnet&#45;&gt;[root] azurerm_resource_group.rg</title>
<path fill="none" stroke="#000000" d="M342.6961,-231.8314C340.2092,-224.0463 337.2469,-214.7729 334.4875,-206.1347"/>
<polygon fill="#000000" stroke="#000000" points="337.7591,-204.874 331.382,-196.4133 331.091,-207.0041 337.7591,-204.874"/>
</g>
<!-- [root] azurerm_virtual_network.vnet&#45;&gt;[root] var.tags -->
<g id="edge_14" class="edge">
<title>[root] azurerm_virtual_network.vnet&#45;&gt;[root] var.tags</title>
<path fill="none" stroke="#000000" d="M311.951,-231.9769C296.1778,-223.8674 277.6734,-213.9039 261.5,-204 260.2446,-203.2313 258.9746,-202.4357 257.6989,-201.6212"/>
<polygon fill="#000000" stroke="#000000" points="259.5621,-198.6572 249.2908,-196.0588 255.6999,-204.4954 259.5621,-198.6572"/>
</g>
<!-- [root] var.address_space -->
<g id="node_12" class="node">
<title>[root] var.address_space</title>
<polygon fill="none" stroke="#000000" points="399.5,-178 399.5,-193 467.5,-193 467.5,-178 399.5,-178"/>
<text text-anchor="start" x="426.2988" y="-183.6" font-family="courier new" font-size="8.00" fill="#000000">var</text>
<polygon fill="none" stroke="#000000" points="399.5,-163 399.5,-178 467.5,-178 467.5,-163 399.5,-163"/>
<text text-anchor="start" x="402.2949" y="-168.6" font-family="courier new" font-size="8.00" fill="#000000">address_space</text>
</g>
<!-- [root] azurerm_virtual_network.vnet&#45;&gt;[root] var.address_space -->
<g id="edge_12" class="edge">
<title>[root] azurerm_virtual_network.vnet&#45;&gt;[root] var.address_space</title>
<path fill="none" stroke="#000000" d="M369.9491,-231.8314C380.3178,-223.0485 392.9229,-212.3712 404.1646,-202.8489"/>
<polygon fill="#000000" stroke="#000000" points="406.6895,-205.297 412.0578,-196.1628 402.1651,-199.9556 406.6895,-205.297"/>
</g>
<!-- [root] meta.count&#45;boundary (count boundary fixup) -->
<g id="node_14" class="node">
<title>[root] meta.count&#45;boundary (count boundary fixup)</title>
<polygon fill="none" stroke="#000000" points="257.5,-682 257.5,-697 330.5,-697 330.5,-682 257.5,-682"/>
<text text-anchor="start" x="284.3984" y="-687.6" font-family="courier new" font-size="8.00" fill="#000000">meta</text>
<polygon fill="none" stroke="#000000" points="257.5,-667 257.5,-682 330.5,-682 330.5,-667 257.5,-667"/>
<text text-anchor="start" x="260.3945" y="-672.6" font-family="courier new" font-size="8.00" fill="#000000">count&#45;boundary</text>
</g>
<!-- [root] meta.count&#45;boundary (count boundary fixup)&#45;&gt;[root] azurerm_network_security_rule.security_rule_rdp -->
<g id="edge_15" class="edge">
<title>[root] meta.count&#45;boundary (count boundary fixup)&#45;&gt;[root] azurerm_network_security_rule.security_rule_rdp</title>
<path fill="none" stroke="#000000" d="M256.8827,-676.982C225.3231,-671.2348 179.7306,-659.4067 146.5,-636 120.4207,-617.6304 99.5477,-587.2563 86.704,-565.1854"/>
<polygon fill="#000000" stroke="#000000" points="89.6544,-563.2917 81.6993,-556.2941 83.5544,-566.7253 89.6544,-563.2917"/>
</g>
<!-- [root] meta.count&#45;boundary (count boundary fixup)&#45;&gt;[root] azurerm_network_security_rule.security_rule_ssh -->
<g id="edge_16" class="edge">
<title>[root] meta.count&#45;boundary (count boundary fixup)&#45;&gt;[root] azurerm_network_security_rule.security_rule_ssh</title>
<path fill="none" stroke="#000000" d="M273.8221,-663.9793C266.352,-656.0946 258.4582,-646.2984 253.5,-636 242.9411,-614.0685 238.5516,-586.6389 236.7394,-566.3812"/>
<polygon fill="#000000" stroke="#000000" points="240.2167,-565.943 235.9912,-556.2273 233.2356,-566.4575 240.2167,-565.943"/>
</g>
<!-- [root] output.security_group_id -->
<g id="node_15" class="node">
<title>[root] output.security_group_id</title>
<polygon fill="none" stroke="#000000" points="266.5,-610 266.5,-625 353.5,-625 353.5,-610 266.5,-610"/>
<text text-anchor="start" x="295.5977" y="-615.6" font-family="courier new" font-size="8.00" fill="#000000">output</text>
<polygon fill="none" stroke="#000000" points="266.5,-595 266.5,-610 353.5,-610 353.5,-595 266.5,-595"/>
<text text-anchor="start" x="269.1934" y="-600.6" font-family="courier new" font-size="8.00" fill="#000000">security_group_id</text>
</g>
<!-- [root] meta.count&#45;boundary (count boundary fixup)&#45;&gt;[root] output.security_group_id -->
<g id="edge_17" class="edge">
<title>[root] meta.count&#45;boundary (count boundary fixup)&#45;&gt;[root] output.security_group_id</title>
<path fill="none" stroke="#000000" d="M297.5375,-663.8314C299.2487,-656.131 301.2835,-646.9743 303.1852,-638.4166"/>
<polygon fill="#000000" stroke="#000000" points="306.6554,-638.9344 305.4082,-628.4133 299.8221,-637.4159 306.6554,-638.9344"/>
</g>
<!-- [root] output.vnet_address_space -->
<g id="node_16" class="node">
<title>[root] output.vnet_address_space</title>
<polygon fill="none" stroke="#000000" points="468.5,-610 468.5,-625 560.5,-625 560.5,-610 468.5,-610"/>
<text text-anchor="start" x="500.0977" y="-615.6" font-family="courier new" font-size="8.00" fill="#000000">output</text>
<polygon fill="none" stroke="#000000" points="468.5,-595 468.5,-610 560.5,-610 560.5,-595 468.5,-595"/>
<text text-anchor="start" x="471.293" y="-600.6" font-family="courier new" font-size="8.00" fill="#000000">vnet_address_space</text>
</g>
<!-- [root] meta.count&#45;boundary (count boundary fixup)&#45;&gt;[root] output.vnet_address_space -->
<g id="edge_18" class="edge">
<title>[root] meta.count&#45;boundary (count boundary fixup)&#45;&gt;[root] output.vnet_address_space</title>
<path fill="none" stroke="#000000" d="M330.1243,-672.8435C362.8186,-664.3459 411.831,-650.807 453.5,-636 457.178,-634.693 460.9518,-633.2762 464.7315,-631.8015"/>
<polygon fill="#000000" stroke="#000000" points="466.1111,-635.0192 474.0877,-628.0462 463.5036,-628.5229 466.1111,-635.0192"/>
</g>
<!-- [root] output.vnet_subnets -->
<g id="node_21" class="node">
<title>[root] output.vnet_subnets</title>
<polygon fill="none" stroke="#000000" points="378.5,-610 378.5,-625 441.5,-625 441.5,-610 378.5,-610"/>
<text text-anchor="start" x="395.5977" y="-615.6" font-family="courier new" font-size="8.00" fill="#000000">output</text>
<polygon fill="none" stroke="#000000" points="378.5,-595 378.5,-610 441.5,-610 441.5,-595 378.5,-595"/>
<text text-anchor="start" x="381.1953" y="-600.6" font-family="courier new" font-size="8.00" fill="#000000">vnet_subnets</text>
</g>
<!-- [root] meta.count&#45;boundary (count boundary fixup)&#45;&gt;[root] output.vnet_subnets -->
<g id="edge_23" class="edge">
<title>[root] meta.count&#45;boundary (count boundary fixup)&#45;&gt;[root] output.vnet_subnets</title>
<path fill="none" stroke="#000000" d="M322.7717,-663.8314C337.6088,-654.6221 355.8015,-643.3301 371.6862,-633.4706"/>
<polygon fill="#000000" stroke="#000000" points="373.587,-636.4102 380.2377,-628.1628 369.8955,-630.4628 373.587,-636.4102"/>
</g>
<!-- [root] provider.azurerm (close) -->
<g id="node_22" class="node">
<title>[root] provider.azurerm (close)</title>
<polygon fill="none" stroke="#000000" points="160.5,-610 160.5,-625 204.5,-625 204.5,-610 160.5,-610"/>
<text text-anchor="start" x="163.2969" y="-615.6" font-family="courier new" font-size="8.00" fill="#000000">provider</text>
<polygon fill="none" stroke="#000000" points="160.5,-595 160.5,-610 204.5,-610 204.5,-595 160.5,-595"/>
<text text-anchor="start" x="165.6973" y="-600.6" font-family="courier new" font-size="8.00" fill="#000000">azurerm</text>
</g>
<!-- [root] provider.azurerm (close)&#45;&gt;[root] azurerm_network_security_rule.security_rule_rdp -->
<g id="edge_31" class="edge">
<title>[root] provider.azurerm (close)&#45;&gt;[root] azurerm_network_security_rule.security_rule_rdp</title>
<path fill="none" stroke="#000000" d="M155.309,-592.2022C141.2685,-583.0121 123.947,-571.6744 108.7813,-561.7478"/>
<polygon fill="#000000" stroke="#000000" points="110.4261,-558.6413 100.1423,-556.0931 106.5925,-564.4982 110.4261,-558.6413"/>
</g>
<!-- [root] provider.azurerm (close)&#45;&gt;[root] azurerm_network_security_rule.security_rule_ssh -->
<g id="edge_32" class="edge">
<title>[root] provider.azurerm (close)&#45;&gt;[root] azurerm_network_security_rule.security_rule_ssh</title>
<path fill="none" stroke="#000000" d="M195.8741,-591.8314C201.9162,-583.6232 209.1763,-573.7606 215.8221,-564.7323"/>
<polygon fill="#000000" stroke="#000000" points="218.8363,-566.5415 221.9458,-556.4133 213.1989,-562.3918 218.8363,-566.5415"/>
</g>
<!-- [root] provider.azurerm (close)&#45;&gt;[root] azurerm_subnet.subnet -->
<g id="edge_33" class="edge">
<title>[root] provider.azurerm (close)&#45;&gt;[root] azurerm_subnet.subnet</title>
<path fill="none" stroke="#000000" d="M209.6975,-599.681C222.8708,-594.7751 238.9514,-588.9214 253.5,-584 287.2439,-572.5854 325.6683,-560.6745 354.9075,-551.8333"/>
<polygon fill="#000000" stroke="#000000" points="356.2786,-555.0758 364.844,-548.84 354.2594,-548.3733 356.2786,-555.0758"/>
</g>
<!-- [root] root -->
<g id="node_23" class="node">
<title>[root] root</title>
<polygon fill="none" stroke="#000000" points="279.8089,-772 211.1911,-772 211.1911,-736 279.8089,-736 279.8089,-772"/>
<text text-anchor="middle" x="245.5" y="-752.1313" font-family="courier new" font-size="8.00" fill="#000000">[root] root</text>
</g>
<!-- [root] root&#45;&gt;[root] meta.count&#45;boundary (count boundary fixup) -->
<g id="edge_34" class="edge">
<title>[root] root&#45;&gt;[root] meta.count&#45;boundary (count boundary fixup)</title>
<path fill="none" stroke="#000000" d="M257.6124,-735.8314C263.0281,-727.7079 269.5242,-717.9637 275.4921,-709.0118"/>
<polygon fill="#000000" stroke="#000000" points="278.5896,-710.6753 281.2245,-700.4133 272.7653,-706.7923 278.5896,-710.6753"/>
</g>
<!-- [root] root&#45;&gt;[root] provider.azurerm (close) -->
<g id="edge_35" class="edge">
<title>[root] root&#45;&gt;[root] provider.azurerm (close)</title>
<path fill="none" stroke="#000000" d="M237.521,-735.7623C226.6808,-710.9846 207.2062,-666.4714 194.5723,-637.5939"/>
<polygon fill="#000000" stroke="#000000" points="197.629,-635.8483 190.4142,-628.0896 191.2159,-638.6541 197.629,-635.8483"/>
</g>
<!-- [root] var.prefix -->
<g id="node_9" class="node">
<title>[root] var.prefix</title>
<polygon fill="none" stroke="#000000" points="319.5,-34 319.5,-49 353.5,-49 353.5,-34 319.5,-34"/>
<text text-anchor="start" x="329.2988" y="-39.6" font-family="courier new" font-size="8.00" fill="#000000">var</text>
<polygon fill="none" stroke="#000000" points="319.5,-19 319.5,-34 353.5,-34 353.5,-19 319.5,-19"/>
<text text-anchor="start" x="322.0977" y="-24.6" font-family="courier new" font-size="8.00" fill="#000000">prefix</text>
</g>
<!-- [root] var.location&#45;&gt;[root] var.prefix -->
<g id="edge_37" class="edge">
<title>[root] var.location&#45;&gt;[root] var.prefix</title>
<path fill="none" stroke="#000000" stroke-dasharray="5,2" d="M336.5,-87.8314C336.5,-77 336.5,-63.2876 336.5,-52.4133"/>
</g>
<!-- [root] var.subnet_prefixes -->
<g id="node_11" class="node">
<title>[root] var.subnet_prefixes</title>
<polygon fill="none" stroke="#000000" points="366.5,-394 366.5,-409 444.5,-409 444.5,-394 366.5,-394"/>
<text text-anchor="start" x="398.2988" y="-399.6" font-family="courier new" font-size="8.00" fill="#000000">var</text>
<polygon fill="none" stroke="#000000" points="366.5,-379 366.5,-394 444.5,-394 444.5,-379 366.5,-379"/>
<text text-anchor="start" x="369.4941" y="-384.6" font-family="courier new" font-size="8.00" fill="#000000">subnet_prefixes</text>
</g>
<!-- [root] var.subnet_names&#45;&gt;[root] var.subnet_prefixes -->
<g id="edge_39" class="edge">
<title>[root] var.subnet_names&#45;&gt;[root] var.subnet_prefixes</title>
<path fill="none" stroke="#000000" stroke-dasharray="5,2" d="M404.0047,-447.8314C404.3056,-437 404.6865,-423.2876 404.9885,-412.4133"/>
</g>
<!-- [root] var.dns_servers -->
<g id="node_13" class="node">
<title>[root] var.dns_servers</title>
<polygon fill="none" stroke="#000000" points="404.5,-106 404.5,-121 462.5,-121 462.5,-106 404.5,-106"/>
<text text-anchor="start" x="426.2988" y="-111.6" font-family="courier new" font-size="8.00" fill="#000000">var</text>
<polygon fill="none" stroke="#000000" points="404.5,-91 404.5,-106 462.5,-106 462.5,-91 404.5,-91"/>
<text text-anchor="start" x="407.0957" y="-96.6" font-family="courier new" font-size="8.00" fill="#000000">dns_servers</text>
</g>
<!-- [root] var.address_space&#45;&gt;[root] var.dns_servers -->
<g id="edge_41" class="edge">
<title>[root] var.address_space&#45;&gt;[root] var.dns_servers</title>
<path fill="none" stroke="#000000" stroke-dasharray="5,2" d="M433.5,-159.8314C433.5,-149 433.5,-135.2876 433.5,-124.4133"/>
</g>
<!-- [root] output.security_group_id&#45;&gt;[root] azurerm_network_security_group.security_group -->
<g id="edge_24" class="edge">
<title>[root] output.security_group_id&#45;&gt;[root] azurerm_network_security_group.security_group</title>
<path fill="none" stroke="#000000" d="M316.7022,-591.909C323.0689,-572.8415 329.6286,-542.5095 317.5,-520 310.7984,-507.5626 299.8409,-497.5183 288.0858,-489.6213"/>
<polygon fill="#000000" stroke="#000000" points="289.776,-486.551 279.4347,-484.247 286.0821,-492.497 289.776,-486.551"/>
</g>
<!-- [root] output.vnet_dns_servers -->
<g id="node_17" class="node">
<title>[root] output.vnet_dns_servers</title>
<polygon fill="none" stroke="#000000" points="470.5,-538 470.5,-553 552.5,-553 552.5,-538 470.5,-538"/>
<text text-anchor="start" x="497.0977" y="-543.6" font-family="courier new" font-size="8.00" fill="#000000">output</text>
<polygon fill="none" stroke="#000000" points="470.5,-523 470.5,-538 552.5,-538 552.5,-523 470.5,-523"/>
<text text-anchor="start" x="473.0938" y="-528.6" font-family="courier new" font-size="8.00" fill="#000000">vnet_dns_servers</text>
</g>
<!-- [root] output.vnet_address_space&#45;&gt;[root] output.vnet_dns_servers -->
<g id="edge_58" class="edge">
<title>[root] output.vnet_address_space&#45;&gt;[root] output.vnet_dns_servers</title>
<path fill="none" stroke="#000000" stroke-dasharray="5,2" d="M513.743,-591.8314C513.2917,-581 512.7203,-567.2876 512.2672,-556.4133"/>
</g>
<!-- [root] output.vnet_id -->
<g id="node_18" class="node">
<title>[root] output.vnet_id</title>
<polygon fill="none" stroke="#000000" points="489.5,-466 489.5,-481 528.5,-481 528.5,-466 489.5,-466"/>
<text text-anchor="start" x="494.5977" y="-471.6" font-family="courier new" font-size="8.00" fill="#000000">output</text>
<polygon fill="none" stroke="#000000" points="489.5,-451 489.5,-466 528.5,-466 528.5,-451 489.5,-451"/>
<text text-anchor="start" x="492.1973" y="-456.6" font-family="courier new" font-size="8.00" fill="#000000">vnet_id</text>
</g>
<!-- [root] output.vnet_dns_servers&#45;&gt;[root] output.vnet_id -->
<g id="edge_59" class="edge">
<title>[root] output.vnet_dns_servers&#45;&gt;[root] output.vnet_id</title>
<path fill="none" stroke="#000000" stroke-dasharray="5,2" d="M510.743,-519.8314C510.2917,-509 509.7203,-495.2876 509.2672,-484.4133"/>
</g>
<!-- [root] output.vnet_location -->
<g id="node_19" class="node">
<title>[root] output.vnet_location</title>
<polygon fill="none" stroke="#000000" points="472.5,-394 472.5,-409 540.5,-409 540.5,-394 472.5,-394"/>
<text text-anchor="start" x="492.0977" y="-399.6" font-family="courier new" font-size="8.00" fill="#000000">output</text>
<polygon fill="none" stroke="#000000" points="472.5,-379 472.5,-394 540.5,-394 540.5,-379 472.5,-379"/>
<text text-anchor="start" x="475.2949" y="-384.6" font-family="courier new" font-size="8.00" fill="#000000">vnet_location</text>
</g>
<!-- [root] output.vnet_id&#45;&gt;[root] output.vnet_location -->
<g id="edge_60" class="edge">
<title>[root] output.vnet_id&#45;&gt;[root] output.vnet_location</title>
<path fill="none" stroke="#000000" stroke-dasharray="5,2" d="M507.9953,-447.8314C507.6944,-437 507.3135,-423.2876 507.0115,-412.4133"/>
</g>
<!-- [root] output.vnet_name -->
<g id="node_20" class="node">
<title>[root] output.vnet_name</title>
<polygon fill="none" stroke="#000000" points="476.5,-322 476.5,-337 525.5,-337 525.5,-322 476.5,-322"/>
<text text-anchor="start" x="486.5977" y="-327.6" font-family="courier new" font-size="8.00" fill="#000000">output</text>
<polygon fill="none" stroke="#000000" points="476.5,-307 476.5,-322 525.5,-322 525.5,-307 476.5,-307"/>
<text text-anchor="start" x="479.3965" y="-312.6" font-family="courier new" font-size="8.00" fill="#000000">vnet_name</text>
</g>
<!-- [root] output.vnet_location&#45;&gt;[root] output.vnet_name -->
<g id="edge_61" class="edge">
<title>[root] output.vnet_location&#45;&gt;[root] output.vnet_name</title>
<path fill="none" stroke="#000000" stroke-dasharray="5,2" d="M504.9859,-375.8314C504.0833,-365 502.9406,-351.2876 502.0344,-340.4133"/>
</g>
<!-- [root] output.vnet_name&#45;&gt;[root] azurerm_virtual_network.vnet -->
<g id="edge_29" class="edge">
<title>[root] output.vnet_name&#45;&gt;[root] azurerm_virtual_network.vnet</title>
<path fill="none" stroke="#000000" d="M473.3254,-309.1278C451.8027,-298.9329 421.2203,-284.4465 395.7138,-272.3645"/>
<polygon fill="#000000" stroke="#000000" points="397.1083,-269.1522 386.5725,-268.0344 394.1116,-275.4784 397.1083,-269.1522"/>
</g>
<!-- [root] output.vnet_subnets&#45;&gt;[root] azurerm_subnet.subnet -->
<g id="edge_30" class="edge">
<title>[root] output.vnet_subnets&#45;&gt;[root] azurerm_subnet.subnet</title>
<path fill="none" stroke="#000000" d="M407.4813,-591.8314C406.6257,-584.131 405.6083,-574.9743 404.6574,-566.4166"/>
<polygon fill="#000000" stroke="#000000" points="408.1289,-565.9656 403.5459,-556.4133 401.1717,-566.7386 408.1289,-565.9656"/>
</g>
</g>
</svg>

