<?xml version="1.0" encoding="UTF-8" standalone="no"?>
<!DOCTYPE svg PUBLIC "-//W3C//DTD SVG 1.1//EN"
 "http://www.w3.org/Graphics/SVG/1.1/DTD/svg11.dtd">
<!-- Generated by graphviz version 2.40.1 (20161225.0304)
 -->
<!-- Title: %3 Pages: 1 -->
<svg width="189pt" height="420pt"
 viewBox="0.00 0.00 189.00 420.00" xmlns="http://www.w3.org/2000/svg" xmlns:xlink="http://www.w3.org/1999/xlink">
<g id="graph0" class="graph" transform="scale(1 1) rotate(0) translate(4 416)">
<title>%3</title>
<polygon fill="#ffffff" stroke="transparent" points="-4,4 -4,-416 185,-416 185,4 -4,4"/>
<g id="clust2" class="cluster">
<title>cluster[root] kubernetes_replication_controller.example_var_</title>
</g>
<g id="clust3" class="cluster">
<title>cluster[root] meta.count&#45;boundary (count boundary fixup)_output_[root] kubernetes_service.example</title>
</g>
<!-- [root] kubernetes_replication_controller.example -->
<g id="node_0" class="node">
<title>[root] kubernetes_replication_controller.example</title>
<polygon fill="none" stroke="#000000" points="0,-106 0,-121 164,-121 164,-106 0,-106"/>
<text text-anchor="start" x="2.7871" y="-111.6" font-family="courier new" font-size="8.00" fill="#000000">kubernetes_replication_controller</text>
<polygon fill="none" stroke="#000000" points="0,-91 0,-106 164,-106 164,-91 0,-91"/>
<text text-anchor="start" x="65.1973" y="-96.6" font-family="courier new" font-size="8.00" fill="#000000">example</text>
</g>
<!-- [root] provider.kubernetes -->
<g id="node_2" class="node">
<title>[root] provider.kubernetes</title>
<polygon fill="none" stroke="#000000" points="16,-34 16,-49 70,-49 70,-34 16,-34"/>
<text text-anchor="start" x="23.7969" y="-39.6" font-family="courier new" font-size="8.00" fill="#000000">provider</text>
<polygon fill="none" stroke="#000000" points="16,-19 16,-34 70,-34 70,-19 16,-19"/>
<text text-anchor="start" x="18.9961" y="-24.6" font-family="courier new" font-size="8.00" fill="#000000">kubernetes</text>
</g>
<!-- [root] kubernetes_replication_controller.example&#45;&gt;[root] provider.kubernetes -->
<g id="edge_0" class="edge">
<title>[root] kubernetes_replication_controller.example&#45;&gt;[root] provider.kubernetes</title>
<path fill="none" stroke="#000000" d="M72.1587,-87.8314C67.8043,-79.7925 62.5902,-70.1666 57.7831,-61.2918"/>
<polygon fill="#000000" stroke="#000000" points="60.8143,-59.5392 52.9739,-52.4133 54.6592,-62.8732 60.8143,-59.5392"/>
</g>
<!-- [root] var.nginx_version -->
<g id="node_3" class="node">
<title>[root] var.nginx_version</title>
<polygon fill="none" stroke="#000000" points="88,-34 88,-49 156,-49 156,-34 88,-34"/>
<text text-anchor="start" x="114.7988" y="-39.6" font-family="courier new" font-size="8.00" fill="#000000">var</text>
<polygon fill="none" stroke="#000000" points="88,-19 88,-34 156,-34 156,-19 88,-19"/>
<text text-anchor="start" x="90.7949" y="-24.6" font-family="courier new" font-size="8.00" fill="#000000">nginx_version</text>
</g>
<!-- [root] kubernetes_replication_controller.example&#45;&gt;[root] var.nginx_version -->
<g id="edge_1" class="edge">
<title>[root] kubernetes_replication_controller.example&#45;&gt;[root] var.nginx_version</title>
<path fill="none" stroke="#000000" d="M92.0937,-87.8314C96.5597,-79.7925 101.9075,-70.1666 106.8379,-61.2918"/>
<polygon fill="#000000" stroke="#000000" points="109.9735,-62.8546 111.7704,-52.4133 103.8544,-59.4551 109.9735,-62.8546"/>
</g>
<!-- [root] kubernetes_service.example -->
<g id="node_1" class="node">
<title>[root] kubernetes_service.example</title>
<polygon fill="none" stroke="#000000" points="36,-178 36,-193 128,-193 128,-178 36,-178"/>
<text text-anchor="start" x="38.793" y="-183.6" font-family="courier new" font-size="8.00" fill="#000000">kubernetes_service</text>
<polygon fill="none" stroke="#000000" points="36,-163 36,-178 128,-178 128,-163 36,-163"/>
<text text-anchor="start" x="65.1973" y="-168.6" font-family="courier new" font-size="8.00" fill="#000000">example</text>
</g>
<!-- [root] kubernetes_service.example&#45;&gt;[root] kubernetes_replication_controller.example -->
<g id="edge_2" class="edge">
<title>[root] kubernetes_service.example&#45;&gt;[root] kubernetes_replication_controller.example</title>
<path fill="none" stroke="#000000" d="M82,-159.8314C82,-152.131 82,-142.9743 82,-134.4166"/>
<polygon fill="#000000" stroke="#000000" points="85.5001,-134.4132 82,-124.4133 78.5001,-134.4133 85.5001,-134.4132"/>
</g>
<!-- [root] meta.count&#45;boundary (count boundary fixup) -->
<g id="node_4" class="node">
<title>[root] meta.count&#45;boundary (count boundary fixup)</title>
<polygon fill="none" stroke="#000000" points="36,-322 36,-337 109,-337 109,-322 36,-322"/>
<text text-anchor="start" x="62.8984" y="-327.6" font-family="courier new" font-size="8.00" fill="#000000">meta</text>
<polygon fill="none" stroke="#000000" points="36,-307 36,-322 109,-322 109,-307 36,-307"/>
<text text-anchor="start" x="38.8945" y="-312.6" font-family="courier new" font-size="8.00" fill="#000000">count&#45;boundary</text>
</g>
<!-- [root] output.lb_ip -->
<g id="node_5" class="node">
<title>[root] output.lb_ip</title>
<polygon fill="none" stroke="#000000" points="62,-250 62,-265 96,-265 96,-250 62,-250"/>
<text text-anchor="start" x="64.5977" y="-255.6" font-family="courier new" font-size="8.00" fill="#000000">output</text>
<polygon fill="none" stroke="#000000" points="62,-235 62,-250 96,-250 96,-235 62,-235"/>
<text text-anchor="start" x="66.998" y="-240.6" font-family="courier new" font-size="8.00" fill="#000000">lb_ip</text>
</g>
<!-- [root] meta.count&#45;boundary (count boundary fixup)&#45;&gt;[root] output.lb_ip -->
<g id="edge_3" class="edge">
<title>[root] meta.count&#45;boundary (count boundary fixup)&#45;&gt;[root] output.lb_ip</title>
<path fill="none" stroke="#000000" d="M73.7664,-303.8314C74.515,-296.131 75.4053,-286.9743 76.2373,-278.4166"/>
<polygon fill="#000000" stroke="#000000" points="79.7256,-278.7051 77.2098,-268.4133 72.7585,-278.0276 79.7256,-278.7051"/>
</g>
<!-- [root] provider.kubernetes (close) -->
<g id="node_6" class="node">
<title>[root] provider.kubernetes (close)</title>
<polygon fill="none" stroke="#000000" points="127,-322 127,-337 181,-337 181,-322 127,-322"/>
<text text-anchor="start" x="134.7969" y="-327.6" font-family="courier new" font-size="8.00" fill="#000000">provider</text>
<polygon fill="none" stroke="#000000" points="127,-307 127,-322 181,-322 181,-307 127,-307"/>
<text text-anchor="start" x="129.9961" y="-312.6" font-family="courier new" font-size="8.00" fill="#000000">kubernetes</text>
</g>
<!-- [root] provider.kubernetes (close)&#45;&gt;[root] kubernetes_service.example -->
<g id="edge_5" class="edge">
<title>[root] provider.kubernetes (close)&#45;&gt;[root] kubernetes_service.example</title>
<path fill="none" stroke="#000000" d="M149.2074,-303.9266C143.4287,-283.69 132.6371,-250.2881 118,-224 114.2692,-217.2995 109.601,-210.5435 104.8748,-204.3495"/>
<polygon fill="#000000" stroke="#000000" points="107.4422,-201.9549 98.4767,-196.3095 101.9649,-206.3137 107.4422,-201.9549"/>
</g>
<!-- [root] root -->
<g id="node_7" class="node">
<title>[root] root</title>
<polygon fill="none" stroke="#000000" points="147.3089,-412 78.6911,-412 78.6911,-376 147.3089,-376 147.3089,-412"/>
<text text-anchor="middle" x="113" y="-392.1313" font-family="courier new" font-size="8.00" fill="#000000">[root] root</text>
</g>
<!-- [root] root&#45;&gt;[root] meta.count&#45;boundary (count boundary fixup) -->
<g id="edge_6" class="edge">
<title>[root] root&#45;&gt;[root] meta.count&#45;boundary (count boundary fixup)</title>
<path fill="none" stroke="#000000" d="M102.654,-375.8314C98.0763,-367.7925 92.5948,-358.1666 87.5412,-349.2918"/>
<polygon fill="#000000" stroke="#000000" points="90.4752,-347.3712 82.4853,-340.4133 84.3923,-350.8351 90.4752,-347.3712"/>
</g>
<!-- [root] root&#45;&gt;[root] provider.kubernetes (close) -->
<g id="edge_7" class="edge">
<title>[root] root&#45;&gt;[root] provider.kubernetes (close)</title>
<path fill="none" stroke="#000000" d="M123.346,-375.8314C127.9237,-367.7925 133.4052,-358.1666 138.4588,-349.2918"/>
<polygon fill="#000000" stroke="#000000" points="141.6077,-350.8351 143.5147,-340.4133 135.5248,-347.3712 141.6077,-350.8351"/>
</g>
<!-- [root] output.lb_ip&#45;&gt;[root] kubernetes_service.example -->
<g id="edge_4" class="edge">
<title>[root] output.lb_ip&#45;&gt;[root] kubernetes_service.example</title>
<path fill="none" stroke="#000000" d="M79.757,-231.8314C80.0779,-224.131 80.4594,-214.9743 80.816,-206.4166"/>
<polygon fill="#000000" stroke="#000000" points="84.3133,-206.5503 81.2328,-196.4133 77.3194,-206.2589 84.3133,-206.5503"/>
</g>
</g>
</svg>

