<?xml version="1.0" encoding="UTF-8" standalone="no"?>
<!DOCTYPE svg PUBLIC "-//W3C//DTD SVG 1.1//EN"
 "http://www.w3.org/Graphics/SVG/1.1/DTD/svg11.dtd">
<!-- Generated by graphviz version 2.40.1 (20161225.0304)
 -->
<!-- Title: %3 Pages: 1 -->
<svg width="172pt" height="404pt"
 viewBox="0.00 0.00 172.00 404.00" xmlns="http://www.w3.org/2000/svg" xmlns:xlink="http://www.w3.org/1999/xlink">
<g id="graph0" class="graph" transform="scale(1 1) rotate(0) translate(4 400)">
<title>%3</title>
<polygon fill="#ffffff" stroke="transparent" points="-4,4 -4,-400 168,-400 168,4 -4,4"/>
<!-- [root] kubernetes_replication_controller.example -->
<g id="node_0" class="node">
<title>[root] kubernetes_replication_controller.example</title>
<polygon fill="none" stroke="#000000" points="0,-90 0,-105 164,-105 164,-90 0,-90"/>
<text text-anchor="start" x="2.7871" y="-95.6" font-family="courier new" font-size="8.00" fill="#000000">kubernetes_replication_controller</text>
<polygon fill="none" stroke="#000000" points="0,-75 0,-90 164,-90 164,-75 0,-75"/>
<text text-anchor="start" x="65.1973" y="-80.6" font-family="courier new" font-size="8.00" fill="#000000">example</text>
</g>
<!-- [root] provider.kubernetes -->
<g id="node_2" class="node">
<title>[root] provider.kubernetes</title>
<polygon fill="none" stroke="#000000" points="16,-18 16,-33 70,-33 70,-18 16,-18"/>
<text text-anchor="start" x="23.7969" y="-23.6" font-family="courier new" font-size="8.00" fill="#000000">provider</text>
<polygon fill="none" stroke="#000000" points="16,-3 16,-18 70,-18 70,-3 16,-3"/>
<text text-anchor="start" x="18.9961" y="-8.6" font-family="courier new" font-size="8.00" fill="#000000">kubernetes</text>
</g>
<!-- [root] kubernetes_replication_controller.example&#45;&gt;[root] provider.kubernetes -->
<g id="edge_0" class="edge">
<title>[root] kubernetes_replication_controller.example&#45;&gt;[root] provider.kubernetes</title>
<path fill="none" stroke="#000000" d="M72.1587,-71.8314C67.8043,-63.7925 62.5902,-54.1666 57.7831,-45.2918"/>
<polygon fill="#000000" stroke="#000000" points="60.8143,-43.5392 52.9739,-36.4133 54.6592,-46.8732 60.8143,-43.5392"/>
</g>
<!-- [root] var.nginx_version -->
<g id="node_3" class="node">
<title>[root] var.nginx_version</title>
<polygon fill="none" stroke="#000000" points="88,-18 88,-33 156,-33 156,-18 88,-18"/>
<text text-anchor="start" x="114.7988" y="-23.6" font-family="courier new" font-size="8.00" fill="#000000">var</text>
<polygon fill="none" stroke="#000000" points="88,-3 88,-18 156,-18 156,-3 88,-3"/>
<text text-anchor="start" x="90.7949" y="-8.6" font-family="courier new" font-size="8.00" fill="#000000">nginx_version</text>
</g>
<!-- [root] kubernetes_replication_controller.example&#45;&gt;[root] var.nginx_version -->
<g id="edge_1" class="edge">
<title>[root] kubernetes_replication_controller.example&#45;&gt;[root] var.nginx_version</title>
<path fill="none" stroke="#000000" d="M92.0937,-71.8314C96.5597,-63.7925 101.9075,-54.1666 106.8379,-45.2918"/>
<polygon fill="#000000" stroke="#000000" points="109.9735,-46.8546 111.7704,-36.4133 103.8544,-43.4551 109.9735,-46.8546"/>
</g>
<!-- [root] kubernetes_service.example -->
<g id="node_1" class="node">
<title>[root] kubernetes_service.example</title>
<polygon fill="none" stroke="#000000" points="36,-162 36,-177 128,-177 128,-162 36,-162"/>
<text text-anchor="start" x="38.793" y="-167.6" font-family="courier new" font-size="8.00" fill="#000000">kubernetes_service</text>
<polygon fill="none" stroke="#000000" points="36,-147 36,-162 128,-162 128,-147 36,-147"/>
<text text-anchor="start" x="65.1973" y="-152.6" font-family="courier new" font-size="8.00" fill="#000000">example</text>
</g>
<!-- [root] kubernetes_service.example&#45;&gt;[root] kubernetes_replication_controller.example -->
<g id="edge_2" class="edge">
<title>[root] kubernetes_service.example&#45;&gt;[root] kubernetes_replication_controller.example</title>
<path fill="none" stroke="#000000" d="M82,-143.8314C82,-136.131 82,-126.9743 82,-118.4166"/>
<polygon fill="#000000" stroke="#000000" points="85.5001,-118.4132 82,-108.4133 78.5001,-118.4133 85.5001,-118.4132"/>
</g>
<!-- [root] meta.count&#45;boundary (count boundary fixup) -->
<g id="node_4" class="node">
<title>[root] meta.count&#45;boundary (count boundary fixup)</title>
<polygon fill="none" stroke="#000000" points="13,-306 13,-321 86,-321 86,-306 13,-306"/>
<text text-anchor="start" x="39.8984" y="-311.6" font-family="courier new" font-size="8.00" fill="#000000">meta</text>
<polygon fill="none" stroke="#000000" points="13,-291 13,-306 86,-306 86,-291 13,-291"/>
<text text-anchor="start" x="15.8945" y="-296.6" font-family="courier new" font-size="8.00" fill="#000000">count&#45;boundary</text>
</g>
<!-- [root] output.lb_ip -->
<g id="node_5" class="node">
<title>[root] output.lb_ip</title>
<polygon fill="none" stroke="#000000" points="29,-234 29,-249 63,-249 63,-234 29,-234"/>
<text text-anchor="start" x="31.5977" y="-239.6" font-family="courier new" font-size="8.00" fill="#000000">output</text>
<polygon fill="none" stroke="#000000" points="29,-219 29,-234 63,-234 63,-219 29,-219"/>
<text text-anchor="start" x="33.998" y="-224.6" font-family="courier new" font-size="8.00" fill="#000000">lb_ip</text>
</g>
<!-- [root] meta.count&#45;boundary (count boundary fixup)&#45;&gt;[root] output.lb_ip -->
<g id="edge_3" class="edge">
<title>[root] meta.count&#45;boundary (count boundary fixup)&#45;&gt;[root] output.lb_ip</title>
<path fill="none" stroke="#000000" d="M48.243,-287.8314C47.9221,-280.131 47.5406,-270.9743 47.184,-262.4166"/>
<polygon fill="#000000" stroke="#000000" points="50.6806,-262.2589 46.7672,-252.4133 43.6867,-262.5503 50.6806,-262.2589"/>
</g>
<!-- [root] output.lb_ip&#45;&gt;[root] kubernetes_service.example -->
<g id="edge_4" class="edge">
<title>[root] output.lb_ip&#45;&gt;[root] kubernetes_service.example</title>
<path fill="none" stroke="#000000" d="M55.0843,-215.8314C59.0615,-207.8771 63.8155,-198.369 68.2139,-189.5723"/>
<polygon fill="#000000" stroke="#000000" points="71.4517,-190.9228 72.7934,-180.4133 65.1907,-187.7923 71.4517,-190.9228"/>
</g>
<!-- [root] provider.kubernetes (close) -->
<g id="node_6" class="node">
<title>[root] provider.kubernetes (close)</title>
<polygon fill="none" stroke="#000000" points="91,-234 91,-249 145,-249 145,-234 91,-234"/>
<text text-anchor="start" x="98.7969" y="-239.6" font-family="courier new" font-size="8.00" fill="#000000">provider</text>
<polygon fill="none" stroke="#000000" points="91,-219 91,-234 145,-234 145,-219 91,-219"/>
<text text-anchor="start" x="93.9961" y="-224.6" font-family="courier new" font-size="8.00" fill="#000000">kubernetes</text>
</g>
<!-- [root] provider.kubernetes (close)&#45;&gt;[root] kubernetes_service.example -->
<g id="edge_5" class="edge">
<title>[root] provider.kubernetes (close)&#45;&gt;[root] kubernetes_service.example</title>
<path fill="none" stroke="#000000" d="M108.9157,-215.8314C104.9385,-207.8771 100.1845,-198.369 95.7861,-189.5723"/>
<polygon fill="#000000" stroke="#000000" points="98.8093,-187.7923 91.2066,-180.4133 92.5483,-190.9228 98.8093,-187.7923"/>
</g>
<!-- [root] root -->
<g id="node_7" class="node">
<title>[root] root</title>
<polygon fill="none" stroke="#000000" points="115.3089,-396 46.6911,-396 46.6911,-360 115.3089,-360 115.3089,-396"/>
<text text-anchor="middle" x="81" y="-376.1313" font-family="courier new" font-size="8.00" fill="#000000">[root] root</text>
</g>
<!-- [root] root&#45;&gt;[root] meta.count&#45;boundary (count boundary fixup) -->
<g id="edge_6" class="edge">
<title>[root] root&#45;&gt;[root] meta.count&#45;boundary (count boundary fixup)</title>
<path fill="none" stroke="#000000" d="M72.925,-359.8314C69.3898,-351.8771 65.164,-342.369 61.2544,-333.5723"/>
<polygon fill="#000000" stroke="#000000" points="64.4435,-332.1299 57.1837,-324.4133 58.0468,-334.9729 64.4435,-332.1299"/>
</g>
<!-- [root] root&#45;&gt;[root] provider.kubernetes (close) -->
<g id="edge_7" class="edge">
<title>[root] root&#45;&gt;[root] provider.kubernetes (close)</title>
<path fill="none" stroke="#000000" d="M85.6861,-359.7623C92.0248,-335.0928 103.3902,-290.8598 110.8125,-261.9731"/>
<polygon fill="#000000" stroke="#000000" points="114.2532,-262.6461 113.352,-252.0896 107.4734,-260.904 114.2532,-262.6461"/>
</g>
</g>
</svg>

