<?xml version="1.0" encoding="UTF-8" standalone="no"?>
<!DOCTYPE svg PUBLIC "-//W3C//DTD SVG 1.1//EN"
 "http://www.w3.org/Graphics/SVG/1.1/DTD/svg11.dtd">
<!-- Generated by graphviz version 2.40.1 (20161225.0304)
 -->
<!-- Title: %3 Pages: 1 -->
<svg width="263pt" height="548pt"
 viewBox="0.00 0.00 263.00 548.00" xmlns="http://www.w3.org/2000/svg" xmlns:xlink="http://www.w3.org/1999/xlink">
<g id="graph0" class="graph" transform="scale(1 1) rotate(0) translate(4 544)">
<title>%3</title>
<polygon fill="#ffffff" stroke="transparent" points="-4,4 -4,-544 259,-544 259,4 -4,4"/>
<!-- [root] aws_eip.default -->
<g id="node_0" class="node">
<title>[root] aws_eip.default</title>
<polygon fill="none" stroke="#000000" points="154,-306 154,-321 193,-321 193,-306 154,-306"/>
<text text-anchor="start" x="156.6973" y="-311.6" font-family="courier new" font-size="8.00" fill="#000000">aws_eip</text>
<polygon fill="none" stroke="#000000" points="154,-291 154,-306 193,-306 193,-291 154,-291"/>
<text text-anchor="start" x="156.6973" y="-296.6" font-family="courier new" font-size="8.00" fill="#000000">default</text>
</g>
<!-- [root] aws_instance.web -->
<g id="node_1" class="node">
<title>[root] aws_instance.web</title>
<polygon fill="none" stroke="#000000" points="106,-234 106,-249 169,-249 169,-234 106,-234"/>
<text text-anchor="start" x="108.6953" y="-239.6" font-family="courier new" font-size="8.00" fill="#000000">aws_instance</text>
<polygon fill="none" stroke="#000000" points="106,-219 106,-234 169,-234 169,-219 106,-219"/>
<text text-anchor="start" x="130.2988" y="-224.6" font-family="courier new" font-size="8.00" fill="#000000">web</text>
</g>
<!-- [root] aws_eip.default&#45;&gt;[root] aws_instance.web -->
<g id="edge_0" class="edge">
<title>[root] aws_eip.default&#45;&gt;[root] aws_instance.web</title>
<path fill="none" stroke="#000000" d="M163.9157,-287.8314C159.9385,-279.8771 155.1845,-270.369 150.7861,-261.5723"/>
<polygon fill="#000000" stroke="#000000" points="153.8093,-259.7923 146.2066,-252.4133 147.5483,-262.9228 153.8093,-259.7923"/>
</g>
<!-- [root] aws_security_group.default -->
<g id="node_2" class="node">
<title>[root] aws_security_group.default</title>
<polygon fill="none" stroke="#000000" points="0,-162 0,-177 92,-177 92,-162 0,-162"/>
<text text-anchor="start" x="2.793" y="-167.6" font-family="courier new" font-size="8.00" fill="#000000">aws_security_group</text>
<polygon fill="none" stroke="#000000" points="0,-147 0,-162 92,-162 92,-147 0,-147"/>
<text text-anchor="start" x="29.1973" y="-152.6" font-family="courier new" font-size="8.00" fill="#000000">default</text>
</g>
<!-- [root] aws_instance.web&#45;&gt;[root] aws_security_group.default -->
<g id="edge_1" class="edge">
<title>[root] aws_instance.web&#45;&gt;[root] aws_security_group.default</title>
<path fill="none" stroke="#000000" d="M114.0369,-215.8314C102.8285,-206.9632 89.1791,-196.1637 77.0561,-186.5718"/>
<polygon fill="#000000" stroke="#000000" points="78.9697,-183.6229 68.9558,-180.1628 74.6263,-189.1125 78.9697,-183.6229"/>
</g>
<!-- [root] var.aws_amis -->
<g id="node_4" class="node">
<title>[root] var.aws_amis</title>
<polygon fill="none" stroke="#000000" points="115,-162 115,-177 159,-177 159,-162 115,-162"/>
<text text-anchor="start" x="129.7988" y="-167.6" font-family="courier new" font-size="8.00" fill="#000000">var</text>
<polygon fill="none" stroke="#000000" points="115,-147 115,-162 159,-162 159,-147 115,-147"/>
<text text-anchor="start" x="117.7969" y="-152.6" font-family="courier new" font-size="8.00" fill="#000000">aws_amis</text>
</g>
<!-- [root] aws_instance.web&#45;&gt;[root] var.aws_amis -->
<g id="edge_2" class="edge">
<title>[root] aws_instance.web&#45;&gt;[root] var.aws_amis</title>
<path fill="none" stroke="#000000" d="M137,-215.8314C137,-208.131 137,-198.9743 137,-190.4166"/>
<polygon fill="#000000" stroke="#000000" points="140.5001,-190.4132 137,-180.4133 133.5001,-190.4133 140.5001,-190.4132"/>
</g>
<!-- [root] var.key_name -->
<g id="node_5" class="node">
<title>[root] var.key_name</title>
<polygon fill="none" stroke="#000000" points="187,-162 187,-177 231,-177 231,-162 187,-162"/>
<text text-anchor="start" x="201.7988" y="-167.6" font-family="courier new" font-size="8.00" fill="#000000">var</text>
<polygon fill="none" stroke="#000000" points="187,-147 187,-162 231,-162 231,-147 187,-147"/>
<text text-anchor="start" x="189.7969" y="-152.6" font-family="courier new" font-size="8.00" fill="#000000">key_name</text>
</g>
<!-- [root] aws_instance.web&#45;&gt;[root] var.key_name -->
<g id="edge_3" class="edge">
<title>[root] aws_instance.web&#45;&gt;[root] var.key_name</title>
<path fill="none" stroke="#000000" d="M155.1686,-215.8314C163.7152,-207.2848 174.0557,-196.9443 183.3802,-187.6198"/>
<polygon fill="#000000" stroke="#000000" points="185.9905,-189.9592 190.5867,-180.4133 181.0408,-185.0095 185.9905,-189.9592"/>
</g>
<!-- [root] provider.aws -->
<g id="node_3" class="node">
<title>[root] provider.aws</title>
<polygon fill="none" stroke="#000000" points="24,-90 24,-105 68,-105 68,-90 24,-90"/>
<text text-anchor="start" x="26.7969" y="-95.6" font-family="courier new" font-size="8.00" fill="#000000">provider</text>
<polygon fill="none" stroke="#000000" points="24,-75 24,-90 68,-90 68,-75 24,-75"/>
<text text-anchor="start" x="38.7988" y="-80.6" font-family="courier new" font-size="8.00" fill="#000000">aws</text>
</g>
<!-- [root] aws_security_group.default&#45;&gt;[root] provider.aws -->
<g id="edge_4" class="edge">
<title>[root] aws_security_group.default&#45;&gt;[root] provider.aws</title>
<path fill="none" stroke="#000000" d="M46,-143.8314C46,-136.131 46,-126.9743 46,-118.4166"/>
<polygon fill="#000000" stroke="#000000" points="49.5001,-118.4132 46,-108.4133 42.5001,-118.4133 49.5001,-118.4132"/>
</g>
<!-- [root] var.aws_region -->
<g id="node_10" class="node">
<title>[root] var.aws_region</title>
<polygon fill="none" stroke="#000000" points="19,-18 19,-33 73,-33 73,-18 19,-18"/>
<text text-anchor="start" x="38.7988" y="-23.6" font-family="courier new" font-size="8.00" fill="#000000">var</text>
<polygon fill="none" stroke="#000000" points="19,-3 19,-18 73,-18 73,-3 19,-3"/>
<text text-anchor="start" x="21.9961" y="-8.6" font-family="courier new" font-size="8.00" fill="#000000">aws_region</text>
</g>
<!-- [root] provider.aws&#45;&gt;[root] var.aws_region -->
<g id="edge_10" class="edge">
<title>[root] provider.aws&#45;&gt;[root] var.aws_region</title>
<path fill="none" stroke="#000000" d="M46,-71.8314C46,-64.131 46,-54.9743 46,-46.4166"/>
<polygon fill="#000000" stroke="#000000" points="49.5001,-46.4132 46,-36.4133 42.5001,-46.4133 49.5001,-46.4132"/>
</g>
<!-- [root] meta.count&#45;boundary (count boundary fixup) -->
<g id="node_6" class="node">
<title>[root] meta.count&#45;boundary (count boundary fixup)</title>
<polygon fill="none" stroke="#000000" points="120,-450 120,-465 193,-465 193,-450 120,-450"/>
<text text-anchor="start" x="146.8984" y="-455.6" font-family="courier new" font-size="8.00" fill="#000000">meta</text>
<polygon fill="none" stroke="#000000" points="120,-435 120,-450 193,-450 193,-435 120,-435"/>
<text text-anchor="start" x="122.8945" y="-440.6" font-family="courier new" font-size="8.00" fill="#000000">count&#45;boundary</text>
</g>
<!-- [root] output.address -->
<g id="node_7" class="node">
<title>[root] output.address</title>
<polygon fill="none" stroke="#000000" points="82,-306 82,-321 121,-321 121,-306 82,-306"/>
<text text-anchor="start" x="87.0977" y="-311.6" font-family="courier new" font-size="8.00" fill="#000000">output</text>
<polygon fill="none" stroke="#000000" points="82,-291 82,-306 121,-306 121,-291 82,-291"/>
<text text-anchor="start" x="84.6973" y="-296.6" font-family="courier new" font-size="8.00" fill="#000000">address</text>
</g>
<!-- [root] meta.count&#45;boundary (count boundary fixup)&#45;&gt;[root] output.address -->
<g id="edge_5" class="edge">
<title>[root] meta.count&#45;boundary (count boundary fixup)&#45;&gt;[root] output.address</title>
<path fill="none" stroke="#000000" d="M141.1147,-431.5185C133.7538,-421.5296 125.328,-408.6716 120,-396 111.6694,-376.1876 106.8467,-352.3321 104.1459,-334.1605"/>
<polygon fill="#000000" stroke="#000000" points="107.6059,-333.6289 102.7905,-324.1917 100.6698,-334.5721 107.6059,-333.6289"/>
</g>
<!-- [root] output.elastic ip -->
<g id="node_8" class="node">
<title>[root] output.elastic ip</title>
<polygon fill="none" stroke="#000000" points="137,-378 137,-393 176,-393 176,-378 137,-378"/>
<text text-anchor="start" x="142.0977" y="-383.6" font-family="courier new" font-size="8.00" fill="#000000">output</text>
<polygon fill="none" stroke="#000000" points="137,-363 137,-378 176,-378 176,-363 137,-363"/>
<text text-anchor="start" x="139.6973" y="-368.6" font-family="courier new" font-size="8.00" fill="#000000">elastic</text>
</g>
<!-- [root] meta.count&#45;boundary (count boundary fixup)&#45;&gt;[root] output.elastic ip -->
<g id="edge_6" class="edge">
<title>[root] meta.count&#45;boundary (count boundary fixup)&#45;&gt;[root] output.elastic ip</title>
<path fill="none" stroke="#000000" d="M156,-431.8314C156,-424.131 156,-414.9743 156,-406.4166"/>
<polygon fill="#000000" stroke="#000000" points="159.5001,-406.4132 156,-396.4133 152.5001,-406.4133 159.5001,-406.4132"/>
</g>
<!-- [root] output.address&#45;&gt;[root] aws_instance.web -->
<g id="edge_7" class="edge">
<title>[root] output.address&#45;&gt;[root] aws_instance.web</title>
<path fill="none" stroke="#000000" d="M110.0843,-287.8314C114.0615,-279.8771 118.8155,-270.369 123.2139,-261.5723"/>
<polygon fill="#000000" stroke="#000000" points="126.4517,-262.9228 127.7934,-252.4133 120.1907,-259.7923 126.4517,-262.9228"/>
</g>
<!-- [root] output.elastic ip&#45;&gt;[root] aws_eip.default -->
<g id="edge_8" class="edge">
<title>[root] output.elastic ip&#45;&gt;[root] aws_eip.default</title>
<path fill="none" stroke="#000000" d="M160.2898,-359.8314C162.108,-352.131 164.2699,-342.9743 166.2905,-334.4166"/>
<polygon fill="#000000" stroke="#000000" points="169.7608,-334.95 168.6524,-324.4133 162.9481,-333.3414 169.7608,-334.95"/>
</g>
<!-- [root] provider.aws (close) -->
<g id="node_9" class="node">
<title>[root] provider.aws (close)</title>
<polygon fill="none" stroke="#000000" points="206,-378 206,-393 250,-393 250,-378 206,-378"/>
<text text-anchor="start" x="208.7969" y="-383.6" font-family="courier new" font-size="8.00" fill="#000000">provider</text>
<polygon fill="none" stroke="#000000" points="206,-363 206,-378 250,-378 250,-363 206,-363"/>
<text text-anchor="start" x="220.7988" y="-368.6" font-family="courier new" font-size="8.00" fill="#000000">aws</text>
</g>
<!-- [root] provider.aws (close)&#45;&gt;[root] aws_eip.default -->
<g id="edge_9" class="edge">
<title>[root] provider.aws (close)&#45;&gt;[root] aws_eip.default</title>
<path fill="none" stroke="#000000" d="M214.1212,-359.8314C207.7864,-351.5386 200.1616,-341.557 193.2074,-332.4533"/>
<polygon fill="#000000" stroke="#000000" points="195.9175,-330.2353 187.0657,-324.4133 190.3548,-334.4847 195.9175,-330.2353"/>
</g>
<!-- [root] root -->
<g id="node_11" class="node">
<title>[root] root</title>
<polygon fill="none" stroke="#000000" points="222.3089,-540 153.6911,-540 153.6911,-504 222.3089,-504 222.3089,-540"/>
<text text-anchor="middle" x="188" y="-520.1313" font-family="courier new" font-size="8.00" fill="#000000">[root] root</text>
</g>
<!-- [root] root&#45;&gt;[root] meta.count&#45;boundary (count boundary fixup) -->
<g id="edge_11" class="edge">
<title>[root] root&#45;&gt;[root] meta.count&#45;boundary (count boundary fixup)</title>
<path fill="none" stroke="#000000" d="M179.925,-503.8314C176.3898,-495.8771 172.164,-486.369 168.2544,-477.5723"/>
<polygon fill="#000000" stroke="#000000" points="171.4435,-476.1299 164.1837,-468.4133 165.0468,-478.9729 171.4435,-476.1299"/>
</g>
<!-- [root] root&#45;&gt;[root] provider.aws (close) -->
<g id="edge_12" class="edge">
<title>[root] root&#45;&gt;[root] provider.aws (close)</title>
<path fill="none" stroke="#000000" d="M193.066,-503.7623C199.9187,-479.0928 212.2056,-434.8598 220.2297,-405.9731"/>
<polygon fill="#000000" stroke="#000000" points="223.6709,-406.6616 222.9751,-396.0896 216.9263,-404.788 223.6709,-406.6616"/>
</g>
</g>
</svg>

