<?xml version="1.0" encoding="UTF-8" standalone="no"?>
<!DOCTYPE svg PUBLIC "-//W3C//DTD SVG 1.1//EN"
 "http://www.w3.org/Graphics/SVG/1.1/DTD/svg11.dtd">
<!-- Generated by graphviz version 2.40.1 (20161225.0304)
 -->
<!-- Title: %3 Pages: 1 -->
<svg width="211pt" height="564pt"
 viewBox="0.00 0.00 211.00 564.00" xmlns="http://www.w3.org/2000/svg" xmlns:xlink="http://www.w3.org/1999/xlink">
<g id="graph0" class="graph" transform="scale(1 1) rotate(0) translate(4 560)">
<title>%3</title>
<polygon fill="#ffffff" stroke="transparent" points="-4,4 -4,-560 207,-560 207,4 -4,4"/>
<g id="clust2" class="cluster">
<title>cluster[root] aws_instance.web_var_</title>
</g>
<g id="clust3" class="cluster">
<title>cluster[root] provider.aws_var_</title>
</g>
<g id="clust4" class="cluster">
<title>cluster[root] meta.count&#45;boundary (count boundary fixup)_output_[root] aws_instance.web</title>
</g>
<g id="clust5" class="cluster">
<title>cluster[root] meta.count&#45;boundary (count boundary fixup)_output_[root] aws_eip.default</title>
</g>
<!-- [root] aws_eip.default -->
<g id="node_0" class="node">
<title>[root] aws_eip.default</title>
<polygon fill="none" stroke="#000000" points="102,-322 102,-337 141,-337 141,-322 102,-322"/>
<text text-anchor="start" x="104.6973" y="-327.6" font-family="courier new" font-size="8.00" fill="#000000">aws_eip</text>
<polygon fill="none" stroke="#000000" points="102,-307 102,-322 141,-322 141,-307 102,-307"/>
<text text-anchor="start" x="104.6973" y="-312.6" font-family="courier new" font-size="8.00" fill="#000000">default</text>
</g>
<!-- [root] aws_instance.web -->
<g id="node_1" class="node">
<title>[root] aws_instance.web</title>
<polygon fill="none" stroke="#000000" points="57,-250 57,-265 120,-265 120,-250 57,-250"/>
<text text-anchor="start" x="59.6953" y="-255.6" font-family="courier new" font-size="8.00" fill="#000000">aws_instance</text>
<polygon fill="none" stroke="#000000" points="57,-235 57,-250 120,-250 120,-235 57,-235"/>
<text text-anchor="start" x="81.2988" y="-240.6" font-family="courier new" font-size="8.00" fill="#000000">web</text>
</g>
<!-- [root] aws_eip.default&#45;&gt;[root] aws_instance.web -->
<g id="edge_0" class="edge">
<title>[root] aws_eip.default&#45;&gt;[root] aws_instance.web</title>
<path fill="none" stroke="#000000" d="M112.6727,-303.8314C109.027,-295.8771 104.6691,-286.369 100.6373,-277.5723"/>
<polygon fill="#000000" stroke="#000000" points="103.7877,-276.0456 96.4394,-268.4133 97.4243,-278.9622 103.7877,-276.0456"/>
</g>
<!-- [root] aws_security_group.default -->
<g id="node_2" class="node">
<title>[root] aws_security_group.default</title>
<polygon fill="none" stroke="#000000" points="111,-178 111,-193 203,-193 203,-178 111,-178"/>
<text text-anchor="start" x="113.793" y="-183.6" font-family="courier new" font-size="8.00" fill="#000000">aws_security_group</text>
<polygon fill="none" stroke="#000000" points="111,-163 111,-178 203,-178 203,-163 111,-163"/>
<text text-anchor="start" x="140.1973" y="-168.6" font-family="courier new" font-size="8.00" fill="#000000">default</text>
</g>
<!-- [root] aws_instance.web&#45;&gt;[root] aws_security_group.default -->
<g id="edge_1" class="edge">
<title>[root] aws_instance.web&#45;&gt;[root] aws_security_group.default</title>
<path fill="none" stroke="#000000" d="M105.4116,-231.8314C113.521,-223.3694 123.3156,-213.1489 132.182,-203.8971"/>
<polygon fill="#000000" stroke="#000000" points="134.9618,-206.0549 139.354,-196.4133 129.9079,-201.2115 134.9618,-206.0549"/>
</g>
<!-- [root] var.aws_amis -->
<g id="node_4" class="node">
<title>[root] var.aws_amis</title>
<polygon fill="none" stroke="#000000" points="44,-178 44,-193 88,-193 88,-178 44,-178"/>
<text text-anchor="start" x="58.7988" y="-183.6" font-family="courier new" font-size="8.00" fill="#000000">var</text>
<polygon fill="none" stroke="#000000" points="44,-163 44,-178 88,-178 88,-163 44,-163"/>
<text text-anchor="start" x="46.7969" y="-168.6" font-family="courier new" font-size="8.00" fill="#000000">aws_amis</text>
</g>
<!-- [root] aws_instance.web&#45;&gt;[root] var.aws_amis -->
<g id="edge_2" class="edge">
<title>[root] aws_instance.web&#45;&gt;[root] var.aws_amis</title>
<path fill="none" stroke="#000000" d="M82.4485,-231.8314C80.0697,-224.0463 77.2362,-214.7729 74.5967,-206.1347"/>
<polygon fill="#000000" stroke="#000000" points="77.8958,-204.954 71.6263,-196.4133 71.2013,-206.9996 77.8958,-204.954"/>
</g>
<!-- [root] provider.aws -->
<g id="node_3" class="node">
<title>[root] provider.aws</title>
<polygon fill="none" stroke="#000000" points="135,-106 135,-121 179,-121 179,-106 135,-106"/>
<text text-anchor="start" x="137.7969" y="-111.6" font-family="courier new" font-size="8.00" fill="#000000">provider</text>
<polygon fill="none" stroke="#000000" points="135,-91 135,-106 179,-106 179,-91 135,-91"/>
<text text-anchor="start" x="149.7988" y="-96.6" font-family="courier new" font-size="8.00" fill="#000000">aws</text>
</g>
<!-- [root] aws_security_group.default&#45;&gt;[root] provider.aws -->
<g id="edge_4" class="edge">
<title>[root] aws_security_group.default&#45;&gt;[root] provider.aws</title>
<path fill="none" stroke="#000000" d="M157,-159.8314C157,-152.131 157,-142.9743 157,-134.4166"/>
<polygon fill="#000000" stroke="#000000" points="160.5001,-134.4132 157,-124.4133 153.5001,-134.4133 160.5001,-134.4132"/>
</g>
<!-- [root] var.aws_region -->
<g id="node_10" class="node">
<title>[root] var.aws_region</title>
<polygon fill="none" stroke="#000000" points="130,-34 130,-49 184,-49 184,-34 130,-34"/>
<text text-anchor="start" x="149.7988" y="-39.6" font-family="courier new" font-size="8.00" fill="#000000">var</text>
<polygon fill="none" stroke="#000000" points="130,-19 130,-34 184,-34 184,-19 130,-19"/>
<text text-anchor="start" x="132.9961" y="-24.6" font-family="courier new" font-size="8.00" fill="#000000">aws_region</text>
</g>
<!-- [root] provider.aws&#45;&gt;[root] var.aws_region -->
<g id="edge_10" class="edge">
<title>[root] provider.aws&#45;&gt;[root] var.aws_region</title>
<path fill="none" stroke="#000000" d="M157,-87.8314C157,-80.131 157,-70.9743 157,-62.4166"/>
<polygon fill="#000000" stroke="#000000" points="160.5001,-62.4132 157,-52.4133 153.5001,-62.4133 160.5001,-62.4132"/>
</g>
<!-- [root] meta.count&#45;boundary (count boundary fixup) -->
<g id="node_6" class="node">
<title>[root] meta.count&#45;boundary (count boundary fixup)</title>
<polygon fill="none" stroke="#000000" points="58,-466 58,-481 131,-481 131,-466 58,-466"/>
<text text-anchor="start" x="84.8984" y="-471.6" font-family="courier new" font-size="8.00" fill="#000000">meta</text>
<polygon fill="none" stroke="#000000" points="58,-451 58,-466 131,-466 131,-451 58,-451"/>
<text text-anchor="start" x="60.8945" y="-456.6" font-family="courier new" font-size="8.00" fill="#000000">count&#45;boundary</text>
</g>
<!-- [root] output.address -->
<g id="node_7" class="node">
<title>[root] output.address</title>
<polygon fill="none" stroke="#000000" points="24,-394 24,-409 63,-409 63,-394 24,-394"/>
<text text-anchor="start" x="29.0977" y="-399.6" font-family="courier new" font-size="8.00" fill="#000000">output</text>
<polygon fill="none" stroke="#000000" points="24,-379 24,-394 63,-394 63,-379 24,-379"/>
<text text-anchor="start" x="26.6973" y="-384.6" font-family="courier new" font-size="8.00" fill="#000000">address</text>
</g>
<!-- [root] meta.count&#45;boundary (count boundary fixup)&#45;&gt;[root] output.address -->
<g id="edge_5" class="edge">
<title>[root] meta.count&#45;boundary (count boundary fixup)&#45;&gt;[root] output.address</title>
<path fill="none" stroke="#000000" d="M81.1305,-447.8314C75.3165,-439.6232 68.3304,-429.7606 61.9354,-420.7323"/>
<polygon fill="#000000" stroke="#000000" points="64.679,-418.5505 56.0427,-412.4133 58.9669,-422.5966 64.679,-418.5505"/>
</g>
<!-- [root] output.elastic ip -->
<g id="node_8" class="node">
<title>[root] output.elastic ip</title>
<polygon fill="none" stroke="#000000" points="102,-394 102,-409 141,-409 141,-394 102,-394"/>
<text text-anchor="start" x="107.0977" y="-399.6" font-family="courier new" font-size="8.00" fill="#000000">output</text>
<polygon fill="none" stroke="#000000" points="102,-379 102,-394 141,-394 141,-379 102,-379"/>
<text text-anchor="start" x="104.6973" y="-384.6" font-family="courier new" font-size="8.00" fill="#000000">elastic</text>
</g>
<!-- [root] meta.count&#45;boundary (count boundary fixup)&#45;&gt;[root] output.elastic ip -->
<g id="edge_6" class="edge">
<title>[root] meta.count&#45;boundary (count boundary fixup)&#45;&gt;[root] output.elastic ip</title>
<path fill="none" stroke="#000000" d="M100.8132,-447.8314C103.7644,-439.9617 107.2858,-430.5712 110.555,-421.8533"/>
<polygon fill="#000000" stroke="#000000" points="113.8609,-423.0055 114.095,-412.4133 107.3066,-420.5476 113.8609,-423.0055"/>
</g>
<!-- [root] provider.aws (close) -->
<g id="node_9" class="node">
<title>[root] provider.aws (close)</title>
<polygon fill="none" stroke="#000000" points="154,-466 154,-481 198,-481 198,-466 154,-466"/>
<text text-anchor="start" x="156.7969" y="-471.6" font-family="courier new" font-size="8.00" fill="#000000">provider</text>
<polygon fill="none" stroke="#000000" points="154,-451 154,-466 198,-466 198,-451 154,-451"/>
<text text-anchor="start" x="168.7988" y="-456.6" font-family="courier new" font-size="8.00" fill="#000000">aws</text>
</g>
<!-- [root] provider.aws (close)&#45;&gt;[root] aws_eip.default -->
<g id="edge_9" class="edge">
<title>[root] provider.aws (close)&#45;&gt;[root] aws_eip.default</title>
<path fill="none" stroke="#000000" d="M175.9056,-447.8129C175.1619,-427.4745 171.9955,-393.9816 160,-368 156.7413,-360.9419 152.0922,-354.1084 147.1332,-347.963"/>
<polygon fill="#000000" stroke="#000000" points="149.4737,-345.3193 140.2805,-340.0529 144.183,-349.9028 149.4737,-345.3193"/>
</g>
<!-- [root] root -->
<g id="node_11" class="node">
<title>[root] root</title>
<polygon fill="none" stroke="#000000" points="169.3089,-556 100.6911,-556 100.6911,-520 169.3089,-520 169.3089,-556"/>
<text text-anchor="middle" x="135" y="-536.1313" font-family="courier new" font-size="8.00" fill="#000000">[root] root</text>
</g>
<!-- [root] root&#45;&gt;[root] meta.count&#45;boundary (count boundary fixup) -->
<g id="edge_11" class="edge">
<title>[root] root&#45;&gt;[root] meta.count&#45;boundary (count boundary fixup)</title>
<path fill="none" stroke="#000000" d="M124.654,-519.8314C120.0763,-511.7925 114.5948,-502.1666 109.5412,-493.2918"/>
<polygon fill="#000000" stroke="#000000" points="112.4752,-491.3712 104.4853,-484.4133 106.3923,-494.8351 112.4752,-491.3712"/>
</g>
<!-- [root] root&#45;&gt;[root] provider.aws (close) -->
<g id="edge_12" class="edge">
<title>[root] root&#45;&gt;[root] provider.aws (close)</title>
<path fill="none" stroke="#000000" d="M145.346,-519.8314C149.9237,-511.7925 155.4052,-502.1666 160.4588,-493.2918"/>
<polygon fill="#000000" stroke="#000000" points="163.6077,-494.8351 165.5147,-484.4133 157.5248,-491.3712 163.6077,-494.8351"/>
</g>
<!-- [root] var.key_name -->
<g id="node_5" class="node">
<title>[root] var.key_name</title>
<polygon fill="none" stroke="#000000" points="44,-106 44,-121 88,-121 88,-106 44,-106"/>
<text text-anchor="start" x="58.7988" y="-111.6" font-family="courier new" font-size="8.00" fill="#000000">var</text>
<polygon fill="none" stroke="#000000" points="44,-91 44,-106 88,-106 88,-91 44,-91"/>
<text text-anchor="start" x="46.7969" y="-96.6" font-family="courier new" font-size="8.00" fill="#000000">key_name</text>
</g>
<!-- [root] var.aws_amis&#45;&gt;[root] var.key_name -->
<g id="edge_13" class="edge">
<title>[root] var.aws_amis&#45;&gt;[root] var.key_name</title>
<path fill="none" stroke="#000000" stroke-dasharray="5,2" d="M66,-159.8314C66,-149 66,-135.2876 66,-124.4133"/>
</g>
<!-- [root] output.address&#45;&gt;[root] aws_instance.web -->
<g id="edge_7" class="edge">
<title>[root] output.address&#45;&gt;[root] aws_instance.web</title>
<path fill="none" stroke="#000000" d="M48.6993,-375.7623C56.4085,-351.0928 70.2313,-306.8598 79.2584,-277.9731"/>
<polygon fill="#000000" stroke="#000000" points="82.7049,-278.6784 82.347,-268.0896 76.0235,-276.5904 82.7049,-278.6784"/>
</g>
<!-- [root] output.elastic ip&#45;&gt;[root] aws_eip.default -->
<g id="edge_8" class="edge">
<title>[root] output.elastic ip&#45;&gt;[root] aws_eip.default</title>
<path fill="none" stroke="#000000" d="M121,-375.8314C121,-368.131 121,-358.9743 121,-350.4166"/>
<polygon fill="#000000" stroke="#000000" points="124.5001,-350.4132 121,-340.4133 117.5001,-350.4133 124.5001,-350.4132"/>
</g>
</g>
</svg>

