<?xml version="1.0" encoding="UTF-8" standalone="no"?>
<!DOCTYPE svg PUBLIC "-//W3C//DTD SVG 1.1//EN"
 "http://www.w3.org/Graphics/SVG/1.1/DTD/svg11.dtd">
<!-- Generated by graphviz version 2.40.1 (20161225.0304)
 -->
<!-- Title: %3 Pages: 1 -->
<svg width="331pt" height="492pt"
 viewBox="0.00 0.00 331.00 492.00" xmlns="http://www.w3.org/2000/svg" xmlns:xlink="http://www.w3.org/1999/xlink">
<g id="graph0" class="graph" transform="scale(1 1) rotate(0) translate(4 488)">
<title>%3</title>
<polygon fill="#ffffff" stroke="transparent" points="-4,4 -4,-488 327,-488 327,4 -4,4"/>
<g id="clust2" class="cluster">
<title>cluster[root] aws_s3_bucket.prod_var_</title>
</g>
<g id="clust3" class="cluster">
<title>cluster[root] provider.aws.prod_var_</title>
</g>
<g id="clust4" class="cluster">
<title>cluster[root] provider.aws.test_var_</title>
</g>
<!-- [root] aws_s3_bucket.prod -->
<g id="node_0" class="node">
<title>[root] aws_s3_bucket.prod</title>
<polygon fill="none" stroke="#000000" points="118,-250 118,-265 186,-265 186,-250 118,-250"/>
<text text-anchor="start" x="120.7949" y="-255.6" font-family="courier new" font-size="8.00" fill="#000000">aws_s3_bucket</text>
<polygon fill="none" stroke="#000000" points="118,-235 118,-250 186,-250 186,-235 118,-235"/>
<text text-anchor="start" x="142.3984" y="-240.6" font-family="courier new" font-size="8.00" fill="#000000">prod</text>
</g>
<!-- [root] provider.aws.prod -->
<g id="node_3" class="node">
<title>[root] provider.aws.prod</title>
<polygon fill="none" stroke="#000000" points="142,-178 142,-193 167,-193 167,-178 142,-178"/>
<text text-anchor="start" x="147.2988" y="-183.6" font-family="courier new" font-size="8.00" fill="#000000">aws</text>
<polygon fill="none" stroke="#000000" points="142,-163 142,-178 167,-178 167,-163 142,-163"/>
<text text-anchor="start" x="144.8984" y="-168.6" font-family="courier new" font-size="8.00" fill="#000000">prod</text>
</g>
<!-- [root] aws_s3_bucket.prod&#45;&gt;[root] provider.aws.prod -->
<g id="edge_0" class="edge">
<title>[root] aws_s3_bucket.prod&#45;&gt;[root] provider.aws.prod</title>
<path fill="none" stroke="#000000" d="M152.5047,-231.8314C152.7186,-224.131 152.9729,-214.9743 153.2106,-206.4166"/>
<polygon fill="#000000" stroke="#000000" points="156.7094,-206.5066 153.4885,-196.4133 149.7121,-206.3122 156.7094,-206.5066"/>
</g>
<!-- [root] var.bucket_name -->
<g id="node_5" class="node">
<title>[root] var.bucket_name</title>
<polygon fill="none" stroke="#000000" points="31,-178 31,-193 89,-193 89,-178 31,-178"/>
<text text-anchor="start" x="52.7988" y="-183.6" font-family="courier new" font-size="8.00" fill="#000000">var</text>
<polygon fill="none" stroke="#000000" points="31,-163 31,-178 89,-178 89,-163 31,-163"/>
<text text-anchor="start" x="33.5957" y="-168.6" font-family="courier new" font-size="8.00" fill="#000000">bucket_name</text>
</g>
<!-- [root] aws_s3_bucket.prod&#45;&gt;[root] var.bucket_name -->
<g id="edge_1" class="edge">
<title>[root] aws_s3_bucket.prod&#45;&gt;[root] var.bucket_name</title>
<path fill="none" stroke="#000000" d="M128.7845,-231.8314C117.453,-222.9632 103.6536,-212.1637 91.3973,-202.5718"/>
<polygon fill="#000000" stroke="#000000" points="93.2402,-199.5697 83.2081,-196.1628 88.926,-205.0822 93.2402,-199.5697"/>
</g>
<!-- [root] aws_s3_bucket_object.prod -->
<g id="node_1" class="node">
<title>[root] aws_s3_bucket_object.prod</title>
<polygon fill="none" stroke="#000000" points="97,-322 97,-337 199,-337 199,-322 97,-322"/>
<text text-anchor="start" x="99.9922" y="-327.6" font-family="courier new" font-size="8.00" fill="#000000">aws_s3_bucket_object</text>
<polygon fill="none" stroke="#000000" points="97,-307 97,-322 199,-322 199,-307 97,-307"/>
<text text-anchor="start" x="138.3984" y="-312.6" font-family="courier new" font-size="8.00" fill="#000000">prod</text>
</g>
<!-- [root] aws_s3_bucket_object.prod&#45;&gt;[root] aws_s3_bucket.prod -->
<g id="edge_3" class="edge">
<title>[root] aws_s3_bucket_object.prod&#45;&gt;[root] aws_s3_bucket.prod</title>
<path fill="none" stroke="#000000" d="M149.0094,-303.8314C149.4372,-296.131 149.9459,-286.9743 150.4213,-278.4166"/>
<polygon fill="#000000" stroke="#000000" points="153.9169,-278.592 150.977,-268.4133 146.9276,-278.2037 153.9169,-278.592"/>
</g>
<!-- [root] aws_s3_bucket_object.test -->
<g id="node_2" class="node">
<title>[root] aws_s3_bucket_object.test</title>
<polygon fill="none" stroke="#000000" points="217,-322 217,-337 319,-337 319,-322 217,-322"/>
<text text-anchor="start" x="219.9922" y="-327.6" font-family="courier new" font-size="8.00" fill="#000000">aws_s3_bucket_object</text>
<polygon fill="none" stroke="#000000" points="217,-307 217,-322 319,-322 319,-307 217,-307"/>
<text text-anchor="start" x="258.3984" y="-312.6" font-family="courier new" font-size="8.00" fill="#000000">test</text>
</g>
<!-- [root] aws_s3_bucket_object.test&#45;&gt;[root] aws_s3_bucket.prod -->
<g id="edge_4" class="edge">
<title>[root] aws_s3_bucket_object.test&#45;&gt;[root] aws_s3_bucket.prod</title>
<path fill="none" stroke="#000000" d="M238.7283,-303.8314C223.8912,-294.6221 205.6985,-283.3301 189.8138,-273.4706"/>
<polygon fill="#000000" stroke="#000000" points="191.6045,-270.4628 181.2623,-268.1628 187.913,-276.4102 191.6045,-270.4628"/>
</g>
<!-- [root] provider.aws.test -->
<g id="node_4" class="node">
<title>[root] provider.aws.test</title>
<polygon fill="none" stroke="#000000" points="256,-250 256,-265 281,-265 281,-250 256,-250"/>
<text text-anchor="start" x="261.2988" y="-255.6" font-family="courier new" font-size="8.00" fill="#000000">aws</text>
<polygon fill="none" stroke="#000000" points="256,-235 256,-250 281,-250 281,-235 256,-235"/>
<text text-anchor="start" x="258.8984" y="-240.6" font-family="courier new" font-size="8.00" fill="#000000">test</text>
</g>
<!-- [root] aws_s3_bucket_object.test&#45;&gt;[root] provider.aws.test -->
<g id="edge_5" class="edge">
<title>[root] aws_s3_bucket_object.test&#45;&gt;[root] provider.aws.test</title>
<path fill="none" stroke="#000000" d="M268,-303.8314C268,-296.131 268,-286.9743 268,-278.4166"/>
<polygon fill="#000000" stroke="#000000" points="271.5001,-278.4132 268,-268.4133 264.5001,-278.4133 271.5001,-278.4132"/>
</g>
<!-- [root] var.prod_access_key -->
<g id="node_9" class="node">
<title>[root] var.prod_access_key</title>
<polygon fill="none" stroke="#000000" points="118,-106 118,-121 196,-121 196,-106 118,-106"/>
<text text-anchor="start" x="149.7988" y="-111.6" font-family="courier new" font-size="8.00" fill="#000000">var</text>
<polygon fill="none" stroke="#000000" points="118,-91 118,-106 196,-106 196,-91 118,-91"/>
<text text-anchor="start" x="120.9941" y="-96.6" font-family="courier new" font-size="8.00" fill="#000000">prod_access_key</text>
</g>
<!-- [root] provider.aws.prod&#45;&gt;[root] var.prod_access_key -->
<g id="edge_9" class="edge">
<title>[root] provider.aws.prod&#45;&gt;[root] var.prod_access_key</title>
<path fill="none" stroke="#000000" d="M154.757,-159.8314C155.0779,-152.131 155.4594,-142.9743 155.816,-134.4166"/>
<polygon fill="#000000" stroke="#000000" points="159.3133,-134.5503 156.2328,-124.4133 152.3194,-134.2589 159.3133,-134.5503"/>
</g>
<!-- [root] var.test_access_key -->
<g id="node_12" class="node">
<title>[root] var.test_access_key</title>
<polygon fill="none" stroke="#000000" points="229,-178 229,-193 307,-193 307,-178 229,-178"/>
<text text-anchor="start" x="260.7988" y="-183.6" font-family="courier new" font-size="8.00" fill="#000000">var</text>
<polygon fill="none" stroke="#000000" points="229,-163 229,-178 307,-178 307,-163 229,-163"/>
<text text-anchor="start" x="231.9941" y="-168.6" font-family="courier new" font-size="8.00" fill="#000000">test_access_key</text>
</g>
<!-- [root] provider.aws.test&#45;&gt;[root] var.test_access_key -->
<g id="edge_12" class="edge">
<title>[root] provider.aws.test&#45;&gt;[root] var.test_access_key</title>
<path fill="none" stroke="#000000" d="M268,-231.8314C268,-224.131 268,-214.9743 268,-206.4166"/>
<polygon fill="#000000" stroke="#000000" points="271.5001,-206.4132 268,-196.4133 264.5001,-206.4133 271.5001,-206.4132"/>
</g>
<!-- [root] meta.count&#45;boundary (count boundary fixup) -->
<g id="node_7" class="node">
<title>[root] meta.count&#45;boundary (count boundary fixup)</title>
<polygon fill="none" stroke="#000000" points="172,-394 172,-409 245,-409 245,-394 172,-394"/>
<text text-anchor="start" x="198.8984" y="-399.6" font-family="courier new" font-size="8.00" fill="#000000">meta</text>
<polygon fill="none" stroke="#000000" points="172,-379 172,-394 245,-394 245,-379 172,-379"/>
<text text-anchor="start" x="174.8945" y="-384.6" font-family="courier new" font-size="8.00" fill="#000000">count&#45;boundary</text>
</g>
<!-- [root] meta.count&#45;boundary (count boundary fixup)&#45;&gt;[root] aws_s3_bucket_object.prod -->
<g id="edge_6" class="edge">
<title>[root] meta.count&#45;boundary (count boundary fixup)&#45;&gt;[root] aws_s3_bucket_object.prod</title>
<path fill="none" stroke="#000000" d="M192.8595,-375.8314C185.8783,-367.454 177.4609,-357.3531 169.8124,-348.1749"/>
<polygon fill="#000000" stroke="#000000" points="172.4351,-345.8548 163.3444,-340.4133 167.0575,-350.3362 172.4351,-345.8548"/>
</g>
<!-- [root] meta.count&#45;boundary (count boundary fixup)&#45;&gt;[root] aws_s3_bucket_object.test -->
<g id="edge_7" class="edge">
<title>[root] meta.count&#45;boundary (count boundary fixup)&#45;&gt;[root] aws_s3_bucket_object.test</title>
<path fill="none" stroke="#000000" d="M223.1405,-375.8314C230.1217,-367.454 238.5391,-357.3531 246.1876,-348.1749"/>
<polygon fill="#000000" stroke="#000000" points="248.9425,-350.3362 252.6556,-340.4133 243.5649,-345.8548 248.9425,-350.3362"/>
</g>
<!-- [root] provider.aws.prod (close) -->
<g id="node_8" class="node">
<title>[root] provider.aws.prod (close)</title>
<polygon fill="none" stroke="#000000" points="114,-394 114,-409 139,-409 139,-394 114,-394"/>
<text text-anchor="start" x="119.2988" y="-399.6" font-family="courier new" font-size="8.00" fill="#000000">aws</text>
<polygon fill="none" stroke="#000000" points="114,-379 114,-394 139,-394 139,-379 114,-379"/>
<text text-anchor="start" x="116.8984" y="-384.6" font-family="courier new" font-size="8.00" fill="#000000">prod</text>
</g>
<!-- [root] provider.aws.prod (close)&#45;&gt;[root] aws_s3_bucket_object.prod -->
<g id="edge_8" class="edge">
<title>[root] provider.aws.prod (close)&#45;&gt;[root] aws_s3_bucket_object.prod</title>
<path fill="none" stroke="#000000" d="M131.5515,-375.8314C133.9303,-368.0463 136.7638,-358.7729 139.4033,-350.1347"/>
<polygon fill="#000000" stroke="#000000" points="142.7987,-350.9996 142.3737,-340.4133 136.1042,-348.954 142.7987,-350.9996"/>
</g>
<!-- [root] provider.aws.test (close) -->
<g id="node_11" class="node">
<title>[root] provider.aws.test (close)</title>
<polygon fill="none" stroke="#000000" points="278,-394 278,-409 303,-409 303,-394 278,-394"/>
<text text-anchor="start" x="283.2988" y="-399.6" font-family="courier new" font-size="8.00" fill="#000000">aws</text>
<polygon fill="none" stroke="#000000" points="278,-379 278,-394 303,-394 303,-379 278,-379"/>
<text text-anchor="start" x="280.8984" y="-384.6" font-family="courier new" font-size="8.00" fill="#000000">test</text>
</g>
<!-- [root] provider.aws.test (close)&#45;&gt;[root] aws_s3_bucket_object.test -->
<g id="edge_11" class="edge">
<title>[root] provider.aws.test (close)&#45;&gt;[root] aws_s3_bucket_object.test</title>
<path fill="none" stroke="#000000" d="M284.4485,-375.8314C282.0697,-368.0463 279.2362,-358.7729 276.5967,-350.1347"/>
<polygon fill="#000000" stroke="#000000" points="279.8958,-348.954 273.6263,-340.4133 273.2013,-350.9996 279.8958,-348.954"/>
</g>
<!-- [root] root -->
<g id="node_14" class="node">
<title>[root] root</title>
<polygon fill="none" stroke="#000000" points="242.3089,-484 173.6911,-484 173.6911,-448 242.3089,-448 242.3089,-484"/>
<text text-anchor="middle" x="208" y="-464.1313" font-family="courier new" font-size="8.00" fill="#000000">[root] root</text>
</g>
<!-- [root] root&#45;&gt;[root] meta.count&#45;boundary (count boundary fixup) -->
<g id="edge_14" class="edge">
<title>[root] root&#45;&gt;[root] meta.count&#45;boundary (count boundary fixup)</title>
<path fill="none" stroke="#000000" d="M208,-447.8314C208,-440.131 208,-430.9743 208,-422.4166"/>
<polygon fill="#000000" stroke="#000000" points="211.5001,-422.4132 208,-412.4133 204.5001,-422.4133 211.5001,-422.4132"/>
</g>
<!-- [root] root&#45;&gt;[root] provider.aws.prod (close) -->
<g id="edge_15" class="edge">
<title>[root] root&#45;&gt;[root] provider.aws.prod (close)</title>
<path fill="none" stroke="#000000" d="M187.3079,-447.8314C177.3052,-439.0485 165.145,-428.3712 154.3001,-418.8489"/>
<polygon fill="#000000" stroke="#000000" points="156.5092,-416.1308 146.6854,-412.1628 151.8906,-421.3909 156.5092,-416.1308"/>
</g>
<!-- [root] root&#45;&gt;[root] provider.aws.test (close) -->
<g id="edge_16" class="edge">
<title>[root] root&#45;&gt;[root] provider.aws.test (close)</title>
<path fill="none" stroke="#000000" d="M228.6921,-447.8314C238.6948,-439.0485 250.855,-428.3712 261.6999,-418.8489"/>
<polygon fill="#000000" stroke="#000000" points="264.1094,-421.3909 269.3146,-412.1628 259.4908,-416.1308 264.1094,-421.3909"/>
</g>
<!-- [root] var.test_account_id -->
<g id="node_6" class="node">
<title>[root] var.test_account_id</title>
<polygon fill="none" stroke="#000000" points="16,-106 16,-121 94,-121 94,-106 16,-106"/>
<text text-anchor="start" x="47.7988" y="-111.6" font-family="courier new" font-size="8.00" fill="#000000">var</text>
<polygon fill="none" stroke="#000000" points="16,-91 16,-106 94,-106 94,-91 16,-91"/>
<text text-anchor="start" x="18.9941" y="-96.6" font-family="courier new" font-size="8.00" fill="#000000">test_account_id</text>
</g>
<!-- [root] var.bucket_name&#45;&gt;[root] var.test_account_id -->
<g id="edge_17" class="edge">
<title>[root] var.bucket_name&#45;&gt;[root] var.test_account_id</title>
<path fill="none" stroke="#000000" stroke-dasharray="5,2" d="M58.7383,-159.8314C57.9861,-149 57.0339,-135.2876 56.2787,-124.4133"/>
</g>
<!-- [root] var.prod_secret_key -->
<g id="node_10" class="node">
<title>[root] var.prod_secret_key</title>
<polygon fill="none" stroke="#000000" points="118,-34 118,-49 196,-49 196,-34 118,-34"/>
<text text-anchor="start" x="149.7988" y="-39.6" font-family="courier new" font-size="8.00" fill="#000000">var</text>
<polygon fill="none" stroke="#000000" points="118,-19 118,-34 196,-34 196,-19 118,-19"/>
<text text-anchor="start" x="120.9941" y="-24.6" font-family="courier new" font-size="8.00" fill="#000000">prod_secret_key</text>
</g>
<!-- [root] var.prod_access_key&#45;&gt;[root] var.prod_secret_key -->
<g id="edge_18" class="edge">
<title>[root] var.prod_access_key&#45;&gt;[root] var.prod_secret_key</title>
<path fill="none" stroke="#000000" stroke-dasharray="5,2" d="M157,-87.8314C157,-77 157,-63.2876 157,-52.4133"/>
</g>
<!-- [root] var.test_secret_key -->
<g id="node_13" class="node">
<title>[root] var.test_secret_key</title>
<polygon fill="none" stroke="#000000" points="229,-106 229,-121 307,-121 307,-106 229,-106"/>
<text text-anchor="start" x="260.7988" y="-111.6" font-family="courier new" font-size="8.00" fill="#000000">var</text>
<polygon fill="none" stroke="#000000" points="229,-91 229,-106 307,-106 307,-91 229,-91"/>
<text text-anchor="start" x="231.9941" y="-96.6" font-family="courier new" font-size="8.00" fill="#000000">test_secret_key</text>
</g>
<!-- [root] var.test_access_key&#45;&gt;[root] var.test_secret_key -->
<g id="edge_19" class="edge">
<title>[root] var.test_access_key&#45;&gt;[root] var.test_secret_key</title>
<path fill="none" stroke="#000000" stroke-dasharray="5,2" d="M268,-159.8314C268,-149 268,-135.2876 268,-124.4133"/>
</g>
</g>
</svg>

