<?xml version="1.0" encoding="UTF-8" standalone="no"?>
<!DOCTYPE svg PUBLIC "-//W3C//DTD SVG 1.1//EN"
 "http://www.w3.org/Graphics/SVG/1.1/DTD/svg11.dtd">
<!-- Generated by graphviz version 2.40.1 (20161225.0304)
 -->
<!-- Title: %3 Pages: 1 -->
<svg width="491pt" height="404pt"
 viewBox="0.00 0.00 491.00 404.00" xmlns="http://www.w3.org/2000/svg" xmlns:xlink="http://www.w3.org/1999/xlink">
<g id="graph0" class="graph" transform="scale(1 1) rotate(0) translate(4 400)">
<title>%3</title>
<polygon fill="#ffffff" stroke="transparent" points="-4,4 -4,-400 487,-400 487,4 -4,4"/>
<!-- [root] aws_s3_bucket.prod -->
<g id="node_0" class="node">
<title>[root] aws_s3_bucket.prod</title>
<polygon fill="none" stroke="#000000" points="157,-162 157,-177 225,-177 225,-162 157,-162"/>
<text text-anchor="start" x="159.7949" y="-167.6" font-family="courier new" font-size="8.00" fill="#000000">aws_s3_bucket</text>
<polygon fill="none" stroke="#000000" points="157,-147 157,-162 225,-162 225,-147 157,-147"/>
<text text-anchor="start" x="181.3984" y="-152.6" font-family="courier new" font-size="8.00" fill="#000000">prod</text>
</g>
<!-- [root] provider.aws.prod -->
<g id="node_3" class="node">
<title>[root] provider.aws.prod</title>
<polygon fill="none" stroke="#000000" points="56,-90 56,-105 119,-105 119,-90 56,-90"/>
<text text-anchor="start" x="58.6953" y="-95.6" font-family="courier new" font-size="8.00" fill="#000000">provider.aws</text>
<polygon fill="none" stroke="#000000" points="56,-75 56,-90 119,-90 119,-75 56,-75"/>
<text text-anchor="start" x="77.8984" y="-80.6" font-family="courier new" font-size="8.00" fill="#000000">prod</text>
</g>
<!-- [root] aws_s3_bucket.prod&#45;&gt;[root] provider.aws.prod -->
<g id="edge_0" class="edge">
<title>[root] aws_s3_bucket.prod&#45;&gt;[root] provider.aws.prod</title>
<path fill="none" stroke="#000000" d="M164.7564,-143.8314C151.7005,-134.7927 135.7465,-123.7476 121.6953,-114.0198"/>
<polygon fill="#000000" stroke="#000000" points="123.4494,-110.9773 113.2352,-108.1628 119.4649,-116.7326 123.4494,-110.9773"/>
</g>
<!-- [root] var.bucket_name -->
<g id="node_5" class="node">
<title>[root] var.bucket_name</title>
<polygon fill="none" stroke="#000000" points="137,-90 137,-105 195,-105 195,-90 137,-90"/>
<text text-anchor="start" x="158.7988" y="-95.6" font-family="courier new" font-size="8.00" fill="#000000">var</text>
<polygon fill="none" stroke="#000000" points="137,-75 137,-90 195,-90 195,-75 137,-75"/>
<text text-anchor="start" x="139.5957" y="-80.6" font-family="courier new" font-size="8.00" fill="#000000">bucket_name</text>
</g>
<!-- [root] aws_s3_bucket.prod&#45;&gt;[root] var.bucket_name -->
<g id="edge_1" class="edge">
<title>[root] aws_s3_bucket.prod&#45;&gt;[root] var.bucket_name</title>
<path fill="none" stroke="#000000" d="M184.6914,-143.8314C181.9883,-136.0463 178.7684,-126.7729 175.769,-118.1347"/>
<polygon fill="#000000" stroke="#000000" points="178.98,-116.7119 172.3935,-108.4133 172.3673,-119.0081 178.98,-116.7119"/>
</g>
<!-- [root] var.test_account_id -->
<g id="node_6" class="node">
<title>[root] var.test_account_id</title>
<polygon fill="none" stroke="#000000" points="213,-90 213,-105 291,-105 291,-90 213,-90"/>
<text text-anchor="start" x="244.7988" y="-95.6" font-family="courier new" font-size="8.00" fill="#000000">var</text>
<polygon fill="none" stroke="#000000" points="213,-75 213,-90 291,-90 291,-75 213,-75"/>
<text text-anchor="start" x="215.9941" y="-80.6" font-family="courier new" font-size="8.00" fill="#000000">test_account_id</text>
</g>
<!-- [root] aws_s3_bucket.prod&#45;&gt;[root] var.test_account_id -->
<g id="edge_2" class="edge">
<title>[root] aws_s3_bucket.prod&#45;&gt;[root] var.test_account_id</title>
<path fill="none" stroke="#000000" d="M206.3929,-143.8314C213.4904,-135.454 222.048,-125.3531 229.824,-116.1749"/>
<polygon fill="#000000" stroke="#000000" points="232.6061,-118.3056 236.3999,-108.4133 227.2652,-113.7807 232.6061,-118.3056"/>
</g>
<!-- [root] aws_s3_bucket_object.prod -->
<g id="node_1" class="node">
<title>[root] aws_s3_bucket_object.prod</title>
<polygon fill="none" stroke="#000000" points="140,-234 140,-249 242,-249 242,-234 140,-234"/>
<text text-anchor="start" x="142.9922" y="-239.6" font-family="courier new" font-size="8.00" fill="#000000">aws_s3_bucket_object</text>
<polygon fill="none" stroke="#000000" points="140,-219 140,-234 242,-234 242,-219 140,-219"/>
<text text-anchor="start" x="181.3984" y="-224.6" font-family="courier new" font-size="8.00" fill="#000000">prod</text>
</g>
<!-- [root] aws_s3_bucket_object.prod&#45;&gt;[root] aws_s3_bucket.prod -->
<g id="edge_3" class="edge">
<title>[root] aws_s3_bucket_object.prod&#45;&gt;[root] aws_s3_bucket.prod</title>
<path fill="none" stroke="#000000" d="M191,-215.8314C191,-208.131 191,-198.9743 191,-190.4166"/>
<polygon fill="#000000" stroke="#000000" points="194.5001,-190.4132 191,-180.4133 187.5001,-190.4133 194.5001,-190.4132"/>
</g>
<!-- [root] aws_s3_bucket_object.test -->
<g id="node_2" class="node">
<title>[root] aws_s3_bucket_object.test</title>
<polygon fill="none" stroke="#000000" points="273,-234 273,-249 375,-249 375,-234 273,-234"/>
<text text-anchor="start" x="275.9922" y="-239.6" font-family="courier new" font-size="8.00" fill="#000000">aws_s3_bucket_object</text>
<polygon fill="none" stroke="#000000" points="273,-219 273,-234 375,-234 375,-219 273,-219"/>
<text text-anchor="start" x="314.3984" y="-224.6" font-family="courier new" font-size="8.00" fill="#000000">test</text>
</g>
<!-- [root] aws_s3_bucket_object.test&#45;&gt;[root] aws_s3_bucket.prod -->
<g id="edge_4" class="edge">
<title>[root] aws_s3_bucket_object.test&#45;&gt;[root] aws_s3_bucket.prod</title>
<path fill="none" stroke="#000000" d="M290.4385,-215.8314C273.1119,-206.4516 251.7942,-194.9112 233.3464,-184.9244"/>
<polygon fill="#000000" stroke="#000000" points="235.0111,-181.8457 224.5508,-180.1628 231.6786,-188.0015 235.0111,-181.8457"/>
</g>
<!-- [root] provider.aws.test -->
<g id="node_4" class="node">
<title>[root] provider.aws.test</title>
<polygon fill="none" stroke="#000000" points="317,-162 317,-177 380,-177 380,-162 317,-162"/>
<text text-anchor="start" x="319.6953" y="-167.6" font-family="courier new" font-size="8.00" fill="#000000">provider.aws</text>
<polygon fill="none" stroke="#000000" points="317,-147 317,-162 380,-162 380,-147 317,-147"/>
<text text-anchor="start" x="338.8984" y="-152.6" font-family="courier new" font-size="8.00" fill="#000000">test</text>
</g>
<!-- [root] aws_s3_bucket_object.test&#45;&gt;[root] provider.aws.test -->
<g id="edge_5" class="edge">
<title>[root] aws_s3_bucket_object.test&#45;&gt;[root] provider.aws.test</title>
<path fill="none" stroke="#000000" d="M330.0562,-215.8314C332.6512,-208.0463 335.7424,-198.7729 338.6218,-190.1347"/>
<polygon fill="#000000" stroke="#000000" points="342.0203,-191.0069 341.8622,-180.4133 335.3795,-188.7933 342.0203,-191.0069"/>
</g>
<!-- [root] var.prod_access_key -->
<g id="node_9" class="node">
<title>[root] var.prod_access_key</title>
<polygon fill="none" stroke="#000000" points="0,-18 0,-33 78,-33 78,-18 0,-18"/>
<text text-anchor="start" x="31.7988" y="-23.6" font-family="courier new" font-size="8.00" fill="#000000">var</text>
<polygon fill="none" stroke="#000000" points="0,-3 0,-18 78,-18 78,-3 0,-3"/>
<text text-anchor="start" x="2.9941" y="-8.6" font-family="courier new" font-size="8.00" fill="#000000">prod_access_key</text>
</g>
<!-- [root] provider.aws.prod&#45;&gt;[root] var.prod_access_key -->
<g id="edge_9" class="edge">
<title>[root] provider.aws.prod&#45;&gt;[root] var.prod_access_key</title>
<path fill="none" stroke="#000000" d="M74.8876,-71.8314C69.4719,-63.7079 62.9758,-53.9637 57.0079,-45.0118"/>
<polygon fill="#000000" stroke="#000000" points="59.7347,-42.7923 51.2755,-36.4133 53.9104,-46.6753 59.7347,-42.7923"/>
</g>
<!-- [root] var.prod_secret_key -->
<g id="node_10" class="node">
<title>[root] var.prod_secret_key</title>
<polygon fill="none" stroke="#000000" points="96,-18 96,-33 174,-33 174,-18 96,-18"/>
<text text-anchor="start" x="127.7988" y="-23.6" font-family="courier new" font-size="8.00" fill="#000000">var</text>
<polygon fill="none" stroke="#000000" points="96,-3 96,-18 174,-18 174,-3 96,-3"/>
<text text-anchor="start" x="98.9941" y="-8.6" font-family="courier new" font-size="8.00" fill="#000000">prod_secret_key</text>
</g>
<!-- [root] provider.aws.prod&#45;&gt;[root] var.prod_secret_key -->
<g id="edge_10" class="edge">
<title>[root] provider.aws.prod&#45;&gt;[root] var.prod_secret_key</title>
<path fill="none" stroke="#000000" d="M99.1124,-71.8314C104.5281,-63.7079 111.0242,-53.9637 116.9921,-45.0118"/>
<polygon fill="#000000" stroke="#000000" points="120.0896,-46.6753 122.7245,-36.4133 114.2653,-42.7923 120.0896,-46.6753"/>
</g>
<!-- [root] var.test_access_key -->
<g id="node_12" class="node">
<title>[root] var.test_access_key</title>
<polygon fill="none" stroke="#000000" points="309,-90 309,-105 387,-105 387,-90 309,-90"/>
<text text-anchor="start" x="340.7988" y="-95.6" font-family="courier new" font-size="8.00" fill="#000000">var</text>
<polygon fill="none" stroke="#000000" points="309,-75 309,-90 387,-90 387,-75 309,-75"/>
<text text-anchor="start" x="311.9941" y="-80.6" font-family="courier new" font-size="8.00" fill="#000000">test_access_key</text>
</g>
<!-- [root] provider.aws.test&#45;&gt;[root] var.test_access_key -->
<g id="edge_12" class="edge">
<title>[root] provider.aws.test&#45;&gt;[root] var.test_access_key</title>
<path fill="none" stroke="#000000" d="M348,-143.8314C348,-136.131 348,-126.9743 348,-118.4166"/>
<polygon fill="#000000" stroke="#000000" points="351.5001,-118.4132 348,-108.4133 344.5001,-118.4133 351.5001,-118.4132"/>
</g>
<!-- [root] var.test_secret_key -->
<g id="node_13" class="node">
<title>[root] var.test_secret_key</title>
<polygon fill="none" stroke="#000000" points="405,-90 405,-105 483,-105 483,-90 405,-90"/>
<text text-anchor="start" x="436.7988" y="-95.6" font-family="courier new" font-size="8.00" fill="#000000">var</text>
<polygon fill="none" stroke="#000000" points="405,-75 405,-90 483,-90 483,-75 405,-75"/>
<text text-anchor="start" x="407.9941" y="-80.6" font-family="courier new" font-size="8.00" fill="#000000">test_secret_key</text>
</g>
<!-- [root] provider.aws.test&#45;&gt;[root] var.test_secret_key -->
<g id="edge_13" class="edge">
<title>[root] provider.aws.test&#45;&gt;[root] var.test_secret_key</title>
<path fill="none" stroke="#000000" d="M372.2249,-143.8314C384.1628,-134.8779 398.7256,-123.9558 411.606,-114.2955"/>
<polygon fill="#000000" stroke="#000000" points="413.8829,-116.9629 419.7829,-108.1628 409.6829,-111.3629 413.8829,-116.9629"/>
</g>
<!-- [root] meta.count&#45;boundary (count boundary fixup) -->
<g id="node_7" class="node">
<title>[root] meta.count&#45;boundary (count boundary fixup)</title>
<polygon fill="none" stroke="#000000" points="215,-306 215,-321 288,-321 288,-306 215,-306"/>
<text text-anchor="start" x="241.8984" y="-311.6" font-family="courier new" font-size="8.00" fill="#000000">meta</text>
<polygon fill="none" stroke="#000000" points="215,-291 215,-306 288,-306 288,-291 215,-291"/>
<text text-anchor="start" x="217.8945" y="-296.6" font-family="courier new" font-size="8.00" fill="#000000">count&#45;boundary</text>
</g>
<!-- [root] meta.count&#45;boundary (count boundary fixup)&#45;&gt;[root] aws_s3_bucket_object.prod -->
<g id="edge_6" class="edge">
<title>[root] meta.count&#45;boundary (count boundary fixup)&#45;&gt;[root] aws_s3_bucket_object.prod</title>
<path fill="none" stroke="#000000" d="M235.8595,-287.8314C228.8783,-279.454 220.4609,-269.3531 212.8124,-260.1749"/>
<polygon fill="#000000" stroke="#000000" points="215.4351,-257.8548 206.3444,-252.4133 210.0575,-262.3362 215.4351,-257.8548"/>
</g>
<!-- [root] meta.count&#45;boundary (count boundary fixup)&#45;&gt;[root] aws_s3_bucket_object.test -->
<g id="edge_7" class="edge">
<title>[root] meta.count&#45;boundary (count boundary fixup)&#45;&gt;[root] aws_s3_bucket_object.test</title>
<path fill="none" stroke="#000000" d="M269.421,-287.8314C278.1529,-279.219 288.7317,-268.7851 298.2423,-259.4048"/>
<polygon fill="#000000" stroke="#000000" points="300.923,-261.6769 305.5849,-252.1628 296.0075,-256.6931 300.923,-261.6769"/>
</g>
<!-- [root] provider.aws.prod (close) -->
<g id="node_8" class="node">
<title>[root] provider.aws.prod (close)</title>
<polygon fill="none" stroke="#000000" points="134,-306 134,-321 197,-321 197,-306 134,-306"/>
<text text-anchor="start" x="136.6953" y="-311.6" font-family="courier new" font-size="8.00" fill="#000000">provider.aws</text>
<polygon fill="none" stroke="#000000" points="134,-291 134,-306 197,-306 197,-291 134,-291"/>
<text text-anchor="start" x="155.8984" y="-296.6" font-family="courier new" font-size="8.00" fill="#000000">prod</text>
</g>
<!-- [root] provider.aws.prod (close)&#45;&gt;[root] aws_s3_bucket_object.prod -->
<g id="edge_8" class="edge">
<title>[root] provider.aws.prod (close)&#45;&gt;[root] aws_s3_bucket_object.prod</title>
<path fill="none" stroke="#000000" d="M171.5609,-287.8314C174.4027,-279.9617 177.7937,-270.5712 180.9419,-261.8533"/>
<polygon fill="#000000" stroke="#000000" points="184.2462,-263.0076 184.3508,-252.4133 177.6623,-260.63 184.2462,-263.0076"/>
</g>
<!-- [root] provider.aws.test (close) -->
<g id="node_11" class="node">
<title>[root] provider.aws.test (close)</title>
<polygon fill="none" stroke="#000000" points="306,-306 306,-321 369,-321 369,-306 306,-306"/>
<text text-anchor="start" x="308.6953" y="-311.6" font-family="courier new" font-size="8.00" fill="#000000">provider.aws</text>
<polygon fill="none" stroke="#000000" points="306,-291 306,-306 369,-306 369,-291 306,-291"/>
<text text-anchor="start" x="327.8984" y="-296.6" font-family="courier new" font-size="8.00" fill="#000000">test</text>
</g>
<!-- [root] provider.aws.test (close)&#45;&gt;[root] aws_s3_bucket_object.test -->
<g id="edge_11" class="edge">
<title>[root] provider.aws.test (close)&#45;&gt;[root] aws_s3_bucket_object.test</title>
<path fill="none" stroke="#000000" d="M333.7196,-287.8314C332.3292,-280.131 330.6759,-270.9743 329.1308,-262.4166"/>
<polygon fill="#000000" stroke="#000000" points="332.5458,-261.6322 327.3246,-252.4133 325.6572,-262.8761 332.5458,-261.6322"/>
</g>
<!-- [root] root -->
<g id="node_14" class="node">
<title>[root] root</title>
<polygon fill="none" stroke="#000000" points="285.3089,-396 216.6911,-396 216.6911,-360 285.3089,-360 285.3089,-396"/>
<text text-anchor="middle" x="251" y="-376.1313" font-family="courier new" font-size="8.00" fill="#000000">[root] root</text>
</g>
<!-- [root] root&#45;&gt;[root] meta.count&#45;boundary (count boundary fixup) -->
<g id="edge_14" class="edge">
<title>[root] root&#45;&gt;[root] meta.count&#45;boundary (count boundary fixup)</title>
<path fill="none" stroke="#000000" d="M251,-359.8314C251,-352.131 251,-342.9743 251,-334.4166"/>
<polygon fill="#000000" stroke="#000000" points="254.5001,-334.4132 251,-324.4133 247.5001,-334.4133 254.5001,-334.4132"/>
</g>
<!-- [root] root&#45;&gt;[root] provider.aws.prod (close) -->
<g id="edge_15" class="edge">
<title>[root] root&#45;&gt;[root] provider.aws.prod (close)</title>
<path fill="none" stroke="#000000" d="M229.2986,-359.8314C218.8079,-351.0485 206.0545,-340.3712 194.6806,-330.8489"/>
<polygon fill="#000000" stroke="#000000" points="196.6089,-327.8986 186.6945,-324.1628 192.1153,-333.2659 196.6089,-327.8986"/>
</g>
<!-- [root] root&#45;&gt;[root] provider.aws.test (close) -->
<g id="edge_16" class="edge">
<title>[root] root&#45;&gt;[root] provider.aws.test (close)</title>
<path fill="none" stroke="#000000" d="M272.7014,-359.8314C283.1921,-351.0485 295.9455,-340.3712 307.3194,-330.8489"/>
<polygon fill="#000000" stroke="#000000" points="309.8847,-333.2659 315.3055,-324.1628 305.3911,-327.8986 309.8847,-333.2659"/>
</g>
</g>
</svg>

