<?xml version="1.0" encoding="UTF-8" standalone="no"?>
<!DOCTYPE svg PUBLIC "-//W3C//DTD SVG 1.1//EN"
 "http://www.w3.org/Graphics/SVG/1.1/DTD/svg11.dtd">
<!-- Generated by graphviz version 2.40.1 (20161225.0304)
 -->
<!-- Title: %3 Pages: 1 -->
<svg width="326pt" height="492pt"
 viewBox="0.00 0.00 325.50 492.00" xmlns="http://www.w3.org/2000/svg" xmlns:xlink="http://www.w3.org/1999/xlink">
<g id="graph0" class="graph" transform="scale(1 1) rotate(0) translate(4 488)">
<title>%3</title>
<polygon fill="#ffffff" stroke="transparent" points="-4,4 -4,-488 321.5,-488 321.5,4 -4,4"/>
<g id="clust2" class="cluster">
<title>cluster[root] aws_s3_bucket.prod_var_</title>
</g>
<g id="clust3" class="cluster">
<title>cluster[root] provider.aws.prod_var_</title>
</g>
<g id="clust4" class="cluster">
<title>cluster[root] provider.aws.test_var_</title>
</g>
<!-- [root] aws_s3_bucket.prod -->
<g id="node_0" class="node">
<title>[root] aws_s3_bucket.prod</title>
<polygon fill="none" stroke="#000000" points="110,-250 110,-265 178,-265 178,-250 110,-250"/>
<text text-anchor="start" x="112.7949" y="-255.6" font-family="courier new" font-size="8.00" fill="#000000">aws_s3_bucket</text>
<polygon fill="none" stroke="#000000" points="110,-235 110,-250 178,-250 178,-235 110,-235"/>
<text text-anchor="start" x="134.3984" y="-240.6" font-family="courier new" font-size="8.00" fill="#000000">prod</text>
</g>
<!-- [root] provider.aws.prod -->
<g id="node_3" class="node">
<title>[root] provider.aws.prod</title>
<polygon fill="none" stroke="#000000" points="118,-178 118,-193 181,-193 181,-178 118,-178"/>
<text text-anchor="start" x="120.6953" y="-183.6" font-family="courier new" font-size="8.00" fill="#000000">provider.aws</text>
<polygon fill="none" stroke="#000000" points="118,-163 118,-178 181,-178 181,-163 118,-163"/>
<text text-anchor="start" x="139.8984" y="-168.6" font-family="courier new" font-size="8.00" fill="#000000">prod</text>
</g>
<!-- [root] aws_s3_bucket.prod&#45;&gt;[root] provider.aws.prod -->
<g id="edge_0" class="edge">
<title>[root] aws_s3_bucket.prod&#45;&gt;[root] provider.aws.prod</title>
<path fill="none" stroke="#000000" d="M145.2617,-231.8314C145.7965,-224.131 146.4323,-214.9743 147.0266,-206.4166"/>
<polygon fill="#000000" stroke="#000000" points="150.52,-206.6317 147.7213,-196.4133 143.5368,-206.1467 150.52,-206.6317"/>
</g>
<!-- [root] var.bucket_name -->
<g id="node_5" class="node">
<title>[root] var.bucket_name</title>
<polygon fill="none" stroke="#000000" points="31,-178 31,-193 89,-193 89,-178 31,-178"/>
<text text-anchor="start" x="52.7988" y="-183.6" font-family="courier new" font-size="8.00" fill="#000000">var</text>
<polygon fill="none" stroke="#000000" points="31,-163 31,-178 89,-178 89,-163 31,-163"/>
<text text-anchor="start" x="33.5957" y="-168.6" font-family="courier new" font-size="8.00" fill="#000000">bucket_name</text>
</g>
<!-- [root] aws_s3_bucket.prod&#45;&gt;[root] var.bucket_name -->
<g id="edge_1" class="edge">
<title>[root] aws_s3_bucket.prod&#45;&gt;[root] var.bucket_name</title>
<path fill="none" stroke="#000000" d="M122.8033,-231.8314C112.5566,-223.0485 100.0997,-212.3712 88.9903,-202.8489"/>
<polygon fill="#000000" stroke="#000000" points="91.0603,-200.0134 81.19,-196.1628 86.5048,-205.3282 91.0603,-200.0134"/>
</g>
<!-- [root] aws_s3_bucket_object.prod -->
<g id="node_1" class="node">
<title>[root] aws_s3_bucket_object.prod</title>
<polygon fill="none" stroke="#000000" points="89,-322 89,-337 191,-337 191,-322 89,-322"/>
<text text-anchor="start" x="91.9922" y="-327.6" font-family="courier new" font-size="8.00" fill="#000000">aws_s3_bucket_object</text>
<polygon fill="none" stroke="#000000" points="89,-307 89,-322 191,-322 191,-307 89,-307"/>
<text text-anchor="start" x="130.3984" y="-312.6" font-family="courier new" font-size="8.00" fill="#000000">prod</text>
</g>
<!-- [root] aws_s3_bucket_object.prod&#45;&gt;[root] aws_s3_bucket.prod -->
<g id="edge_3" class="edge">
<title>[root] aws_s3_bucket_object.prod&#45;&gt;[root] aws_s3_bucket.prod</title>
<path fill="none" stroke="#000000" d="M141.0094,-303.8314C141.4372,-296.131 141.9459,-286.9743 142.4213,-278.4166"/>
<polygon fill="#000000" stroke="#000000" points="145.9169,-278.592 142.977,-268.4133 138.9276,-278.2037 145.9169,-278.592"/>
</g>
<!-- [root] aws_s3_bucket_object.test -->
<g id="node_2" class="node">
<title>[root] aws_s3_bucket_object.test</title>
<polygon fill="none" stroke="#000000" points="209,-322 209,-337 311,-337 311,-322 209,-322"/>
<text text-anchor="start" x="211.9922" y="-327.6" font-family="courier new" font-size="8.00" fill="#000000">aws_s3_bucket_object</text>
<polygon fill="none" stroke="#000000" points="209,-307 209,-322 311,-322 311,-307 209,-307"/>
<text text-anchor="start" x="250.3984" y="-312.6" font-family="courier new" font-size="8.00" fill="#000000">test</text>
</g>
<!-- [root] aws_s3_bucket_object.test&#45;&gt;[root] aws_s3_bucket.prod -->
<g id="edge_4" class="edge">
<title>[root] aws_s3_bucket_object.test&#45;&gt;[root] aws_s3_bucket.prod</title>
<path fill="none" stroke="#000000" d="M230.7283,-303.8314C215.8912,-294.6221 197.6985,-283.3301 181.8138,-273.4706"/>
<polygon fill="#000000" stroke="#000000" points="183.6045,-270.4628 173.2623,-268.1628 179.913,-276.4102 183.6045,-270.4628"/>
</g>
<!-- [root] provider.aws.test -->
<g id="node_4" class="node">
<title>[root] provider.aws.test</title>
<polygon fill="none" stroke="#000000" points="229,-250 229,-265 292,-265 292,-250 229,-250"/>
<text text-anchor="start" x="231.6953" y="-255.6" font-family="courier new" font-size="8.00" fill="#000000">provider.aws</text>
<polygon fill="none" stroke="#000000" points="229,-235 229,-250 292,-250 292,-235 229,-235"/>
<text text-anchor="start" x="250.8984" y="-240.6" font-family="courier new" font-size="8.00" fill="#000000">test</text>
</g>
<!-- [root] aws_s3_bucket_object.test&#45;&gt;[root] provider.aws.test -->
<g id="edge_5" class="edge">
<title>[root] aws_s3_bucket_object.test&#45;&gt;[root] provider.aws.test</title>
<path fill="none" stroke="#000000" d="M260,-303.8314C260,-296.131 260,-286.9743 260,-278.4166"/>
<polygon fill="#000000" stroke="#000000" points="263.5001,-278.4132 260,-268.4133 256.5001,-278.4133 263.5001,-278.4132"/>
</g>
<!-- [root] var.prod_access_key -->
<g id="node_9" class="node">
<title>[root] var.prod_access_key</title>
<polygon fill="none" stroke="#000000" points="118,-106 118,-121 196,-121 196,-106 118,-106"/>
<text text-anchor="start" x="149.7988" y="-111.6" font-family="courier new" font-size="8.00" fill="#000000">var</text>
<polygon fill="none" stroke="#000000" points="118,-91 118,-106 196,-106 196,-91 118,-91"/>
<text text-anchor="start" x="120.9941" y="-96.6" font-family="courier new" font-size="8.00" fill="#000000">prod_access_key</text>
</g>
<!-- [root] provider.aws.prod&#45;&gt;[root] var.prod_access_key -->
<g id="edge_9" class="edge">
<title>[root] provider.aws.prod&#45;&gt;[root] var.prod_access_key</title>
<path fill="none" stroke="#000000" d="M151.0187,-159.8314C151.8743,-152.131 152.8917,-142.9743 153.8426,-134.4166"/>
<polygon fill="#000000" stroke="#000000" points="157.3283,-134.7386 154.9541,-124.4133 150.3711,-133.9656 157.3283,-134.7386"/>
</g>
<!-- [root] var.test_access_key -->
<g id="node_12" class="node">
<title>[root] var.test_access_key</title>
<polygon fill="none" stroke="#000000" points="221,-178 221,-193 299,-193 299,-178 221,-178"/>
<text text-anchor="start" x="252.7988" y="-183.6" font-family="courier new" font-size="8.00" fill="#000000">var</text>
<polygon fill="none" stroke="#000000" points="221,-163 221,-178 299,-178 299,-163 221,-163"/>
<text text-anchor="start" x="223.9941" y="-168.6" font-family="courier new" font-size="8.00" fill="#000000">test_access_key</text>
</g>
<!-- [root] provider.aws.test&#45;&gt;[root] var.test_access_key -->
<g id="edge_12" class="edge">
<title>[root] provider.aws.test&#45;&gt;[root] var.test_access_key</title>
<path fill="none" stroke="#000000" d="M260,-231.8314C260,-224.131 260,-214.9743 260,-206.4166"/>
<polygon fill="#000000" stroke="#000000" points="263.5001,-206.4132 260,-196.4133 256.5001,-206.4133 263.5001,-206.4132"/>
</g>
<!-- [root] meta.count&#45;boundary (count boundary fixup) -->
<g id="node_7" class="node">
<title>[root] meta.count&#45;boundary (count boundary fixup)</title>
<polygon fill="none" stroke="#000000" points="164,-394 164,-409 237,-409 237,-394 164,-394"/>
<text text-anchor="start" x="190.8984" y="-399.6" font-family="courier new" font-size="8.00" fill="#000000">meta</text>
<polygon fill="none" stroke="#000000" points="164,-379 164,-394 237,-394 237,-379 164,-379"/>
<text text-anchor="start" x="166.8945" y="-384.6" font-family="courier new" font-size="8.00" fill="#000000">count&#45;boundary</text>
</g>
<!-- [root] meta.count&#45;boundary (count boundary fixup)&#45;&gt;[root] aws_s3_bucket_object.prod -->
<g id="edge_6" class="edge">
<title>[root] meta.count&#45;boundary (count boundary fixup)&#45;&gt;[root] aws_s3_bucket_object.prod</title>
<path fill="none" stroke="#000000" d="M184.8595,-375.8314C177.8783,-367.454 169.4609,-357.3531 161.8124,-348.1749"/>
<polygon fill="#000000" stroke="#000000" points="164.4351,-345.8548 155.3444,-340.4133 159.0575,-350.3362 164.4351,-345.8548"/>
</g>
<!-- [root] meta.count&#45;boundary (count boundary fixup)&#45;&gt;[root] aws_s3_bucket_object.test -->
<g id="edge_7" class="edge">
<title>[root] meta.count&#45;boundary (count boundary fixup)&#45;&gt;[root] aws_s3_bucket_object.test</title>
<path fill="none" stroke="#000000" d="M215.1405,-375.8314C222.1217,-367.454 230.5391,-357.3531 238.1876,-348.1749"/>
<polygon fill="#000000" stroke="#000000" points="240.9425,-350.3362 244.6556,-340.4133 235.5649,-345.8548 240.9425,-350.3362"/>
</g>
<!-- [root] provider.aws.prod (close) -->
<g id="node_8" class="node">
<title>[root] provider.aws.prod (close)</title>
<polygon fill="none" stroke="#000000" points="83,-394 83,-409 146,-409 146,-394 83,-394"/>
<text text-anchor="start" x="85.6953" y="-399.6" font-family="courier new" font-size="8.00" fill="#000000">provider.aws</text>
<polygon fill="none" stroke="#000000" points="83,-379 83,-394 146,-394 146,-379 83,-379"/>
<text text-anchor="start" x="104.8984" y="-384.6" font-family="courier new" font-size="8.00" fill="#000000">prod</text>
</g>
<!-- [root] provider.aws.prod (close)&#45;&gt;[root] aws_s3_bucket_object.prod -->
<g id="edge_8" class="edge">
<title>[root] provider.aws.prod (close)&#45;&gt;[root] aws_s3_bucket_object.prod</title>
<path fill="none" stroke="#000000" d="M120.5609,-375.8314C123.4027,-367.9617 126.7937,-358.5712 129.9419,-349.8533"/>
<polygon fill="#000000" stroke="#000000" points="133.2462,-351.0076 133.3508,-340.4133 126.6623,-348.63 133.2462,-351.0076"/>
</g>
<!-- [root] provider.aws.test (close) -->
<g id="node_11" class="node">
<title>[root] provider.aws.test (close)</title>
<polygon fill="none" stroke="#000000" points="255,-394 255,-409 318,-409 318,-394 255,-394"/>
<text text-anchor="start" x="257.6953" y="-399.6" font-family="courier new" font-size="8.00" fill="#000000">provider.aws</text>
<polygon fill="none" stroke="#000000" points="255,-379 255,-394 318,-394 318,-379 255,-379"/>
<text text-anchor="start" x="276.8984" y="-384.6" font-family="courier new" font-size="8.00" fill="#000000">test</text>
</g>
<!-- [root] provider.aws.test (close)&#45;&gt;[root] aws_s3_bucket_object.test -->
<g id="edge_11" class="edge">
<title>[root] provider.aws.test (close)&#45;&gt;[root] aws_s3_bucket_object.test</title>
<path fill="none" stroke="#000000" d="M279.4391,-375.8314C276.5973,-367.9617 273.2063,-358.5712 270.0581,-349.8533"/>
<polygon fill="#000000" stroke="#000000" points="273.3377,-348.63 266.6492,-340.4133 266.7538,-351.0076 273.3377,-348.63"/>
</g>
<!-- [root] root -->
<g id="node_14" class="node">
<title>[root] root</title>
<polygon fill="none" stroke="#000000" points="234.3089,-484 165.6911,-484 165.6911,-448 234.3089,-448 234.3089,-484"/>
<text text-anchor="middle" x="200" y="-464.1313" font-family="courier new" font-size="8.00" fill="#000000">[root] root</text>
</g>
<!-- [root] root&#45;&gt;[root] meta.count&#45;boundary (count boundary fixup) -->
<g id="edge_14" class="edge">
<title>[root] root&#45;&gt;[root] meta.count&#45;boundary (count boundary fixup)</title>
<path fill="none" stroke="#000000" d="M200,-447.8314C200,-440.131 200,-430.9743 200,-422.4166"/>
<polygon fill="#000000" stroke="#000000" points="203.5001,-422.4132 200,-412.4133 196.5001,-422.4133 203.5001,-422.4132"/>
</g>
<!-- [root] root&#45;&gt;[root] provider.aws.prod (close) -->
<g id="edge_15" class="edge">
<title>[root] root&#45;&gt;[root] provider.aws.prod (close)</title>
<path fill="none" stroke="#000000" d="M178.2986,-447.8314C167.8079,-439.0485 155.0545,-428.3712 143.6806,-418.8489"/>
<polygon fill="#000000" stroke="#000000" points="145.6089,-415.8986 135.6945,-412.1628 141.1153,-421.2659 145.6089,-415.8986"/>
</g>
<!-- [root] root&#45;&gt;[root] provider.aws.test (close) -->
<g id="edge_16" class="edge">
<title>[root] root&#45;&gt;[root] provider.aws.test (close)</title>
<path fill="none" stroke="#000000" d="M221.7014,-447.8314C232.1921,-439.0485 244.9455,-428.3712 256.3194,-418.8489"/>
<polygon fill="#000000" stroke="#000000" points="258.8847,-421.2659 264.3055,-412.1628 254.3911,-415.8986 258.8847,-421.2659"/>
</g>
<!-- [root] var.test_account_id -->
<g id="node_6" class="node">
<title>[root] var.test_account_id</title>
<polygon fill="none" stroke="#000000" points="16,-106 16,-121 94,-121 94,-106 16,-106"/>
<text text-anchor="start" x="47.7988" y="-111.6" font-family="courier new" font-size="8.00" fill="#000000">var</text>
<polygon fill="none" stroke="#000000" points="16,-91 16,-106 94,-106 94,-91 16,-91"/>
<text text-anchor="start" x="18.9941" y="-96.6" font-family="courier new" font-size="8.00" fill="#000000">test_account_id</text>
</g>
<!-- [root] var.bucket_name&#45;&gt;[root] var.test_account_id -->
<g id="edge_18" class="edge">
<title>[root] var.bucket_name&#45;&gt;[root] var.test_account_id</title>
<path fill="none" stroke="#000000" stroke-dasharray="5,2" d="M58.7383,-159.8314C57.9861,-149 57.0339,-135.2876 56.2787,-124.4133"/>
</g>
<!-- [root] var.prod_secret_key -->
<g id="node_10" class="node">
<title>[root] var.prod_secret_key</title>
<polygon fill="none" stroke="#000000" points="118,-34 118,-49 196,-49 196,-34 118,-34"/>
<text text-anchor="start" x="149.7988" y="-39.6" font-family="courier new" font-size="8.00" fill="#000000">var</text>
<polygon fill="none" stroke="#000000" points="118,-19 118,-34 196,-34 196,-19 118,-19"/>
<text text-anchor="start" x="120.9941" y="-24.6" font-family="courier new" font-size="8.00" fill="#000000">prod_secret_key</text>
</g>
<!-- [root] var.prod_access_key&#45;&gt;[root] var.prod_secret_key -->
<g id="edge_20" class="edge">
<title>[root] var.prod_access_key&#45;&gt;[root] var.prod_secret_key</title>
<path fill="none" stroke="#000000" stroke-dasharray="5,2" d="M157,-87.8314C157,-77 157,-63.2876 157,-52.4133"/>
</g>
<!-- [root] var.test_secret_key -->
<g id="node_13" class="node">
<title>[root] var.test_secret_key</title>
<polygon fill="none" stroke="#000000" points="221,-106 221,-121 299,-121 299,-106 221,-106"/>
<text text-anchor="start" x="252.7988" y="-111.6" font-family="courier new" font-size="8.00" fill="#000000">var</text>
<polygon fill="none" stroke="#000000" points="221,-91 221,-106 299,-106 299,-91 221,-91"/>
<text text-anchor="start" x="223.9941" y="-96.6" font-family="courier new" font-size="8.00" fill="#000000">test_secret_key</text>
</g>
<!-- [root] var.test_access_key&#45;&gt;[root] var.test_secret_key -->
<g id="edge_22" class="edge">
<title>[root] var.test_access_key&#45;&gt;[root] var.test_secret_key</title>
<path fill="none" stroke="#000000" stroke-dasharray="5,2" d="M260,-159.8314C260,-149 260,-135.2876 260,-124.4133"/>
</g>
</g>
</svg>

