<?xml version="1.0" encoding="UTF-8" standalone="no"?>
<!DOCTYPE svg PUBLIC "-//W3C//DTD SVG 1.1//EN"
 "http://www.w3.org/Graphics/SVG/1.1/DTD/svg11.dtd">
<!-- Generated by graphviz version 2.40.1 (20161225.0304)
 -->
<!-- Title: %3 Pages: 1 -->
<svg width="989pt" height="548pt"
 viewBox="0.00 0.00 989.25 548.00" xmlns="http://www.w3.org/2000/svg" xmlns:xlink="http://www.w3.org/1999/xlink">
<g id="graph0" class="graph" transform="scale(1 1) rotate(0) translate(4 544)">
<title>%3</title>
<polygon fill="#ffffff" stroke="transparent" points="-4,4 -4,-544 985.2454,-544 985.2454,4 -4,4"/>
<!-- [root] azurerm_managed_disk.datadisk -->
<g id="node_0" class="node">
<title>[root] azurerm_managed_disk.datadisk</title>
<polygon fill="none" stroke="#000000" points="772,-306 772,-321 874,-321 874,-306 772,-306"/>
<text text-anchor="start" x="774.9922" y="-311.6" font-family="courier new" font-size="8.00" fill="#000000">azurerm_managed_disk</text>
<polygon fill="none" stroke="#000000" points="772,-291 772,-306 874,-306 874,-291 772,-291"/>
<text text-anchor="start" x="803.7969" y="-296.6" font-family="courier new" font-size="8.00" fill="#000000">datadisk</text>
</g>
<!-- [root] azurerm_resource_group.rg -->
<g id="node_3" class="node">
<title>[root] azurerm_resource_group.rg</title>
<polygon fill="none" stroke="#000000" points="310,-90 310,-105 421,-105 421,-90 310,-90"/>
<text text-anchor="start" x="312.6914" y="-95.6" font-family="courier new" font-size="8.00" fill="#000000">azurerm_resource_group</text>
<polygon fill="none" stroke="#000000" points="310,-75 310,-90 421,-90 421,-75 310,-75"/>
<text text-anchor="start" x="360.6992" y="-80.6" font-family="courier new" font-size="8.00" fill="#000000">rg</text>
</g>
<!-- [root] azurerm_managed_disk.datadisk&#45;&gt;[root] azurerm_resource_group.rg -->
<g id="edge_0" class="edge">
<title>[root] azurerm_managed_disk.datadisk&#45;&gt;[root] azurerm_resource_group.rg</title>
<path fill="none" stroke="#000000" d="M771.9156,-296.4302C756.819,-293.6526 740.2529,-290.6542 725,-288 627.8207,-271.0896 597.3634,-289.1821 506,-252 454.2667,-230.9461 438.1254,-223.4259 403,-180 388.2405,-161.7527 378.3344,-136.9364 372.3471,-117.9839"/>
<polygon fill="#000000" stroke="#000000" points="375.624,-116.724 369.4181,-108.137 368.9145,-118.7198 375.624,-116.724"/>
</g>
<!-- [root] var.hostname -->
<g id="node_9" class="node">
<title>[root] var.hostname</title>
<polygon fill="none" stroke="#000000" points="886,-234 886,-249 930,-249 930,-234 886,-234"/>
<text text-anchor="start" x="900.7988" y="-239.6" font-family="courier new" font-size="8.00" fill="#000000">var</text>
<polygon fill="none" stroke="#000000" points="886,-219 886,-234 930,-234 930,-219 886,-219"/>
<text text-anchor="start" x="888.7969" y="-224.6" font-family="courier new" font-size="8.00" fill="#000000">hostname</text>
</g>
<!-- [root] azurerm_managed_disk.datadisk&#45;&gt;[root] var.hostname -->
<g id="edge_1" class="edge">
<title>[root] azurerm_managed_disk.datadisk&#45;&gt;[root] var.hostname</title>
<path fill="none" stroke="#000000" d="M844.4491,-287.8314C854.8178,-279.0485 867.4229,-268.3712 878.6646,-258.8489"/>
<polygon fill="#000000" stroke="#000000" points="881.1895,-261.297 886.5578,-252.1628 876.6651,-255.9556 881.1895,-261.297"/>
</g>
<!-- [root] azurerm_network_interface.nic -->
<g id="node_1" class="node">
<title>[root] azurerm_network_interface.nic</title>
<polygon fill="none" stroke="#000000" points="188,-306 188,-321 314,-321 314,-306 188,-306"/>
<text text-anchor="start" x="190.9902" y="-311.6" font-family="courier new" font-size="8.00" fill="#000000">azurerm_network_interface</text>
<polygon fill="none" stroke="#000000" points="188,-291 188,-306 314,-306 314,-291 188,-291"/>
<text text-anchor="start" x="243.7988" y="-296.6" font-family="courier new" font-size="8.00" fill="#000000">nic</text>
</g>
<!-- [root] azurerm_public_ip.pip -->
<g id="node_2" class="node">
<title>[root] azurerm_public_ip.pip</title>
<polygon fill="none" stroke="#000000" points="257,-234 257,-249 344,-249 344,-234 257,-234"/>
<text text-anchor="start" x="259.6934" y="-239.6" font-family="courier new" font-size="8.00" fill="#000000">azurerm_public_ip</text>
<polygon fill="none" stroke="#000000" points="257,-219 257,-234 344,-234 344,-219 257,-219"/>
<text text-anchor="start" x="293.2988" y="-224.6" font-family="courier new" font-size="8.00" fill="#000000">pip</text>
</g>
<!-- [root] azurerm_network_interface.nic&#45;&gt;[root] azurerm_public_ip.pip -->
<g id="edge_2" class="edge">
<title>[root] azurerm_network_interface.nic&#45;&gt;[root] azurerm_public_ip.pip</title>
<path fill="none" stroke="#000000" d="M263.3648,-287.8314C268.9509,-279.6232 275.663,-269.7606 281.8072,-260.7323"/>
<polygon fill="#000000" stroke="#000000" points="284.736,-262.6496 287.4687,-252.4133 278.949,-258.7112 284.736,-262.6496"/>
</g>
<!-- [root] azurerm_subnet.subnet -->
<g id="node_5" class="node">
<title>[root] azurerm_subnet.subnet</title>
<polygon fill="none" stroke="#000000" points="166,-234 166,-249 239,-249 239,-234 166,-234"/>
<text text-anchor="start" x="168.8945" y="-239.6" font-family="courier new" font-size="8.00" fill="#000000">azurerm_subnet</text>
<polygon fill="none" stroke="#000000" points="166,-219 166,-234 239,-234 239,-219 166,-219"/>
<text text-anchor="start" x="188.0977" y="-224.6" font-family="courier new" font-size="8.00" fill="#000000">subnet</text>
</g>
<!-- [root] azurerm_network_interface.nic&#45;&gt;[root] azurerm_subnet.subnet -->
<g id="edge_3" class="edge">
<title>[root] azurerm_network_interface.nic&#45;&gt;[root] azurerm_subnet.subnet</title>
<path fill="none" stroke="#000000" d="M238.6352,-287.8314C233.0491,-279.6232 226.337,-269.7606 220.1928,-260.7323"/>
<polygon fill="#000000" stroke="#000000" points="223.051,-258.7112 214.5313,-252.4133 217.264,-262.6496 223.051,-258.7112"/>
</g>
<!-- [root] azurerm_public_ip.pip&#45;&gt;[root] azurerm_resource_group.rg -->
<g id="edge_4" class="edge">
<title>[root] azurerm_public_ip.pip&#45;&gt;[root] azurerm_resource_group.rg</title>
<path fill="none" stroke="#000000" d="M309.5425,-215.6474C314.8485,-205.2646 321.4755,-191.9958 327,-180 336.5779,-159.2026 346.6216,-135.3118 353.9763,-117.3736"/>
<polygon fill="#000000" stroke="#000000" points="357.2318,-118.6593 357.7655,-108.0779 350.7497,-116.0169 357.2318,-118.6593"/>
</g>
<!-- [root] var.dns_name -->
<g id="node_10" class="node">
<title>[root] var.dns_name</title>
<polygon fill="none" stroke="#000000" points="417,-162 417,-177 461,-177 461,-162 417,-162"/>
<text text-anchor="start" x="431.7988" y="-167.6" font-family="courier new" font-size="8.00" fill="#000000">var</text>
<polygon fill="none" stroke="#000000" points="417,-147 417,-162 461,-162 461,-147 417,-147"/>
<text text-anchor="start" x="419.7969" y="-152.6" font-family="courier new" font-size="8.00" fill="#000000">dns_name</text>
</g>
<!-- [root] azurerm_public_ip.pip&#45;&gt;[root] var.dns_name -->
<g id="edge_5" class="edge">
<title>[root] azurerm_public_ip.pip&#45;&gt;[root] var.dns_name</title>
<path fill="none" stroke="#000000" d="M335.0756,-215.8314C355.8127,-205.0898 382.02,-191.5148 402.9287,-180.6844"/>
<polygon fill="#000000" stroke="#000000" points="404.5584,-183.782 411.8281,-176.0747 401.3388,-177.5663 404.5584,-183.782"/>
</g>
<!-- [root] var.rg_prefix -->
<g id="node_11" class="node">
<title>[root] var.rg_prefix</title>
<polygon fill="none" stroke="#000000" points="267,-162 267,-177 316,-177 316,-162 267,-162"/>
<text text-anchor="start" x="284.2988" y="-167.6" font-family="courier new" font-size="8.00" fill="#000000">var</text>
<polygon fill="none" stroke="#000000" points="267,-147 267,-162 316,-162 316,-147 267,-147"/>
<text text-anchor="start" x="269.8965" y="-152.6" font-family="courier new" font-size="8.00" fill="#000000">rg_prefix</text>
</g>
<!-- [root] azurerm_public_ip.pip&#45;&gt;[root] var.rg_prefix -->
<g id="edge_6" class="edge">
<title>[root] azurerm_public_ip.pip&#45;&gt;[root] var.rg_prefix</title>
<path fill="none" stroke="#000000" d="M297.7289,-215.8314C296.7664,-208.131 295.6218,-198.9743 294.5521,-190.4166"/>
<polygon fill="#000000" stroke="#000000" points="298.0151,-189.9019 293.3017,-180.4133 291.0691,-190.7702 298.0151,-189.9019"/>
</g>
<!-- [root] provider.azurerm -->
<g id="node_8" class="node">
<title>[root] provider.azurerm</title>
<polygon fill="none" stroke="#000000" points="271,-18 271,-33 315,-33 315,-18 271,-18"/>
<text text-anchor="start" x="273.7969" y="-23.6" font-family="courier new" font-size="8.00" fill="#000000">provider</text>
<polygon fill="none" stroke="#000000" points="271,-3 271,-18 315,-18 315,-3 271,-3"/>
<text text-anchor="start" x="276.1973" y="-8.6" font-family="courier new" font-size="8.00" fill="#000000">azurerm</text>
</g>
<!-- [root] azurerm_resource_group.rg&#45;&gt;[root] provider.azurerm -->
<g id="edge_7" class="edge">
<title>[root] azurerm_resource_group.rg&#45;&gt;[root] provider.azurerm</title>
<path fill="none" stroke="#000000" d="M346.8314,-71.8314C338.2848,-63.2848 327.9443,-52.9443 318.6198,-43.6198"/>
<polygon fill="#000000" stroke="#000000" points="320.9592,-41.0095 311.4133,-36.4133 316.0095,-45.9592 320.9592,-41.0095"/>
</g>
<!-- [root] var.location -->
<g id="node_12" class="node">
<title>[root] var.location</title>
<polygon fill="none" stroke="#000000" points="343,-18 343,-33 387,-33 387,-18 343,-18"/>
<text text-anchor="start" x="357.7988" y="-23.6" font-family="courier new" font-size="8.00" fill="#000000">var</text>
<polygon fill="none" stroke="#000000" points="343,-3 343,-18 387,-18 387,-3 343,-3"/>
<text text-anchor="start" x="345.7969" y="-8.6" font-family="courier new" font-size="8.00" fill="#000000">location</text>
</g>
<!-- [root] azurerm_resource_group.rg&#45;&gt;[root] var.location -->
<g id="edge_8" class="edge">
<title>[root] azurerm_resource_group.rg&#45;&gt;[root] var.location</title>
<path fill="none" stroke="#000000" d="M365,-71.8314C365,-64.131 365,-54.9743 365,-46.4166"/>
<polygon fill="#000000" stroke="#000000" points="368.5001,-46.4132 365,-36.4133 361.5001,-46.4133 368.5001,-46.4132"/>
</g>
<!-- [root] var.resource_group -->
<g id="node_13" class="node">
<title>[root] var.resource_group</title>
<polygon fill="none" stroke="#000000" points="411,-18 411,-33 484,-33 484,-18 411,-18"/>
<text text-anchor="start" x="440.2988" y="-23.6" font-family="courier new" font-size="8.00" fill="#000000">var</text>
<polygon fill="none" stroke="#000000" points="411,-3 411,-18 484,-18 484,-3 411,-3"/>
<text text-anchor="start" x="413.8945" y="-8.6" font-family="courier new" font-size="8.00" fill="#000000">resource_group</text>
</g>
<!-- [root] azurerm_resource_group.rg&#45;&gt;[root] var.resource_group -->
<g id="edge_9" class="edge">
<title>[root] azurerm_resource_group.rg&#45;&gt;[root] var.resource_group</title>
<path fill="none" stroke="#000000" d="M385.6921,-71.8314C395.6948,-63.0485 407.855,-52.3712 418.6999,-42.8489"/>
<polygon fill="#000000" stroke="#000000" points="421.1094,-45.3909 426.3146,-36.1628 416.4908,-40.1308 421.1094,-45.3909"/>
</g>
<!-- [root] azurerm_storage_account.stor -->
<g id="node_4" class="node">
<title>[root] azurerm_storage_account.stor</title>
<polygon fill="none" stroke="#000000" points="515,-234 515,-249 631,-249 631,-234 515,-234"/>
<text text-anchor="start" x="517.791" y="-239.6" font-family="courier new" font-size="8.00" fill="#000000">azurerm_storage_account</text>
<polygon fill="none" stroke="#000000" points="515,-219 515,-234 631,-234 631,-219 515,-219"/>
<text text-anchor="start" x="563.3984" y="-224.6" font-family="courier new" font-size="8.00" fill="#000000">stor</text>
</g>
<!-- [root] azurerm_storage_account.stor&#45;&gt;[root] azurerm_resource_group.rg -->
<g id="edge_10" class="edge">
<title>[root] azurerm_storage_account.stor&#45;&gt;[root] azurerm_resource_group.rg</title>
<path fill="none" stroke="#000000" d="M552.6092,-215.8814C540.9446,-205.4586 526.0759,-192.0744 513,-180 495.908,-164.2172 494.1037,-157.2771 475,-144 457.5895,-131.8997 437.0636,-121.0367 418.4866,-112.2815"/>
<polygon fill="#000000" stroke="#000000" points="419.809,-109.0371 409.2622,-108.0286 416.8781,-115.394 419.809,-109.0371"/>
</g>
<!-- [root] azurerm_storage_account.stor&#45;&gt;[root] var.dns_name -->
<g id="edge_11" class="edge">
<title>[root] azurerm_storage_account.stor&#45;&gt;[root] var.dns_name</title>
<path fill="none" stroke="#000000" d="M539.1861,-215.8314C519.642,-205.33 495.0576,-192.1205 475.1335,-181.415"/>
<polygon fill="#000000" stroke="#000000" points="476.522,-178.1879 466.0564,-176.5378 473.2087,-184.3541 476.522,-178.1879"/>
</g>
<!-- [root] var.storage_account_tier -->
<g id="node_14" class="node">
<title>[root] var.storage_account_tier</title>
<polygon fill="none" stroke="#000000" points="522,-162 522,-177 624,-177 624,-162 522,-162"/>
<text text-anchor="start" x="565.7988" y="-167.6" font-family="courier new" font-size="8.00" fill="#000000">var</text>
<polygon fill="none" stroke="#000000" points="522,-147 522,-162 624,-162 624,-147 522,-147"/>
<text text-anchor="start" x="524.9922" y="-152.6" font-family="courier new" font-size="8.00" fill="#000000">storage_account_tier</text>
</g>
<!-- [root] azurerm_storage_account.stor&#45;&gt;[root] var.storage_account_tier -->
<g id="edge_12" class="edge">
<title>[root] azurerm_storage_account.stor&#45;&gt;[root] var.storage_account_tier</title>
<path fill="none" stroke="#000000" d="M573,-215.8314C573,-208.131 573,-198.9743 573,-190.4166"/>
<polygon fill="#000000" stroke="#000000" points="576.5001,-190.4132 573,-180.4133 569.5001,-190.4133 576.5001,-190.4132"/>
</g>
<!-- [root] var.storage_replication_type -->
<g id="node_15" class="node">
<title>[root] var.storage_replication_type</title>
<polygon fill="none" stroke="#000000" points="643,-162 643,-177 764,-177 764,-162 643,-162"/>
<text text-anchor="start" x="696.2988" y="-167.6" font-family="courier new" font-size="8.00" fill="#000000">var</text>
<polygon fill="none" stroke="#000000" points="643,-147 643,-162 764,-162 764,-147 643,-147"/>
<text text-anchor="start" x="645.8906" y="-152.6" font-family="courier new" font-size="8.00" fill="#000000">storage_replication_type</text>
</g>
<!-- [root] azurerm_storage_account.stor&#45;&gt;[root] var.storage_replication_type -->
<g id="edge_13" class="edge">
<title>[root] azurerm_storage_account.stor&#45;&gt;[root] var.storage_replication_type</title>
<path fill="none" stroke="#000000" d="M605.8045,-215.8314C622.5862,-206.5368 643.1985,-195.1208 661.1163,-185.1971"/>
<polygon fill="#000000" stroke="#000000" points="663.1538,-188.0696 670.206,-180.1628 659.7623,-181.9461 663.1538,-188.0696"/>
</g>
<!-- [root] azurerm_virtual_network.vnet -->
<g id="node_7" class="node">
<title>[root] azurerm_virtual_network.vnet</title>
<polygon fill="none" stroke="#000000" points="44,-162 44,-177 160,-177 160,-162 44,-162"/>
<text text-anchor="start" x="46.791" y="-167.6" font-family="courier new" font-size="8.00" fill="#000000">azurerm_virtual_network</text>
<polygon fill="none" stroke="#000000" points="44,-147 44,-162 160,-162 160,-147 44,-147"/>
<text text-anchor="start" x="92.3984" y="-152.6" font-family="courier new" font-size="8.00" fill="#000000">vnet</text>
</g>
<!-- [root] azurerm_subnet.subnet&#45;&gt;[root] azurerm_virtual_network.vnet -->
<g id="edge_14" class="edge">
<title>[root] azurerm_subnet.subnet&#45;&gt;[root] azurerm_virtual_network.vnet</title>
<path fill="none" stroke="#000000" d="M176.7658,-215.8314C164.212,-206.7927 148.8717,-195.7476 135.3609,-186.0198"/>
<polygon fill="#000000" stroke="#000000" points="137.3866,-183.1655 127.2261,-180.1628 133.2964,-188.8463 137.3866,-183.1655"/>
</g>
<!-- [root] azurerm_subnet.subnet&#45;&gt;[root] var.rg_prefix -->
<g id="edge_15" class="edge">
<title>[root] azurerm_subnet.subnet&#45;&gt;[root] var.rg_prefix</title>
<path fill="none" stroke="#000000" d="M224.4585,-215.8314C235.4205,-206.9632 248.7699,-196.1637 260.6265,-186.5718"/>
<polygon fill="#000000" stroke="#000000" points="262.9755,-189.1734 268.5487,-180.1628 258.5729,-183.7313 262.9755,-189.1734"/>
</g>
<!-- [root] var.subnet_prefix -->
<g id="node_16" class="node">
<title>[root] var.subnet_prefix</title>
<polygon fill="none" stroke="#000000" points="178,-162 178,-177 246,-177 246,-162 178,-162"/>
<text text-anchor="start" x="204.7988" y="-167.6" font-family="courier new" font-size="8.00" fill="#000000">var</text>
<polygon fill="none" stroke="#000000" points="178,-147 178,-162 246,-162 246,-147 178,-147"/>
<text text-anchor="start" x="180.7949" y="-152.6" font-family="courier new" font-size="8.00" fill="#000000">subnet_prefix</text>
</g>
<!-- [root] azurerm_subnet.subnet&#45;&gt;[root] var.subnet_prefix -->
<g id="edge_16" class="edge">
<title>[root] azurerm_subnet.subnet&#45;&gt;[root] var.subnet_prefix</title>
<path fill="none" stroke="#000000" d="M204.5234,-215.8314C205.5929,-208.131 206.8647,-198.9743 208.0532,-190.4166"/>
<polygon fill="#000000" stroke="#000000" points="211.5336,-190.7997 209.4426,-180.4133 204.6001,-189.8367 211.5336,-190.7997"/>
</g>
<!-- [root] azurerm_virtual_machine.vm -->
<g id="node_6" class="node">
<title>[root] azurerm_virtual_machine.vm</title>
<polygon fill="none" stroke="#000000" points="473,-378 473,-393 589,-393 589,-378 473,-378"/>
<text text-anchor="start" x="475.791" y="-383.6" font-family="courier new" font-size="8.00" fill="#000000">azurerm_virtual_machine</text>
<polygon fill="none" stroke="#000000" points="473,-363 473,-378 589,-378 589,-363 473,-363"/>
<text text-anchor="start" x="526.1992" y="-368.6" font-family="courier new" font-size="8.00" fill="#000000">vm</text>
</g>
<!-- [root] azurerm_virtual_machine.vm&#45;&gt;[root] azurerm_managed_disk.datadisk -->
<g id="edge_17" class="edge">
<title>[root] azurerm_virtual_machine.vm&#45;&gt;[root] azurerm_managed_disk.datadisk</title>
<path fill="none" stroke="#000000" d="M589.4633,-364.7123C635.3939,-354.1235 700.9181,-338.6879 758,-324 759.2758,-323.6717 760.5649,-323.3376 761.8638,-322.9986"/>
<polygon fill="#000000" stroke="#000000" points="763.1822,-326.2702 771.9526,-320.3262 761.3897,-319.5036 763.1822,-326.2702"/>
</g>
<!-- [root] azurerm_virtual_machine.vm&#45;&gt;[root] azurerm_network_interface.nic -->
<g id="edge_18" class="edge">
<title>[root] azurerm_virtual_machine.vm&#45;&gt;[root] azurerm_network_interface.nic</title>
<path fill="none" stroke="#000000" d="M472.9838,-363.0816C429.7651,-351.9682 370.452,-336.7162 324.0087,-324.7737"/>
<polygon fill="#000000" stroke="#000000" points="324.8606,-321.3789 314.304,-322.2782 323.1173,-328.1584 324.8606,-321.3789"/>
</g>
<!-- [root] azurerm_virtual_machine.vm&#45;&gt;[root] azurerm_storage_account.stor -->
<g id="edge_19" class="edge">
<title>[root] azurerm_virtual_machine.vm&#45;&gt;[root] azurerm_storage_account.stor</title>
<path fill="none" stroke="#000000" d="M589.1284,-369.6582C640.0731,-361.0167 708.5042,-345.7145 725,-324 753.3797,-286.6419 693.5634,-261.7938 640.824,-247.8447"/>
<polygon fill="#000000" stroke="#000000" points="641.6358,-244.4399 631.0816,-245.3664 639.9101,-251.2238 641.6358,-244.4399"/>
</g>
<!-- [root] var.admin_password -->
<g id="node_17" class="node">
<title>[root] var.admin_password</title>
<polygon fill="none" stroke="#000000" points="893,-306 893,-321 966,-321 966,-306 893,-306"/>
<text text-anchor="start" x="922.2988" y="-311.6" font-family="courier new" font-size="8.00" fill="#000000">var</text>
<polygon fill="none" stroke="#000000" points="893,-291 893,-306 966,-306 966,-291 893,-291"/>
<text text-anchor="start" x="895.8945" y="-296.6" font-family="courier new" font-size="8.00" fill="#000000">admin_password</text>
</g>
<!-- [root] azurerm_virtual_machine.vm&#45;&gt;[root] var.admin_password -->
<g id="edge_20" class="edge">
<title>[root] azurerm_virtual_machine.vm&#45;&gt;[root] var.admin_password</title>
<path fill="none" stroke="#000000" d="M589.1195,-373.0497C657.5152,-366.3471 774.3995,-352.1486 882.5643,-323.7797"/>
<polygon fill="#000000" stroke="#000000" points="883.5735,-327.133 892.3325,-321.1722 881.7681,-320.3698 883.5735,-327.133"/>
</g>
<!-- [root] var.admin_username -->
<g id="node_18" class="node">
<title>[root] var.admin_username</title>
<polygon fill="none" stroke="#000000" points="97,-306 97,-321 170,-321 170,-306 97,-306"/>
<text text-anchor="start" x="126.2988" y="-311.6" font-family="courier new" font-size="8.00" fill="#000000">var</text>
<polygon fill="none" stroke="#000000" points="97,-291 97,-306 170,-306 170,-291 97,-291"/>
<text text-anchor="start" x="99.8945" y="-296.6" font-family="courier new" font-size="8.00" fill="#000000">admin_username</text>
</g>
<!-- [root] azurerm_virtual_machine.vm&#45;&gt;[root] var.admin_username -->
<g id="edge_21" class="edge">
<title>[root] azurerm_virtual_machine.vm&#45;&gt;[root] var.admin_username</title>
<path fill="none" stroke="#000000" d="M472.8805,-373.0497C404.4848,-366.3471 287.6005,-352.1486 179.4357,-323.7797"/>
<polygon fill="#000000" stroke="#000000" points="180.2319,-320.3698 169.6675,-321.1722 178.4265,-327.133 180.2319,-320.3698"/>
</g>
<!-- [root] var.image_offer -->
<g id="node_19" class="node">
<title>[root] var.image_offer</title>
<polygon fill="none" stroke="#000000" points="332,-306 332,-321 390,-321 390,-306 332,-306"/>
<text text-anchor="start" x="353.7988" y="-311.6" font-family="courier new" font-size="8.00" fill="#000000">var</text>
<polygon fill="none" stroke="#000000" points="332,-291 332,-306 390,-306 390,-291 332,-291"/>
<text text-anchor="start" x="334.5957" y="-296.6" font-family="courier new" font-size="8.00" fill="#000000">image_offer</text>
</g>
<!-- [root] azurerm_virtual_machine.vm&#45;&gt;[root] var.image_offer -->
<g id="edge_22" class="edge">
<title>[root] azurerm_virtual_machine.vm&#45;&gt;[root] var.image_offer</title>
<path fill="none" stroke="#000000" d="M485.2317,-359.9839C461.904,-350.6398 432.93,-338.7891 399.8302,-324.2761"/>
<polygon fill="#000000" stroke="#000000" points="400.9483,-320.944 390.3862,-320.112 398.1241,-327.349 400.9483,-320.944"/>
</g>
<!-- [root] var.image_publisher -->
<g id="node_20" class="node">
<title>[root] var.image_publisher</title>
<polygon fill="none" stroke="#000000" points="408,-306 408,-321 486,-321 486,-306 408,-306"/>
<text text-anchor="start" x="439.7988" y="-311.6" font-family="courier new" font-size="8.00" fill="#000000">var</text>
<polygon fill="none" stroke="#000000" points="408,-291 408,-306 486,-306 486,-291 408,-291"/>
<text text-anchor="start" x="410.9941" y="-296.6" font-family="courier new" font-size="8.00" fill="#000000">image_publisher</text>
</g>
<!-- [root] azurerm_virtual_machine.vm&#45;&gt;[root] var.image_publisher -->
<g id="edge_23" class="edge">
<title>[root] azurerm_virtual_machine.vm&#45;&gt;[root] var.image_publisher</title>
<path fill="none" stroke="#000000" d="M509.8033,-359.8314C499.5566,-351.0485 487.0997,-340.3712 475.9903,-330.8489"/>
<polygon fill="#000000" stroke="#000000" points="478.0603,-328.0134 468.19,-324.1628 473.5048,-333.3282 478.0603,-328.0134"/>
</g>
<!-- [root] var.image_sku -->
<g id="node_21" class="node">
<title>[root] var.image_sku</title>
<polygon fill="none" stroke="#000000" points="507,-306 507,-321 556,-321 556,-306 507,-306"/>
<text text-anchor="start" x="524.2988" y="-311.6" font-family="courier new" font-size="8.00" fill="#000000">var</text>
<polygon fill="none" stroke="#000000" points="507,-291 507,-306 556,-306 556,-291 507,-291"/>
<text text-anchor="start" x="509.8965" y="-296.6" font-family="courier new" font-size="8.00" fill="#000000">image_sku</text>
</g>
<!-- [root] azurerm_virtual_machine.vm&#45;&gt;[root] var.image_sku -->
<g id="edge_24" class="edge">
<title>[root] azurerm_virtual_machine.vm&#45;&gt;[root] var.image_sku</title>
<path fill="none" stroke="#000000" d="M531,-359.8314C531,-352.131 531,-342.9743 531,-334.4166"/>
<polygon fill="#000000" stroke="#000000" points="534.5001,-334.4132 531,-324.4133 527.5001,-334.4133 534.5001,-334.4132"/>
</g>
<!-- [root] var.image_version -->
<g id="node_22" class="node">
<title>[root] var.image_version</title>
<polygon fill="none" stroke="#000000" points="576,-306 576,-321 644,-321 644,-306 576,-306"/>
<text text-anchor="start" x="602.7988" y="-311.6" font-family="courier new" font-size="8.00" fill="#000000">var</text>
<polygon fill="none" stroke="#000000" points="576,-291 576,-306 644,-306 644,-291 576,-291"/>
<text text-anchor="start" x="578.7949" y="-296.6" font-family="courier new" font-size="8.00" fill="#000000">image_version</text>
</g>
<!-- [root] azurerm_virtual_machine.vm&#45;&gt;[root] var.image_version -->
<g id="edge_25" class="edge">
<title>[root] azurerm_virtual_machine.vm&#45;&gt;[root] var.image_version</title>
<path fill="none" stroke="#000000" d="M550.935,-359.8314C560.4783,-351.1337 572.0599,-340.5783 582.4306,-331.1265"/>
<polygon fill="#000000" stroke="#000000" points="585.038,-333.4857 590.0713,-324.1628 580.3228,-328.3121 585.038,-333.4857"/>
</g>
<!-- [root] var.vm_size -->
<g id="node_23" class="node">
<title>[root] var.vm_size</title>
<polygon fill="none" stroke="#000000" points="670,-306 670,-321 709,-321 709,-306 670,-306"/>
<text text-anchor="start" x="682.2988" y="-311.6" font-family="courier new" font-size="8.00" fill="#000000">var</text>
<polygon fill="none" stroke="#000000" points="670,-291 670,-306 709,-306 709,-291 670,-291"/>
<text text-anchor="start" x="672.6973" y="-296.6" font-family="courier new" font-size="8.00" fill="#000000">vm_size</text>
</g>
<!-- [root] azurerm_virtual_machine.vm&#45;&gt;[root] var.vm_size -->
<g id="edge_26" class="edge">
<title>[root] azurerm_virtual_machine.vm&#45;&gt;[root] var.vm_size</title>
<path fill="none" stroke="#000000" d="M573.0037,-359.9877C594.5075,-350.6346 621.2636,-338.7969 652.5447,-324.1276"/>
<polygon fill="#000000" stroke="#000000" points="654.3857,-327.1293 661.9397,-319.7004 651.4018,-320.7971 654.3857,-327.1293"/>
</g>
<!-- [root] azurerm_virtual_network.vnet&#45;&gt;[root] azurerm_resource_group.rg -->
<g id="edge_27" class="edge">
<title>[root] azurerm_virtual_network.vnet&#45;&gt;[root] azurerm_resource_group.rg</title>
<path fill="none" stroke="#000000" d="M160.042,-146.1102C201.3018,-134.8147 256.7672,-119.6303 299.5937,-107.9059"/>
<polygon fill="#000000" stroke="#000000" points="300.638,-111.2489 309.3589,-105.2326 298.7896,-104.4973 300.638,-111.2489"/>
</g>
<!-- [root] var.address_space -->
<g id="node_24" class="node">
<title>[root] var.address_space</title>
<polygon fill="none" stroke="#000000" points="120,-90 120,-105 188,-105 188,-90 120,-90"/>
<text text-anchor="start" x="146.7988" y="-95.6" font-family="courier new" font-size="8.00" fill="#000000">var</text>
<polygon fill="none" stroke="#000000" points="120,-75 120,-90 188,-90 188,-75 120,-75"/>
<text text-anchor="start" x="122.7949" y="-80.6" font-family="courier new" font-size="8.00" fill="#000000">address_space</text>
</g>
<!-- [root] azurerm_virtual_network.vnet&#45;&gt;[root] var.address_space -->
<g id="edge_28" class="edge">
<title>[root] azurerm_virtual_network.vnet&#45;&gt;[root] var.address_space</title>
<path fill="none" stroke="#000000" d="M115.1218,-143.8314C121.0499,-135.6232 128.1729,-125.7606 134.6933,-116.7323"/>
<polygon fill="#000000" stroke="#000000" points="137.684,-118.5693 140.7015,-108.4133 132.0092,-114.4708 137.684,-118.5693"/>
</g>
<!-- [root] var.virtual_network_name -->
<g id="node_25" class="node">
<title>[root] var.virtual_network_name</title>
<polygon fill="none" stroke="#000000" points="0,-90 0,-105 102,-105 102,-90 0,-90"/>
<text text-anchor="start" x="43.7988" y="-95.6" font-family="courier new" font-size="8.00" fill="#000000">var</text>
<polygon fill="none" stroke="#000000" points="0,-75 0,-90 102,-90 102,-75 0,-75"/>
<text text-anchor="start" x="2.9922" y="-80.6" font-family="courier new" font-size="8.00" fill="#000000">virtual_network_name</text>
</g>
<!-- [root] azurerm_virtual_network.vnet&#45;&gt;[root] var.virtual_network_name -->
<g id="edge_29" class="edge">
<title>[root] azurerm_virtual_network.vnet&#45;&gt;[root] var.virtual_network_name</title>
<path fill="none" stroke="#000000" d="M89.1305,-143.8314C83.3165,-135.6232 76.3304,-125.7606 69.9354,-116.7323"/>
<polygon fill="#000000" stroke="#000000" points="72.679,-114.5505 64.0427,-108.4133 66.9669,-118.5966 72.679,-114.5505"/>
</g>
<!-- [root] meta.count&#45;boundary (count boundary fixup) -->
<g id="node_26" class="node">
<title>[root] meta.count&#45;boundary (count boundary fixup)</title>
<polygon fill="none" stroke="#000000" points="413,-450 413,-465 486,-465 486,-450 413,-450"/>
<text text-anchor="start" x="439.8984" y="-455.6" font-family="courier new" font-size="8.00" fill="#000000">meta</text>
<polygon fill="none" stroke="#000000" points="413,-435 413,-450 486,-450 486,-435 413,-435"/>
<text text-anchor="start" x="415.8945" y="-440.6" font-family="courier new" font-size="8.00" fill="#000000">count&#45;boundary</text>
</g>
<!-- [root] meta.count&#45;boundary (count boundary fixup)&#45;&gt;[root] azurerm_virtual_machine.vm -->
<g id="edge_30" class="edge">
<title>[root] meta.count&#45;boundary (count boundary fixup)&#45;&gt;[root] azurerm_virtual_machine.vm</title>
<path fill="none" stroke="#000000" d="M469.6921,-431.8314C479.6948,-423.0485 491.855,-412.3712 502.6999,-402.8489"/>
<polygon fill="#000000" stroke="#000000" points="505.1094,-405.3909 510.3146,-396.1628 500.4908,-400.1308 505.1094,-405.3909"/>
</g>
<!-- [root] output.hostname -->
<g id="node_27" class="node">
<title>[root] output.hostname</title>
<polygon fill="none" stroke="#000000" points="792,-378 792,-393 836,-393 836,-378 792,-378"/>
<text text-anchor="start" x="799.5977" y="-383.6" font-family="courier new" font-size="8.00" fill="#000000">output</text>
<polygon fill="none" stroke="#000000" points="792,-363 792,-378 836,-378 836,-363 792,-363"/>
<text text-anchor="start" x="794.7969" y="-368.6" font-family="courier new" font-size="8.00" fill="#000000">hostname</text>
</g>
<!-- [root] meta.count&#45;boundary (count boundary fixup)&#45;&gt;[root] output.hostname -->
<g id="edge_31" class="edge">
<title>[root] meta.count&#45;boundary (count boundary fixup)&#45;&gt;[root] output.hostname</title>
<path fill="none" stroke="#000000" d="M485.6817,-434.8797C488.8074,-433.8258 491.9422,-432.8474 495,-432 594.8298,-404.3349 716.3826,-388.5046 776.5475,-381.8153"/>
<polygon fill="#000000" stroke="#000000" points="777.1408,-385.2715 786.7027,-380.7087 776.3824,-378.3126 777.1408,-385.2715"/>
</g>
<!-- [root] output.ssh_command -->
<g id="node_28" class="node">
<title>[root] output.ssh_command</title>
<polygon fill="none" stroke="#000000" points="104,-378 104,-393 162,-393 162,-378 104,-378"/>
<text text-anchor="start" x="118.5977" y="-383.6" font-family="courier new" font-size="8.00" fill="#000000">output</text>
<polygon fill="none" stroke="#000000" points="104,-363 104,-378 162,-378 162,-363 104,-363"/>
<text text-anchor="start" x="106.5957" y="-368.6" font-family="courier new" font-size="8.00" fill="#000000">ssh_command</text>
</g>
<!-- [root] meta.count&#45;boundary (count boundary fixup)&#45;&gt;[root] output.ssh_command -->
<g id="edge_32" class="edge">
<title>[root] meta.count&#45;boundary (count boundary fixup)&#45;&gt;[root] output.ssh_command</title>
<path fill="none" stroke="#000000" d="M412.4421,-441.6703C352.5466,-428.0233 234.0202,-401.0173 172.354,-386.9667"/>
<polygon fill="#000000" stroke="#000000" points="172.7725,-383.4725 162.2448,-384.6634 171.2173,-390.2975 172.7725,-383.4725"/>
</g>
<!-- [root] output.vm_fqdn -->
<g id="node_29" class="node">
<title>[root] output.vm_fqdn</title>
<polygon fill="none" stroke="#000000" points="26,-378 26,-393 65,-393 65,-378 26,-378"/>
<text text-anchor="start" x="31.0977" y="-383.6" font-family="courier new" font-size="8.00" fill="#000000">output</text>
<polygon fill="none" stroke="#000000" points="26,-363 26,-378 65,-378 65,-363 26,-363"/>
<text text-anchor="start" x="28.6973" y="-368.6" font-family="courier new" font-size="8.00" fill="#000000">vm_fqdn</text>
</g>
<!-- [root] meta.count&#45;boundary (count boundary fixup)&#45;&gt;[root] output.vm_fqdn -->
<g id="edge_33" class="edge">
<title>[root] meta.count&#45;boundary (count boundary fixup)&#45;&gt;[root] output.vm_fqdn</title>
<path fill="none" stroke="#000000" d="M412.3523,-446.7773C347.5661,-440.558 208.8916,-424.8952 95,-396 90.6572,-394.8982 86.1629,-393.5667 81.7306,-392.1323"/>
<polygon fill="#000000" stroke="#000000" points="82.8046,-388.8006 72.2101,-388.8769 80.5398,-395.4241 82.8046,-388.8006"/>
</g>
<!-- [root] output.hostname&#45;&gt;[root] var.hostname -->
<g id="edge_34" class="edge">
<title>[root] output.hostname&#45;&gt;[root] var.hostname</title>
<path fill="none" stroke="#000000" d="M841.2838,-372.8133C882.9179,-364.2817 959.1613,-346.0182 975,-324 984.3433,-311.0114 981.9048,-302.4334 975,-288 968.2949,-273.9841 955.98,-262.444 943.72,-253.6813"/>
<polygon fill="#000000" stroke="#000000" points="945.5699,-250.7079 935.3107,-248.0622 941.6808,-256.5282 945.5699,-250.7079"/>
</g>
<!-- [root] output.ssh_command&#45;&gt;[root] azurerm_public_ip.pip -->
<g id="edge_35" class="edge">
<title>[root] output.ssh_command&#45;&gt;[root] azurerm_public_ip.pip</title>
<path fill="none" stroke="#000000" d="M112.1242,-359.8399C92.6667,-340.7147 69.1321,-310.3349 87,-288 130.5768,-233.529 173.0276,-268.4332 246.3731,-251.7709"/>
<polygon fill="#000000" stroke="#000000" points="247.6177,-255.0656 256.442,-249.202 245.8871,-248.2829 247.6177,-255.0656"/>
</g>
<!-- [root] output.ssh_command&#45;&gt;[root] var.admin_username -->
<g id="edge_36" class="edge">
<title>[root] output.ssh_command&#45;&gt;[root] var.admin_username</title>
<path fill="none" stroke="#000000" d="M133,-359.8314C133,-352.131 133,-342.9743 133,-334.4166"/>
<polygon fill="#000000" stroke="#000000" points="136.5001,-334.4132 133,-324.4133 129.5001,-334.4133 136.5001,-334.4132"/>
</g>
<!-- [root] output.vm_fqdn&#45;&gt;[root] azurerm_public_ip.pip -->
<g id="edge_37" class="edge">
<title>[root] output.vm_fqdn&#45;&gt;[root] azurerm_public_ip.pip</title>
<path fill="none" stroke="#000000" d="M46.3123,-359.9113C48.8054,-339.374 56.0352,-306.348 77,-288 132.7335,-239.2233 169.4231,-269.702 246.3574,-251.8167"/>
<polygon fill="#000000" stroke="#000000" points="247.6268,-255.1053 256.4543,-249.2465 245.9,-248.3216 247.6268,-255.1053"/>
</g>
<!-- [root] provider.azurerm (close) -->
<g id="node_30" class="node">
<title>[root] provider.azurerm (close)</title>
<polygon fill="none" stroke="#000000" points="509,-450 509,-465 553,-465 553,-450 509,-450"/>
<text text-anchor="start" x="511.7969" y="-455.6" font-family="courier new" font-size="8.00" fill="#000000">provider</text>
<polygon fill="none" stroke="#000000" points="509,-435 509,-450 553,-450 553,-435 509,-435"/>
<text text-anchor="start" x="514.1973" y="-440.6" font-family="courier new" font-size="8.00" fill="#000000">azurerm</text>
</g>
<!-- [root] provider.azurerm (close)&#45;&gt;[root] azurerm_virtual_machine.vm -->
<g id="edge_38" class="edge">
<title>[root] provider.azurerm (close)&#45;&gt;[root] azurerm_virtual_machine.vm</title>
<path fill="none" stroke="#000000" d="M531,-431.8314C531,-424.131 531,-414.9743 531,-406.4166"/>
<polygon fill="#000000" stroke="#000000" points="534.5001,-406.4132 531,-396.4133 527.5001,-406.4133 534.5001,-406.4132"/>
</g>
<!-- [root] root -->
<g id="node_31" class="node">
<title>[root] root</title>
<polygon fill="none" stroke="#000000" points="524.3089,-540 455.6911,-540 455.6911,-504 524.3089,-504 524.3089,-540"/>
<text text-anchor="middle" x="490" y="-520.1313" font-family="courier new" font-size="8.00" fill="#000000">[root] root</text>
</g>
<!-- [root] root&#45;&gt;[root] meta.count&#45;boundary (count boundary fixup) -->
<g id="edge_39" class="edge">
<title>[root] root&#45;&gt;[root] meta.count&#45;boundary (count boundary fixup)</title>
<path fill="none" stroke="#000000" d="M479.654,-503.8314C475.0763,-495.7925 469.5948,-486.1666 464.5412,-477.2918"/>
<polygon fill="#000000" stroke="#000000" points="467.4752,-475.3712 459.4853,-468.4133 461.3923,-478.8351 467.4752,-475.3712"/>
</g>
<!-- [root] root&#45;&gt;[root] provider.azurerm (close) -->
<g id="edge_40" class="edge">
<title>[root] root&#45;&gt;[root] provider.azurerm (close)</title>
<path fill="none" stroke="#000000" d="M500.346,-503.8314C504.9237,-495.7925 510.4052,-486.1666 515.4588,-477.2918"/>
<polygon fill="#000000" stroke="#000000" points="518.6077,-478.8351 520.5147,-468.4133 512.5248,-475.3712 518.6077,-478.8351"/>
</g>
</g>
</svg>

