<?xml version="1.0" encoding="UTF-8" standalone="no"?>
<!DOCTYPE svg PUBLIC "-//W3C//DTD SVG 1.1//EN"
 "http://www.w3.org/Graphics/SVG/1.1/DTD/svg11.dtd">
<!-- Generated by graphviz version 2.40.1 (20161225.0304)
 -->
<!-- Title: %3 Pages: 1 -->
<svg width="809pt" height="636pt"
 viewBox="0.00 0.00 809.00 636.00" xmlns="http://www.w3.org/2000/svg" xmlns:xlink="http://www.w3.org/1999/xlink">
<g id="graph0" class="graph" transform="scale(1 1) rotate(0) translate(4 632)">
<title>%3</title>
<polygon fill="#ffffff" stroke="transparent" points="-4,4 -4,-632 805,-632 805,4 -4,4"/>
<g id="clust2" class="cluster">
<title>cluster[root] azurerm_resource_group.rg_var_</title>
</g>
<g id="clust3" class="cluster">
<title>cluster[root] azurerm_storage_account.stor_var_</title>
</g>
<g id="clust4" class="cluster">
<title>cluster[root] azurerm_subnet.subnet_var_</title>
</g>
<g id="clust5" class="cluster">
<title>cluster[root] azurerm_virtual_machine.vm_var_</title>
</g>
<g id="clust6" class="cluster">
<title>cluster[root] azurerm_virtual_network.vnet_var_</title>
</g>
<g id="clust7" class="cluster">
<title>cluster[root] meta.count&#45;boundary (count boundary fixup)_output_[root] var.hostname</title>
</g>
<g id="clust8" class="cluster">
<title>cluster[root] meta.count&#45;boundary (count boundary fixup)_output_[root] azurerm_public_ip.pip</title>
</g>
<!-- [root] azurerm_managed_disk.datadisk -->
<g id="node_0" class="node">
<title>[root] azurerm_managed_disk.datadisk</title>
<polygon fill="none" stroke="#000000" points="148,-394 148,-409 250,-409 250,-394 148,-394"/>
<text text-anchor="start" x="150.9922" y="-399.6" font-family="courier new" font-size="8.00" fill="#000000">azurerm_managed_disk</text>
<polygon fill="none" stroke="#000000" points="148,-379 148,-394 250,-394 250,-379 148,-379"/>
<text text-anchor="start" x="179.7969" y="-384.6" font-family="courier new" font-size="8.00" fill="#000000">datadisk</text>
</g>
<!-- [root] azurerm_resource_group.rg -->
<g id="node_3" class="node">
<title>[root] azurerm_resource_group.rg</title>
<polygon fill="none" stroke="#000000" points="382,-178 382,-193 493,-193 493,-178 382,-178"/>
<text text-anchor="start" x="384.6914" y="-183.6" font-family="courier new" font-size="8.00" fill="#000000">azurerm_resource_group</text>
<polygon fill="none" stroke="#000000" points="382,-163 382,-178 493,-178 493,-163 382,-163"/>
<text text-anchor="start" x="432.6992" y="-168.6" font-family="courier new" font-size="8.00" fill="#000000">rg</text>
</g>
<!-- [root] azurerm_managed_disk.datadisk&#45;&gt;[root] azurerm_resource_group.rg -->
<g id="edge_0" class="edge">
<title>[root] azurerm_managed_disk.datadisk&#45;&gt;[root] azurerm_resource_group.rg</title>
<path fill="none" stroke="#000000" d="M194.4829,-375.9959C187.003,-341.4592 176.5054,-265.6446 216,-224 236.1132,-202.792 317.4471,-210.2494 346,-204 354.3966,-202.1622 363.1615,-199.9898 371.7935,-197.6963"/>
<polygon fill="#000000" stroke="#000000" points="372.7262,-201.0699 381.4562,-195.0668 370.888,-194.3155 372.7262,-201.0699"/>
</g>
<!-- [root] var.hostname -->
<g id="node_9" class="node">
<title>[root] var.hostname</title>
<polygon fill="none" stroke="#000000" points="118,-322 118,-337 162,-337 162,-322 118,-322"/>
<text text-anchor="start" x="132.7988" y="-327.6" font-family="courier new" font-size="8.00" fill="#000000">var</text>
<polygon fill="none" stroke="#000000" points="118,-307 118,-322 162,-322 162,-307 118,-307"/>
<text text-anchor="start" x="120.7969" y="-312.6" font-family="courier new" font-size="8.00" fill="#000000">hostname</text>
</g>
<!-- [root] azurerm_managed_disk.datadisk&#45;&gt;[root] var.hostname -->
<g id="edge_1" class="edge">
<title>[root] azurerm_managed_disk.datadisk&#45;&gt;[root] var.hostname</title>
<path fill="none" stroke="#000000" d="M184.1118,-375.8314C177.247,-367.454 168.9699,-357.3531 161.4489,-348.1749"/>
<polygon fill="#000000" stroke="#000000" points="164.1341,-345.9297 155.0886,-340.4133 158.7197,-350.3665 164.1341,-345.9297"/>
</g>
<!-- [root] azurerm_network_interface.nic -->
<g id="node_1" class="node">
<title>[root] azurerm_network_interface.nic</title>
<polygon fill="none" stroke="#000000" points="268,-394 268,-409 394,-409 394,-394 268,-394"/>
<text text-anchor="start" x="270.9902" y="-399.6" font-family="courier new" font-size="8.00" fill="#000000">azurerm_network_interface</text>
<polygon fill="none" stroke="#000000" points="268,-379 268,-394 394,-394 394,-379 268,-379"/>
<text text-anchor="start" x="323.7988" y="-384.6" font-family="courier new" font-size="8.00" fill="#000000">nic</text>
</g>
<!-- [root] azurerm_public_ip.pip -->
<g id="node_2" class="node">
<title>[root] azurerm_public_ip.pip</title>
<polygon fill="none" stroke="#000000" points="479,-322 479,-337 566,-337 566,-322 479,-322"/>
<text text-anchor="start" x="481.6934" y="-327.6" font-family="courier new" font-size="8.00" fill="#000000">azurerm_public_ip</text>
<polygon fill="none" stroke="#000000" points="479,-307 479,-322 566,-322 566,-307 479,-307"/>
<text text-anchor="start" x="515.2988" y="-312.6" font-family="courier new" font-size="8.00" fill="#000000">pip</text>
</g>
<!-- [root] azurerm_network_interface.nic&#45;&gt;[root] azurerm_public_ip.pip -->
<g id="edge_2" class="edge">
<title>[root] azurerm_network_interface.nic&#45;&gt;[root] azurerm_public_ip.pip</title>
<path fill="none" stroke="#000000" d="M379.1974,-375.8314C406.4818,-365.5461 440.6578,-352.663 468.7347,-342.079"/>
<polygon fill="#000000" stroke="#000000" points="470.2676,-345.2417 478.3902,-338.4393 467.7984,-338.6916 470.2676,-345.2417"/>
</g>
<!-- [root] azurerm_subnet.subnet -->
<g id="node_5" class="node">
<title>[root] azurerm_subnet.subnet</title>
<polygon fill="none" stroke="#000000" points="326,-322 326,-337 399,-337 399,-322 326,-322"/>
<text text-anchor="start" x="328.8945" y="-327.6" font-family="courier new" font-size="8.00" fill="#000000">azurerm_subnet</text>
<polygon fill="none" stroke="#000000" points="326,-307 326,-322 399,-322 399,-307 326,-307"/>
<text text-anchor="start" x="348.0977" y="-312.6" font-family="courier new" font-size="8.00" fill="#000000">subnet</text>
</g>
<!-- [root] azurerm_network_interface.nic&#45;&gt;[root] azurerm_subnet.subnet -->
<g id="edge_3" class="edge">
<title>[root] azurerm_network_interface.nic&#45;&gt;[root] azurerm_subnet.subnet</title>
<path fill="none" stroke="#000000" d="M338.8226,-375.8314C342.2109,-367.9617 346.2541,-358.5712 350.0076,-349.8533"/>
<polygon fill="#000000" stroke="#000000" points="353.3321,-350.9822 354.0721,-340.4133 346.9027,-348.214 353.3321,-350.9822"/>
</g>
<!-- [root] azurerm_public_ip.pip&#45;&gt;[root] azurerm_resource_group.rg -->
<g id="edge_4" class="edge">
<title>[root] azurerm_public_ip.pip&#45;&gt;[root] azurerm_resource_group.rg</title>
<path fill="none" stroke="#000000" d="M523.6883,-303.8444C524.7229,-282.929 523.5544,-248.3257 508,-224 502.4813,-215.3692 494.6991,-208.0266 486.2966,-201.9111"/>
<polygon fill="#000000" stroke="#000000" points="488.0081,-198.8454 477.7482,-196.2023 484.1205,-204.6666 488.0081,-198.8454"/>
</g>
<!-- [root] var.dns_name -->
<g id="node_10" class="node">
<title>[root] var.dns_name</title>
<polygon fill="none" stroke="#000000" points="560,-250 560,-265 604,-265 604,-250 560,-250"/>
<text text-anchor="start" x="574.7988" y="-255.6" font-family="courier new" font-size="8.00" fill="#000000">var</text>
<polygon fill="none" stroke="#000000" points="560,-235 560,-250 604,-250 604,-235 560,-235"/>
<text text-anchor="start" x="562.7969" y="-240.6" font-family="courier new" font-size="8.00" fill="#000000">dns_name</text>
</g>
<!-- [root] azurerm_public_ip.pip&#45;&gt;[root] var.dns_name -->
<g id="edge_5" class="edge">
<title>[root] azurerm_public_ip.pip&#45;&gt;[root] var.dns_name</title>
<path fill="none" stroke="#000000" d="M537.1405,-303.8314C544.1217,-295.454 552.5391,-285.3531 560.1876,-276.1749"/>
<polygon fill="#000000" stroke="#000000" points="562.9425,-278.3362 566.6556,-268.4133 557.5649,-273.8548 562.9425,-278.3362"/>
</g>
<!-- [root] var.rg_prefix -->
<g id="node_11" class="node">
<title>[root] var.rg_prefix</title>
<polygon fill="none" stroke="#000000" points="448,-250 448,-265 497,-265 497,-250 448,-250"/>
<text text-anchor="start" x="465.2988" y="-255.6" font-family="courier new" font-size="8.00" fill="#000000">var</text>
<polygon fill="none" stroke="#000000" points="448,-235 448,-250 497,-250 497,-235 448,-235"/>
<text text-anchor="start" x="450.8965" y="-240.6" font-family="courier new" font-size="8.00" fill="#000000">rg_prefix</text>
</g>
<!-- [root] azurerm_public_ip.pip&#45;&gt;[root] var.rg_prefix -->
<g id="edge_6" class="edge">
<title>[root] azurerm_public_ip.pip&#45;&gt;[root] var.rg_prefix</title>
<path fill="none" stroke="#000000" d="M509.3829,-303.8314C503.6828,-295.6232 496.8337,-285.7606 490.5641,-276.7323"/>
<polygon fill="#000000" stroke="#000000" points="493.3658,-274.6306 484.787,-268.4133 487.6162,-278.6234 493.3658,-274.6306"/>
</g>
<!-- [root] provider.azurerm -->
<g id="node_8" class="node">
<title>[root] provider.azurerm</title>
<polygon fill="none" stroke="#000000" points="370,-106 370,-121 414,-121 414,-106 370,-106"/>
<text text-anchor="start" x="372.7969" y="-111.6" font-family="courier new" font-size="8.00" fill="#000000">provider</text>
<polygon fill="none" stroke="#000000" points="370,-91 370,-106 414,-106 414,-91 370,-91"/>
<text text-anchor="start" x="375.1973" y="-96.6" font-family="courier new" font-size="8.00" fill="#000000">azurerm</text>
</g>
<!-- [root] azurerm_resource_group.rg&#45;&gt;[root] provider.azurerm -->
<g id="edge_7" class="edge">
<title>[root] azurerm_resource_group.rg&#45;&gt;[root] provider.azurerm</title>
<path fill="none" stroke="#000000" d="M425.6446,-159.8314C420.5674,-151.7079 414.4773,-141.9637 408.8824,-133.0118"/>
<polygon fill="#000000" stroke="#000000" points="411.7763,-131.0383 403.5083,-124.4133 405.8403,-134.7483 411.7763,-131.0383"/>
</g>
<!-- [root] var.location -->
<g id="node_12" class="node">
<title>[root] var.location</title>
<polygon fill="none" stroke="#000000" points="446,-106 446,-121 490,-121 490,-106 446,-106"/>
<text text-anchor="start" x="460.7988" y="-111.6" font-family="courier new" font-size="8.00" fill="#000000">var</text>
<polygon fill="none" stroke="#000000" points="446,-91 446,-106 490,-106 490,-91 446,-91"/>
<text text-anchor="start" x="448.7969" y="-96.6" font-family="courier new" font-size="8.00" fill="#000000">location</text>
</g>
<!-- [root] azurerm_resource_group.rg&#45;&gt;[root] var.location -->
<g id="edge_8" class="edge">
<title>[root] azurerm_resource_group.rg&#45;&gt;[root] var.location</title>
<path fill="none" stroke="#000000" d="M444.8226,-159.8314C448.2109,-151.9617 452.2541,-142.5712 456.0076,-133.8533"/>
<polygon fill="#000000" stroke="#000000" points="459.3321,-134.9822 460.0721,-124.4133 452.9027,-132.214 459.3321,-134.9822"/>
</g>
<!-- [root] azurerm_storage_account.stor -->
<g id="node_4" class="node">
<title>[root] azurerm_storage_account.stor</title>
<polygon fill="none" stroke="#000000" points="584,-322 584,-337 700,-337 700,-322 584,-322"/>
<text text-anchor="start" x="586.791" y="-327.6" font-family="courier new" font-size="8.00" fill="#000000">azurerm_storage_account</text>
<polygon fill="none" stroke="#000000" points="584,-307 584,-322 700,-322 700,-307 584,-307"/>
<text text-anchor="start" x="632.3984" y="-312.6" font-family="courier new" font-size="8.00" fill="#000000">stor</text>
</g>
<!-- [root] azurerm_storage_account.stor&#45;&gt;[root] azurerm_resource_group.rg -->
<g id="edge_10" class="edge">
<title>[root] azurerm_storage_account.stor&#45;&gt;[root] azurerm_resource_group.rg</title>
<path fill="none" stroke="#000000" d="M642.7939,-303.798C642.7121,-281.852 639.0879,-245.2723 618,-224 601.7657,-207.6238 547.6922,-195.2444 502.8409,-187.4761"/>
<polygon fill="#000000" stroke="#000000" points="503.2855,-184.0018 492.8432,-185.793 502.1233,-190.9047 503.2855,-184.0018"/>
</g>
<!-- [root] azurerm_storage_account.stor&#45;&gt;[root] var.dns_name -->
<g id="edge_11" class="edge">
<title>[root] azurerm_storage_account.stor&#45;&gt;[root] var.dns_name</title>
<path fill="none" stroke="#000000" d="M626.8595,-303.8314C619.8783,-295.454 611.4609,-285.3531 603.8124,-276.1749"/>
<polygon fill="#000000" stroke="#000000" points="606.4351,-273.8548 597.3444,-268.4133 601.0575,-278.3362 606.4351,-273.8548"/>
</g>
<!-- [root] var.storage_account_tier -->
<g id="node_14" class="node">
<title>[root] var.storage_account_tier</title>
<polygon fill="none" stroke="#000000" points="669,-250 669,-265 771,-265 771,-250 669,-250"/>
<text text-anchor="start" x="712.7988" y="-255.6" font-family="courier new" font-size="8.00" fill="#000000">var</text>
<polygon fill="none" stroke="#000000" points="669,-235 669,-250 771,-250 771,-235 669,-235"/>
<text text-anchor="start" x="671.9922" y="-240.6" font-family="courier new" font-size="8.00" fill="#000000">storage_account_tier</text>
</g>
<!-- [root] azurerm_storage_account.stor&#45;&gt;[root] var.storage_account_tier -->
<g id="edge_12" class="edge">
<title>[root] azurerm_storage_account.stor&#45;&gt;[root] var.storage_account_tier</title>
<path fill="none" stroke="#000000" d="M661.6827,-303.8314C671.1051,-295.1337 682.5401,-284.5783 692.7796,-275.1265"/>
<polygon fill="#000000" stroke="#000000" points="695.3495,-277.5175 700.3236,-268.1628 690.6016,-272.3738 695.3495,-277.5175"/>
</g>
<!-- [root] azurerm_virtual_network.vnet -->
<g id="node_7" class="node">
<title>[root] azurerm_virtual_network.vnet</title>
<polygon fill="none" stroke="#000000" points="225,-250 225,-265 341,-265 341,-250 225,-250"/>
<text text-anchor="start" x="227.791" y="-255.6" font-family="courier new" font-size="8.00" fill="#000000">azurerm_virtual_network</text>
<polygon fill="none" stroke="#000000" points="225,-235 225,-250 341,-250 341,-235 225,-235"/>
<text text-anchor="start" x="273.3984" y="-240.6" font-family="courier new" font-size="8.00" fill="#000000">vnet</text>
</g>
<!-- [root] azurerm_subnet.subnet&#45;&gt;[root] azurerm_virtual_network.vnet -->
<g id="edge_14" class="edge">
<title>[root] azurerm_subnet.subnet&#45;&gt;[root] azurerm_virtual_network.vnet</title>
<path fill="none" stroke="#000000" d="M342.065,-303.8314C332.5217,-295.1337 320.9401,-284.5783 310.5694,-275.1265"/>
<polygon fill="#000000" stroke="#000000" points="312.6772,-272.3121 302.9287,-268.1628 307.962,-277.4857 312.6772,-272.3121"/>
</g>
<!-- [root] azurerm_subnet.subnet&#45;&gt;[root] var.rg_prefix -->
<g id="edge_15" class="edge">
<title>[root] azurerm_subnet.subnet&#45;&gt;[root] var.rg_prefix</title>
<path fill="none" stroke="#000000" d="M394.4222,-303.878C408.3955,-295.751 424.7627,-285.8011 439,-276 439.9012,-275.3796 440.81,-274.7427 441.7226,-274.0933"/>
<polygon fill="#000000" stroke="#000000" points="443.9715,-276.7832 449.9275,-268.021 439.8072,-271.1565 443.9715,-276.7832"/>
</g>
<!-- [root] var.subnet_prefix -->
<g id="node_16" class="node">
<title>[root] var.subnet_prefix</title>
<polygon fill="none" stroke="#000000" points="359,-250 359,-265 427,-265 427,-250 359,-250"/>
<text text-anchor="start" x="385.7988" y="-255.6" font-family="courier new" font-size="8.00" fill="#000000">var</text>
<polygon fill="none" stroke="#000000" points="359,-235 359,-250 427,-250 427,-235 359,-235"/>
<text text-anchor="start" x="361.7949" y="-240.6" font-family="courier new" font-size="8.00" fill="#000000">subnet_prefix</text>
</g>
<!-- [root] azurerm_subnet.subnet&#45;&gt;[root] var.subnet_prefix -->
<g id="edge_16" class="edge">
<title>[root] azurerm_subnet.subnet&#45;&gt;[root] var.subnet_prefix</title>
<path fill="none" stroke="#000000" d="M369.8226,-303.8314C373.2109,-295.9617 377.2541,-286.5712 381.0076,-277.8533"/>
<polygon fill="#000000" stroke="#000000" points="384.3321,-278.9822 385.0721,-268.4133 377.9027,-276.214 384.3321,-278.9822"/>
</g>
<!-- [root] azurerm_virtual_machine.vm -->
<g id="node_6" class="node">
<title>[root] azurerm_virtual_machine.vm</title>
<polygon fill="none" stroke="#000000" points="298,-466 298,-481 414,-481 414,-466 298,-466"/>
<text text-anchor="start" x="300.791" y="-471.6" font-family="courier new" font-size="8.00" fill="#000000">azurerm_virtual_machine</text>
<polygon fill="none" stroke="#000000" points="298,-451 298,-466 414,-466 414,-451 298,-451"/>
<text text-anchor="start" x="351.1992" y="-456.6" font-family="courier new" font-size="8.00" fill="#000000">vm</text>
</g>
<!-- [root] azurerm_virtual_machine.vm&#45;&gt;[root] azurerm_managed_disk.datadisk -->
<g id="edge_17" class="edge">
<title>[root] azurerm_virtual_machine.vm&#45;&gt;[root] azurerm_managed_disk.datadisk</title>
<path fill="none" stroke="#000000" d="M316.3823,-447.8314C295.4778,-438.2446 269.6517,-426.4008 247.5512,-416.2655"/>
<polygon fill="#000000" stroke="#000000" points="248.8816,-413.0252 238.3328,-412.038 245.9636,-419.388 248.8816,-413.0252"/>
</g>
<!-- [root] azurerm_virtual_machine.vm&#45;&gt;[root] azurerm_network_interface.nic -->
<g id="edge_18" class="edge">
<title>[root] azurerm_virtual_machine.vm&#45;&gt;[root] azurerm_network_interface.nic</title>
<path fill="none" stroke="#000000" d="M349.6914,-447.8314C346.9883,-440.0463 343.7684,-430.7729 340.769,-422.1347"/>
<polygon fill="#000000" stroke="#000000" points="343.98,-420.7119 337.3935,-412.4133 337.3673,-423.0081 343.98,-420.7119"/>
</g>
<!-- [root] azurerm_virtual_machine.vm&#45;&gt;[root] azurerm_storage_account.stor -->
<g id="edge_19" class="edge">
<title>[root] azurerm_virtual_machine.vm&#45;&gt;[root] azurerm_storage_account.stor</title>
<path fill="none" stroke="#000000" d="M375.0573,-447.9442C383.7248,-439.5814 394.0265,-429.4282 403,-420 421.0157,-401.0713 419.7857,-389.7619 442,-376 442.3714,-375.7699 516.0876,-355.8944 573.9068,-340.3251"/>
<polygon fill="#000000" stroke="#000000" points="575.0185,-343.6505 583.7647,-337.6709 573.1986,-336.8913 575.0185,-343.6505"/>
</g>
<!-- [root] var.admin_username -->
<g id="node_18" class="node">
<title>[root] var.admin_username</title>
<polygon fill="none" stroke="#000000" points="451,-394 451,-409 524,-409 524,-394 451,-394"/>
<text text-anchor="start" x="480.2988" y="-399.6" font-family="courier new" font-size="8.00" fill="#000000">var</text>
<polygon fill="none" stroke="#000000" points="451,-379 451,-394 524,-394 524,-379 451,-379"/>
<text text-anchor="start" x="453.8945" y="-384.6" font-family="courier new" font-size="8.00" fill="#000000">admin_username</text>
</g>
<!-- [root] azurerm_virtual_machine.vm&#45;&gt;[root] var.admin_username -->
<g id="edge_21" class="edge">
<title>[root] azurerm_virtual_machine.vm&#45;&gt;[root] var.admin_username</title>
<path fill="none" stroke="#000000" d="M389.0568,-447.8314C405.9677,-438.5368 426.7385,-427.1208 444.7941,-417.1971"/>
<polygon fill="#000000" stroke="#000000" points="446.876,-420.0468 453.9537,-412.1628 443.5043,-413.9122 446.876,-420.0468"/>
</g>
<!-- [root] var.admin_password -->
<g id="node_17" class="node">
<title>[root] var.admin_password</title>
<polygon fill="none" stroke="#000000" points="19,-394 19,-409 92,-409 92,-394 19,-394"/>
<text text-anchor="start" x="48.2988" y="-399.6" font-family="courier new" font-size="8.00" fill="#000000">var</text>
<polygon fill="none" stroke="#000000" points="19,-379 19,-394 92,-394 92,-379 19,-379"/>
<text text-anchor="start" x="21.8945" y="-384.6" font-family="courier new" font-size="8.00" fill="#000000">admin_password</text>
</g>
<!-- [root] azurerm_virtual_machine.vm&#45;&gt;[root] var.admin_password -->
<g id="edge_20" class="edge">
<title>[root] azurerm_virtual_machine.vm&#45;&gt;[root] var.admin_password</title>
<path fill="none" stroke="#000000" d="M297.8256,-452.9696C278.7755,-448.7594 257.4987,-444.1174 238,-440 194.0796,-430.7257 182.4961,-431.095 139,-420 126.6276,-416.8441 113.3732,-412.9749 101.1337,-409.1955"/>
<polygon fill="#000000" stroke="#000000" points="102.1609,-405.8496 91.5718,-406.1991 100.0676,-412.5293 102.1609,-405.8496"/>
</g>
<!-- [root] azurerm_virtual_network.vnet&#45;&gt;[root] azurerm_resource_group.rg -->
<g id="edge_27" class="edge">
<title>[root] azurerm_virtual_network.vnet&#45;&gt;[root] azurerm_resource_group.rg</title>
<path fill="none" stroke="#000000" d="M321.8607,-231.8314C342.2742,-222.2874 367.4723,-210.5065 389.086,-200.4013"/>
<polygon fill="#000000" stroke="#000000" points="390.8423,-203.4439 398.4187,-196.038 387.8775,-197.1027 390.8423,-203.4439"/>
</g>
<!-- [root] var.address_space -->
<g id="node_24" class="node">
<title>[root] var.address_space</title>
<polygon fill="none" stroke="#000000" points="249,-178 249,-193 317,-193 317,-178 249,-178"/>
<text text-anchor="start" x="275.7988" y="-183.6" font-family="courier new" font-size="8.00" fill="#000000">var</text>
<polygon fill="none" stroke="#000000" points="249,-163 249,-178 317,-178 317,-163 249,-163"/>
<text text-anchor="start" x="251.7949" y="-168.6" font-family="courier new" font-size="8.00" fill="#000000">address_space</text>
</g>
<!-- [root] azurerm_virtual_network.vnet&#45;&gt;[root] var.address_space -->
<g id="edge_28" class="edge">
<title>[root] azurerm_virtual_network.vnet&#45;&gt;[root] var.address_space</title>
<path fill="none" stroke="#000000" d="M283,-231.8314C283,-224.131 283,-214.9743 283,-206.4166"/>
<polygon fill="#000000" stroke="#000000" points="286.5001,-206.4132 283,-196.4133 279.5001,-206.4133 286.5001,-206.4132"/>
</g>
<!-- [root] meta.count&#45;boundary (count boundary fixup) -->
<g id="node_26" class="node">
<title>[root] meta.count&#45;boundary (count boundary fixup)</title>
<polygon fill="none" stroke="#000000" points="402,-538 402,-553 475,-553 475,-538 402,-538"/>
<text text-anchor="start" x="428.8984" y="-543.6" font-family="courier new" font-size="8.00" fill="#000000">meta</text>
<polygon fill="none" stroke="#000000" points="402,-523 402,-538 475,-538 475,-523 402,-523"/>
<text text-anchor="start" x="404.8945" y="-528.6" font-family="courier new" font-size="8.00" fill="#000000">count&#45;boundary</text>
</g>
<!-- [root] meta.count&#45;boundary (count boundary fixup)&#45;&gt;[root] azurerm_virtual_machine.vm -->
<g id="edge_30" class="edge">
<title>[root] meta.count&#45;boundary (count boundary fixup)&#45;&gt;[root] azurerm_virtual_machine.vm</title>
<path fill="none" stroke="#000000" d="M417.3079,-519.8314C407.3052,-511.0485 395.145,-500.3712 384.3001,-490.8489"/>
<polygon fill="#000000" stroke="#000000" points="386.5092,-488.1308 376.6854,-484.1628 381.8906,-493.3909 386.5092,-488.1308"/>
</g>
<!-- [root] output.ssh_command -->
<g id="node_28" class="node">
<title>[root] output.ssh_command</title>
<polygon fill="none" stroke="#000000" points="458,-466 458,-481 516,-481 516,-466 458,-466"/>
<text text-anchor="start" x="472.5977" y="-471.6" font-family="courier new" font-size="8.00" fill="#000000">output</text>
<polygon fill="none" stroke="#000000" points="458,-451 458,-466 516,-466 516,-451 458,-451"/>
<text text-anchor="start" x="460.5957" y="-456.6" font-family="courier new" font-size="8.00" fill="#000000">ssh_command</text>
</g>
<!-- [root] meta.count&#45;boundary (count boundary fixup)&#45;&gt;[root] output.ssh_command -->
<g id="edge_32" class="edge">
<title>[root] meta.count&#45;boundary (count boundary fixup)&#45;&gt;[root] output.ssh_command</title>
<path fill="none" stroke="#000000" d="M450.3648,-519.8314C455.9509,-511.6232 462.663,-501.7606 468.8072,-492.7323"/>
<polygon fill="#000000" stroke="#000000" points="471.736,-494.6496 474.4687,-484.4133 465.949,-490.7112 471.736,-494.6496"/>
</g>
<!-- [root] output.hostname -->
<g id="node_27" class="node">
<title>[root] output.hostname</title>
<polygon fill="none" stroke="#000000" points="177,-466 177,-481 221,-481 221,-466 177,-466"/>
<text text-anchor="start" x="184.5977" y="-471.6" font-family="courier new" font-size="8.00" fill="#000000">output</text>
<polygon fill="none" stroke="#000000" points="177,-451 177,-466 221,-466 221,-451 177,-451"/>
<text text-anchor="start" x="179.7969" y="-456.6" font-family="courier new" font-size="8.00" fill="#000000">hostname</text>
</g>
<!-- [root] meta.count&#45;boundary (count boundary fixup)&#45;&gt;[root] output.hostname -->
<g id="edge_31" class="edge">
<title>[root] meta.count&#45;boundary (count boundary fixup)&#45;&gt;[root] output.hostname</title>
<path fill="none" stroke="#000000" d="M401.471,-523.2968C398.2833,-522.1383 395.0942,-521.0227 392,-520 346.9573,-505.1129 334.678,-504.8057 289,-492 271.4924,-487.0918 252.112,-481.5119 235.8335,-476.7831"/>
<polygon fill="#000000" stroke="#000000" points="236.7229,-473.3968 226.1432,-473.9624 234.7664,-480.1179 236.7229,-473.3968"/>
</g>
<!-- [root] output.vm_fqdn -->
<g id="node_29" class="node">
<title>[root] output.vm_fqdn</title>
<polygon fill="none" stroke="#000000" points="556,-466 556,-481 595,-481 595,-466 556,-466"/>
<text text-anchor="start" x="561.0977" y="-471.6" font-family="courier new" font-size="8.00" fill="#000000">output</text>
<polygon fill="none" stroke="#000000" points="556,-451 556,-466 595,-466 595,-451 556,-451"/>
<text text-anchor="start" x="558.6973" y="-456.6" font-family="courier new" font-size="8.00" fill="#000000">vm_fqdn</text>
</g>
<!-- [root] meta.count&#45;boundary (count boundary fixup)&#45;&gt;[root] output.vm_fqdn -->
<g id="edge_33" class="edge">
<title>[root] meta.count&#45;boundary (count boundary fixup)&#45;&gt;[root] output.vm_fqdn</title>
<path fill="none" stroke="#000000" d="M472.5709,-519.8314C492.7805,-509.2103 518.2614,-495.8188 538.7527,-485.0497"/>
<polygon fill="#000000" stroke="#000000" points="540.5559,-488.056 547.7797,-480.3056 537.2994,-481.8596 540.5559,-488.056"/>
</g>
<!-- [root] output.ssh_command&#45;&gt;[root] azurerm_public_ip.pip -->
<g id="edge_35" class="edge">
<title>[root] output.ssh_command&#45;&gt;[root] azurerm_public_ip.pip</title>
<path fill="none" stroke="#000000" d="M512.1254,-447.643C520.3934,-440.1075 528.5915,-430.643 533,-420 542.2616,-397.6405 537.941,-370.0931 532.214,-349.9048"/>
<polygon fill="#000000" stroke="#000000" points="535.4709,-348.5917 529.1554,-340.0849 528.7876,-350.6734 535.4709,-348.5917"/>
</g>
<!-- [root] output.ssh_command&#45;&gt;[root] var.admin_username -->
<g id="edge_36" class="edge">
<title>[root] output.ssh_command&#45;&gt;[root] var.admin_username</title>
<path fill="none" stroke="#000000" d="M487,-447.8314C487,-440.131 487,-430.9743 487,-422.4166"/>
<polygon fill="#000000" stroke="#000000" points="490.5001,-422.4132 487,-412.4133 483.5001,-422.4133 490.5001,-422.4132"/>
</g>
<!-- [root] provider.azurerm (close) -->
<g id="node_30" class="node">
<title>[root] provider.azurerm (close)</title>
<polygon fill="none" stroke="#000000" points="334,-538 334,-553 378,-553 378,-538 334,-538"/>
<text text-anchor="start" x="336.7969" y="-543.6" font-family="courier new" font-size="8.00" fill="#000000">provider</text>
<polygon fill="none" stroke="#000000" points="334,-523 334,-538 378,-538 378,-523 334,-523"/>
<text text-anchor="start" x="339.1973" y="-528.6" font-family="courier new" font-size="8.00" fill="#000000">azurerm</text>
</g>
<!-- [root] provider.azurerm (close)&#45;&gt;[root] azurerm_virtual_machine.vm -->
<g id="edge_38" class="edge">
<title>[root] provider.azurerm (close)&#45;&gt;[root] azurerm_virtual_machine.vm</title>
<path fill="none" stroke="#000000" d="M356,-519.8314C356,-512.131 356,-502.9743 356,-494.4166"/>
<polygon fill="#000000" stroke="#000000" points="359.5001,-494.4132 356,-484.4133 352.5001,-494.4133 359.5001,-494.4132"/>
</g>
<!-- [root] root -->
<g id="node_31" class="node">
<title>[root] root</title>
<polygon fill="none" stroke="#000000" points="431.3089,-628 362.6911,-628 362.6911,-592 431.3089,-592 431.3089,-628"/>
<text text-anchor="middle" x="397" y="-608.1313" font-family="courier new" font-size="8.00" fill="#000000">[root] root</text>
</g>
<!-- [root] root&#45;&gt;[root] meta.count&#45;boundary (count boundary fixup) -->
<g id="edge_39" class="edge">
<title>[root] root&#45;&gt;[root] meta.count&#45;boundary (count boundary fixup)</title>
<path fill="none" stroke="#000000" d="M407.346,-591.8314C411.9237,-583.7925 417.4052,-574.1666 422.4588,-565.2918"/>
<polygon fill="#000000" stroke="#000000" points="425.6077,-566.8351 427.5147,-556.4133 419.5248,-563.3712 425.6077,-566.8351"/>
</g>
<!-- [root] root&#45;&gt;[root] provider.azurerm (close) -->
<g id="edge_40" class="edge">
<title>[root] root&#45;&gt;[root] provider.azurerm (close)</title>
<path fill="none" stroke="#000000" d="M386.654,-591.8314C382.0763,-583.7925 376.5948,-574.1666 371.5412,-565.2918"/>
<polygon fill="#000000" stroke="#000000" points="374.4752,-563.3712 366.4853,-556.4133 368.3923,-566.8351 374.4752,-563.3712"/>
</g>
<!-- [root] var.resource_group -->
<g id="node_13" class="node">
<title>[root] var.resource_group</title>
<polygon fill="none" stroke="#000000" points="436,-34 436,-49 509,-49 509,-34 436,-34"/>
<text text-anchor="start" x="465.2988" y="-39.6" font-family="courier new" font-size="8.00" fill="#000000">var</text>
<polygon fill="none" stroke="#000000" points="436,-19 436,-34 509,-34 509,-19 436,-19"/>
<text text-anchor="start" x="438.8945" y="-24.6" font-family="courier new" font-size="8.00" fill="#000000">resource_group</text>
</g>
<!-- [root] var.location&#45;&gt;[root] var.resource_group -->
<g id="edge_42" class="edge">
<title>[root] var.location&#45;&gt;[root] var.resource_group</title>
<path fill="none" stroke="#000000" stroke-dasharray="5,2" d="M469.0094,-87.8314C469.6111,-77 470.3729,-63.2876 470.977,-52.4133"/>
</g>
<!-- [root] var.storage_replication_type -->
<g id="node_15" class="node">
<title>[root] var.storage_replication_type</title>
<polygon fill="none" stroke="#000000" points="664,-178 664,-193 785,-193 785,-178 664,-178"/>
<text text-anchor="start" x="717.2988" y="-183.6" font-family="courier new" font-size="8.00" fill="#000000">var</text>
<polygon fill="none" stroke="#000000" points="664,-163 664,-178 785,-178 785,-163 664,-163"/>
<text text-anchor="start" x="666.8906" y="-168.6" font-family="courier new" font-size="8.00" fill="#000000">storage_replication_type</text>
</g>
<!-- [root] var.storage_account_tier&#45;&gt;[root] var.storage_replication_type -->
<g id="edge_44" class="edge">
<title>[root] var.storage_account_tier&#45;&gt;[root] var.storage_replication_type</title>
<path fill="none" stroke="#000000" stroke-dasharray="5,2" d="M721.0094,-231.8314C721.6111,-221 722.3729,-207.2876 722.977,-196.4133"/>
</g>
<!-- [root] var.image_offer -->
<g id="node_19" class="node">
<title>[root] var.image_offer</title>
<polygon fill="none" stroke="#000000" points="26,-322 26,-337 84,-337 84,-322 26,-322"/>
<text text-anchor="start" x="47.7988" y="-327.6" font-family="courier new" font-size="8.00" fill="#000000">var</text>
<polygon fill="none" stroke="#000000" points="26,-307 26,-322 84,-322 84,-307 26,-307"/>
<text text-anchor="start" x="28.5957" y="-312.6" font-family="courier new" font-size="8.00" fill="#000000">image_offer</text>
</g>
<!-- [root] var.admin_password&#45;&gt;[root] var.image_offer -->
<g id="edge_70" class="edge">
<title>[root] var.admin_password&#45;&gt;[root] var.image_offer</title>
<path fill="none" stroke="#000000" stroke-dasharray="5,2" d="M55,-375.8314C55,-365 55,-351.2876 55,-340.4133"/>
</g>
<!-- [root] var.image_publisher -->
<g id="node_20" class="node">
<title>[root] var.image_publisher</title>
<polygon fill="none" stroke="#000000" points="16,-250 16,-265 94,-265 94,-250 16,-250"/>
<text text-anchor="start" x="47.7988" y="-255.6" font-family="courier new" font-size="8.00" fill="#000000">var</text>
<polygon fill="none" stroke="#000000" points="16,-235 16,-250 94,-250 94,-235 16,-235"/>
<text text-anchor="start" x="18.9941" y="-240.6" font-family="courier new" font-size="8.00" fill="#000000">image_publisher</text>
</g>
<!-- [root] var.image_offer&#45;&gt;[root] var.image_publisher -->
<g id="edge_71" class="edge">
<title>[root] var.image_offer&#45;&gt;[root] var.image_publisher</title>
<path fill="none" stroke="#000000" stroke-dasharray="5,2" d="M55,-303.8314C55,-293 55,-279.2876 55,-268.4133"/>
</g>
<!-- [root] var.image_sku -->
<g id="node_21" class="node">
<title>[root] var.image_sku</title>
<polygon fill="none" stroke="#000000" points="31,-178 31,-193 80,-193 80,-178 31,-178"/>
<text text-anchor="start" x="48.2988" y="-183.6" font-family="courier new" font-size="8.00" fill="#000000">var</text>
<polygon fill="none" stroke="#000000" points="31,-163 31,-178 80,-178 80,-163 31,-163"/>
<text text-anchor="start" x="33.8965" y="-168.6" font-family="courier new" font-size="8.00" fill="#000000">image_sku</text>
</g>
<!-- [root] var.image_publisher&#45;&gt;[root] var.image_sku -->
<g id="edge_72" class="edge">
<title>[root] var.image_publisher&#45;&gt;[root] var.image_sku</title>
<path fill="none" stroke="#000000" stroke-dasharray="5,2" d="M55,-231.8314C55,-221 55,-207.2876 55,-196.4133"/>
</g>
<!-- [root] var.image_version -->
<g id="node_22" class="node">
<title>[root] var.image_version</title>
<polygon fill="none" stroke="#000000" points="21,-106 21,-121 89,-121 89,-106 21,-106"/>
<text text-anchor="start" x="47.7988" y="-111.6" font-family="courier new" font-size="8.00" fill="#000000">var</text>
<polygon fill="none" stroke="#000000" points="21,-91 21,-106 89,-106 89,-91 21,-91"/>
<text text-anchor="start" x="23.7949" y="-96.6" font-family="courier new" font-size="8.00" fill="#000000">image_version</text>
</g>
<!-- [root] var.image_sku&#45;&gt;[root] var.image_version -->
<g id="edge_73" class="edge">
<title>[root] var.image_sku&#45;&gt;[root] var.image_version</title>
<path fill="none" stroke="#000000" stroke-dasharray="5,2" d="M55,-159.8314C55,-149 55,-135.2876 55,-124.4133"/>
</g>
<!-- [root] var.vm_size -->
<g id="node_23" class="node">
<title>[root] var.vm_size</title>
<polygon fill="none" stroke="#000000" points="36,-34 36,-49 75,-49 75,-34 36,-34"/>
<text text-anchor="start" x="48.2988" y="-39.6" font-family="courier new" font-size="8.00" fill="#000000">var</text>
<polygon fill="none" stroke="#000000" points="36,-19 36,-34 75,-34 75,-19 36,-19"/>
<text text-anchor="start" x="38.6973" y="-24.6" font-family="courier new" font-size="8.00" fill="#000000">vm_size</text>
</g>
<!-- [root] var.image_version&#45;&gt;[root] var.vm_size -->
<g id="edge_74" class="edge">
<title>[root] var.image_version&#45;&gt;[root] var.vm_size</title>
<path fill="none" stroke="#000000" stroke-dasharray="5,2" d="M55,-87.8314C55,-77 55,-63.2876 55,-52.4133"/>
</g>
<!-- [root] var.virtual_network_name -->
<g id="node_25" class="node">
<title>[root] var.virtual_network_name</title>
<polygon fill="none" stroke="#000000" points="232,-106 232,-121 334,-121 334,-106 232,-106"/>
<text text-anchor="start" x="275.7988" y="-111.6" font-family="courier new" font-size="8.00" fill="#000000">var</text>
<polygon fill="none" stroke="#000000" points="232,-91 232,-106 334,-106 334,-91 232,-91"/>
<text text-anchor="start" x="234.9922" y="-96.6" font-family="courier new" font-size="8.00" fill="#000000">virtual_network_name</text>
</g>
<!-- [root] var.address_space&#45;&gt;[root] var.virtual_network_name -->
<g id="edge_76" class="edge">
<title>[root] var.address_space&#45;&gt;[root] var.virtual_network_name</title>
<path fill="none" stroke="#000000" stroke-dasharray="5,2" d="M283,-159.8314C283,-149 283,-135.2876 283,-124.4133"/>
</g>
<!-- [root] output.hostname&#45;&gt;[root] var.hostname -->
<g id="edge_34" class="edge">
<title>[root] output.hostname&#45;&gt;[root] var.hostname</title>
<path fill="none" stroke="#000000" d="M171.7792,-452.613C159.362,-444.9319 145.9113,-434.0074 139,-420 128.2935,-398.3007 129.7907,-370.4677 133.2371,-350.012"/>
<polygon fill="#000000" stroke="#000000" points="136.6994,-350.5417 135.1626,-340.0589 129.8268,-349.2121 136.6994,-350.5417"/>
</g>
<!-- [root] output.vm_fqdn&#45;&gt;[root] azurerm_public_ip.pip -->
<g id="edge_37" class="edge">
<title>[root] output.vm_fqdn&#45;&gt;[root] azurerm_public_ip.pip</title>
<path fill="none" stroke="#000000" d="M570.7683,-447.749C566.2582,-429.335 558.4692,-400.2383 549,-376 545.5083,-367.0623 541.0611,-357.6113 536.7883,-349.1572"/>
<polygon fill="#000000" stroke="#000000" points="539.8101,-347.3814 532.0985,-340.1162 533.5963,-350.6046 539.8101,-347.3814"/>
</g>
</g>
</svg>

