<?xml version="1.0" encoding="UTF-8" standalone="no"?>
<!DOCTYPE svg PUBLIC "-//W3C//DTD SVG 1.1//EN"
 "http://www.w3.org/Graphics/SVG/1.1/DTD/svg11.dtd">
<!-- Generated by graphviz version 2.40.1 (20161225.0304)
 -->
<!-- Title: %3 Pages: 1 -->
<svg width="466pt" height="564pt"
 viewBox="0.00 0.00 466.00 564.00" xmlns="http://www.w3.org/2000/svg" xmlns:xlink="http://www.w3.org/1999/xlink">
<g id="graph0" class="graph" transform="scale(1 1) rotate(0) translate(4 560)">
<title>%3</title>
<polygon fill="#ffffff" stroke="transparent" points="-4,4 -4,-560 462,-560 462,4 -4,4"/>
<g id="clust2" class="cluster">
<title>cluster[root] aws_autoscaling_group.web&#45;asg_var_</title>
</g>
<g id="clust3" class="cluster">
<title>cluster[root] aws_elb.web&#45;elb_var_</title>
</g>
<g id="clust4" class="cluster">
<title>cluster[root] aws_launch_configuration.web&#45;lc_var_</title>
</g>
<g id="clust5" class="cluster">
<title>cluster[root] provider.aws_var_</title>
</g>
<g id="clust6" class="cluster">
<title>cluster[root] meta.count&#45;boundary (count boundary fixup)_output_[root] aws_autoscaling_group.web&#45;asg</title>
</g>
<g id="clust7" class="cluster">
<title>cluster[root] meta.count&#45;boundary (count boundary fixup)_output_[root] aws_elb.web&#45;elb</title>
</g>
<g id="clust8" class="cluster">
<title>cluster[root] meta.count&#45;boundary (count boundary fixup)_output_[root] aws_launch_configuration.web&#45;lc</title>
</g>
<g id="clust9" class="cluster">
<title>cluster[root] meta.count&#45;boundary (count boundary fixup)_output_[root] aws_security_group.default</title>
</g>
<!-- [root] aws_autoscaling_group.web&#45;asg -->
<g id="node_0" class="node">
<title>[root] aws_autoscaling_group.web&#45;asg</title>
<polygon fill="none" stroke="#000000" points="109,-322 109,-337 215,-337 215,-322 109,-322"/>
<text text-anchor="start" x="111.5918" y="-327.6" font-family="courier new" font-size="8.00" fill="#000000">aws_autoscaling_group</text>
<polygon fill="none" stroke="#000000" points="109,-307 109,-322 215,-322 215,-307 109,-307"/>
<text text-anchor="start" x="145.1973" y="-312.6" font-family="courier new" font-size="8.00" fill="#000000">web&#45;asg</text>
</g>
<!-- [root] aws_elb.web&#45;elb -->
<g id="node_1" class="node">
<title>[root] aws_elb.web&#45;elb</title>
<polygon fill="none" stroke="#000000" points="128,-250 128,-265 167,-265 167,-250 128,-250"/>
<text text-anchor="start" x="130.6973" y="-255.6" font-family="courier new" font-size="8.00" fill="#000000">aws_elb</text>
<polygon fill="none" stroke="#000000" points="128,-235 128,-250 167,-250 167,-235 128,-235"/>
<text text-anchor="start" x="130.6973" y="-240.6" font-family="courier new" font-size="8.00" fill="#000000">web&#45;elb</text>
</g>
<!-- [root] aws_autoscaling_group.web&#45;asg&#45;&gt;[root] aws_elb.web&#45;elb -->
<g id="edge_0" class="edge">
<title>[root] aws_autoscaling_group.web&#45;asg&#45;&gt;[root] aws_elb.web&#45;elb</title>
<path fill="none" stroke="#000000" d="M158.2149,-303.8314C156.6106,-296.131 154.703,-286.9743 152.9201,-278.4166"/>
<polygon fill="#000000" stroke="#000000" points="156.3021,-277.4892 150.8361,-268.4133 149.4493,-278.9169 156.3021,-277.4892"/>
</g>
<!-- [root] aws_launch_configuration.web&#45;lc -->
<g id="node_2" class="node">
<title>[root] aws_launch_configuration.web&#45;lc</title>
<polygon fill="none" stroke="#000000" points="322,-250 322,-265 443,-265 443,-250 322,-250"/>
<text text-anchor="start" x="324.8906" y="-255.6" font-family="courier new" font-size="8.00" fill="#000000">aws_launch_configuration</text>
<polygon fill="none" stroke="#000000" points="322,-235 322,-250 443,-250 443,-235 322,-235"/>
<text text-anchor="start" x="368.0977" y="-240.6" font-family="courier new" font-size="8.00" fill="#000000">web&#45;lc</text>
</g>
<!-- [root] aws_autoscaling_group.web&#45;asg&#45;&gt;[root] aws_launch_configuration.web&#45;lc -->
<g id="edge_1" class="edge">
<title>[root] aws_autoscaling_group.web&#45;asg&#45;&gt;[root] aws_launch_configuration.web&#45;lc</title>
<path fill="none" stroke="#000000" d="M215.2559,-304.5708C245.9111,-294.5382 284.6631,-281.8557 317.0919,-271.2426"/>
<polygon fill="#000000" stroke="#000000" points="318.5218,-274.4574 326.9371,-268.0206 316.3444,-267.8047 318.5218,-274.4574"/>
</g>
<!-- [root] var.asg_desired -->
<g id="node_5" class="node">
<title>[root] var.asg_desired</title>
<polygon fill="none" stroke="#000000" points="16,-250 16,-265 74,-265 74,-250 16,-250"/>
<text text-anchor="start" x="37.7988" y="-255.6" font-family="courier new" font-size="8.00" fill="#000000">var</text>
<polygon fill="none" stroke="#000000" points="16,-235 16,-250 74,-250 74,-235 16,-235"/>
<text text-anchor="start" x="18.5957" y="-240.6" font-family="courier new" font-size="8.00" fill="#000000">asg_desired</text>
</g>
<!-- [root] aws_autoscaling_group.web&#45;asg&#45;&gt;[root] var.asg_desired -->
<g id="edge_2" class="edge">
<title>[root] aws_autoscaling_group.web&#45;asg&#45;&gt;[root] var.asg_desired</title>
<path fill="none" stroke="#000000" d="M132.476,-303.8314C117.3967,-294.5518 98.8811,-283.1576 82.7733,-273.2451"/>
<polygon fill="#000000" stroke="#000000" points="84.4602,-270.1736 74.1093,-267.9134 80.7915,-276.1352 84.4602,-270.1736"/>
</g>
<!-- [root] provider.aws -->
<g id="node_4" class="node">
<title>[root] provider.aws</title>
<polygon fill="none" stroke="#000000" points="233,-106 233,-121 277,-121 277,-106 233,-106"/>
<text text-anchor="start" x="235.7969" y="-111.6" font-family="courier new" font-size="8.00" fill="#000000">provider</text>
<polygon fill="none" stroke="#000000" points="233,-91 233,-106 277,-106 277,-91 233,-91"/>
<text text-anchor="start" x="247.7988" y="-96.6" font-family="courier new" font-size="8.00" fill="#000000">aws</text>
</g>
<!-- [root] aws_elb.web&#45;elb&#45;&gt;[root] provider.aws -->
<g id="edge_5" class="edge">
<title>[root] aws_elb.web&#45;elb&#45;&gt;[root] provider.aws</title>
<path fill="none" stroke="#000000" d="M172.6426,-231.8732C182.582,-224.043 193.573,-214.3146 202,-204 219.6431,-182.405 234.2232,-154.0525 243.5948,-133.4023"/>
<polygon fill="#000000" stroke="#000000" points="246.8082,-134.7897 247.647,-124.2281 240.405,-131.9614 246.8082,-134.7897"/>
</g>
<!-- [root] var.availability_zones -->
<g id="node_8" class="node">
<title>[root] var.availability_zones</title>
<polygon fill="none" stroke="#000000" points="98,-178 98,-193 190,-193 190,-178 98,-178"/>
<text text-anchor="start" x="136.7988" y="-183.6" font-family="courier new" font-size="8.00" fill="#000000">var</text>
<polygon fill="none" stroke="#000000" points="98,-163 98,-178 190,-178 190,-163 98,-163"/>
<text text-anchor="start" x="100.793" y="-168.6" font-family="courier new" font-size="8.00" fill="#000000">availability_zones</text>
</g>
<!-- [root] aws_elb.web&#45;elb&#45;&gt;[root] var.availability_zones -->
<g id="edge_6" class="edge">
<title>[root] aws_elb.web&#45;elb&#45;&gt;[root] var.availability_zones</title>
<path fill="none" stroke="#000000" d="M146.243,-231.8314C145.9221,-224.131 145.5406,-214.9743 145.184,-206.4166"/>
<polygon fill="#000000" stroke="#000000" points="148.6806,-206.2589 144.7672,-196.4133 141.6867,-206.5503 148.6806,-206.2589"/>
</g>
<!-- [root] aws_security_group.default -->
<g id="node_3" class="node">
<title>[root] aws_security_group.default</title>
<polygon fill="none" stroke="#000000" points="246,-178 246,-193 338,-193 338,-178 246,-178"/>
<text text-anchor="start" x="248.793" y="-183.6" font-family="courier new" font-size="8.00" fill="#000000">aws_security_group</text>
<polygon fill="none" stroke="#000000" points="246,-163 246,-178 338,-178 338,-163 246,-163"/>
<text text-anchor="start" x="275.1973" y="-168.6" font-family="courier new" font-size="8.00" fill="#000000">default</text>
</g>
<!-- [root] aws_launch_configuration.web&#45;lc&#45;&gt;[root] aws_security_group.default -->
<g id="edge_7" class="edge">
<title>[root] aws_launch_configuration.web&#45;lc&#45;&gt;[root] aws_security_group.default</title>
<path fill="none" stroke="#000000" d="M359.2892,-231.8314C348.204,-222.9632 334.7046,-212.1637 322.7148,-202.5718"/>
<polygon fill="#000000" stroke="#000000" points="324.6987,-199.6768 314.7035,-196.1628 320.3258,-205.1429 324.6987,-199.6768"/>
</g>
<!-- [root] var.aws_amis -->
<g id="node_9" class="node">
<title>[root] var.aws_amis</title>
<polygon fill="none" stroke="#000000" points="363,-178 363,-193 407,-193 407,-178 363,-178"/>
<text text-anchor="start" x="377.7988" y="-183.6" font-family="courier new" font-size="8.00" fill="#000000">var</text>
<polygon fill="none" stroke="#000000" points="363,-163 363,-178 407,-178 407,-163 363,-163"/>
<text text-anchor="start" x="365.7969" y="-168.6" font-family="courier new" font-size="8.00" fill="#000000">aws_amis</text>
</g>
<!-- [root] aws_launch_configuration.web&#45;lc&#45;&gt;[root] var.aws_amis -->
<g id="edge_8" class="edge">
<title>[root] aws_launch_configuration.web&#45;lc&#45;&gt;[root] var.aws_amis</title>
<path fill="none" stroke="#000000" d="M382.757,-231.8314C383.0779,-224.131 383.4594,-214.9743 383.816,-206.4166"/>
<polygon fill="#000000" stroke="#000000" points="387.3133,-206.5503 384.2328,-196.4133 380.3194,-206.2589 387.3133,-206.5503"/>
</g>
<!-- [root] aws_security_group.default&#45;&gt;[root] provider.aws -->
<g id="edge_11" class="edge">
<title>[root] aws_security_group.default&#45;&gt;[root] provider.aws</title>
<path fill="none" stroke="#000000" d="M282.6633,-159.8314C278.5757,-151.8771 273.6896,-142.369 269.1691,-133.5723"/>
<polygon fill="#000000" stroke="#000000" points="272.1461,-131.7078 264.4624,-124.4133 265.9201,-134.9074 272.1461,-131.7078"/>
</g>
<!-- [root] var.aws_region -->
<g id="node_18" class="node">
<title>[root] var.aws_region</title>
<polygon fill="none" stroke="#000000" points="228,-34 228,-49 282,-49 282,-34 228,-34"/>
<text text-anchor="start" x="247.7988" y="-39.6" font-family="courier new" font-size="8.00" fill="#000000">var</text>
<polygon fill="none" stroke="#000000" points="228,-19 228,-34 282,-34 282,-19 228,-19"/>
<text text-anchor="start" x="230.9961" y="-24.6" font-family="courier new" font-size="8.00" fill="#000000">aws_region</text>
</g>
<!-- [root] provider.aws&#45;&gt;[root] var.aws_region -->
<g id="edge_21" class="edge">
<title>[root] provider.aws&#45;&gt;[root] var.aws_region</title>
<path fill="none" stroke="#000000" d="M255,-87.8314C255,-80.131 255,-70.9743 255,-62.4166"/>
<polygon fill="#000000" stroke="#000000" points="258.5001,-62.4132 255,-52.4133 251.5001,-62.4133 258.5001,-62.4132"/>
</g>
<!-- [root] meta.count&#45;boundary (count boundary fixup) -->
<g id="node_12" class="node">
<title>[root] meta.count&#45;boundary (count boundary fixup)</title>
<polygon fill="none" stroke="#000000" points="182,-466 182,-481 255,-481 255,-466 182,-466"/>
<text text-anchor="start" x="208.8984" y="-471.6" font-family="courier new" font-size="8.00" fill="#000000">meta</text>
<polygon fill="none" stroke="#000000" points="182,-451 182,-466 255,-466 255,-451 182,-451"/>
<text text-anchor="start" x="184.8945" y="-456.6" font-family="courier new" font-size="8.00" fill="#000000">count&#45;boundary</text>
</g>
<!-- [root] output.asg_name -->
<g id="node_13" class="node">
<title>[root] output.asg_name</title>
<polygon fill="none" stroke="#000000" points="169,-394 169,-409 213,-409 213,-394 169,-394"/>
<text text-anchor="start" x="176.5977" y="-399.6" font-family="courier new" font-size="8.00" fill="#000000">output</text>
<polygon fill="none" stroke="#000000" points="169,-379 169,-394 213,-394 213,-379 169,-379"/>
<text text-anchor="start" x="171.7969" y="-384.6" font-family="courier new" font-size="8.00" fill="#000000">asg_name</text>
</g>
<!-- [root] meta.count&#45;boundary (count boundary fixup)&#45;&gt;[root] output.asg_name -->
<g id="edge_12" class="edge">
<title>[root] meta.count&#45;boundary (count boundary fixup)&#45;&gt;[root] output.asg_name</title>
<path fill="none" stroke="#000000" d="M211.1868,-447.8314C208.2356,-439.9617 204.7142,-430.5712 201.445,-421.8533"/>
<polygon fill="#000000" stroke="#000000" points="204.6934,-420.5476 197.905,-412.4133 198.1391,-423.0055 204.6934,-420.5476"/>
</g>
<!-- [root] output.elb_name -->
<g id="node_14" class="node">
<title>[root] output.elb_name</title>
<polygon fill="none" stroke="#000000" points="59,-394 59,-409 103,-409 103,-394 59,-394"/>
<text text-anchor="start" x="66.5977" y="-399.6" font-family="courier new" font-size="8.00" fill="#000000">output</text>
<polygon fill="none" stroke="#000000" points="59,-379 59,-394 103,-394 103,-379 59,-379"/>
<text text-anchor="start" x="61.7969" y="-384.6" font-family="courier new" font-size="8.00" fill="#000000">elb_name</text>
</g>
<!-- [root] meta.count&#45;boundary (count boundary fixup)&#45;&gt;[root] output.elb_name -->
<g id="edge_13" class="edge">
<title>[root] meta.count&#45;boundary (count boundary fixup)&#45;&gt;[root] output.elb_name</title>
<path fill="none" stroke="#000000" d="M183.4291,-447.8314C163.2195,-437.2103 137.7386,-423.8188 117.2473,-413.0497"/>
<polygon fill="#000000" stroke="#000000" points="118.7006,-409.8596 108.2203,-408.3056 115.4441,-416.056 118.7006,-409.8596"/>
</g>
<!-- [root] output.launch_configuration -->
<g id="node_15" class="node">
<title>[root] output.launch_configuration</title>
<polygon fill="none" stroke="#000000" points="340,-394 340,-409 442,-409 442,-394 340,-394"/>
<text text-anchor="start" x="376.5977" y="-399.6" font-family="courier new" font-size="8.00" fill="#000000">output</text>
<polygon fill="none" stroke="#000000" points="340,-379 340,-394 442,-394 442,-379 340,-379"/>
<text text-anchor="start" x="342.9922" y="-384.6" font-family="courier new" font-size="8.00" fill="#000000">launch_configuration</text>
</g>
<!-- [root] meta.count&#45;boundary (count boundary fixup)&#45;&gt;[root] output.launch_configuration -->
<g id="edge_14" class="edge">
<title>[root] meta.count&#45;boundary (count boundary fixup)&#45;&gt;[root] output.launch_configuration</title>
<path fill="none" stroke="#000000" d="M254.6889,-450.7307C278.9992,-440.6131 311.2722,-427.1815 338.313,-415.9275"/>
<polygon fill="#000000" stroke="#000000" points="339.7503,-419.1204 347.6378,-412.0467 337.0606,-412.6578 339.7503,-419.1204"/>
</g>
<!-- [root] output.security_group -->
<g id="node_16" class="node">
<title>[root] output.security_group</title>
<polygon fill="none" stroke="#000000" points="243,-394 243,-409 316,-409 316,-394 243,-394"/>
<text text-anchor="start" x="265.0977" y="-399.6" font-family="courier new" font-size="8.00" fill="#000000">output</text>
<polygon fill="none" stroke="#000000" points="243,-379 243,-394 316,-394 316,-379 243,-379"/>
<text text-anchor="start" x="245.8945" y="-384.6" font-family="courier new" font-size="8.00" fill="#000000">security_group</text>
</g>
<!-- [root] meta.count&#45;boundary (count boundary fixup)&#45;&gt;[root] output.security_group -->
<g id="edge_15" class="edge">
<title>[root] meta.count&#45;boundary (count boundary fixup)&#45;&gt;[root] output.security_group</title>
<path fill="none" stroke="#000000" d="M233.3929,-447.8314C240.4904,-439.454 249.048,-429.3531 256.824,-420.1749"/>
<polygon fill="#000000" stroke="#000000" points="259.6061,-422.3056 263.3999,-412.4133 254.2652,-417.7807 259.6061,-422.3056"/>
</g>
<!-- [root] provider.aws (close) -->
<g id="node_17" class="node">
<title>[root] provider.aws (close)</title>
<polygon fill="none" stroke="#000000" points="114,-466 114,-481 158,-481 158,-466 114,-466"/>
<text text-anchor="start" x="116.7969" y="-471.6" font-family="courier new" font-size="8.00" fill="#000000">provider</text>
<polygon fill="none" stroke="#000000" points="114,-451 114,-466 158,-466 158,-451 114,-451"/>
<text text-anchor="start" x="128.7988" y="-456.6" font-family="courier new" font-size="8.00" fill="#000000">aws</text>
</g>
<!-- [root] provider.aws (close)&#45;&gt;[root] aws_autoscaling_group.web&#45;asg -->
<g id="edge_20" class="edge">
<title>[root] provider.aws (close)&#45;&gt;[root] aws_autoscaling_group.web&#45;asg</title>
<path fill="none" stroke="#000000" d="M138.6673,-447.888C141.6368,-428.182 146.7175,-395.7743 152,-368 153.088,-362.2795 154.345,-356.1801 155.5926,-350.3557"/>
<polygon fill="#000000" stroke="#000000" points="159.0722,-350.827 157.7898,-340.3101 152.2339,-349.3313 159.0722,-350.827"/>
</g>
<!-- [root] root -->
<g id="node_19" class="node">
<title>[root] root</title>
<polygon fill="none" stroke="#000000" points="211.3089,-556 142.6911,-556 142.6911,-520 211.3089,-520 211.3089,-556"/>
<text text-anchor="middle" x="177" y="-536.1313" font-family="courier new" font-size="8.00" fill="#000000">[root] root</text>
</g>
<!-- [root] root&#45;&gt;[root] meta.count&#45;boundary (count boundary fixup) -->
<g id="edge_22" class="edge">
<title>[root] root&#45;&gt;[root] meta.count&#45;boundary (count boundary fixup)</title>
<path fill="none" stroke="#000000" d="M187.346,-519.8314C191.9237,-511.7925 197.4052,-502.1666 202.4588,-493.2918"/>
<polygon fill="#000000" stroke="#000000" points="205.6077,-494.8351 207.5147,-484.4133 199.5248,-491.3712 205.6077,-494.8351"/>
</g>
<!-- [root] root&#45;&gt;[root] provider.aws (close) -->
<g id="edge_23" class="edge">
<title>[root] root&#45;&gt;[root] provider.aws (close)</title>
<path fill="none" stroke="#000000" d="M166.654,-519.8314C162.0763,-511.7925 156.5948,-502.1666 151.5412,-493.2918"/>
<polygon fill="#000000" stroke="#000000" points="154.4752,-491.3712 146.4853,-484.4133 148.3923,-494.8351 154.4752,-491.3712"/>
</g>
<!-- [root] var.asg_max -->
<g id="node_6" class="node">
<title>[root] var.asg_max</title>
<polygon fill="none" stroke="#000000" points="26,-178 26,-193 65,-193 65,-178 26,-178"/>
<text text-anchor="start" x="38.2988" y="-183.6" font-family="courier new" font-size="8.00" fill="#000000">var</text>
<polygon fill="none" stroke="#000000" points="26,-163 26,-178 65,-178 65,-163 26,-163"/>
<text text-anchor="start" x="28.6973" y="-168.6" font-family="courier new" font-size="8.00" fill="#000000">asg_max</text>
</g>
<!-- [root] var.asg_desired&#45;&gt;[root] var.asg_max -->
<g id="edge_24" class="edge">
<title>[root] var.asg_desired&#45;&gt;[root] var.asg_max</title>
<path fill="none" stroke="#000000" stroke-dasharray="5,2" d="M45,-231.8314C45,-221 45,-207.2876 45,-196.4133"/>
</g>
<!-- [root] var.asg_min -->
<g id="node_7" class="node">
<title>[root] var.asg_min</title>
<polygon fill="none" stroke="#000000" points="26,-106 26,-121 65,-121 65,-106 26,-106"/>
<text text-anchor="start" x="38.2988" y="-111.6" font-family="courier new" font-size="8.00" fill="#000000">var</text>
<polygon fill="none" stroke="#000000" points="26,-91 26,-106 65,-106 65,-91 26,-91"/>
<text text-anchor="start" x="28.6973" y="-96.6" font-family="courier new" font-size="8.00" fill="#000000">asg_min</text>
</g>
<!-- [root] var.asg_max&#45;&gt;[root] var.asg_min -->
<g id="edge_25" class="edge">
<title>[root] var.asg_max&#45;&gt;[root] var.asg_min</title>
<path fill="none" stroke="#000000" stroke-dasharray="5,2" d="M45,-159.8314C45,-149 45,-135.2876 45,-124.4133"/>
</g>
<!-- [root] var.instance_type -->
<g id="node_10" class="node">
<title>[root] var.instance_type</title>
<polygon fill="none" stroke="#000000" points="354,-106 354,-121 422,-121 422,-106 354,-106"/>
<text text-anchor="start" x="380.7988" y="-111.6" font-family="courier new" font-size="8.00" fill="#000000">var</text>
<polygon fill="none" stroke="#000000" points="354,-91 354,-106 422,-106 422,-91 354,-91"/>
<text text-anchor="start" x="356.7949" y="-96.6" font-family="courier new" font-size="8.00" fill="#000000">instance_type</text>
</g>
<!-- [root] var.aws_amis&#45;&gt;[root] var.instance_type -->
<g id="edge_26" class="edge">
<title>[root] var.aws_amis&#45;&gt;[root] var.instance_type</title>
<path fill="none" stroke="#000000" stroke-dasharray="5,2" d="M385.757,-159.8314C386.2083,-149 386.7797,-135.2876 387.2328,-124.4133"/>
</g>
<!-- [root] var.key_name -->
<g id="node_11" class="node">
<title>[root] var.key_name</title>
<polygon fill="none" stroke="#000000" points="366,-34 366,-49 410,-49 410,-34 366,-34"/>
<text text-anchor="start" x="380.7988" y="-39.6" font-family="courier new" font-size="8.00" fill="#000000">var</text>
<polygon fill="none" stroke="#000000" points="366,-19 366,-34 410,-34 410,-19 366,-19"/>
<text text-anchor="start" x="368.7969" y="-24.6" font-family="courier new" font-size="8.00" fill="#000000">key_name</text>
</g>
<!-- [root] var.instance_type&#45;&gt;[root] var.key_name -->
<g id="edge_27" class="edge">
<title>[root] var.instance_type&#45;&gt;[root] var.key_name</title>
<path fill="none" stroke="#000000" stroke-dasharray="5,2" d="M388,-87.8314C388,-77 388,-63.2876 388,-52.4133"/>
</g>
<!-- [root] output.asg_name&#45;&gt;[root] aws_autoscaling_group.web&#45;asg -->
<g id="edge_16" class="edge">
<title>[root] output.asg_name&#45;&gt;[root] aws_autoscaling_group.web&#45;asg</title>
<path fill="none" stroke="#000000" d="M183.6821,-375.8314C180.5124,-367.9617 176.73,-358.5712 173.2187,-349.8533"/>
<polygon fill="#000000" stroke="#000000" points="176.3992,-348.3815 169.4165,-340.4133 169.9061,-350.9968 176.3992,-348.3815"/>
</g>
<!-- [root] output.elb_name&#45;&gt;[root] aws_elb.web&#45;elb -->
<g id="edge_17" class="edge">
<title>[root] output.elb_name&#45;&gt;[root] aws_elb.web&#45;elb</title>
<path fill="none" stroke="#000000" d="M82.1384,-375.8744C83.9208,-357.0464 88.4656,-327.1567 100,-304 105.0911,-293.7789 112.5816,-283.9391 120.0934,-275.5233"/>
<polygon fill="#000000" stroke="#000000" points="122.648,-277.9159 126.9299,-268.2248 117.5392,-273.1305 122.648,-277.9159"/>
</g>
<!-- [root] output.launch_configuration&#45;&gt;[root] aws_launch_configuration.web&#45;lc -->
<g id="edge_18" class="edge">
<title>[root] output.launch_configuration&#45;&gt;[root] aws_launch_configuration.web&#45;lc</title>
<path fill="none" stroke="#000000" d="M389.8601,-375.7623C388.3251,-351.201 385.578,-307.2474 383.7721,-278.3541"/>
<polygon fill="#000000" stroke="#000000" points="387.2477,-277.8518 383.1306,-268.0896 380.2613,-278.2885 387.2477,-277.8518"/>
</g>
<!-- [root] output.security_group&#45;&gt;[root] aws_security_group.default -->
<g id="edge_19" class="edge">
<title>[root] output.security_group&#45;&gt;[root] aws_security_group.default</title>
<path fill="none" stroke="#000000" d="M280.086,-375.9555C282.3467,-338.3938 287.5731,-251.5541 290.2901,-206.4103"/>
<polygon fill="#000000" stroke="#000000" points="293.8008,-206.3373 290.9079,-196.1451 286.8134,-205.9167 293.8008,-206.3373"/>
</g>
</g>
</svg>

