<?xml version="1.0" encoding="UTF-8" standalone="no"?>
<!DOCTYPE svg PUBLIC "-//W3C//DTD SVG 1.1//EN"
 "http://www.w3.org/Graphics/SVG/1.1/DTD/svg11.dtd">
<!-- Generated by graphviz version 2.40.1 (20161225.0304)
 -->
<!-- Title: %3 Pages: 1 -->
<svg width="329pt" height="996pt"
 viewBox="0.00 0.00 329.00 996.00" xmlns="http://www.w3.org/2000/svg" xmlns:xlink="http://www.w3.org/1999/xlink">
<g id="graph0" class="graph" transform="scale(1 1) rotate(0) translate(4 992)">
<title>%3</title>
<polygon fill="#ffffff" stroke="transparent" points="-4,4 -4,-992 325,-992 325,4 -4,4"/>
<g id="clust2" class="cluster">
<title>cluster[root] digitalocean_droplet.mywebserver_var_</title>
</g>
<g id="clust3" class="cluster">
<title>cluster[root] meta.count&#45;boundary (count boundary fixup)_var_</title>
</g>
<g id="clust4" class="cluster">
<title>cluster[root] meta.count&#45;boundary (count boundary fixup)_output_[root] digitalocean_droplet.mywebserver</title>
</g>
<!-- [root] digitalocean_domain.mywebserver -->
<g id="node_0" class="node">
<title>[root] digitalocean_domain.mywebserver</title>
<polygon fill="none" stroke="#000000" points="167,-754 167,-769 264,-769 264,-754 167,-754"/>
<text text-anchor="start" x="169.8926" y="-759.6" font-family="courier new" font-size="8.00" fill="#000000">digitalocean_domain</text>
<polygon fill="none" stroke="#000000" points="167,-739 167,-754 264,-754 264,-739 167,-739"/>
<text text-anchor="start" x="189.0957" y="-744.6" font-family="courier new" font-size="8.00" fill="#000000">mywebserver</text>
</g>
<!-- [root] digitalocean_droplet.mywebserver -->
<g id="node_1" class="node">
<title>[root] digitalocean_droplet.mywebserver</title>
<polygon fill="none" stroke="#000000" points="164,-682 164,-697 266,-697 266,-682 164,-682"/>
<text text-anchor="start" x="166.9922" y="-687.6" font-family="courier new" font-size="8.00" fill="#000000">digitalocean_droplet</text>
<polygon fill="none" stroke="#000000" points="164,-667 164,-682 266,-682 266,-667 164,-667"/>
<text text-anchor="start" x="188.5957" y="-672.6" font-family="courier new" font-size="8.00" fill="#000000">mywebserver</text>
</g>
<!-- [root] digitalocean_domain.mywebserver&#45;&gt;[root] digitalocean_droplet.mywebserver -->
<g id="edge_0" class="edge">
<title>[root] digitalocean_domain.mywebserver&#45;&gt;[root] digitalocean_droplet.mywebserver</title>
<path fill="none" stroke="#000000" d="M215,-735.8314C215,-728.131 215,-718.9743 215,-710.4166"/>
<polygon fill="#000000" stroke="#000000" points="218.5001,-710.4132 215,-700.4133 211.5001,-710.4133 218.5001,-710.4132"/>
</g>
<!-- [root] provider.digitalocean -->
<g id="node_3" class="node">
<title>[root] provider.digitalocean</title>
<polygon fill="none" stroke="#000000" points="145,-610 145,-625 208,-625 208,-610 145,-610"/>
<text text-anchor="start" x="157.2969" y="-615.6" font-family="courier new" font-size="8.00" fill="#000000">provider</text>
<polygon fill="none" stroke="#000000" points="145,-595 145,-610 208,-610 208,-595 145,-595"/>
<text text-anchor="start" x="147.6953" y="-600.6" font-family="courier new" font-size="8.00" fill="#000000">digitalocean</text>
</g>
<!-- [root] digitalocean_droplet.mywebserver&#45;&gt;[root] provider.digitalocean -->
<g id="edge_1" class="edge">
<title>[root] digitalocean_droplet.mywebserver&#45;&gt;[root] provider.digitalocean</title>
<path fill="none" stroke="#000000" d="M205.1587,-663.8314C200.8043,-655.7925 195.5902,-646.1666 190.7831,-637.2918"/>
<polygon fill="#000000" stroke="#000000" points="193.8143,-635.5392 185.9739,-628.4133 187.6592,-638.8732 193.8143,-635.5392"/>
</g>
<!-- [root] var.do_ams3 -->
<g id="node_4" class="node">
<title>[root] var.do_ams3</title>
<polygon fill="none" stroke="#000000" points="234,-610 234,-625 273,-625 273,-610 234,-610"/>
<text text-anchor="start" x="246.2988" y="-615.6" font-family="courier new" font-size="8.00" fill="#000000">var</text>
<polygon fill="none" stroke="#000000" points="234,-595 234,-610 273,-610 273,-595 234,-595"/>
<text text-anchor="start" x="236.6973" y="-600.6" font-family="courier new" font-size="8.00" fill="#000000">do_ams3</text>
</g>
<!-- [root] digitalocean_droplet.mywebserver&#45;&gt;[root] var.do_ams3 -->
<g id="edge_2" class="edge">
<title>[root] digitalocean_droplet.mywebserver&#45;&gt;[root] var.do_ams3</title>
<path fill="none" stroke="#000000" d="M224.589,-663.8314C228.8317,-655.7925 233.9121,-646.1666 238.596,-637.2918"/>
<polygon fill="#000000" stroke="#000000" points="241.7096,-638.8908 243.2819,-628.4133 235.5189,-635.6235 241.7096,-638.8908"/>
</g>
<!-- [root] digitalocean_record.mywebserver -->
<g id="node_2" class="node">
<title>[root] digitalocean_record.mywebserver</title>
<polygon fill="none" stroke="#000000" points="167,-826 167,-841 264,-841 264,-826 167,-826"/>
<text text-anchor="start" x="169.8926" y="-831.6" font-family="courier new" font-size="8.00" fill="#000000">digitalocean_record</text>
<polygon fill="none" stroke="#000000" points="167,-811 167,-826 264,-826 264,-811 167,-811"/>
<text text-anchor="start" x="189.0957" y="-816.6" font-family="courier new" font-size="8.00" fill="#000000">mywebserver</text>
</g>
<!-- [root] digitalocean_record.mywebserver&#45;&gt;[root] digitalocean_domain.mywebserver -->
<g id="edge_4" class="edge">
<title>[root] digitalocean_record.mywebserver&#45;&gt;[root] digitalocean_domain.mywebserver</title>
<path fill="none" stroke="#000000" d="M215,-807.8314C215,-800.131 215,-790.9743 215,-782.4166"/>
<polygon fill="#000000" stroke="#000000" points="218.5001,-782.4132 215,-772.4133 211.5001,-782.4133 218.5001,-782.4132"/>
</g>
<!-- [root] meta.count&#45;boundary (count boundary fixup) -->
<g id="node_6" class="node">
<title>[root] meta.count&#45;boundary (count boundary fixup)</title>
<polygon fill="none" stroke="#000000" points="88,-898 88,-913 161,-913 161,-898 88,-898"/>
<text text-anchor="start" x="114.8984" y="-903.6" font-family="courier new" font-size="8.00" fill="#000000">meta</text>
<polygon fill="none" stroke="#000000" points="88,-883 88,-898 161,-898 161,-883 88,-883"/>
<text text-anchor="start" x="90.8945" y="-888.6" font-family="courier new" font-size="8.00" fill="#000000">count&#45;boundary</text>
</g>
<!-- [root] meta.count&#45;boundary (count boundary fixup)&#45;&gt;[root] digitalocean_record.mywebserver -->
<g id="edge_5" class="edge">
<title>[root] meta.count&#45;boundary (count boundary fixup)&#45;&gt;[root] digitalocean_record.mywebserver</title>
<path fill="none" stroke="#000000" d="M146.9631,-879.8314C158.1715,-870.9632 171.8209,-860.1637 183.9439,-850.5718"/>
<polygon fill="#000000" stroke="#000000" points="186.3737,-853.1125 192.0442,-844.1628 182.0303,-847.6229 186.3737,-853.1125"/>
</g>
<!-- [root] var.centos -->
<g id="node_9" class="node">
<title>[root] var.centos</title>
<polygon fill="none" stroke="#000000" points="26,-826 26,-841 60,-841 60,-826 26,-826"/>
<text text-anchor="start" x="35.7988" y="-831.6" font-family="courier new" font-size="8.00" fill="#000000">var</text>
<polygon fill="none" stroke="#000000" points="26,-811 26,-826 60,-826 60,-811 26,-811"/>
<text text-anchor="start" x="28.5977" y="-816.6" font-family="courier new" font-size="8.00" fill="#000000">centos</text>
</g>
<!-- [root] meta.count&#45;boundary (count boundary fixup)&#45;&gt;[root] var.centos -->
<g id="edge_8" class="edge">
<title>[root] meta.count&#45;boundary (count boundary fixup)&#45;&gt;[root] var.centos</title>
<path fill="none" stroke="#000000" d="M103.5603,-879.8314C93.6795,-871.0485 81.6676,-860.3712 70.955,-850.8489"/>
<polygon fill="#000000" stroke="#000000" points="73.2326,-848.1906 63.4332,-844.1628 68.582,-853.4224 73.2326,-848.1906"/>
</g>
<!-- [root] output.Name -->
<g id="node_7" class="node">
<title>[root] output.Name</title>
<polygon fill="none" stroke="#000000" points="104,-826 104,-841 138,-841 138,-826 104,-826"/>
<text text-anchor="start" x="106.5977" y="-831.6" font-family="courier new" font-size="8.00" fill="#000000">output</text>
<polygon fill="none" stroke="#000000" points="104,-811 104,-826 138,-826 138,-811 104,-811"/>
<text text-anchor="start" x="111.3984" y="-816.6" font-family="courier new" font-size="8.00" fill="#000000">Name</text>
</g>
<!-- [root] meta.count&#45;boundary (count boundary fixup)&#45;&gt;[root] output.Name -->
<g id="edge_6" class="edge">
<title>[root] meta.count&#45;boundary (count boundary fixup)&#45;&gt;[root] output.Name</title>
<path fill="none" stroke="#000000" d="M123.243,-879.8314C122.9221,-872.131 122.5406,-862.9743 122.184,-854.4166"/>
<polygon fill="#000000" stroke="#000000" points="125.6806,-854.2589 121.7672,-844.4133 118.6867,-854.5503 125.6806,-854.2589"/>
</g>
<!-- [root] provider.digitalocean (close) -->
<g id="node_21" class="node">
<title>[root] provider.digitalocean (close)</title>
<polygon fill="none" stroke="#000000" points="182,-898 182,-913 245,-913 245,-898 182,-898"/>
<text text-anchor="start" x="194.2969" y="-903.6" font-family="courier new" font-size="8.00" fill="#000000">provider</text>
<polygon fill="none" stroke="#000000" points="182,-883 182,-898 245,-898 245,-883 182,-883"/>
<text text-anchor="start" x="184.6953" y="-888.6" font-family="courier new" font-size="8.00" fill="#000000">digitalocean</text>
</g>
<!-- [root] provider.digitalocean (close)&#45;&gt;[root] digitalocean_record.mywebserver -->
<g id="edge_22" class="edge">
<title>[root] provider.digitalocean (close)&#45;&gt;[root] digitalocean_record.mywebserver</title>
<path fill="none" stroke="#000000" d="M213.5047,-879.8314C213.7186,-872.131 213.9729,-862.9743 214.2106,-854.4166"/>
<polygon fill="#000000" stroke="#000000" points="217.7094,-854.5066 214.4885,-844.4133 210.7121,-854.3122 217.7094,-854.5066"/>
</g>
<!-- [root] provisioner.remote&#45;exec (close) -->
<g id="node_22" class="node">
<title>[root] provisioner.remote&#45;exec (close)</title>
<polygon fill="none" stroke="#000000" points="263,-898 263,-913 321,-913 321,-898 263,-898"/>
<text text-anchor="start" x="265.5957" y="-903.6" font-family="courier new" font-size="8.00" fill="#000000">provisioner</text>
<polygon fill="none" stroke="#000000" points="263,-883 263,-898 321,-898 321,-883 263,-883"/>
<text text-anchor="start" x="265.5957" y="-888.6" font-family="courier new" font-size="8.00" fill="#000000">remote&#45;exec</text>
</g>
<!-- [root] provisioner.remote&#45;exec (close)&#45;&gt;[root] digitalocean_droplet.mywebserver -->
<g id="edge_23" class="edge">
<title>[root] provisioner.remote&#45;exec (close)&#45;&gt;[root] digitalocean_droplet.mywebserver</title>
<path fill="none" stroke="#000000" d="M294.3138,-879.7706C297.5622,-847.0948 300.338,-777.3606 273,-728 268.473,-719.8262 261.8393,-712.5849 254.6607,-706.4058"/>
<polygon fill="#000000" stroke="#000000" points="256.743,-703.5902 246.7312,-700.1238 252.3962,-709.077 256.743,-703.5902"/>
</g>
<!-- [root] root -->
<g id="node_23" class="node">
<title>[root] root</title>
<polygon fill="none" stroke="#000000" points="247.3089,-988 178.6911,-988 178.6911,-952 247.3089,-952 247.3089,-988"/>
<text text-anchor="middle" x="213" y="-968.1313" font-family="courier new" font-size="8.00" fill="#000000">[root] root</text>
</g>
<!-- [root] root&#45;&gt;[root] meta.count&#45;boundary (count boundary fixup) -->
<g id="edge_24" class="edge">
<title>[root] root&#45;&gt;[root] meta.count&#45;boundary (count boundary fixup)</title>
<path fill="none" stroke="#000000" d="M190.5415,-951.8314C179.5795,-942.9632 166.2301,-932.1637 154.3735,-922.5718"/>
<polygon fill="#000000" stroke="#000000" points="156.4271,-919.7313 146.4513,-916.1628 152.0245,-925.1734 156.4271,-919.7313"/>
</g>
<!-- [root] root&#45;&gt;[root] provider.digitalocean (close) -->
<g id="edge_25" class="edge">
<title>[root] root&#45;&gt;[root] provider.digitalocean (close)</title>
<path fill="none" stroke="#000000" d="M213,-951.8314C213,-944.131 213,-934.9743 213,-926.4166"/>
<polygon fill="#000000" stroke="#000000" points="216.5001,-926.4132 213,-916.4133 209.5001,-926.4133 216.5001,-926.4132"/>
</g>
<!-- [root] root&#45;&gt;[root] provisioner.remote&#45;exec (close) -->
<g id="edge_26" class="edge">
<title>[root] root&#45;&gt;[root] provisioner.remote&#45;exec (close)</title>
<path fill="none" stroke="#000000" d="M232.935,-951.8314C242.4783,-943.1337 254.0599,-932.5783 264.4306,-923.1265"/>
<polygon fill="#000000" stroke="#000000" points="267.038,-925.4857 272.0713,-916.1628 262.3228,-920.3121 267.038,-925.4857"/>
</g>
<!-- [root] var.ubuntu -->
<g id="node_5" class="node">
<title>[root] var.ubuntu</title>
<polygon fill="none" stroke="#000000" points="236,-538 236,-553 270,-553 270,-538 236,-538"/>
<text text-anchor="start" x="245.7988" y="-543.6" font-family="courier new" font-size="8.00" fill="#000000">var</text>
<polygon fill="none" stroke="#000000" points="236,-523 236,-538 270,-538 270,-523 236,-523"/>
<text text-anchor="start" x="238.5977" y="-528.6" font-family="courier new" font-size="8.00" fill="#000000">ubuntu</text>
</g>
<!-- [root] var.do_ams3&#45;&gt;[root] var.ubuntu -->
<g id="edge_28" class="edge">
<title>[root] var.do_ams3&#45;&gt;[root] var.ubuntu</title>
<path fill="none" stroke="#000000" stroke-dasharray="5,2" d="M253,-591.8314C253,-581 253,-567.2876 253,-556.4133"/>
</g>
<!-- [root] var.coreos -->
<g id="node_10" class="node">
<title>[root] var.coreos</title>
<polygon fill="none" stroke="#000000" points="26,-754 26,-769 60,-769 60,-754 26,-754"/>
<text text-anchor="start" x="35.7988" y="-759.6" font-family="courier new" font-size="8.00" fill="#000000">var</text>
<polygon fill="none" stroke="#000000" points="26,-739 26,-754 60,-754 60,-739 26,-739"/>
<text text-anchor="start" x="28.5977" y="-744.6" font-family="courier new" font-size="8.00" fill="#000000">coreos</text>
</g>
<!-- [root] var.centos&#45;&gt;[root] var.coreos -->
<g id="edge_150" class="edge">
<title>[root] var.centos&#45;&gt;[root] var.coreos</title>
<path fill="none" stroke="#000000" stroke-dasharray="5,2" d="M43,-807.8314C43,-797 43,-783.2876 43,-772.4133"/>
</g>
<!-- [root] var.do_ams2 -->
<g id="node_11" class="node">
<title>[root] var.do_ams2</title>
<polygon fill="none" stroke="#000000" points="24,-682 24,-697 63,-697 63,-682 24,-682"/>
<text text-anchor="start" x="36.2988" y="-687.6" font-family="courier new" font-size="8.00" fill="#000000">var</text>
<polygon fill="none" stroke="#000000" points="24,-667 24,-682 63,-682 63,-667 24,-667"/>
<text text-anchor="start" x="26.6973" y="-672.6" font-family="courier new" font-size="8.00" fill="#000000">do_ams2</text>
</g>
<!-- [root] var.coreos&#45;&gt;[root] var.do_ams2 -->
<g id="edge_151" class="edge">
<title>[root] var.coreos&#45;&gt;[root] var.do_ams2</title>
<path fill="none" stroke="#000000" stroke-dasharray="5,2" d="M43,-735.8314C43,-725 43,-711.2876 43,-700.4133"/>
</g>
<!-- [root] var.do_blr1 -->
<g id="node_12" class="node">
<title>[root] var.do_blr1</title>
<polygon fill="none" stroke="#000000" points="24,-610 24,-625 63,-625 63,-610 24,-610"/>
<text text-anchor="start" x="36.2988" y="-615.6" font-family="courier new" font-size="8.00" fill="#000000">var</text>
<polygon fill="none" stroke="#000000" points="24,-595 24,-610 63,-610 63,-595 24,-595"/>
<text text-anchor="start" x="26.6973" y="-600.6" font-family="courier new" font-size="8.00" fill="#000000">do_blr1</text>
</g>
<!-- [root] var.do_ams2&#45;&gt;[root] var.do_blr1 -->
<g id="edge_152" class="edge">
<title>[root] var.do_ams2&#45;&gt;[root] var.do_blr1</title>
<path fill="none" stroke="#000000" stroke-dasharray="5,2" d="M43,-663.8314C43,-653 43,-639.2876 43,-628.4133"/>
</g>
<!-- [root] var.do_fra1 -->
<g id="node_13" class="node">
<title>[root] var.do_fra1</title>
<polygon fill="none" stroke="#000000" points="24,-538 24,-553 63,-553 63,-538 24,-538"/>
<text text-anchor="start" x="36.2988" y="-543.6" font-family="courier new" font-size="8.00" fill="#000000">var</text>
<polygon fill="none" stroke="#000000" points="24,-523 24,-538 63,-538 63,-523 24,-523"/>
<text text-anchor="start" x="26.6973" y="-528.6" font-family="courier new" font-size="8.00" fill="#000000">do_fra1</text>
</g>
<!-- [root] var.do_blr1&#45;&gt;[root] var.do_fra1 -->
<g id="edge_153" class="edge">
<title>[root] var.do_blr1&#45;&gt;[root] var.do_fra1</title>
<path fill="none" stroke="#000000" stroke-dasharray="5,2" d="M43,-591.8314C43,-581 43,-567.2876 43,-556.4133"/>
</g>
<!-- [root] var.do_lon1 -->
<g id="node_14" class="node">
<title>[root] var.do_lon1</title>
<polygon fill="none" stroke="#000000" points="24,-466 24,-481 63,-481 63,-466 24,-466"/>
<text text-anchor="start" x="36.2988" y="-471.6" font-family="courier new" font-size="8.00" fill="#000000">var</text>
<polygon fill="none" stroke="#000000" points="24,-451 24,-466 63,-466 63,-451 24,-451"/>
<text text-anchor="start" x="26.6973" y="-456.6" font-family="courier new" font-size="8.00" fill="#000000">do_lon1</text>
</g>
<!-- [root] var.do_fra1&#45;&gt;[root] var.do_lon1 -->
<g id="edge_154" class="edge">
<title>[root] var.do_fra1&#45;&gt;[root] var.do_lon1</title>
<path fill="none" stroke="#000000" stroke-dasharray="5,2" d="M43,-519.8314C43,-509 43,-495.2876 43,-484.4133"/>
</g>
<!-- [root] var.do_nyc1 -->
<g id="node_15" class="node">
<title>[root] var.do_nyc1</title>
<polygon fill="none" stroke="#000000" points="24,-394 24,-409 63,-409 63,-394 24,-394"/>
<text text-anchor="start" x="36.2988" y="-399.6" font-family="courier new" font-size="8.00" fill="#000000">var</text>
<polygon fill="none" stroke="#000000" points="24,-379 24,-394 63,-394 63,-379 24,-379"/>
<text text-anchor="start" x="26.6973" y="-384.6" font-family="courier new" font-size="8.00" fill="#000000">do_nyc1</text>
</g>
<!-- [root] var.do_lon1&#45;&gt;[root] var.do_nyc1 -->
<g id="edge_155" class="edge">
<title>[root] var.do_lon1&#45;&gt;[root] var.do_nyc1</title>
<path fill="none" stroke="#000000" stroke-dasharray="5,2" d="M43,-447.8314C43,-437 43,-423.2876 43,-412.4133"/>
</g>
<!-- [root] var.do_nyc2 -->
<g id="node_16" class="node">
<title>[root] var.do_nyc2</title>
<polygon fill="none" stroke="#000000" points="24,-322 24,-337 63,-337 63,-322 24,-322"/>
<text text-anchor="start" x="36.2988" y="-327.6" font-family="courier new" font-size="8.00" fill="#000000">var</text>
<polygon fill="none" stroke="#000000" points="24,-307 24,-322 63,-322 63,-307 24,-307"/>
<text text-anchor="start" x="26.6973" y="-312.6" font-family="courier new" font-size="8.00" fill="#000000">do_nyc2</text>
</g>
<!-- [root] var.do_nyc1&#45;&gt;[root] var.do_nyc2 -->
<g id="edge_156" class="edge">
<title>[root] var.do_nyc1&#45;&gt;[root] var.do_nyc2</title>
<path fill="none" stroke="#000000" stroke-dasharray="5,2" d="M43,-375.8314C43,-365 43,-351.2876 43,-340.4133"/>
</g>
<!-- [root] var.do_nyc3 -->
<g id="node_17" class="node">
<title>[root] var.do_nyc3</title>
<polygon fill="none" stroke="#000000" points="24,-250 24,-265 63,-265 63,-250 24,-250"/>
<text text-anchor="start" x="36.2988" y="-255.6" font-family="courier new" font-size="8.00" fill="#000000">var</text>
<polygon fill="none" stroke="#000000" points="24,-235 24,-250 63,-250 63,-235 24,-235"/>
<text text-anchor="start" x="26.6973" y="-240.6" font-family="courier new" font-size="8.00" fill="#000000">do_nyc3</text>
</g>
<!-- [root] var.do_nyc2&#45;&gt;[root] var.do_nyc3 -->
<g id="edge_157" class="edge">
<title>[root] var.do_nyc2&#45;&gt;[root] var.do_nyc3</title>
<path fill="none" stroke="#000000" stroke-dasharray="5,2" d="M43,-303.8314C43,-293 43,-279.2876 43,-268.4133"/>
</g>
<!-- [root] var.do_sfo1 -->
<g id="node_18" class="node">
<title>[root] var.do_sfo1</title>
<polygon fill="none" stroke="#000000" points="24,-178 24,-193 63,-193 63,-178 24,-178"/>
<text text-anchor="start" x="36.2988" y="-183.6" font-family="courier new" font-size="8.00" fill="#000000">var</text>
<polygon fill="none" stroke="#000000" points="24,-163 24,-178 63,-178 63,-163 24,-163"/>
<text text-anchor="start" x="26.6973" y="-168.6" font-family="courier new" font-size="8.00" fill="#000000">do_sfo1</text>
</g>
<!-- [root] var.do_nyc3&#45;&gt;[root] var.do_sfo1 -->
<g id="edge_158" class="edge">
<title>[root] var.do_nyc3&#45;&gt;[root] var.do_sfo1</title>
<path fill="none" stroke="#000000" stroke-dasharray="5,2" d="M43,-231.8314C43,-221 43,-207.2876 43,-196.4133"/>
</g>
<!-- [root] var.do_sgp1 -->
<g id="node_19" class="node">
<title>[root] var.do_sgp1</title>
<polygon fill="none" stroke="#000000" points="24,-106 24,-121 63,-121 63,-106 24,-106"/>
<text text-anchor="start" x="36.2988" y="-111.6" font-family="courier new" font-size="8.00" fill="#000000">var</text>
<polygon fill="none" stroke="#000000" points="24,-91 24,-106 63,-106 63,-91 24,-91"/>
<text text-anchor="start" x="26.6973" y="-96.6" font-family="courier new" font-size="8.00" fill="#000000">do_sgp1</text>
</g>
<!-- [root] var.do_sfo1&#45;&gt;[root] var.do_sgp1 -->
<g id="edge_159" class="edge">
<title>[root] var.do_sfo1&#45;&gt;[root] var.do_sgp1</title>
<path fill="none" stroke="#000000" stroke-dasharray="5,2" d="M43,-159.8314C43,-149 43,-135.2876 43,-124.4133"/>
</g>
<!-- [root] var.do_tor1 -->
<g id="node_20" class="node">
<title>[root] var.do_tor1</title>
<polygon fill="none" stroke="#000000" points="24,-34 24,-49 63,-49 63,-34 24,-34"/>
<text text-anchor="start" x="36.2988" y="-39.6" font-family="courier new" font-size="8.00" fill="#000000">var</text>
<polygon fill="none" stroke="#000000" points="24,-19 24,-34 63,-34 63,-19 24,-19"/>
<text text-anchor="start" x="26.6973" y="-24.6" font-family="courier new" font-size="8.00" fill="#000000">do_tor1</text>
</g>
<!-- [root] var.do_sgp1&#45;&gt;[root] var.do_tor1 -->
<g id="edge_160" class="edge">
<title>[root] var.do_sgp1&#45;&gt;[root] var.do_tor1</title>
<path fill="none" stroke="#000000" stroke-dasharray="5,2" d="M43,-87.8314C43,-77 43,-63.2876 43,-52.4133"/>
</g>
<!-- [root] output.Public ip -->
<g id="node_8" class="node">
<title>[root] output.Public ip</title>
<polygon fill="none" stroke="#000000" points="104,-754 104,-769 138,-769 138,-754 104,-754"/>
<text text-anchor="start" x="106.5977" y="-759.6" font-family="courier new" font-size="8.00" fill="#000000">output</text>
<polygon fill="none" stroke="#000000" points="104,-739 104,-754 138,-754 138,-739 104,-739"/>
<text text-anchor="start" x="106.5977" y="-744.6" font-family="courier new" font-size="8.00" fill="#000000">Public</text>
</g>
<!-- [root] output.Name&#45;&gt;[root] output.Public ip -->
<g id="edge_162" class="edge">
<title>[root] output.Name&#45;&gt;[root] output.Public ip</title>
<path fill="none" stroke="#000000" stroke-dasharray="5,2" d="M121,-807.8314C121,-797 121,-783.2876 121,-772.4133"/>
</g>
<!-- [root] output.Public ip&#45;&gt;[root] digitalocean_droplet.mywebserver -->
<g id="edge_21" class="edge">
<title>[root] output.Public ip&#45;&gt;[root] digitalocean_droplet.mywebserver</title>
<path fill="none" stroke="#000000" d="M144.7202,-735.8314C156.4094,-726.8779 170.6688,-715.9558 183.2809,-706.2955"/>
<polygon fill="#000000" stroke="#000000" points="185.4769,-709.0222 191.2874,-700.1628 181.2203,-703.4651 185.4769,-709.0222"/>
</g>
</g>
</svg>

