<?xml version="1.0" encoding="UTF-8" standalone="no"?>
<!DOCTYPE svg PUBLIC "-//W3C//DTD SVG 1.1//EN"
 "http://www.w3.org/Graphics/SVG/1.1/DTD/svg11.dtd">
<!-- Generated by graphviz version 2.40.1 (20161225.0304)
 -->
<!-- Title: %3 Pages: 1 -->
<svg width="341pt" height="420pt"
 viewBox="0.00 0.00 340.50 420.00" xmlns="http://www.w3.org/2000/svg" xmlns:xlink="http://www.w3.org/1999/xlink">
<g id="graph0" class="graph" transform="scale(1 1) rotate(0) translate(4 416)">
<title>%3</title>
<polygon fill="#ffffff" stroke="transparent" points="-4,4 -4,-416 336.5,-416 336.5,4 -4,4"/>
<g id="clust2" class="cluster">
<title>cluster[root] aws_cloudwatch_event_rule.foo_var_</title>
</g>
<g id="clust3" class="cluster">
<title>cluster[root] aws_cloudwatch_event_target.bar_var_</title>
</g>
<g id="clust4" class="cluster">
<title>cluster[root] aws_sns_topic.foo_var_</title>
</g>
<g id="clust5" class="cluster">
<title>cluster[root] provider.aws_var_</title>
</g>
<g id="clust6" class="cluster">
<title>cluster[root] meta.count&#45;boundary (count boundary fixup)_output_[root] aws_cloudwatch_event_rule.foo</title>
</g>
<g id="clust7" class="cluster">
<title>cluster[root] meta.count&#45;boundary (count boundary fixup)_output_[root] aws_sns_topic.foo</title>
</g>
<!-- [root] aws_cloudwatch_event_rule.foo -->
<g id="node_0" class="node">
<title>[root] aws_cloudwatch_event_rule.foo</title>
<polygon fill="none" stroke="#000000" points="206.5,-178 206.5,-193 332.5,-193 332.5,-178 206.5,-178"/>
<text text-anchor="start" x="209.4902" y="-183.6" font-family="courier new" font-size="8.00" fill="#000000">aws_cloudwatch_event_rule</text>
<polygon fill="none" stroke="#000000" points="206.5,-163 206.5,-178 332.5,-178 332.5,-163 206.5,-163"/>
<text text-anchor="start" x="262.2988" y="-168.6" font-family="courier new" font-size="8.00" fill="#000000">foo</text>
</g>
<!-- [root] provider.aws -->
<g id="node_3" class="node">
<title>[root] provider.aws</title>
<polygon fill="none" stroke="#000000" points="176.5,-106 176.5,-121 220.5,-121 220.5,-106 176.5,-106"/>
<text text-anchor="start" x="179.2969" y="-111.6" font-family="courier new" font-size="8.00" fill="#000000">provider</text>
<polygon fill="none" stroke="#000000" points="176.5,-91 176.5,-106 220.5,-106 220.5,-91 176.5,-91"/>
<text text-anchor="start" x="191.2988" y="-96.6" font-family="courier new" font-size="8.00" fill="#000000">aws</text>
</g>
<!-- [root] aws_cloudwatch_event_rule.foo&#45;&gt;[root] provider.aws -->
<g id="edge_0" class="edge">
<title>[root] aws_cloudwatch_event_rule.foo&#45;&gt;[root] provider.aws</title>
<path fill="none" stroke="#000000" d="M251.5837,-159.8314C243.1558,-151.2848 232.959,-140.9443 223.764,-131.6198"/>
<polygon fill="#000000" stroke="#000000" points="226.1711,-129.0761 216.6575,-124.4133 221.1869,-133.9912 226.1711,-129.0761"/>
</g>
<!-- [root] var.rule_name -->
<g id="node_4" class="node">
<title>[root] var.rule_name</title>
<polygon fill="none" stroke="#000000" points="246.5,-106 246.5,-121 295.5,-121 295.5,-106 246.5,-106"/>
<text text-anchor="start" x="263.7988" y="-111.6" font-family="courier new" font-size="8.00" fill="#000000">var</text>
<polygon fill="none" stroke="#000000" points="246.5,-91 246.5,-106 295.5,-106 295.5,-91 246.5,-91"/>
<text text-anchor="start" x="249.3965" y="-96.6" font-family="courier new" font-size="8.00" fill="#000000">rule_name</text>
</g>
<!-- [root] aws_cloudwatch_event_rule.foo&#45;&gt;[root] var.rule_name -->
<g id="edge_1" class="edge">
<title>[root] aws_cloudwatch_event_rule.foo&#45;&gt;[root] var.rule_name</title>
<path fill="none" stroke="#000000" d="M269.7523,-159.8314C269.8593,-152.131 269.9865,-142.9743 270.1053,-134.4166"/>
<polygon fill="#000000" stroke="#000000" points="273.6049,-134.4609 270.2443,-124.4133 266.6056,-134.3637 273.6049,-134.4609"/>
</g>
<!-- [root] aws_cloudwatch_event_target.bar -->
<g id="node_1" class="node">
<title>[root] aws_cloudwatch_event_target.bar</title>
<polygon fill="none" stroke="#000000" points=".5,-250 .5,-265 135.5,-265 135.5,-250 .5,-250"/>
<text text-anchor="start" x="3.1895" y="-255.6" font-family="courier new" font-size="8.00" fill="#000000">aws_cloudwatch_event_target</text>
<polygon fill="none" stroke="#000000" points=".5,-235 .5,-250 135.5,-250 135.5,-235 .5,-235"/>
<text text-anchor="start" x="60.7988" y="-240.6" font-family="courier new" font-size="8.00" fill="#000000">bar</text>
</g>
<!-- [root] aws_cloudwatch_event_target.bar&#45;&gt;[root] aws_cloudwatch_event_rule.foo -->
<g id="edge_2" class="edge">
<title>[root] aws_cloudwatch_event_target.bar&#45;&gt;[root] aws_cloudwatch_event_rule.foo</title>
<path fill="none" stroke="#000000" d="M118.2124,-231.9243C145.827,-222.0815 180.175,-209.8386 209.1601,-199.5073"/>
<polygon fill="#000000" stroke="#000000" points="210.5223,-202.7375 218.7667,-196.0831 208.1721,-196.1438 210.5223,-202.7375"/>
</g>
<!-- [root] aws_sns_topic.foo -->
<g id="node_2" class="node">
<title>[root] aws_sns_topic.foo</title>
<polygon fill="none" stroke="#000000" points="118.5,-178 118.5,-193 186.5,-193 186.5,-178 118.5,-178"/>
<text text-anchor="start" x="121.2949" y="-183.6" font-family="courier new" font-size="8.00" fill="#000000">aws_sns_topic</text>
<polygon fill="none" stroke="#000000" points="118.5,-163 118.5,-178 186.5,-178 186.5,-163 118.5,-163"/>
<text text-anchor="start" x="145.2988" y="-168.6" font-family="courier new" font-size="8.00" fill="#000000">foo</text>
</g>
<!-- [root] aws_cloudwatch_event_target.bar&#45;&gt;[root] aws_sns_topic.foo -->
<g id="edge_3" class="edge">
<title>[root] aws_cloudwatch_event_target.bar&#45;&gt;[root] aws_sns_topic.foo</title>
<path fill="none" stroke="#000000" d="M88.9491,-231.8314C99.3178,-223.0485 111.9229,-212.3712 123.1646,-202.8489"/>
<polygon fill="#000000" stroke="#000000" points="125.6895,-205.297 131.0578,-196.1628 121.1651,-199.9556 125.6895,-205.297"/>
</g>
<!-- [root] var.target_name -->
<g id="node_5" class="node">
<title>[root] var.target_name</title>
<polygon fill="none" stroke="#000000" points="38.5,-178 38.5,-193 96.5,-193 96.5,-178 38.5,-178"/>
<text text-anchor="start" x="60.2988" y="-183.6" font-family="courier new" font-size="8.00" fill="#000000">var</text>
<polygon fill="none" stroke="#000000" points="38.5,-163 38.5,-178 96.5,-178 96.5,-163 38.5,-163"/>
<text text-anchor="start" x="41.0957" y="-168.6" font-family="courier new" font-size="8.00" fill="#000000">target_name</text>
</g>
<!-- [root] aws_cloudwatch_event_target.bar&#45;&gt;[root] var.target_name -->
<g id="edge_4" class="edge">
<title>[root] aws_cloudwatch_event_target.bar&#45;&gt;[root] var.target_name</title>
<path fill="none" stroke="#000000" d="M67.5,-231.8314C67.5,-224.131 67.5,-214.9743 67.5,-206.4166"/>
<polygon fill="#000000" stroke="#000000" points="71.0001,-206.4132 67.5,-196.4133 64.0001,-206.4133 71.0001,-206.4132"/>
</g>
<!-- [root] aws_sns_topic.foo&#45;&gt;[root] provider.aws -->
<g id="edge_5" class="edge">
<title>[root] aws_sns_topic.foo&#45;&gt;[root] provider.aws</title>
<path fill="none" stroke="#000000" d="M164.1077,-159.8314C169.2978,-151.7079 175.5232,-141.9637 181.2425,-133.0118"/>
<polygon fill="#000000" stroke="#000000" points="184.3015,-134.7246 186.736,-124.4133 178.4026,-130.9559 184.3015,-134.7246"/>
</g>
<!-- [root] var.sns_topic_name -->
<g id="node_6" class="node">
<title>[root] var.sns_topic_name</title>
<polygon fill="none" stroke="#000000" points="80.5,-106 80.5,-121 153.5,-121 153.5,-106 80.5,-106"/>
<text text-anchor="start" x="109.7988" y="-111.6" font-family="courier new" font-size="8.00" fill="#000000">var</text>
<polygon fill="none" stroke="#000000" points="80.5,-91 80.5,-106 153.5,-106 153.5,-91 80.5,-91"/>
<text text-anchor="start" x="83.3945" y="-96.6" font-family="courier new" font-size="8.00" fill="#000000">sns_topic_name</text>
</g>
<!-- [root] aws_sns_topic.foo&#45;&gt;[root] var.sns_topic_name -->
<g id="edge_6" class="edge">
<title>[root] aws_sns_topic.foo&#45;&gt;[root] var.sns_topic_name</title>
<path fill="none" stroke="#000000" d="M143.4157,-159.8314C139.4385,-151.8771 134.6845,-142.369 130.2861,-133.5723"/>
<polygon fill="#000000" stroke="#000000" points="133.3093,-131.7923 125.7066,-124.4133 127.0483,-134.9228 133.3093,-131.7923"/>
</g>
<!-- [root] var.aws_region -->
<g id="node_11" class="node">
<title>[root] var.aws_region</title>
<polygon fill="none" stroke="#000000" points="171.5,-34 171.5,-49 225.5,-49 225.5,-34 171.5,-34"/>
<text text-anchor="start" x="191.2988" y="-39.6" font-family="courier new" font-size="8.00" fill="#000000">var</text>
<polygon fill="none" stroke="#000000" points="171.5,-19 171.5,-34 225.5,-34 225.5,-19 171.5,-19"/>
<text text-anchor="start" x="174.4961" y="-24.6" font-family="courier new" font-size="8.00" fill="#000000">aws_region</text>
</g>
<!-- [root] provider.aws&#45;&gt;[root] var.aws_region -->
<g id="edge_13" class="edge">
<title>[root] provider.aws&#45;&gt;[root] var.aws_region</title>
<path fill="none" stroke="#000000" d="M198.5,-87.8314C198.5,-80.131 198.5,-70.9743 198.5,-62.4166"/>
<polygon fill="#000000" stroke="#000000" points="202.0001,-62.4132 198.5,-52.4133 195.0001,-62.4133 202.0001,-62.4132"/>
</g>
<!-- [root] meta.count&#45;boundary (count boundary fixup) -->
<g id="node_7" class="node">
<title>[root] meta.count&#45;boundary (count boundary fixup)</title>
<polygon fill="none" stroke="#000000" points="141.5,-322 141.5,-337 214.5,-337 214.5,-322 141.5,-322"/>
<text text-anchor="start" x="168.3984" y="-327.6" font-family="courier new" font-size="8.00" fill="#000000">meta</text>
<polygon fill="none" stroke="#000000" points="141.5,-307 141.5,-322 214.5,-322 214.5,-307 141.5,-307"/>
<text text-anchor="start" x="144.3945" y="-312.6" font-family="courier new" font-size="8.00" fill="#000000">count&#45;boundary</text>
</g>
<!-- [root] meta.count&#45;boundary (count boundary fixup)&#45;&gt;[root] aws_cloudwatch_event_target.bar -->
<g id="edge_7" class="edge">
<title>[root] meta.count&#45;boundary (count boundary fixup)&#45;&gt;[root] aws_cloudwatch_event_target.bar</title>
<path fill="none" stroke="#000000" d="M149.7424,-303.8314C135.803,-294.7074 118.7402,-283.539 103.7769,-273.7449"/>
<polygon fill="#000000" stroke="#000000" points="105.5326,-270.711 95.2488,-268.1628 101.699,-276.5679 105.5326,-270.711"/>
</g>
<!-- [root] output.rule_arn -->
<g id="node_8" class="node">
<title>[root] output.rule_arn</title>
<polygon fill="none" stroke="#000000" points="250.5,-250 250.5,-265 294.5,-265 294.5,-250 250.5,-250"/>
<text text-anchor="start" x="258.0977" y="-255.6" font-family="courier new" font-size="8.00" fill="#000000">output</text>
<polygon fill="none" stroke="#000000" points="250.5,-235 250.5,-250 294.5,-250 294.5,-235 250.5,-235"/>
<text text-anchor="start" x="253.2969" y="-240.6" font-family="courier new" font-size="8.00" fill="#000000">rule_arn</text>
</g>
<!-- [root] meta.count&#45;boundary (count boundary fixup)&#45;&gt;[root] output.rule_arn -->
<g id="edge_8" class="edge">
<title>[root] meta.count&#45;boundary (count boundary fixup)&#45;&gt;[root] output.rule_arn</title>
<path fill="none" stroke="#000000" d="M201.4725,-303.8314C213.2861,-294.8779 227.6972,-283.9558 240.4435,-274.2955"/>
<polygon fill="#000000" stroke="#000000" points="242.6795,-276.9925 248.5352,-268.1628 238.4514,-271.4137 242.6795,-276.9925"/>
</g>
<!-- [root] output.sns_topic_arn -->
<g id="node_9" class="node">
<title>[root] output.sns_topic_arn</title>
<polygon fill="none" stroke="#000000" points="153.5,-250 153.5,-265 221.5,-265 221.5,-250 153.5,-250"/>
<text text-anchor="start" x="173.0977" y="-255.6" font-family="courier new" font-size="8.00" fill="#000000">output</text>
<polygon fill="none" stroke="#000000" points="153.5,-235 153.5,-250 221.5,-250 221.5,-235 153.5,-235"/>
<text text-anchor="start" x="156.2949" y="-240.6" font-family="courier new" font-size="8.00" fill="#000000">sns_topic_arn</text>
</g>
<!-- [root] meta.count&#45;boundary (count boundary fixup)&#45;&gt;[root] output.sns_topic_arn -->
<g id="edge_9" class="edge">
<title>[root] meta.count&#45;boundary (count boundary fixup)&#45;&gt;[root] output.sns_topic_arn</title>
<path fill="none" stroke="#000000" d="M180.0234,-303.8314C181.0929,-296.131 182.3647,-286.9743 183.5532,-278.4166"/>
<polygon fill="#000000" stroke="#000000" points="187.0336,-278.7997 184.9426,-268.4133 180.1001,-277.8367 187.0336,-278.7997"/>
</g>
<!-- [root] provider.aws (close) -->
<g id="node_10" class="node">
<title>[root] provider.aws (close)</title>
<polygon fill="none" stroke="#000000" points="64.5,-322 64.5,-337 108.5,-337 108.5,-322 64.5,-322"/>
<text text-anchor="start" x="67.2969" y="-327.6" font-family="courier new" font-size="8.00" fill="#000000">provider</text>
<polygon fill="none" stroke="#000000" points="64.5,-307 64.5,-322 108.5,-322 108.5,-307 64.5,-307"/>
<text text-anchor="start" x="79.2988" y="-312.6" font-family="courier new" font-size="8.00" fill="#000000">aws</text>
</g>
<!-- [root] provider.aws (close)&#45;&gt;[root] aws_cloudwatch_event_target.bar -->
<g id="edge_12" class="edge">
<title>[root] provider.aws (close)&#45;&gt;[root] aws_cloudwatch_event_target.bar</title>
<path fill="none" stroke="#000000" d="M81.7055,-303.8314C79.6511,-296.0463 77.204,-286.7729 74.9244,-278.1347"/>
<polygon fill="#000000" stroke="#000000" points="78.2948,-277.1892 72.3591,-268.4133 71.5265,-278.9753 78.2948,-277.1892"/>
</g>
<!-- [root] root -->
<g id="node_12" class="node">
<title>[root] root</title>
<polygon fill="none" stroke="#000000" points="161.8089,-412 93.1911,-412 93.1911,-376 161.8089,-376 161.8089,-412"/>
<text text-anchor="middle" x="127.5" y="-392.1313" font-family="courier new" font-size="8.00" fill="#000000">[root] root</text>
</g>
<!-- [root] root&#45;&gt;[root] meta.count&#45;boundary (count boundary fixup) -->
<g id="edge_14" class="edge">
<title>[root] root&#45;&gt;[root] meta.count&#45;boundary (count boundary fixup)</title>
<path fill="none" stroke="#000000" d="M140.1171,-375.8314C145.8172,-367.6232 152.6663,-357.7606 158.9359,-348.7323"/>
<polygon fill="#000000" stroke="#000000" points="161.8838,-350.6234 164.713,-340.4133 156.1342,-346.6306 161.8838,-350.6234"/>
</g>
<!-- [root] root&#45;&gt;[root] provider.aws (close) -->
<g id="edge_15" class="edge">
<title>[root] root&#45;&gt;[root] provider.aws (close)</title>
<path fill="none" stroke="#000000" d="M117.154,-375.8314C112.5763,-367.7925 107.0948,-358.1666 102.0412,-349.2918"/>
<polygon fill="#000000" stroke="#000000" points="104.9752,-347.3712 96.9853,-340.4133 98.8923,-350.8351 104.9752,-347.3712"/>
</g>
<!-- [root] output.rule_arn&#45;&gt;[root] aws_cloudwatch_event_rule.foo -->
<g id="edge_10" class="edge">
<title>[root] output.rule_arn&#45;&gt;[root] aws_cloudwatch_event_rule.foo</title>
<path fill="none" stroke="#000000" d="M271.743,-231.8314C271.4221,-224.131 271.0406,-214.9743 270.684,-206.4166"/>
<polygon fill="#000000" stroke="#000000" points="274.1806,-206.2589 270.2672,-196.4133 267.1867,-206.5503 274.1806,-206.2589"/>
</g>
<!-- [root] output.sns_topic_arn&#45;&gt;[root] aws_sns_topic.foo -->
<g id="edge_11" class="edge">
<title>[root] output.sns_topic_arn&#45;&gt;[root] aws_sns_topic.foo</title>
<path fill="none" stroke="#000000" d="M178.668,-231.8314C174.8014,-223.8771 170.1794,-214.369 165.9032,-205.5723"/>
<polygon fill="#000000" stroke="#000000" points="168.9707,-203.8768 161.4509,-196.4133 162.6751,-206.9371 168.9707,-203.8768"/>
</g>
</g>
</svg>

