<?xml version="1.0" encoding="UTF-8" standalone="no"?>
<!DOCTYPE svg PUBLIC "-//W3C//DTD SVG 1.1//EN"
 "http://www.w3.org/Graphics/SVG/1.1/DTD/svg11.dtd">
<!-- Generated by graphviz version 2.40.1 (20161225.0304)
 -->
<!-- Title: %3 Pages: 1 -->
<svg width="337pt" height="404pt"
 viewBox="0.00 0.00 336.50 404.00" xmlns="http://www.w3.org/2000/svg" xmlns:xlink="http://www.w3.org/1999/xlink">
<g id="graph0" class="graph" transform="scale(1 1) rotate(0) translate(4 400)">
<title>%3</title>
<polygon fill="#ffffff" stroke="transparent" points="-4,4 -4,-400 332.5,-400 332.5,4 -4,4"/>
<!-- [root] aws_cloudwatch_event_rule.foo -->
<g id="node_0" class="node">
<title>[root] aws_cloudwatch_event_rule.foo</title>
<polygon fill="none" stroke="#000000" points="202.5,-162 202.5,-177 328.5,-177 328.5,-162 202.5,-162"/>
<text text-anchor="start" x="205.4902" y="-167.6" font-family="courier new" font-size="8.00" fill="#000000">aws_cloudwatch_event_rule</text>
<polygon fill="none" stroke="#000000" points="202.5,-147 202.5,-162 328.5,-162 328.5,-147 202.5,-147"/>
<text text-anchor="start" x="258.2988" y="-152.6" font-family="courier new" font-size="8.00" fill="#000000">foo</text>
</g>
<!-- [root] provider.aws -->
<g id="node_3" class="node">
<title>[root] provider.aws</title>
<polygon fill="none" stroke="#000000" points="190.5,-90 190.5,-105 234.5,-105 234.5,-90 190.5,-90"/>
<text text-anchor="start" x="193.2969" y="-95.6" font-family="courier new" font-size="8.00" fill="#000000">provider</text>
<polygon fill="none" stroke="#000000" points="190.5,-75 190.5,-90 234.5,-90 234.5,-75 190.5,-75"/>
<text text-anchor="start" x="205.2988" y="-80.6" font-family="courier new" font-size="8.00" fill="#000000">aws</text>
</g>
<!-- [root] aws_cloudwatch_event_rule.foo&#45;&gt;[root] provider.aws -->
<g id="edge_0" class="edge">
<title>[root] aws_cloudwatch_event_rule.foo&#45;&gt;[root] provider.aws</title>
<path fill="none" stroke="#000000" d="M252.1259,-143.8314C246.0838,-135.6232 238.8237,-125.7606 232.1779,-116.7323"/>
<polygon fill="#000000" stroke="#000000" points="234.8011,-114.3918 226.0542,-108.4133 229.1637,-118.5415 234.8011,-114.3918"/>
</g>
<!-- [root] var.rule_name -->
<g id="node_4" class="node">
<title>[root] var.rule_name</title>
<polygon fill="none" stroke="#000000" points="260.5,-90 260.5,-105 309.5,-105 309.5,-90 260.5,-90"/>
<text text-anchor="start" x="277.7988" y="-95.6" font-family="courier new" font-size="8.00" fill="#000000">var</text>
<polygon fill="none" stroke="#000000" points="260.5,-75 260.5,-90 309.5,-90 309.5,-75 260.5,-75"/>
<text text-anchor="start" x="263.3965" y="-80.6" font-family="courier new" font-size="8.00" fill="#000000">rule_name</text>
</g>
<!-- [root] aws_cloudwatch_event_rule.foo&#45;&gt;[root] var.rule_name -->
<g id="edge_1" class="edge">
<title>[root] aws_cloudwatch_event_rule.foo&#45;&gt;[root] var.rule_name</title>
<path fill="none" stroke="#000000" d="M270.2945,-143.8314C272.3489,-136.0463 274.796,-126.7729 277.0756,-118.1347"/>
<polygon fill="#000000" stroke="#000000" points="280.4735,-118.9753 279.6409,-108.4133 273.7052,-117.1892 280.4735,-118.9753"/>
</g>
<!-- [root] aws_cloudwatch_event_target.bar -->
<g id="node_1" class="node">
<title>[root] aws_cloudwatch_event_target.bar</title>
<polygon fill="none" stroke="#000000" points=".5,-234 .5,-249 135.5,-249 135.5,-234 .5,-234"/>
<text text-anchor="start" x="3.1895" y="-239.6" font-family="courier new" font-size="8.00" fill="#000000">aws_cloudwatch_event_target</text>
<polygon fill="none" stroke="#000000" points=".5,-219 .5,-234 135.5,-234 135.5,-219 .5,-219"/>
<text text-anchor="start" x="60.7988" y="-224.6" font-family="courier new" font-size="8.00" fill="#000000">bar</text>
</g>
<!-- [root] aws_cloudwatch_event_target.bar&#45;&gt;[root] aws_cloudwatch_event_rule.foo -->
<g id="edge_2" class="edge">
<title>[root] aws_cloudwatch_event_target.bar&#45;&gt;[root] aws_cloudwatch_event_rule.foo</title>
<path fill="none" stroke="#000000" d="M117.2082,-215.9243C144.2759,-206.0815 177.9439,-193.8386 206.3549,-183.5073"/>
<polygon fill="#000000" stroke="#000000" points="207.5695,-186.7899 215.7714,-180.0831 205.1773,-180.2114 207.5695,-186.7899"/>
</g>
<!-- [root] aws_sns_topic.foo -->
<g id="node_2" class="node">
<title>[root] aws_sns_topic.foo</title>
<polygon fill="none" stroke="#000000" points="115.5,-162 115.5,-177 183.5,-177 183.5,-162 115.5,-162"/>
<text text-anchor="start" x="118.2949" y="-167.6" font-family="courier new" font-size="8.00" fill="#000000">aws_sns_topic</text>
<polygon fill="none" stroke="#000000" points="115.5,-147 115.5,-162 183.5,-162 183.5,-147 115.5,-147"/>
<text text-anchor="start" x="142.2988" y="-152.6" font-family="courier new" font-size="8.00" fill="#000000">foo</text>
</g>
<!-- [root] aws_cloudwatch_event_target.bar&#45;&gt;[root] aws_sns_topic.foo -->
<g id="edge_3" class="edge">
<title>[root] aws_cloudwatch_event_target.bar&#45;&gt;[root] aws_sns_topic.foo</title>
<path fill="none" stroke="#000000" d="M88.1921,-215.8314C98.1948,-207.0485 110.355,-196.3712 121.1999,-186.8489"/>
<polygon fill="#000000" stroke="#000000" points="123.6094,-189.3909 128.8146,-180.1628 118.9908,-184.1308 123.6094,-189.3909"/>
</g>
<!-- [root] var.target_name -->
<g id="node_5" class="node">
<title>[root] var.target_name</title>
<polygon fill="none" stroke="#000000" points="38.5,-162 38.5,-177 96.5,-177 96.5,-162 38.5,-162"/>
<text text-anchor="start" x="60.2988" y="-167.6" font-family="courier new" font-size="8.00" fill="#000000">var</text>
<polygon fill="none" stroke="#000000" points="38.5,-147 38.5,-162 96.5,-162 96.5,-147 38.5,-147"/>
<text text-anchor="start" x="41.0957" y="-152.6" font-family="courier new" font-size="8.00" fill="#000000">target_name</text>
</g>
<!-- [root] aws_cloudwatch_event_target.bar&#45;&gt;[root] var.target_name -->
<g id="edge_4" class="edge">
<title>[root] aws_cloudwatch_event_target.bar&#45;&gt;[root] var.target_name</title>
<path fill="none" stroke="#000000" d="M67.5,-215.8314C67.5,-208.131 67.5,-198.9743 67.5,-190.4166"/>
<polygon fill="#000000" stroke="#000000" points="71.0001,-190.4132 67.5,-180.4133 64.0001,-190.4133 71.0001,-190.4132"/>
</g>
<!-- [root] aws_sns_topic.foo&#45;&gt;[root] provider.aws -->
<g id="edge_5" class="edge">
<title>[root] aws_sns_topic.foo&#45;&gt;[root] provider.aws</title>
<path fill="none" stroke="#000000" d="M165.3976,-143.8314C172.7278,-135.454 181.566,-125.3531 189.5969,-116.1749"/>
<polygon fill="#000000" stroke="#000000" points="192.4373,-118.2438 196.3884,-108.4133 187.1693,-113.6343 192.4373,-118.2438"/>
</g>
<!-- [root] var.sns_topic_name -->
<g id="node_6" class="node">
<title>[root] var.sns_topic_name</title>
<polygon fill="none" stroke="#000000" points="94.5,-90 94.5,-105 167.5,-105 167.5,-90 94.5,-90"/>
<text text-anchor="start" x="123.7988" y="-95.6" font-family="courier new" font-size="8.00" fill="#000000">var</text>
<polygon fill="none" stroke="#000000" points="94.5,-75 94.5,-90 167.5,-90 167.5,-75 94.5,-75"/>
<text text-anchor="start" x="97.3945" y="-80.6" font-family="courier new" font-size="8.00" fill="#000000">sns_topic_name</text>
</g>
<!-- [root] aws_sns_topic.foo&#45;&gt;[root] var.sns_topic_name -->
<g id="edge_6" class="edge">
<title>[root] aws_sns_topic.foo&#45;&gt;[root] var.sns_topic_name</title>
<path fill="none" stroke="#000000" d="M144.7055,-143.8314C142.6511,-136.0463 140.204,-126.7729 137.9244,-118.1347"/>
<polygon fill="#000000" stroke="#000000" points="141.2948,-117.1892 135.3591,-108.4133 134.5265,-118.9753 141.2948,-117.1892"/>
</g>
<!-- [root] var.aws_region -->
<g id="node_11" class="node">
<title>[root] var.aws_region</title>
<polygon fill="none" stroke="#000000" points="185.5,-18 185.5,-33 239.5,-33 239.5,-18 185.5,-18"/>
<text text-anchor="start" x="205.2988" y="-23.6" font-family="courier new" font-size="8.00" fill="#000000">var</text>
<polygon fill="none" stroke="#000000" points="185.5,-3 185.5,-18 239.5,-18 239.5,-3 185.5,-3"/>
<text text-anchor="start" x="188.4961" y="-8.6" font-family="courier new" font-size="8.00" fill="#000000">aws_region</text>
</g>
<!-- [root] provider.aws&#45;&gt;[root] var.aws_region -->
<g id="edge_13" class="edge">
<title>[root] provider.aws&#45;&gt;[root] var.aws_region</title>
<path fill="none" stroke="#000000" d="M212.5,-71.8314C212.5,-64.131 212.5,-54.9743 212.5,-46.4166"/>
<polygon fill="#000000" stroke="#000000" points="216.0001,-46.4132 212.5,-36.4133 209.0001,-46.4133 216.0001,-46.4132"/>
</g>
<!-- [root] meta.count&#45;boundary (count boundary fixup) -->
<g id="node_7" class="node">
<title>[root] meta.count&#45;boundary (count boundary fixup)</title>
<polygon fill="none" stroke="#000000" points="141.5,-306 141.5,-321 214.5,-321 214.5,-306 141.5,-306"/>
<text text-anchor="start" x="168.3984" y="-311.6" font-family="courier new" font-size="8.00" fill="#000000">meta</text>
<polygon fill="none" stroke="#000000" points="141.5,-291 141.5,-306 214.5,-306 214.5,-291 141.5,-291"/>
<text text-anchor="start" x="144.3945" y="-296.6" font-family="courier new" font-size="8.00" fill="#000000">count&#45;boundary</text>
</g>
<!-- [root] meta.count&#45;boundary (count boundary fixup)&#45;&gt;[root] aws_cloudwatch_event_target.bar -->
<g id="edge_7" class="edge">
<title>[root] meta.count&#45;boundary (count boundary fixup)&#45;&gt;[root] aws_cloudwatch_event_target.bar</title>
<path fill="none" stroke="#000000" d="M149.7424,-287.8314C135.803,-278.7074 118.7402,-267.539 103.7769,-257.7449"/>
<polygon fill="#000000" stroke="#000000" points="105.5326,-254.711 95.2488,-252.1628 101.699,-260.5679 105.5326,-254.711"/>
</g>
<!-- [root] output.rule_arn -->
<g id="node_8" class="node">
<title>[root] output.rule_arn</title>
<polygon fill="none" stroke="#000000" points="244.5,-234 244.5,-249 288.5,-249 288.5,-234 244.5,-234"/>
<text text-anchor="start" x="252.0977" y="-239.6" font-family="courier new" font-size="8.00" fill="#000000">output</text>
<polygon fill="none" stroke="#000000" points="244.5,-219 244.5,-234 288.5,-234 288.5,-219 244.5,-219"/>
<text text-anchor="start" x="247.2969" y="-224.6" font-family="courier new" font-size="8.00" fill="#000000">rule_arn</text>
</g>
<!-- [root] meta.count&#45;boundary (count boundary fixup)&#45;&gt;[root] output.rule_arn -->
<g id="edge_8" class="edge">
<title>[root] meta.count&#45;boundary (count boundary fixup)&#45;&gt;[root] output.rule_arn</title>
<path fill="none" stroke="#000000" d="M199.9585,-287.8314C210.9205,-278.9632 224.2699,-268.1637 236.1265,-258.5718"/>
<polygon fill="#000000" stroke="#000000" points="238.4755,-261.1734 244.0487,-252.1628 234.0729,-255.7313 238.4755,-261.1734"/>
</g>
<!-- [root] output.sns_topic_arn -->
<g id="node_9" class="node">
<title>[root] output.sns_topic_arn</title>
<polygon fill="none" stroke="#000000" points="153.5,-234 153.5,-249 221.5,-249 221.5,-234 153.5,-234"/>
<text text-anchor="start" x="173.0977" y="-239.6" font-family="courier new" font-size="8.00" fill="#000000">output</text>
<polygon fill="none" stroke="#000000" points="153.5,-219 153.5,-234 221.5,-234 221.5,-219 153.5,-219"/>
<text text-anchor="start" x="156.2949" y="-224.6" font-family="courier new" font-size="8.00" fill="#000000">sns_topic_arn</text>
</g>
<!-- [root] meta.count&#45;boundary (count boundary fixup)&#45;&gt;[root] output.sns_topic_arn -->
<g id="edge_9" class="edge">
<title>[root] meta.count&#45;boundary (count boundary fixup)&#45;&gt;[root] output.sns_topic_arn</title>
<path fill="none" stroke="#000000" d="M180.0234,-287.8314C181.0929,-280.131 182.3647,-270.9743 183.5532,-262.4166"/>
<polygon fill="#000000" stroke="#000000" points="187.0336,-262.7997 184.9426,-252.4133 180.1001,-261.8367 187.0336,-262.7997"/>
</g>
<!-- [root] output.rule_arn&#45;&gt;[root] aws_cloudwatch_event_rule.foo -->
<g id="edge_10" class="edge">
<title>[root] output.rule_arn&#45;&gt;[root] aws_cloudwatch_event_rule.foo</title>
<path fill="none" stroke="#000000" d="M266.2477,-215.8314C266.1407,-208.131 266.0135,-198.9743 265.8947,-190.4166"/>
<polygon fill="#000000" stroke="#000000" points="269.3944,-190.3637 265.7557,-180.4133 262.3951,-190.4609 269.3944,-190.3637"/>
</g>
<!-- [root] output.sns_topic_arn&#45;&gt;[root] aws_sns_topic.foo -->
<g id="edge_11" class="edge">
<title>[root] output.sns_topic_arn&#45;&gt;[root] aws_sns_topic.foo</title>
<path fill="none" stroke="#000000" d="M177.911,-215.8314C173.6683,-207.7925 168.5879,-198.1666 163.904,-189.2918"/>
<polygon fill="#000000" stroke="#000000" points="166.9811,-187.6235 159.2181,-180.4133 160.7904,-190.8908 166.9811,-187.6235"/>
</g>
<!-- [root] provider.aws (close) -->
<g id="node_10" class="node">
<title>[root] provider.aws (close)</title>
<polygon fill="none" stroke="#000000" points="64.5,-306 64.5,-321 108.5,-321 108.5,-306 64.5,-306"/>
<text text-anchor="start" x="67.2969" y="-311.6" font-family="courier new" font-size="8.00" fill="#000000">provider</text>
<polygon fill="none" stroke="#000000" points="64.5,-291 64.5,-306 108.5,-306 108.5,-291 64.5,-291"/>
<text text-anchor="start" x="79.2988" y="-296.6" font-family="courier new" font-size="8.00" fill="#000000">aws</text>
</g>
<!-- [root] provider.aws (close)&#45;&gt;[root] aws_cloudwatch_event_target.bar -->
<g id="edge_12" class="edge">
<title>[root] provider.aws (close)&#45;&gt;[root] aws_cloudwatch_event_target.bar</title>
<path fill="none" stroke="#000000" d="M81.7055,-287.8314C79.6511,-280.0463 77.204,-270.7729 74.9244,-262.1347"/>
<polygon fill="#000000" stroke="#000000" points="78.2948,-261.1892 72.3591,-252.4133 71.5265,-262.9753 78.2948,-261.1892"/>
</g>
<!-- [root] root -->
<g id="node_12" class="node">
<title>[root] root</title>
<polygon fill="none" stroke="#000000" points="161.8089,-396 93.1911,-396 93.1911,-360 161.8089,-360 161.8089,-396"/>
<text text-anchor="middle" x="127.5" y="-376.1313" font-family="courier new" font-size="8.00" fill="#000000">[root] root</text>
</g>
<!-- [root] root&#45;&gt;[root] meta.count&#45;boundary (count boundary fixup) -->
<g id="edge_14" class="edge">
<title>[root] root&#45;&gt;[root] meta.count&#45;boundary (count boundary fixup)</title>
<path fill="none" stroke="#000000" d="M140.1171,-359.8314C145.8172,-351.6232 152.6663,-341.7606 158.9359,-332.7323"/>
<polygon fill="#000000" stroke="#000000" points="161.8838,-334.6234 164.713,-324.4133 156.1342,-330.6306 161.8838,-334.6234"/>
</g>
<!-- [root] root&#45;&gt;[root] provider.aws (close) -->
<g id="edge_15" class="edge">
<title>[root] root&#45;&gt;[root] provider.aws (close)</title>
<path fill="none" stroke="#000000" d="M117.154,-359.8314C112.5763,-351.7925 107.0948,-342.1666 102.0412,-333.2918"/>
<polygon fill="#000000" stroke="#000000" points="104.9752,-331.3712 96.9853,-324.4133 98.8923,-334.8351 104.9752,-331.3712"/>
</g>
</g>
</svg>

