<?xml version="1.0" encoding="UTF-8" standalone="no"?>
<!DOCTYPE svg PUBLIC "-//W3C//DTD SVG 1.1//EN"
 "http://www.w3.org/Graphics/SVG/1.1/DTD/svg11.dtd">
<!-- Generated by graphviz version 2.40.1 (20161225.0304)
 -->
<!-- Title: %3 Pages: 1 -->
<svg width="732pt" height="924pt"
 viewBox="0.00 0.00 731.50 924.00" xmlns="http://www.w3.org/2000/svg" xmlns:xlink="http://www.w3.org/1999/xlink">
<g id="graph0" class="graph" transform="scale(1 1) rotate(0) translate(4 920)">
<title>%3</title>
<polygon fill="#ffffff" stroke="transparent" points="-4,4 -4,-920 727.5,-920 727.5,4 -4,4"/>
<g id="clust2" class="cluster">
<title>cluster[root] provider.google_var_</title>
</g>
<g id="clust3" class="cluster">
<title>cluster[root] meta.count&#45;boundary (count boundary fixup)_output_[root] google_compute_global_forwarding_rule.default</title>
</g>
<!-- [root] google_compute_backend_service.video&#45;service -->
<g id="node_0" class="node">
<title>[root] google_compute_backend_service.video&#45;service</title>
<polygon fill="none" stroke="#000000" points="479,-466 479,-481 629,-481 629,-466 479,-466"/>
<text text-anchor="start" x="481.9883" y="-471.6" font-family="courier new" font-size="8.00" fill="#000000">google_compute_backend_service</text>
<polygon fill="none" stroke="#000000" points="479,-451 479,-466 629,-466 629,-451 479,-451"/>
<text text-anchor="start" x="522.7949" y="-456.6" font-family="courier new" font-size="8.00" fill="#000000">video&#45;service</text>
</g>
<!-- [root] google_compute_health_check.health&#45;check -->
<g id="node_5" class="node">
<title>[root] google_compute_health_check.health&#45;check</title>
<polygon fill="none" stroke="#000000" points="426,-394 426,-409 561,-409 561,-394 426,-394"/>
<text text-anchor="start" x="428.6895" y="-399.6" font-family="courier new" font-size="8.00" fill="#000000">google_compute_health_check</text>
<polygon fill="none" stroke="#000000" points="426,-379 426,-394 561,-394 561,-379 426,-379"/>
<text text-anchor="start" x="464.6953" y="-384.6" font-family="courier new" font-size="8.00" fill="#000000">health&#45;check</text>
</g>
<!-- [root] google_compute_backend_service.video&#45;service&#45;&gt;[root] google_compute_health_check.health&#45;check -->
<g id="edge_0" class="edge">
<title>[root] google_compute_backend_service.video&#45;service&#45;&gt;[root] google_compute_health_check.health&#45;check</title>
<path fill="none" stroke="#000000" d="M538.6071,-447.8314C531.5096,-439.454 522.952,-429.3531 515.176,-420.1749"/>
<polygon fill="#000000" stroke="#000000" points="517.7348,-417.7807 508.6001,-412.4133 512.3939,-422.3056 517.7348,-417.7807"/>
</g>
<!-- [root] google_compute_instance_group.video&#45;resources -->
<g id="node_8" class="node">
<title>[root] google_compute_instance_group.video&#45;resources</title>
<polygon fill="none" stroke="#000000" points="579,-394 579,-409 724,-409 724,-394 579,-394"/>
<text text-anchor="start" x="581.8887" y="-399.6" font-family="courier new" font-size="8.00" fill="#000000">google_compute_instance_group</text>
<polygon fill="none" stroke="#000000" points="579,-379 579,-394 724,-394 724,-379 579,-379"/>
<text text-anchor="start" x="615.4941" y="-384.6" font-family="courier new" font-size="8.00" fill="#000000">video&#45;resources</text>
</g>
<!-- [root] google_compute_backend_service.video&#45;service&#45;&gt;[root] google_compute_instance_group.video&#45;resources -->
<g id="edge_1" class="edge">
<title>[root] google_compute_backend_service.video&#45;service&#45;&gt;[root] google_compute_instance_group.video&#45;resources</title>
<path fill="none" stroke="#000000" d="M578.4772,-447.8314C590.5395,-438.8779 605.254,-427.9558 618.2686,-418.2955"/>
<polygon fill="#000000" stroke="#000000" points="620.587,-420.9335 626.5306,-412.1628 616.4148,-415.3127 620.587,-420.9335"/>
</g>
<!-- [root] google_compute_backend_service.www&#45;service -->
<g id="node_1" class="node">
<title>[root] google_compute_backend_service.www&#45;service</title>
<polygon fill="none" stroke="#000000" points="311,-466 311,-481 461,-481 461,-466 311,-466"/>
<text text-anchor="start" x="313.9883" y="-471.6" font-family="courier new" font-size="8.00" fill="#000000">google_compute_backend_service</text>
<polygon fill="none" stroke="#000000" points="311,-451 311,-466 461,-466 461,-451 311,-451"/>
<text text-anchor="start" x="359.5957" y="-456.6" font-family="courier new" font-size="8.00" fill="#000000">www&#45;service</text>
</g>
<!-- [root] google_compute_backend_service.www&#45;service&#45;&gt;[root] google_compute_health_check.health&#45;check -->
<g id="edge_2" class="edge">
<title>[root] google_compute_backend_service.www&#45;service&#45;&gt;[root] google_compute_health_check.health&#45;check</title>
<path fill="none" stroke="#000000" d="M413.0006,-447.8314C426.4331,-438.7927 442.8473,-427.7476 457.3039,-418.0198"/>
<polygon fill="#000000" stroke="#000000" points="459.6654,-420.6494 466.008,-412.1628 455.7575,-414.8418 459.6654,-420.6494"/>
</g>
<!-- [root] google_compute_instance_group.www&#45;resources -->
<g id="node_9" class="node">
<title>[root] google_compute_instance_group.www&#45;resources</title>
<polygon fill="none" stroke="#000000" points="263,-394 263,-409 408,-409 408,-394 263,-394"/>
<text text-anchor="start" x="265.8887" y="-399.6" font-family="courier new" font-size="8.00" fill="#000000">google_compute_instance_group</text>
<polygon fill="none" stroke="#000000" points="263,-379 263,-394 408,-394 408,-379 263,-379"/>
<text text-anchor="start" x="304.2949" y="-384.6" font-family="courier new" font-size="8.00" fill="#000000">www&#45;resources</text>
</g>
<!-- [root] google_compute_backend_service.www&#45;service&#45;&gt;[root] google_compute_instance_group.www&#45;resources -->
<g id="edge_3" class="edge">
<title>[root] google_compute_backend_service.www&#45;service&#45;&gt;[root] google_compute_instance_group.www&#45;resources</title>
<path fill="none" stroke="#000000" d="M373.1305,-447.8314C367.3165,-439.6232 360.3304,-429.7606 353.9354,-420.7323"/>
<polygon fill="#000000" stroke="#000000" points="356.679,-418.5505 348.0427,-412.4133 350.9669,-422.5966 356.679,-418.5505"/>
</g>
<!-- [root] google_compute_firewall.default -->
<g id="node_2" class="node">
<title>[root] google_compute_firewall.default</title>
<polygon fill="none" stroke="#000000" points="140,-754 140,-769 256,-769 256,-754 140,-754"/>
<text text-anchor="start" x="142.791" y="-759.6" font-family="courier new" font-size="8.00" fill="#000000">google_compute_firewall</text>
<polygon fill="none" stroke="#000000" points="140,-739 140,-754 256,-754 256,-739 140,-739"/>
<text text-anchor="start" x="181.1973" y="-744.6" font-family="courier new" font-size="8.00" fill="#000000">default</text>
</g>
<!-- [root] provider.google -->
<g id="node_12" class="node">
<title>[root] provider.google</title>
<polygon fill="none" stroke="#000000" points="313,-250 313,-265 357,-265 357,-250 313,-250"/>
<text text-anchor="start" x="315.7969" y="-255.6" font-family="courier new" font-size="8.00" fill="#000000">provider</text>
<polygon fill="none" stroke="#000000" points="313,-235 313,-250 357,-250 357,-235 313,-235"/>
<text text-anchor="start" x="320.5977" y="-240.6" font-family="courier new" font-size="8.00" fill="#000000">google</text>
</g>
<!-- [root] google_compute_firewall.default&#45;&gt;[root] provider.google -->
<g id="edge_4" class="edge">
<title>[root] google_compute_firewall.default&#45;&gt;[root] provider.google</title>
<path fill="none" stroke="#000000" d="M190.7895,-735.6867C180.8091,-708.6448 164,-656.2373 164,-610 164,-610 164,-610 164,-394 164,-324.3209 248.1001,-281.5517 298.3424,-262.2181"/>
<polygon fill="#000000" stroke="#000000" points="299.7512,-265.4285 307.9045,-258.6628 297.3117,-258.8673 299.7512,-265.4285"/>
</g>
<!-- [root] google_compute_global_address.external&#45;address -->
<g id="node_3" class="node">
<title>[root] google_compute_global_address.external&#45;address</title>
<polygon fill="none" stroke="#000000" points="193,-610 193,-625 338,-625 338,-610 193,-610"/>
<text text-anchor="start" x="195.8887" y="-615.6" font-family="courier new" font-size="8.00" fill="#000000">google_compute_global_address</text>
<polygon fill="none" stroke="#000000" points="193,-595 193,-610 338,-610 338,-595 193,-595"/>
<text text-anchor="start" x="227.0938" y="-600.6" font-family="courier new" font-size="8.00" fill="#000000">external&#45;address</text>
</g>
<!-- [root] google_compute_global_address.external&#45;address&#45;&gt;[root] provider.google -->
<g id="edge_5" class="edge">
<title>[root] google_compute_global_address.external&#45;address&#45;&gt;[root] provider.google</title>
<path fill="none" stroke="#000000" d="M258.4257,-591.6321C249.3259,-564.5223 234,-512.0309 234,-466 234,-466 234,-466 234,-394 234,-351.2408 242.9188,-338.6306 268,-304 276.6029,-292.1216 288.4607,-281.4123 299.8118,-272.7223"/>
<polygon fill="#000000" stroke="#000000" points="301.9413,-275.5009 307.9338,-266.7637 297.8006,-269.8569 301.9413,-275.5009"/>
</g>
<!-- [root] google_compute_global_forwarding_rule.default -->
<g id="node_4" class="node">
<title>[root] google_compute_global_forwarding_rule.default</title>
<polygon fill="none" stroke="#000000" points="193,-682 193,-697 376,-697 376,-682 193,-682"/>
<text text-anchor="start" x="195.6855" y="-687.6" font-family="courier new" font-size="8.00" fill="#000000">google_compute_global_forwarding_rule</text>
<polygon fill="none" stroke="#000000" points="193,-667 193,-682 376,-682 376,-667 193,-667"/>
<text text-anchor="start" x="267.6973" y="-672.6" font-family="courier new" font-size="8.00" fill="#000000">default</text>
</g>
<!-- [root] google_compute_global_forwarding_rule.default&#45;&gt;[root] google_compute_global_address.external&#45;address -->
<g id="edge_6" class="edge">
<title>[root] google_compute_global_forwarding_rule.default&#45;&gt;[root] google_compute_global_address.external&#45;address</title>
<path fill="none" stroke="#000000" d="M279.2055,-663.8314C277.1511,-656.0463 274.704,-646.7729 272.4244,-638.1347"/>
<polygon fill="#000000" stroke="#000000" points="275.7948,-637.1892 269.8591,-628.4133 269.0265,-638.9753 275.7948,-637.1892"/>
</g>
<!-- [root] google_compute_target_http_proxy.http&#45;lb&#45;proxy -->
<g id="node_10" class="node">
<title>[root] google_compute_target_http_proxy.http&#45;lb&#45;proxy</title>
<polygon fill="none" stroke="#000000" points="356,-610 356,-625 515,-625 515,-610 356,-610"/>
<text text-anchor="start" x="358.6875" y="-615.6" font-family="courier new" font-size="8.00" fill="#000000">google_compute_target_http_proxy</text>
<polygon fill="none" stroke="#000000" points="356,-595 356,-610 515,-610 515,-595 356,-595"/>
<text text-anchor="start" x="404.2949" y="-600.6" font-family="courier new" font-size="8.00" fill="#000000">http&#45;lb&#45;proxy</text>
</g>
<!-- [root] google_compute_global_forwarding_rule.default&#45;&gt;[root] google_compute_target_http_proxy.http&#45;lb&#45;proxy -->
<g id="edge_7" class="edge">
<title>[root] google_compute_global_forwarding_rule.default&#45;&gt;[root] google_compute_target_http_proxy.http&#45;lb&#45;proxy</title>
<path fill="none" stroke="#000000" d="M322.1037,-663.8314C342.1195,-654.2874 366.8267,-642.5065 388.0194,-632.4013"/>
<polygon fill="#000000" stroke="#000000" points="389.6503,-635.5013 397.1703,-628.038 386.6375,-629.1828 389.6503,-635.5013"/>
</g>
<!-- [root] google_compute_health_check.health&#45;check&#45;&gt;[root] provider.google -->
<g id="edge_8" class="edge">
<title>[root] google_compute_health_check.health&#45;check&#45;&gt;[root] provider.google</title>
<path fill="none" stroke="#000000" d="M475.0258,-375.7909C452.8525,-353.4044 416.3338,-316.805 402,-304 390.7933,-293.9887 378.0496,-283.5079 366.7068,-274.4722"/>
<polygon fill="#000000" stroke="#000000" points="368.7535,-271.6286 358.7371,-268.1756 364.4139,-277.1212 368.7535,-271.6286"/>
</g>
<!-- [root] google_compute_instance.www -->
<g id="node_6" class="node">
<title>[root] google_compute_instance.www</title>
<polygon fill="none" stroke="#000000" points="277,-322 277,-337 393,-337 393,-322 277,-322"/>
<text text-anchor="start" x="279.791" y="-327.6" font-family="courier new" font-size="8.00" fill="#000000">google_compute_instance</text>
<polygon fill="none" stroke="#000000" points="277,-307 277,-322 393,-322 393,-307 277,-307"/>
<text text-anchor="start" x="327.7988" y="-312.6" font-family="courier new" font-size="8.00" fill="#000000">www</text>
</g>
<!-- [root] google_compute_instance.www&#45;&gt;[root] provider.google -->
<g id="edge_9" class="edge">
<title>[root] google_compute_instance.www&#45;&gt;[root] provider.google</title>
<path fill="none" stroke="#000000" d="M335,-303.8314C335,-296.131 335,-286.9743 335,-278.4166"/>
<polygon fill="#000000" stroke="#000000" points="338.5001,-278.4132 335,-268.4133 331.5001,-278.4133 338.5001,-278.4132"/>
</g>
<!-- [root] var.region_zone -->
<g id="node_13" class="node">
<title>[root] var.region_zone</title>
<polygon fill="none" stroke="#000000" points="429,-250 429,-265 487,-265 487,-250 429,-250"/>
<text text-anchor="start" x="450.7988" y="-255.6" font-family="courier new" font-size="8.00" fill="#000000">var</text>
<polygon fill="none" stroke="#000000" points="429,-235 429,-250 487,-250 487,-235 429,-235"/>
<text text-anchor="start" x="431.5957" y="-240.6" font-family="courier new" font-size="8.00" fill="#000000">region_zone</text>
</g>
<!-- [root] google_compute_instance.www&#45;&gt;[root] var.region_zone -->
<g id="edge_10" class="edge">
<title>[root] google_compute_instance.www&#45;&gt;[root] var.region_zone</title>
<path fill="none" stroke="#000000" d="M366.0381,-303.8314C382.401,-294.253 402.613,-282.4217 419.9172,-272.2923"/>
<polygon fill="#000000" stroke="#000000" points="421.8034,-275.2439 428.6654,-267.1715 418.2671,-269.2027 421.8034,-275.2439"/>
</g>
<!-- [root] google_compute_instance.www&#45;video -->
<g id="node_7" class="node">
<title>[root] google_compute_instance.www&#45;video</title>
<polygon fill="none" stroke="#000000" points="449,-322 449,-337 565,-337 565,-322 449,-322"/>
<text text-anchor="start" x="451.791" y="-327.6" font-family="courier new" font-size="8.00" fill="#000000">google_compute_instance</text>
<polygon fill="none" stroke="#000000" points="449,-307 449,-322 565,-322 565,-307 449,-307"/>
<text text-anchor="start" x="485.3965" y="-312.6" font-family="courier new" font-size="8.00" fill="#000000">www&#45;video</text>
</g>
<!-- [root] google_compute_instance.www&#45;video&#45;&gt;[root] provider.google -->
<g id="edge_11" class="edge">
<title>[root] google_compute_instance.www&#45;video&#45;&gt;[root] provider.google</title>
<path fill="none" stroke="#000000" d="M463.5971,-303.8314C435.2343,-291.9585 398.6016,-276.6239 371.6939,-265.3603"/>
<polygon fill="#000000" stroke="#000000" points="372.8298,-262.0415 362.2539,-261.4086 370.1268,-268.4986 372.8298,-262.0415"/>
</g>
<!-- [root] google_compute_instance.www&#45;video&#45;&gt;[root] var.region_zone -->
<g id="edge_12" class="edge">
<title>[root] google_compute_instance.www&#45;video&#45;&gt;[root] var.region_zone</title>
<path fill="none" stroke="#000000" d="M494.6352,-303.8314C489.0491,-295.6232 482.337,-285.7606 476.1928,-276.7323"/>
<polygon fill="#000000" stroke="#000000" points="479.051,-274.7112 470.5313,-268.4133 473.264,-278.6496 479.051,-274.7112"/>
</g>
<!-- [root] google_compute_instance_group.video&#45;resources&#45;&gt;[root] google_compute_instance.www&#45;video -->
<g id="edge_13" class="edge">
<title>[root] google_compute_instance_group.video&#45;resources&#45;&gt;[root] google_compute_instance.www&#45;video</title>
<path fill="none" stroke="#000000" d="M614.6627,-375.8314C595.6604,-366.3302 572.2242,-354.6121 552.0748,-344.5374"/>
<polygon fill="#000000" stroke="#000000" points="553.5855,-341.3797 543.076,-340.038 550.455,-347.6407 553.5855,-341.3797"/>
</g>
<!-- [root] google_compute_instance_group.www&#45;resources&#45;&gt;[root] google_compute_instance.www -->
<g id="edge_14" class="edge">
<title>[root] google_compute_instance_group.www&#45;resources&#45;&gt;[root] google_compute_instance.www</title>
<path fill="none" stroke="#000000" d="M335,-375.8314C335,-368.131 335,-358.9743 335,-350.4166"/>
<polygon fill="#000000" stroke="#000000" points="338.5001,-350.4132 335,-340.4133 331.5001,-350.4133 338.5001,-350.4132"/>
</g>
<!-- [root] google_compute_url_map.web&#45;map -->
<g id="node_11" class="node">
<title>[root] google_compute_url_map.web&#45;map</title>
<polygon fill="none" stroke="#000000" points="380,-538 380,-553 491,-553 491,-538 380,-538"/>
<text text-anchor="start" x="382.6914" y="-543.6" font-family="courier new" font-size="8.00" fill="#000000">google_compute_url_map</text>
<polygon fill="none" stroke="#000000" points="380,-523 380,-538 491,-538 491,-523 380,-523"/>
<text text-anchor="start" x="418.6973" y="-528.6" font-family="courier new" font-size="8.00" fill="#000000">web&#45;map</text>
</g>
<!-- [root] google_compute_target_http_proxy.http&#45;lb&#45;proxy&#45;&gt;[root] google_compute_url_map.web&#45;map -->
<g id="edge_15" class="edge">
<title>[root] google_compute_target_http_proxy.http&#45;lb&#45;proxy&#45;&gt;[root] google_compute_url_map.web&#45;map</title>
<path fill="none" stroke="#000000" d="M435,-591.8314C435,-584.131 435,-574.9743 435,-566.4166"/>
<polygon fill="#000000" stroke="#000000" points="438.5001,-566.4132 435,-556.4133 431.5001,-566.4133 438.5001,-566.4132"/>
</g>
<!-- [root] google_compute_url_map.web&#45;map&#45;&gt;[root] google_compute_backend_service.video&#45;service -->
<g id="edge_16" class="edge">
<title>[root] google_compute_url_map.web&#45;map&#45;&gt;[root] google_compute_backend_service.video&#45;service</title>
<path fill="none" stroke="#000000" d="M465.0287,-519.8314C480.2496,-510.6221 498.9128,-499.3301 515.2083,-489.4706"/>
<polygon fill="#000000" stroke="#000000" points="517.2369,-492.3341 523.9809,-484.1628 513.6132,-486.345 517.2369,-492.3341"/>
</g>
<!-- [root] google_compute_url_map.web&#45;map&#45;&gt;[root] google_compute_backend_service.www&#45;service -->
<g id="edge_17" class="edge">
<title>[root] google_compute_url_map.web&#45;map&#45;&gt;[root] google_compute_backend_service.www&#45;service</title>
<path fill="none" stroke="#000000" d="M422.6352,-519.8314C417.0491,-511.6232 410.337,-501.7606 404.1928,-492.7323"/>
<polygon fill="#000000" stroke="#000000" points="407.051,-490.7112 398.5313,-484.4133 401.264,-494.6496 407.051,-490.7112"/>
</g>
<!-- [root] var.credentials_file_path -->
<g id="node_17" class="node">
<title>[root] var.credentials_file_path</title>
<polygon fill="none" stroke="#000000" points="282,-178 282,-193 388,-193 388,-178 282,-178"/>
<text text-anchor="start" x="327.7988" y="-183.6" font-family="courier new" font-size="8.00" fill="#000000">var</text>
<polygon fill="none" stroke="#000000" points="282,-163 282,-178 388,-178 388,-163 282,-163"/>
<text text-anchor="start" x="284.5918" y="-168.6" font-family="courier new" font-size="8.00" fill="#000000">credentials_file_path</text>
</g>
<!-- [root] provider.google&#45;&gt;[root] var.credentials_file_path -->
<g id="edge_23" class="edge">
<title>[root] provider.google&#45;&gt;[root] var.credentials_file_path</title>
<path fill="none" stroke="#000000" d="M335,-231.8314C335,-224.131 335,-214.9743 335,-206.4166"/>
<polygon fill="#000000" stroke="#000000" points="338.5001,-206.4132 335,-196.4133 331.5001,-206.4133 338.5001,-206.4132"/>
</g>
<!-- [root] meta.count&#45;boundary (count boundary fixup) -->
<g id="node_14" class="node">
<title>[root] meta.count&#45;boundary (count boundary fixup)</title>
<polygon fill="none" stroke="#000000" points="121,-826 121,-841 194,-841 194,-826 121,-826"/>
<text text-anchor="start" x="147.8984" y="-831.6" font-family="courier new" font-size="8.00" fill="#000000">meta</text>
<polygon fill="none" stroke="#000000" points="121,-811 121,-826 194,-826 194,-811 121,-811"/>
<text text-anchor="start" x="123.8945" y="-816.6" font-family="courier new" font-size="8.00" fill="#000000">count&#45;boundary</text>
</g>
<!-- [root] meta.count&#45;boundary (count boundary fixup)&#45;&gt;[root] google_compute_firewall.default -->
<g id="edge_18" class="edge">
<title>[root] meta.count&#45;boundary (count boundary fixup)&#45;&gt;[root] google_compute_firewall.default</title>
<path fill="none" stroke="#000000" d="M167.346,-807.8314C171.9237,-799.7925 177.4052,-790.1666 182.4588,-781.2918"/>
<polygon fill="#000000" stroke="#000000" points="185.6077,-782.8351 187.5147,-772.4133 179.5248,-779.3712 185.6077,-782.8351"/>
</g>
<!-- [root] output.application_public_ip -->
<g id="node_15" class="node">
<title>[root] output.application_public_ip</title>
<polygon fill="none" stroke="#000000" points="16,-754 16,-769 122,-769 122,-754 16,-754"/>
<text text-anchor="start" x="54.5977" y="-759.6" font-family="courier new" font-size="8.00" fill="#000000">output</text>
<polygon fill="none" stroke="#000000" points="16,-739 16,-754 122,-754 122,-739 16,-739"/>
<text text-anchor="start" x="18.5918" y="-744.6" font-family="courier new" font-size="8.00" fill="#000000">application_public_ip</text>
</g>
<!-- [root] meta.count&#45;boundary (count boundary fixup)&#45;&gt;[root] output.application_public_ip -->
<g id="edge_19" class="edge">
<title>[root] meta.count&#45;boundary (count boundary fixup)&#45;&gt;[root] output.application_public_ip</title>
<path fill="none" stroke="#000000" d="M134.7939,-807.8314C123.955,-798.9632 110.7556,-788.1637 99.0322,-778.5718"/>
<polygon fill="#000000" stroke="#000000" points="101.155,-775.7864 91.199,-772.1628 96.7223,-781.2041 101.155,-775.7864"/>
</g>
<!-- [root] provider.google (close) -->
<g id="node_16" class="node">
<title>[root] provider.google (close)</title>
<polygon fill="none" stroke="#000000" points="217,-826 217,-841 261,-841 261,-826 217,-826"/>
<text text-anchor="start" x="219.7969" y="-831.6" font-family="courier new" font-size="8.00" fill="#000000">provider</text>
<polygon fill="none" stroke="#000000" points="217,-811 217,-826 261,-826 261,-811 217,-811"/>
<text text-anchor="start" x="224.5977" y="-816.6" font-family="courier new" font-size="8.00" fill="#000000">google</text>
</g>
<!-- [root] provider.google (close)&#45;&gt;[root] google_compute_firewall.default -->
<g id="edge_21" class="edge">
<title>[root] provider.google (close)&#45;&gt;[root] google_compute_firewall.default</title>
<path fill="none" stroke="#000000" d="M228.654,-807.8314C224.0763,-799.7925 218.5948,-790.1666 213.5412,-781.2918"/>
<polygon fill="#000000" stroke="#000000" points="216.4752,-779.3712 208.4853,-772.4133 210.3923,-782.8351 216.4752,-779.3712"/>
</g>
<!-- [root] provider.google (close)&#45;&gt;[root] google_compute_global_forwarding_rule.default -->
<g id="edge_22" class="edge">
<title>[root] provider.google (close)&#45;&gt;[root] google_compute_global_forwarding_rule.default</title>
<path fill="none" stroke="#000000" d="M251.0534,-807.8613C256.0277,-799.6507 261.4482,-789.6409 265,-780 273.3793,-757.2551 278.274,-730.1113 280.9905,-710.1642"/>
<polygon fill="#000000" stroke="#000000" points="284.4716,-710.5337 282.2517,-700.1741 277.5267,-709.6569 284.4716,-710.5337"/>
</g>
<!-- [root] root -->
<g id="node_20" class="node">
<title>[root] root</title>
<polygon fill="none" stroke="#000000" points="232.3089,-916 163.6911,-916 163.6911,-880 232.3089,-880 232.3089,-916"/>
<text text-anchor="middle" x="198" y="-896.1313" font-family="courier new" font-size="8.00" fill="#000000">[root] root</text>
</g>
<!-- [root] root&#45;&gt;[root] meta.count&#45;boundary (count boundary fixup) -->
<g id="edge_26" class="edge">
<title>[root] root&#45;&gt;[root] meta.count&#45;boundary (count boundary fixup)</title>
<path fill="none" stroke="#000000" d="M187.654,-879.8314C183.0763,-871.7925 177.5948,-862.1666 172.5412,-853.2918"/>
<polygon fill="#000000" stroke="#000000" points="175.4752,-851.3712 167.4853,-844.4133 169.3923,-854.8351 175.4752,-851.3712"/>
</g>
<!-- [root] root&#45;&gt;[root] provider.google (close) -->
<g id="edge_27" class="edge">
<title>[root] root&#45;&gt;[root] provider.google (close)</title>
<path fill="none" stroke="#000000" d="M208.346,-879.8314C212.9237,-871.7925 218.4052,-862.1666 223.4588,-853.2918"/>
<polygon fill="#000000" stroke="#000000" points="226.6077,-854.8351 228.5147,-844.4133 220.5248,-851.3712 226.6077,-854.8351"/>
</g>
<!-- [root] var.project_name -->
<g id="node_18" class="node">
<title>[root] var.project_name</title>
<polygon fill="none" stroke="#000000" points="304,-106 304,-121 367,-121 367,-106 304,-106"/>
<text text-anchor="start" x="328.2988" y="-111.6" font-family="courier new" font-size="8.00" fill="#000000">var</text>
<polygon fill="none" stroke="#000000" points="304,-91 304,-106 367,-106 367,-91 304,-91"/>
<text text-anchor="start" x="306.6953" y="-96.6" font-family="courier new" font-size="8.00" fill="#000000">project_name</text>
</g>
<!-- [root] var.credentials_file_path&#45;&gt;[root] var.project_name -->
<g id="edge_32" class="edge">
<title>[root] var.credentials_file_path&#45;&gt;[root] var.project_name</title>
<path fill="none" stroke="#000000" stroke-dasharray="5,2" d="M335,-159.8314C335,-149 335,-135.2876 335,-124.4133"/>
</g>
<!-- [root] var.region -->
<g id="node_19" class="node">
<title>[root] var.region</title>
<polygon fill="none" stroke="#000000" points="318,-34 318,-49 352,-49 352,-34 318,-34"/>
<text text-anchor="start" x="327.7988" y="-39.6" font-family="courier new" font-size="8.00" fill="#000000">var</text>
<polygon fill="none" stroke="#000000" points="318,-19 318,-34 352,-34 352,-19 318,-19"/>
<text text-anchor="start" x="320.5977" y="-24.6" font-family="courier new" font-size="8.00" fill="#000000">region</text>
</g>
<!-- [root] var.project_name&#45;&gt;[root] var.region -->
<g id="edge_33" class="edge">
<title>[root] var.project_name&#45;&gt;[root] var.region</title>
<path fill="none" stroke="#000000" stroke-dasharray="5,2" d="M335,-87.8314C335,-77 335,-63.2876 335,-52.4133"/>
</g>
<!-- [root] output.application_public_ip&#45;&gt;[root] google_compute_global_forwarding_rule.default -->
<g id="edge_20" class="edge">
<title>[root] output.application_public_ip&#45;&gt;[root] google_compute_global_forwarding_rule.default</title>
<path fill="none" stroke="#000000" d="M110.4521,-735.9115C117.2705,-733.1402 124.2986,-730.405 131,-728 156.0064,-719.0256 183.7194,-710.3271 208.6127,-702.9544"/>
<polygon fill="#000000" stroke="#000000" points="209.7554,-706.2668 218.3641,-700.091 207.783,-699.5504 209.7554,-706.2668"/>
</g>
</g>
</svg>

