<?xml version="1.0" encoding="UTF-8" standalone="no"?>
<!DOCTYPE svg PUBLIC "-//W3C//DTD SVG 1.1//EN"
 "http://www.w3.org/Graphics/SVG/1.1/DTD/svg11.dtd">
<!-- Generated by graphviz version 2.40.1 (20161225.0304)
 -->
<!-- Title: %3 Pages: 1 -->
<svg width="636pt" height="764pt"
 viewBox="0.00 0.00 635.86 764.00" xmlns="http://www.w3.org/2000/svg" xmlns:xlink="http://www.w3.org/1999/xlink">
<g id="graph0" class="graph" transform="scale(1 1) rotate(0) translate(4 760)">
<title>%3</title>
<polygon fill="#ffffff" stroke="transparent" points="-4,4 -4,-760 631.8606,-760 631.8606,4 -4,4"/>
<!-- [root] google_compute_backend_service.video&#45;service -->
<g id="node_0" class="node">
<title>[root] google_compute_backend_service.video&#45;service</title>
<polygon fill="none" stroke="#000000" points="387.3606,-306 387.3606,-321 537.3606,-321 537.3606,-306 387.3606,-306"/>
<text text-anchor="start" x="390.3489" y="-311.6" font-family="courier new" font-size="8.00" fill="#000000">google_compute_backend_service</text>
<polygon fill="none" stroke="#000000" points="387.3606,-291 387.3606,-306 537.3606,-306 537.3606,-291 387.3606,-291"/>
<text text-anchor="start" x="431.1555" y="-296.6" font-family="courier new" font-size="8.00" fill="#000000">video&#45;service</text>
</g>
<!-- [root] google_compute_health_check.health&#45;check -->
<g id="node_5" class="node">
<title>[root] google_compute_health_check.health&#45;check</title>
<polygon fill="none" stroke="#000000" points="330.3606,-234 330.3606,-249 465.3606,-249 465.3606,-234 330.3606,-234"/>
<text text-anchor="start" x="333.0501" y="-239.6" font-family="courier new" font-size="8.00" fill="#000000">google_compute_health_check</text>
<polygon fill="none" stroke="#000000" points="330.3606,-219 330.3606,-234 465.3606,-234 465.3606,-219 330.3606,-219"/>
<text text-anchor="start" x="369.0559" y="-224.6" font-family="courier new" font-size="8.00" fill="#000000">health&#45;check</text>
</g>
<!-- [root] google_compute_backend_service.video&#45;service&#45;&gt;[root] google_compute_health_check.health&#45;check -->
<g id="edge_0" class="edge">
<title>[root] google_compute_backend_service.video&#45;service&#45;&gt;[root] google_compute_health_check.health&#45;check</title>
<path fill="none" stroke="#000000" d="M445.9584,-287.8314C438.3191,-279.3694 429.0923,-269.1489 420.7399,-259.8971"/>
<polygon fill="#000000" stroke="#000000" points="423.2827,-257.4906 413.9837,-252.4133 418.0868,-262.1813 423.2827,-257.4906"/>
</g>
<!-- [root] google_compute_instance_group.video&#45;resources -->
<g id="node_8" class="node">
<title>[root] google_compute_instance_group.video&#45;resources</title>
<polygon fill="none" stroke="#000000" points="483.3606,-234 483.3606,-249 628.3606,-249 628.3606,-234 483.3606,-234"/>
<text text-anchor="start" x="486.2493" y="-239.6" font-family="courier new" font-size="8.00" fill="#000000">google_compute_instance_group</text>
<polygon fill="none" stroke="#000000" points="483.3606,-219 483.3606,-234 628.3606,-234 628.3606,-219 483.3606,-219"/>
<text text-anchor="start" x="519.8548" y="-224.6" font-family="courier new" font-size="8.00" fill="#000000">video&#45;resources</text>
</g>
<!-- [root] google_compute_backend_service.video&#45;service&#45;&gt;[root] google_compute_instance_group.video&#45;resources -->
<g id="edge_1" class="edge">
<title>[root] google_compute_backend_service.video&#45;service&#45;&gt;[root] google_compute_instance_group.video&#45;resources</title>
<path fill="none" stroke="#000000" d="M485.8284,-287.8314C497.3933,-278.8779 511.501,-267.9558 523.979,-258.2955"/>
<polygon fill="#000000" stroke="#000000" points="526.1357,-261.0521 531.9003,-252.1628 521.8504,-255.5171 526.1357,-261.0521"/>
</g>
<!-- [root] google_compute_backend_service.www&#45;service -->
<g id="node_1" class="node">
<title>[root] google_compute_backend_service.www&#45;service</title>
<polygon fill="none" stroke="#000000" points="219.3606,-306 219.3606,-321 369.3606,-321 369.3606,-306 219.3606,-306"/>
<text text-anchor="start" x="222.3489" y="-311.6" font-family="courier new" font-size="8.00" fill="#000000">google_compute_backend_service</text>
<polygon fill="none" stroke="#000000" points="219.3606,-291 219.3606,-306 369.3606,-306 369.3606,-291 219.3606,-291"/>
<text text-anchor="start" x="267.9563" y="-296.6" font-family="courier new" font-size="8.00" fill="#000000">www&#45;service</text>
</g>
<!-- [root] google_compute_backend_service.www&#45;service&#45;&gt;[root] google_compute_health_check.health&#45;check -->
<g id="edge_2" class="edge">
<title>[root] google_compute_backend_service.www&#45;service&#45;&gt;[root] google_compute_health_check.health&#45;check</title>
<path fill="none" stroke="#000000" d="M320.3519,-287.8314C333.2822,-278.7927 349.0828,-267.7476 362.9989,-258.0198"/>
<polygon fill="#000000" stroke="#000000" points="365.1869,-260.7608 371.3777,-252.1628 361.1763,-255.0235 365.1869,-260.7608"/>
</g>
<!-- [root] google_compute_instance_group.www&#45;resources -->
<g id="node_9" class="node">
<title>[root] google_compute_instance_group.www&#45;resources</title>
<polygon fill="none" stroke="#000000" points="167.3606,-234 167.3606,-249 312.3606,-249 312.3606,-234 167.3606,-234"/>
<text text-anchor="start" x="170.2493" y="-239.6" font-family="courier new" font-size="8.00" fill="#000000">google_compute_instance_group</text>
<polygon fill="none" stroke="#000000" points="167.3606,-219 167.3606,-234 312.3606,-234 312.3606,-219 167.3606,-219"/>
<text text-anchor="start" x="208.6555" y="-224.6" font-family="courier new" font-size="8.00" fill="#000000">www&#45;resources</text>
</g>
<!-- [root] google_compute_backend_service.www&#45;service&#45;&gt;[root] google_compute_instance_group.www&#45;resources -->
<g id="edge_3" class="edge">
<title>[root] google_compute_backend_service.www&#45;service&#45;&gt;[root] google_compute_instance_group.www&#45;resources</title>
<path fill="none" stroke="#000000" d="M280.4818,-287.8314C274.1471,-279.5386 266.5222,-269.557 259.568,-260.4533"/>
<polygon fill="#000000" stroke="#000000" points="262.2781,-258.2353 253.4263,-252.4133 256.7154,-262.4847 262.2781,-258.2353"/>
</g>
<!-- [root] google_compute_firewall.default -->
<g id="node_2" class="node">
<title>[root] google_compute_firewall.default</title>
<polygon fill="none" stroke="#000000" points="16.3606,-594 16.3606,-609 132.3606,-609 132.3606,-594 16.3606,-594"/>
<text text-anchor="start" x="19.1516" y="-599.6" font-family="courier new" font-size="8.00" fill="#000000">google_compute_firewall</text>
<polygon fill="none" stroke="#000000" points="16.3606,-579 16.3606,-594 132.3606,-594 132.3606,-579 16.3606,-579"/>
<text text-anchor="start" x="57.5579" y="-584.6" font-family="courier new" font-size="8.00" fill="#000000">default</text>
</g>
<!-- [root] provider.google -->
<g id="node_12" class="node">
<title>[root] provider.google</title>
<polygon fill="none" stroke="#000000" points="217.3606,-90 217.3606,-105 261.3606,-105 261.3606,-90 217.3606,-90"/>
<text text-anchor="start" x="220.1575" y="-95.6" font-family="courier new" font-size="8.00" fill="#000000">provider</text>
<polygon fill="none" stroke="#000000" points="217.3606,-75 217.3606,-90 261.3606,-90 261.3606,-75 217.3606,-75"/>
<text text-anchor="start" x="224.9583" y="-80.6" font-family="courier new" font-size="8.00" fill="#000000">google</text>
</g>
<!-- [root] google_compute_firewall.default&#45;&gt;[root] provider.google -->
<g id="edge_4" class="edge">
<title>[root] google_compute_firewall.default&#45;&gt;[root] provider.google</title>
<path fill="none" stroke="#000000" d="M74.3606,-575.8146C74.3606,-548.4983 74.3606,-495.25 74.3606,-450 74.3606,-450 74.3606,-450 74.3606,-234 74.3606,-166.4165 153.911,-123.2606 202.54,-103.1932"/>
<polygon fill="#000000" stroke="#000000" points="204.1228,-106.3301 212.1142,-99.374 201.5291,-99.8283 204.1228,-106.3301"/>
</g>
<!-- [root] google_compute_global_address.external&#45;address -->
<g id="node_3" class="node">
<title>[root] google_compute_global_address.external&#45;address</title>
<polygon fill="none" stroke="#000000" points="103.3606,-378 103.3606,-393 248.3606,-393 248.3606,-378 103.3606,-378"/>
<text text-anchor="start" x="106.2493" y="-383.6" font-family="courier new" font-size="8.00" fill="#000000">google_compute_global_address</text>
<polygon fill="none" stroke="#000000" points="103.3606,-363 103.3606,-378 248.3606,-378 248.3606,-363 103.3606,-363"/>
<text text-anchor="start" x="137.4544" y="-368.6" font-family="courier new" font-size="8.00" fill="#000000">external&#45;address</text>
</g>
<!-- [root] google_compute_global_address.external&#45;address&#45;&gt;[root] provider.google -->
<g id="edge_5" class="edge">
<title>[root] google_compute_global_address.external&#45;address&#45;&gt;[root] provider.google</title>
<path fill="none" stroke="#000000" d="M169.1046,-359.8851C155.9018,-318.1887 129.7523,-213.6661 172.3606,-144 180.2012,-131.1804 192.2239,-120.0982 203.932,-111.3672"/>
<polygon fill="#000000" stroke="#000000" points="206.1861,-114.0603 212.3374,-105.4341 202.1493,-108.3415 206.1861,-114.0603"/>
</g>
<!-- [root] google_compute_global_forwarding_rule.default -->
<g id="node_4" class="node">
<title>[root] google_compute_global_forwarding_rule.default</title>
<polygon fill="none" stroke="#000000" points="107.3606,-522 107.3606,-537 290.3606,-537 290.3606,-522 107.3606,-522"/>
<text text-anchor="start" x="110.0462" y="-527.6" font-family="courier new" font-size="8.00" fill="#000000">google_compute_global_forwarding_rule</text>
<polygon fill="none" stroke="#000000" points="107.3606,-507 107.3606,-522 290.3606,-522 290.3606,-507 107.3606,-507"/>
<text text-anchor="start" x="182.0579" y="-512.6" font-family="courier new" font-size="8.00" fill="#000000">default</text>
</g>
<!-- [root] google_compute_global_forwarding_rule.default&#45;&gt;[root] google_compute_global_address.external&#45;address -->
<g id="edge_6" class="edge">
<title>[root] google_compute_global_forwarding_rule.default&#45;&gt;[root] google_compute_global_address.external&#45;address</title>
<path fill="none" stroke="#000000" d="M195.4477,-503.7623C191.5074,-479.0928 184.4424,-434.8598 179.8285,-405.9731"/>
<polygon fill="#000000" stroke="#000000" points="183.2834,-405.4124 178.2499,-396.0896 176.3711,-406.5165 183.2834,-405.4124"/>
</g>
<!-- [root] google_compute_target_http_proxy.http&#45;lb&#45;proxy -->
<g id="node_10" class="node">
<title>[root] google_compute_target_http_proxy.http&#45;lb&#45;proxy</title>
<polygon fill="none" stroke="#000000" points="232.3606,-450 232.3606,-465 391.3606,-465 391.3606,-450 232.3606,-450"/>
<text text-anchor="start" x="235.0481" y="-455.6" font-family="courier new" font-size="8.00" fill="#000000">google_compute_target_http_proxy</text>
<polygon fill="none" stroke="#000000" points="232.3606,-435 232.3606,-450 391.3606,-450 391.3606,-435 232.3606,-435"/>
<text text-anchor="start" x="280.6555" y="-440.6" font-family="courier new" font-size="8.00" fill="#000000">http&#45;lb&#45;proxy</text>
</g>
<!-- [root] google_compute_global_forwarding_rule.default&#45;&gt;[root] google_compute_target_http_proxy.http&#45;lb&#45;proxy -->
<g id="edge_7" class="edge">
<title>[root] google_compute_global_forwarding_rule.default&#45;&gt;[root] google_compute_target_http_proxy.http&#45;lb&#45;proxy</title>
<path fill="none" stroke="#000000" d="M226.8753,-503.8314C241.1949,-494.7074 258.723,-483.539 274.0944,-473.7449"/>
<polygon fill="#000000" stroke="#000000" points="276.3023,-476.4882 282.8551,-468.1628 272.5407,-470.5847 276.3023,-476.4882"/>
</g>
<!-- [root] google_compute_health_check.health&#45;check&#45;&gt;[root] provider.google -->
<g id="edge_8" class="edge">
<title>[root] google_compute_health_check.health&#45;check&#45;&gt;[root] provider.google</title>
<path fill="none" stroke="#000000" d="M379.3865,-215.7909C357.2131,-193.4044 320.6945,-156.805 306.3606,-144 295.154,-133.9887 282.4103,-123.5079 271.0675,-114.4722"/>
<polygon fill="#000000" stroke="#000000" points="273.1141,-111.6286 263.0977,-108.1756 268.7745,-117.1212 273.1141,-111.6286"/>
</g>
<!-- [root] google_compute_instance.www -->
<g id="node_6" class="node">
<title>[root] google_compute_instance.www</title>
<polygon fill="none" stroke="#000000" points="181.3606,-162 181.3606,-177 297.3606,-177 297.3606,-162 181.3606,-162"/>
<text text-anchor="start" x="184.1516" y="-167.6" font-family="courier new" font-size="8.00" fill="#000000">google_compute_instance</text>
<polygon fill="none" stroke="#000000" points="181.3606,-147 181.3606,-162 297.3606,-162 297.3606,-147 181.3606,-147"/>
<text text-anchor="start" x="232.1594" y="-152.6" font-family="courier new" font-size="8.00" fill="#000000">www</text>
</g>
<!-- [root] google_compute_instance.www&#45;&gt;[root] provider.google -->
<g id="edge_9" class="edge">
<title>[root] google_compute_instance.www&#45;&gt;[root] provider.google</title>
<path fill="none" stroke="#000000" d="M239.3606,-143.8314C239.3606,-136.131 239.3606,-126.9743 239.3606,-118.4166"/>
<polygon fill="#000000" stroke="#000000" points="242.8607,-118.4132 239.3606,-108.4133 235.8607,-118.4133 242.8607,-118.4132"/>
</g>
<!-- [root] var.region_zone -->
<g id="node_13" class="node">
<title>[root] var.region_zone</title>
<polygon fill="none" stroke="#000000" points="333.3606,-90 333.3606,-105 391.3606,-105 391.3606,-90 333.3606,-90"/>
<text text-anchor="start" x="355.1594" y="-95.6" font-family="courier new" font-size="8.00" fill="#000000">var</text>
<polygon fill="none" stroke="#000000" points="333.3606,-75 333.3606,-90 391.3606,-90 391.3606,-75 333.3606,-75"/>
<text text-anchor="start" x="335.9563" y="-80.6" font-family="courier new" font-size="8.00" fill="#000000">region_zone</text>
</g>
<!-- [root] google_compute_instance.www&#45;&gt;[root] var.region_zone -->
<g id="edge_10" class="edge">
<title>[root] google_compute_instance.www&#45;&gt;[root] var.region_zone</title>
<path fill="none" stroke="#000000" d="M270.3987,-143.8314C286.7617,-134.253 306.9736,-122.4217 324.2779,-112.2923"/>
<polygon fill="#000000" stroke="#000000" points="326.164,-115.2439 333.026,-107.1715 322.6277,-109.2027 326.164,-115.2439"/>
</g>
<!-- [root] google_compute_instance.www&#45;video -->
<g id="node_7" class="node">
<title>[root] google_compute_instance.www&#45;video</title>
<polygon fill="none" stroke="#000000" points="353.3606,-162 353.3606,-177 469.3606,-177 469.3606,-162 353.3606,-162"/>
<text text-anchor="start" x="356.1516" y="-167.6" font-family="courier new" font-size="8.00" fill="#000000">google_compute_instance</text>
<polygon fill="none" stroke="#000000" points="353.3606,-147 353.3606,-162 469.3606,-162 469.3606,-147 353.3606,-147"/>
<text text-anchor="start" x="389.7571" y="-152.6" font-family="courier new" font-size="8.00" fill="#000000">www&#45;video</text>
</g>
<!-- [root] google_compute_instance.www&#45;video&#45;&gt;[root] provider.google -->
<g id="edge_11" class="edge">
<title>[root] google_compute_instance.www&#45;video&#45;&gt;[root] provider.google</title>
<path fill="none" stroke="#000000" d="M367.9578,-143.8314C339.5949,-131.9585 302.9622,-116.6239 276.0546,-105.3603"/>
<polygon fill="#000000" stroke="#000000" points="277.1904,-102.0415 266.6145,-101.4086 274.4874,-108.4986 277.1904,-102.0415"/>
</g>
<!-- [root] google_compute_instance.www&#45;video&#45;&gt;[root] var.region_zone -->
<g id="edge_12" class="edge">
<title>[root] google_compute_instance.www&#45;video&#45;&gt;[root] var.region_zone</title>
<path fill="none" stroke="#000000" d="M398.9958,-143.8314C393.4098,-135.6232 386.6977,-125.7606 380.5534,-116.7323"/>
<polygon fill="#000000" stroke="#000000" points="383.4117,-114.7112 374.8919,-108.4133 377.6247,-118.6496 383.4117,-114.7112"/>
</g>
<!-- [root] google_compute_instance_group.video&#45;resources&#45;&gt;[root] google_compute_instance.www&#45;video -->
<g id="edge_13" class="edge">
<title>[root] google_compute_instance_group.video&#45;resources&#45;&gt;[root] google_compute_instance.www&#45;video</title>
<path fill="none" stroke="#000000" d="M519.0233,-215.8314C500.021,-206.3302 476.5848,-194.6121 456.4354,-184.5374"/>
<polygon fill="#000000" stroke="#000000" points="457.9461,-181.3797 447.4366,-180.038 454.8156,-187.6407 457.9461,-181.3797"/>
</g>
<!-- [root] google_compute_instance_group.www&#45;resources&#45;&gt;[root] google_compute_instance.www -->
<g id="edge_14" class="edge">
<title>[root] google_compute_instance_group.www&#45;resources&#45;&gt;[root] google_compute_instance.www</title>
<path fill="none" stroke="#000000" d="M239.3606,-215.8314C239.3606,-208.131 239.3606,-198.9743 239.3606,-190.4166"/>
<polygon fill="#000000" stroke="#000000" points="242.8607,-190.4132 239.3606,-180.4133 235.8607,-190.4133 242.8607,-190.4132"/>
</g>
<!-- [root] google_compute_url_map.web&#45;map -->
<g id="node_11" class="node">
<title>[root] google_compute_url_map.web&#45;map</title>
<polygon fill="none" stroke="#000000" points="266.3606,-378 266.3606,-393 377.3606,-393 377.3606,-378 266.3606,-378"/>
<text text-anchor="start" x="269.052" y="-383.6" font-family="courier new" font-size="8.00" fill="#000000">google_compute_url_map</text>
<polygon fill="none" stroke="#000000" points="266.3606,-363 266.3606,-378 377.3606,-378 377.3606,-363 266.3606,-363"/>
<text text-anchor="start" x="305.0579" y="-368.6" font-family="courier new" font-size="8.00" fill="#000000">web&#45;map</text>
</g>
<!-- [root] google_compute_target_http_proxy.http&#45;lb&#45;proxy&#45;&gt;[root] google_compute_url_map.web&#45;map -->
<g id="edge_15" class="edge">
<title>[root] google_compute_target_http_proxy.http&#45;lb&#45;proxy&#45;&gt;[root] google_compute_url_map.web&#45;map</title>
<path fill="none" stroke="#000000" d="M313.884,-431.8314C314.9535,-424.131 316.2253,-414.9743 317.4139,-406.4166"/>
<polygon fill="#000000" stroke="#000000" points="320.8942,-406.7997 318.8032,-396.4133 313.9607,-405.8367 320.8942,-406.7997"/>
</g>
<!-- [root] google_compute_url_map.web&#45;map&#45;&gt;[root] google_compute_backend_service.video&#45;service -->
<g id="edge_16" class="edge">
<title>[root] google_compute_url_map.web&#45;map&#45;&gt;[root] google_compute_backend_service.video&#45;service</title>
<path fill="none" stroke="#000000" d="M356.9409,-359.8314C375.3931,-350.4089 398.1151,-338.8062 417.7336,-328.7883"/>
<polygon fill="#000000" stroke="#000000" points="419.4774,-331.8278 426.7917,-324.1628 416.2939,-325.5935 419.4774,-331.8278"/>
</g>
<!-- [root] google_compute_url_map.web&#45;map&#45;&gt;[root] google_compute_backend_service.www&#45;service -->
<g id="edge_17" class="edge">
<title>[root] google_compute_url_map.web&#45;map&#45;&gt;[root] google_compute_backend_service.www&#45;service</title>
<path fill="none" stroke="#000000" d="M314.5474,-359.8314C311.5963,-351.9617 308.0748,-342.5712 304.8056,-333.8533"/>
<polygon fill="#000000" stroke="#000000" points="308.054,-332.5476 301.2656,-324.4133 301.4997,-335.0055 308.054,-332.5476"/>
</g>
<!-- [root] var.credentials_file_path -->
<g id="node_17" class="node">
<title>[root] var.credentials_file_path</title>
<polygon fill="none" stroke="#000000" points="83.3606,-18 83.3606,-33 189.3606,-33 189.3606,-18 83.3606,-18"/>
<text text-anchor="start" x="129.1594" y="-23.6" font-family="courier new" font-size="8.00" fill="#000000">var</text>
<polygon fill="none" stroke="#000000" points="83.3606,-3 83.3606,-18 189.3606,-18 189.3606,-3 83.3606,-3"/>
<text text-anchor="start" x="85.9524" y="-8.6" font-family="courier new" font-size="8.00" fill="#000000">credentials_file_path</text>
</g>
<!-- [root] provider.google&#45;&gt;[root] var.credentials_file_path -->
<g id="edge_23" class="edge">
<title>[root] provider.google&#45;&gt;[root] var.credentials_file_path</title>
<path fill="none" stroke="#000000" d="M213.3694,-71.8314C200.439,-62.7927 184.6384,-51.7476 170.7223,-42.0198"/>
<polygon fill="#000000" stroke="#000000" points="172.5449,-39.0235 162.3436,-36.1628 168.5344,-44.7608 172.5449,-39.0235"/>
</g>
<!-- [root] var.project_name -->
<g id="node_18" class="node">
<title>[root] var.project_name</title>
<polygon fill="none" stroke="#000000" points="208.3606,-18 208.3606,-33 271.3606,-33 271.3606,-18 208.3606,-18"/>
<text text-anchor="start" x="232.6594" y="-23.6" font-family="courier new" font-size="8.00" fill="#000000">var</text>
<polygon fill="none" stroke="#000000" points="208.3606,-3 208.3606,-18 271.3606,-18 271.3606,-3 208.3606,-3"/>
<text text-anchor="start" x="211.0559" y="-8.6" font-family="courier new" font-size="8.00" fill="#000000">project_name</text>
</g>
<!-- [root] provider.google&#45;&gt;[root] var.project_name -->
<g id="edge_24" class="edge">
<title>[root] provider.google&#45;&gt;[root] var.project_name</title>
<path fill="none" stroke="#000000" d="M239.3606,-71.8314C239.3606,-64.131 239.3606,-54.9743 239.3606,-46.4166"/>
<polygon fill="#000000" stroke="#000000" points="242.8607,-46.4132 239.3606,-36.4133 235.8607,-46.4133 242.8607,-46.4132"/>
</g>
<!-- [root] var.region -->
<g id="node_19" class="node">
<title>[root] var.region</title>
<polygon fill="none" stroke="#000000" points="299.3606,-18 299.3606,-33 333.3606,-33 333.3606,-18 299.3606,-18"/>
<text text-anchor="start" x="309.1594" y="-23.6" font-family="courier new" font-size="8.00" fill="#000000">var</text>
<polygon fill="none" stroke="#000000" points="299.3606,-3 299.3606,-18 333.3606,-18 333.3606,-3 299.3606,-3"/>
<text text-anchor="start" x="301.9583" y="-8.6" font-family="courier new" font-size="8.00" fill="#000000">region</text>
</g>
<!-- [root] provider.google&#45;&gt;[root] var.region -->
<g id="edge_25" class="edge">
<title>[root] provider.google&#45;&gt;[root] var.region</title>
<path fill="none" stroke="#000000" d="M258.791,-71.8314C268.0926,-63.1337 279.381,-52.5783 289.4892,-43.1265"/>
<polygon fill="#000000" stroke="#000000" points="292.0227,-45.5493 296.9365,-36.1628 287.2417,-40.4363 292.0227,-45.5493"/>
</g>
<!-- [root] meta.count&#45;boundary (count boundary fixup) -->
<g id="node_14" class="node">
<title>[root] meta.count&#45;boundary (count boundary fixup)</title>
<polygon fill="none" stroke="#000000" points="79.3606,-666 79.3606,-681 152.3606,-681 152.3606,-666 79.3606,-666"/>
<text text-anchor="start" x="106.2591" y="-671.6" font-family="courier new" font-size="8.00" fill="#000000">meta</text>
<polygon fill="none" stroke="#000000" points="79.3606,-651 79.3606,-666 152.3606,-666 152.3606,-651 79.3606,-651"/>
<text text-anchor="start" x="82.2551" y="-656.6" font-family="courier new" font-size="8.00" fill="#000000">count&#45;boundary</text>
</g>
<!-- [root] meta.count&#45;boundary (count boundary fixup)&#45;&gt;[root] google_compute_firewall.default -->
<g id="edge_18" class="edge">
<title>[root] meta.count&#45;boundary (count boundary fixup)&#45;&gt;[root] google_compute_firewall.default</title>
<path fill="none" stroke="#000000" d="M105.0146,-647.8314C100.4369,-639.7925 94.9555,-630.1666 89.9018,-621.2918"/>
<polygon fill="#000000" stroke="#000000" points="92.8358,-619.3712 84.8459,-612.4133 86.7529,-622.8351 92.8358,-619.3712"/>
</g>
<!-- [root] output.application_public_ip -->
<g id="node_15" class="node">
<title>[root] output.application_public_ip</title>
<polygon fill="none" stroke="#000000" points="150.3606,-594 150.3606,-609 256.3606,-609 256.3606,-594 150.3606,-594"/>
<text text-anchor="start" x="188.9583" y="-599.6" font-family="courier new" font-size="8.00" fill="#000000">output</text>
<polygon fill="none" stroke="#000000" points="150.3606,-579 150.3606,-594 256.3606,-594 256.3606,-579 150.3606,-579"/>
<text text-anchor="start" x="152.9524" y="-584.6" font-family="courier new" font-size="8.00" fill="#000000">application_public_ip</text>
</g>
<!-- [root] meta.count&#45;boundary (count boundary fixup)&#45;&gt;[root] output.application_public_ip -->
<g id="edge_19" class="edge">
<title>[root] meta.count&#45;boundary (count boundary fixup)&#45;&gt;[root] output.application_public_ip</title>
<path fill="none" stroke="#000000" d="M137.5667,-647.8314C148.4056,-638.9632 161.605,-628.1637 173.3284,-618.5718"/>
<polygon fill="#000000" stroke="#000000" points="175.6384,-621.2041 181.1616,-612.1628 171.2057,-615.7864 175.6384,-621.2041"/>
</g>
<!-- [root] output.application_public_ip&#45;&gt;[root] google_compute_global_forwarding_rule.default -->
<g id="edge_20" class="edge">
<title>[root] output.application_public_ip&#45;&gt;[root] google_compute_global_forwarding_rule.default</title>
<path fill="none" stroke="#000000" d="M202.0989,-575.8314C201.5642,-568.131 200.9283,-558.9743 200.334,-550.4166"/>
<polygon fill="#000000" stroke="#000000" points="203.8238,-550.1467 199.6393,-540.4133 196.8406,-550.6317 203.8238,-550.1467"/>
</g>
<!-- [root] provider.google (close) -->
<g id="node_16" class="node">
<title>[root] provider.google (close)</title>
<polygon fill="none" stroke="#000000" points="11.3606,-666 11.3606,-681 55.3606,-681 55.3606,-666 11.3606,-666"/>
<text text-anchor="start" x="14.1575" y="-671.6" font-family="courier new" font-size="8.00" fill="#000000">provider</text>
<polygon fill="none" stroke="#000000" points="11.3606,-651 11.3606,-666 55.3606,-666 55.3606,-651 11.3606,-651"/>
<text text-anchor="start" x="18.9583" y="-656.6" font-family="courier new" font-size="8.00" fill="#000000">google</text>
</g>
<!-- [root] provider.google (close)&#45;&gt;[root] google_compute_firewall.default -->
<g id="edge_21" class="edge">
<title>[root] provider.google (close)&#45;&gt;[root] google_compute_firewall.default</title>
<path fill="none" stroke="#000000" d="M43.7066,-647.8314C48.2843,-639.7925 53.7658,-630.1666 58.8195,-621.2918"/>
<polygon fill="#000000" stroke="#000000" points="61.9683,-622.8351 63.8753,-612.4133 55.8854,-619.3712 61.9683,-622.8351"/>
</g>
<!-- [root] provider.google (close)&#45;&gt;[root] google_compute_global_forwarding_rule.default -->
<g id="edge_22" class="edge">
<title>[root] provider.google (close)&#45;&gt;[root] google_compute_global_forwarding_rule.default</title>
<path fill="none" stroke="#000000" d="M19.4656,-647.7257C6.4651,-628.2253 -8.7311,-597.272 7.3606,-576 19.0754,-560.514 57.4922,-548.1975 96.8306,-539.261"/>
<polygon fill="#000000" stroke="#000000" points="97.8205,-542.6271 106.836,-537.062 96.3178,-535.7903 97.8205,-542.6271"/>
</g>
<!-- [root] root -->
<g id="node_20" class="node">
<title>[root] root</title>
<polygon fill="none" stroke="#000000" points="108.6695,-756 40.0518,-756 40.0518,-720 108.6695,-720 108.6695,-756"/>
<text text-anchor="middle" x="74.3606" y="-736.1313" font-family="courier new" font-size="8.00" fill="#000000">[root] root</text>
</g>
<!-- [root] root&#45;&gt;[root] meta.count&#45;boundary (count boundary fixup) -->
<g id="edge_26" class="edge">
<title>[root] root&#45;&gt;[root] meta.count&#45;boundary (count boundary fixup)</title>
<path fill="none" stroke="#000000" d="M84.7066,-719.8314C89.2843,-711.7925 94.7658,-702.1666 99.8195,-693.2918"/>
<polygon fill="#000000" stroke="#000000" points="102.9683,-694.8351 104.8753,-684.4133 96.8854,-691.3712 102.9683,-694.8351"/>
</g>
<!-- [root] root&#45;&gt;[root] provider.google (close) -->
<g id="edge_27" class="edge">
<title>[root] root&#45;&gt;[root] provider.google (close)</title>
<path fill="none" stroke="#000000" d="M64.0146,-719.8314C59.4369,-711.7925 53.9555,-702.1666 48.9018,-693.2918"/>
<polygon fill="#000000" stroke="#000000" points="51.8358,-691.3712 43.8459,-684.4133 45.7529,-694.8351 51.8358,-691.3712"/>
</g>
</g>
</svg>

