<?xml version="1.0" encoding="UTF-8" standalone="no"?>
<!DOCTYPE svg PUBLIC "-//W3C//DTD SVG 1.1//EN"
 "http://www.w3.org/Graphics/SVG/1.1/DTD/svg11.dtd">
<!-- Generated by graphviz version 2.40.1 (20161225.0304)
 -->
<!-- Title: %3 Pages: 1 -->
<svg width="1370pt" height="708pt"
 viewBox="0.00 0.00 1370.00 708.00" xmlns="http://www.w3.org/2000/svg" xmlns:xlink="http://www.w3.org/1999/xlink">
<g id="graph0" class="graph" transform="scale(1 1) rotate(0) translate(4 704)">
<title>%3</title>
<polygon fill="#ffffff" stroke="transparent" points="-4,4 -4,-704 1366,-704 1366,4 -4,4"/>
<g id="clust2" class="cluster">
<title>cluster[root] provider.google_var_</title>
</g>
<!-- [root] google_compute_address.vpn_static_ip1 -->
<g id="node_0" class="node">
<title>[root] google_compute_address.vpn_static_ip1</title>
<polygon fill="none" stroke="#000000" points="768,-322 768,-337 879,-337 879,-322 768,-322"/>
<text text-anchor="start" x="770.6914" y="-327.6" font-family="courier new" font-size="8.00" fill="#000000">google_compute_address</text>
<polygon fill="none" stroke="#000000" points="768,-307 768,-322 879,-322 879,-307 768,-307"/>
<text text-anchor="start" x="789.8945" y="-312.6" font-family="courier new" font-size="8.00" fill="#000000">vpn_static_ip1</text>
</g>
<!-- [root] provider.google -->
<g id="node_18" class="node">
<title>[root] provider.google</title>
<polygon fill="none" stroke="#000000" points="909,-178 909,-193 953,-193 953,-178 909,-178"/>
<text text-anchor="start" x="911.7969" y="-183.6" font-family="courier new" font-size="8.00" fill="#000000">provider</text>
<polygon fill="none" stroke="#000000" points="909,-163 909,-178 953,-178 953,-163 909,-163"/>
<text text-anchor="start" x="916.5977" y="-168.6" font-family="courier new" font-size="8.00" fill="#000000">google</text>
</g>
<!-- [root] google_compute_address.vpn_static_ip1&#45;&gt;[root] provider.google -->
<g id="edge_0" class="edge">
<title>[root] google_compute_address.vpn_static_ip1&#45;&gt;[root] provider.google</title>
<path fill="none" stroke="#000000" d="M836.6783,-303.7623C855.5861,-278.5518 889.8173,-232.9103 911.4286,-204.0952"/>
<polygon fill="#000000" stroke="#000000" points="914.2328,-206.1897 917.4328,-196.0896 908.6327,-201.9896 914.2328,-206.1897"/>
</g>
<!-- [root] google_compute_address.vpn_static_ip2 -->
<g id="node_1" class="node">
<title>[root] google_compute_address.vpn_static_ip2</title>
<polygon fill="none" stroke="#000000" points="356,-322 356,-337 467,-337 467,-322 356,-322"/>
<text text-anchor="start" x="358.6914" y="-327.6" font-family="courier new" font-size="8.00" fill="#000000">google_compute_address</text>
<polygon fill="none" stroke="#000000" points="356,-307 356,-322 467,-322 467,-307 356,-307"/>
<text text-anchor="start" x="377.8945" y="-312.6" font-family="courier new" font-size="8.00" fill="#000000">vpn_static_ip2</text>
</g>
<!-- [root] google_compute_address.vpn_static_ip2&#45;&gt;[root] provider.google -->
<g id="edge_1" class="edge">
<title>[root] google_compute_address.vpn_static_ip2&#45;&gt;[root] provider.google</title>
<path fill="none" stroke="#000000" d="M466.6491,-306.5895C573.3639,-277.0377 804.153,-213.1269 894.0774,-188.2247"/>
<polygon fill="#000000" stroke="#000000" points="895.1283,-191.5655 903.8315,-185.5236 893.2601,-184.8194 895.1283,-191.5655"/>
</g>
<!-- [root] var.region2 -->
<g id="node_19" class="node">
<title>[root] var.region2</title>
<polygon fill="none" stroke="#000000" points="323,-250 323,-265 362,-265 362,-250 323,-250"/>
<text text-anchor="start" x="335.2988" y="-255.6" font-family="courier new" font-size="8.00" fill="#000000">var</text>
<polygon fill="none" stroke="#000000" points="323,-235 323,-250 362,-250 362,-235 323,-235"/>
<text text-anchor="start" x="325.6973" y="-240.6" font-family="courier new" font-size="8.00" fill="#000000">region2</text>
</g>
<!-- [root] google_compute_address.vpn_static_ip2&#45;&gt;[root] var.region2 -->
<g id="edge_2" class="edge">
<title>[root] google_compute_address.vpn_static_ip2&#45;&gt;[root] var.region2</title>
<path fill="none" stroke="#000000" d="M393.5884,-303.8314C385.479,-295.3694 375.6844,-285.1489 366.818,-275.8971"/>
<polygon fill="#000000" stroke="#000000" points="369.0921,-273.2115 359.646,-268.4133 364.0382,-278.0549 369.0921,-273.2115"/>
</g>
<!-- [root] google_compute_firewall.network1&#45;allow&#45;network1 -->
<g id="node_2" class="node">
<title>[root] google_compute_firewall.network1&#45;allow&#45;network1</title>
<polygon fill="none" stroke="#000000" points="1246,-538 1246,-553 1362,-553 1362,-538 1246,-538"/>
<text text-anchor="start" x="1248.791" y="-543.6" font-family="courier new" font-size="8.00" fill="#000000">google_compute_firewall</text>
<polygon fill="none" stroke="#000000" points="1246,-523 1246,-538 1362,-538 1362,-523 1246,-523"/>
<text text-anchor="start" x="1248.791" y="-528.6" font-family="courier new" font-size="8.00" fill="#000000">network1&#45;allow&#45;network1</text>
</g>
<!-- [root] google_compute_network.network1 -->
<g id="node_10" class="node">
<title>[root] google_compute_network.network1</title>
<polygon fill="none" stroke="#000000" points="1115,-250 1115,-265 1226,-265 1226,-250 1115,-250"/>
<text text-anchor="start" x="1117.6914" y="-255.6" font-family="courier new" font-size="8.00" fill="#000000">google_compute_network</text>
<polygon fill="none" stroke="#000000" points="1115,-235 1115,-250 1226,-250 1226,-235 1115,-235"/>
<text text-anchor="start" x="1151.2969" y="-240.6" font-family="courier new" font-size="8.00" fill="#000000">network1</text>
</g>
<!-- [root] google_compute_firewall.network1&#45;allow&#45;network1&#45;&gt;[root] google_compute_network.network1 -->
<g id="edge_3" class="edge">
<title>[root] google_compute_firewall.network1&#45;allow&#45;network1&#45;&gt;[root] google_compute_network.network1</title>
<path fill="none" stroke="#000000" d="M1296.5779,-519.8394C1280.2214,-480.1623 1239.3872,-382.9689 1200,-304 1195.5708,-295.1197 1190.4241,-285.604 1185.6572,-277.0725"/>
<polygon fill="#000000" stroke="#000000" points="1188.6536,-275.2608 1180.6856,-268.2779 1182.5598,-278.7056 1188.6536,-275.2608"/>
</g>
<!-- [root] google_compute_firewall.network1&#45;allow&#45;network2 -->
<g id="node_3" class="node">
<title>[root] google_compute_firewall.network1&#45;allow&#45;network2</title>
<polygon fill="none" stroke="#000000" points="1112,-538 1112,-553 1228,-553 1228,-538 1112,-538"/>
<text text-anchor="start" x="1114.791" y="-543.6" font-family="courier new" font-size="8.00" fill="#000000">google_compute_firewall</text>
<polygon fill="none" stroke="#000000" points="1112,-523 1112,-538 1228,-538 1228,-523 1112,-523"/>
<text text-anchor="start" x="1114.791" y="-528.6" font-family="courier new" font-size="8.00" fill="#000000">network1&#45;allow&#45;network2</text>
</g>
<!-- [root] google_compute_firewall.network1&#45;allow&#45;network2&#45;&gt;[root] google_compute_network.network1 -->
<g id="edge_4" class="edge">
<title>[root] google_compute_firewall.network1&#45;allow&#45;network2&#45;&gt;[root] google_compute_network.network1</title>
<path fill="none" stroke="#000000" d="M1175.9698,-519.7319C1179.0408,-509.3756 1182.4563,-496.105 1184,-484 1194.1198,-404.6426 1194.1198,-383.3574 1184,-304 1182.9146,-295.4887 1180.9038,-286.4011 1178.738,-278.1555"/>
<polygon fill="#000000" stroke="#000000" points="1182.0363,-276.9542 1175.9698,-268.2681 1175.2955,-278.8414 1182.0363,-276.9542"/>
</g>
<!-- [root] google_compute_network.network2 -->
<g id="node_11" class="node">
<title>[root] google_compute_network.network2</title>
<polygon fill="none" stroke="#000000" points="919,-250 919,-265 1030,-265 1030,-250 919,-250"/>
<text text-anchor="start" x="921.6914" y="-255.6" font-family="courier new" font-size="8.00" fill="#000000">google_compute_network</text>
<polygon fill="none" stroke="#000000" points="919,-235 919,-250 1030,-250 1030,-235 919,-235"/>
<text text-anchor="start" x="955.2969" y="-240.6" font-family="courier new" font-size="8.00" fill="#000000">network2</text>
</g>
<!-- [root] google_compute_firewall.network1&#45;allow&#45;network2&#45;&gt;[root] google_compute_network.network2 -->
<g id="edge_5" class="edge">
<title>[root] google_compute_firewall.network1&#45;allow&#45;network2&#45;&gt;[root] google_compute_network.network2</title>
<path fill="none" stroke="#000000" d="M1166.8,-519.9759C1158.4478,-477.5644 1132.3866,-370.0656 1073,-304 1061.5652,-291.2792 1046.4047,-280.9516 1031.3933,-272.8654"/>
<polygon fill="#000000" stroke="#000000" points="1032.5981,-269.5507 1022.1005,-268.1188 1029.414,-275.7846 1032.5981,-269.5507"/>
</g>
<!-- [root] google_compute_forwarding_rule.fr1_esp -->
<g id="node_4" class="node">
<title>[root] google_compute_forwarding_rule.fr1_esp</title>
<polygon fill="none" stroke="#000000" points="916,-394 916,-409 1066,-409 1066,-394 916,-394"/>
<text text-anchor="start" x="918.9883" y="-399.6" font-family="courier new" font-size="8.00" fill="#000000">google_compute_forwarding_rule</text>
<polygon fill="none" stroke="#000000" points="916,-379 916,-394 1066,-394 1066,-379 916,-379"/>
<text text-anchor="start" x="974.1973" y="-384.6" font-family="courier new" font-size="8.00" fill="#000000">fr1_esp</text>
</g>
<!-- [root] google_compute_forwarding_rule.fr1_esp&#45;&gt;[root] google_compute_address.vpn_static_ip1 -->
<g id="edge_6" class="edge">
<title>[root] google_compute_forwarding_rule.fr1_esp&#45;&gt;[root] google_compute_address.vpn_static_ip1</title>
<path fill="none" stroke="#000000" d="M948.6065,-375.8314C926.0376,-366.159 898.1079,-354.1891 874.3204,-343.9944"/>
<polygon fill="#000000" stroke="#000000" points="875.6588,-340.7602 865.0886,-340.038 872.9014,-347.1943 875.6588,-340.7602"/>
</g>
<!-- [root] google_compute_vpn_gateway.target_gateway1 -->
<g id="node_14" class="node">
<title>[root] google_compute_vpn_gateway.target_gateway1</title>
<polygon fill="none" stroke="#000000" points="911,-322 911,-337 1041,-337 1041,-322 911,-322"/>
<text text-anchor="start" x="913.5898" y="-327.6" font-family="courier new" font-size="8.00" fill="#000000">google_compute_vpn_gateway</text>
<polygon fill="none" stroke="#000000" points="911,-307 911,-322 1041,-322 1041,-307 911,-307"/>
<text text-anchor="start" x="939.9941" y="-312.6" font-family="courier new" font-size="8.00" fill="#000000">target_gateway1</text>
</g>
<!-- [root] google_compute_forwarding_rule.fr1_esp&#45;&gt;[root] google_compute_vpn_gateway.target_gateway1 -->
<g id="edge_7" class="edge">
<title>[root] google_compute_forwarding_rule.fr1_esp&#45;&gt;[root] google_compute_vpn_gateway.target_gateway1</title>
<path fill="none" stroke="#000000" d="M987.2149,-375.8314C985.6106,-368.131 983.703,-358.9743 981.9201,-350.4166"/>
<polygon fill="#000000" stroke="#000000" points="985.3021,-349.4892 979.8361,-340.4133 978.4493,-350.9169 985.3021,-349.4892"/>
</g>
<!-- [root] google_compute_forwarding_rule.fr1_udp4500 -->
<g id="node_5" class="node">
<title>[root] google_compute_forwarding_rule.fr1_udp4500</title>
<polygon fill="none" stroke="#000000" points="580,-394 580,-409 730,-409 730,-394 580,-394"/>
<text text-anchor="start" x="582.9883" y="-399.6" font-family="courier new" font-size="8.00" fill="#000000">google_compute_forwarding_rule</text>
<polygon fill="none" stroke="#000000" points="580,-379 580,-394 730,-394 730,-379 580,-379"/>
<text text-anchor="start" x="628.5957" y="-384.6" font-family="courier new" font-size="8.00" fill="#000000">fr1_udp4500</text>
</g>
<!-- [root] google_compute_forwarding_rule.fr1_udp4500&#45;&gt;[root] google_compute_address.vpn_static_ip1 -->
<g id="edge_8" class="edge">
<title>[root] google_compute_forwarding_rule.fr1_udp4500&#45;&gt;[root] google_compute_address.vpn_static_ip1</title>
<path fill="none" stroke="#000000" d="M697.3935,-375.8314C719.9624,-366.159 747.8921,-354.1891 771.6796,-343.9944"/>
<polygon fill="#000000" stroke="#000000" points="773.0986,-347.1943 780.9114,-340.038 770.3412,-340.7602 773.0986,-347.1943"/>
</g>
<!-- [root] google_compute_forwarding_rule.fr1_udp4500&#45;&gt;[root] google_compute_vpn_gateway.target_gateway1 -->
<g id="edge_9" class="edge">
<title>[root] google_compute_forwarding_rule.fr1_udp4500&#45;&gt;[root] google_compute_vpn_gateway.target_gateway1</title>
<path fill="none" stroke="#000000" d="M730.2602,-377.1192C781.6833,-365.585 849.552,-350.3622 900.9337,-338.8373"/>
<polygon fill="#000000" stroke="#000000" points="901.9889,-342.1877 910.9805,-336.5838 900.4569,-335.3574 901.9889,-342.1877"/>
</g>
<!-- [root] google_compute_forwarding_rule.fr1_udp500 -->
<g id="node_6" class="node">
<title>[root] google_compute_forwarding_rule.fr1_udp500</title>
<polygon fill="none" stroke="#000000" points="748,-394 748,-409 898,-409 898,-394 748,-394"/>
<text text-anchor="start" x="750.9883" y="-399.6" font-family="courier new" font-size="8.00" fill="#000000">google_compute_forwarding_rule</text>
<polygon fill="none" stroke="#000000" points="748,-379 748,-394 898,-394 898,-379 748,-379"/>
<text text-anchor="start" x="798.9961" y="-384.6" font-family="courier new" font-size="8.00" fill="#000000">fr1_udp500</text>
</g>
<!-- [root] google_compute_forwarding_rule.fr1_udp500&#45;&gt;[root] google_compute_address.vpn_static_ip1 -->
<g id="edge_10" class="edge">
<title>[root] google_compute_forwarding_rule.fr1_udp500&#45;&gt;[root] google_compute_address.vpn_static_ip1</title>
<path fill="none" stroke="#000000" d="M823,-375.8314C823,-368.131 823,-358.9743 823,-350.4166"/>
<polygon fill="#000000" stroke="#000000" points="826.5001,-350.4132 823,-340.4133 819.5001,-350.4133 826.5001,-350.4132"/>
</g>
<!-- [root] google_compute_forwarding_rule.fr1_udp500&#45;&gt;[root] google_compute_vpn_gateway.target_gateway1 -->
<g id="edge_11" class="edge">
<title>[root] google_compute_forwarding_rule.fr1_udp500&#45;&gt;[root] google_compute_vpn_gateway.target_gateway1</title>
<path fill="none" stroke="#000000" d="M861.6084,-375.8314C881.8893,-366.2874 906.9238,-354.5065 928.3971,-344.4013"/>
<polygon fill="#000000" stroke="#000000" points="930.1114,-347.4629 937.6693,-340.038 927.1308,-341.1291 930.1114,-347.4629"/>
</g>
<!-- [root] google_compute_forwarding_rule.fr2_esp -->
<g id="node_7" class="node">
<title>[root] google_compute_forwarding_rule.fr2_esp</title>
<polygon fill="none" stroke="#000000" points="0,-394 0,-409 150,-409 150,-394 0,-394"/>
<text text-anchor="start" x="2.9883" y="-399.6" font-family="courier new" font-size="8.00" fill="#000000">google_compute_forwarding_rule</text>
<polygon fill="none" stroke="#000000" points="0,-379 0,-394 150,-394 150,-379 0,-379"/>
<text text-anchor="start" x="58.1973" y="-384.6" font-family="courier new" font-size="8.00" fill="#000000">fr2_esp</text>
</g>
<!-- [root] google_compute_forwarding_rule.fr2_esp&#45;&gt;[root] google_compute_address.vpn_static_ip2 -->
<g id="edge_12" class="edge">
<title>[root] google_compute_forwarding_rule.fr2_esp&#45;&gt;[root] google_compute_address.vpn_static_ip2</title>
<path fill="none" stroke="#000000" d="M150.0896,-377.8281C153.0979,-377.2059 156.077,-376.5945 159,-376 238.8615,-359.7581 261.9032,-359.3197 345.4679,-340.0267"/>
<polygon fill="#000000" stroke="#000000" points="346.4616,-343.389 355.4059,-337.7101 344.8724,-336.5717 346.4616,-343.389"/>
</g>
<!-- [root] google_compute_vpn_gateway.target_gateway2 -->
<g id="node_15" class="node">
<title>[root] google_compute_vpn_gateway.target_gateway2</title>
<polygon fill="none" stroke="#000000" points="207,-322 207,-337 337,-337 337,-322 207,-322"/>
<text text-anchor="start" x="209.5898" y="-327.6" font-family="courier new" font-size="8.00" fill="#000000">google_compute_vpn_gateway</text>
<polygon fill="none" stroke="#000000" points="207,-307 207,-322 337,-322 337,-307 207,-307"/>
<text text-anchor="start" x="235.9941" y="-312.6" font-family="courier new" font-size="8.00" fill="#000000">target_gateway2</text>
</g>
<!-- [root] google_compute_forwarding_rule.fr2_esp&#45;&gt;[root] google_compute_vpn_gateway.target_gateway2 -->
<g id="edge_13" class="edge">
<title>[root] google_compute_forwarding_rule.fr2_esp&#45;&gt;[root] google_compute_vpn_gateway.target_gateway2</title>
<path fill="none" stroke="#000000" d="M124.4571,-375.9243C151.2711,-366.1243 184.5949,-353.945 212.7847,-343.6422"/>
<polygon fill="#000000" stroke="#000000" points="214.3316,-346.8033 222.5225,-340.0831 211.9287,-340.2286 214.3316,-346.8033"/>
</g>
<!-- [root] google_compute_forwarding_rule.fr2_udp4500 -->
<g id="node_8" class="node">
<title>[root] google_compute_forwarding_rule.fr2_udp4500</title>
<polygon fill="none" stroke="#000000" points="168,-394 168,-409 318,-409 318,-394 168,-394"/>
<text text-anchor="start" x="170.9883" y="-399.6" font-family="courier new" font-size="8.00" fill="#000000">google_compute_forwarding_rule</text>
<polygon fill="none" stroke="#000000" points="168,-379 168,-394 318,-394 318,-379 168,-379"/>
<text text-anchor="start" x="216.5957" y="-384.6" font-family="courier new" font-size="8.00" fill="#000000">fr2_udp4500</text>
</g>
<!-- [root] google_compute_forwarding_rule.fr2_udp4500&#45;&gt;[root] google_compute_address.vpn_static_ip2 -->
<g id="edge_14" class="edge">
<title>[root] google_compute_forwarding_rule.fr2_udp4500&#45;&gt;[root] google_compute_address.vpn_static_ip2</title>
<path fill="none" stroke="#000000" d="M285.3935,-375.8314C307.9624,-366.159 335.8921,-354.1891 359.6796,-343.9944"/>
<polygon fill="#000000" stroke="#000000" points="361.0986,-347.1943 368.9114,-340.038 358.3412,-340.7602 361.0986,-347.1943"/>
</g>
<!-- [root] google_compute_forwarding_rule.fr2_udp4500&#45;&gt;[root] google_compute_vpn_gateway.target_gateway2 -->
<g id="edge_15" class="edge">
<title>[root] google_compute_forwarding_rule.fr2_udp4500&#45;&gt;[root] google_compute_vpn_gateway.target_gateway2</title>
<path fill="none" stroke="#000000" d="M250.3179,-375.8314C253.4876,-367.9617 257.27,-358.5712 260.7813,-349.8533"/>
<polygon fill="#000000" stroke="#000000" points="264.0939,-350.9968 264.5835,-340.4133 257.6008,-348.3815 264.0939,-350.9968"/>
</g>
<!-- [root] google_compute_forwarding_rule.fr2_udp500 -->
<g id="node_9" class="node">
<title>[root] google_compute_forwarding_rule.fr2_udp500</title>
<polygon fill="none" stroke="#000000" points="336,-394 336,-409 486,-409 486,-394 336,-394"/>
<text text-anchor="start" x="338.9883" y="-399.6" font-family="courier new" font-size="8.00" fill="#000000">google_compute_forwarding_rule</text>
<polygon fill="none" stroke="#000000" points="336,-379 336,-394 486,-394 486,-379 336,-379"/>
<text text-anchor="start" x="386.9961" y="-384.6" font-family="courier new" font-size="8.00" fill="#000000">fr2_udp500</text>
</g>
<!-- [root] google_compute_forwarding_rule.fr2_udp500&#45;&gt;[root] google_compute_address.vpn_static_ip2 -->
<g id="edge_16" class="edge">
<title>[root] google_compute_forwarding_rule.fr2_udp500&#45;&gt;[root] google_compute_address.vpn_static_ip2</title>
<path fill="none" stroke="#000000" d="M411,-375.8314C411,-368.131 411,-358.9743 411,-350.4166"/>
<polygon fill="#000000" stroke="#000000" points="414.5001,-350.4132 411,-340.4133 407.5001,-350.4133 414.5001,-350.4132"/>
</g>
<!-- [root] google_compute_forwarding_rule.fr2_udp500&#45;&gt;[root] google_compute_vpn_gateway.target_gateway2 -->
<g id="edge_17" class="edge">
<title>[root] google_compute_forwarding_rule.fr2_udp500&#45;&gt;[root] google_compute_vpn_gateway.target_gateway2</title>
<path fill="none" stroke="#000000" d="M375.9244,-375.8314C357.7339,-366.4089 335.3342,-354.8062 315.994,-344.7883"/>
<polygon fill="#000000" stroke="#000000" points="317.5537,-341.6545 307.0643,-340.1628 314.334,-347.8701 317.5537,-341.6545"/>
</g>
<!-- [root] google_compute_network.network1&#45;&gt;[root] provider.google -->
<g id="edge_18" class="edge">
<title>[root] google_compute_network.network1&#45;&gt;[root] provider.google</title>
<path fill="none" stroke="#000000" d="M1114.2667,-233.2101C1069.2211,-219.6398 1007.0796,-200.9194 967.9771,-189.1395"/>
<polygon fill="#000000" stroke="#000000" points="968.9004,-185.7624 958.3158,-186.229 966.8812,-192.4648 968.9004,-185.7624"/>
</g>
<!-- [root] google_compute_network.network2&#45;&gt;[root] provider.google -->
<g id="edge_19" class="edge">
<title>[root] google_compute_network.network2&#45;&gt;[root] provider.google</title>
<path fill="none" stroke="#000000" d="M963.1493,-231.8314C958.2977,-223.7079 952.4783,-213.9637 947.132,-205.0118"/>
<polygon fill="#000000" stroke="#000000" points="950.1292,-203.2041 941.9968,-196.4133 944.1194,-206.7933 950.1292,-203.2041"/>
</g>
<!-- [root] google_compute_route.route1 -->
<g id="node_12" class="node">
<title>[root] google_compute_route.route1</title>
<polygon fill="none" stroke="#000000" points="992,-538 992,-553 1094,-553 1094,-538 992,-538"/>
<text text-anchor="start" x="994.9922" y="-543.6" font-family="courier new" font-size="8.00" fill="#000000">google_compute_route</text>
<polygon fill="none" stroke="#000000" points="992,-523 992,-538 1094,-538 1094,-523 992,-523"/>
<text text-anchor="start" x="1028.5977" y="-528.6" font-family="courier new" font-size="8.00" fill="#000000">route1</text>
</g>
<!-- [root] google_compute_route.route1&#45;&gt;[root] google_compute_network.network2 -->
<g id="edge_20" class="edge">
<title>[root] google_compute_route.route1&#45;&gt;[root] google_compute_network.network2</title>
<path fill="none" stroke="#000000" d="M1051.0545,-519.5972C1063.1816,-489.6106 1083.8212,-428.2979 1075,-376 1069.366,-342.5977 1070.3277,-331.0969 1050,-304 1041.1679,-292.2268 1029.0217,-282.0043 1017.0299,-273.7164"/>
<polygon fill="#000000" stroke="#000000" points="1018.6541,-270.5956 1008.3749,-268.0288 1014.8098,-276.4456 1018.6541,-270.5956"/>
</g>
<!-- [root] google_compute_vpn_tunnel.tunnel1 -->
<g id="node_16" class="node">
<title>[root] google_compute_vpn_tunnel.tunnel1</title>
<polygon fill="none" stroke="#000000" points="760,-466 760,-481 886,-481 886,-466 760,-466"/>
<text text-anchor="start" x="762.9902" y="-471.6" font-family="courier new" font-size="8.00" fill="#000000">google_compute_vpn_tunnel</text>
<polygon fill="none" stroke="#000000" points="760,-451 760,-466 886,-466 886,-451 760,-451"/>
<text text-anchor="start" x="806.1973" y="-456.6" font-family="courier new" font-size="8.00" fill="#000000">tunnel1</text>
</g>
<!-- [root] google_compute_route.route1&#45;&gt;[root] google_compute_vpn_tunnel.tunnel1 -->
<g id="edge_21" class="edge">
<title>[root] google_compute_route.route1&#45;&gt;[root] google_compute_vpn_tunnel.tunnel1</title>
<path fill="none" stroke="#000000" d="M991.9746,-521.3008C961.0126,-511.1678 921.2003,-498.1383 887.9977,-487.272"/>
<polygon fill="#000000" stroke="#000000" points="888.9659,-483.9062 878.3733,-484.1222 886.7886,-490.559 888.9659,-483.9062"/>
</g>
<!-- [root] google_compute_route.route2 -->
<g id="node_13" class="node">
<title>[root] google_compute_route.route2</title>
<polygon fill="none" stroke="#000000" points="872,-538 872,-553 974,-553 974,-538 872,-538"/>
<text text-anchor="start" x="874.9922" y="-543.6" font-family="courier new" font-size="8.00" fill="#000000">google_compute_route</text>
<polygon fill="none" stroke="#000000" points="872,-523 872,-538 974,-538 974,-523 872,-523"/>
<text text-anchor="start" x="908.5977" y="-528.6" font-family="courier new" font-size="8.00" fill="#000000">route2</text>
</g>
<!-- [root] google_compute_route.route2&#45;&gt;[root] google_compute_network.network1 -->
<g id="edge_22" class="edge">
<title>[root] google_compute_route.route2&#45;&gt;[root] google_compute_network.network1</title>
<path fill="none" stroke="#000000" d="M950.159,-519.9264C982.6149,-497.3931 1037.2605,-456.3977 1075,-412 1111.1324,-369.4929 1141.4049,-311.4349 1157.5086,-277.6046"/>
<polygon fill="#000000" stroke="#000000" points="1160.7796,-278.8727 1161.8554,-268.3326 1154.4415,-275.9013 1160.7796,-278.8727"/>
</g>
<!-- [root] google_compute_vpn_tunnel.tunnel2 -->
<g id="node_17" class="node">
<title>[root] google_compute_vpn_tunnel.tunnel2</title>
<polygon fill="none" stroke="#000000" points="348,-466 348,-481 474,-481 474,-466 348,-466"/>
<text text-anchor="start" x="350.9902" y="-471.6" font-family="courier new" font-size="8.00" fill="#000000">google_compute_vpn_tunnel</text>
<polygon fill="none" stroke="#000000" points="348,-451 348,-466 474,-466 474,-451 348,-451"/>
<text text-anchor="start" x="394.1973" y="-456.6" font-family="courier new" font-size="8.00" fill="#000000">tunnel2</text>
</g>
<!-- [root] google_compute_route.route2&#45;&gt;[root] google_compute_vpn_tunnel.tunnel2 -->
<g id="edge_23" class="edge">
<title>[root] google_compute_route.route2&#45;&gt;[root] google_compute_vpn_tunnel.tunnel2</title>
<path fill="none" stroke="#000000" d="M871.5633,-530.7667C780.2692,-517.9285 589.6513,-491.1228 484.5256,-476.3395"/>
<polygon fill="#000000" stroke="#000000" points="484.7048,-472.8304 474.3149,-474.9037 483.73,-479.7622 484.7048,-472.8304"/>
</g>
<!-- [root] google_compute_vpn_gateway.target_gateway1&#45;&gt;[root] google_compute_network.network1 -->
<g id="edge_24" class="edge">
<title>[root] google_compute_vpn_gateway.target_gateway1&#45;&gt;[root] google_compute_network.network1</title>
<path fill="none" stroke="#000000" d="M1024.9544,-303.8314C1051.362,-294.0306 1084.1256,-281.8709 1111.8286,-271.5894"/>
<polygon fill="#000000" stroke="#000000" points="1113.2403,-274.7988 1121.3976,-268.038 1110.8047,-268.2362 1113.2403,-274.7988"/>
</g>
<!-- [root] google_compute_vpn_gateway.target_gateway2&#45;&gt;[root] google_compute_network.network2 -->
<g id="edge_25" class="edge">
<title>[root] google_compute_vpn_gateway.target_gateway2&#45;&gt;[root] google_compute_network.network2</title>
<path fill="none" stroke="#000000" d="M337.2591,-305.5533C340.2056,-304.9916 343.1294,-304.4697 346,-304 549.3702,-270.7225 793.3633,-257.1829 908.1655,-252.3496"/>
<polygon fill="#000000" stroke="#000000" points="908.3552,-255.8449 918.2024,-251.9355 908.0666,-248.8508 908.3552,-255.8449"/>
</g>
<!-- [root] google_compute_vpn_gateway.target_gateway2&#45;&gt;[root] var.region2 -->
<g id="edge_26" class="edge">
<title>[root] google_compute_vpn_gateway.target_gateway2&#45;&gt;[root] var.region2</title>
<path fill="none" stroke="#000000" d="M289.664,-303.8314C297.9732,-295.2848 308.0264,-284.9443 317.0918,-275.6198"/>
<polygon fill="#000000" stroke="#000000" points="319.6369,-278.023 324.0982,-268.4133 314.6179,-273.1435 319.6369,-278.023"/>
</g>
<!-- [root] google_compute_vpn_tunnel.tunnel1&#45;&gt;[root] google_compute_address.vpn_static_ip2 -->
<g id="edge_27" class="edge">
<title>[root] google_compute_vpn_tunnel.tunnel1&#45;&gt;[root] google_compute_address.vpn_static_ip2</title>
<path fill="none" stroke="#000000" d="M759.8849,-457.8702C707.9865,-449.9191 633.1435,-435.5146 571,-412 525.3621,-394.731 477.0837,-365.9263 445.6471,-345.5612"/>
<polygon fill="#000000" stroke="#000000" points="447.5265,-342.6082 437.2432,-340.0575 443.6914,-348.4642 447.5265,-342.6082"/>
</g>
<!-- [root] google_compute_vpn_tunnel.tunnel1&#45;&gt;[root] google_compute_forwarding_rule.fr1_esp -->
<g id="edge_28" class="edge">
<title>[root] google_compute_vpn_tunnel.tunnel1&#45;&gt;[root] google_compute_forwarding_rule.fr1_esp</title>
<path fill="none" stroke="#000000" d="M865.3935,-447.8314C887.9624,-438.159 915.8921,-426.1891 939.6796,-415.9944"/>
<polygon fill="#000000" stroke="#000000" points="941.0986,-419.1943 948.9114,-412.038 938.3412,-412.7602 941.0986,-419.1943"/>
</g>
<!-- [root] google_compute_vpn_tunnel.tunnel1&#45;&gt;[root] google_compute_forwarding_rule.fr1_udp4500 -->
<g id="edge_29" class="edge">
<title>[root] google_compute_vpn_tunnel.tunnel1&#45;&gt;[root] google_compute_forwarding_rule.fr1_udp4500</title>
<path fill="none" stroke="#000000" d="M780.6065,-447.8314C758.0376,-438.159 730.1079,-426.1891 706.3204,-415.9944"/>
<polygon fill="#000000" stroke="#000000" points="707.6588,-412.7602 697.0886,-412.038 704.9014,-419.1943 707.6588,-412.7602"/>
</g>
<!-- [root] google_compute_vpn_tunnel.tunnel1&#45;&gt;[root] google_compute_forwarding_rule.fr1_udp500 -->
<g id="edge_30" class="edge">
<title>[root] google_compute_vpn_tunnel.tunnel1&#45;&gt;[root] google_compute_forwarding_rule.fr1_udp500</title>
<path fill="none" stroke="#000000" d="M823,-447.8314C823,-440.131 823,-430.9743 823,-422.4166"/>
<polygon fill="#000000" stroke="#000000" points="826.5001,-422.4132 823,-412.4133 819.5001,-422.4133 826.5001,-422.4132"/>
</g>
<!-- [root] google_compute_vpn_tunnel.tunnel2&#45;&gt;[root] google_compute_address.vpn_static_ip1 -->
<g id="edge_31" class="edge">
<title>[root] google_compute_vpn_tunnel.tunnel2&#45;&gt;[root] google_compute_address.vpn_static_ip1</title>
<path fill="none" stroke="#000000" d="M437.2432,-447.9425C467.9823,-427.5919 521.0713,-394.8926 571,-376 632.1039,-352.8788 705.4858,-338.5654 757.261,-330.5343"/>
<polygon fill="#000000" stroke="#000000" points="757.9548,-333.9692 767.3179,-329.0111 756.9065,-327.0482 757.9548,-333.9692"/>
</g>
<!-- [root] google_compute_vpn_tunnel.tunnel2&#45;&gt;[root] google_compute_forwarding_rule.fr2_esp -->
<g id="edge_32" class="edge">
<title>[root] google_compute_vpn_tunnel.tunnel2&#45;&gt;[root] google_compute_forwarding_rule.fr2_esp</title>
<path fill="none" stroke="#000000" d="M347.801,-452.4574C294.7884,-441.0975 218.5954,-424.7704 160.1995,-412.257"/>
<polygon fill="#000000" stroke="#000000" points="160.7627,-408.7983 150.2513,-410.1253 159.296,-415.643 160.7627,-408.7983"/>
</g>
<!-- [root] google_compute_vpn_tunnel.tunnel2&#45;&gt;[root] google_compute_forwarding_rule.fr2_udp4500 -->
<g id="edge_33" class="edge">
<title>[root] google_compute_vpn_tunnel.tunnel2&#45;&gt;[root] google_compute_forwarding_rule.fr2_udp4500</title>
<path fill="none" stroke="#000000" d="M368.6065,-447.8314C346.0376,-438.159 318.1079,-426.1891 294.3204,-415.9944"/>
<polygon fill="#000000" stroke="#000000" points="295.6588,-412.7602 285.0886,-412.038 292.9014,-419.1943 295.6588,-412.7602"/>
</g>
<!-- [root] google_compute_vpn_tunnel.tunnel2&#45;&gt;[root] google_compute_forwarding_rule.fr2_udp500 -->
<g id="edge_34" class="edge">
<title>[root] google_compute_vpn_tunnel.tunnel2&#45;&gt;[root] google_compute_forwarding_rule.fr2_udp500</title>
<path fill="none" stroke="#000000" d="M411,-447.8314C411,-440.131 411,-430.9743 411,-422.4166"/>
<polygon fill="#000000" stroke="#000000" points="414.5001,-422.4132 411,-412.4133 407.5001,-422.4133 414.5001,-422.4132"/>
</g>
<!-- [root] var.project -->
<g id="node_22" class="node">
<title>[root] var.project</title>
<polygon fill="none" stroke="#000000" points="912,-106 912,-121 951,-121 951,-106 912,-106"/>
<text text-anchor="start" x="924.2988" y="-111.6" font-family="courier new" font-size="8.00" fill="#000000">var</text>
<polygon fill="none" stroke="#000000" points="912,-91 912,-106 951,-106 951,-91 912,-91"/>
<text text-anchor="start" x="914.6973" y="-96.6" font-family="courier new" font-size="8.00" fill="#000000">project</text>
</g>
<!-- [root] provider.google&#45;&gt;[root] var.project -->
<g id="edge_43" class="edge">
<title>[root] provider.google&#45;&gt;[root] var.project</title>
<path fill="none" stroke="#000000" d="M931,-159.8314C931,-152.131 931,-142.9743 931,-134.4166"/>
<polygon fill="#000000" stroke="#000000" points="934.5001,-134.4132 931,-124.4133 927.5001,-134.4133 934.5001,-134.4132"/>
</g>
<!-- [root] meta.count&#45;boundary (count boundary fixup) -->
<g id="node_20" class="node">
<title>[root] meta.count&#45;boundary (count boundary fixup)</title>
<polygon fill="none" stroke="#000000" points="1029,-610 1029,-625 1102,-625 1102,-610 1029,-610"/>
<text text-anchor="start" x="1055.8984" y="-615.6" font-family="courier new" font-size="8.00" fill="#000000">meta</text>
<polygon fill="none" stroke="#000000" points="1029,-595 1029,-610 1102,-610 1102,-595 1029,-595"/>
<text text-anchor="start" x="1031.8945" y="-600.6" font-family="courier new" font-size="8.00" fill="#000000">count&#45;boundary</text>
</g>
<!-- [root] meta.count&#45;boundary (count boundary fixup)&#45;&gt;[root] google_compute_firewall.network1&#45;allow&#45;network1 -->
<g id="edge_35" class="edge">
<title>[root] meta.count&#45;boundary (count boundary fixup)&#45;&gt;[root] google_compute_firewall.network1&#45;allow&#45;network1</title>
<path fill="none" stroke="#000000" d="M1101.5372,-595.3217C1104.7232,-594.1578 1107.9096,-593.0341 1111,-592 1123.1413,-587.9373 1185.1211,-570.6956 1235.6164,-556.7725"/>
<polygon fill="#000000" stroke="#000000" points="1236.8332,-560.0677 1245.5442,-554.037 1234.9737,-553.3192 1236.8332,-560.0677"/>
</g>
<!-- [root] meta.count&#45;boundary (count boundary fixup)&#45;&gt;[root] google_compute_firewall.network1&#45;allow&#45;network2 -->
<g id="edge_36" class="edge">
<title>[root] meta.count&#45;boundary (count boundary fixup)&#45;&gt;[root] google_compute_firewall.network1&#45;allow&#45;network2</title>
<path fill="none" stroke="#000000" d="M1091.4959,-591.8314C1104.6774,-582.7927 1120.7847,-571.7476 1134.9711,-562.0198"/>
<polygon fill="#000000" stroke="#000000" points="1137.2446,-564.7047 1143.5125,-556.1628 1133.2859,-558.9316 1137.2446,-564.7047"/>
</g>
<!-- [root] meta.count&#45;boundary (count boundary fixup)&#45;&gt;[root] google_compute_route.route1 -->
<g id="edge_37" class="edge">
<title>[root] meta.count&#45;boundary (count boundary fixup)&#45;&gt;[root] google_compute_route.route1</title>
<path fill="none" stroke="#000000" d="M1059.4485,-591.8314C1057.0697,-584.0463 1054.2362,-574.7729 1051.5967,-566.1347"/>
<polygon fill="#000000" stroke="#000000" points="1054.8958,-564.954 1048.6263,-556.4133 1048.2013,-566.9996 1054.8958,-564.954"/>
</g>
<!-- [root] meta.count&#45;boundary (count boundary fixup)&#45;&gt;[root] google_compute_route.route2 -->
<g id="edge_38" class="edge">
<title>[root] meta.count&#45;boundary (count boundary fixup)&#45;&gt;[root] google_compute_route.route2</title>
<path fill="none" stroke="#000000" d="M1029.1674,-591.8314C1010.5843,-582.4089 987.7011,-570.8062 967.9435,-560.7883"/>
<polygon fill="#000000" stroke="#000000" points="969.323,-557.5635 958.8211,-556.1628 966.1573,-563.8069 969.323,-557.5635"/>
</g>
<!-- [root] provider.google (close) -->
<g id="node_21" class="node">
<title>[root] provider.google (close)</title>
<polygon fill="none" stroke="#000000" points="1125,-610 1125,-625 1169,-625 1169,-610 1125,-610"/>
<text text-anchor="start" x="1127.7969" y="-615.6" font-family="courier new" font-size="8.00" fill="#000000">provider</text>
<polygon fill="none" stroke="#000000" points="1125,-595 1125,-610 1169,-610 1169,-595 1125,-595"/>
<text text-anchor="start" x="1132.5977" y="-600.6" font-family="courier new" font-size="8.00" fill="#000000">google</text>
</g>
<!-- [root] provider.google (close)&#45;&gt;[root] google_compute_firewall.network1&#45;allow&#45;network1 -->
<g id="edge_39" class="edge">
<title>[root] provider.google (close)&#45;&gt;[root] google_compute_firewall.network1&#45;allow&#45;network1</title>
<path fill="none" stroke="#000000" d="M1174.3473,-597.4586C1196.6665,-587.223 1228.7572,-572.5062 1255.4276,-560.2753"/>
<polygon fill="#000000" stroke="#000000" points="1256.9795,-563.4141 1264.6102,-556.0641 1254.0615,-557.0513 1256.9795,-563.4141"/>
</g>
<!-- [root] provider.google (close)&#45;&gt;[root] google_compute_firewall.network1&#45;allow&#45;network2 -->
<g id="edge_40" class="edge">
<title>[root] provider.google (close)&#45;&gt;[root] google_compute_firewall.network1&#45;allow&#45;network2</title>
<path fill="none" stroke="#000000" d="M1152.8039,-591.8314C1155.2908,-584.0463 1158.2531,-574.7729 1161.0125,-566.1347"/>
<polygon fill="#000000" stroke="#000000" points="1164.409,-567.0041 1164.118,-556.4133 1157.7409,-564.874 1164.409,-567.0041"/>
</g>
<!-- [root] provider.google (close)&#45;&gt;[root] google_compute_route.route1 -->
<g id="edge_41" class="edge">
<title>[root] provider.google (close)&#45;&gt;[root] google_compute_route.route1</title>
<path fill="none" stroke="#000000" d="M1120.7564,-591.8314C1107.7005,-582.7927 1091.7465,-571.7476 1077.6953,-562.0198"/>
<polygon fill="#000000" stroke="#000000" points="1079.4494,-558.9773 1069.2352,-556.1628 1075.4649,-564.7326 1079.4494,-558.9773"/>
</g>
<!-- [root] provider.google (close)&#45;&gt;[root] google_compute_route.route2 -->
<g id="edge_42" class="edge">
<title>[root] provider.google (close)&#45;&gt;[root] google_compute_route.route2</title>
<path fill="none" stroke="#000000" d="M1119.7249,-595.6934C1116.8132,-594.368 1113.8677,-593.1087 1111,-592 1058.6789,-571.7723 1041.4873,-572.3679 983.6829,-556.1346"/>
<polygon fill="#000000" stroke="#000000" points="984.6223,-552.763 974.0453,-553.379 982.6979,-559.4933 984.6223,-552.763"/>
</g>
<!-- [root] root -->
<g id="node_24" class="node">
<title>[root] root</title>
<polygon fill="none" stroke="#000000" points="1140.3089,-700 1071.6911,-700 1071.6911,-664 1140.3089,-664 1140.3089,-700"/>
<text text-anchor="middle" x="1106" y="-680.1313" font-family="courier new" font-size="8.00" fill="#000000">[root] root</text>
</g>
<!-- [root] root&#45;&gt;[root] meta.count&#45;boundary (count boundary fixup) -->
<g id="edge_45" class="edge">
<title>[root] root&#45;&gt;[root] meta.count&#45;boundary (count boundary fixup)</title>
<path fill="none" stroke="#000000" d="M1095.654,-663.8314C1091.0763,-655.7925 1085.5948,-646.1666 1080.5412,-637.2918"/>
<polygon fill="#000000" stroke="#000000" points="1083.4752,-635.3712 1075.4853,-628.4133 1077.3923,-638.8351 1083.4752,-635.3712"/>
</g>
<!-- [root] root&#45;&gt;[root] provider.google (close) -->
<g id="edge_46" class="edge">
<title>[root] root&#45;&gt;[root] provider.google (close)</title>
<path fill="none" stroke="#000000" d="M1116.346,-663.8314C1120.9237,-655.7925 1126.4052,-646.1666 1131.4588,-637.2918"/>
<polygon fill="#000000" stroke="#000000" points="1134.6077,-638.8351 1136.5147,-628.4133 1128.5248,-635.3712 1134.6077,-638.8351"/>
</g>
<!-- [root] var.region1 -->
<g id="node_23" class="node">
<title>[root] var.region1</title>
<polygon fill="none" stroke="#000000" points="912,-34 912,-49 951,-49 951,-34 912,-34"/>
<text text-anchor="start" x="924.2988" y="-39.6" font-family="courier new" font-size="8.00" fill="#000000">var</text>
<polygon fill="none" stroke="#000000" points="912,-19 912,-34 951,-34 951,-19 912,-19"/>
<text text-anchor="start" x="914.6973" y="-24.6" font-family="courier new" font-size="8.00" fill="#000000">region1</text>
</g>
<!-- [root] var.project&#45;&gt;[root] var.region1 -->
<g id="edge_48" class="edge">
<title>[root] var.project&#45;&gt;[root] var.region1</title>
<path fill="none" stroke="#000000" stroke-dasharray="5,2" d="M931,-87.8314C931,-77 931,-63.2876 931,-52.4133"/>
</g>
</g>
</svg>

