<?xml version="1.0" encoding="UTF-8" standalone="no"?>
<!DOCTYPE svg PUBLIC "-//W3C//DTD SVG 1.1//EN"
 "http://www.w3.org/Graphics/SVG/1.1/DTD/svg11.dtd">
<!-- Generated by graphviz version 2.40.1 (20161225.0304)
 -->
<!-- Title: %3 Pages: 1 -->
<svg width="1341pt" height="620pt"
 viewBox="0.00 0.00 1341.00 620.00" xmlns="http://www.w3.org/2000/svg" xmlns:xlink="http://www.w3.org/1999/xlink">
<g id="graph0" class="graph" transform="scale(1 1) rotate(0) translate(4 616)">
<title>%3</title>
<polygon fill="#ffffff" stroke="transparent" points="-4,4 -4,-616 1337,-616 1337,4 -4,4"/>
<!-- [root] google_compute_address.vpn_static_ip1 -->
<g id="node_0" class="node">
<title>[root] google_compute_address.vpn_static_ip1</title>
<polygon fill="none" stroke="#000000" points="446,-234 446,-249 557,-249 557,-234 446,-234"/>
<text text-anchor="start" x="448.6914" y="-239.6" font-family="courier new" font-size="8.00" fill="#000000">google_compute_address</text>
<polygon fill="none" stroke="#000000" points="446,-219 446,-234 557,-234 557,-219 446,-219"/>
<text text-anchor="start" x="467.8945" y="-224.6" font-family="courier new" font-size="8.00" fill="#000000">vpn_static_ip1</text>
</g>
<!-- [root] provider.google -->
<g id="node_18" class="node">
<title>[root] provider.google</title>
<polygon fill="none" stroke="#000000" points="437,-90 437,-105 481,-105 481,-90 437,-90"/>
<text text-anchor="start" x="439.7969" y="-95.6" font-family="courier new" font-size="8.00" fill="#000000">provider</text>
<polygon fill="none" stroke="#000000" points="437,-75 437,-90 481,-90 481,-75 437,-75"/>
<text text-anchor="start" x="444.5977" y="-80.6" font-family="courier new" font-size="8.00" fill="#000000">google</text>
</g>
<!-- [root] google_compute_address.vpn_static_ip1&#45;&gt;[root] provider.google -->
<g id="edge_0" class="edge">
<title>[root] google_compute_address.vpn_static_ip1&#45;&gt;[root] provider.google</title>
<path fill="none" stroke="#000000" d="M497.8933,-215.8361C494.5395,-197.49 488.636,-168.4449 481,-144 478.2665,-135.2492 474.7137,-125.9319 471.2635,-117.544"/>
<polygon fill="#000000" stroke="#000000" points="474.4358,-116.0594 467.3156,-108.2139 467.9892,-118.7873 474.4358,-116.0594"/>
</g>
<!-- [root] google_compute_address.vpn_static_ip2 -->
<g id="node_1" class="node">
<title>[root] google_compute_address.vpn_static_ip2</title>
<polygon fill="none" stroke="#000000" points="867,-234 867,-249 978,-249 978,-234 867,-234"/>
<text text-anchor="start" x="869.6914" y="-239.6" font-family="courier new" font-size="8.00" fill="#000000">google_compute_address</text>
<polygon fill="none" stroke="#000000" points="867,-219 867,-234 978,-234 978,-219 867,-219"/>
<text text-anchor="start" x="888.8945" y="-224.6" font-family="courier new" font-size="8.00" fill="#000000">vpn_static_ip2</text>
</g>
<!-- [root] google_compute_address.vpn_static_ip2&#45;&gt;[root] provider.google -->
<g id="edge_1" class="edge">
<title>[root] google_compute_address.vpn_static_ip2&#45;&gt;[root] provider.google</title>
<path fill="none" stroke="#000000" d="M866.1514,-216.6302C770.2008,-186.7881 576.5877,-126.5716 495.7573,-101.4321"/>
<polygon fill="#000000" stroke="#000000" points="496.6097,-98.0319 486.0214,-98.4041 494.5308,-104.7161 496.6097,-98.0319"/>
</g>
<!-- [root] var.region2 -->
<g id="node_19" class="node">
<title>[root] var.region2</title>
<polygon fill="none" stroke="#000000" points="972,-162 972,-177 1011,-177 1011,-162 972,-162"/>
<text text-anchor="start" x="984.2988" y="-167.6" font-family="courier new" font-size="8.00" fill="#000000">var</text>
<polygon fill="none" stroke="#000000" points="972,-147 972,-162 1011,-162 1011,-147 972,-147"/>
<text text-anchor="start" x="974.6973" y="-152.6" font-family="courier new" font-size="8.00" fill="#000000">region2</text>
</g>
<!-- [root] google_compute_address.vpn_static_ip2&#45;&gt;[root] var.region2 -->
<g id="edge_2" class="edge">
<title>[root] google_compute_address.vpn_static_ip2&#45;&gt;[root] var.region2</title>
<path fill="none" stroke="#000000" d="M939.4116,-215.8314C947.521,-207.3694 957.3156,-197.1489 966.182,-187.8971"/>
<polygon fill="#000000" stroke="#000000" points="968.9618,-190.0549 973.354,-180.4133 963.9079,-185.2115 968.9618,-190.0549"/>
</g>
<!-- [root] google_compute_firewall.network1&#45;allow&#45;network1 -->
<g id="node_2" class="node">
<title>[root] google_compute_firewall.network1&#45;allow&#45;network1</title>
<polygon fill="none" stroke="#000000" points="0,-450 0,-465 116,-465 116,-450 0,-450"/>
<text text-anchor="start" x="2.791" y="-455.6" font-family="courier new" font-size="8.00" fill="#000000">google_compute_firewall</text>
<polygon fill="none" stroke="#000000" points="0,-435 0,-450 116,-450 116,-435 0,-435"/>
<text text-anchor="start" x="2.791" y="-440.6" font-family="courier new" font-size="8.00" fill="#000000">network1&#45;allow&#45;network1</text>
</g>
<!-- [root] google_compute_network.network1 -->
<g id="node_10" class="node">
<title>[root] google_compute_network.network1</title>
<polygon fill="none" stroke="#000000" points="233,-162 233,-177 344,-177 344,-162 233,-162"/>
<text text-anchor="start" x="235.6914" y="-167.6" font-family="courier new" font-size="8.00" fill="#000000">google_compute_network</text>
<polygon fill="none" stroke="#000000" points="233,-147 233,-162 344,-162 344,-147 233,-147"/>
<text text-anchor="start" x="269.2969" y="-152.6" font-family="courier new" font-size="8.00" fill="#000000">network1</text>
</g>
<!-- [root] google_compute_firewall.network1&#45;allow&#45;network1&#45;&gt;[root] google_compute_network.network1 -->
<g id="edge_3" class="edge">
<title>[root] google_compute_firewall.network1&#45;allow&#45;network1&#45;&gt;[root] google_compute_network.network1</title>
<path fill="none" stroke="#000000" d="M58.044,-431.8171C59.1704,-388.1054 68.2799,-276.296 130,-216 154.7917,-191.7803 190.8893,-178.4049 222.3248,-171.0274"/>
<polygon fill="#000000" stroke="#000000" points="223.3251,-174.3914 232.347,-168.8367 221.8302,-167.5529 223.3251,-174.3914"/>
</g>
<!-- [root] google_compute_firewall.network1&#45;allow&#45;network2 -->
<g id="node_3" class="node">
<title>[root] google_compute_firewall.network1&#45;allow&#45;network2</title>
<polygon fill="none" stroke="#000000" points="86,-378 86,-393 202,-393 202,-378 86,-378"/>
<text text-anchor="start" x="88.791" y="-383.6" font-family="courier new" font-size="8.00" fill="#000000">google_compute_firewall</text>
<polygon fill="none" stroke="#000000" points="86,-363 86,-378 202,-378 202,-363 86,-363"/>
<text text-anchor="start" x="88.791" y="-368.6" font-family="courier new" font-size="8.00" fill="#000000">network1&#45;allow&#45;network2</text>
</g>
<!-- [root] google_compute_firewall.network1&#45;allow&#45;network2&#45;&gt;[root] google_compute_network.network1 -->
<g id="edge_4" class="edge">
<title>[root] google_compute_firewall.network1&#45;allow&#45;network2&#45;&gt;[root] google_compute_network.network1</title>
<path fill="none" stroke="#000000" d="M138.6701,-359.9529C130.3284,-327.7435 118.1299,-259.65 149,-216 158.2798,-202.8784 191.2528,-189.783 222.7545,-179.7747"/>
<polygon fill="#000000" stroke="#000000" points="223.9383,-183.0722 232.4558,-176.7712 221.868,-176.3853 223.9383,-183.0722"/>
</g>
<!-- [root] google_compute_network.network2 -->
<g id="node_11" class="node">
<title>[root] google_compute_network.network2</title>
<polygon fill="none" stroke="#000000" points="362,-162 362,-177 473,-177 473,-162 362,-162"/>
<text text-anchor="start" x="364.6914" y="-167.6" font-family="courier new" font-size="8.00" fill="#000000">google_compute_network</text>
<polygon fill="none" stroke="#000000" points="362,-147 362,-162 473,-162 473,-147 362,-147"/>
<text text-anchor="start" x="398.2969" y="-152.6" font-family="courier new" font-size="8.00" fill="#000000">network2</text>
</g>
<!-- [root] google_compute_firewall.network1&#45;allow&#45;network2&#45;&gt;[root] google_compute_network.network2 -->
<g id="edge_5" class="edge">
<title>[root] google_compute_firewall.network1&#45;allow&#45;network2&#45;&gt;[root] google_compute_network.network2</title>
<path fill="none" stroke="#000000" d="M146.4154,-359.8874C151.8432,-321.9313 166.1802,-235.9106 187,-216 239.0206,-166.251 276.0016,-195.3862 351.4835,-179.8654"/>
<polygon fill="#000000" stroke="#000000" points="352.4063,-183.2451 361.384,-177.6192 350.8575,-176.4186 352.4063,-183.2451"/>
</g>
<!-- [root] google_compute_forwarding_rule.fr1_esp -->
<g id="node_4" class="node">
<title>[root] google_compute_forwarding_rule.fr1_esp</title>
<polygon fill="none" stroke="#000000" points="229,-306 229,-321 379,-321 379,-306 229,-306"/>
<text text-anchor="start" x="231.9883" y="-311.6" font-family="courier new" font-size="8.00" fill="#000000">google_compute_forwarding_rule</text>
<polygon fill="none" stroke="#000000" points="229,-291 229,-306 379,-306 379,-291 229,-291"/>
<text text-anchor="start" x="287.1973" y="-296.6" font-family="courier new" font-size="8.00" fill="#000000">fr1_esp</text>
</g>
<!-- [root] google_compute_forwarding_rule.fr1_esp&#45;&gt;[root] google_compute_address.vpn_static_ip1 -->
<g id="edge_6" class="edge">
<title>[root] google_compute_forwarding_rule.fr1_esp&#45;&gt;[root] google_compute_address.vpn_static_ip1</title>
<path fill="none" stroke="#000000" d="M353.4571,-287.9243C380.2711,-278.1243 413.5949,-265.945 441.7847,-255.6422"/>
<polygon fill="#000000" stroke="#000000" points="443.3316,-258.8033 451.5225,-252.0831 440.9287,-252.2286 443.3316,-258.8033"/>
</g>
<!-- [root] google_compute_vpn_gateway.target_gateway1 -->
<g id="node_14" class="node">
<title>[root] google_compute_vpn_gateway.target_gateway1</title>
<polygon fill="none" stroke="#000000" points="253,-234 253,-249 383,-249 383,-234 253,-234"/>
<text text-anchor="start" x="255.5898" y="-239.6" font-family="courier new" font-size="8.00" fill="#000000">google_compute_vpn_gateway</text>
<polygon fill="none" stroke="#000000" points="253,-219 253,-234 383,-234 383,-219 253,-219"/>
<text text-anchor="start" x="281.9941" y="-224.6" font-family="courier new" font-size="8.00" fill="#000000">target_gateway1</text>
</g>
<!-- [root] google_compute_forwarding_rule.fr1_esp&#45;&gt;[root] google_compute_vpn_gateway.target_gateway1 -->
<g id="edge_7" class="edge">
<title>[root] google_compute_forwarding_rule.fr1_esp&#45;&gt;[root] google_compute_vpn_gateway.target_gateway1</title>
<path fill="none" stroke="#000000" d="M307.5328,-287.8314C309.0301,-280.131 310.8105,-270.9743 312.4745,-262.4166"/>
<polygon fill="#000000" stroke="#000000" points="315.9465,-262.8975 314.4196,-252.4133 309.0752,-261.5614 315.9465,-262.8975"/>
</g>
<!-- [root] google_compute_forwarding_rule.fr1_udp4500 -->
<g id="node_5" class="node">
<title>[root] google_compute_forwarding_rule.fr1_udp4500</title>
<polygon fill="none" stroke="#000000" points="397,-306 397,-321 547,-321 547,-306 397,-306"/>
<text text-anchor="start" x="399.9883" y="-311.6" font-family="courier new" font-size="8.00" fill="#000000">google_compute_forwarding_rule</text>
<polygon fill="none" stroke="#000000" points="397,-291 397,-306 547,-306 547,-291 397,-291"/>
<text text-anchor="start" x="445.5957" y="-296.6" font-family="courier new" font-size="8.00" fill="#000000">fr1_udp4500</text>
</g>
<!-- [root] google_compute_forwarding_rule.fr1_udp4500&#45;&gt;[root] google_compute_address.vpn_static_ip1 -->
<g id="edge_8" class="edge">
<title>[root] google_compute_forwarding_rule.fr1_udp4500&#45;&gt;[root] google_compute_address.vpn_static_ip1</title>
<path fill="none" stroke="#000000" d="M479.3179,-287.8314C482.4876,-279.9617 486.27,-270.5712 489.7813,-261.8533"/>
<polygon fill="#000000" stroke="#000000" points="493.0939,-262.9968 493.5835,-252.4133 486.6008,-260.3815 493.0939,-262.9968"/>
</g>
<!-- [root] google_compute_forwarding_rule.fr1_udp4500&#45;&gt;[root] google_compute_vpn_gateway.target_gateway1 -->
<g id="edge_9" class="edge">
<title>[root] google_compute_forwarding_rule.fr1_udp4500&#45;&gt;[root] google_compute_vpn_gateway.target_gateway1</title>
<path fill="none" stroke="#000000" d="M433.1393,-287.8314C412.7258,-278.2874 387.5277,-266.5065 365.914,-256.4013"/>
<polygon fill="#000000" stroke="#000000" points="367.1225,-253.1027 356.5813,-252.038 364.1577,-259.4439 367.1225,-253.1027"/>
</g>
<!-- [root] google_compute_forwarding_rule.fr1_udp500 -->
<g id="node_6" class="node">
<title>[root] google_compute_forwarding_rule.fr1_udp500</title>
<polygon fill="none" stroke="#000000" points="565,-306 565,-321 715,-321 715,-306 565,-306"/>
<text text-anchor="start" x="567.9883" y="-311.6" font-family="courier new" font-size="8.00" fill="#000000">google_compute_forwarding_rule</text>
<polygon fill="none" stroke="#000000" points="565,-291 565,-306 715,-306 715,-291 565,-291"/>
<text text-anchor="start" x="615.9961" y="-296.6" font-family="courier new" font-size="8.00" fill="#000000">fr1_udp500</text>
</g>
<!-- [root] google_compute_forwarding_rule.fr1_udp500&#45;&gt;[root] google_compute_address.vpn_static_ip1 -->
<g id="edge_10" class="edge">
<title>[root] google_compute_forwarding_rule.fr1_udp500&#45;&gt;[root] google_compute_address.vpn_static_ip1</title>
<path fill="none" stroke="#000000" d="M604.9244,-287.8314C586.7339,-278.4089 564.3342,-266.8062 544.994,-256.7883"/>
<polygon fill="#000000" stroke="#000000" points="546.5537,-253.6545 536.0643,-252.1628 543.334,-259.8701 546.5537,-253.6545"/>
</g>
<!-- [root] google_compute_forwarding_rule.fr1_udp500&#45;&gt;[root] google_compute_vpn_gateway.target_gateway1 -->
<g id="edge_11" class="edge">
<title>[root] google_compute_forwarding_rule.fr1_udp500&#45;&gt;[root] google_compute_vpn_gateway.target_gateway1</title>
<path fill="none" stroke="#000000" d="M564.9117,-289.2101C513.1472,-277.6354 444.6261,-262.3139 392.9019,-250.7483"/>
<polygon fill="#000000" stroke="#000000" points="393.6423,-247.3274 383.1195,-248.5609 392.1147,-254.1587 393.6423,-247.3274"/>
</g>
<!-- [root] google_compute_forwarding_rule.fr2_esp -->
<g id="node_7" class="node">
<title>[root] google_compute_forwarding_rule.fr2_esp</title>
<polygon fill="none" stroke="#000000" points="847,-306 847,-321 997,-321 997,-306 847,-306"/>
<text text-anchor="start" x="849.9883" y="-311.6" font-family="courier new" font-size="8.00" fill="#000000">google_compute_forwarding_rule</text>
<polygon fill="none" stroke="#000000" points="847,-291 847,-306 997,-306 997,-291 847,-291"/>
<text text-anchor="start" x="905.1973" y="-296.6" font-family="courier new" font-size="8.00" fill="#000000">fr2_esp</text>
</g>
<!-- [root] google_compute_forwarding_rule.fr2_esp&#45;&gt;[root] google_compute_address.vpn_static_ip2 -->
<g id="edge_12" class="edge">
<title>[root] google_compute_forwarding_rule.fr2_esp&#45;&gt;[root] google_compute_address.vpn_static_ip2</title>
<path fill="none" stroke="#000000" d="M922,-287.8314C922,-280.131 922,-270.9743 922,-262.4166"/>
<polygon fill="#000000" stroke="#000000" points="925.5001,-262.4132 922,-252.4133 918.5001,-262.4133 925.5001,-262.4132"/>
</g>
<!-- [root] google_compute_vpn_gateway.target_gateway2 -->
<g id="node_15" class="node">
<title>[root] google_compute_vpn_gateway.target_gateway2</title>
<polygon fill="none" stroke="#000000" points="996,-234 996,-249 1126,-249 1126,-234 996,-234"/>
<text text-anchor="start" x="998.5898" y="-239.6" font-family="courier new" font-size="8.00" fill="#000000">google_compute_vpn_gateway</text>
<polygon fill="none" stroke="#000000" points="996,-219 996,-234 1126,-234 1126,-219 996,-219"/>
<text text-anchor="start" x="1024.9941" y="-224.6" font-family="courier new" font-size="8.00" fill="#000000">target_gateway2</text>
</g>
<!-- [root] google_compute_forwarding_rule.fr2_esp&#45;&gt;[root] google_compute_vpn_gateway.target_gateway2 -->
<g id="edge_13" class="edge">
<title>[root] google_compute_forwarding_rule.fr2_esp&#45;&gt;[root] google_compute_vpn_gateway.target_gateway2</title>
<path fill="none" stroke="#000000" d="M957.0756,-287.8314C975.2661,-278.4089 997.6658,-266.8062 1017.006,-256.7883"/>
<polygon fill="#000000" stroke="#000000" points="1018.666,-259.8701 1025.9357,-252.1628 1015.4463,-253.6545 1018.666,-259.8701"/>
</g>
<!-- [root] google_compute_forwarding_rule.fr2_udp4500 -->
<g id="node_8" class="node">
<title>[root] google_compute_forwarding_rule.fr2_udp4500</title>
<polygon fill="none" stroke="#000000" points="1015,-306 1015,-321 1165,-321 1165,-306 1015,-306"/>
<text text-anchor="start" x="1017.9883" y="-311.6" font-family="courier new" font-size="8.00" fill="#000000">google_compute_forwarding_rule</text>
<polygon fill="none" stroke="#000000" points="1015,-291 1015,-306 1165,-306 1165,-291 1015,-291"/>
<text text-anchor="start" x="1063.5957" y="-296.6" font-family="courier new" font-size="8.00" fill="#000000">fr2_udp4500</text>
</g>
<!-- [root] google_compute_forwarding_rule.fr2_udp4500&#45;&gt;[root] google_compute_address.vpn_static_ip2 -->
<g id="edge_14" class="edge">
<title>[root] google_compute_forwarding_rule.fr2_udp4500&#45;&gt;[root] google_compute_address.vpn_static_ip2</title>
<path fill="none" stroke="#000000" d="M1047.6065,-287.8314C1025.0376,-278.159 997.1079,-266.1891 973.3204,-255.9944"/>
<polygon fill="#000000" stroke="#000000" points="974.6588,-252.7602 964.0886,-252.038 971.9014,-259.1943 974.6588,-252.7602"/>
</g>
<!-- [root] google_compute_forwarding_rule.fr2_udp4500&#45;&gt;[root] google_compute_vpn_gateway.target_gateway2 -->
<g id="edge_15" class="edge">
<title>[root] google_compute_forwarding_rule.fr2_udp4500&#45;&gt;[root] google_compute_vpn_gateway.target_gateway2</title>
<path fill="none" stroke="#000000" d="M1082.6821,-287.8314C1079.5124,-279.9617 1075.73,-270.5712 1072.2187,-261.8533"/>
<polygon fill="#000000" stroke="#000000" points="1075.3992,-260.3815 1068.4165,-252.4133 1068.9061,-262.9968 1075.3992,-260.3815"/>
</g>
<!-- [root] google_compute_forwarding_rule.fr2_udp500 -->
<g id="node_9" class="node">
<title>[root] google_compute_forwarding_rule.fr2_udp500</title>
<polygon fill="none" stroke="#000000" points="1183,-306 1183,-321 1333,-321 1333,-306 1183,-306"/>
<text text-anchor="start" x="1185.9883" y="-311.6" font-family="courier new" font-size="8.00" fill="#000000">google_compute_forwarding_rule</text>
<polygon fill="none" stroke="#000000" points="1183,-291 1183,-306 1333,-306 1333,-291 1183,-291"/>
<text text-anchor="start" x="1233.9961" y="-296.6" font-family="courier new" font-size="8.00" fill="#000000">fr2_udp500</text>
</g>
<!-- [root] google_compute_forwarding_rule.fr2_udp500&#45;&gt;[root] google_compute_address.vpn_static_ip2 -->
<g id="edge_16" class="edge">
<title>[root] google_compute_forwarding_rule.fr2_udp500&#45;&gt;[root] google_compute_address.vpn_static_ip2</title>
<path fill="none" stroke="#000000" d="M1182.9104,-289.8281C1179.9021,-289.2059 1176.923,-288.5945 1174,-288 1094.1385,-271.7581 1071.0968,-271.3197 987.5321,-252.0267"/>
<polygon fill="#000000" stroke="#000000" points="988.1276,-248.5717 977.5941,-249.7101 986.5384,-255.389 988.1276,-248.5717"/>
</g>
<!-- [root] google_compute_forwarding_rule.fr2_udp500&#45;&gt;[root] google_compute_vpn_gateway.target_gateway2 -->
<g id="edge_17" class="edge">
<title>[root] google_compute_forwarding_rule.fr2_udp500&#45;&gt;[root] google_compute_vpn_gateway.target_gateway2</title>
<path fill="none" stroke="#000000" d="M1208.5429,-287.9243C1181.7289,-278.1243 1148.4051,-265.945 1120.2153,-255.6422"/>
<polygon fill="#000000" stroke="#000000" points="1121.0713,-252.2286 1110.4775,-252.0831 1118.6684,-258.8033 1121.0713,-252.2286"/>
</g>
<!-- [root] google_compute_network.network1&#45;&gt;[root] provider.google -->
<g id="edge_18" class="edge">
<title>[root] google_compute_network.network1&#45;&gt;[root] provider.google</title>
<path fill="none" stroke="#000000" d="M331.1505,-143.8314C359.3485,-131.9585 395.7682,-116.6239 422.5194,-105.3603"/>
<polygon fill="#000000" stroke="#000000" points="424.0464,-108.515 431.9045,-101.4086 421.33,-102.0635 424.0464,-108.515"/>
</g>
<!-- [root] google_compute_network.network2&#45;&gt;[root] provider.google -->
<g id="edge_19" class="edge">
<title>[root] google_compute_network.network2&#45;&gt;[root] provider.google</title>
<path fill="none" stroke="#000000" d="M427.5984,-143.8314C432.2877,-135.7925 437.9028,-126.1666 443.0798,-117.2918"/>
<polygon fill="#000000" stroke="#000000" points="446.2434,-118.8146 448.2589,-108.4133 440.1969,-115.2875 446.2434,-118.8146"/>
</g>
<!-- [root] google_compute_route.route1 -->
<g id="node_12" class="node">
<title>[root] google_compute_route.route1</title>
<polygon fill="none" stroke="#000000" points="210,-450 210,-465 312,-465 312,-450 210,-450"/>
<text text-anchor="start" x="212.9922" y="-455.6" font-family="courier new" font-size="8.00" fill="#000000">google_compute_route</text>
<polygon fill="none" stroke="#000000" points="210,-435 210,-450 312,-450 312,-435 210,-435"/>
<text text-anchor="start" x="246.5977" y="-440.6" font-family="courier new" font-size="8.00" fill="#000000">route1</text>
</g>
<!-- [root] google_compute_route.route1&#45;&gt;[root] google_compute_network.network2 -->
<g id="edge_20" class="edge">
<title>[root] google_compute_route.route1&#45;&gt;[root] google_compute_network.network2</title>
<path fill="none" stroke="#000000" d="M251.6826,-431.8363C230.4727,-387.673 184.8283,-274.0467 244,-216 248.1238,-211.9546 304.4659,-194.7749 351.7479,-180.8643"/>
<polygon fill="#000000" stroke="#000000" points="352.7608,-184.2147 361.3711,-178.0412 350.7903,-177.4978 352.7608,-184.2147"/>
</g>
<!-- [root] google_compute_vpn_tunnel.tunnel1 -->
<g id="node_16" class="node">
<title>[root] google_compute_vpn_tunnel.tunnel1</title>
<polygon fill="none" stroke="#000000" points="409,-378 409,-393 535,-393 535,-378 409,-378"/>
<text text-anchor="start" x="411.9902" y="-383.6" font-family="courier new" font-size="8.00" fill="#000000">google_compute_vpn_tunnel</text>
<polygon fill="none" stroke="#000000" points="409,-363 409,-378 535,-378 535,-363 409,-363"/>
<text text-anchor="start" x="455.1973" y="-368.6" font-family="courier new" font-size="8.00" fill="#000000">tunnel1</text>
</g>
<!-- [root] google_compute_route.route1&#45;&gt;[root] google_compute_vpn_tunnel.tunnel1 -->
<g id="edge_21" class="edge">
<title>[root] google_compute_route.route1&#45;&gt;[root] google_compute_vpn_tunnel.tunnel1</title>
<path fill="none" stroke="#000000" d="M312.0772,-432.5708C341.3517,-422.5814 378.3248,-409.965 409.3447,-399.38"/>
<polygon fill="#000000" stroke="#000000" points="410.8558,-402.5626 419.1897,-396.0206 408.5951,-395.9377 410.8558,-402.5626"/>
</g>
<!-- [root] google_compute_route.route2 -->
<g id="node_13" class="node">
<title>[root] google_compute_route.route2</title>
<polygon fill="none" stroke="#000000" points="520,-450 520,-465 622,-465 622,-450 520,-450"/>
<text text-anchor="start" x="522.9922" y="-455.6" font-family="courier new" font-size="8.00" fill="#000000">google_compute_route</text>
<polygon fill="none" stroke="#000000" points="520,-435 520,-450 622,-450 622,-435 520,-435"/>
<text text-anchor="start" x="556.5977" y="-440.6" font-family="courier new" font-size="8.00" fill="#000000">route2</text>
</g>
<!-- [root] google_compute_route.route2&#45;&gt;[root] google_compute_network.network1 -->
<g id="edge_22" class="edge">
<title>[root] google_compute_route.route2&#45;&gt;[root] google_compute_network.network1</title>
<path fill="none" stroke="#000000" d="M611.9997,-431.818C669.2425,-403.7749 762.0551,-347.0075 724,-288 632.4689,-146.0737 524.1908,-214.9511 353.7549,-180.2034"/>
<polygon fill="#000000" stroke="#000000" points="354.27,-176.7343 343.7584,-178.0603 352.8026,-183.5788 354.27,-176.7343"/>
</g>
<!-- [root] google_compute_vpn_tunnel.tunnel2 -->
<g id="node_17" class="node">
<title>[root] google_compute_vpn_tunnel.tunnel2</title>
<polygon fill="none" stroke="#000000" points="859,-378 859,-393 985,-393 985,-378 859,-378"/>
<text text-anchor="start" x="861.9902" y="-383.6" font-family="courier new" font-size="8.00" fill="#000000">google_compute_vpn_tunnel</text>
<polygon fill="none" stroke="#000000" points="859,-363 859,-378 985,-378 985,-363 859,-363"/>
<text text-anchor="start" x="905.1973" y="-368.6" font-family="courier new" font-size="8.00" fill="#000000">tunnel2</text>
</g>
<!-- [root] google_compute_route.route2&#45;&gt;[root] google_compute_vpn_tunnel.tunnel2 -->
<g id="edge_23" class="edge">
<title>[root] google_compute_route.route2&#45;&gt;[root] google_compute_vpn_tunnel.tunnel2</title>
<path fill="none" stroke="#000000" d="M622.0384,-439.5306C681.6288,-427.3069 780.6619,-406.9924 848.5207,-393.0727"/>
<polygon fill="#000000" stroke="#000000" points="849.6225,-396.4196 858.7152,-390.9815 848.2158,-389.5624 849.6225,-396.4196"/>
</g>
<!-- [root] google_compute_vpn_gateway.target_gateway1&#45;&gt;[root] google_compute_network.network1 -->
<g id="edge_24" class="edge">
<title>[root] google_compute_vpn_gateway.target_gateway1&#45;&gt;[root] google_compute_network.network1</title>
<path fill="none" stroke="#000000" d="M310.4297,-215.8314C307.1507,-207.9617 303.238,-198.5712 299.6055,-189.8533"/>
<polygon fill="#000000" stroke="#000000" points="302.7492,-188.2979 295.6722,-180.4133 296.2876,-190.9902 302.7492,-188.2979"/>
</g>
<!-- [root] google_compute_vpn_gateway.target_gateway2&#45;&gt;[root] google_compute_network.network2 -->
<g id="edge_25" class="edge">
<title>[root] google_compute_vpn_gateway.target_gateway2&#45;&gt;[root] google_compute_network.network2</title>
<path fill="none" stroke="#000000" d="M995.7357,-217.5845C992.7906,-217.0144 989.8686,-216.4822 987,-216 806.0408,-185.5828 589.6673,-170.954 483.0516,-165.1601"/>
<polygon fill="#000000" stroke="#000000" points="482.9439,-161.6495 472.7713,-164.6105 482.5701,-168.6395 482.9439,-161.6495"/>
</g>
<!-- [root] google_compute_vpn_gateway.target_gateway2&#45;&gt;[root] var.region2 -->
<g id="edge_26" class="edge">
<title>[root] google_compute_vpn_gateway.target_gateway2&#45;&gt;[root] var.region2</title>
<path fill="none" stroke="#000000" d="M1043.336,-215.8314C1035.0268,-207.2848 1024.9736,-196.9443 1015.9082,-187.6198"/>
<polygon fill="#000000" stroke="#000000" points="1018.3821,-185.1435 1008.9018,-180.4133 1013.3631,-190.023 1018.3821,-185.1435"/>
</g>
<!-- [root] google_compute_vpn_tunnel.tunnel1&#45;&gt;[root] google_compute_address.vpn_static_ip2 -->
<g id="edge_27" class="edge">
<title>[root] google_compute_vpn_tunnel.tunnel1&#45;&gt;[root] google_compute_address.vpn_static_ip2</title>
<path fill="none" stroke="#000000" d="M535.1341,-368.3606C586.7177,-359.5637 661.118,-344.7589 724,-324 779.2696,-305.7541 839.7659,-276.8513 879.1568,-256.7401"/>
<polygon fill="#000000" stroke="#000000" points="880.9188,-259.7697 888.2101,-252.0828 877.7166,-253.545 880.9188,-259.7697"/>
</g>
<!-- [root] google_compute_vpn_tunnel.tunnel1&#45;&gt;[root] google_compute_forwarding_rule.fr1_esp -->
<g id="edge_28" class="edge">
<title>[root] google_compute_vpn_tunnel.tunnel1&#45;&gt;[root] google_compute_forwarding_rule.fr1_esp</title>
<path fill="none" stroke="#000000" d="M429.6065,-359.8314C407.0376,-350.159 379.1079,-338.1891 355.3204,-327.9944"/>
<polygon fill="#000000" stroke="#000000" points="356.6588,-324.7602 346.0886,-324.038 353.9014,-331.1943 356.6588,-324.7602"/>
</g>
<!-- [root] google_compute_vpn_tunnel.tunnel1&#45;&gt;[root] google_compute_forwarding_rule.fr1_udp4500 -->
<g id="edge_29" class="edge">
<title>[root] google_compute_vpn_tunnel.tunnel1&#45;&gt;[root] google_compute_forwarding_rule.fr1_udp4500</title>
<path fill="none" stroke="#000000" d="M472,-359.8314C472,-352.131 472,-342.9743 472,-334.4166"/>
<polygon fill="#000000" stroke="#000000" points="475.5001,-334.4132 472,-324.4133 468.5001,-334.4133 475.5001,-334.4132"/>
</g>
<!-- [root] google_compute_vpn_tunnel.tunnel1&#45;&gt;[root] google_compute_forwarding_rule.fr1_udp500 -->
<g id="edge_30" class="edge">
<title>[root] google_compute_vpn_tunnel.tunnel1&#45;&gt;[root] google_compute_forwarding_rule.fr1_udp500</title>
<path fill="none" stroke="#000000" d="M514.3935,-359.8314C536.9624,-350.159 564.8921,-338.1891 588.6796,-327.9944"/>
<polygon fill="#000000" stroke="#000000" points="590.0986,-331.1943 597.9114,-324.038 587.3412,-324.7602 590.0986,-331.1943"/>
</g>
<!-- [root] google_compute_vpn_tunnel.tunnel2&#45;&gt;[root] google_compute_address.vpn_static_ip1 -->
<g id="edge_31" class="edge">
<title>[root] google_compute_vpn_tunnel.tunnel2&#45;&gt;[root] google_compute_address.vpn_static_ip1</title>
<path fill="none" stroke="#000000" d="M887.4104,-359.8484C848.5221,-340.0201 783.0774,-308.3744 724,-288 672.1855,-270.1304 611.6488,-255.8702 566.734,-246.5017"/>
<polygon fill="#000000" stroke="#000000" points="567.3223,-243.0495 556.8219,-244.4605 565.9104,-249.9056 567.3223,-243.0495"/>
</g>
<!-- [root] google_compute_vpn_tunnel.tunnel2&#45;&gt;[root] google_compute_forwarding_rule.fr2_esp -->
<g id="edge_32" class="edge">
<title>[root] google_compute_vpn_tunnel.tunnel2&#45;&gt;[root] google_compute_forwarding_rule.fr2_esp</title>
<path fill="none" stroke="#000000" d="M922,-359.8314C922,-352.131 922,-342.9743 922,-334.4166"/>
<polygon fill="#000000" stroke="#000000" points="925.5001,-334.4132 922,-324.4133 918.5001,-334.4133 925.5001,-334.4132"/>
</g>
<!-- [root] google_compute_vpn_tunnel.tunnel2&#45;&gt;[root] google_compute_forwarding_rule.fr2_udp4500 -->
<g id="edge_33" class="edge">
<title>[root] google_compute_vpn_tunnel.tunnel2&#45;&gt;[root] google_compute_forwarding_rule.fr2_udp4500</title>
<path fill="none" stroke="#000000" d="M964.3935,-359.8314C986.9624,-350.159 1014.8921,-338.1891 1038.6796,-327.9944"/>
<polygon fill="#000000" stroke="#000000" points="1040.0986,-331.1943 1047.9114,-324.038 1037.3412,-324.7602 1040.0986,-331.1943"/>
</g>
<!-- [root] google_compute_vpn_tunnel.tunnel2&#45;&gt;[root] google_compute_forwarding_rule.fr2_udp500 -->
<g id="edge_34" class="edge">
<title>[root] google_compute_vpn_tunnel.tunnel2&#45;&gt;[root] google_compute_forwarding_rule.fr2_udp500</title>
<path fill="none" stroke="#000000" d="M985.199,-364.4574C1038.2116,-353.0975 1114.4046,-336.7704 1172.8005,-324.257"/>
<polygon fill="#000000" stroke="#000000" points="1173.704,-327.643 1182.7487,-322.1253 1172.2373,-320.7983 1173.704,-327.643"/>
</g>
<!-- [root] var.project -->
<g id="node_22" class="node">
<title>[root] var.project</title>
<polygon fill="none" stroke="#000000" points="404,-18 404,-33 443,-33 443,-18 404,-18"/>
<text text-anchor="start" x="416.2988" y="-23.6" font-family="courier new" font-size="8.00" fill="#000000">var</text>
<polygon fill="none" stroke="#000000" points="404,-3 404,-18 443,-18 443,-3 404,-3"/>
<text text-anchor="start" x="406.6973" y="-8.6" font-family="courier new" font-size="8.00" fill="#000000">project</text>
</g>
<!-- [root] provider.google&#45;&gt;[root] var.project -->
<g id="edge_43" class="edge">
<title>[root] provider.google&#45;&gt;[root] var.project</title>
<path fill="none" stroke="#000000" d="M449.9157,-71.8314C445.9385,-63.8771 441.1845,-54.369 436.7861,-45.5723"/>
<polygon fill="#000000" stroke="#000000" points="439.8093,-43.7923 432.2066,-36.4133 433.5483,-46.9228 439.8093,-43.7923"/>
</g>
<!-- [root] var.region1 -->
<g id="node_23" class="node">
<title>[root] var.region1</title>
<polygon fill="none" stroke="#000000" points="476,-18 476,-33 515,-33 515,-18 476,-18"/>
<text text-anchor="start" x="488.2988" y="-23.6" font-family="courier new" font-size="8.00" fill="#000000">var</text>
<polygon fill="none" stroke="#000000" points="476,-3 476,-18 515,-18 515,-3 476,-3"/>
<text text-anchor="start" x="478.6973" y="-8.6" font-family="courier new" font-size="8.00" fill="#000000">region1</text>
</g>
<!-- [root] provider.google&#45;&gt;[root] var.region1 -->
<g id="edge_44" class="edge">
<title>[root] provider.google&#45;&gt;[root] var.region1</title>
<path fill="none" stroke="#000000" d="M468.0843,-71.8314C472.0615,-63.8771 476.8155,-54.369 481.2139,-45.5723"/>
<polygon fill="#000000" stroke="#000000" points="484.4517,-46.9228 485.7934,-36.4133 478.1907,-43.7923 484.4517,-46.9228"/>
</g>
<!-- [root] meta.count&#45;boundary (count boundary fixup) -->
<g id="node_20" class="node">
<title>[root] meta.count&#45;boundary (count boundary fixup)</title>
<polygon fill="none" stroke="#000000" points="125,-522 125,-537 198,-537 198,-522 125,-522"/>
<text text-anchor="start" x="151.8984" y="-527.6" font-family="courier new" font-size="8.00" fill="#000000">meta</text>
<polygon fill="none" stroke="#000000" points="125,-507 125,-522 198,-522 198,-507 125,-507"/>
<text text-anchor="start" x="127.8945" y="-512.6" font-family="courier new" font-size="8.00" fill="#000000">count&#45;boundary</text>
</g>
<!-- [root] meta.count&#45;boundary (count boundary fixup)&#45;&gt;[root] google_compute_firewall.network1&#45;allow&#45;network1 -->
<g id="edge_35" class="edge">
<title>[root] meta.count&#45;boundary (count boundary fixup)&#45;&gt;[root] google_compute_firewall.network1&#45;allow&#45;network1</title>
<path fill="none" stroke="#000000" d="M135.0088,-503.8314C122.0784,-494.7927 106.2778,-483.7476 92.3617,-474.0198"/>
<polygon fill="#000000" stroke="#000000" points="94.1843,-471.0235 83.9829,-468.1628 90.1737,-476.7608 94.1843,-471.0235"/>
</g>
<!-- [root] meta.count&#45;boundary (count boundary fixup)&#45;&gt;[root] google_compute_firewall.network1&#45;allow&#45;network2 -->
<g id="edge_36" class="edge">
<title>[root] meta.count&#45;boundary (count boundary fixup)&#45;&gt;[root] google_compute_firewall.network1&#45;allow&#45;network2</title>
<path fill="none" stroke="#000000" d="M158.8469,-503.7623C155.9473,-479.201 150.7584,-435.2474 147.3474,-406.3541"/>
<polygon fill="#000000" stroke="#000000" points="150.7839,-405.6103 146.1356,-396.0896 143.8322,-406.431 150.7839,-405.6103"/>
</g>
<!-- [root] meta.count&#45;boundary (count boundary fixup)&#45;&gt;[root] google_compute_route.route1 -->
<g id="edge_37" class="edge">
<title>[root] meta.count&#45;boundary (count boundary fixup)&#45;&gt;[root] google_compute_route.route1</title>
<path fill="none" stroke="#000000" d="M186.2342,-503.8314C198.788,-494.7927 214.1283,-483.7476 227.6391,-474.0198"/>
<polygon fill="#000000" stroke="#000000" points="229.7036,-476.8463 235.7739,-468.1628 225.6134,-471.1655 229.7036,-476.8463"/>
</g>
<!-- [root] meta.count&#45;boundary (count boundary fixup)&#45;&gt;[root] google_compute_route.route2 -->
<g id="edge_38" class="edge">
<title>[root] meta.count&#45;boundary (count boundary fixup)&#45;&gt;[root] google_compute_route.route2</title>
<path fill="none" stroke="#000000" d="M197.6631,-506.8111C200.7929,-505.7724 203.9337,-504.8161 207,-504 311.2988,-476.2395 436.4618,-461.6016 509.5288,-454.8562"/>
<polygon fill="#000000" stroke="#000000" points="510.2778,-458.3029 519.9225,-453.9176 509.6482,-451.3312 510.2778,-458.3029"/>
</g>
<!-- [root] provider.google (close) -->
<g id="node_21" class="node">
<title>[root] provider.google (close)</title>
<polygon fill="none" stroke="#000000" points="221,-522 221,-537 265,-537 265,-522 221,-522"/>
<text text-anchor="start" x="223.7969" y="-527.6" font-family="courier new" font-size="8.00" fill="#000000">provider</text>
<polygon fill="none" stroke="#000000" points="221,-507 221,-522 265,-522 265,-507 221,-507"/>
<text text-anchor="start" x="228.5977" y="-512.6" font-family="courier new" font-size="8.00" fill="#000000">google</text>
</g>
<!-- [root] provider.google (close)&#45;&gt;[root] google_compute_firewall.network1&#45;allow&#45;network1 -->
<g id="edge_39" class="edge">
<title>[root] provider.google (close)&#45;&gt;[root] google_compute_firewall.network1&#45;allow&#45;network1</title>
<path fill="none" stroke="#000000" d="M215.6657,-508.3138C212.4299,-506.8094 209.1564,-505.3394 206,-504 178.5302,-492.3433 147.5936,-480.8143 121.1343,-471.4215"/>
<polygon fill="#000000" stroke="#000000" points="122.1983,-468.0855 111.6035,-468.0613 119.8708,-474.6872 122.1983,-468.0855"/>
</g>
<!-- [root] provider.google (close)&#45;&gt;[root] google_compute_firewall.network1&#45;allow&#45;network2 -->
<g id="edge_40" class="edge">
<title>[root] provider.google (close)&#45;&gt;[root] google_compute_firewall.network1&#45;allow&#45;network2</title>
<path fill="none" stroke="#000000" d="M228.1666,-503.8377C219.9162,-493.5145 209.6072,-480.2418 201,-468 186.5061,-447.3858 171.2942,-423.2206 160.2341,-405.1236"/>
<polygon fill="#000000" stroke="#000000" points="163.0365,-402.9952 154.8547,-396.264 157.0531,-406.6283 163.0365,-402.9952"/>
</g>
<!-- [root] provider.google (close)&#45;&gt;[root] google_compute_route.route1 -->
<g id="edge_41" class="edge">
<title>[root] provider.google (close)&#45;&gt;[root] google_compute_route.route1</title>
<path fill="none" stroke="#000000" d="M247.5422,-503.8314C249.4884,-496.0463 251.8068,-486.7729 253.9663,-478.1347"/>
<polygon fill="#000000" stroke="#000000" points="257.3668,-478.9636 256.3967,-468.4133 250.5758,-477.2658 257.3668,-478.9636"/>
</g>
<!-- [root] provider.google (close)&#45;&gt;[root] google_compute_route.route2 -->
<g id="edge_42" class="edge">
<title>[root] provider.google (close)&#45;&gt;[root] google_compute_route.route2</title>
<path fill="none" stroke="#000000" d="M270.1207,-516.0467C322.3803,-504.5751 438.1941,-479.1525 509.9224,-463.4073"/>
<polygon fill="#000000" stroke="#000000" points="510.7228,-466.815 519.7398,-461.2522 509.2219,-459.9778 510.7228,-466.815"/>
</g>
<!-- [root] root -->
<g id="node_24" class="node">
<title>[root] root</title>
<polygon fill="none" stroke="#000000" points="236.3089,-612 167.6911,-612 167.6911,-576 236.3089,-576 236.3089,-612"/>
<text text-anchor="middle" x="202" y="-592.1313" font-family="courier new" font-size="8.00" fill="#000000">[root] root</text>
</g>
<!-- [root] root&#45;&gt;[root] meta.count&#45;boundary (count boundary fixup) -->
<g id="edge_45" class="edge">
<title>[root] root&#45;&gt;[root] meta.count&#45;boundary (count boundary fixup)</title>
<path fill="none" stroke="#000000" d="M191.654,-575.8314C187.0763,-567.7925 181.5948,-558.1666 176.5412,-549.2918"/>
<polygon fill="#000000" stroke="#000000" points="179.4752,-547.3712 171.4853,-540.4133 173.3923,-550.8351 179.4752,-547.3712"/>
</g>
<!-- [root] root&#45;&gt;[root] provider.google (close) -->
<g id="edge_46" class="edge">
<title>[root] root&#45;&gt;[root] provider.google (close)</title>
<path fill="none" stroke="#000000" d="M212.346,-575.8314C216.9237,-567.7925 222.4052,-558.1666 227.4588,-549.2918"/>
<polygon fill="#000000" stroke="#000000" points="230.6077,-550.8351 232.5147,-540.4133 224.5248,-547.3712 230.6077,-550.8351"/>
</g>
</g>
</svg>

