<?xml version="1.0" encoding="UTF-8" standalone="no"?>
<!DOCTYPE svg PUBLIC "-//W3C//DTD SVG 1.1//EN"
 "http://www.w3.org/Graphics/SVG/1.1/DTD/svg11.dtd">
<!-- Generated by graphviz version 2.40.1 (20161225.0304)
 -->
<!-- Title: %3 Pages: 1 -->
<svg width="282pt" height="564pt"
 viewBox="0.00 0.00 282.00 564.00" xmlns="http://www.w3.org/2000/svg" xmlns:xlink="http://www.w3.org/1999/xlink">
<g id="graph0" class="graph" transform="scale(1 1) rotate(0) translate(4 560)">
<title>%3</title>
<polygon fill="#ffffff" stroke="transparent" points="-4,4 -4,-560 278,-560 278,4 -4,4"/>
<g id="clust2" class="cluster">
<title>cluster[root] azurerm_resource_group.rg_var_</title>
</g>
<g id="clust3" class="cluster">
<title>cluster[root] azurerm_servicebus_namespace.test_var_</title>
</g>
<g id="clust4" class="cluster">
<title>cluster[root] meta.count&#45;boundary (count boundary fixup)_output_[root] azurerm_servicebus_namespace.test</title>
</g>
<!-- [root] azurerm_resource_group.rg -->
<g id="node_0" class="node">
<title>[root] azurerm_resource_group.rg</title>
<polygon fill="none" stroke="#000000" points="5,-178 5,-193 116,-193 116,-178 5,-178"/>
<text text-anchor="start" x="7.6914" y="-183.6" font-family="courier new" font-size="8.00" fill="#000000">azurerm_resource_group</text>
<polygon fill="none" stroke="#000000" points="5,-163 5,-178 116,-178 116,-163 5,-163"/>
<text text-anchor="start" x="55.6992" y="-168.6" font-family="courier new" font-size="8.00" fill="#000000">rg</text>
</g>
<!-- [root] provider.azurerm -->
<g id="node_4" class="node">
<title>[root] provider.azurerm</title>
<polygon fill="none" stroke="#000000" points="5,-106 5,-121 49,-121 49,-106 5,-106"/>
<text text-anchor="start" x="7.7969" y="-111.6" font-family="courier new" font-size="8.00" fill="#000000">provider</text>
<polygon fill="none" stroke="#000000" points="5,-91 5,-106 49,-106 49,-91 5,-91"/>
<text text-anchor="start" x="10.1973" y="-96.6" font-family="courier new" font-size="8.00" fill="#000000">azurerm</text>
</g>
<!-- [root] azurerm_resource_group.rg&#45;&gt;[root] provider.azurerm -->
<g id="edge_0" class="edge">
<title>[root] azurerm_resource_group.rg&#45;&gt;[root] provider.azurerm</title>
<path fill="none" stroke="#000000" d="M51.6727,-159.8314C48.027,-151.8771 43.6691,-142.369 39.6373,-133.5723"/>
<polygon fill="#000000" stroke="#000000" points="42.7877,-132.0456 35.4394,-124.4133 36.4243,-134.9622 42.7877,-132.0456"/>
</g>
<!-- [root] var.location -->
<g id="node_5" class="node">
<title>[root] var.location</title>
<polygon fill="none" stroke="#000000" points="81,-106 81,-121 125,-121 125,-106 81,-106"/>
<text text-anchor="start" x="95.7988" y="-111.6" font-family="courier new" font-size="8.00" fill="#000000">var</text>
<polygon fill="none" stroke="#000000" points="81,-91 81,-106 125,-106 125,-91 81,-91"/>
<text text-anchor="start" x="83.7969" y="-96.6" font-family="courier new" font-size="8.00" fill="#000000">location</text>
</g>
<!-- [root] azurerm_resource_group.rg&#45;&gt;[root] var.location -->
<g id="edge_1" class="edge">
<title>[root] azurerm_resource_group.rg&#45;&gt;[root] var.location</title>
<path fill="none" stroke="#000000" d="M70.8507,-159.8314C75.7023,-151.7079 81.5217,-141.9637 86.868,-133.0118"/>
<polygon fill="#000000" stroke="#000000" points="89.8806,-134.7933 92.0032,-124.4133 83.8708,-131.2041 89.8806,-134.7933"/>
</g>
<!-- [root] azurerm_servicebus_namespace.test -->
<g id="node_1" class="node">
<title>[root] azurerm_servicebus_namespace.test</title>
<polygon fill="none" stroke="#000000" points="25,-250 25,-265 165,-265 165,-250 25,-250"/>
<text text-anchor="start" x="27.7891" y="-255.6" font-family="courier new" font-size="8.00" fill="#000000">azurerm_servicebus_namespace</text>
<polygon fill="none" stroke="#000000" points="25,-235 25,-250 165,-250 165,-235 25,-235"/>
<text text-anchor="start" x="85.3984" y="-240.6" font-family="courier new" font-size="8.00" fill="#000000">test</text>
</g>
<!-- [root] azurerm_servicebus_namespace.test&#45;&gt;[root] azurerm_resource_group.rg -->
<g id="edge_3" class="edge">
<title>[root] azurerm_servicebus_namespace.test&#45;&gt;[root] azurerm_resource_group.rg</title>
<path fill="none" stroke="#000000" d="M86.168,-231.8314C82.3014,-223.8771 77.6794,-214.369 73.4032,-205.5723"/>
<polygon fill="#000000" stroke="#000000" points="76.4707,-203.8768 68.9509,-196.4133 70.1751,-206.9371 76.4707,-203.8768"/>
</g>
<!-- [root] var.unique -->
<g id="node_7" class="node">
<title>[root] var.unique</title>
<polygon fill="none" stroke="#000000" points="144,-178 144,-193 178,-193 178,-178 144,-178"/>
<text text-anchor="start" x="153.7988" y="-183.6" font-family="courier new" font-size="8.00" fill="#000000">var</text>
<polygon fill="none" stroke="#000000" points="144,-163 144,-178 178,-178 178,-163 144,-163"/>
<text text-anchor="start" x="146.5977" y="-168.6" font-family="courier new" font-size="8.00" fill="#000000">unique</text>
</g>
<!-- [root] azurerm_servicebus_namespace.test&#45;&gt;[root] var.unique -->
<g id="edge_4" class="edge">
<title>[root] azurerm_servicebus_namespace.test&#45;&gt;[root] var.unique</title>
<path fill="none" stroke="#000000" d="M111.6546,-231.8314C119.4114,-223.3694 128.7802,-213.1489 137.261,-203.8971"/>
<polygon fill="#000000" stroke="#000000" points="139.9439,-206.1499 144.1212,-196.4133 134.7838,-201.4198 139.9439,-206.1499"/>
</g>
<!-- [root] azurerm_servicebus_subscription.test -->
<g id="node_2" class="node">
<title>[root] azurerm_servicebus_subscription.test</title>
<polygon fill="none" stroke="#000000" points="120,-394 120,-409 274,-409 274,-394 120,-394"/>
<text text-anchor="start" x="122.5879" y="-399.6" font-family="courier new" font-size="8.00" fill="#000000">azurerm_servicebus_subscription</text>
<polygon fill="none" stroke="#000000" points="120,-379 120,-394 274,-394 274,-379 120,-379"/>
<text text-anchor="start" x="187.3984" y="-384.6" font-family="courier new" font-size="8.00" fill="#000000">test</text>
</g>
<!-- [root] azurerm_servicebus_topic.test -->
<g id="node_3" class="node">
<title>[root] azurerm_servicebus_topic.test</title>
<polygon fill="none" stroke="#000000" points="129,-322 129,-337 250,-337 250,-322 129,-322"/>
<text text-anchor="start" x="131.8906" y="-327.6" font-family="courier new" font-size="8.00" fill="#000000">azurerm_servicebus_topic</text>
<polygon fill="none" stroke="#000000" points="129,-307 129,-322 250,-322 250,-307 129,-307"/>
<text text-anchor="start" x="179.8984" y="-312.6" font-family="courier new" font-size="8.00" fill="#000000">test</text>
</g>
<!-- [root] azurerm_servicebus_subscription.test&#45;&gt;[root] azurerm_servicebus_topic.test -->
<g id="edge_5" class="edge">
<title>[root] azurerm_servicebus_subscription.test&#45;&gt;[root] azurerm_servicebus_topic.test</title>
<path fill="none" stroke="#000000" d="M194.9813,-375.8314C194.1257,-368.131 193.1083,-358.9743 192.1574,-350.4166"/>
<polygon fill="#000000" stroke="#000000" points="195.6289,-349.9656 191.0459,-340.4133 188.6717,-350.7386 195.6289,-349.9656"/>
</g>
<!-- [root] azurerm_servicebus_topic.test&#45;&gt;[root] azurerm_servicebus_namespace.test -->
<g id="edge_6" class="edge">
<title>[root] azurerm_servicebus_topic.test&#45;&gt;[root] azurerm_servicebus_namespace.test</title>
<path fill="none" stroke="#000000" d="M165.2798,-303.8314C153.5906,-294.8779 139.3312,-283.9558 126.7191,-274.2955"/>
<polygon fill="#000000" stroke="#000000" points="128.7797,-271.4651 118.7126,-268.1628 124.5231,-277.0222 128.7797,-271.4651"/>
</g>
<!-- [root] meta.count&#45;boundary (count boundary fixup) -->
<g id="node_8" class="node">
<title>[root] meta.count&#45;boundary (count boundary fixup)</title>
<polygon fill="none" stroke="#000000" points="79,-466 79,-481 152,-481 152,-466 79,-466"/>
<text text-anchor="start" x="105.8984" y="-471.6" font-family="courier new" font-size="8.00" fill="#000000">meta</text>
<polygon fill="none" stroke="#000000" points="79,-451 79,-466 152,-466 152,-451 79,-451"/>
<text text-anchor="start" x="81.8945" y="-456.6" font-family="courier new" font-size="8.00" fill="#000000">count&#45;boundary</text>
</g>
<!-- [root] meta.count&#45;boundary (count boundary fixup)&#45;&gt;[root] azurerm_servicebus_subscription.test -->
<g id="edge_7" class="edge">
<title>[root] meta.count&#45;boundary (count boundary fixup)&#45;&gt;[root] azurerm_servicebus_subscription.test</title>
<path fill="none" stroke="#000000" d="M135.6921,-447.8314C145.6948,-439.0485 157.855,-428.3712 168.6999,-418.8489"/>
<polygon fill="#000000" stroke="#000000" points="171.1094,-421.3909 176.3146,-412.1628 166.4908,-416.1308 171.1094,-421.3909"/>
</g>
<!-- [root] output.Namespace Connection String -->
<g id="node_9" class="node">
<title>[root] output.Namespace Connection String</title>
<polygon fill="none" stroke="#000000" points="51,-394 51,-409 100,-409 100,-394 51,-394"/>
<text text-anchor="start" x="61.0977" y="-399.6" font-family="courier new" font-size="8.00" fill="#000000">output</text>
<polygon fill="none" stroke="#000000" points="51,-379 51,-394 100,-394 100,-379 51,-379"/>
<text text-anchor="start" x="53.8965" y="-384.6" font-family="courier new" font-size="8.00" fill="#000000">Namespace</text>
</g>
<!-- [root] meta.count&#45;boundary (count boundary fixup)&#45;&gt;[root] output.Namespace Connection String -->
<g id="edge_8" class="edge">
<title>[root] meta.count&#45;boundary (count boundary fixup)&#45;&gt;[root] output.Namespace Connection String</title>
<path fill="none" stroke="#000000" d="M104.9063,-447.8314C100.4403,-439.7925 95.0925,-430.1666 90.1621,-421.2918"/>
<polygon fill="#000000" stroke="#000000" points="93.1456,-419.4551 85.2296,-412.4133 87.0265,-422.8546 93.1456,-419.4551"/>
</g>
<!-- [root] provider.azurerm (close) -->
<g id="node_11" class="node">
<title>[root] provider.azurerm (close)</title>
<polygon fill="none" stroke="#000000" points="175,-466 175,-481 219,-481 219,-466 175,-466"/>
<text text-anchor="start" x="177.7969" y="-471.6" font-family="courier new" font-size="8.00" fill="#000000">provider</text>
<polygon fill="none" stroke="#000000" points="175,-451 175,-466 219,-466 219,-451 175,-451"/>
<text text-anchor="start" x="180.1973" y="-456.6" font-family="courier new" font-size="8.00" fill="#000000">azurerm</text>
</g>
<!-- [root] provider.azurerm (close)&#45;&gt;[root] azurerm_servicebus_subscription.test -->
<g id="edge_12" class="edge">
<title>[root] provider.azurerm (close)&#45;&gt;[root] azurerm_servicebus_subscription.test</title>
<path fill="none" stroke="#000000" d="M197,-447.8314C197,-440.131 197,-430.9743 197,-422.4166"/>
<polygon fill="#000000" stroke="#000000" points="200.5001,-422.4132 197,-412.4133 193.5001,-422.4133 200.5001,-422.4132"/>
</g>
<!-- [root] root -->
<g id="node_12" class="node">
<title>[root] root</title>
<polygon fill="none" stroke="#000000" points="190.3089,-556 121.6911,-556 121.6911,-520 190.3089,-520 190.3089,-556"/>
<text text-anchor="middle" x="156" y="-536.1313" font-family="courier new" font-size="8.00" fill="#000000">[root] root</text>
</g>
<!-- [root] root&#45;&gt;[root] meta.count&#45;boundary (count boundary fixup) -->
<g id="edge_13" class="edge">
<title>[root] root&#45;&gt;[root] meta.count&#45;boundary (count boundary fixup)</title>
<path fill="none" stroke="#000000" d="M145.654,-519.8314C141.0763,-511.7925 135.5948,-502.1666 130.5412,-493.2918"/>
<polygon fill="#000000" stroke="#000000" points="133.4752,-491.3712 125.4853,-484.4133 127.3923,-494.8351 133.4752,-491.3712"/>
</g>
<!-- [root] root&#45;&gt;[root] provider.azurerm (close) -->
<g id="edge_14" class="edge">
<title>[root] root&#45;&gt;[root] provider.azurerm (close)</title>
<path fill="none" stroke="#000000" d="M166.346,-519.8314C170.9237,-511.7925 176.4052,-502.1666 181.4588,-493.2918"/>
<polygon fill="#000000" stroke="#000000" points="184.6077,-494.8351 186.5147,-484.4133 178.5248,-491.3712 184.6077,-494.8351"/>
</g>
<!-- [root] var.resource_group -->
<g id="node_6" class="node">
<title>[root] var.resource_group</title>
<polygon fill="none" stroke="#000000" points="71,-34 71,-49 144,-49 144,-34 71,-34"/>
<text text-anchor="start" x="100.2988" y="-39.6" font-family="courier new" font-size="8.00" fill="#000000">var</text>
<polygon fill="none" stroke="#000000" points="71,-19 71,-34 144,-34 144,-19 71,-19"/>
<text text-anchor="start" x="73.8945" y="-24.6" font-family="courier new" font-size="8.00" fill="#000000">resource_group</text>
</g>
<!-- [root] var.location&#45;&gt;[root] var.resource_group -->
<g id="edge_15" class="edge">
<title>[root] var.location&#45;&gt;[root] var.resource_group</title>
<path fill="none" stroke="#000000" stroke-dasharray="5,2" d="M104.0094,-87.8314C104.6111,-77 105.3729,-63.2876 105.977,-52.4133"/>
</g>
<!-- [root] output.Shared Access Policy PrimaryKey -->
<g id="node_10" class="node">
<title>[root] output.Shared Access Policy PrimaryKey</title>
<polygon fill="none" stroke="#000000" points="58,-322 58,-337 92,-337 92,-322 58,-322"/>
<text text-anchor="start" x="60.5977" y="-327.6" font-family="courier new" font-size="8.00" fill="#000000">output</text>
<polygon fill="none" stroke="#000000" points="58,-307 58,-322 92,-322 92,-307 58,-307"/>
<text text-anchor="start" x="60.5977" y="-312.6" font-family="courier new" font-size="8.00" fill="#000000">Shared</text>
</g>
<!-- [root] output.Namespace Connection String&#45;&gt;[root] output.Shared Access Policy PrimaryKey -->
<g id="edge_16" class="edge">
<title>[root] output.Namespace Connection String&#45;&gt;[root] output.Shared Access Policy PrimaryKey</title>
<path fill="none" stroke="#000000" stroke-dasharray="5,2" d="M75,-375.8314C75,-365 75,-351.2876 75,-340.4133"/>
</g>
<!-- [root] output.Shared Access Policy PrimaryKey&#45;&gt;[root] azurerm_servicebus_namespace.test -->
<g id="edge_11" class="edge">
<title>[root] output.Shared Access Policy PrimaryKey&#45;&gt;[root] azurerm_servicebus_namespace.test</title>
<path fill="none" stroke="#000000" d="M80.0468,-303.8314C82.2094,-296.0463 84.7853,-286.7729 87.1848,-278.1347"/>
<polygon fill="#000000" stroke="#000000" points="90.581,-278.9852 89.8852,-268.4133 83.8364,-277.1117 90.581,-278.9852"/>
</g>
</g>
</svg>

