<?xml version="1.0" encoding="UTF-8" standalone="no"?>
<!DOCTYPE svg PUBLIC "-//W3C//DTD SVG 1.1//EN"
 "http://www.w3.org/Graphics/SVG/1.1/DTD/svg11.dtd">
<!-- Generated by graphviz version 2.40.1 (20161225.0304)
 -->
<!-- Title: %3 Pages: 1 -->
<svg width="272pt" height="476pt"
 viewBox="0.00 0.00 272.00 476.00" xmlns="http://www.w3.org/2000/svg" xmlns:xlink="http://www.w3.org/1999/xlink">
<g id="graph0" class="graph" transform="scale(1 1) rotate(0) translate(4 472)">
<title>%3</title>
<polygon fill="#ffffff" stroke="transparent" points="-4,4 -4,-472 268,-472 268,4 -4,4"/>
<!-- [root] azurerm_resource_group.rg -->
<g id="node_0" class="node">
<title>[root] azurerm_resource_group.rg</title>
<polygon fill="none" stroke="#000000" points="77,-90 77,-105 188,-105 188,-90 77,-90"/>
<text text-anchor="start" x="79.6914" y="-95.6" font-family="courier new" font-size="8.00" fill="#000000">azurerm_resource_group</text>
<polygon fill="none" stroke="#000000" points="77,-75 77,-90 188,-90 188,-75 77,-75"/>
<text text-anchor="start" x="127.6992" y="-80.6" font-family="courier new" font-size="8.00" fill="#000000">rg</text>
</g>
<!-- [root] provider.azurerm -->
<g id="node_4" class="node">
<title>[root] provider.azurerm</title>
<polygon fill="none" stroke="#000000" points="38,-18 38,-33 82,-33 82,-18 38,-18"/>
<text text-anchor="start" x="40.7969" y="-23.6" font-family="courier new" font-size="8.00" fill="#000000">provider</text>
<polygon fill="none" stroke="#000000" points="38,-3 38,-18 82,-18 82,-3 38,-3"/>
<text text-anchor="start" x="43.1973" y="-8.6" font-family="courier new" font-size="8.00" fill="#000000">azurerm</text>
</g>
<!-- [root] azurerm_resource_group.rg&#45;&gt;[root] provider.azurerm -->
<g id="edge_0" class="edge">
<title>[root] azurerm_resource_group.rg&#45;&gt;[root] provider.azurerm</title>
<path fill="none" stroke="#000000" d="M113.8314,-71.8314C105.2848,-63.2848 94.9443,-52.9443 85.6198,-43.6198"/>
<polygon fill="#000000" stroke="#000000" points="87.9592,-41.0095 78.4133,-36.4133 83.0095,-45.9592 87.9592,-41.0095"/>
</g>
<!-- [root] var.location -->
<g id="node_5" class="node">
<title>[root] var.location</title>
<polygon fill="none" stroke="#000000" points="110,-18 110,-33 154,-33 154,-18 110,-18"/>
<text text-anchor="start" x="124.7988" y="-23.6" font-family="courier new" font-size="8.00" fill="#000000">var</text>
<polygon fill="none" stroke="#000000" points="110,-3 110,-18 154,-18 154,-3 110,-3"/>
<text text-anchor="start" x="112.7969" y="-8.6" font-family="courier new" font-size="8.00" fill="#000000">location</text>
</g>
<!-- [root] azurerm_resource_group.rg&#45;&gt;[root] var.location -->
<g id="edge_1" class="edge">
<title>[root] azurerm_resource_group.rg&#45;&gt;[root] var.location</title>
<path fill="none" stroke="#000000" d="M132,-71.8314C132,-64.131 132,-54.9743 132,-46.4166"/>
<polygon fill="#000000" stroke="#000000" points="135.5001,-46.4132 132,-36.4133 128.5001,-46.4133 135.5001,-46.4132"/>
</g>
<!-- [root] var.resource_group -->
<g id="node_6" class="node">
<title>[root] var.resource_group</title>
<polygon fill="none" stroke="#000000" points="178,-18 178,-33 251,-33 251,-18 178,-18"/>
<text text-anchor="start" x="207.2988" y="-23.6" font-family="courier new" font-size="8.00" fill="#000000">var</text>
<polygon fill="none" stroke="#000000" points="178,-3 178,-18 251,-18 251,-3 178,-3"/>
<text text-anchor="start" x="180.8945" y="-8.6" font-family="courier new" font-size="8.00" fill="#000000">resource_group</text>
</g>
<!-- [root] azurerm_resource_group.rg&#45;&gt;[root] var.resource_group -->
<g id="edge_2" class="edge">
<title>[root] azurerm_resource_group.rg&#45;&gt;[root] var.resource_group</title>
<path fill="none" stroke="#000000" d="M152.6921,-71.8314C162.6948,-63.0485 174.855,-52.3712 185.6999,-42.8489"/>
<polygon fill="#000000" stroke="#000000" points="188.1094,-45.3909 193.3146,-36.1628 183.4908,-40.1308 188.1094,-45.3909"/>
</g>
<!-- [root] azurerm_servicebus_namespace.test -->
<g id="node_1" class="node">
<title>[root] azurerm_servicebus_namespace.test</title>
<polygon fill="none" stroke="#000000" points="112,-162 112,-177 252,-177 252,-162 112,-162"/>
<text text-anchor="start" x="114.7891" y="-167.6" font-family="courier new" font-size="8.00" fill="#000000">azurerm_servicebus_namespace</text>
<polygon fill="none" stroke="#000000" points="112,-147 112,-162 252,-162 252,-147 112,-147"/>
<text text-anchor="start" x="172.3984" y="-152.6" font-family="courier new" font-size="8.00" fill="#000000">test</text>
</g>
<!-- [root] azurerm_servicebus_namespace.test&#45;&gt;[root] azurerm_resource_group.rg -->
<g id="edge_3" class="edge">
<title>[root] azurerm_servicebus_namespace.test&#45;&gt;[root] azurerm_resource_group.rg</title>
<path fill="none" stroke="#000000" d="M169.3829,-143.8314C163.6828,-135.6232 156.8337,-125.7606 150.5641,-116.7323"/>
<polygon fill="#000000" stroke="#000000" points="153.3658,-114.6306 144.787,-108.4133 147.6162,-118.6234 153.3658,-114.6306"/>
</g>
<!-- [root] var.unique -->
<g id="node_7" class="node">
<title>[root] var.unique</title>
<polygon fill="none" stroke="#000000" points="216,-90 216,-105 250,-105 250,-90 216,-90"/>
<text text-anchor="start" x="225.7988" y="-95.6" font-family="courier new" font-size="8.00" fill="#000000">var</text>
<polygon fill="none" stroke="#000000" points="216,-75 216,-90 250,-90 250,-75 216,-75"/>
<text text-anchor="start" x="218.5977" y="-80.6" font-family="courier new" font-size="8.00" fill="#000000">unique</text>
</g>
<!-- [root] azurerm_servicebus_namespace.test&#45;&gt;[root] var.unique -->
<g id="edge_4" class="edge">
<title>[root] azurerm_servicebus_namespace.test&#45;&gt;[root] var.unique</title>
<path fill="none" stroke="#000000" d="M194.8695,-143.8314C200.6835,-135.6232 207.6696,-125.7606 214.0646,-116.7323"/>
<polygon fill="#000000" stroke="#000000" points="217.0331,-118.5966 219.9573,-108.4133 211.321,-114.5505 217.0331,-118.5966"/>
</g>
<!-- [root] azurerm_servicebus_subscription.test -->
<g id="node_2" class="node">
<title>[root] azurerm_servicebus_subscription.test</title>
<polygon fill="none" stroke="#000000" points="0,-306 0,-321 154,-321 154,-306 0,-306"/>
<text text-anchor="start" x="2.5879" y="-311.6" font-family="courier new" font-size="8.00" fill="#000000">azurerm_servicebus_subscription</text>
<polygon fill="none" stroke="#000000" points="0,-291 0,-306 154,-306 154,-291 0,-291"/>
<text text-anchor="start" x="67.3984" y="-296.6" font-family="courier new" font-size="8.00" fill="#000000">test</text>
</g>
<!-- [root] azurerm_servicebus_topic.test -->
<g id="node_3" class="node">
<title>[root] azurerm_servicebus_topic.test</title>
<polygon fill="none" stroke="#000000" points="16,-234 16,-249 137,-249 137,-234 16,-234"/>
<text text-anchor="start" x="18.8906" y="-239.6" font-family="courier new" font-size="8.00" fill="#000000">azurerm_servicebus_topic</text>
<polygon fill="none" stroke="#000000" points="16,-219 16,-234 137,-234 137,-219 16,-219"/>
<text text-anchor="start" x="66.8984" y="-224.6" font-family="courier new" font-size="8.00" fill="#000000">test</text>
</g>
<!-- [root] azurerm_servicebus_subscription.test&#45;&gt;[root] azurerm_servicebus_topic.test -->
<g id="edge_5" class="edge">
<title>[root] azurerm_servicebus_subscription.test&#45;&gt;[root] azurerm_servicebus_topic.test</title>
<path fill="none" stroke="#000000" d="M76.7477,-287.8314C76.6407,-280.131 76.5135,-270.9743 76.3947,-262.4166"/>
<polygon fill="#000000" stroke="#000000" points="79.8944,-262.3637 76.2557,-252.4133 72.8951,-262.4609 79.8944,-262.3637"/>
</g>
<!-- [root] azurerm_servicebus_topic.test&#45;&gt;[root] azurerm_servicebus_namespace.test -->
<g id="edge_6" class="edge">
<title>[root] azurerm_servicebus_topic.test&#45;&gt;[root] azurerm_servicebus_namespace.test</title>
<path fill="none" stroke="#000000" d="M102.7483,-215.8314C116.0553,-206.7927 132.316,-195.7476 146.6375,-186.0198"/>
<polygon fill="#000000" stroke="#000000" points="148.9547,-188.677 155.2603,-180.1628 145.0215,-182.8864 148.9547,-188.677"/>
</g>
<!-- [root] meta.count&#45;boundary (count boundary fixup) -->
<g id="node_8" class="node">
<title>[root] meta.count&#45;boundary (count boundary fixup)</title>
<polygon fill="none" stroke="#000000" points="140,-378 140,-393 213,-393 213,-378 140,-378"/>
<text text-anchor="start" x="166.8984" y="-383.6" font-family="courier new" font-size="8.00" fill="#000000">meta</text>
<polygon fill="none" stroke="#000000" points="140,-363 140,-378 213,-378 213,-363 140,-363"/>
<text text-anchor="start" x="142.8945" y="-368.6" font-family="courier new" font-size="8.00" fill="#000000">count&#45;boundary</text>
</g>
<!-- [root] meta.count&#45;boundary (count boundary fixup)&#45;&gt;[root] azurerm_servicebus_subscription.test -->
<g id="edge_7" class="edge">
<title>[root] meta.count&#45;boundary (count boundary fixup)&#45;&gt;[root] azurerm_servicebus_subscription.test</title>
<path fill="none" stroke="#000000" d="M151.0181,-359.8314C138.7072,-350.8779 123.6893,-339.9558 110.4063,-330.2955"/>
<polygon fill="#000000" stroke="#000000" points="112.1199,-327.214 101.9739,-324.1628 108.0027,-332.8752 112.1199,-327.214"/>
</g>
<!-- [root] output.Namespace Connection String -->
<g id="node_9" class="node">
<title>[root] output.Namespace Connection String</title>
<polygon fill="none" stroke="#000000" points="158,-234 158,-249 207,-249 207,-234 158,-234"/>
<text text-anchor="start" x="168.0977" y="-239.6" font-family="courier new" font-size="8.00" fill="#000000">output</text>
<polygon fill="none" stroke="#000000" points="158,-219 158,-234 207,-234 207,-219 158,-219"/>
<text text-anchor="start" x="160.8965" y="-224.6" font-family="courier new" font-size="8.00" fill="#000000">Namespace</text>
</g>
<!-- [root] meta.count&#45;boundary (count boundary fixup)&#45;&gt;[root] output.Namespace Connection String -->
<g id="edge_8" class="edge">
<title>[root] meta.count&#45;boundary (count boundary fixup)&#45;&gt;[root] output.Namespace Connection String</title>
<path fill="none" stroke="#000000" d="M176.7599,-359.7623C177.7833,-335.201 179.6147,-291.2474 180.8186,-262.3541"/>
<polygon fill="#000000" stroke="#000000" points="184.3268,-262.2267 181.2463,-252.0896 177.3329,-261.9352 184.3268,-262.2267"/>
</g>
<!-- [root] output.Shared Access Policy PrimaryKey -->
<g id="node_10" class="node">
<title>[root] output.Shared Access Policy PrimaryKey</title>
<polygon fill="none" stroke="#000000" points="220,-306 220,-321 254,-321 254,-306 220,-306"/>
<text text-anchor="start" x="222.5977" y="-311.6" font-family="courier new" font-size="8.00" fill="#000000">output</text>
<polygon fill="none" stroke="#000000" points="220,-291 220,-306 254,-306 254,-291 220,-291"/>
<text text-anchor="start" x="222.5977" y="-296.6" font-family="courier new" font-size="8.00" fill="#000000">Shared</text>
</g>
<!-- [root] meta.count&#45;boundary (count boundary fixup)&#45;&gt;[root] output.Shared Access Policy PrimaryKey -->
<g id="edge_9" class="edge">
<title>[root] meta.count&#45;boundary (count boundary fixup)&#45;&gt;[root] output.Shared Access Policy PrimaryKey</title>
<path fill="none" stroke="#000000" d="M191.3929,-359.8314C198.4904,-351.454 207.048,-341.3531 214.824,-332.1749"/>
<polygon fill="#000000" stroke="#000000" points="217.6061,-334.3056 221.3999,-324.4133 212.2652,-329.7807 217.6061,-334.3056"/>
</g>
<!-- [root] output.Namespace Connection String&#45;&gt;[root] azurerm_servicebus_namespace.test -->
<g id="edge_10" class="edge">
<title>[root] output.Namespace Connection String&#45;&gt;[root] azurerm_servicebus_namespace.test</title>
<path fill="none" stroke="#000000" d="M182,-215.8314C182,-208.131 182,-198.9743 182,-190.4166"/>
<polygon fill="#000000" stroke="#000000" points="185.5001,-190.4132 182,-180.4133 178.5001,-190.4133 185.5001,-190.4132"/>
</g>
<!-- [root] output.Shared Access Policy PrimaryKey&#45;&gt;[root] azurerm_servicebus_namespace.test -->
<g id="edge_11" class="edge">
<title>[root] output.Shared Access Policy PrimaryKey&#45;&gt;[root] azurerm_servicebus_namespace.test</title>
<path fill="none" stroke="#000000" d="M235.2095,-287.8083C232.9112,-269.1875 227.9655,-239.7008 218,-216 214.0456,-206.5953 208.3848,-197.0879 202.7195,-188.727"/>
<polygon fill="#000000" stroke="#000000" points="205.5184,-186.6231 196.8853,-180.4815 199.8041,-190.6664 205.5184,-186.6231"/>
</g>
<!-- [root] provider.azurerm (close) -->
<g id="node_11" class="node">
<title>[root] provider.azurerm (close)</title>
<polygon fill="none" stroke="#000000" points="66,-378 66,-393 110,-393 110,-378 66,-378"/>
<text text-anchor="start" x="68.7969" y="-383.6" font-family="courier new" font-size="8.00" fill="#000000">provider</text>
<polygon fill="none" stroke="#000000" points="66,-363 66,-378 110,-378 110,-363 66,-363"/>
<text text-anchor="start" x="71.1973" y="-368.6" font-family="courier new" font-size="8.00" fill="#000000">azurerm</text>
</g>
<!-- [root] provider.azurerm (close)&#45;&gt;[root] azurerm_servicebus_subscription.test -->
<g id="edge_12" class="edge">
<title>[root] provider.azurerm (close)&#45;&gt;[root] azurerm_servicebus_subscription.test</title>
<path fill="none" stroke="#000000" d="M85.2242,-359.8314C84.0478,-352.131 82.6489,-342.9743 81.3414,-334.4166"/>
<polygon fill="#000000" stroke="#000000" points="84.7833,-333.7699 79.8131,-324.4133 77.8636,-334.8272 84.7833,-333.7699"/>
</g>
<!-- [root] root -->
<g id="node_12" class="node">
<title>[root] root</title>
<polygon fill="none" stroke="#000000" points="163.3089,-468 94.6911,-468 94.6911,-432 163.3089,-432 163.3089,-468"/>
<text text-anchor="middle" x="129" y="-448.1313" font-family="courier new" font-size="8.00" fill="#000000">[root] root</text>
</g>
<!-- [root] root&#45;&gt;[root] meta.count&#45;boundary (count boundary fixup) -->
<g id="edge_13" class="edge">
<title>[root] root&#45;&gt;[root] meta.count&#45;boundary (count boundary fixup)</title>
<path fill="none" stroke="#000000" d="M140.8601,-431.8314C146.1629,-423.7079 152.5237,-413.9637 158.3673,-405.0118"/>
<polygon fill="#000000" stroke="#000000" points="161.4448,-406.7003 163.9802,-396.4133 155.5831,-402.8739 161.4448,-406.7003"/>
</g>
<!-- [root] root&#45;&gt;[root] provider.azurerm (close) -->
<g id="edge_14" class="edge">
<title>[root] root&#45;&gt;[root] provider.azurerm (close)</title>
<path fill="none" stroke="#000000" d="M118.654,-431.8314C114.0763,-423.7925 108.5948,-414.1666 103.5412,-405.2918"/>
<polygon fill="#000000" stroke="#000000" points="106.4752,-403.3712 98.4853,-396.4133 100.3923,-406.8351 106.4752,-403.3712"/>
</g>
</g>
</svg>

