<?xml version="1.0" encoding="UTF-8" standalone="no"?>
<!DOCTYPE svg PUBLIC "-//W3C//DTD SVG 1.1//EN"
 "http://www.w3.org/Graphics/SVG/1.1/DTD/svg11.dtd">
<!-- Generated by graphviz version 2.40.1 (20161225.0304)
 -->
<!-- Title: %3 Pages: 1 -->
<svg width="380pt" height="492pt"
 viewBox="0.00 0.00 379.50 492.00" xmlns="http://www.w3.org/2000/svg" xmlns:xlink="http://www.w3.org/1999/xlink">
<g id="graph0" class="graph" transform="scale(1 1) rotate(0) translate(4 488)">
<title>%3</title>
<polygon fill="#ffffff" stroke="transparent" points="-4,4 -4,-488 375.5,-488 375.5,4 -4,4"/>
<g id="clust2" class="cluster">
<title>cluster[root] provider.aws_var_</title>
</g>
<g id="clust3" class="cluster">
<title>cluster[root] meta.count&#45;boundary (count boundary fixup)_output_[root] aws_lambda_function.default</title>
</g>
<!-- [root] aws_iam_role.default -->
<g id="node_0" class="node">
<title>[root] aws_iam_role.default</title>
<polygon fill="none" stroke="#000000" points="77.5,-178 77.5,-193 140.5,-193 140.5,-178 77.5,-178"/>
<text text-anchor="start" x="80.1953" y="-183.6" font-family="courier new" font-size="8.00" fill="#000000">aws_iam_role</text>
<polygon fill="none" stroke="#000000" points="77.5,-163 77.5,-178 140.5,-178 140.5,-163 77.5,-163"/>
<text text-anchor="start" x="92.1973" y="-168.6" font-family="courier new" font-size="8.00" fill="#000000">default</text>
</g>
<!-- [root] provider.aws -->
<g id="node_4" class="node">
<title>[root] provider.aws</title>
<polygon fill="none" stroke="#000000" points="86.5,-106 86.5,-121 130.5,-121 130.5,-106 86.5,-106"/>
<text text-anchor="start" x="89.2969" y="-111.6" font-family="courier new" font-size="8.00" fill="#000000">provider</text>
<polygon fill="none" stroke="#000000" points="86.5,-91 86.5,-106 130.5,-106 130.5,-91 86.5,-91"/>
<text text-anchor="start" x="101.2988" y="-96.6" font-family="courier new" font-size="8.00" fill="#000000">aws</text>
</g>
<!-- [root] aws_iam_role.default&#45;&gt;[root] provider.aws -->
<g id="edge_0" class="edge">
<title>[root] aws_iam_role.default&#45;&gt;[root] provider.aws</title>
<path fill="none" stroke="#000000" d="M108.5,-159.8314C108.5,-152.131 108.5,-142.9743 108.5,-134.4166"/>
<polygon fill="#000000" stroke="#000000" points="112.0001,-134.4132 108.5,-124.4133 105.0001,-134.4133 112.0001,-134.4132"/>
</g>
<!-- [root] aws_iam_role_policy.default -->
<g id="node_1" class="node">
<title>[root] aws_iam_role_policy.default</title>
<polygon fill="none" stroke="#000000" points=".5,-322 .5,-337 97.5,-337 97.5,-322 .5,-322"/>
<text text-anchor="start" x="3.3926" y="-327.6" font-family="courier new" font-size="8.00" fill="#000000">aws_iam_role_policy</text>
<polygon fill="none" stroke="#000000" points=".5,-307 .5,-322 97.5,-322 97.5,-307 .5,-307"/>
<text text-anchor="start" x="32.1973" y="-312.6" font-family="courier new" font-size="8.00" fill="#000000">default</text>
</g>
<!-- [root] aws_iam_role_policy.default&#45;&gt;[root] aws_iam_role.default -->
<g id="edge_1" class="edge">
<title>[root] aws_iam_role_policy.default&#45;&gt;[root] aws_iam_role.default</title>
<path fill="none" stroke="#000000" d="M56.099,-303.7623C66.4231,-278.9846 84.9703,-234.4714 97.0025,-205.5939"/>
<polygon fill="#000000" stroke="#000000" points="100.3472,-206.6666 100.9627,-196.0896 93.8857,-203.9742 100.3472,-206.6666"/>
</g>
<!-- [root] aws_lambda_function.default -->
<g id="node_2" class="node">
<title>[root] aws_lambda_function.default</title>
<polygon fill="none" stroke="#000000" points="120.5,-250 120.5,-265 217.5,-265 217.5,-250 120.5,-250"/>
<text text-anchor="start" x="123.3926" y="-255.6" font-family="courier new" font-size="8.00" fill="#000000">aws_lambda_function</text>
<polygon fill="none" stroke="#000000" points="120.5,-235 120.5,-250 217.5,-250 217.5,-235 120.5,-235"/>
<text text-anchor="start" x="152.1973" y="-240.6" font-family="courier new" font-size="8.00" fill="#000000">default</text>
</g>
<!-- [root] aws_lambda_function.default&#45;&gt;[root] aws_iam_role.default -->
<g id="edge_2" class="edge">
<title>[root] aws_lambda_function.default&#45;&gt;[root] aws_iam_role.default</title>
<path fill="none" stroke="#000000" d="M153.3595,-231.8314C146.3783,-223.454 137.9609,-213.3531 130.3124,-204.1749"/>
<polygon fill="#000000" stroke="#000000" points="132.9351,-201.8548 123.8444,-196.4133 127.5575,-206.3362 132.9351,-201.8548"/>
</g>
<!-- [root] aws_lambda_permission.default -->
<g id="node_3" class="node">
<title>[root] aws_lambda_permission.default</title>
<polygon fill="none" stroke="#000000" points="115.5,-322 115.5,-337 221.5,-337 221.5,-322 115.5,-322"/>
<text text-anchor="start" x="118.0918" y="-327.6" font-family="courier new" font-size="8.00" fill="#000000">aws_lambda_permission</text>
<polygon fill="none" stroke="#000000" points="115.5,-307 115.5,-322 221.5,-322 221.5,-307 115.5,-307"/>
<text text-anchor="start" x="151.6973" y="-312.6" font-family="courier new" font-size="8.00" fill="#000000">default</text>
</g>
<!-- [root] aws_lambda_permission.default&#45;&gt;[root] aws_lambda_function.default -->
<g id="edge_3" class="edge">
<title>[root] aws_lambda_permission.default&#45;&gt;[root] aws_lambda_function.default</title>
<path fill="none" stroke="#000000" d="M168.5,-303.8314C168.5,-296.131 168.5,-286.9743 168.5,-278.4166"/>
<polygon fill="#000000" stroke="#000000" points="172.0001,-278.4132 168.5,-268.4133 165.0001,-278.4133 172.0001,-278.4132"/>
</g>
<!-- [root] var.aws_region -->
<g id="node_8" class="node">
<title>[root] var.aws_region</title>
<polygon fill="none" stroke="#000000" points="81.5,-34 81.5,-49 135.5,-49 135.5,-34 81.5,-34"/>
<text text-anchor="start" x="101.2988" y="-39.6" font-family="courier new" font-size="8.00" fill="#000000">var</text>
<polygon fill="none" stroke="#000000" points="81.5,-19 81.5,-34 135.5,-34 135.5,-19 81.5,-19"/>
<text text-anchor="start" x="84.4961" y="-24.6" font-family="courier new" font-size="8.00" fill="#000000">aws_region</text>
</g>
<!-- [root] provider.aws&#45;&gt;[root] var.aws_region -->
<g id="edge_10" class="edge">
<title>[root] provider.aws&#45;&gt;[root] var.aws_region</title>
<path fill="none" stroke="#000000" d="M108.5,-87.8314C108.5,-80.131 108.5,-70.9743 108.5,-62.4166"/>
<polygon fill="#000000" stroke="#000000" points="112.0001,-62.4132 108.5,-52.4133 105.0001,-62.4133 112.0001,-62.4132"/>
</g>
<!-- [root] meta.count&#45;boundary (count boundary fixup) -->
<g id="node_5" class="node">
<title>[root] meta.count&#45;boundary (count boundary fixup)</title>
<polygon fill="none" stroke="#000000" points="132.5,-394 132.5,-409 205.5,-409 205.5,-394 132.5,-394"/>
<text text-anchor="start" x="159.3984" y="-399.6" font-family="courier new" font-size="8.00" fill="#000000">meta</text>
<polygon fill="none" stroke="#000000" points="132.5,-379 132.5,-394 205.5,-394 205.5,-379 132.5,-379"/>
<text text-anchor="start" x="135.3945" y="-384.6" font-family="courier new" font-size="8.00" fill="#000000">count&#45;boundary</text>
</g>
<!-- [root] meta.count&#45;boundary (count boundary fixup)&#45;&gt;[root] aws_iam_role_policy.default -->
<g id="edge_4" class="edge">
<title>[root] meta.count&#45;boundary (count boundary fixup)&#45;&gt;[root] aws_iam_role_policy.default</title>
<path fill="none" stroke="#000000" d="M138.2189,-375.8314C122.8702,-366.6221 104.0502,-355.3301 87.6177,-345.4706"/>
<polygon fill="#000000" stroke="#000000" points="89.1471,-342.3066 78.7714,-340.1628 85.5456,-348.3091 89.1471,-342.3066"/>
</g>
<!-- [root] meta.count&#45;boundary (count boundary fixup)&#45;&gt;[root] aws_lambda_permission.default -->
<g id="edge_5" class="edge">
<title>[root] meta.count&#45;boundary (count boundary fixup)&#45;&gt;[root] aws_lambda_permission.default</title>
<path fill="none" stroke="#000000" d="M168.5,-375.8314C168.5,-368.131 168.5,-358.9743 168.5,-350.4166"/>
<polygon fill="#000000" stroke="#000000" points="172.0001,-350.4132 168.5,-340.4133 165.0001,-350.4133 172.0001,-350.4132"/>
</g>
<!-- [root] output.aws_lambda_function_arn -->
<g id="node_6" class="node">
<title>[root] output.aws_lambda_function_arn</title>
<polygon fill="none" stroke="#000000" points="239.5,-322 239.5,-337 355.5,-337 355.5,-322 239.5,-322"/>
<text text-anchor="start" x="283.0977" y="-327.6" font-family="courier new" font-size="8.00" fill="#000000">output</text>
<polygon fill="none" stroke="#000000" points="239.5,-307 239.5,-322 355.5,-322 355.5,-307 239.5,-307"/>
<text text-anchor="start" x="242.291" y="-312.6" font-family="courier new" font-size="8.00" fill="#000000">aws_lambda_function_arn</text>
</g>
<!-- [root] meta.count&#45;boundary (count boundary fixup)&#45;&gt;[root] output.aws_lambda_function_arn -->
<g id="edge_6" class="edge">
<title>[root] meta.count&#45;boundary (count boundary fixup)&#45;&gt;[root] output.aws_lambda_function_arn</title>
<path fill="none" stroke="#000000" d="M201.0521,-375.8314C217.7048,-366.5368 238.1585,-355.1208 255.9385,-345.1971"/>
<polygon fill="#000000" stroke="#000000" points="257.9321,-348.0927 264.9583,-340.1628 254.5205,-341.9803 257.9321,-348.0927"/>
</g>
<!-- [root] provider.aws (close) -->
<g id="node_7" class="node">
<title>[root] provider.aws (close)</title>
<polygon fill="none" stroke="#000000" points="64.5,-394 64.5,-409 108.5,-409 108.5,-394 64.5,-394"/>
<text text-anchor="start" x="67.2969" y="-399.6" font-family="courier new" font-size="8.00" fill="#000000">provider</text>
<polygon fill="none" stroke="#000000" points="64.5,-379 64.5,-394 108.5,-394 108.5,-379 64.5,-379"/>
<text text-anchor="start" x="79.2988" y="-384.6" font-family="courier new" font-size="8.00" fill="#000000">aws</text>
</g>
<!-- [root] provider.aws (close)&#45;&gt;[root] aws_iam_role_policy.default -->
<g id="edge_8" class="edge">
<title>[root] provider.aws (close)&#45;&gt;[root] aws_iam_role_policy.default</title>
<path fill="none" stroke="#000000" d="M76.911,-375.8314C72.6683,-367.7925 67.5879,-358.1666 62.904,-349.2918"/>
<polygon fill="#000000" stroke="#000000" points="65.9811,-347.6235 58.2181,-340.4133 59.7904,-350.8908 65.9811,-347.6235"/>
</g>
<!-- [root] provider.aws (close)&#45;&gt;[root] aws_lambda_permission.default -->
<g id="edge_9" class="edge">
<title>[root] provider.aws (close)&#45;&gt;[root] aws_lambda_permission.default</title>
<path fill="none" stroke="#000000" d="M107.1921,-375.8314C117.1948,-367.0485 129.355,-356.3712 140.1999,-346.8489"/>
<polygon fill="#000000" stroke="#000000" points="142.6094,-349.3909 147.8146,-340.1628 137.9908,-344.1308 142.6094,-349.3909"/>
</g>
<!-- [root] root -->
<g id="node_9" class="node">
<title>[root] root</title>
<polygon fill="none" stroke="#000000" points="161.8089,-484 93.1911,-484 93.1911,-448 161.8089,-448 161.8089,-484"/>
<text text-anchor="middle" x="127.5" y="-464.1313" font-family="courier new" font-size="8.00" fill="#000000">[root] root</text>
</g>
<!-- [root] root&#45;&gt;[root] meta.count&#45;boundary (count boundary fixup) -->
<g id="edge_11" class="edge">
<title>[root] root&#45;&gt;[root] meta.count&#45;boundary (count boundary fixup)</title>
<path fill="none" stroke="#000000" d="M137.846,-447.8314C142.4237,-439.7925 147.9052,-430.1666 152.9588,-421.2918"/>
<polygon fill="#000000" stroke="#000000" points="156.1077,-422.8351 158.0147,-412.4133 150.0248,-419.3712 156.1077,-422.8351"/>
</g>
<!-- [root] root&#45;&gt;[root] provider.aws (close) -->
<g id="edge_12" class="edge">
<title>[root] root&#45;&gt;[root] provider.aws (close)</title>
<path fill="none" stroke="#000000" d="M117.154,-447.8314C112.5763,-439.7925 107.0948,-430.1666 102.0412,-421.2918"/>
<polygon fill="#000000" stroke="#000000" points="104.9752,-419.3712 96.9853,-412.4133 98.8923,-422.8351 104.9752,-419.3712"/>
</g>
<!-- [root] output.aws_lambda_function_arn&#45;&gt;[root] aws_lambda_function.default -->
<g id="edge_7" class="edge">
<title>[root] output.aws_lambda_function_arn&#45;&gt;[root] aws_lambda_function.default</title>
<path fill="none" stroke="#000000" d="M264.9479,-303.8314C248.2952,-294.5368 227.8415,-283.1208 210.0615,-273.1971"/>
<polygon fill="#000000" stroke="#000000" points="211.4795,-269.9803 201.0417,-268.1628 208.0679,-276.0927 211.4795,-269.9803"/>
</g>
</g>
</svg>

