<?xml version="1.0" encoding="UTF-8" standalone="no"?>
<!DOCTYPE svg PUBLIC "-//W3C//DTD SVG 1.1//EN"
 "http://www.w3.org/Graphics/SVG/1.1/DTD/svg11.dtd">
<!-- Generated by graphviz version 2.40.1 (20161225.0304)
 -->
<!-- Title: %3 Pages: 1 -->
<svg width="558pt" height="780pt"
 viewBox="0.00 0.00 558.00 780.00" xmlns="http://www.w3.org/2000/svg" xmlns:xlink="http://www.w3.org/1999/xlink">
<g id="graph0" class="graph" transform="scale(1 1) rotate(0) translate(4 776)">
<title>%3</title>
<polygon fill="#ffffff" stroke="transparent" points="-4,4 -4,-776 554,-776 554,4 -4,4"/>
<g id="clust2" class="cluster">
<title>cluster[root] azurerm_public_ip.pip_var_</title>
</g>
<g id="clust3" class="cluster">
<title>cluster[root] azurerm_resource_group.rg_var_</title>
</g>
<g id="clust4" class="cluster">
<title>cluster[root] azurerm_subnet.subnet_var_</title>
</g>
<g id="clust5" class="cluster">
<title>cluster[root] azurerm_virtual_machine.vm_var_</title>
</g>
<g id="clust6" class="cluster">
<title>cluster[root] azurerm_virtual_network.vnet_var_</title>
</g>
<g id="clust7" class="cluster">
<title>cluster[root] meta.count&#45;boundary (count boundary fixup)_output_[root] var.dns_name</title>
</g>
<!-- [root] azurerm_network_interface.nic -->
<g id="node_0" class="node">
<title>[root] azurerm_network_interface.nic</title>
<polygon fill="none" stroke="#000000" points="263,-466 263,-481 389,-481 389,-466 263,-466"/>
<text text-anchor="start" x="265.9902" y="-471.6" font-family="courier new" font-size="8.00" fill="#000000">azurerm_network_interface</text>
<polygon fill="none" stroke="#000000" points="263,-451 263,-466 389,-466 389,-451 263,-451"/>
<text text-anchor="start" x="318.7988" y="-456.6" font-family="courier new" font-size="8.00" fill="#000000">nic</text>
</g>
<!-- [root] azurerm_public_ip.pip -->
<g id="node_1" class="node">
<title>[root] azurerm_public_ip.pip</title>
<polygon fill="none" stroke="#000000" points="68,-394 68,-409 155,-409 155,-394 68,-394"/>
<text text-anchor="start" x="70.6934" y="-399.6" font-family="courier new" font-size="8.00" fill="#000000">azurerm_public_ip</text>
<polygon fill="none" stroke="#000000" points="68,-379 68,-394 155,-394 155,-379 68,-379"/>
<text text-anchor="start" x="104.2988" y="-384.6" font-family="courier new" font-size="8.00" fill="#000000">pip</text>
</g>
<!-- [root] azurerm_network_interface.nic&#45;&gt;[root] azurerm_public_ip.pip -->
<g id="edge_0" class="edge">
<title>[root] azurerm_network_interface.nic&#45;&gt;[root] azurerm_public_ip.pip</title>
<path fill="none" stroke="#000000" d="M272.0239,-447.9243C239.1075,-436.9011 197.2023,-422.8677 164.3928,-411.8804"/>
<polygon fill="#000000" stroke="#000000" points="165.1165,-408.4317 154.5226,-408.575 162.8936,-415.0694 165.1165,-408.4317"/>
</g>
<!-- [root] azurerm_subnet.subnet -->
<g id="node_3" class="node">
<title>[root] azurerm_subnet.subnet</title>
<polygon fill="none" stroke="#000000" points="290,-394 290,-409 363,-409 363,-394 290,-394"/>
<text text-anchor="start" x="292.8945" y="-399.6" font-family="courier new" font-size="8.00" fill="#000000">azurerm_subnet</text>
<polygon fill="none" stroke="#000000" points="290,-379 290,-394 363,-394 363,-379 290,-379"/>
<text text-anchor="start" x="312.0977" y="-384.6" font-family="courier new" font-size="8.00" fill="#000000">subnet</text>
</g>
<!-- [root] azurerm_network_interface.nic&#45;&gt;[root] azurerm_subnet.subnet -->
<g id="edge_1" class="edge">
<title>[root] azurerm_network_interface.nic&#45;&gt;[root] azurerm_subnet.subnet</title>
<path fill="none" stroke="#000000" d="M326,-447.8314C326,-440.131 326,-430.9743 326,-422.4166"/>
<polygon fill="#000000" stroke="#000000" points="329.5001,-422.4132 326,-412.4133 322.5001,-422.4133 329.5001,-422.4132"/>
</g>
<!-- [root] azurerm_resource_group.rg -->
<g id="node_2" class="node">
<title>[root] azurerm_resource_group.rg</title>
<polygon fill="none" stroke="#000000" points="135,-250 135,-265 246,-265 246,-250 135,-250"/>
<text text-anchor="start" x="137.6914" y="-255.6" font-family="courier new" font-size="8.00" fill="#000000">azurerm_resource_group</text>
<polygon fill="none" stroke="#000000" points="135,-235 135,-250 246,-250 246,-235 135,-235"/>
<text text-anchor="start" x="185.6992" y="-240.6" font-family="courier new" font-size="8.00" fill="#000000">rg</text>
</g>
<!-- [root] azurerm_public_ip.pip&#45;&gt;[root] azurerm_resource_group.rg -->
<g id="edge_2" class="edge">
<title>[root] azurerm_public_ip.pip&#45;&gt;[root] azurerm_resource_group.rg</title>
<path fill="none" stroke="#000000" d="M105.6525,-375.9921C100.5896,-355.2156 95.6858,-320.7426 110,-296 115.2286,-286.9622 122.9799,-279.5447 131.6304,-273.5084"/>
<polygon fill="#000000" stroke="#000000" points="133.5562,-276.4318 140.1469,-268.1364 129.8216,-270.5113 133.5562,-276.4318"/>
</g>
<!-- [root] var.dns_name -->
<g id="node_10" class="node">
<title>[root] var.dns_name</title>
<polygon fill="none" stroke="#000000" points="17,-322 17,-337 61,-337 61,-322 17,-322"/>
<text text-anchor="start" x="31.7988" y="-327.6" font-family="courier new" font-size="8.00" fill="#000000">var</text>
<polygon fill="none" stroke="#000000" points="17,-307 17,-322 61,-322 61,-307 17,-307"/>
<text text-anchor="start" x="19.7969" y="-312.6" font-family="courier new" font-size="8.00" fill="#000000">dns_name</text>
</g>
<!-- [root] azurerm_public_ip.pip&#45;&gt;[root] var.dns_name -->
<g id="edge_3" class="edge">
<title>[root] azurerm_public_ip.pip&#45;&gt;[root] var.dns_name</title>
<path fill="none" stroke="#000000" d="M92.8314,-375.8314C84.2848,-367.2848 73.9443,-356.9443 64.6198,-347.6198"/>
<polygon fill="#000000" stroke="#000000" points="66.9592,-345.0095 57.4133,-340.4133 62.0095,-349.9592 66.9592,-345.0095"/>
</g>
<!-- [root] var.num_vms -->
<g id="node_11" class="node">
<title>[root] var.num_vms</title>
<polygon fill="none" stroke="#000000" points="130,-322 130,-337 169,-337 169,-322 130,-322"/>
<text text-anchor="start" x="142.2988" y="-327.6" font-family="courier new" font-size="8.00" fill="#000000">var</text>
<polygon fill="none" stroke="#000000" points="130,-307 130,-322 169,-322 169,-307 130,-307"/>
<text text-anchor="start" x="132.6973" y="-312.6" font-family="courier new" font-size="8.00" fill="#000000">num_vms</text>
</g>
<!-- [root] azurerm_public_ip.pip&#45;&gt;[root] var.num_vms -->
<g id="edge_4" class="edge">
<title>[root] azurerm_public_ip.pip&#45;&gt;[root] var.num_vms</title>
<path fill="none" stroke="#000000" d="M120.589,-375.8314C124.8317,-367.7925 129.9121,-358.1666 134.596,-349.2918"/>
<polygon fill="#000000" stroke="#000000" points="137.7096,-350.8908 139.2819,-340.4133 131.5189,-347.6235 137.7096,-350.8908"/>
</g>
<!-- [root] provider.azurerm -->
<g id="node_9" class="node">
<title>[root] provider.azurerm</title>
<polygon fill="none" stroke="#000000" points="99,-178 99,-193 143,-193 143,-178 99,-178"/>
<text text-anchor="start" x="101.7969" y="-183.6" font-family="courier new" font-size="8.00" fill="#000000">provider</text>
<polygon fill="none" stroke="#000000" points="99,-163 99,-178 143,-178 143,-163 99,-163"/>
<text text-anchor="start" x="104.1973" y="-168.6" font-family="courier new" font-size="8.00" fill="#000000">azurerm</text>
</g>
<!-- [root] azurerm_resource_group.rg&#45;&gt;[root] provider.azurerm -->
<g id="edge_5" class="edge">
<title>[root] azurerm_resource_group.rg&#45;&gt;[root] provider.azurerm</title>
<path fill="none" stroke="#000000" d="M172.5884,-231.8314C164.479,-223.3694 154.6844,-213.1489 145.818,-203.8971"/>
<polygon fill="#000000" stroke="#000000" points="148.0921,-201.2115 138.646,-196.4133 143.0382,-206.0549 148.0921,-201.2115"/>
</g>
<!-- [root] var.location -->
<g id="node_12" class="node">
<title>[root] var.location</title>
<polygon fill="none" stroke="#000000" points="175,-178 175,-193 219,-193 219,-178 175,-178"/>
<text text-anchor="start" x="189.7988" y="-183.6" font-family="courier new" font-size="8.00" fill="#000000">var</text>
<polygon fill="none" stroke="#000000" points="175,-163 175,-178 219,-178 219,-163 175,-163"/>
<text text-anchor="start" x="177.7969" y="-168.6" font-family="courier new" font-size="8.00" fill="#000000">location</text>
</g>
<!-- [root] azurerm_resource_group.rg&#45;&gt;[root] var.location -->
<g id="edge_6" class="edge">
<title>[root] azurerm_resource_group.rg&#45;&gt;[root] var.location</title>
<path fill="none" stroke="#000000" d="M191.7664,-231.8314C192.515,-224.131 193.4053,-214.9743 194.2373,-206.4166"/>
<polygon fill="#000000" stroke="#000000" points="197.7256,-206.7051 195.2098,-196.4133 190.7585,-206.0276 197.7256,-206.7051"/>
</g>
<!-- [root] azurerm_virtual_network.vnet -->
<g id="node_8" class="node">
<title>[root] azurerm_virtual_network.vnet</title>
<polygon fill="none" stroke="#000000" points="232,-322 232,-337 348,-337 348,-322 232,-322"/>
<text text-anchor="start" x="234.791" y="-327.6" font-family="courier new" font-size="8.00" fill="#000000">azurerm_virtual_network</text>
<polygon fill="none" stroke="#000000" points="232,-307 232,-322 348,-322 348,-307 232,-307"/>
<text text-anchor="start" x="280.3984" y="-312.6" font-family="courier new" font-size="8.00" fill="#000000">vnet</text>
</g>
<!-- [root] azurerm_subnet.subnet&#45;&gt;[root] azurerm_virtual_network.vnet -->
<g id="edge_8" class="edge">
<title>[root] azurerm_subnet.subnet&#45;&gt;[root] azurerm_virtual_network.vnet</title>
<path fill="none" stroke="#000000" d="M316.9157,-375.8314C312.9385,-367.8771 308.1845,-358.369 303.7861,-349.5723"/>
<polygon fill="#000000" stroke="#000000" points="306.8093,-347.7923 299.2066,-340.4133 300.5483,-350.9228 306.8093,-347.7923"/>
</g>
<!-- [root] var.subnet_name -->
<g id="node_14" class="node">
<title>[root] var.subnet_name</title>
<polygon fill="none" stroke="#000000" points="367,-322 367,-337 425,-337 425,-322 367,-322"/>
<text text-anchor="start" x="388.7988" y="-327.6" font-family="courier new" font-size="8.00" fill="#000000">var</text>
<polygon fill="none" stroke="#000000" points="367,-307 367,-322 425,-322 425,-307 367,-307"/>
<text text-anchor="start" x="369.5957" y="-312.6" font-family="courier new" font-size="8.00" fill="#000000">subnet_name</text>
</g>
<!-- [root] azurerm_subnet.subnet&#45;&gt;[root] var.subnet_name -->
<g id="edge_9" class="edge">
<title>[root] azurerm_subnet.subnet&#45;&gt;[root] var.subnet_name</title>
<path fill="none" stroke="#000000" d="M343.664,-375.8314C351.9732,-367.2848 362.0264,-356.9443 371.0918,-347.6198"/>
<polygon fill="#000000" stroke="#000000" points="373.6369,-350.023 378.0982,-340.4133 368.6179,-345.1435 373.6369,-350.023"/>
</g>
<!-- [root] azurerm_traffic_manager_endpoint.endpoint -->
<g id="node_4" class="node">
<title>[root] azurerm_traffic_manager_endpoint.endpoint</title>
<polygon fill="none" stroke="#000000" points="95,-610 95,-625 254,-625 254,-610 95,-610"/>
<text text-anchor="start" x="97.6875" y="-615.6" font-family="courier new" font-size="8.00" fill="#000000">azurerm_traffic_manager_endpoint</text>
<polygon fill="none" stroke="#000000" points="95,-595 95,-610 254,-610 254,-595 95,-595"/>
<text text-anchor="start" x="155.2969" y="-600.6" font-family="courier new" font-size="8.00" fill="#000000">endpoint</text>
</g>
<!-- [root] azurerm_traffic_manager_endpoint.endpoint&#45;&gt;[root] azurerm_public_ip.pip -->
<g id="edge_11" class="edge">
<title>[root] azurerm_traffic_manager_endpoint.endpoint&#45;&gt;[root] azurerm_public_ip.pip</title>
<path fill="none" stroke="#000000" d="M147.5564,-591.7881C136.33,-582.4958 124.3812,-570.1605 118,-556 98.3797,-512.4607 101.6887,-455.4879 106.154,-422.0041"/>
<polygon fill="#000000" stroke="#000000" points="109.6324,-422.4062 107.6168,-412.0049 102.7061,-421.3929 109.6324,-422.4062"/>
</g>
<!-- [root] azurerm_traffic_manager_profile.profile -->
<g id="node_5" class="node">
<title>[root] azurerm_traffic_manager_profile.profile</title>
<polygon fill="none" stroke="#000000" points="127,-538 127,-553 281,-553 281,-538 127,-538"/>
<text text-anchor="start" x="129.5879" y="-543.6" font-family="courier new" font-size="8.00" fill="#000000">azurerm_traffic_manager_profile</text>
<polygon fill="none" stroke="#000000" points="127,-523 127,-538 281,-538 281,-523 127,-523"/>
<text text-anchor="start" x="187.1973" y="-528.6" font-family="courier new" font-size="8.00" fill="#000000">profile</text>
</g>
<!-- [root] azurerm_traffic_manager_endpoint.endpoint&#45;&gt;[root] azurerm_traffic_manager_profile.profile -->
<g id="edge_12" class="edge">
<title>[root] azurerm_traffic_manager_endpoint.endpoint&#45;&gt;[root] azurerm_traffic_manager_profile.profile</title>
<path fill="none" stroke="#000000" d="M181.5703,-591.8314C184.8493,-583.9617 188.762,-574.5712 192.3945,-565.8533"/>
<polygon fill="#000000" stroke="#000000" points="195.7124,-566.9902 196.3278,-556.4133 189.2508,-564.2979 195.7124,-566.9902"/>
</g>
<!-- [root] azurerm_traffic_manager_profile.profile&#45;&gt;[root] azurerm_resource_group.rg -->
<g id="edge_13" class="edge">
<title>[root] azurerm_traffic_manager_profile.profile&#45;&gt;[root] azurerm_resource_group.rg</title>
<path fill="none" stroke="#000000" d="M203.1242,-519.9843C200.7573,-471.2939 194.2193,-336.7961 191.3639,-278.0573"/>
<polygon fill="#000000" stroke="#000000" points="194.8569,-277.8271 190.8754,-268.0089 187.8652,-278.1671 194.8569,-277.8271"/>
</g>
<!-- [root] azurerm_virtual_machine.vm -->
<g id="node_6" class="node">
<title>[root] azurerm_virtual_machine.vm</title>
<polygon fill="none" stroke="#000000" points="299,-538 299,-553 415,-553 415,-538 299,-538"/>
<text text-anchor="start" x="301.791" y="-543.6" font-family="courier new" font-size="8.00" fill="#000000">azurerm_virtual_machine</text>
<polygon fill="none" stroke="#000000" points="299,-523 299,-538 415,-538 415,-523 299,-523"/>
<text text-anchor="start" x="352.1992" y="-528.6" font-family="courier new" font-size="8.00" fill="#000000">vm</text>
</g>
<!-- [root] azurerm_virtual_machine.vm&#45;&gt;[root] azurerm_network_interface.nic -->
<g id="edge_14" class="edge">
<title>[root] azurerm_virtual_machine.vm&#45;&gt;[root] azurerm_network_interface.nic</title>
<path fill="none" stroke="#000000" d="M349.1774,-519.8314C345.7891,-511.9617 341.7459,-502.5712 337.9924,-493.8533"/>
<polygon fill="#000000" stroke="#000000" points="341.0973,-492.214 333.9279,-484.4133 334.6679,-494.9822 341.0973,-492.214"/>
</g>
<!-- [root] var.admin_password -->
<g id="node_16" class="node">
<title>[root] var.admin_password</title>
<polygon fill="none" stroke="#000000" points="457,-466 457,-481 530,-481 530,-466 457,-466"/>
<text text-anchor="start" x="486.2988" y="-471.6" font-family="courier new" font-size="8.00" fill="#000000">var</text>
<polygon fill="none" stroke="#000000" points="457,-451 457,-466 530,-466 530,-451 457,-451"/>
<text text-anchor="start" x="459.8945" y="-456.6" font-family="courier new" font-size="8.00" fill="#000000">admin_password</text>
</g>
<!-- [root] azurerm_virtual_machine.vm&#45;&gt;[root] var.admin_password -->
<g id="edge_15" class="edge">
<title>[root] azurerm_virtual_machine.vm&#45;&gt;[root] var.admin_password</title>
<path fill="none" stroke="#000000" d="M391.3185,-519.8314C409.0359,-510.4516 430.8345,-498.9112 449.6984,-488.9244"/>
<polygon fill="#000000" stroke="#000000" points="451.4922,-491.935 458.6924,-484.1628 448.2169,-485.7485 451.4922,-491.935"/>
</g>
<!-- [root] azurerm_virtual_machine_extension.ext -->
<g id="node_7" class="node">
<title>[root] azurerm_virtual_machine_extension.ext</title>
<polygon fill="none" stroke="#000000" points="272,-610 272,-625 436,-625 436,-610 272,-610"/>
<text text-anchor="start" x="274.7871" y="-615.6" font-family="courier new" font-size="8.00" fill="#000000">azurerm_virtual_machine_extension</text>
<polygon fill="none" stroke="#000000" points="272,-595 272,-610 436,-610 436,-595 272,-595"/>
<text text-anchor="start" x="346.7988" y="-600.6" font-family="courier new" font-size="8.00" fill="#000000">ext</text>
</g>
<!-- [root] azurerm_virtual_machine_extension.ext&#45;&gt;[root] azurerm_virtual_machine.vm -->
<g id="edge_22" class="edge">
<title>[root] azurerm_virtual_machine_extension.ext&#45;&gt;[root] azurerm_virtual_machine.vm</title>
<path fill="none" stroke="#000000" d="M354.757,-591.8314C355.0779,-584.131 355.4594,-574.9743 355.816,-566.4166"/>
<polygon fill="#000000" stroke="#000000" points="359.3133,-566.5503 356.2328,-556.4133 352.3194,-566.2589 359.3133,-566.5503"/>
</g>
<!-- [root] azurerm_virtual_network.vnet&#45;&gt;[root] azurerm_resource_group.rg -->
<g id="edge_23" class="edge">
<title>[root] azurerm_virtual_network.vnet&#45;&gt;[root] azurerm_resource_group.rg</title>
<path fill="none" stroke="#000000" d="M264.7658,-303.8314C252.212,-294.7927 236.8717,-283.7476 223.3609,-274.0198"/>
<polygon fill="#000000" stroke="#000000" points="225.3866,-271.1655 215.2261,-268.1628 221.2964,-276.8463 225.3866,-271.1655"/>
</g>
<!-- [root] var.address_space -->
<g id="node_23" class="node">
<title>[root] var.address_space</title>
<polygon fill="none" stroke="#000000" points="264,-250 264,-265 332,-265 332,-250 264,-250"/>
<text text-anchor="start" x="290.7988" y="-255.6" font-family="courier new" font-size="8.00" fill="#000000">var</text>
<polygon fill="none" stroke="#000000" points="264,-235 264,-250 332,-250 332,-235 264,-235"/>
<text text-anchor="start" x="266.7949" y="-240.6" font-family="courier new" font-size="8.00" fill="#000000">address_space</text>
</g>
<!-- [root] azurerm_virtual_network.vnet&#45;&gt;[root] var.address_space -->
<g id="edge_24" class="edge">
<title>[root] azurerm_virtual_network.vnet&#45;&gt;[root] var.address_space</title>
<path fill="none" stroke="#000000" d="M292.0187,-303.8314C292.8743,-296.131 293.8917,-286.9743 294.8426,-278.4166"/>
<polygon fill="#000000" stroke="#000000" points="298.3283,-278.7386 295.9541,-268.4133 291.3711,-277.9656 298.3283,-278.7386"/>
</g>
<!-- [root] meta.count&#45;boundary (count boundary fixup) -->
<g id="node_25" class="node">
<title>[root] meta.count&#45;boundary (count boundary fixup)</title>
<polygon fill="none" stroke="#000000" points="138,-682 138,-697 211,-697 211,-682 138,-682"/>
<text text-anchor="start" x="164.8984" y="-687.6" font-family="courier new" font-size="8.00" fill="#000000">meta</text>
<polygon fill="none" stroke="#000000" points="138,-667 138,-682 211,-682 211,-667 138,-667"/>
<text text-anchor="start" x="140.8945" y="-672.6" font-family="courier new" font-size="8.00" fill="#000000">count&#45;boundary</text>
</g>
<!-- [root] meta.count&#45;boundary (count boundary fixup)&#45;&gt;[root] azurerm_traffic_manager_endpoint.endpoint -->
<g id="edge_26" class="edge">
<title>[root] meta.count&#45;boundary (count boundary fixup)&#45;&gt;[root] azurerm_traffic_manager_endpoint.endpoint</title>
<path fill="none" stroke="#000000" d="M174,-663.8314C174,-656.131 174,-646.9743 174,-638.4166"/>
<polygon fill="#000000" stroke="#000000" points="177.5001,-638.4132 174,-628.4133 170.5001,-638.4133 177.5001,-638.4132"/>
</g>
<!-- [root] meta.count&#45;boundary (count boundary fixup)&#45;&gt;[root] azurerm_virtual_machine_extension.ext -->
<g id="edge_27" class="edge">
<title>[root] meta.count&#45;boundary (count boundary fixup)&#45;&gt;[root] azurerm_virtual_machine_extension.ext</title>
<path fill="none" stroke="#000000" d="M210.86,-667.256C236.3647,-657.0541 270.7397,-643.3041 299.4107,-631.8357"/>
<polygon fill="#000000" stroke="#000000" points="300.9093,-635.006 308.8941,-628.0423 298.3095,-628.5066 300.9093,-635.006"/>
</g>
<!-- [root] output.dns_name -->
<g id="node_26" class="node">
<title>[root] output.dns_name</title>
<polygon fill="none" stroke="#000000" points="21,-610 21,-625 65,-625 65,-610 21,-610"/>
<text text-anchor="start" x="28.5977" y="-615.6" font-family="courier new" font-size="8.00" fill="#000000">output</text>
<polygon fill="none" stroke="#000000" points="21,-595 21,-610 65,-610 65,-595 21,-595"/>
<text text-anchor="start" x="23.7969" y="-600.6" font-family="courier new" font-size="8.00" fill="#000000">dns_name</text>
</g>
<!-- [root] meta.count&#45;boundary (count boundary fixup)&#45;&gt;[root] output.dns_name -->
<g id="edge_28" class="edge">
<title>[root] meta.count&#45;boundary (count boundary fixup)&#45;&gt;[root] output.dns_name</title>
<path fill="none" stroke="#000000" d="M137.2863,-663.8283C121.1007,-655.6116 101.9472,-645.6062 85,-636 83.0603,-634.9005 81.0813,-633.7561 79.0911,-632.5874"/>
<polygon fill="#000000" stroke="#000000" points="80.7575,-629.5057 70.3801,-627.3703 77.1608,-635.5111 80.7575,-629.5057"/>
</g>
<!-- [root] provider.azurerm (close) -->
<g id="node_27" class="node">
<title>[root] provider.azurerm (close)</title>
<polygon fill="none" stroke="#000000" points="234,-682 234,-697 278,-697 278,-682 234,-682"/>
<text text-anchor="start" x="236.7969" y="-687.6" font-family="courier new" font-size="8.00" fill="#000000">provider</text>
<polygon fill="none" stroke="#000000" points="234,-667 234,-682 278,-682 278,-667 234,-667"/>
<text text-anchor="start" x="239.1973" y="-672.6" font-family="courier new" font-size="8.00" fill="#000000">azurerm</text>
</g>
<!-- [root] provider.azurerm (close)&#45;&gt;[root] azurerm_traffic_manager_endpoint.endpoint -->
<g id="edge_30" class="edge">
<title>[root] provider.azurerm (close)&#45;&gt;[root] azurerm_traffic_manager_endpoint.endpoint</title>
<path fill="none" stroke="#000000" d="M235.3079,-663.8314C225.3052,-655.0485 213.145,-644.3712 202.3001,-634.8489"/>
<polygon fill="#000000" stroke="#000000" points="204.5092,-632.1308 194.6854,-628.1628 199.8906,-637.3909 204.5092,-632.1308"/>
</g>
<!-- [root] provider.azurerm (close)&#45;&gt;[root] azurerm_virtual_machine_extension.ext -->
<g id="edge_31" class="edge">
<title>[root] provider.azurerm (close)&#45;&gt;[root] azurerm_virtual_machine_extension.ext</title>
<path fill="none" stroke="#000000" d="M280.7295,-663.8314C292.9162,-654.8779 307.7823,-643.9558 320.9312,-634.2955"/>
<polygon fill="#000000" stroke="#000000" points="323.2918,-636.9042 329.2784,-628.1628 319.1473,-631.263 323.2918,-636.9042"/>
</g>
<!-- [root] root -->
<g id="node_28" class="node">
<title>[root] root</title>
<polygon fill="none" stroke="#000000" points="249.3089,-772 180.6911,-772 180.6911,-736 249.3089,-736 249.3089,-772"/>
<text text-anchor="middle" x="215" y="-752.1313" font-family="courier new" font-size="8.00" fill="#000000">[root] root</text>
</g>
<!-- [root] root&#45;&gt;[root] meta.count&#45;boundary (count boundary fixup) -->
<g id="edge_32" class="edge">
<title>[root] root&#45;&gt;[root] meta.count&#45;boundary (count boundary fixup)</title>
<path fill="none" stroke="#000000" d="M204.654,-735.8314C200.0763,-727.7925 194.5948,-718.1666 189.5412,-709.2918"/>
<polygon fill="#000000" stroke="#000000" points="192.4752,-707.3712 184.4853,-700.4133 186.3923,-710.8351 192.4752,-707.3712"/>
</g>
<!-- [root] root&#45;&gt;[root] provider.azurerm (close) -->
<g id="edge_33" class="edge">
<title>[root] root&#45;&gt;[root] provider.azurerm (close)</title>
<path fill="none" stroke="#000000" d="M225.346,-735.8314C229.9237,-727.7925 235.4052,-718.1666 240.4588,-709.2918"/>
<polygon fill="#000000" stroke="#000000" points="243.6077,-710.8351 245.5147,-700.4133 237.5248,-707.3712 243.6077,-710.8351"/>
</g>
<!-- [root] var.resource_group -->
<g id="node_13" class="node">
<title>[root] var.resource_group</title>
<polygon fill="none" stroke="#000000" points="165,-106 165,-121 238,-121 238,-106 165,-106"/>
<text text-anchor="start" x="194.2988" y="-111.6" font-family="courier new" font-size="8.00" fill="#000000">var</text>
<polygon fill="none" stroke="#000000" points="165,-91 165,-106 238,-106 238,-91 165,-91"/>
<text text-anchor="start" x="167.8945" y="-96.6" font-family="courier new" font-size="8.00" fill="#000000">resource_group</text>
</g>
<!-- [root] var.location&#45;&gt;[root] var.resource_group -->
<g id="edge_34" class="edge">
<title>[root] var.location&#45;&gt;[root] var.resource_group</title>
<path fill="none" stroke="#000000" stroke-dasharray="5,2" d="M198.0094,-159.8314C198.6111,-149 199.3729,-135.2876 199.977,-124.4133"/>
</g>
<!-- [root] var.subnet_prefix -->
<g id="node_15" class="node">
<title>[root] var.subnet_prefix</title>
<polygon fill="none" stroke="#000000" points="364,-250 364,-265 432,-265 432,-250 364,-250"/>
<text text-anchor="start" x="390.7988" y="-255.6" font-family="courier new" font-size="8.00" fill="#000000">var</text>
<polygon fill="none" stroke="#000000" points="364,-235 364,-250 432,-250 432,-235 364,-235"/>
<text text-anchor="start" x="366.7949" y="-240.6" font-family="courier new" font-size="8.00" fill="#000000">subnet_prefix</text>
</g>
<!-- [root] var.subnet_name&#45;&gt;[root] var.subnet_prefix -->
<g id="edge_35" class="edge">
<title>[root] var.subnet_name&#45;&gt;[root] var.subnet_prefix</title>
<path fill="none" stroke="#000000" stroke-dasharray="5,2" d="M396.5047,-303.8314C396.8056,-293 397.1865,-279.2876 397.4885,-268.4133"/>
</g>
<!-- [root] var.admin_username -->
<g id="node_17" class="node">
<title>[root] var.admin_username</title>
<polygon fill="none" stroke="#000000" points="458,-394 458,-409 531,-409 531,-394 458,-394"/>
<text text-anchor="start" x="487.2988" y="-399.6" font-family="courier new" font-size="8.00" fill="#000000">var</text>
<polygon fill="none" stroke="#000000" points="458,-379 458,-394 531,-394 531,-379 458,-379"/>
<text text-anchor="start" x="460.8945" y="-384.6" font-family="courier new" font-size="8.00" fill="#000000">admin_username</text>
</g>
<!-- [root] var.admin_password&#45;&gt;[root] var.admin_username -->
<g id="edge_36" class="edge">
<title>[root] var.admin_password&#45;&gt;[root] var.admin_username</title>
<path fill="none" stroke="#000000" stroke-dasharray="5,2" d="M493.2523,-447.8314C493.4028,-437 493.5932,-423.2876 493.7443,-412.4133"/>
</g>
<!-- [root] var.image_offer -->
<g id="node_18" class="node">
<title>[root] var.image_offer</title>
<polygon fill="none" stroke="#000000" points="465,-322 465,-337 523,-337 523,-322 465,-322"/>
<text text-anchor="start" x="486.7988" y="-327.6" font-family="courier new" font-size="8.00" fill="#000000">var</text>
<polygon fill="none" stroke="#000000" points="465,-307 465,-322 523,-322 523,-307 465,-307"/>
<text text-anchor="start" x="467.5957" y="-312.6" font-family="courier new" font-size="8.00" fill="#000000">image_offer</text>
</g>
<!-- [root] var.admin_username&#45;&gt;[root] var.image_offer -->
<g id="edge_37" class="edge">
<title>[root] var.admin_username&#45;&gt;[root] var.image_offer</title>
<path fill="none" stroke="#000000" stroke-dasharray="5,2" d="M494,-375.8314C494,-365 494,-351.2876 494,-340.4133"/>
</g>
<!-- [root] var.image_publisher -->
<g id="node_19" class="node">
<title>[root] var.image_publisher</title>
<polygon fill="none" stroke="#000000" points="456,-250 456,-265 534,-265 534,-250 456,-250"/>
<text text-anchor="start" x="487.7988" y="-255.6" font-family="courier new" font-size="8.00" fill="#000000">var</text>
<polygon fill="none" stroke="#000000" points="456,-235 456,-250 534,-250 534,-235 456,-235"/>
<text text-anchor="start" x="458.9941" y="-240.6" font-family="courier new" font-size="8.00" fill="#000000">image_publisher</text>
</g>
<!-- [root] var.image_offer&#45;&gt;[root] var.image_publisher -->
<g id="edge_38" class="edge">
<title>[root] var.image_offer&#45;&gt;[root] var.image_publisher</title>
<path fill="none" stroke="#000000" stroke-dasharray="5,2" d="M494.2523,-303.8314C494.4028,-293 494.5932,-279.2876 494.7443,-268.4133"/>
</g>
<!-- [root] var.image_sku -->
<g id="node_20" class="node">
<title>[root] var.image_sku</title>
<polygon fill="none" stroke="#000000" points="471,-178 471,-193 520,-193 520,-178 471,-178"/>
<text text-anchor="start" x="488.2988" y="-183.6" font-family="courier new" font-size="8.00" fill="#000000">var</text>
<polygon fill="none" stroke="#000000" points="471,-163 471,-178 520,-178 520,-163 471,-163"/>
<text text-anchor="start" x="473.8965" y="-168.6" font-family="courier new" font-size="8.00" fill="#000000">image_sku</text>
</g>
<!-- [root] var.image_publisher&#45;&gt;[root] var.image_sku -->
<g id="edge_39" class="edge">
<title>[root] var.image_publisher&#45;&gt;[root] var.image_sku</title>
<path fill="none" stroke="#000000" stroke-dasharray="5,2" d="M495,-231.8314C495,-221 495,-207.2876 495,-196.4133"/>
</g>
<!-- [root] var.image_version -->
<g id="node_21" class="node">
<title>[root] var.image_version</title>
<polygon fill="none" stroke="#000000" points="461,-106 461,-121 529,-121 529,-106 461,-106"/>
<text text-anchor="start" x="487.7988" y="-111.6" font-family="courier new" font-size="8.00" fill="#000000">var</text>
<polygon fill="none" stroke="#000000" points="461,-91 461,-106 529,-106 529,-91 461,-91"/>
<text text-anchor="start" x="463.7949" y="-96.6" font-family="courier new" font-size="8.00" fill="#000000">image_version</text>
</g>
<!-- [root] var.image_sku&#45;&gt;[root] var.image_version -->
<g id="edge_40" class="edge">
<title>[root] var.image_sku&#45;&gt;[root] var.image_version</title>
<path fill="none" stroke="#000000" stroke-dasharray="5,2" d="M495,-159.8314C495,-149 495,-135.2876 495,-124.4133"/>
</g>
<!-- [root] var.vm_size -->
<g id="node_22" class="node">
<title>[root] var.vm_size</title>
<polygon fill="none" stroke="#000000" points="476,-34 476,-49 515,-49 515,-34 476,-34"/>
<text text-anchor="start" x="488.2988" y="-39.6" font-family="courier new" font-size="8.00" fill="#000000">var</text>
<polygon fill="none" stroke="#000000" points="476,-19 476,-34 515,-34 515,-19 476,-19"/>
<text text-anchor="start" x="478.6973" y="-24.6" font-family="courier new" font-size="8.00" fill="#000000">vm_size</text>
</g>
<!-- [root] var.image_version&#45;&gt;[root] var.vm_size -->
<g id="edge_41" class="edge">
<title>[root] var.image_version&#45;&gt;[root] var.vm_size</title>
<path fill="none" stroke="#000000" stroke-dasharray="5,2" d="M495,-87.8314C495,-77 495,-63.2876 495,-52.4133"/>
</g>
<!-- [root] var.vnet -->
<g id="node_24" class="node">
<title>[root] var.vnet</title>
<polygon fill="none" stroke="#000000" points="286,-178 286,-193 311,-193 311,-178 286,-178"/>
<text text-anchor="start" x="291.2988" y="-183.6" font-family="courier new" font-size="8.00" fill="#000000">var</text>
<polygon fill="none" stroke="#000000" points="286,-163 286,-178 311,-178 311,-163 286,-163"/>
<text text-anchor="start" x="288.8984" y="-168.6" font-family="courier new" font-size="8.00" fill="#000000">vnet</text>
</g>
<!-- [root] var.address_space&#45;&gt;[root] var.vnet -->
<g id="edge_42" class="edge">
<title>[root] var.address_space&#45;&gt;[root] var.vnet</title>
<path fill="none" stroke="#000000" stroke-dasharray="5,2" d="M298,-231.8314C298,-221 298,-207.2876 298,-196.4133"/>
</g>
<!-- [root] output.dns_name&#45;&gt;[root] var.dns_name -->
<g id="edge_29" class="edge">
<title>[root] output.dns_name&#45;&gt;[root] var.dns_name</title>
<path fill="none" stroke="#000000" d="M42.7498,-591.9843C42.0735,-543.2939 40.2055,-408.7961 39.3897,-350.0573"/>
<polygon fill="#000000" stroke="#000000" points="42.8888,-349.9593 39.2501,-340.0089 35.8894,-350.0566 42.8888,-349.9593"/>
</g>
</g>
</svg>

