<?xml version="1.0" encoding="UTF-8" standalone="no"?>
<!DOCTYPE svg PUBLIC "-//W3C//DTD SVG 1.1//EN"
 "http://www.w3.org/Graphics/SVG/1.1/DTD/svg11.dtd">
<!-- Generated by graphviz version 2.40.1 (20161225.0304)
 -->
<!-- Title: %3 Pages: 1 -->
<svg width="1124pt" height="620pt"
 viewBox="0.00 0.00 1124.00 620.00" xmlns="http://www.w3.org/2000/svg" xmlns:xlink="http://www.w3.org/1999/xlink">
<g id="graph0" class="graph" transform="scale(1 1) rotate(0) translate(4 616)">
<title>%3</title>
<polygon fill="#ffffff" stroke="transparent" points="-4,4 -4,-616 1120,-616 1120,4 -4,4"/>
<!-- [root] azurerm_network_interface.nic -->
<g id="node_0" class="node">
<title>[root] azurerm_network_interface.nic</title>
<polygon fill="none" stroke="#000000" points="536,-306 536,-321 662,-321 662,-306 536,-306"/>
<text text-anchor="start" x="538.9902" y="-311.6" font-family="courier new" font-size="8.00" fill="#000000">azurerm_network_interface</text>
<polygon fill="none" stroke="#000000" points="536,-291 536,-306 662,-306 662,-291 536,-291"/>
<text text-anchor="start" x="591.7988" y="-296.6" font-family="courier new" font-size="8.00" fill="#000000">nic</text>
</g>
<!-- [root] azurerm_public_ip.pip -->
<g id="node_1" class="node">
<title>[root] azurerm_public_ip.pip</title>
<polygon fill="none" stroke="#000000" points="556,-234 556,-249 643,-249 643,-234 556,-234"/>
<text text-anchor="start" x="558.6934" y="-239.6" font-family="courier new" font-size="8.00" fill="#000000">azurerm_public_ip</text>
<polygon fill="none" stroke="#000000" points="556,-219 556,-234 643,-234 643,-219 556,-219"/>
<text text-anchor="start" x="592.2988" y="-224.6" font-family="courier new" font-size="8.00" fill="#000000">pip</text>
</g>
<!-- [root] azurerm_network_interface.nic&#45;&gt;[root] azurerm_public_ip.pip -->
<g id="edge_0" class="edge">
<title>[root] azurerm_network_interface.nic&#45;&gt;[root] azurerm_public_ip.pip</title>
<path fill="none" stroke="#000000" d="M599,-287.8314C599,-280.131 599,-270.9743 599,-262.4166"/>
<polygon fill="#000000" stroke="#000000" points="602.5001,-262.4132 599,-252.4133 595.5001,-262.4133 602.5001,-262.4132"/>
</g>
<!-- [root] azurerm_subnet.subnet -->
<g id="node_3" class="node">
<title>[root] azurerm_subnet.subnet</title>
<polygon fill="none" stroke="#000000" points="978,-234 978,-249 1051,-249 1051,-234 978,-234"/>
<text text-anchor="start" x="980.8945" y="-239.6" font-family="courier new" font-size="8.00" fill="#000000">azurerm_subnet</text>
<polygon fill="none" stroke="#000000" points="978,-219 978,-234 1051,-234 1051,-219 978,-219"/>
<text text-anchor="start" x="1000.0977" y="-224.6" font-family="courier new" font-size="8.00" fill="#000000">subnet</text>
</g>
<!-- [root] azurerm_network_interface.nic&#45;&gt;[root] azurerm_subnet.subnet -->
<g id="edge_1" class="edge">
<title>[root] azurerm_network_interface.nic&#45;&gt;[root] azurerm_subnet.subnet</title>
<path fill="none" stroke="#000000" d="M662.1438,-289.877C665.1325,-289.22 668.0959,-288.5904 671,-288 776.1384,-266.6255 900.8729,-248.8708 967.1381,-240.0339"/>
<polygon fill="#000000" stroke="#000000" points="967.8056,-243.4762 977.2593,-238.6931 966.8862,-236.5368 967.8056,-243.4762"/>
</g>
<!-- [root] azurerm_resource_group.rg -->
<g id="node_2" class="node">
<title>[root] azurerm_resource_group.rg</title>
<polygon fill="none" stroke="#000000" points="517,-90 517,-105 628,-105 628,-90 517,-90"/>
<text text-anchor="start" x="519.6914" y="-95.6" font-family="courier new" font-size="8.00" fill="#000000">azurerm_resource_group</text>
<polygon fill="none" stroke="#000000" points="517,-75 517,-90 628,-90 628,-75 517,-75"/>
<text text-anchor="start" x="567.6992" y="-80.6" font-family="courier new" font-size="8.00" fill="#000000">rg</text>
</g>
<!-- [root] azurerm_public_ip.pip&#45;&gt;[root] azurerm_resource_group.rg -->
<g id="edge_2" class="edge">
<title>[root] azurerm_public_ip.pip&#45;&gt;[root] azurerm_resource_group.rg</title>
<path fill="none" stroke="#000000" d="M595.5804,-215.7623C590.9549,-191.0928 582.6612,-146.8598 577.245,-117.9731"/>
<polygon fill="#000000" stroke="#000000" points="580.6748,-117.2733 575.3918,-108.0896 573.7947,-118.5634 580.6748,-117.2733"/>
</g>
<!-- [root] var.dns_name -->
<g id="node_10" class="node">
<title>[root] var.dns_name</title>
<polygon fill="none" stroke="#000000" points="691,-162 691,-177 735,-177 735,-162 691,-162"/>
<text text-anchor="start" x="705.7988" y="-167.6" font-family="courier new" font-size="8.00" fill="#000000">var</text>
<polygon fill="none" stroke="#000000" points="691,-147 691,-162 735,-162 735,-147 691,-147"/>
<text text-anchor="start" x="693.7969" y="-152.6" font-family="courier new" font-size="8.00" fill="#000000">dns_name</text>
</g>
<!-- [root] azurerm_public_ip.pip&#45;&gt;[root] var.dns_name -->
<g id="edge_3" class="edge">
<title>[root] azurerm_public_ip.pip&#45;&gt;[root] var.dns_name</title>
<path fill="none" stroke="#000000" d="M627.767,-215.8314C642.7935,-206.3409 661.3223,-194.6386 677.2617,-184.5716"/>
<polygon fill="#000000" stroke="#000000" points="679.2259,-187.4707 685.8119,-179.1715 675.488,-181.5522 679.2259,-187.4707"/>
</g>
<!-- [root] var.num_vms -->
<g id="node_11" class="node">
<title>[root] var.num_vms</title>
<polygon fill="none" stroke="#000000" points="608,-162 608,-177 647,-177 647,-162 608,-162"/>
<text text-anchor="start" x="620.2988" y="-167.6" font-family="courier new" font-size="8.00" fill="#000000">var</text>
<polygon fill="none" stroke="#000000" points="608,-147 608,-162 647,-162 647,-147 608,-147"/>
<text text-anchor="start" x="610.6973" y="-152.6" font-family="courier new" font-size="8.00" fill="#000000">num_vms</text>
</g>
<!-- [root] azurerm_public_ip.pip&#45;&gt;[root] var.num_vms -->
<g id="edge_4" class="edge">
<title>[root] azurerm_public_ip.pip&#45;&gt;[root] var.num_vms</title>
<path fill="none" stroke="#000000" d="M606.0656,-215.8314C609.126,-207.9617 612.7779,-198.5712 616.1682,-189.8533"/>
<polygon fill="#000000" stroke="#000000" points="619.4768,-191.0019 619.8393,-180.4133 612.9527,-188.4647 619.4768,-191.0019"/>
</g>
<!-- [root] provider.azurerm -->
<g id="node_9" class="node">
<title>[root] provider.azurerm</title>
<polygon fill="none" stroke="#000000" points="478,-18 478,-33 522,-33 522,-18 478,-18"/>
<text text-anchor="start" x="480.7969" y="-23.6" font-family="courier new" font-size="8.00" fill="#000000">provider</text>
<polygon fill="none" stroke="#000000" points="478,-3 478,-18 522,-18 522,-3 478,-3"/>
<text text-anchor="start" x="483.1973" y="-8.6" font-family="courier new" font-size="8.00" fill="#000000">azurerm</text>
</g>
<!-- [root] azurerm_resource_group.rg&#45;&gt;[root] provider.azurerm -->
<g id="edge_5" class="edge">
<title>[root] azurerm_resource_group.rg&#45;&gt;[root] provider.azurerm</title>
<path fill="none" stroke="#000000" d="M553.8314,-71.8314C545.2848,-63.2848 534.9443,-52.9443 525.6198,-43.6198"/>
<polygon fill="#000000" stroke="#000000" points="527.9592,-41.0095 518.4133,-36.4133 523.0095,-45.9592 527.9592,-41.0095"/>
</g>
<!-- [root] var.location -->
<g id="node_12" class="node">
<title>[root] var.location</title>
<polygon fill="none" stroke="#000000" points="550,-18 550,-33 594,-33 594,-18 550,-18"/>
<text text-anchor="start" x="564.7988" y="-23.6" font-family="courier new" font-size="8.00" fill="#000000">var</text>
<polygon fill="none" stroke="#000000" points="550,-3 550,-18 594,-18 594,-3 550,-3"/>
<text text-anchor="start" x="552.7969" y="-8.6" font-family="courier new" font-size="8.00" fill="#000000">location</text>
</g>
<!-- [root] azurerm_resource_group.rg&#45;&gt;[root] var.location -->
<g id="edge_6" class="edge">
<title>[root] azurerm_resource_group.rg&#45;&gt;[root] var.location</title>
<path fill="none" stroke="#000000" d="M572,-71.8314C572,-64.131 572,-54.9743 572,-46.4166"/>
<polygon fill="#000000" stroke="#000000" points="575.5001,-46.4132 572,-36.4133 568.5001,-46.4133 575.5001,-46.4132"/>
</g>
<!-- [root] var.resource_group -->
<g id="node_13" class="node">
<title>[root] var.resource_group</title>
<polygon fill="none" stroke="#000000" points="618,-18 618,-33 691,-33 691,-18 618,-18"/>
<text text-anchor="start" x="647.2988" y="-23.6" font-family="courier new" font-size="8.00" fill="#000000">var</text>
<polygon fill="none" stroke="#000000" points="618,-3 618,-18 691,-18 691,-3 618,-3"/>
<text text-anchor="start" x="620.8945" y="-8.6" font-family="courier new" font-size="8.00" fill="#000000">resource_group</text>
</g>
<!-- [root] azurerm_resource_group.rg&#45;&gt;[root] var.resource_group -->
<g id="edge_7" class="edge">
<title>[root] azurerm_resource_group.rg&#45;&gt;[root] var.resource_group</title>
<path fill="none" stroke="#000000" d="M592.6921,-71.8314C602.6948,-63.0485 614.855,-52.3712 625.6999,-42.8489"/>
<polygon fill="#000000" stroke="#000000" points="628.1094,-45.3909 633.3146,-36.1628 623.4908,-40.1308 628.1094,-45.3909"/>
</g>
<!-- [root] azurerm_virtual_network.vnet -->
<g id="node_8" class="node">
<title>[root] azurerm_virtual_network.vnet</title>
<polygon fill="none" stroke="#000000" points="811,-162 811,-177 927,-177 927,-162 811,-162"/>
<text text-anchor="start" x="813.791" y="-167.6" font-family="courier new" font-size="8.00" fill="#000000">azurerm_virtual_network</text>
<polygon fill="none" stroke="#000000" points="811,-147 811,-162 927,-162 927,-147 811,-147"/>
<text text-anchor="start" x="859.3984" y="-152.6" font-family="courier new" font-size="8.00" fill="#000000">vnet</text>
</g>
<!-- [root] azurerm_subnet.subnet&#45;&gt;[root] azurerm_virtual_network.vnet -->
<g id="edge_8" class="edge">
<title>[root] azurerm_subnet.subnet&#45;&gt;[root] azurerm_virtual_network.vnet</title>
<path fill="none" stroke="#000000" d="M977.4104,-215.8314C958.2761,-206.3302 934.6771,-194.6121 914.3878,-184.5374"/>
<polygon fill="#000000" stroke="#000000" points="915.8397,-181.3506 905.3265,-180.038 912.7265,-187.6203 915.8397,-181.3506"/>
</g>
<!-- [root] var.subnet_name -->
<g id="node_14" class="node">
<title>[root] var.subnet_name</title>
<polygon fill="none" stroke="#000000" points="972,-162 972,-177 1030,-177 1030,-162 972,-162"/>
<text text-anchor="start" x="993.7988" y="-167.6" font-family="courier new" font-size="8.00" fill="#000000">var</text>
<polygon fill="none" stroke="#000000" points="972,-147 972,-162 1030,-162 1030,-147 972,-147"/>
<text text-anchor="start" x="974.5957" y="-152.6" font-family="courier new" font-size="8.00" fill="#000000">subnet_name</text>
</g>
<!-- [root] azurerm_subnet.subnet&#45;&gt;[root] var.subnet_name -->
<g id="edge_9" class="edge">
<title>[root] azurerm_subnet.subnet&#45;&gt;[root] var.subnet_name</title>
<path fill="none" stroke="#000000" d="M1010.7196,-215.8314C1009.3292,-208.131 1007.6759,-198.9743 1006.1308,-190.4166"/>
<polygon fill="#000000" stroke="#000000" points="1009.5458,-189.6322 1004.3246,-180.4133 1002.6572,-190.8761 1009.5458,-189.6322"/>
</g>
<!-- [root] var.subnet_prefix -->
<g id="node_15" class="node">
<title>[root] var.subnet_prefix</title>
<polygon fill="none" stroke="#000000" points="1048,-162 1048,-177 1116,-177 1116,-162 1048,-162"/>
<text text-anchor="start" x="1074.7988" y="-167.6" font-family="courier new" font-size="8.00" fill="#000000">var</text>
<polygon fill="none" stroke="#000000" points="1048,-147 1048,-162 1116,-162 1116,-147 1048,-147"/>
<text text-anchor="start" x="1050.7949" y="-152.6" font-family="courier new" font-size="8.00" fill="#000000">subnet_prefix</text>
</g>
<!-- [root] azurerm_subnet.subnet&#45;&gt;[root] var.subnet_prefix -->
<g id="edge_10" class="edge">
<title>[root] azurerm_subnet.subnet&#45;&gt;[root] var.subnet_prefix</title>
<path fill="none" stroke="#000000" d="M1031.1593,-215.8314C1039.1511,-207.3694 1048.8038,-197.1489 1057.5416,-187.8971"/>
<polygon fill="#000000" stroke="#000000" points="1060.288,-190.0866 1064.6097,-180.4133 1055.1989,-185.2802 1060.288,-190.0866"/>
</g>
<!-- [root] azurerm_traffic_manager_endpoint.endpoint -->
<g id="node_4" class="node">
<title>[root] azurerm_traffic_manager_endpoint.endpoint</title>
<polygon fill="none" stroke="#000000" points="164,-450 164,-465 323,-465 323,-450 164,-450"/>
<text text-anchor="start" x="166.6875" y="-455.6" font-family="courier new" font-size="8.00" fill="#000000">azurerm_traffic_manager_endpoint</text>
<polygon fill="none" stroke="#000000" points="164,-435 164,-450 323,-450 323,-435 164,-435"/>
<text text-anchor="start" x="224.2969" y="-440.6" font-family="courier new" font-size="8.00" fill="#000000">endpoint</text>
</g>
<!-- [root] azurerm_traffic_manager_endpoint.endpoint&#45;&gt;[root] azurerm_public_ip.pip -->
<g id="edge_11" class="edge">
<title>[root] azurerm_traffic_manager_endpoint.endpoint&#45;&gt;[root] azurerm_public_ip.pip</title>
<path fill="none" stroke="#000000" d="M229.0075,-431.7982C205.6246,-399.0383 164.5879,-329.686 201,-288 223.3133,-262.4548 441.6124,-244.5469 545.0977,-237.4233"/>
<polygon fill="#000000" stroke="#000000" points="545.6011,-240.8973 555.3409,-236.7276 545.1267,-233.9134 545.6011,-240.8973"/>
</g>
<!-- [root] azurerm_traffic_manager_profile.profile -->
<g id="node_5" class="node">
<title>[root] azurerm_traffic_manager_profile.profile</title>
<polygon fill="none" stroke="#000000" points="0,-378 0,-393 154,-393 154,-378 0,-378"/>
<text text-anchor="start" x="2.5879" y="-383.6" font-family="courier new" font-size="8.00" fill="#000000">azurerm_traffic_manager_profile</text>
<polygon fill="none" stroke="#000000" points="0,-363 0,-378 154,-378 154,-363 0,-363"/>
<text text-anchor="start" x="60.1973" y="-368.6" font-family="courier new" font-size="8.00" fill="#000000">profile</text>
</g>
<!-- [root] azurerm_traffic_manager_endpoint.endpoint&#45;&gt;[root] azurerm_traffic_manager_profile.profile -->
<g id="edge_12" class="edge">
<title>[root] azurerm_traffic_manager_endpoint.endpoint&#45;&gt;[root] azurerm_traffic_manager_profile.profile</title>
<path fill="none" stroke="#000000" d="M201.1112,-431.8314C178.9097,-422.2018 151.4578,-410.295 128.0216,-400.1299"/>
<polygon fill="#000000" stroke="#000000" points="129.1545,-396.8062 118.5876,-396.038 126.3691,-403.2282 129.1545,-396.8062"/>
</g>
<!-- [root] azurerm_traffic_manager_profile.profile&#45;&gt;[root] azurerm_resource_group.rg -->
<g id="edge_13" class="edge">
<title>[root] azurerm_traffic_manager_profile.profile&#45;&gt;[root] azurerm_resource_group.rg</title>
<path fill="none" stroke="#000000" d="M95.4614,-359.9849C115.8105,-340.7062 150.0441,-309.9411 183,-288 296.4214,-212.4872 442.4217,-145.3708 519.28,-112.1092"/>
<polygon fill="#000000" stroke="#000000" points="520.9541,-115.1991 528.7543,-108.0292 518.1854,-108.7699 520.9541,-115.1991"/>
</g>
<!-- [root] azurerm_virtual_machine.vm -->
<g id="node_6" class="node">
<title>[root] azurerm_virtual_machine.vm</title>
<polygon fill="none" stroke="#000000" points="433,-378 433,-393 549,-393 549,-378 433,-378"/>
<text text-anchor="start" x="435.791" y="-383.6" font-family="courier new" font-size="8.00" fill="#000000">azurerm_virtual_machine</text>
<polygon fill="none" stroke="#000000" points="433,-363 433,-378 549,-378 549,-363 433,-363"/>
<text text-anchor="start" x="486.1992" y="-368.6" font-family="courier new" font-size="8.00" fill="#000000">vm</text>
</g>
<!-- [root] azurerm_virtual_machine.vm&#45;&gt;[root] azurerm_network_interface.nic -->
<g id="edge_14" class="edge">
<title>[root] azurerm_virtual_machine.vm&#45;&gt;[root] azurerm_network_interface.nic</title>
<path fill="none" stroke="#000000" d="M518.253,-359.8314C531.9389,-350.7074 548.6915,-339.539 563.3827,-329.7449"/>
<polygon fill="#000000" stroke="#000000" points="565.3767,-332.6221 571.7558,-324.1628 561.4938,-326.7977 565.3767,-332.6221"/>
</g>
<!-- [root] var.admin_password -->
<g id="node_16" class="node">
<title>[root] var.admin_password</title>
<polygon fill="none" stroke="#000000" points="681,-306 681,-321 754,-321 754,-306 681,-306"/>
<text text-anchor="start" x="710.2988" y="-311.6" font-family="courier new" font-size="8.00" fill="#000000">var</text>
<polygon fill="none" stroke="#000000" points="681,-291 681,-306 754,-306 754,-291 681,-291"/>
<text text-anchor="start" x="683.8945" y="-296.6" font-family="courier new" font-size="8.00" fill="#000000">admin_password</text>
</g>
<!-- [root] azurerm_virtual_machine.vm&#45;&gt;[root] var.admin_password -->
<g id="edge_15" class="edge">
<title>[root] azurerm_virtual_machine.vm&#45;&gt;[root] var.admin_password</title>
<path fill="none" stroke="#000000" d="M549.3447,-361.8027C584.7624,-351.6475 630.7512,-337.8862 671,-324 671.0963,-323.9668 671.1926,-323.9335 671.2891,-323.9001"/>
<polygon fill="#000000" stroke="#000000" points="672.2114,-327.2878 680.4415,-320.6157 669.847,-320.6991 672.2114,-327.2878"/>
</g>
<!-- [root] var.admin_username -->
<g id="node_17" class="node">
<title>[root] var.admin_username</title>
<polygon fill="none" stroke="#000000" points="772,-306 772,-321 845,-321 845,-306 772,-306"/>
<text text-anchor="start" x="801.2988" y="-311.6" font-family="courier new" font-size="8.00" fill="#000000">var</text>
<polygon fill="none" stroke="#000000" points="772,-291 772,-306 845,-306 845,-291 772,-291"/>
<text text-anchor="start" x="774.8945" y="-296.6" font-family="courier new" font-size="8.00" fill="#000000">admin_username</text>
</g>
<!-- [root] azurerm_virtual_machine.vm&#45;&gt;[root] var.admin_username -->
<g id="edge_16" class="edge">
<title>[root] azurerm_virtual_machine.vm&#45;&gt;[root] var.admin_username</title>
<path fill="none" stroke="#000000" d="M549.0734,-369.4721C602.1678,-360.9928 682.877,-346.3911 761.2498,-323.9462"/>
<polygon fill="#000000" stroke="#000000" points="762.6675,-327.1788 771.2906,-321.0231 760.7108,-320.4579 762.6675,-327.1788"/>
</g>
<!-- [root] var.image_offer -->
<g id="node_18" class="node">
<title>[root] var.image_offer</title>
<polygon fill="none" stroke="#000000" points="863,-306 863,-321 921,-321 921,-306 863,-306"/>
<text text-anchor="start" x="884.7988" y="-311.6" font-family="courier new" font-size="8.00" fill="#000000">var</text>
<polygon fill="none" stroke="#000000" points="863,-291 863,-306 921,-306 921,-291 863,-291"/>
<text text-anchor="start" x="865.5957" y="-296.6" font-family="courier new" font-size="8.00" fill="#000000">image_offer</text>
</g>
<!-- [root] azurerm_virtual_machine.vm&#45;&gt;[root] var.image_offer -->
<g id="edge_17" class="edge">
<title>[root] azurerm_virtual_machine.vm&#45;&gt;[root] var.image_offer</title>
<path fill="none" stroke="#000000" d="M549.1552,-374.4275C621.6042,-368.8234 748.5824,-355.1872 853,-324 853.1027,-323.9693 853.2055,-323.9384 853.3084,-323.9073"/>
<polygon fill="#000000" stroke="#000000" points="854.7059,-327.1253 862.9604,-320.4835 852.3656,-320.5281 854.7059,-327.1253"/>
</g>
<!-- [root] var.image_publisher -->
<g id="node_19" class="node">
<title>[root] var.image_publisher</title>
<polygon fill="none" stroke="#000000" points="210,-306 210,-321 288,-321 288,-306 210,-306"/>
<text text-anchor="start" x="241.7988" y="-311.6" font-family="courier new" font-size="8.00" fill="#000000">var</text>
<polygon fill="none" stroke="#000000" points="210,-291 210,-306 288,-306 288,-291 210,-291"/>
<text text-anchor="start" x="212.9941" y="-296.6" font-family="courier new" font-size="8.00" fill="#000000">image_publisher</text>
</g>
<!-- [root] azurerm_virtual_machine.vm&#45;&gt;[root] var.image_publisher -->
<g id="edge_18" class="edge">
<title>[root] azurerm_virtual_machine.vm&#45;&gt;[root] var.image_publisher</title>
<path fill="none" stroke="#000000" d="M432.8805,-363.2419C396.4783,-353.6724 348.4453,-340.4553 297.9795,-324.1972"/>
<polygon fill="#000000" stroke="#000000" points="298.7864,-320.7792 288.1942,-321.016 296.6222,-327.4363 298.7864,-320.7792"/>
</g>
<!-- [root] var.image_sku -->
<g id="node_20" class="node">
<title>[root] var.image_sku</title>
<polygon fill="none" stroke="#000000" points="309,-306 309,-321 358,-321 358,-306 309,-306"/>
<text text-anchor="start" x="326.2988" y="-311.6" font-family="courier new" font-size="8.00" fill="#000000">var</text>
<polygon fill="none" stroke="#000000" points="309,-291 309,-306 358,-306 358,-291 309,-291"/>
<text text-anchor="start" x="311.8965" y="-296.6" font-family="courier new" font-size="8.00" fill="#000000">image_sku</text>
</g>
<!-- [root] azurerm_virtual_machine.vm&#45;&gt;[root] var.image_sku -->
<g id="edge_19" class="edge">
<title>[root] azurerm_virtual_machine.vm&#45;&gt;[root] var.image_sku</title>
<path fill="none" stroke="#000000" d="M448.9963,-359.9877C427.4925,-350.6346 400.7364,-338.7969 369.4553,-324.1276"/>
<polygon fill="#000000" stroke="#000000" points="370.5982,-320.7971 360.0603,-319.7004 367.6143,-327.1293 370.5982,-320.7971"/>
</g>
<!-- [root] var.image_version -->
<g id="node_21" class="node">
<title>[root] var.image_version</title>
<polygon fill="none" stroke="#000000" points="378,-306 378,-321 446,-321 446,-306 378,-306"/>
<text text-anchor="start" x="404.7988" y="-311.6" font-family="courier new" font-size="8.00" fill="#000000">var</text>
<polygon fill="none" stroke="#000000" points="378,-291 378,-306 446,-306 446,-291 378,-291"/>
<text text-anchor="start" x="380.7949" y="-296.6" font-family="courier new" font-size="8.00" fill="#000000">image_version</text>
</g>
<!-- [root] azurerm_virtual_machine.vm&#45;&gt;[root] var.image_version -->
<g id="edge_20" class="edge">
<title>[root] azurerm_virtual_machine.vm&#45;&gt;[root] var.image_version</title>
<path fill="none" stroke="#000000" d="M471.065,-359.8314C461.5217,-351.1337 449.9401,-340.5783 439.5694,-331.1265"/>
<polygon fill="#000000" stroke="#000000" points="441.6772,-328.3121 431.9287,-324.1628 436.962,-333.4857 441.6772,-328.3121"/>
</g>
<!-- [root] var.vm_size -->
<g id="node_22" class="node">
<title>[root] var.vm_size</title>
<polygon fill="none" stroke="#000000" points="472,-306 472,-321 511,-321 511,-306 472,-306"/>
<text text-anchor="start" x="484.2988" y="-311.6" font-family="courier new" font-size="8.00" fill="#000000">var</text>
<polygon fill="none" stroke="#000000" points="472,-291 472,-306 511,-306 511,-291 472,-291"/>
<text text-anchor="start" x="474.6973" y="-296.6" font-family="courier new" font-size="8.00" fill="#000000">vm_size</text>
</g>
<!-- [root] azurerm_virtual_machine.vm&#45;&gt;[root] var.vm_size -->
<g id="edge_21" class="edge">
<title>[root] azurerm_virtual_machine.vm&#45;&gt;[root] var.vm_size</title>
<path fill="none" stroke="#000000" d="M491,-359.8314C491,-352.131 491,-342.9743 491,-334.4166"/>
<polygon fill="#000000" stroke="#000000" points="494.5001,-334.4132 491,-324.4133 487.5001,-334.4133 494.5001,-334.4132"/>
</g>
<!-- [root] azurerm_virtual_machine_extension.ext -->
<g id="node_7" class="node">
<title>[root] azurerm_virtual_machine_extension.ext</title>
<polygon fill="none" stroke="#000000" points="371,-450 371,-465 535,-465 535,-450 371,-450"/>
<text text-anchor="start" x="373.7871" y="-455.6" font-family="courier new" font-size="8.00" fill="#000000">azurerm_virtual_machine_extension</text>
<polygon fill="none" stroke="#000000" points="371,-435 371,-450 535,-450 535,-435 371,-435"/>
<text text-anchor="start" x="445.7988" y="-440.6" font-family="courier new" font-size="8.00" fill="#000000">ext</text>
</g>
<!-- [root] azurerm_virtual_machine_extension.ext&#45;&gt;[root] azurerm_virtual_machine.vm -->
<g id="edge_22" class="edge">
<title>[root] azurerm_virtual_machine_extension.ext&#45;&gt;[root] azurerm_virtual_machine.vm</title>
<path fill="none" stroke="#000000" d="M462.589,-431.8314C466.8317,-423.7925 471.9121,-414.1666 476.596,-405.2918"/>
<polygon fill="#000000" stroke="#000000" points="479.7096,-406.8908 481.2819,-396.4133 473.5189,-403.6235 479.7096,-406.8908"/>
</g>
<!-- [root] azurerm_virtual_network.vnet&#45;&gt;[root] azurerm_resource_group.rg -->
<g id="edge_23" class="edge">
<title>[root] azurerm_virtual_network.vnet&#45;&gt;[root] azurerm_resource_group.rg</title>
<path fill="none" stroke="#000000" d="M810.6767,-147.861C760.8431,-135.7801 689.2045,-118.4132 637.4289,-105.8615"/>
<polygon fill="#000000" stroke="#000000" points="638.22,-102.452 627.6769,-103.4974 636.5708,-109.255 638.22,-102.452"/>
</g>
<!-- [root] var.address_space -->
<g id="node_23" class="node">
<title>[root] var.address_space</title>
<polygon fill="none" stroke="#000000" points="874,-90 874,-105 942,-105 942,-90 874,-90"/>
<text text-anchor="start" x="900.7988" y="-95.6" font-family="courier new" font-size="8.00" fill="#000000">var</text>
<polygon fill="none" stroke="#000000" points="874,-75 874,-90 942,-90 942,-75 874,-75"/>
<text text-anchor="start" x="876.7949" y="-80.6" font-family="courier new" font-size="8.00" fill="#000000">address_space</text>
</g>
<!-- [root] azurerm_virtual_network.vnet&#45;&gt;[root] var.address_space -->
<g id="edge_24" class="edge">
<title>[root] azurerm_virtual_network.vnet&#45;&gt;[root] var.address_space</title>
<path fill="none" stroke="#000000" d="M878.8413,-143.8314C883.1957,-135.7925 888.4098,-126.1666 893.2169,-117.2918"/>
<polygon fill="#000000" stroke="#000000" points="896.3408,-118.8732 898.0261,-108.4133 890.1857,-115.5392 896.3408,-118.8732"/>
</g>
<!-- [root] var.vnet -->
<g id="node_24" class="node">
<title>[root] var.vnet</title>
<polygon fill="none" stroke="#000000" points="817,-90 817,-105 842,-105 842,-90 817,-90"/>
<text text-anchor="start" x="822.2988" y="-95.6" font-family="courier new" font-size="8.00" fill="#000000">var</text>
<polygon fill="none" stroke="#000000" points="817,-75 817,-90 842,-90 842,-75 817,-75"/>
<text text-anchor="start" x="819.8984" y="-80.6" font-family="courier new" font-size="8.00" fill="#000000">vnet</text>
</g>
<!-- [root] azurerm_virtual_network.vnet&#45;&gt;[root] var.vnet -->
<g id="edge_25" class="edge">
<title>[root] azurerm_virtual_network.vnet&#45;&gt;[root] var.vnet</title>
<path fill="none" stroke="#000000" d="M858.9063,-143.8314C854.4403,-135.7925 849.0925,-126.1666 844.1621,-117.2918"/>
<polygon fill="#000000" stroke="#000000" points="847.1456,-115.4551 839.2296,-108.4133 841.0265,-118.8546 847.1456,-115.4551"/>
</g>
<!-- [root] meta.count&#45;boundary (count boundary fixup) -->
<g id="node_25" class="node">
<title>[root] meta.count&#45;boundary (count boundary fixup)</title>
<polygon fill="none" stroke="#000000" points="417,-522 417,-537 490,-537 490,-522 417,-522"/>
<text text-anchor="start" x="443.8984" y="-527.6" font-family="courier new" font-size="8.00" fill="#000000">meta</text>
<polygon fill="none" stroke="#000000" points="417,-507 417,-522 490,-522 490,-507 417,-507"/>
<text text-anchor="start" x="419.8945" y="-512.6" font-family="courier new" font-size="8.00" fill="#000000">count&#45;boundary</text>
</g>
<!-- [root] meta.count&#45;boundary (count boundary fixup)&#45;&gt;[root] azurerm_traffic_manager_endpoint.endpoint -->
<g id="edge_26" class="edge">
<title>[root] meta.count&#45;boundary (count boundary fixup)&#45;&gt;[root] azurerm_traffic_manager_endpoint.endpoint</title>
<path fill="none" stroke="#000000" d="M416.4101,-507.4733C413.2356,-506.2764 410.0662,-505.1038 407,-504 375.4521,-492.6434 340.1633,-480.9017 310.4256,-471.2796"/>
<polygon fill="#000000" stroke="#000000" points="311.1584,-467.8385 300.5669,-468.1013 309.0106,-474.5009 311.1584,-467.8385"/>
</g>
<!-- [root] meta.count&#45;boundary (count boundary fixup)&#45;&gt;[root] azurerm_virtual_machine_extension.ext -->
<g id="edge_27" class="edge">
<title>[root] meta.count&#45;boundary (count boundary fixup)&#45;&gt;[root] azurerm_virtual_machine_extension.ext</title>
<path fill="none" stroke="#000000" d="M453,-503.8314C453,-496.131 453,-486.9743 453,-478.4166"/>
<polygon fill="#000000" stroke="#000000" points="456.5001,-478.4132 453,-468.4133 449.5001,-478.4133 456.5001,-478.4132"/>
</g>
<!-- [root] output.dns_name -->
<g id="node_26" class="node">
<title>[root] output.dns_name</title>
<polygon fill="none" stroke="#000000" points="749,-378 749,-393 793,-393 793,-378 749,-378"/>
<text text-anchor="start" x="756.5977" y="-383.6" font-family="courier new" font-size="8.00" fill="#000000">output</text>
<polygon fill="none" stroke="#000000" points="749,-363 749,-378 793,-378 793,-363 749,-363"/>
<text text-anchor="start" x="751.7969" y="-368.6" font-family="courier new" font-size="8.00" fill="#000000">dns_name</text>
</g>
<!-- [root] meta.count&#45;boundary (count boundary fixup)&#45;&gt;[root] output.dns_name -->
<g id="edge_28" class="edge">
<title>[root] meta.count&#45;boundary (count boundary fixup)&#45;&gt;[root] output.dns_name</title>
<path fill="none" stroke="#000000" d="M489.7893,-505.3407C551.0889,-477.5824 673.4142,-422.1898 734.5127,-394.5225"/>
<polygon fill="#000000" stroke="#000000" points="736.1085,-397.6421 743.7742,-390.3287 733.2209,-391.2654 736.1085,-397.6421"/>
</g>
<!-- [root] output.dns_name&#45;&gt;[root] var.dns_name -->
<g id="edge_29" class="edge">
<title>[root] output.dns_name&#45;&gt;[root] var.dns_name</title>
<path fill="none" stroke="#000000" d="M798.2859,-372.6917C839.4825,-364.0604 914.4218,-345.7429 930,-324 939.3187,-310.9937 937.9829,-301.8663 930,-288 891.1819,-220.5731 800.9135,-185.9016 749.874,-171.099"/>
<polygon fill="#000000" stroke="#000000" points="750.789,-167.7207 740.216,-168.3996 748.9047,-174.4623 750.789,-167.7207"/>
</g>
<!-- [root] provider.azurerm (close) -->
<g id="node_27" class="node">
<title>[root] provider.azurerm (close)</title>
<polygon fill="none" stroke="#000000" points="349,-522 349,-537 393,-537 393,-522 349,-522"/>
<text text-anchor="start" x="351.7969" y="-527.6" font-family="courier new" font-size="8.00" fill="#000000">provider</text>
<polygon fill="none" stroke="#000000" points="349,-507 349,-522 393,-522 393,-507 349,-507"/>
<text text-anchor="start" x="354.1973" y="-512.6" font-family="courier new" font-size="8.00" fill="#000000">azurerm</text>
</g>
<!-- [root] provider.azurerm (close)&#45;&gt;[root] azurerm_traffic_manager_endpoint.endpoint -->
<g id="edge_30" class="edge">
<title>[root] provider.azurerm (close)&#45;&gt;[root] azurerm_traffic_manager_endpoint.endpoint</title>
<path fill="none" stroke="#000000" d="M343.8545,-506.7307C326.4175,-496.9223 303.4437,-483.9996 283.8276,-472.9655"/>
<polygon fill="#000000" stroke="#000000" points="285.5147,-469.8988 275.083,-468.0467 282.0828,-475.9999 285.5147,-469.8988"/>
</g>
<!-- [root] provider.azurerm (close)&#45;&gt;[root] azurerm_virtual_machine_extension.ext -->
<g id="edge_31" class="edge">
<title>[root] provider.azurerm (close)&#45;&gt;[root] azurerm_virtual_machine_extension.ext</title>
<path fill="none" stroke="#000000" d="M391.6921,-503.8314C401.6948,-495.0485 413.855,-484.3712 424.6999,-474.8489"/>
<polygon fill="#000000" stroke="#000000" points="427.1094,-477.3909 432.3146,-468.1628 422.4908,-472.1308 427.1094,-477.3909"/>
</g>
<!-- [root] root -->
<g id="node_28" class="node">
<title>[root] root</title>
<polygon fill="none" stroke="#000000" points="446.3089,-612 377.6911,-612 377.6911,-576 446.3089,-576 446.3089,-612"/>
<text text-anchor="middle" x="412" y="-592.1313" font-family="courier new" font-size="8.00" fill="#000000">[root] root</text>
</g>
<!-- [root] root&#45;&gt;[root] meta.count&#45;boundary (count boundary fixup) -->
<g id="edge_32" class="edge">
<title>[root] root&#45;&gt;[root] meta.count&#45;boundary (count boundary fixup)</title>
<path fill="none" stroke="#000000" d="M422.346,-575.8314C426.9237,-567.7925 432.4052,-558.1666 437.4588,-549.2918"/>
<polygon fill="#000000" stroke="#000000" points="440.6077,-550.8351 442.5147,-540.4133 434.5248,-547.3712 440.6077,-550.8351"/>
</g>
<!-- [root] root&#45;&gt;[root] provider.azurerm (close) -->
<g id="edge_33" class="edge">
<title>[root] root&#45;&gt;[root] provider.azurerm (close)</title>
<path fill="none" stroke="#000000" d="M401.654,-575.8314C397.0763,-567.7925 391.5948,-558.1666 386.5412,-549.2918"/>
<polygon fill="#000000" stroke="#000000" points="389.4752,-547.3712 381.4853,-540.4133 383.3923,-550.8351 389.4752,-547.3712"/>
</g>
</g>
</svg>

