<?xml version="1.0" encoding="UTF-8" standalone="no"?>
<!DOCTYPE svg PUBLIC "-//W3C//DTD SVG 1.1//EN"
 "http://www.w3.org/Graphics/SVG/1.1/DTD/svg11.dtd">
<!-- Generated by graphviz version 2.40.1 (20161225.0304)
 -->
<!-- Title: %3 Pages: 1 -->
<svg width="716pt" height="548pt"
 viewBox="0.00 0.00 716.00 548.00" xmlns="http://www.w3.org/2000/svg" xmlns:xlink="http://www.w3.org/1999/xlink">
<g id="graph0" class="graph" transform="scale(1 1) rotate(0) translate(4 544)">
<title>%3</title>
<polygon fill="#ffffff" stroke="transparent" points="-4,4 -4,-544 712,-544 712,4 -4,4"/>
<!-- [root] openstack_compute_floatingip_v2.terraform -->
<g id="node_0" class="node">
<title>[root] openstack_compute_floatingip_v2.terraform</title>
<polygon fill="none" stroke="#000000" points="128,-306 128,-321 282,-321 282,-306 128,-306"/>
<text text-anchor="start" x="130.5879" y="-311.6" font-family="courier new" font-size="8.00" fill="#000000">openstack_compute_floatingip_v2</text>
<polygon fill="none" stroke="#000000" points="128,-291 128,-306 282,-306 282,-291 128,-291"/>
<text text-anchor="start" x="183.3965" y="-296.6" font-family="courier new" font-size="8.00" fill="#000000">terraform</text>
</g>
<!-- [root] openstack_networking_router_interface_v2.terraform -->
<g id="node_5" class="node">
<title>[root] openstack_networking_router_interface_v2.terraform</title>
<polygon fill="none" stroke="#000000" points="13,-234 13,-249 211,-249 211,-234 13,-234"/>
<text text-anchor="start" x="15.9844" y="-239.6" font-family="courier new" font-size="8.00" fill="#000000">openstack_networking_router_interface_v2</text>
<polygon fill="none" stroke="#000000" points="13,-219 13,-234 211,-234 211,-219 13,-219"/>
<text text-anchor="start" x="90.3965" y="-224.6" font-family="courier new" font-size="8.00" fill="#000000">terraform</text>
</g>
<!-- [root] openstack_compute_floatingip_v2.terraform&#45;&gt;[root] openstack_networking_router_interface_v2.terraform -->
<g id="edge_2" class="edge">
<title>[root] openstack_compute_floatingip_v2.terraform&#45;&gt;[root] openstack_networking_router_interface_v2.terraform</title>
<path fill="none" stroke="#000000" d="M181.5322,-287.8314C169.9673,-278.8779 155.8596,-267.9558 143.3817,-258.2955"/>
<polygon fill="#000000" stroke="#000000" points="145.5102,-255.5171 135.4603,-252.1628 141.225,-261.0521 145.5102,-255.5171"/>
</g>
<!-- [root] var.pool -->
<g id="node_11" class="node">
<title>[root] var.pool</title>
<polygon fill="none" stroke="#000000" points="244,-234 244,-249 269,-249 269,-234 244,-234"/>
<text text-anchor="start" x="249.2988" y="-239.6" font-family="courier new" font-size="8.00" fill="#000000">var</text>
<polygon fill="none" stroke="#000000" points="244,-219 244,-234 269,-234 269,-219 244,-219"/>
<text text-anchor="start" x="246.8984" y="-224.6" font-family="courier new" font-size="8.00" fill="#000000">pool</text>
</g>
<!-- [root] openstack_compute_floatingip_v2.terraform&#45;&gt;[root] var.pool -->
<g id="edge_3" class="edge">
<title>[root] openstack_compute_floatingip_v2.terraform&#45;&gt;[root] var.pool</title>
<path fill="none" stroke="#000000" d="M217.8695,-287.8314C223.6835,-279.6232 230.6696,-269.7606 237.0646,-260.7323"/>
<polygon fill="#000000" stroke="#000000" points="240.0331,-262.5966 242.9573,-252.4133 234.321,-258.5505 240.0331,-262.5966"/>
</g>
<!-- [root] openstack_compute_instance_v2.terraform -->
<g id="node_1" class="node">
<title>[root] openstack_compute_instance_v2.terraform</title>
<polygon fill="none" stroke="#000000" points="396,-378 396,-393 541,-393 541,-378 396,-378"/>
<text text-anchor="start" x="398.8887" y="-383.6" font-family="courier new" font-size="8.00" fill="#000000">openstack_compute_instance_v2</text>
<polygon fill="none" stroke="#000000" points="396,-363 396,-378 541,-378 541,-363 396,-363"/>
<text text-anchor="start" x="446.8965" y="-368.6" font-family="courier new" font-size="8.00" fill="#000000">terraform</text>
</g>
<!-- [root] openstack_compute_instance_v2.terraform&#45;&gt;[root] openstack_compute_floatingip_v2.terraform -->
<g id="edge_4" class="edge">
<title>[root] openstack_compute_instance_v2.terraform&#45;&gt;[root] openstack_compute_floatingip_v2.terraform</title>
<path fill="none" stroke="#000000" d="M401.9735,-359.9243C365.2382,-349.8675 319.3508,-337.3052 281.1102,-326.8363"/>
<polygon fill="#000000" stroke="#000000" points="281.623,-323.3479 271.0537,-324.0831 279.7746,-330.0995 281.623,-323.3479"/>
</g>
<!-- [root] openstack_compute_keypair_v2.terraform -->
<g id="node_2" class="node">
<title>[root] openstack_compute_keypair_v2.terraform</title>
<polygon fill="none" stroke="#000000" points="300,-306 300,-321 440,-321 440,-306 300,-306"/>
<text text-anchor="start" x="302.7891" y="-311.6" font-family="courier new" font-size="8.00" fill="#000000">openstack_compute_keypair_v2</text>
<polygon fill="none" stroke="#000000" points="300,-291 300,-306 440,-306 440,-291 300,-291"/>
<text text-anchor="start" x="348.3965" y="-296.6" font-family="courier new" font-size="8.00" fill="#000000">terraform</text>
</g>
<!-- [root] openstack_compute_instance_v2.terraform&#45;&gt;[root] openstack_compute_keypair_v2.terraform -->
<g id="edge_5" class="edge">
<title>[root] openstack_compute_instance_v2.terraform&#45;&gt;[root] openstack_compute_keypair_v2.terraform</title>
<path fill="none" stroke="#000000" d="M443.2705,-359.8314C431.0838,-350.8779 416.2177,-339.9558 403.0688,-330.2955"/>
<polygon fill="#000000" stroke="#000000" points="404.8527,-327.263 394.7216,-324.1628 400.7082,-332.9042 404.8527,-327.263"/>
</g>
<!-- [root] openstack_compute_secgroup_v2.terraform -->
<g id="node_3" class="node">
<title>[root] openstack_compute_secgroup_v2.terraform</title>
<polygon fill="none" stroke="#000000" points="387,-162 387,-177 532,-177 532,-162 387,-162"/>
<text text-anchor="start" x="389.8887" y="-167.6" font-family="courier new" font-size="8.00" fill="#000000">openstack_compute_secgroup_v2</text>
<polygon fill="none" stroke="#000000" points="387,-147 387,-162 532,-162 532,-147 387,-147"/>
<text text-anchor="start" x="437.8965" y="-152.6" font-family="courier new" font-size="8.00" fill="#000000">terraform</text>
</g>
<!-- [root] openstack_compute_instance_v2.terraform&#45;&gt;[root] openstack_compute_secgroup_v2.terraform -->
<g id="edge_6" class="edge">
<title>[root] openstack_compute_instance_v2.terraform&#45;&gt;[root] openstack_compute_secgroup_v2.terraform</title>
<path fill="none" stroke="#000000" d="M467.2481,-359.9555C465.6831,-322.3938 462.0648,-235.5541 460.1838,-190.4103"/>
<polygon fill="#000000" stroke="#000000" points="463.6694,-189.9907 459.756,-180.1451 456.6755,-190.2821 463.6694,-189.9907"/>
</g>
<!-- [root] var.flavor -->
<g id="node_12" class="node">
<title>[root] var.flavor</title>
<polygon fill="none" stroke="#000000" points="506,-306 506,-321 540,-321 540,-306 506,-306"/>
<text text-anchor="start" x="515.7988" y="-311.6" font-family="courier new" font-size="8.00" fill="#000000">var</text>
<polygon fill="none" stroke="#000000" points="506,-291 506,-306 540,-306 540,-291 506,-291"/>
<text text-anchor="start" x="508.5977" y="-296.6" font-family="courier new" font-size="8.00" fill="#000000">flavor</text>
</g>
<!-- [root] openstack_compute_instance_v2.terraform&#45;&gt;[root] var.flavor -->
<g id="edge_7" class="edge">
<title>[root] openstack_compute_instance_v2.terraform&#45;&gt;[root] var.flavor</title>
<path fill="none" stroke="#000000" d="M481.8788,-359.8314C488.2136,-351.5386 495.8384,-341.557 502.7926,-332.4533"/>
<polygon fill="#000000" stroke="#000000" points="505.6452,-334.4847 508.9343,-324.4133 500.0825,-330.2353 505.6452,-334.4847"/>
</g>
<!-- [root] var.image -->
<g id="node_13" class="node">
<title>[root] var.image</title>
<polygon fill="none" stroke="#000000" points="580,-306 580,-321 610,-321 610,-306 580,-306"/>
<text text-anchor="start" x="587.7988" y="-311.6" font-family="courier new" font-size="8.00" fill="#000000">var</text>
<polygon fill="none" stroke="#000000" points="580,-291 580,-306 610,-306 610,-291 580,-291"/>
<text text-anchor="start" x="582.998" y="-296.6" font-family="courier new" font-size="8.00" fill="#000000">image</text>
</g>
<!-- [root] openstack_compute_instance_v2.terraform&#45;&gt;[root] var.image -->
<g id="edge_8" class="edge">
<title>[root] openstack_compute_instance_v2.terraform&#45;&gt;[root] var.image</title>
<path fill="none" stroke="#000000" d="M500.0475,-359.8314C517.9816,-349.664 540.3938,-336.9578 558.9396,-326.4437"/>
<polygon fill="#000000" stroke="#000000" points="560.7237,-329.4556 567.6968,-321.479 557.2714,-323.3661 560.7237,-329.4556"/>
</g>
<!-- [root] var.ssh_user_name -->
<g id="node_14" class="node">
<title>[root] var.ssh_user_name</title>
<polygon fill="none" stroke="#000000" points="640,-306 640,-321 708,-321 708,-306 640,-306"/>
<text text-anchor="start" x="666.7988" y="-311.6" font-family="courier new" font-size="8.00" fill="#000000">var</text>
<polygon fill="none" stroke="#000000" points="640,-291 640,-306 708,-306 708,-291 640,-291"/>
<text text-anchor="start" x="642.7949" y="-296.6" font-family="courier new" font-size="8.00" fill="#000000">ssh_user_name</text>
</g>
<!-- [root] openstack_compute_instance_v2.terraform&#45;&gt;[root] var.ssh_user_name -->
<g id="edge_9" class="edge">
<title>[root] openstack_compute_instance_v2.terraform&#45;&gt;[root] var.ssh_user_name</title>
<path fill="none" stroke="#000000" d="M526.0856,-359.9494C555.0503,-350.6717 590.7521,-338.823 630.2545,-324.1627"/>
<polygon fill="#000000" stroke="#000000" points="631.6866,-327.364 639.8268,-320.5825 629.2343,-320.8075 631.6866,-327.364"/>
</g>
<!-- [root] provider.openstack -->
<g id="node_8" class="node">
<title>[root] provider.openstack</title>
<polygon fill="none" stroke="#000000" points="271,-18 271,-33 320,-33 320,-18 271,-18"/>
<text text-anchor="start" x="276.2969" y="-23.6" font-family="courier new" font-size="8.00" fill="#000000">provider</text>
<polygon fill="none" stroke="#000000" points="271,-3 271,-18 320,-18 320,-3 271,-3"/>
<text text-anchor="start" x="273.8965" y="-8.6" font-family="courier new" font-size="8.00" fill="#000000">openstack</text>
</g>
<!-- [root] openstack_compute_keypair_v2.terraform&#45;&gt;[root] provider.openstack -->
<g id="edge_10" class="edge">
<title>[root] openstack_compute_keypair_v2.terraform&#45;&gt;[root] provider.openstack</title>
<path fill="none" stroke="#000000" d="M369.1952,-287.7547C366.9127,-247.5039 358.5026,-148.5895 329,-72 325.3351,-62.4858 319.9111,-52.8334 314.4665,-44.3717"/>
<polygon fill="#000000" stroke="#000000" points="317.3459,-42.3814 308.858,-36.0406 311.5391,-46.2906 317.3459,-42.3814"/>
</g>
<!-- [root] var.ssh_key_file -->
<g id="node_15" class="node">
<title>[root] var.ssh_key_file</title>
<polygon fill="none" stroke="#000000" points="377,-234 377,-249 440,-249 440,-234 377,-234"/>
<text text-anchor="start" x="401.2988" y="-239.6" font-family="courier new" font-size="8.00" fill="#000000">var</text>
<polygon fill="none" stroke="#000000" points="377,-219 377,-234 440,-234 440,-219 377,-219"/>
<text text-anchor="start" x="379.6953" y="-224.6" font-family="courier new" font-size="8.00" fill="#000000">ssh_key_file</text>
</g>
<!-- [root] openstack_compute_keypair_v2.terraform&#45;&gt;[root] var.ssh_key_file -->
<g id="edge_11" class="edge">
<title>[root] openstack_compute_keypair_v2.terraform&#45;&gt;[root] var.ssh_key_file</title>
<path fill="none" stroke="#000000" d="M379.589,-287.8314C383.8317,-279.7925 388.9121,-270.1666 393.596,-261.2918"/>
<polygon fill="#000000" stroke="#000000" points="396.7096,-262.8908 398.2819,-252.4133 390.5189,-259.6235 396.7096,-262.8908"/>
</g>
<!-- [root] openstack_compute_secgroup_v2.terraform&#45;&gt;[root] provider.openstack -->
<g id="edge_12" class="edge">
<title>[root] openstack_compute_secgroup_v2.terraform&#45;&gt;[root] provider.openstack</title>
<path fill="none" stroke="#000000" d="M440.0359,-143.6684C420.7392,-125.1917 389.7981,-96.0472 362,-72 350.5442,-62.09 337.653,-51.5593 326.2604,-42.4541"/>
<polygon fill="#000000" stroke="#000000" points="328.2781,-39.5869 318.2716,-36.1053 323.9229,-45.0672 328.2781,-39.5869"/>
</g>
<!-- [root] openstack_networking_network_v2.terraform -->
<g id="node_4" class="node">
<title>[root] openstack_networking_network_v2.terraform</title>
<polygon fill="none" stroke="#000000" points="166,-90 166,-105 320,-105 320,-90 166,-90"/>
<text text-anchor="start" x="168.5879" y="-95.6" font-family="courier new" font-size="8.00" fill="#000000">openstack_networking_network_v2</text>
<polygon fill="none" stroke="#000000" points="166,-75 166,-90 320,-90 320,-75 166,-75"/>
<text text-anchor="start" x="221.3965" y="-80.6" font-family="courier new" font-size="8.00" fill="#000000">terraform</text>
</g>
<!-- [root] openstack_networking_network_v2.terraform&#45;&gt;[root] provider.openstack -->
<g id="edge_13" class="edge">
<title>[root] openstack_networking_network_v2.terraform&#45;&gt;[root] provider.openstack</title>
<path fill="none" stroke="#000000" d="M256.1218,-71.8314C262.0499,-63.6232 269.1729,-53.7606 275.6933,-44.7323"/>
<polygon fill="#000000" stroke="#000000" points="278.684,-46.5693 281.7015,-36.4133 273.0092,-42.4708 278.684,-46.5693"/>
</g>
<!-- [root] openstack_networking_router_v2.terraform -->
<g id="node_6" class="node">
<title>[root] openstack_networking_router_v2.terraform</title>
<polygon fill="none" stroke="#000000" points="0,-162 0,-177 150,-177 150,-162 0,-162"/>
<text text-anchor="start" x="2.9883" y="-167.6" font-family="courier new" font-size="8.00" fill="#000000">openstack_networking_router_v2</text>
<polygon fill="none" stroke="#000000" points="0,-147 0,-162 150,-162 150,-147 0,-147"/>
<text text-anchor="start" x="53.3965" y="-152.6" font-family="courier new" font-size="8.00" fill="#000000">terraform</text>
</g>
<!-- [root] openstack_networking_router_interface_v2.terraform&#45;&gt;[root] openstack_networking_router_v2.terraform -->
<g id="edge_14" class="edge">
<title>[root] openstack_networking_router_interface_v2.terraform&#45;&gt;[root] openstack_networking_router_v2.terraform</title>
<path fill="none" stroke="#000000" d="M102.6633,-215.8314C98.5757,-207.8771 93.6896,-198.369 89.1691,-189.5723"/>
<polygon fill="#000000" stroke="#000000" points="92.1461,-187.7078 84.4624,-180.4133 85.9201,-190.9074 92.1461,-187.7078"/>
</g>
<!-- [root] openstack_networking_subnet_v2.terraform -->
<g id="node_7" class="node">
<title>[root] openstack_networking_subnet_v2.terraform</title>
<polygon fill="none" stroke="#000000" points="168,-162 168,-177 318,-177 318,-162 168,-162"/>
<text text-anchor="start" x="170.9883" y="-167.6" font-family="courier new" font-size="8.00" fill="#000000">openstack_networking_subnet_v2</text>
<polygon fill="none" stroke="#000000" points="168,-147 168,-162 318,-162 318,-147 168,-147"/>
<text text-anchor="start" x="221.3965" y="-152.6" font-family="courier new" font-size="8.00" fill="#000000">terraform</text>
</g>
<!-- [root] openstack_networking_router_interface_v2.terraform&#45;&gt;[root] openstack_networking_subnet_v2.terraform -->
<g id="edge_15" class="edge">
<title>[root] openstack_networking_router_interface_v2.terraform&#45;&gt;[root] openstack_networking_subnet_v2.terraform</title>
<path fill="none" stroke="#000000" d="M145.0568,-215.8314C161.9677,-206.5368 182.7385,-195.1208 200.7941,-185.1971"/>
<polygon fill="#000000" stroke="#000000" points="202.876,-188.0468 209.9537,-180.1628 199.5043,-181.9122 202.876,-188.0468"/>
</g>
<!-- [root] openstack_networking_router_v2.terraform&#45;&gt;[root] provider.openstack -->
<g id="edge_16" class="edge">
<title>[root] openstack_networking_router_v2.terraform&#45;&gt;[root] provider.openstack</title>
<path fill="none" stroke="#000000" d="M63.5746,-143.7564C52.814,-123.9942 40.5941,-92.5452 57,-72 81.6914,-41.0787 197.0532,-26.5322 257.629,-20.9266"/>
<polygon fill="#000000" stroke="#000000" points="258.2655,-24.384 267.9162,-20.012 257.6455,-17.4115 258.2655,-24.384"/>
</g>
<!-- [root] var.external_gateway -->
<g id="node_16" class="node">
<title>[root] var.external_gateway</title>
<polygon fill="none" stroke="#000000" points="66,-90 66,-105 148,-105 148,-90 66,-90"/>
<text text-anchor="start" x="99.7988" y="-95.6" font-family="courier new" font-size="8.00" fill="#000000">var</text>
<polygon fill="none" stroke="#000000" points="66,-75 66,-90 148,-90 148,-75 66,-75"/>
<text text-anchor="start" x="68.5938" y="-80.6" font-family="courier new" font-size="8.00" fill="#000000">external_gateway</text>
</g>
<!-- [root] openstack_networking_router_v2.terraform&#45;&gt;[root] var.external_gateway -->
<g id="edge_17" class="edge">
<title>[root] openstack_networking_router_v2.terraform&#45;&gt;[root] var.external_gateway</title>
<path fill="none" stroke="#000000" d="M83.075,-143.8314C86.6102,-135.8771 90.836,-126.369 94.7456,-117.5723"/>
<polygon fill="#000000" stroke="#000000" points="97.9532,-118.9729 98.8163,-108.4133 91.5565,-116.1299 97.9532,-118.9729"/>
</g>
<!-- [root] openstack_networking_subnet_v2.terraform&#45;&gt;[root] openstack_networking_network_v2.terraform -->
<g id="edge_18" class="edge">
<title>[root] openstack_networking_subnet_v2.terraform&#45;&gt;[root] openstack_networking_network_v2.terraform</title>
<path fill="none" stroke="#000000" d="M243,-143.8314C243,-136.131 243,-126.9743 243,-118.4166"/>
<polygon fill="#000000" stroke="#000000" points="246.5001,-118.4132 243,-108.4133 239.5001,-118.4133 246.5001,-118.4132"/>
</g>
<!-- [root] meta.count&#45;boundary (count boundary fixup) -->
<g id="node_9" class="node">
<title>[root] meta.count&#45;boundary (count boundary fixup)</title>
<polygon fill="none" stroke="#000000" points="304,-450 304,-465 377,-465 377,-450 304,-450"/>
<text text-anchor="start" x="330.8984" y="-455.6" font-family="courier new" font-size="8.00" fill="#000000">meta</text>
<polygon fill="none" stroke="#000000" points="304,-435 304,-450 377,-450 377,-435 304,-435"/>
<text text-anchor="start" x="306.8945" y="-440.6" font-family="courier new" font-size="8.00" fill="#000000">count&#45;boundary</text>
</g>
<!-- [root] meta.count&#45;boundary (count boundary fixup)&#45;&gt;[root] openstack_compute_instance_v2.terraform -->
<g id="edge_0" class="edge">
<title>[root] meta.count&#45;boundary (count boundary fixup)&#45;&gt;[root] openstack_compute_instance_v2.terraform</title>
<path fill="none" stroke="#000000" d="M372.2998,-431.8314C388.8234,-422.5368 409.1186,-411.1208 426.7607,-401.1971"/>
<polygon fill="#000000" stroke="#000000" points="428.7107,-404.116 435.7105,-396.1628 425.2788,-398.015 428.7107,-404.116"/>
</g>
<!-- [root] output.address -->
<g id="node_10" class="node">
<title>[root] output.address</title>
<polygon fill="none" stroke="#000000" points="303,-378 303,-393 342,-393 342,-378 303,-378"/>
<text text-anchor="start" x="308.0977" y="-383.6" font-family="courier new" font-size="8.00" fill="#000000">output</text>
<polygon fill="none" stroke="#000000" points="303,-363 303,-378 342,-378 342,-363 303,-363"/>
<text text-anchor="start" x="305.6973" y="-368.6" font-family="courier new" font-size="8.00" fill="#000000">address</text>
</g>
<!-- [root] meta.count&#45;boundary (count boundary fixup)&#45;&gt;[root] output.address -->
<g id="edge_1" class="edge">
<title>[root] meta.count&#45;boundary (count boundary fixup)&#45;&gt;[root] output.address</title>
<path fill="none" stroke="#000000" d="M335.4578,-431.8314C333.5116,-424.0463 331.1932,-414.7729 329.0337,-406.1347"/>
<polygon fill="#000000" stroke="#000000" points="332.4242,-405.2658 326.6033,-396.4133 325.6332,-406.9636 332.4242,-405.2658"/>
</g>
<!-- [root] output.address&#45;&gt;[root] openstack_compute_floatingip_v2.terraform -->
<g id="edge_19" class="edge">
<title>[root] output.address&#45;&gt;[root] openstack_compute_floatingip_v2.terraform</title>
<path fill="none" stroke="#000000" d="M294.8638,-361.3008C279.4577,-351.8201 259.9313,-339.8039 243.0188,-329.3962"/>
<polygon fill="#000000" stroke="#000000" points="244.7995,-326.3824 234.4485,-324.1222 241.1307,-332.344 244.7995,-326.3824"/>
</g>
<!-- [root] provider.openstack (close) -->
<g id="node_17" class="node">
<title>[root] provider.openstack (close)</title>
<polygon fill="none" stroke="#000000" points="398,-450 398,-465 447,-465 447,-450 398,-450"/>
<text text-anchor="start" x="403.2969" y="-455.6" font-family="courier new" font-size="8.00" fill="#000000">provider</text>
<polygon fill="none" stroke="#000000" points="398,-435 398,-450 447,-450 447,-435 398,-435"/>
<text text-anchor="start" x="400.8965" y="-440.6" font-family="courier new" font-size="8.00" fill="#000000">openstack</text>
</g>
<!-- [root] provider.openstack (close)&#45;&gt;[root] openstack_compute_instance_v2.terraform -->
<g id="edge_20" class="edge">
<title>[root] provider.openstack (close)&#45;&gt;[root] openstack_compute_instance_v2.terraform</title>
<path fill="none" stroke="#000000" d="M433.6077,-431.8314C438.7978,-423.7079 445.0232,-413.9637 450.7425,-405.0118"/>
<polygon fill="#000000" stroke="#000000" points="453.8015,-406.7246 456.236,-396.4133 447.9026,-402.9559 453.8015,-406.7246"/>
</g>
<!-- [root] provisioner.remote&#45;exec (close) -->
<g id="node_18" class="node">
<title>[root] provisioner.remote&#45;exec (close)</title>
<polygon fill="none" stroke="#000000" points="467,-450 467,-465 525,-465 525,-450 467,-450"/>
<text text-anchor="start" x="469.5957" y="-455.6" font-family="courier new" font-size="8.00" fill="#000000">provisioner</text>
<polygon fill="none" stroke="#000000" points="467,-435 467,-450 525,-450 525,-435 467,-435"/>
<text text-anchor="start" x="469.5957" y="-440.6" font-family="courier new" font-size="8.00" fill="#000000">remote&#45;exec</text>
</g>
<!-- [root] provisioner.remote&#45;exec (close)&#45;&gt;[root] openstack_compute_instance_v2.terraform -->
<g id="edge_21" class="edge">
<title>[root] provisioner.remote&#45;exec (close)&#45;&gt;[root] openstack_compute_instance_v2.terraform</title>
<path fill="none" stroke="#000000" d="M488.9344,-431.8314C485.874,-423.9617 482.2221,-414.5712 478.8318,-405.8533"/>
<polygon fill="#000000" stroke="#000000" points="482.0473,-404.4647 475.1607,-396.4133 475.5232,-407.0019 482.0473,-404.4647"/>
</g>
<!-- [root] root -->
<g id="node_19" class="node">
<title>[root] root</title>
<polygon fill="none" stroke="#000000" points="456.3089,-540 387.6911,-540 387.6911,-504 456.3089,-504 456.3089,-540"/>
<text text-anchor="middle" x="422" y="-520.1313" font-family="courier new" font-size="8.00" fill="#000000">[root] root</text>
</g>
<!-- [root] root&#45;&gt;[root] meta.count&#45;boundary (count boundary fixup) -->
<g id="edge_22" class="edge">
<title>[root] root&#45;&gt;[root] meta.count&#45;boundary (count boundary fixup)</title>
<path fill="none" stroke="#000000" d="M401.3079,-503.8314C391.3052,-495.0485 379.145,-484.3712 368.3001,-474.8489"/>
<polygon fill="#000000" stroke="#000000" points="370.5092,-472.1308 360.6854,-468.1628 365.8906,-477.3909 370.5092,-472.1308"/>
</g>
<!-- [root] root&#45;&gt;[root] provider.openstack (close) -->
<g id="edge_23" class="edge">
<title>[root] root&#45;&gt;[root] provider.openstack (close)</title>
<path fill="none" stroke="#000000" d="M422,-503.8314C422,-496.131 422,-486.9743 422,-478.4166"/>
<polygon fill="#000000" stroke="#000000" points="425.5001,-478.4132 422,-468.4133 418.5001,-478.4133 425.5001,-478.4132"/>
</g>
<!-- [root] root&#45;&gt;[root] provisioner.remote&#45;exec (close) -->
<g id="edge_24" class="edge">
<title>[root] root&#45;&gt;[root] provisioner.remote&#45;exec (close)</title>
<path fill="none" stroke="#000000" d="M440.6733,-503.8314C449.5249,-495.219 460.2486,-484.7851 469.8895,-475.4048"/>
<polygon fill="#000000" stroke="#000000" points="472.6061,-477.645 477.3326,-468.1628 467.7246,-472.6279 472.6061,-477.645"/>
</g>
</g>
</svg>

