<?xml version="1.0" encoding="UTF-8" standalone="no"?>
<!DOCTYPE svg PUBLIC "-//W3C//DTD SVG 1.1//EN"
 "http://www.w3.org/Graphics/SVG/1.1/DTD/svg11.dtd">
<!-- Generated by graphviz version 2.40.1 (20161225.0304)
 -->
<!-- Title: %3 Pages: 1 -->
<svg width="686pt" height="548pt"
 viewBox="0.00 0.00 686.00 548.00" xmlns="http://www.w3.org/2000/svg" xmlns:xlink="http://www.w3.org/1999/xlink">
<g id="graph0" class="graph" transform="scale(1 1) rotate(0) translate(4 544)">
<title>%3</title>
<polygon fill="#ffffff" stroke="transparent" points="-4,4 -4,-544 682,-544 682,4 -4,4"/>
<g id="clust2" class="cluster">
<title>cluster[root] openstack_compute_floatingip_v2.terraform_var_</title>
</g>
<g id="clust3" class="cluster">
<title>cluster[root] openstack_compute_instance_v2.terraform_var_</title>
</g>
<g id="clust4" class="cluster">
<title>cluster[root] openstack_compute_keypair_v2.terraform_var_</title>
</g>
<g id="clust5" class="cluster">
<title>cluster[root] openstack_networking_router_v2.terraform_var_</title>
</g>
<g id="clust6" class="cluster">
<title>cluster[root] meta.count&#45;boundary (count boundary fixup)_output_[root] openstack_compute_floatingip_v2.terraform</title>
</g>
<!-- [root] openstack_compute_floatingip_v2.terraform -->
<g id="node_0" class="node">
<title>[root] openstack_compute_floatingip_v2.terraform</title>
<polygon fill="none" stroke="#000000" points="102,-306 102,-321 256,-321 256,-306 102,-306"/>
<text text-anchor="start" x="104.5879" y="-311.6" font-family="courier new" font-size="8.00" fill="#000000">openstack_compute_floatingip_v2</text>
<polygon fill="none" stroke="#000000" points="102,-291 102,-306 256,-306 256,-291 102,-291"/>
<text text-anchor="start" x="157.3965" y="-296.6" font-family="courier new" font-size="8.00" fill="#000000">terraform</text>
</g>
<!-- [root] openstack_networking_router_interface_v2.terraform -->
<g id="node_5" class="node">
<title>[root] openstack_networking_router_interface_v2.terraform</title>
<polygon fill="none" stroke="#000000" points="88,-234 88,-249 286,-249 286,-234 88,-234"/>
<text text-anchor="start" x="90.9844" y="-239.6" font-family="courier new" font-size="8.00" fill="#000000">openstack_networking_router_interface_v2</text>
<polygon fill="none" stroke="#000000" points="88,-219 88,-234 286,-234 286,-219 88,-219"/>
<text text-anchor="start" x="165.3965" y="-224.6" font-family="courier new" font-size="8.00" fill="#000000">terraform</text>
</g>
<!-- [root] openstack_compute_floatingip_v2.terraform&#45;&gt;[root] openstack_networking_router_interface_v2.terraform -->
<g id="edge_2" class="edge">
<title>[root] openstack_compute_floatingip_v2.terraform&#45;&gt;[root] openstack_networking_router_interface_v2.terraform</title>
<path fill="none" stroke="#000000" d="M181.0187,-287.8314C181.8743,-280.131 182.8917,-270.9743 183.8426,-262.4166"/>
<polygon fill="#000000" stroke="#000000" points="187.3283,-262.7386 184.9541,-252.4133 180.3711,-261.9656 187.3283,-262.7386"/>
</g>
<!-- [root] var.pool -->
<g id="node_11" class="node">
<title>[root] var.pool</title>
<polygon fill="none" stroke="#000000" points="31,-234 31,-249 56,-249 56,-234 31,-234"/>
<text text-anchor="start" x="36.2988" y="-239.6" font-family="courier new" font-size="8.00" fill="#000000">var</text>
<polygon fill="none" stroke="#000000" points="31,-219 31,-234 56,-234 56,-219 31,-219"/>
<text text-anchor="start" x="33.8984" y="-224.6" font-family="courier new" font-size="8.00" fill="#000000">pool</text>
</g>
<!-- [root] openstack_compute_floatingip_v2.terraform&#45;&gt;[root] var.pool -->
<g id="edge_3" class="edge">
<title>[root] openstack_compute_floatingip_v2.terraform&#45;&gt;[root] var.pool</title>
<path fill="none" stroke="#000000" d="M134.7529,-287.8656C117.0268,-280.0342 96.6597,-270.3071 79,-260 77.7099,-259.247 76.4089,-258.4591 75.106,-257.6459"/>
<polygon fill="#000000" stroke="#000000" points="76.8491,-254.6027 66.5758,-252.0125 72.9916,-260.4439 76.8491,-254.6027"/>
</g>
<!-- [root] openstack_compute_instance_v2.terraform -->
<g id="node_1" class="node">
<title>[root] openstack_compute_instance_v2.terraform</title>
<polygon fill="none" stroke="#000000" points="272,-378 272,-393 417,-393 417,-378 272,-378"/>
<text text-anchor="start" x="274.8887" y="-383.6" font-family="courier new" font-size="8.00" fill="#000000">openstack_compute_instance_v2</text>
<polygon fill="none" stroke="#000000" points="272,-363 272,-378 417,-378 417,-363 272,-363"/>
<text text-anchor="start" x="322.8965" y="-368.6" font-family="courier new" font-size="8.00" fill="#000000">terraform</text>
</g>
<!-- [root] openstack_compute_instance_v2.terraform&#45;&gt;[root] openstack_compute_floatingip_v2.terraform -->
<g id="edge_4" class="edge">
<title>[root] openstack_compute_instance_v2.terraform&#45;&gt;[root] openstack_compute_floatingip_v2.terraform</title>
<path fill="none" stroke="#000000" d="M302.3635,-359.8314C280.2958,-350.2018 253.0093,-338.295 229.7143,-328.1299"/>
<polygon fill="#000000" stroke="#000000" points="230.9023,-324.8296 220.3371,-324.038 228.1026,-331.2454 230.9023,-324.8296"/>
</g>
<!-- [root] openstack_compute_keypair_v2.terraform -->
<g id="node_2" class="node">
<title>[root] openstack_compute_keypair_v2.terraform</title>
<polygon fill="none" stroke="#000000" points="274,-306 274,-321 414,-321 414,-306 274,-306"/>
<text text-anchor="start" x="276.7891" y="-311.6" font-family="courier new" font-size="8.00" fill="#000000">openstack_compute_keypair_v2</text>
<polygon fill="none" stroke="#000000" points="274,-291 274,-306 414,-306 414,-291 274,-291"/>
<text text-anchor="start" x="322.3965" y="-296.6" font-family="courier new" font-size="8.00" fill="#000000">terraform</text>
</g>
<!-- [root] openstack_compute_instance_v2.terraform&#45;&gt;[root] openstack_compute_keypair_v2.terraform -->
<g id="edge_5" class="edge">
<title>[root] openstack_compute_instance_v2.terraform&#45;&gt;[root] openstack_compute_keypair_v2.terraform</title>
<path fill="none" stroke="#000000" d="M344,-359.8314C344,-352.131 344,-342.9743 344,-334.4166"/>
<polygon fill="#000000" stroke="#000000" points="347.5001,-334.4132 344,-324.4133 340.5001,-334.4133 347.5001,-334.4132"/>
</g>
<!-- [root] openstack_compute_secgroup_v2.terraform -->
<g id="node_3" class="node">
<title>[root] openstack_compute_secgroup_v2.terraform</title>
<polygon fill="none" stroke="#000000" points="433,-306 433,-321 578,-321 578,-306 433,-306"/>
<text text-anchor="start" x="435.8887" y="-311.6" font-family="courier new" font-size="8.00" fill="#000000">openstack_compute_secgroup_v2</text>
<polygon fill="none" stroke="#000000" points="433,-291 433,-306 578,-306 578,-291 433,-291"/>
<text text-anchor="start" x="483.8965" y="-296.6" font-family="courier new" font-size="8.00" fill="#000000">terraform</text>
</g>
<!-- [root] openstack_compute_instance_v2.terraform&#45;&gt;[root] openstack_compute_secgroup_v2.terraform -->
<g id="edge_6" class="edge">
<title>[root] openstack_compute_instance_v2.terraform&#45;&gt;[root] openstack_compute_secgroup_v2.terraform</title>
<path fill="none" stroke="#000000" d="M384.6271,-359.8314C406.1599,-350.2018 432.7849,-338.295 455.5152,-328.1299"/>
<polygon fill="#000000" stroke="#000000" points="456.9652,-331.3155 464.665,-324.038 454.1074,-324.9254 456.9652,-331.3155"/>
</g>
<!-- [root] var.flavor -->
<g id="node_12" class="node">
<title>[root] var.flavor</title>
<polygon fill="none" stroke="#000000" points="607,-306 607,-321 641,-321 641,-306 607,-306"/>
<text text-anchor="start" x="616.7988" y="-311.6" font-family="courier new" font-size="8.00" fill="#000000">var</text>
<polygon fill="none" stroke="#000000" points="607,-291 607,-306 641,-306 641,-291 607,-291"/>
<text text-anchor="start" x="609.5977" y="-296.6" font-family="courier new" font-size="8.00" fill="#000000">flavor</text>
</g>
<!-- [root] openstack_compute_instance_v2.terraform&#45;&gt;[root] var.flavor -->
<g id="edge_7" class="edge">
<title>[root] openstack_compute_instance_v2.terraform&#45;&gt;[root] var.flavor</title>
<path fill="none" stroke="#000000" d="M416.5021,-372.3905C466.0714,-366.629 532.4203,-355.0638 587,-332 588.8441,-331.2207 590.688,-330.3387 592.5133,-329.3822"/>
<polygon fill="#000000" stroke="#000000" points="594.5869,-332.2217 601.4012,-324.109 591.0151,-326.2015 594.5869,-332.2217"/>
</g>
<!-- [root] provider.openstack -->
<g id="node_8" class="node">
<title>[root] provider.openstack</title>
<polygon fill="none" stroke="#000000" points="358,-18 358,-33 407,-33 407,-18 358,-18"/>
<text text-anchor="start" x="363.2969" y="-23.6" font-family="courier new" font-size="8.00" fill="#000000">provider</text>
<polygon fill="none" stroke="#000000" points="358,-3 358,-18 407,-18 407,-3 358,-3"/>
<text text-anchor="start" x="360.8965" y="-8.6" font-family="courier new" font-size="8.00" fill="#000000">openstack</text>
</g>
<!-- [root] openstack_compute_keypair_v2.terraform&#45;&gt;[root] provider.openstack -->
<g id="edge_10" class="edge">
<title>[root] openstack_compute_keypair_v2.terraform&#45;&gt;[root] provider.openstack</title>
<path fill="none" stroke="#000000" d="M364.9747,-287.9258C373.0891,-280.0328 381.8768,-270.245 388,-260 407.1801,-227.9087 407.5741,-216.8298 414,-180 422.8626,-129.2041 432.1346,-112.9739 416,-64 413.7452,-57.1558 410.0369,-50.4958 405.8804,-44.4655"/>
<polygon fill="#000000" stroke="#000000" points="408.4068,-42.0031 399.5869,-36.1327 402.8209,-46.2219 408.4068,-42.0031"/>
</g>
<!-- [root] var.ssh_key_file -->
<g id="node_15" class="node">
<title>[root] var.ssh_key_file</title>
<polygon fill="none" stroke="#000000" points="313,-234 313,-249 376,-249 376,-234 313,-234"/>
<text text-anchor="start" x="337.2988" y="-239.6" font-family="courier new" font-size="8.00" fill="#000000">var</text>
<polygon fill="none" stroke="#000000" points="313,-219 313,-234 376,-234 376,-219 313,-219"/>
<text text-anchor="start" x="315.6953" y="-224.6" font-family="courier new" font-size="8.00" fill="#000000">ssh_key_file</text>
</g>
<!-- [root] openstack_compute_keypair_v2.terraform&#45;&gt;[root] var.ssh_key_file -->
<g id="edge_11" class="edge">
<title>[root] openstack_compute_keypair_v2.terraform&#45;&gt;[root] var.ssh_key_file</title>
<path fill="none" stroke="#000000" d="M344,-287.8314C344,-280.131 344,-270.9743 344,-262.4166"/>
<polygon fill="#000000" stroke="#000000" points="347.5001,-262.4132 344,-252.4133 340.5001,-262.4133 347.5001,-262.4132"/>
</g>
<!-- [root] openstack_compute_secgroup_v2.terraform&#45;&gt;[root] provider.openstack -->
<g id="edge_12" class="edge">
<title>[root] openstack_compute_secgroup_v2.terraform&#45;&gt;[root] provider.openstack</title>
<path fill="none" stroke="#000000" d="M503.149,-287.8913C498.1309,-245.6366 481.3095,-138.4694 434,-64 429.1687,-56.3951 422.7253,-49.3094 416.0232,-43.0881"/>
<polygon fill="#000000" stroke="#000000" points="417.9573,-40.1312 408.1177,-36.2026 413.3598,-45.4098 417.9573,-40.1312"/>
</g>
<!-- [root] openstack_networking_network_v2.terraform -->
<g id="node_4" class="node">
<title>[root] openstack_networking_network_v2.terraform</title>
<polygon fill="none" stroke="#000000" points="253,-90 253,-105 407,-105 407,-90 253,-90"/>
<text text-anchor="start" x="255.5879" y="-95.6" font-family="courier new" font-size="8.00" fill="#000000">openstack_networking_network_v2</text>
<polygon fill="none" stroke="#000000" points="253,-75 253,-90 407,-90 407,-75 253,-75"/>
<text text-anchor="start" x="308.3965" y="-80.6" font-family="courier new" font-size="8.00" fill="#000000">terraform</text>
</g>
<!-- [root] openstack_networking_network_v2.terraform&#45;&gt;[root] provider.openstack -->
<g id="edge_13" class="edge">
<title>[root] openstack_networking_network_v2.terraform&#45;&gt;[root] provider.openstack</title>
<path fill="none" stroke="#000000" d="M343.1218,-71.8314C349.0499,-63.6232 356.1729,-53.7606 362.6933,-44.7323"/>
<polygon fill="#000000" stroke="#000000" points="365.684,-46.5693 368.7015,-36.4133 360.0092,-42.4708 365.684,-46.5693"/>
</g>
<!-- [root] openstack_networking_router_v2.terraform -->
<g id="node_6" class="node">
<title>[root] openstack_networking_router_v2.terraform</title>
<polygon fill="none" stroke="#000000" points="87,-162 87,-177 237,-177 237,-162 87,-162"/>
<text text-anchor="start" x="89.9883" y="-167.6" font-family="courier new" font-size="8.00" fill="#000000">openstack_networking_router_v2</text>
<polygon fill="none" stroke="#000000" points="87,-147 87,-162 237,-162 237,-147 87,-147"/>
<text text-anchor="start" x="140.3965" y="-152.6" font-family="courier new" font-size="8.00" fill="#000000">terraform</text>
</g>
<!-- [root] openstack_networking_router_interface_v2.terraform&#45;&gt;[root] openstack_networking_router_v2.terraform -->
<g id="edge_14" class="edge">
<title>[root] openstack_networking_router_interface_v2.terraform&#45;&gt;[root] openstack_networking_router_v2.terraform</title>
<path fill="none" stroke="#000000" d="M180.6914,-215.8314C177.9883,-208.0463 174.7684,-198.7729 171.769,-190.1347"/>
<polygon fill="#000000" stroke="#000000" points="174.98,-188.7119 168.3935,-180.4133 168.3673,-191.0081 174.98,-188.7119"/>
</g>
<!-- [root] openstack_networking_subnet_v2.terraform -->
<g id="node_7" class="node">
<title>[root] openstack_networking_subnet_v2.terraform</title>
<polygon fill="none" stroke="#000000" points="255,-162 255,-177 405,-177 405,-162 255,-162"/>
<text text-anchor="start" x="257.9883" y="-167.6" font-family="courier new" font-size="8.00" fill="#000000">openstack_networking_subnet_v2</text>
<polygon fill="none" stroke="#000000" points="255,-147 255,-162 405,-162 405,-147 255,-147"/>
<text text-anchor="start" x="308.3965" y="-152.6" font-family="courier new" font-size="8.00" fill="#000000">terraform</text>
</g>
<!-- [root] openstack_networking_router_interface_v2.terraform&#45;&gt;[root] openstack_networking_subnet_v2.terraform -->
<g id="edge_15" class="edge">
<title>[root] openstack_networking_router_interface_v2.terraform&#45;&gt;[root] openstack_networking_subnet_v2.terraform</title>
<path fill="none" stroke="#000000" d="M223.0849,-215.8314C241.7989,-206.4089 264.8432,-194.8062 284.74,-184.7883"/>
<polygon fill="#000000" stroke="#000000" points="286.5689,-187.7861 293.9266,-180.1628 283.4208,-181.5339 286.5689,-187.7861"/>
</g>
<!-- [root] openstack_networking_router_v2.terraform&#45;&gt;[root] provider.openstack -->
<g id="edge_16" class="edge">
<title>[root] openstack_networking_router_v2.terraform&#45;&gt;[root] provider.openstack</title>
<path fill="none" stroke="#000000" d="M182.5832,-143.5984C191.1564,-135.5022 200.9641,-125.6519 209,-116 226.825,-94.5905 221.8233,-80.8609 244,-64 273.7624,-41.3717 315.2531,-29.5315 344.9537,-23.5694"/>
<polygon fill="#000000" stroke="#000000" points="345.7459,-26.9819 354.9289,-21.6977 344.4549,-20.102 345.7459,-26.9819"/>
</g>
<!-- [root] var.external_gateway -->
<g id="node_16" class="node">
<title>[root] var.external_gateway</title>
<polygon fill="none" stroke="#000000" points="115,-90 115,-105 197,-105 197,-90 115,-90"/>
<text text-anchor="start" x="148.7988" y="-95.6" font-family="courier new" font-size="8.00" fill="#000000">var</text>
<polygon fill="none" stroke="#000000" points="115,-75 115,-90 197,-90 197,-75 115,-75"/>
<text text-anchor="start" x="117.5938" y="-80.6" font-family="courier new" font-size="8.00" fill="#000000">external_gateway</text>
</g>
<!-- [root] openstack_networking_router_v2.terraform&#45;&gt;[root] var.external_gateway -->
<g id="edge_17" class="edge">
<title>[root] openstack_networking_router_v2.terraform&#45;&gt;[root] var.external_gateway</title>
<path fill="none" stroke="#000000" d="M160.4859,-143.8314C159.8442,-136.131 159.0812,-126.9743 158.3681,-118.4166"/>
<polygon fill="#000000" stroke="#000000" points="161.8529,-118.088 157.5344,-108.4133 154.8771,-118.6694 161.8529,-118.088"/>
</g>
<!-- [root] openstack_networking_subnet_v2.terraform&#45;&gt;[root] openstack_networking_network_v2.terraform -->
<g id="edge_18" class="edge">
<title>[root] openstack_networking_subnet_v2.terraform&#45;&gt;[root] openstack_networking_network_v2.terraform</title>
<path fill="none" stroke="#000000" d="M330,-143.8314C330,-136.131 330,-126.9743 330,-118.4166"/>
<polygon fill="#000000" stroke="#000000" points="333.5001,-118.4132 330,-108.4133 326.5001,-118.4133 333.5001,-118.4132"/>
</g>
<!-- [root] meta.count&#45;boundary (count boundary fixup) -->
<g id="node_9" class="node">
<title>[root] meta.count&#45;boundary (count boundary fixup)</title>
<polygon fill="none" stroke="#000000" points="189,-450 189,-465 262,-465 262,-450 189,-450"/>
<text text-anchor="start" x="215.8984" y="-455.6" font-family="courier new" font-size="8.00" fill="#000000">meta</text>
<polygon fill="none" stroke="#000000" points="189,-435 189,-450 262,-450 262,-435 189,-435"/>
<text text-anchor="start" x="191.8945" y="-440.6" font-family="courier new" font-size="8.00" fill="#000000">count&#45;boundary</text>
</g>
<!-- [root] meta.count&#45;boundary (count boundary fixup)&#45;&gt;[root] openstack_compute_instance_v2.terraform -->
<g id="edge_0" class="edge">
<title>[root] meta.count&#45;boundary (count boundary fixup)&#45;&gt;[root] openstack_compute_instance_v2.terraform</title>
<path fill="none" stroke="#000000" d="M255.0287,-431.8314C270.2496,-422.6221 288.9128,-411.3301 305.2083,-401.4706"/>
<polygon fill="#000000" stroke="#000000" points="307.2369,-404.3341 313.9809,-396.1628 303.6132,-398.345 307.2369,-404.3341"/>
</g>
<!-- [root] output.address -->
<g id="node_10" class="node">
<title>[root] output.address</title>
<polygon fill="none" stroke="#000000" points="183,-378 183,-393 222,-393 222,-378 183,-378"/>
<text text-anchor="start" x="188.0977" y="-383.6" font-family="courier new" font-size="8.00" fill="#000000">output</text>
<polygon fill="none" stroke="#000000" points="183,-363 183,-378 222,-378 222,-363 183,-363"/>
<text text-anchor="start" x="185.6973" y="-368.6" font-family="courier new" font-size="8.00" fill="#000000">address</text>
</g>
<!-- [root] meta.count&#45;boundary (count boundary fixup)&#45;&gt;[root] output.address -->
<g id="edge_1" class="edge">
<title>[root] meta.count&#45;boundary (count boundary fixup)&#45;&gt;[root] output.address</title>
<path fill="none" stroke="#000000" d="M219.1961,-431.8314C216.7092,-424.0463 213.7469,-414.7729 210.9875,-406.1347"/>
<polygon fill="#000000" stroke="#000000" points="214.2591,-404.874 207.882,-396.4133 207.591,-407.0041 214.2591,-404.874"/>
</g>
<!-- [root] provider.openstack (close) -->
<g id="node_17" class="node">
<title>[root] provider.openstack (close)</title>
<polygon fill="none" stroke="#000000" points="283,-450 283,-465 332,-465 332,-450 283,-450"/>
<text text-anchor="start" x="288.2969" y="-455.6" font-family="courier new" font-size="8.00" fill="#000000">provider</text>
<polygon fill="none" stroke="#000000" points="283,-435 283,-450 332,-450 332,-435 283,-435"/>
<text text-anchor="start" x="285.8965" y="-440.6" font-family="courier new" font-size="8.00" fill="#000000">openstack</text>
</g>
<!-- [root] provider.openstack (close)&#45;&gt;[root] openstack_compute_instance_v2.terraform -->
<g id="edge_20" class="edge">
<title>[root] provider.openstack (close)&#45;&gt;[root] openstack_compute_instance_v2.terraform</title>
<path fill="none" stroke="#000000" d="M316.3367,-431.8314C320.4243,-423.8771 325.3104,-414.369 329.8309,-405.5723"/>
<polygon fill="#000000" stroke="#000000" points="333.0799,-406.9074 334.5376,-396.4133 326.8539,-403.7078 333.0799,-406.9074"/>
</g>
<!-- [root] provisioner.remote&#45;exec (close) -->
<g id="node_18" class="node">
<title>[root] provisioner.remote&#45;exec (close)</title>
<polygon fill="none" stroke="#000000" points="352,-450 352,-465 410,-465 410,-450 352,-450"/>
<text text-anchor="start" x="354.5957" y="-455.6" font-family="courier new" font-size="8.00" fill="#000000">provisioner</text>
<polygon fill="none" stroke="#000000" points="352,-435 352,-450 410,-450 410,-435 352,-435"/>
<text text-anchor="start" x="354.5957" y="-440.6" font-family="courier new" font-size="8.00" fill="#000000">remote&#45;exec</text>
</g>
<!-- [root] provisioner.remote&#45;exec (close)&#45;&gt;[root] openstack_compute_instance_v2.terraform -->
<g id="edge_21" class="edge">
<title>[root] provisioner.remote&#45;exec (close)&#45;&gt;[root] openstack_compute_instance_v2.terraform</title>
<path fill="none" stroke="#000000" d="M371.6633,-431.8314C367.5757,-423.8771 362.6896,-414.369 358.1691,-405.5723"/>
<polygon fill="#000000" stroke="#000000" points="361.1461,-403.7078 353.4624,-396.4133 354.9201,-406.9074 361.1461,-403.7078"/>
</g>
<!-- [root] root -->
<g id="node_19" class="node">
<title>[root] root</title>
<polygon fill="none" stroke="#000000" points="341.3089,-540 272.6911,-540 272.6911,-504 341.3089,-504 341.3089,-540"/>
<text text-anchor="middle" x="307" y="-520.1313" font-family="courier new" font-size="8.00" fill="#000000">[root] root</text>
</g>
<!-- [root] root&#45;&gt;[root] meta.count&#45;boundary (count boundary fixup) -->
<g id="edge_22" class="edge">
<title>[root] root&#45;&gt;[root] meta.count&#45;boundary (count boundary fixup)</title>
<path fill="none" stroke="#000000" d="M286.3079,-503.8314C276.3052,-495.0485 264.145,-484.3712 253.3001,-474.8489"/>
<polygon fill="#000000" stroke="#000000" points="255.5092,-472.1308 245.6854,-468.1628 250.8906,-477.3909 255.5092,-472.1308"/>
</g>
<!-- [root] root&#45;&gt;[root] provider.openstack (close) -->
<g id="edge_23" class="edge">
<title>[root] root&#45;&gt;[root] provider.openstack (close)</title>
<path fill="none" stroke="#000000" d="M307,-503.8314C307,-496.131 307,-486.9743 307,-478.4166"/>
<polygon fill="#000000" stroke="#000000" points="310.5001,-478.4132 307,-468.4133 303.5001,-478.4133 310.5001,-478.4132"/>
</g>
<!-- [root] root&#45;&gt;[root] provisioner.remote&#45;exec (close) -->
<g id="edge_24" class="edge">
<title>[root] root&#45;&gt;[root] provisioner.remote&#45;exec (close)</title>
<path fill="none" stroke="#000000" d="M325.6733,-503.8314C334.5249,-495.219 345.2486,-484.7851 354.8895,-475.4048"/>
<polygon fill="#000000" stroke="#000000" points="357.6061,-477.645 362.3326,-468.1628 352.7246,-472.6279 357.6061,-477.645"/>
</g>
<!-- [root] var.image -->
<g id="node_13" class="node">
<title>[root] var.image</title>
<polygon fill="none" stroke="#000000" points="611,-234 611,-249 641,-249 641,-234 611,-234"/>
<text text-anchor="start" x="618.7988" y="-239.6" font-family="courier new" font-size="8.00" fill="#000000">var</text>
<polygon fill="none" stroke="#000000" points="611,-219 611,-234 641,-234 641,-219 611,-219"/>
<text text-anchor="start" x="613.998" y="-224.6" font-family="courier new" font-size="8.00" fill="#000000">image</text>
</g>
<!-- [root] var.flavor&#45;&gt;[root] var.image -->
<g id="edge_25" class="edge">
<title>[root] var.flavor&#45;&gt;[root] var.image</title>
<path fill="none" stroke="#000000" stroke-dasharray="5,2" d="M624.5047,-287.8314C624.8056,-277 625.1865,-263.2876 625.4885,-252.4133"/>
</g>
<!-- [root] var.ssh_user_name -->
<g id="node_14" class="node">
<title>[root] var.ssh_user_name</title>
<polygon fill="none" stroke="#000000" points="594,-162 594,-177 662,-177 662,-162 594,-162"/>
<text text-anchor="start" x="620.7988" y="-167.6" font-family="courier new" font-size="8.00" fill="#000000">var</text>
<polygon fill="none" stroke="#000000" points="594,-147 594,-162 662,-162 662,-147 594,-147"/>
<text text-anchor="start" x="596.7949" y="-152.6" font-family="courier new" font-size="8.00" fill="#000000">ssh_user_name</text>
</g>
<!-- [root] var.image&#45;&gt;[root] var.ssh_user_name -->
<g id="edge_26" class="edge">
<title>[root] var.image&#45;&gt;[root] var.ssh_user_name</title>
<path fill="none" stroke="#000000" stroke-dasharray="5,2" d="M626.5047,-215.8314C626.8056,-205 627.1865,-191.2876 627.4885,-180.4133"/>
</g>
<!-- [root] output.address&#45;&gt;[root] openstack_compute_floatingip_v2.terraform -->
<g id="edge_19" class="edge">
<title>[root] output.address&#45;&gt;[root] openstack_compute_floatingip_v2.terraform</title>
<path fill="none" stroke="#000000" d="M196.1961,-359.8314C193.7092,-352.0463 190.7469,-342.7729 187.9875,-334.1347"/>
<polygon fill="#000000" stroke="#000000" points="191.2591,-332.874 184.882,-324.4133 184.591,-335.0041 191.2591,-332.874"/>
</g>
</g>
</svg>

