<?xml version="1.0" encoding="UTF-8" standalone="no"?>
<!DOCTYPE svg PUBLIC "-//W3C//DTD SVG 1.1//EN"
 "http://www.w3.org/Graphics/SVG/1.1/DTD/svg11.dtd">
<!-- Generated by graphviz version 2.40.1 (20161225.0304)
 -->
<!-- Title: %3 Pages: 1 -->
<svg width="836pt" height="476pt"
 viewBox="0.00 0.00 835.79 476.00" xmlns="http://www.w3.org/2000/svg" xmlns:xlink="http://www.w3.org/1999/xlink">
<g id="graph0" class="graph" transform="scale(1 1) rotate(0) translate(4 472)">
<title>%3</title>
<polygon fill="#ffffff" stroke="transparent" points="-4,4 -4,-472 831.7882,-472 831.7882,4 -4,4"/>
<!-- [root] aws_db_instance.default -->
<g id="node_0" class="node">
<title>[root] aws_db_instance.default</title>
<polygon fill="none" stroke="#000000" points="437,-234 437,-249 515,-249 515,-234 437,-234"/>
<text text-anchor="start" x="439.9941" y="-239.6" font-family="courier new" font-size="8.00" fill="#000000">aws_db_instance</text>
<polygon fill="none" stroke="#000000" points="437,-219 437,-234 515,-234 515,-219 437,-219"/>
<text text-anchor="start" x="459.1973" y="-224.6" font-family="courier new" font-size="8.00" fill="#000000">default</text>
</g>
<!-- [root] aws_db_subnet_group.default -->
<g id="node_1" class="node">
<title>[root] aws_db_subnet_group.default</title>
<polygon fill="none" stroke="#000000" points="98,-162 98,-177 195,-177 195,-162 98,-162"/>
<text text-anchor="start" x="100.8926" y="-167.6" font-family="courier new" font-size="8.00" fill="#000000">aws_db_subnet_group</text>
<polygon fill="none" stroke="#000000" points="98,-147 98,-162 195,-162 195,-147 98,-147"/>
<text text-anchor="start" x="129.6973" y="-152.6" font-family="courier new" font-size="8.00" fill="#000000">default</text>
</g>
<!-- [root] aws_db_instance.default&#45;&gt;[root] aws_db_subnet_group.default -->
<g id="edge_0" class="edge">
<title>[root] aws_db_instance.default&#45;&gt;[root] aws_db_subnet_group.default</title>
<path fill="none" stroke="#000000" d="M436.976,-227.5799C385.8126,-218.8724 293.138,-202.1046 204.5698,-180.0055"/>
<polygon fill="#000000" stroke="#000000" points="205.1814,-176.5502 194.629,-177.4978 203.4691,-183.3376 205.1814,-176.5502"/>
</g>
<!-- [root] aws_security_group.default -->
<g id="node_2" class="node">
<title>[root] aws_security_group.default</title>
<polygon fill="none" stroke="#000000" points="443,-90 443,-105 535,-105 535,-90 443,-90"/>
<text text-anchor="start" x="445.793" y="-95.6" font-family="courier new" font-size="8.00" fill="#000000">aws_security_group</text>
<polygon fill="none" stroke="#000000" points="443,-75 443,-90 535,-90 535,-75 443,-75"/>
<text text-anchor="start" x="472.1973" y="-80.6" font-family="courier new" font-size="8.00" fill="#000000">default</text>
</g>
<!-- [root] aws_db_instance.default&#45;&gt;[root] aws_security_group.default -->
<g id="edge_1" class="edge">
<title>[root] aws_db_instance.default&#45;&gt;[root] aws_security_group.default</title>
<path fill="none" stroke="#000000" d="M515.0385,-230.7048C600.9462,-223.0589 800.3289,-202.9999 820,-180 830.3995,-167.8406 830.3629,-156.1906 820,-144 802.4341,-123.3362 635.1044,-104.1468 545.3148,-95.2315"/>
<polygon fill="#000000" stroke="#000000" points="545.5862,-91.7414 535.292,-94.247 544.9019,-98.7078 545.5862,-91.7414"/>
</g>
<!-- [root] var.db_name -->
<g id="node_6" class="node">
<title>[root] var.db_name</title>
<polygon fill="none" stroke="#000000" points="221,-162 221,-177 260,-177 260,-162 221,-162"/>
<text text-anchor="start" x="233.2988" y="-167.6" font-family="courier new" font-size="8.00" fill="#000000">var</text>
<polygon fill="none" stroke="#000000" points="221,-147 221,-162 260,-162 260,-147 221,-147"/>
<text text-anchor="start" x="223.6973" y="-152.6" font-family="courier new" font-size="8.00" fill="#000000">db_name</text>
</g>
<!-- [root] aws_db_instance.default&#45;&gt;[root] var.db_name -->
<g id="edge_2" class="edge">
<title>[root] aws_db_instance.default&#45;&gt;[root] var.db_name</title>
<path fill="none" stroke="#000000" d="M436.932,-225.8879C398.1541,-217.3039 337.0547,-202.3444 276.9052,-179.989"/>
<polygon fill="#000000" stroke="#000000" points="277.8547,-176.6061 267.2633,-176.3375 275.3755,-183.1524 277.8547,-176.6061"/>
</g>
<!-- [root] var.engine -->
<g id="node_7" class="node">
<title>[root] var.engine</title>
<polygon fill="none" stroke="#000000" points="295,-162 295,-177 329,-177 329,-162 295,-162"/>
<text text-anchor="start" x="304.7988" y="-167.6" font-family="courier new" font-size="8.00" fill="#000000">var</text>
<polygon fill="none" stroke="#000000" points="295,-147 295,-162 329,-162 329,-147 295,-147"/>
<text text-anchor="start" x="297.5977" y="-152.6" font-family="courier new" font-size="8.00" fill="#000000">engine</text>
</g>
<!-- [root] aws_db_instance.default&#45;&gt;[root] var.engine -->
<g id="edge_3" class="edge">
<title>[root] aws_db_instance.default&#45;&gt;[root] var.engine</title>
<path fill="none" stroke="#000000" d="M436.7837,-218.2219C413.3936,-208.6389 382.9623,-195.8726 348.3991,-180.063"/>
<polygon fill="#000000" stroke="#000000" points="349.5836,-176.7552 339.0363,-175.7518 346.6558,-183.1135 349.5836,-176.7552"/>
</g>
<!-- [root] var.engine_version -->
<g id="node_8" class="node">
<title>[root] var.engine_version</title>
<polygon fill="none" stroke="#000000" points="358,-162 358,-177 431,-177 431,-162 358,-162"/>
<text text-anchor="start" x="387.2988" y="-167.6" font-family="courier new" font-size="8.00" fill="#000000">var</text>
<polygon fill="none" stroke="#000000" points="358,-147 358,-162 431,-162 431,-147 358,-147"/>
<text text-anchor="start" x="360.8945" y="-152.6" font-family="courier new" font-size="8.00" fill="#000000">engine_version</text>
</g>
<!-- [root] aws_db_instance.default&#45;&gt;[root] var.engine_version -->
<g id="edge_4" class="edge">
<title>[root] aws_db_instance.default&#45;&gt;[root] var.engine_version</title>
<path fill="none" stroke="#000000" d="M455.3079,-215.8314C445.3052,-207.0485 433.145,-196.3712 422.3001,-186.8489"/>
<polygon fill="#000000" stroke="#000000" points="424.5092,-184.1308 414.6854,-180.1628 419.8906,-189.3909 424.5092,-184.1308"/>
</g>
<!-- [root] var.identifier -->
<g id="node_9" class="node">
<title>[root] var.identifier</title>
<polygon fill="none" stroke="#000000" points="449,-162 449,-177 503,-177 503,-162 449,-162"/>
<text text-anchor="start" x="468.7988" y="-167.6" font-family="courier new" font-size="8.00" fill="#000000">var</text>
<polygon fill="none" stroke="#000000" points="449,-147 449,-162 503,-162 503,-147 449,-147"/>
<text text-anchor="start" x="451.9961" y="-152.6" font-family="courier new" font-size="8.00" fill="#000000">identifier</text>
</g>
<!-- [root] aws_db_instance.default&#45;&gt;[root] var.identifier -->
<g id="edge_5" class="edge">
<title>[root] aws_db_instance.default&#45;&gt;[root] var.identifier</title>
<path fill="none" stroke="#000000" d="M476,-215.8314C476,-208.131 476,-198.9743 476,-190.4166"/>
<polygon fill="#000000" stroke="#000000" points="479.5001,-190.4132 476,-180.4133 472.5001,-190.4133 479.5001,-190.4132"/>
</g>
<!-- [root] var.instance_class -->
<g id="node_10" class="node">
<title>[root] var.instance_class</title>
<polygon fill="none" stroke="#000000" points="522,-162 522,-177 595,-177 595,-162 522,-162"/>
<text text-anchor="start" x="551.2988" y="-167.6" font-family="courier new" font-size="8.00" fill="#000000">var</text>
<polygon fill="none" stroke="#000000" points="522,-147 522,-162 595,-162 595,-147 522,-147"/>
<text text-anchor="start" x="524.8945" y="-152.6" font-family="courier new" font-size="8.00" fill="#000000">instance_class</text>
</g>
<!-- [root] aws_db_instance.default&#45;&gt;[root] var.instance_class -->
<g id="edge_6" class="edge">
<title>[root] aws_db_instance.default&#45;&gt;[root] var.instance_class</title>
<path fill="none" stroke="#000000" d="M496.6921,-215.8314C506.6948,-207.0485 518.855,-196.3712 529.6999,-186.8489"/>
<polygon fill="#000000" stroke="#000000" points="532.1094,-189.3909 537.3146,-180.1628 527.4908,-184.1308 532.1094,-189.3909"/>
</g>
<!-- [root] var.password -->
<g id="node_11" class="node">
<title>[root] var.password</title>
<polygon fill="none" stroke="#000000" points="618,-162 618,-177 662,-177 662,-162 618,-162"/>
<text text-anchor="start" x="632.7988" y="-167.6" font-family="courier new" font-size="8.00" fill="#000000">var</text>
<polygon fill="none" stroke="#000000" points="618,-147 618,-162 662,-162 662,-147 618,-147"/>
<text text-anchor="start" x="620.7969" y="-152.6" font-family="courier new" font-size="8.00" fill="#000000">password</text>
</g>
<!-- [root] aws_db_instance.default&#45;&gt;[root] var.password -->
<g id="edge_7" class="edge">
<title>[root] aws_db_instance.default&#45;&gt;[root] var.password</title>
<path fill="none" stroke="#000000" d="M515.2163,-218.2219C538.6064,-208.6389 569.0377,-195.8726 603.6009,-180.063"/>
<polygon fill="#000000" stroke="#000000" points="605.3442,-183.1135 612.9637,-175.7518 602.4164,-176.7552 605.3442,-183.1135"/>
</g>
<!-- [root] var.storage -->
<g id="node_12" class="node">
<title>[root] var.storage</title>
<polygon fill="none" stroke="#000000" points="693,-162 693,-177 732,-177 732,-162 693,-162"/>
<text text-anchor="start" x="705.2988" y="-167.6" font-family="courier new" font-size="8.00" fill="#000000">var</text>
<polygon fill="none" stroke="#000000" points="693,-147 693,-162 732,-162 732,-147 693,-147"/>
<text text-anchor="start" x="695.6973" y="-152.6" font-family="courier new" font-size="8.00" fill="#000000">storage</text>
</g>
<!-- [root] aws_db_instance.default&#45;&gt;[root] var.storage -->
<g id="edge_8" class="edge">
<title>[root] aws_db_instance.default&#45;&gt;[root] var.storage</title>
<path fill="none" stroke="#000000" d="M515.068,-225.8879C553.8459,-217.3039 614.9453,-202.3444 675.0948,-179.989"/>
<polygon fill="#000000" stroke="#000000" points="676.6245,-183.1524 684.7367,-176.3375 674.1453,-176.6061 676.6245,-183.1524"/>
</g>
<!-- [root] var.username -->
<g id="node_13" class="node">
<title>[root] var.username</title>
<polygon fill="none" stroke="#000000" points="762,-162 762,-177 806,-177 806,-162 762,-162"/>
<text text-anchor="start" x="776.7988" y="-167.6" font-family="courier new" font-size="8.00" fill="#000000">var</text>
<polygon fill="none" stroke="#000000" points="762,-147 762,-162 806,-162 806,-147 762,-147"/>
<text text-anchor="start" x="764.7969" y="-152.6" font-family="courier new" font-size="8.00" fill="#000000">username</text>
</g>
<!-- [root] aws_db_instance.default&#45;&gt;[root] var.username -->
<g id="edge_9" class="edge">
<title>[root] aws_db_instance.default&#45;&gt;[root] var.username</title>
<path fill="none" stroke="#000000" d="M515.1429,-229.5734C566.836,-223.0075 660.5229,-208.6107 747.1049,-179.8359"/>
<polygon fill="#000000" stroke="#000000" points="748.4669,-183.0697 756.8095,-176.5389 746.2151,-176.4418 748.4669,-183.0697"/>
</g>
<!-- [root] aws_subnet.subnet_1 -->
<g id="node_3" class="node">
<title>[root] aws_subnet.subnet_1</title>
<polygon fill="none" stroke="#000000" points="230,-90 230,-105 284,-105 284,-90 230,-90"/>
<text text-anchor="start" x="232.9961" y="-95.6" font-family="courier new" font-size="8.00" fill="#000000">aws_subnet</text>
<polygon fill="none" stroke="#000000" points="230,-75 230,-90 284,-90 284,-75 230,-75"/>
<text text-anchor="start" x="237.7969" y="-80.6" font-family="courier new" font-size="8.00" fill="#000000">subnet_1</text>
</g>
<!-- [root] aws_db_subnet_group.default&#45;&gt;[root] aws_subnet.subnet_1 -->
<g id="edge_10" class="edge">
<title>[root] aws_db_subnet_group.default&#45;&gt;[root] aws_subnet.subnet_1</title>
<path fill="none" stroke="#000000" d="M174.01,-143.8314C188.2909,-134.5681 205.8205,-123.1975 221.0834,-113.2972"/>
<polygon fill="#000000" stroke="#000000" points="223.2815,-116.0434 229.7664,-107.665 219.4721,-110.1706 223.2815,-116.0434"/>
</g>
<!-- [root] aws_subnet.subnet_2 -->
<g id="node_4" class="node">
<title>[root] aws_subnet.subnet_2</title>
<polygon fill="none" stroke="#000000" points="119,-90 119,-105 173,-105 173,-90 119,-90"/>
<text text-anchor="start" x="121.9961" y="-95.6" font-family="courier new" font-size="8.00" fill="#000000">aws_subnet</text>
<polygon fill="none" stroke="#000000" points="119,-75 119,-90 173,-90 173,-75 119,-75"/>
<text text-anchor="start" x="126.7969" y="-80.6" font-family="courier new" font-size="8.00" fill="#000000">subnet_2</text>
</g>
<!-- [root] aws_db_subnet_group.default&#45;&gt;[root] aws_subnet.subnet_2 -->
<g id="edge_11" class="edge">
<title>[root] aws_db_subnet_group.default&#45;&gt;[root] aws_subnet.subnet_2</title>
<path fill="none" stroke="#000000" d="M146,-143.8314C146,-136.131 146,-126.9743 146,-118.4166"/>
<polygon fill="#000000" stroke="#000000" points="149.5001,-118.4132 146,-108.4133 142.5001,-118.4133 149.5001,-118.4132"/>
</g>
<!-- [root] provider.aws -->
<g id="node_5" class="node">
<title>[root] provider.aws</title>
<polygon fill="none" stroke="#000000" points="163,-18 163,-33 207,-33 207,-18 163,-18"/>
<text text-anchor="start" x="165.7969" y="-23.6" font-family="courier new" font-size="8.00" fill="#000000">provider</text>
<polygon fill="none" stroke="#000000" points="163,-3 163,-18 207,-18 207,-3 163,-3"/>
<text text-anchor="start" x="177.7988" y="-8.6" font-family="courier new" font-size="8.00" fill="#000000">aws</text>
</g>
<!-- [root] aws_security_group.default&#45;&gt;[root] provider.aws -->
<g id="edge_12" class="edge">
<title>[root] aws_security_group.default&#45;&gt;[root] provider.aws</title>
<path fill="none" stroke="#000000" d="M442.9809,-84.5023C390.9208,-77.4604 303.7709,-63.1819 222.1208,-35.9198"/>
<polygon fill="#000000" stroke="#000000" points="222.7879,-32.4493 212.1934,-32.5304 220.5261,-39.0738 222.7879,-32.4493"/>
</g>
<!-- [root] var.cidr_blocks -->
<g id="node_14" class="node">
<title>[root] var.cidr_blocks</title>
<polygon fill="none" stroke="#000000" points="460,-18 460,-33 518,-33 518,-18 460,-18"/>
<text text-anchor="start" x="481.7988" y="-23.6" font-family="courier new" font-size="8.00" fill="#000000">var</text>
<polygon fill="none" stroke="#000000" points="460,-3 460,-18 518,-18 518,-3 460,-3"/>
<text text-anchor="start" x="462.5957" y="-8.6" font-family="courier new" font-size="8.00" fill="#000000">cidr_blocks</text>
</g>
<!-- [root] aws_security_group.default&#45;&gt;[root] var.cidr_blocks -->
<g id="edge_13" class="edge">
<title>[root] aws_security_group.default&#45;&gt;[root] var.cidr_blocks</title>
<path fill="none" stroke="#000000" d="M489,-71.8314C489,-64.131 489,-54.9743 489,-46.4166"/>
<polygon fill="#000000" stroke="#000000" points="492.5001,-46.4132 489,-36.4133 485.5001,-46.4133 492.5001,-46.4132"/>
</g>
<!-- [root] var.sg_name -->
<g id="node_15" class="node">
<title>[root] var.sg_name</title>
<polygon fill="none" stroke="#000000" points="544,-18 544,-33 583,-33 583,-18 544,-18"/>
<text text-anchor="start" x="556.2988" y="-23.6" font-family="courier new" font-size="8.00" fill="#000000">var</text>
<polygon fill="none" stroke="#000000" points="544,-3 544,-18 583,-18 583,-3 544,-3"/>
<text text-anchor="start" x="546.6973" y="-8.6" font-family="courier new" font-size="8.00" fill="#000000">sg_name</text>
</g>
<!-- [root] aws_security_group.default&#45;&gt;[root] var.sg_name -->
<g id="edge_14" class="edge">
<title>[root] aws_security_group.default&#45;&gt;[root] var.sg_name</title>
<path fill="none" stroke="#000000" d="M507.6733,-71.8314C516.5249,-63.219 527.2486,-52.7851 536.8895,-43.4048"/>
<polygon fill="#000000" stroke="#000000" points="539.6061,-45.645 544.3326,-36.1628 534.7246,-40.6279 539.6061,-45.645"/>
</g>
<!-- [root] var.vpc_id -->
<g id="node_16" class="node">
<title>[root] var.vpc_id</title>
<polygon fill="none" stroke="#000000" points="240,-18 240,-33 274,-33 274,-18 240,-18"/>
<text text-anchor="start" x="249.7988" y="-23.6" font-family="courier new" font-size="8.00" fill="#000000">var</text>
<polygon fill="none" stroke="#000000" points="240,-3 240,-18 274,-18 274,-3 240,-3"/>
<text text-anchor="start" x="242.5977" y="-8.6" font-family="courier new" font-size="8.00" fill="#000000">vpc_id</text>
</g>
<!-- [root] aws_security_group.default&#45;&gt;[root] var.vpc_id -->
<g id="edge_15" class="edge">
<title>[root] aws_security_group.default&#45;&gt;[root] var.vpc_id</title>
<path fill="none" stroke="#000000" d="M442.6428,-79.9245C404.6047,-71.0585 349.3743,-56.8152 293.8966,-36.0009"/>
<polygon fill="#000000" stroke="#000000" points="294.8597,-32.6221 284.2691,-32.3223 292.3612,-39.1611 294.8597,-32.6221"/>
</g>
<!-- [root] aws_subnet.subnet_1&#45;&gt;[root] provider.aws -->
<g id="edge_16" class="edge">
<title>[root] aws_subnet.subnet_1&#45;&gt;[root] provider.aws</title>
<path fill="none" stroke="#000000" d="M238.8314,-71.8314C230.2848,-63.2848 219.9443,-52.9443 210.6198,-43.6198"/>
<polygon fill="#000000" stroke="#000000" points="212.9592,-41.0095 203.4133,-36.4133 208.0095,-45.9592 212.9592,-41.0095"/>
</g>
<!-- [root] aws_subnet.subnet_1&#45;&gt;[root] var.vpc_id -->
<g id="edge_19" class="edge">
<title>[root] aws_subnet.subnet_1&#45;&gt;[root] var.vpc_id</title>
<path fill="none" stroke="#000000" d="M257,-71.8314C257,-64.131 257,-54.9743 257,-46.4166"/>
<polygon fill="#000000" stroke="#000000" points="260.5001,-46.4132 257,-36.4133 253.5001,-46.4133 260.5001,-46.4132"/>
</g>
<!-- [root] var.az_1 -->
<g id="node_17" class="node">
<title>[root] var.az_1</title>
<polygon fill="none" stroke="#000000" points="317,-18 317,-33 342,-33 342,-18 317,-18"/>
<text text-anchor="start" x="322.2988" y="-23.6" font-family="courier new" font-size="8.00" fill="#000000">var</text>
<polygon fill="none" stroke="#000000" points="317,-3 317,-18 342,-18 342,-3 317,-3"/>
<text text-anchor="start" x="319.8984" y="-8.6" font-family="courier new" font-size="8.00" fill="#000000">az_1</text>
</g>
<!-- [root] aws_subnet.subnet_1&#45;&gt;[root] var.az_1 -->
<g id="edge_17" class="edge">
<title>[root] aws_subnet.subnet_1&#45;&gt;[root] var.az_1</title>
<path fill="none" stroke="#000000" d="M275.1686,-71.8314C283.7152,-63.2848 294.0557,-52.9443 303.3802,-43.6198"/>
<polygon fill="#000000" stroke="#000000" points="305.9905,-45.9592 310.5867,-36.4133 301.0408,-41.0095 305.9905,-45.9592"/>
</g>
<!-- [root] var.subnet_1_cidr -->
<g id="node_18" class="node">
<title>[root] var.subnet_1_cidr</title>
<polygon fill="none" stroke="#000000" points="374,-18 374,-33 442,-33 442,-18 374,-18"/>
<text text-anchor="start" x="400.7988" y="-23.6" font-family="courier new" font-size="8.00" fill="#000000">var</text>
<polygon fill="none" stroke="#000000" points="374,-3 374,-18 442,-18 442,-3 374,-3"/>
<text text-anchor="start" x="376.7949" y="-8.6" font-family="courier new" font-size="8.00" fill="#000000">subnet_1_cidr</text>
</g>
<!-- [root] aws_subnet.subnet_1&#45;&gt;[root] var.subnet_1_cidr -->
<g id="edge_18" class="edge">
<title>[root] aws_subnet.subnet_1&#45;&gt;[root] var.subnet_1_cidr</title>
<path fill="none" stroke="#000000" d="M284.345,-76.9613C306.75,-66.2781 338.8654,-50.9648 364.7517,-38.6217"/>
<polygon fill="#000000" stroke="#000000" points="366.4574,-41.686 373.9774,-34.2227 363.4445,-35.3675 366.4574,-41.686"/>
</g>
<!-- [root] aws_subnet.subnet_2&#45;&gt;[root] provider.aws -->
<g id="edge_20" class="edge">
<title>[root] aws_subnet.subnet_2&#45;&gt;[root] provider.aws</title>
<path fill="none" stroke="#000000" d="M155.8413,-71.8314C160.1957,-63.7925 165.4098,-54.1666 170.2169,-45.2918"/>
<polygon fill="#000000" stroke="#000000" points="173.3408,-46.8732 175.0261,-36.4133 167.1857,-43.5392 173.3408,-46.8732"/>
</g>
<!-- [root] aws_subnet.subnet_2&#45;&gt;[root] var.vpc_id -->
<g id="edge_23" class="edge">
<title>[root] aws_subnet.subnet_2&#45;&gt;[root] var.vpc_id</title>
<path fill="none" stroke="#000000" d="M173.1537,-72.3868C187.6669,-62.9728 205.7152,-51.2658 221.3452,-41.1274"/>
<polygon fill="#000000" stroke="#000000" points="223.257,-44.0592 229.742,-35.6809 219.4477,-38.1865 223.257,-44.0592"/>
</g>
<!-- [root] var.az_2 -->
<g id="node_19" class="node">
<title>[root] var.az_2</title>
<polygon fill="none" stroke="#000000" points="15,-18 15,-33 40,-33 40,-18 15,-18"/>
<text text-anchor="start" x="20.2988" y="-23.6" font-family="courier new" font-size="8.00" fill="#000000">var</text>
<polygon fill="none" stroke="#000000" points="15,-3 15,-18 40,-18 40,-3 15,-3"/>
<text text-anchor="start" x="17.8984" y="-8.6" font-family="courier new" font-size="8.00" fill="#000000">az_2</text>
</g>
<!-- [root] aws_subnet.subnet_2&#45;&gt;[root] var.az_2 -->
<g id="edge_21" class="edge">
<title>[root] aws_subnet.subnet_2&#45;&gt;[root] var.az_2</title>
<path fill="none" stroke="#000000" d="M118.9971,-73.6621C102.5296,-63.6986 81.2715,-50.8366 63.3393,-39.9868"/>
<polygon fill="#000000" stroke="#000000" points="64.6757,-36.7046 54.308,-34.5225 61.052,-42.6937 64.6757,-36.7046"/>
</g>
<!-- [root] var.subnet_2_cidr -->
<g id="node_20" class="node">
<title>[root] var.subnet_2_cidr</title>
<polygon fill="none" stroke="#000000" points="72,-18 72,-33 140,-33 140,-18 72,-18"/>
<text text-anchor="start" x="98.7988" y="-23.6" font-family="courier new" font-size="8.00" fill="#000000">var</text>
<polygon fill="none" stroke="#000000" points="72,-3 72,-18 140,-18 140,-3 72,-3"/>
<text text-anchor="start" x="74.7949" y="-8.6" font-family="courier new" font-size="8.00" fill="#000000">subnet_2_cidr</text>
</g>
<!-- [root] aws_subnet.subnet_2&#45;&gt;[root] var.subnet_2_cidr -->
<g id="edge_22" class="edge">
<title>[root] aws_subnet.subnet_2&#45;&gt;[root] var.subnet_2_cidr</title>
<path fill="none" stroke="#000000" d="M135.9063,-71.8314C131.4403,-63.7925 126.0925,-54.1666 121.1621,-45.2918"/>
<polygon fill="#000000" stroke="#000000" points="124.1456,-43.4551 116.2296,-36.4133 118.0265,-46.8546 124.1456,-43.4551"/>
</g>
<!-- [root] meta.count&#45;boundary (count boundary fixup) -->
<g id="node_21" class="node">
<title>[root] meta.count&#45;boundary (count boundary fixup)</title>
<polygon fill="none" stroke="#000000" points="366,-378 366,-393 439,-393 439,-378 366,-378"/>
<text text-anchor="start" x="392.8984" y="-383.6" font-family="courier new" font-size="8.00" fill="#000000">meta</text>
<polygon fill="none" stroke="#000000" points="366,-363 366,-378 439,-378 439,-363 366,-363"/>
<text text-anchor="start" x="368.8945" y="-368.6" font-family="courier new" font-size="8.00" fill="#000000">count&#45;boundary</text>
</g>
<!-- [root] output.db_instance_address -->
<g id="node_22" class="node">
<title>[root] output.db_instance_address</title>
<polygon fill="none" stroke="#000000" points="408,-306 408,-321 505,-321 505,-306 408,-306"/>
<text text-anchor="start" x="442.0977" y="-311.6" font-family="courier new" font-size="8.00" fill="#000000">output</text>
<polygon fill="none" stroke="#000000" points="408,-291 408,-306 505,-306 505,-291 408,-291"/>
<text text-anchor="start" x="410.8926" y="-296.6" font-family="courier new" font-size="8.00" fill="#000000">db_instance_address</text>
</g>
<!-- [root] meta.count&#45;boundary (count boundary fixup)&#45;&gt;[root] output.db_instance_address -->
<g id="edge_24" class="edge">
<title>[root] meta.count&#45;boundary (count boundary fixup)&#45;&gt;[root] output.db_instance_address</title>
<path fill="none" stroke="#000000" d="M415.6265,-359.8314C421.846,-351.5386 429.3322,-341.557 436.16,-332.4533"/>
<polygon fill="#000000" stroke="#000000" points="438.99,-334.5133 442.19,-324.4133 433.39,-330.3133 438.99,-334.5133"/>
</g>
<!-- [root] output.db_instance_id -->
<g id="node_23" class="node">
<title>[root] output.db_instance_id</title>
<polygon fill="none" stroke="#000000" points="317,-306 317,-321 390,-321 390,-306 317,-306"/>
<text text-anchor="start" x="339.0977" y="-311.6" font-family="courier new" font-size="8.00" fill="#000000">output</text>
<polygon fill="none" stroke="#000000" points="317,-291 317,-306 390,-306 390,-291 317,-291"/>
<text text-anchor="start" x="319.8945" y="-296.6" font-family="courier new" font-size="8.00" fill="#000000">db_instance_id</text>
</g>
<!-- [root] meta.count&#45;boundary (count boundary fixup)&#45;&gt;[root] output.db_instance_id -->
<g id="edge_25" class="edge">
<title>[root] meta.count&#45;boundary (count boundary fixup)&#45;&gt;[root] output.db_instance_id</title>
<path fill="none" stroke="#000000" d="M389.6352,-359.8314C384.0491,-351.6232 377.337,-341.7606 371.1928,-332.7323"/>
<polygon fill="#000000" stroke="#000000" points="374.051,-330.7112 365.5313,-324.4133 368.264,-334.6496 374.051,-330.7112"/>
</g>
<!-- [root] output.subnet_group -->
<g id="node_24" class="node">
<title>[root] output.subnet_group</title>
<polygon fill="none" stroke="#000000" points="196,-234 196,-249 259,-249 259,-234 196,-234"/>
<text text-anchor="start" x="213.0977" y="-239.6" font-family="courier new" font-size="8.00" fill="#000000">output</text>
<polygon fill="none" stroke="#000000" points="196,-219 196,-234 259,-234 259,-219 196,-219"/>
<text text-anchor="start" x="198.6953" y="-224.6" font-family="courier new" font-size="8.00" fill="#000000">subnet_group</text>
</g>
<!-- [root] meta.count&#45;boundary (count boundary fixup)&#45;&gt;[root] output.subnet_group -->
<g id="edge_26" class="edge">
<title>[root] meta.count&#45;boundary (count boundary fixup)&#45;&gt;[root] output.subnet_group</title>
<path fill="none" stroke="#000000" d="M365.4925,-360.8371C347.0411,-351.297 324.842,-338.4433 307,-324 283.7871,-305.2088 261.5687,-279.363 246.4638,-260.188"/>
<polygon fill="#000000" stroke="#000000" points="249.1353,-257.9214 240.2451,-252.1581 243.6009,-262.2075 249.1353,-257.9214"/>
</g>
<!-- [root] output.db_instance_address&#45;&gt;[root] aws_db_instance.default -->
<g id="edge_27" class="edge">
<title>[root] output.db_instance_address&#45;&gt;[root] aws_db_instance.default</title>
<path fill="none" stroke="#000000" d="M461.0468,-287.8314C463.2094,-280.0463 465.7853,-270.7729 468.1848,-262.1347"/>
<polygon fill="#000000" stroke="#000000" points="471.581,-262.9852 470.8852,-252.4133 464.8364,-261.1117 471.581,-262.9852"/>
</g>
<!-- [root] output.db_instance_id&#45;&gt;[root] aws_db_instance.default -->
<g id="edge_28" class="edge">
<title>[root] output.db_instance_id&#45;&gt;[root] aws_db_instance.default</title>
<path fill="none" stroke="#000000" d="M384.0381,-287.8314C399.7705,-278.6221 419.0611,-267.3301 435.9044,-257.4706"/>
<polygon fill="#000000" stroke="#000000" points="438.1098,-260.2352 444.9718,-252.1628 434.5735,-254.1941 438.1098,-260.2352"/>
</g>
<!-- [root] output.subnet_group&#45;&gt;[root] aws_db_subnet_group.default -->
<g id="edge_29" class="edge">
<title>[root] output.subnet_group&#45;&gt;[root] aws_db_subnet_group.default</title>
<path fill="none" stroke="#000000" d="M206.5603,-215.8314C196.6795,-207.0485 184.6676,-196.3712 173.955,-186.8489"/>
<polygon fill="#000000" stroke="#000000" points="176.2326,-184.1906 166.4332,-180.1628 171.582,-189.4224 176.2326,-184.1906"/>
</g>
<!-- [root] provider.aws (close) -->
<g id="node_25" class="node">
<title>[root] provider.aws (close)</title>
<polygon fill="none" stroke="#000000" points="486,-378 486,-393 530,-393 530,-378 486,-378"/>
<text text-anchor="start" x="488.7969" y="-383.6" font-family="courier new" font-size="8.00" fill="#000000">provider</text>
<polygon fill="none" stroke="#000000" points="486,-363 486,-378 530,-378 530,-363 486,-363"/>
<text text-anchor="start" x="500.7988" y="-368.6" font-family="courier new" font-size="8.00" fill="#000000">aws</text>
</g>
<!-- [root] provider.aws (close)&#45;&gt;[root] aws_db_instance.default -->
<g id="edge_30" class="edge">
<title>[root] provider.aws (close)&#45;&gt;[root] aws_db_instance.default</title>
<path fill="none" stroke="#000000" d="M513.0093,-359.9469C517.2746,-341.4365 521.6096,-312.0363 514,-288 510.9185,-278.2664 505.3817,-268.7695 499.4711,-260.5228"/>
<polygon fill="#000000" stroke="#000000" points="502.1248,-258.2316 493.2635,-252.4239 496.569,-262.49 502.1248,-258.2316"/>
</g>
<!-- [root] root -->
<g id="node_26" class="node">
<title>[root] root</title>
<polygon fill="none" stroke="#000000" points="477.3089,-468 408.6911,-468 408.6911,-432 477.3089,-432 477.3089,-468"/>
<text text-anchor="middle" x="443" y="-448.1313" font-family="courier new" font-size="8.00" fill="#000000">[root] root</text>
</g>
<!-- [root] root&#45;&gt;[root] meta.count&#45;boundary (count boundary fixup) -->
<g id="edge_31" class="edge">
<title>[root] root&#45;&gt;[root] meta.count&#45;boundary (count boundary fixup)</title>
<path fill="none" stroke="#000000" d="M432.654,-431.8314C428.0763,-423.7925 422.5948,-414.1666 417.5412,-405.2918"/>
<polygon fill="#000000" stroke="#000000" points="420.4752,-403.3712 412.4853,-396.4133 414.3923,-406.8351 420.4752,-403.3712"/>
</g>
<!-- [root] root&#45;&gt;[root] provider.aws (close) -->
<g id="edge_32" class="edge">
<title>[root] root&#45;&gt;[root] provider.aws (close)</title>
<path fill="none" stroke="#000000" d="M459.4022,-431.8314C467.0415,-423.3694 476.2683,-413.1489 484.6207,-403.8971"/>
<polygon fill="#000000" stroke="#000000" points="487.2738,-406.1813 491.3769,-396.4133 482.0779,-401.4906 487.2738,-406.1813"/>
</g>
</g>
</svg>

