<?xml version="1.0" encoding="UTF-8" standalone="no"?>
<!DOCTYPE svg PUBLIC "-//W3C//DTD SVG 1.1//EN"
 "http://www.w3.org/Graphics/SVG/1.1/DTD/svg11.dtd">
<!-- Generated by graphviz version 2.40.1 (20161225.0304)
 -->
<!-- Title: %3 Pages: 1 -->
<svg width="516pt" height="924pt"
 viewBox="0.00 0.00 516.00 924.00" xmlns="http://www.w3.org/2000/svg" xmlns:xlink="http://www.w3.org/1999/xlink">
<g id="graph0" class="graph" transform="scale(1 1) rotate(0) translate(4 920)">
<title>%3</title>
<polygon fill="#ffffff" stroke="transparent" points="-4,4 -4,-920 512,-920 512,4 -4,4"/>
<g id="clust2" class="cluster">
<title>cluster[root] aws_db_instance.default_var_</title>
</g>
<g id="clust3" class="cluster">
<title>cluster[root] aws_security_group.default_var_</title>
</g>
<g id="clust4" class="cluster">
<title>cluster[root] aws_subnet.subnet_1_var_</title>
</g>
<g id="clust5" class="cluster">
<title>cluster[root] aws_subnet.subnet_2_var_</title>
</g>
<g id="clust6" class="cluster">
<title>cluster[root] meta.count&#45;boundary (count boundary fixup)_output_[root] aws_db_instance.default</title>
</g>
<g id="clust7" class="cluster">
<title>cluster[root] meta.count&#45;boundary (count boundary fixup)_output_[root] aws_db_subnet_group.default</title>
</g>
<!-- [root] aws_db_instance.default -->
<g id="node_0" class="node">
<title>[root] aws_db_instance.default</title>
<polygon fill="none" stroke="#000000" points="136,-610 136,-625 214,-625 214,-610 136,-610"/>
<text text-anchor="start" x="138.9941" y="-615.6" font-family="courier new" font-size="8.00" fill="#000000">aws_db_instance</text>
<polygon fill="none" stroke="#000000" points="136,-595 136,-610 214,-610 214,-595 136,-595"/>
<text text-anchor="start" x="158.1973" y="-600.6" font-family="courier new" font-size="8.00" fill="#000000">default</text>
</g>
<!-- [root] aws_db_subnet_group.default -->
<g id="node_1" class="node">
<title>[root] aws_db_subnet_group.default</title>
<polygon fill="none" stroke="#000000" points="218,-538 218,-553 315,-553 315,-538 218,-538"/>
<text text-anchor="start" x="220.8926" y="-543.6" font-family="courier new" font-size="8.00" fill="#000000">aws_db_subnet_group</text>
<polygon fill="none" stroke="#000000" points="218,-523 218,-538 315,-538 315,-523 218,-523"/>
<text text-anchor="start" x="249.6973" y="-528.6" font-family="courier new" font-size="8.00" fill="#000000">default</text>
</g>
<!-- [root] aws_db_instance.default&#45;&gt;[root] aws_db_subnet_group.default -->
<g id="edge_0" class="edge">
<title>[root] aws_db_instance.default&#45;&gt;[root] aws_db_subnet_group.default</title>
<path fill="none" stroke="#000000" d="M197.9631,-591.8314C209.1715,-582.9632 222.8209,-572.1637 234.9439,-562.5718"/>
<polygon fill="#000000" stroke="#000000" points="237.3737,-565.1125 243.0442,-556.1628 233.0303,-559.6229 237.3737,-565.1125"/>
</g>
<!-- [root] aws_security_group.default -->
<g id="node_2" class="node">
<title>[root] aws_security_group.default</title>
<polygon fill="none" stroke="#000000" points="129,-466 129,-481 221,-481 221,-466 129,-466"/>
<text text-anchor="start" x="131.793" y="-471.6" font-family="courier new" font-size="8.00" fill="#000000">aws_security_group</text>
<polygon fill="none" stroke="#000000" points="129,-451 129,-466 221,-466 221,-451 129,-451"/>
<text text-anchor="start" x="158.1973" y="-456.6" font-family="courier new" font-size="8.00" fill="#000000">default</text>
</g>
<!-- [root] aws_db_instance.default&#45;&gt;[root] aws_security_group.default -->
<g id="edge_1" class="edge">
<title>[root] aws_db_instance.default&#45;&gt;[root] aws_security_group.default</title>
<path fill="none" stroke="#000000" d="M175,-591.7623C175,-567.201 175,-523.2474 175,-494.3541"/>
<polygon fill="#000000" stroke="#000000" points="178.5001,-494.0896 175,-484.0896 171.5001,-494.0897 178.5001,-494.0896"/>
</g>
<!-- [root] var.db_name -->
<g id="node_6" class="node">
<title>[root] var.db_name</title>
<polygon fill="none" stroke="#000000" points="41,-538 41,-553 80,-553 80,-538 41,-538"/>
<text text-anchor="start" x="53.2988" y="-543.6" font-family="courier new" font-size="8.00" fill="#000000">var</text>
<polygon fill="none" stroke="#000000" points="41,-523 41,-538 80,-538 80,-523 41,-523"/>
<text text-anchor="start" x="43.6973" y="-528.6" font-family="courier new" font-size="8.00" fill="#000000">db_name</text>
</g>
<!-- [root] aws_db_instance.default&#45;&gt;[root] var.db_name -->
<g id="edge_2" class="edge">
<title>[root] aws_db_instance.default&#45;&gt;[root] var.db_name</title>
<path fill="none" stroke="#000000" d="M145.9806,-591.8314C130.71,-582.2706 111.8539,-570.4651 95.6949,-560.3481"/>
<polygon fill="#000000" stroke="#000000" points="97.3682,-557.2664 87.0351,-554.9263 93.6536,-563.1995 97.3682,-557.2664"/>
</g>
<!-- [root] aws_subnet.subnet_1 -->
<g id="node_3" class="node">
<title>[root] aws_subnet.subnet_1</title>
<polygon fill="none" stroke="#000000" points="311,-466 311,-481 365,-481 365,-466 311,-466"/>
<text text-anchor="start" x="313.9961" y="-471.6" font-family="courier new" font-size="8.00" fill="#000000">aws_subnet</text>
<polygon fill="none" stroke="#000000" points="311,-451 311,-466 365,-466 365,-451 311,-451"/>
<text text-anchor="start" x="318.7969" y="-456.6" font-family="courier new" font-size="8.00" fill="#000000">subnet_1</text>
</g>
<!-- [root] aws_db_subnet_group.default&#45;&gt;[root] aws_subnet.subnet_1 -->
<g id="edge_10" class="edge">
<title>[root] aws_db_subnet_group.default&#45;&gt;[root] aws_subnet.subnet_1</title>
<path fill="none" stroke="#000000" d="M284.1686,-519.8314C292.7152,-511.2848 303.0557,-500.9443 312.3802,-491.6198"/>
<polygon fill="#000000" stroke="#000000" points="314.9905,-493.9592 319.5867,-484.4133 310.0408,-489.0095 314.9905,-493.9592"/>
</g>
<!-- [root] aws_subnet.subnet_2 -->
<g id="node_4" class="node">
<title>[root] aws_subnet.subnet_2</title>
<polygon fill="none" stroke="#000000" points="239,-466 239,-481 293,-481 293,-466 239,-466"/>
<text text-anchor="start" x="241.9961" y="-471.6" font-family="courier new" font-size="8.00" fill="#000000">aws_subnet</text>
<polygon fill="none" stroke="#000000" points="239,-451 239,-466 293,-466 293,-451 239,-451"/>
<text text-anchor="start" x="246.7969" y="-456.6" font-family="courier new" font-size="8.00" fill="#000000">subnet_2</text>
</g>
<!-- [root] aws_db_subnet_group.default&#45;&gt;[root] aws_subnet.subnet_2 -->
<g id="edge_11" class="edge">
<title>[root] aws_db_subnet_group.default&#45;&gt;[root] aws_subnet.subnet_2</title>
<path fill="none" stroke="#000000" d="M266,-519.8314C266,-512.131 266,-502.9743 266,-494.4166"/>
<polygon fill="#000000" stroke="#000000" points="269.5001,-494.4132 266,-484.4133 262.5001,-494.4133 269.5001,-494.4132"/>
</g>
<!-- [root] provider.aws -->
<g id="node_5" class="node">
<title>[root] provider.aws</title>
<polygon fill="none" stroke="#000000" points="195,-394 195,-409 239,-409 239,-394 195,-394"/>
<text text-anchor="start" x="197.7969" y="-399.6" font-family="courier new" font-size="8.00" fill="#000000">provider</text>
<polygon fill="none" stroke="#000000" points="195,-379 195,-394 239,-394 239,-379 195,-379"/>
<text text-anchor="start" x="209.7988" y="-384.6" font-family="courier new" font-size="8.00" fill="#000000">aws</text>
</g>
<!-- [root] aws_security_group.default&#45;&gt;[root] provider.aws -->
<g id="edge_12" class="edge">
<title>[root] aws_security_group.default&#45;&gt;[root] provider.aws</title>
<path fill="none" stroke="#000000" d="M185.5984,-447.8314C190.2877,-439.7925 195.9028,-430.1666 201.0798,-421.2918"/>
<polygon fill="#000000" stroke="#000000" points="204.2434,-422.8146 206.2589,-412.4133 198.1969,-419.2875 204.2434,-422.8146"/>
</g>
<!-- [root] var.vpc_id -->
<g id="node_16" class="node">
<title>[root] var.vpc_id</title>
<polygon fill="none" stroke="#000000" points="272,-394 272,-409 306,-409 306,-394 272,-394"/>
<text text-anchor="start" x="281.7988" y="-399.6" font-family="courier new" font-size="8.00" fill="#000000">var</text>
<polygon fill="none" stroke="#000000" points="272,-379 272,-394 306,-394 306,-379 272,-379"/>
<text text-anchor="start" x="274.5977" y="-384.6" font-family="courier new" font-size="8.00" fill="#000000">vpc_id</text>
</g>
<!-- [root] aws_security_group.default&#45;&gt;[root] var.vpc_id -->
<g id="edge_15" class="edge">
<title>[root] aws_security_group.default&#45;&gt;[root] var.vpc_id</title>
<path fill="none" stroke="#000000" d="M207.2865,-447.8577C221.492,-439.6465 238.2638,-429.6371 253,-420 254.0525,-419.3117 255.1171,-418.6055 256.1879,-417.8865"/>
<polygon fill="#000000" stroke="#000000" points="258.1765,-420.7668 264.4224,-412.2088 254.2029,-415.0039 258.1765,-420.7668"/>
</g>
<!-- [root] var.cidr_blocks -->
<g id="node_14" class="node">
<title>[root] var.cidr_blocks</title>
<polygon fill="none" stroke="#000000" points="114,-394 114,-409 172,-409 172,-394 114,-394"/>
<text text-anchor="start" x="135.7988" y="-399.6" font-family="courier new" font-size="8.00" fill="#000000">var</text>
<polygon fill="none" stroke="#000000" points="114,-379 114,-394 172,-394 172,-379 114,-379"/>
<text text-anchor="start" x="116.5957" y="-384.6" font-family="courier new" font-size="8.00" fill="#000000">cidr_blocks</text>
</g>
<!-- [root] aws_security_group.default&#45;&gt;[root] var.cidr_blocks -->
<g id="edge_13" class="edge">
<title>[root] aws_security_group.default&#45;&gt;[root] var.cidr_blocks</title>
<path fill="none" stroke="#000000" d="M166.925,-447.8314C163.3898,-439.8771 159.164,-430.369 155.2544,-421.5723"/>
<polygon fill="#000000" stroke="#000000" points="158.4435,-420.1299 151.1837,-412.4133 152.0468,-422.9729 158.4435,-420.1299"/>
</g>
<!-- [root] aws_subnet.subnet_1&#45;&gt;[root] provider.aws -->
<g id="edge_16" class="edge">
<title>[root] aws_subnet.subnet_1&#45;&gt;[root] provider.aws</title>
<path fill="none" stroke="#000000" d="M310.6935,-452.3688C293.7693,-443.6413 271.7566,-431.7794 253,-420 251.8983,-419.3081 250.7853,-418.5944 249.6675,-417.8649"/>
<polygon fill="#000000" stroke="#000000" points="251.3464,-414.7745 241.1056,-412.0586 247.4175,-420.568 251.3464,-414.7745"/>
</g>
<!-- [root] aws_subnet.subnet_1&#45;&gt;[root] var.vpc_id -->
<g id="edge_19" class="edge">
<title>[root] aws_subnet.subnet_1&#45;&gt;[root] var.vpc_id</title>
<path fill="none" stroke="#000000" d="M325.6352,-447.8314C320.0491,-439.6232 313.337,-429.7606 307.1928,-420.7323"/>
<polygon fill="#000000" stroke="#000000" points="310.051,-418.7112 301.5313,-412.4133 304.264,-422.6496 310.051,-418.7112"/>
</g>
<!-- [root] var.az_1 -->
<g id="node_17" class="node">
<title>[root] var.az_1</title>
<polygon fill="none" stroke="#000000" points="442,-394 442,-409 467,-409 467,-394 442,-394"/>
<text text-anchor="start" x="447.2988" y="-399.6" font-family="courier new" font-size="8.00" fill="#000000">var</text>
<polygon fill="none" stroke="#000000" points="442,-379 442,-394 467,-394 467,-379 442,-379"/>
<text text-anchor="start" x="444.8984" y="-384.6" font-family="courier new" font-size="8.00" fill="#000000">az_1</text>
</g>
<!-- [root] aws_subnet.subnet_1&#45;&gt;[root] var.az_1 -->
<g id="edge_17" class="edge">
<title>[root] aws_subnet.subnet_1&#45;&gt;[root] var.az_1</title>
<path fill="none" stroke="#000000" d="M365.1968,-449.1192C381.0498,-439.2794 401.2278,-426.7551 418.3422,-416.1324"/>
<polygon fill="#000000" stroke="#000000" points="420.3229,-419.0225 426.9735,-410.775 416.6313,-413.075 420.3229,-419.0225"/>
</g>
<!-- [root] aws_subnet.subnet_2&#45;&gt;[root] provider.aws -->
<g id="edge_20" class="edge">
<title>[root] aws_subnet.subnet_2&#45;&gt;[root] provider.aws</title>
<path fill="none" stroke="#000000" d="M253.6352,-447.8314C248.0491,-439.6232 241.337,-429.7606 235.1928,-420.7323"/>
<polygon fill="#000000" stroke="#000000" points="238.051,-418.7112 229.5313,-412.4133 232.264,-422.6496 238.051,-418.7112"/>
</g>
<!-- [root] aws_subnet.subnet_2&#45;&gt;[root] var.vpc_id -->
<g id="edge_23" class="edge">
<title>[root] aws_subnet.subnet_2&#45;&gt;[root] var.vpc_id</title>
<path fill="none" stroke="#000000" d="M271.8039,-447.8314C274.2908,-440.0463 277.2531,-430.7729 280.0125,-422.1347"/>
<polygon fill="#000000" stroke="#000000" points="283.409,-423.0041 283.118,-412.4133 276.7409,-420.874 283.409,-423.0041"/>
</g>
<!-- [root] var.az_2 -->
<g id="node_19" class="node">
<title>[root] var.az_2</title>
<polygon fill="none" stroke="#000000" points="351,-394 351,-409 376,-409 376,-394 351,-394"/>
<text text-anchor="start" x="356.2988" y="-399.6" font-family="courier new" font-size="8.00" fill="#000000">var</text>
<polygon fill="none" stroke="#000000" points="351,-379 351,-394 376,-394 376,-379 351,-379"/>
<text text-anchor="start" x="353.8984" y="-384.6" font-family="courier new" font-size="8.00" fill="#000000">az_2</text>
</g>
<!-- [root] aws_subnet.subnet_2&#45;&gt;[root] var.az_2 -->
<g id="edge_21" class="edge">
<title>[root] aws_subnet.subnet_2&#45;&gt;[root] var.az_2</title>
<path fill="none" stroke="#000000" d="M290.4772,-447.8314C302.5395,-438.8779 317.254,-427.9558 330.2686,-418.2955"/>
<polygon fill="#000000" stroke="#000000" points="332.587,-420.9335 338.5306,-412.1628 328.4148,-415.3127 332.587,-420.9335"/>
</g>
<!-- [root] meta.count&#45;boundary (count boundary fixup) -->
<g id="node_21" class="node">
<title>[root] meta.count&#45;boundary (count boundary fixup)</title>
<polygon fill="none" stroke="#000000" points="158,-826 158,-841 231,-841 231,-826 158,-826"/>
<text text-anchor="start" x="184.8984" y="-831.6" font-family="courier new" font-size="8.00" fill="#000000">meta</text>
<polygon fill="none" stroke="#000000" points="158,-811 158,-826 231,-826 231,-811 158,-811"/>
<text text-anchor="start" x="160.8945" y="-816.6" font-family="courier new" font-size="8.00" fill="#000000">count&#45;boundary</text>
</g>
<!-- [root] output.db_instance_address -->
<g id="node_22" class="node">
<title>[root] output.db_instance_address</title>
<polygon fill="none" stroke="#000000" points="141,-754 141,-769 238,-769 238,-754 141,-754"/>
<text text-anchor="start" x="175.0977" y="-759.6" font-family="courier new" font-size="8.00" fill="#000000">output</text>
<polygon fill="none" stroke="#000000" points="141,-739 141,-754 238,-754 238,-739 141,-739"/>
<text text-anchor="start" x="143.8926" y="-744.6" font-family="courier new" font-size="8.00" fill="#000000">db_instance_address</text>
</g>
<!-- [root] meta.count&#45;boundary (count boundary fixup)&#45;&gt;[root] output.db_instance_address -->
<g id="edge_24" class="edge">
<title>[root] meta.count&#45;boundary (count boundary fixup)&#45;&gt;[root] output.db_instance_address</title>
<path fill="none" stroke="#000000" d="M192.7383,-807.8314C192.2035,-800.131 191.5677,-790.9743 190.9734,-782.4166"/>
<polygon fill="#000000" stroke="#000000" points="194.4632,-782.1467 190.2787,-772.4133 187.48,-782.6317 194.4632,-782.1467"/>
</g>
<!-- [root] output.subnet_group -->
<g id="node_24" class="node">
<title>[root] output.subnet_group</title>
<polygon fill="none" stroke="#000000" points="235,-610 235,-625 298,-625 298,-610 235,-610"/>
<text text-anchor="start" x="252.0977" y="-615.6" font-family="courier new" font-size="8.00" fill="#000000">output</text>
<polygon fill="none" stroke="#000000" points="235,-595 235,-610 298,-610 298,-595 235,-595"/>
<text text-anchor="start" x="237.6953" y="-600.6" font-family="courier new" font-size="8.00" fill="#000000">subnet_group</text>
</g>
<!-- [root] meta.count&#45;boundary (count boundary fixup)&#45;&gt;[root] output.subnet_group -->
<g id="edge_26" class="edge">
<title>[root] meta.count&#45;boundary (count boundary fixup)&#45;&gt;[root] output.subnet_group</title>
<path fill="none" stroke="#000000" d="M224.4633,-807.9505C234.259,-800.5596 244.0956,-791.1102 250,-780 273.9542,-734.926 272.9233,-673.5781 269.6807,-638.2397"/>
<polygon fill="#000000" stroke="#000000" points="273.1473,-637.7373 268.6286,-628.1544 266.1851,-638.4636 273.1473,-637.7373"/>
</g>
<!-- [root] provider.aws (close) -->
<g id="node_25" class="node">
<title>[root] provider.aws (close)</title>
<polygon fill="none" stroke="#000000" points="90,-826 90,-841 134,-841 134,-826 90,-826"/>
<text text-anchor="start" x="92.7969" y="-831.6" font-family="courier new" font-size="8.00" fill="#000000">provider</text>
<polygon fill="none" stroke="#000000" points="90,-811 90,-826 134,-826 134,-811 90,-811"/>
<text text-anchor="start" x="104.7988" y="-816.6" font-family="courier new" font-size="8.00" fill="#000000">aws</text>
</g>
<!-- [root] provider.aws (close)&#45;&gt;[root] aws_db_instance.default -->
<g id="edge_30" class="edge">
<title>[root] provider.aws (close)&#45;&gt;[root] aws_db_instance.default</title>
<path fill="none" stroke="#000000" d="M109.7829,-807.8103C106.67,-775.4939 103.8188,-706.7051 128,-656 131.5939,-648.4641 136.9695,-641.48 142.8157,-635.3475"/>
<polygon fill="#000000" stroke="#000000" points="145.606,-637.519 150.3739,-628.0576 140.7464,-632.4806 145.606,-637.519"/>
</g>
<!-- [root] root -->
<g id="node_26" class="node">
<title>[root] root</title>
<polygon fill="none" stroke="#000000" points="187.3089,-916 118.6911,-916 118.6911,-880 187.3089,-880 187.3089,-916"/>
<text text-anchor="middle" x="153" y="-896.1313" font-family="courier new" font-size="8.00" fill="#000000">[root] root</text>
</g>
<!-- [root] root&#45;&gt;[root] meta.count&#45;boundary (count boundary fixup) -->
<g id="edge_31" class="edge">
<title>[root] root&#45;&gt;[root] meta.count&#45;boundary (count boundary fixup)</title>
<path fill="none" stroke="#000000" d="M163.346,-879.8314C167.9237,-871.7925 173.4052,-862.1666 178.4588,-853.2918"/>
<polygon fill="#000000" stroke="#000000" points="181.6077,-854.8351 183.5147,-844.4133 175.5248,-851.3712 181.6077,-854.8351"/>
</g>
<!-- [root] root&#45;&gt;[root] provider.aws (close) -->
<g id="edge_32" class="edge">
<title>[root] root&#45;&gt;[root] provider.aws (close)</title>
<path fill="none" stroke="#000000" d="M142.654,-879.8314C138.0763,-871.7925 132.5948,-862.1666 127.5412,-853.2918"/>
<polygon fill="#000000" stroke="#000000" points="130.4752,-851.3712 122.4853,-844.4133 124.3923,-854.8351 130.4752,-851.3712"/>
</g>
<!-- [root] var.engine -->
<g id="node_7" class="node">
<title>[root] var.engine</title>
<polygon fill="none" stroke="#000000" points="41,-466 41,-481 75,-481 75,-466 41,-466"/>
<text text-anchor="start" x="50.7988" y="-471.6" font-family="courier new" font-size="8.00" fill="#000000">var</text>
<polygon fill="none" stroke="#000000" points="41,-451 41,-466 75,-466 75,-451 41,-451"/>
<text text-anchor="start" x="43.5977" y="-456.6" font-family="courier new" font-size="8.00" fill="#000000">engine</text>
</g>
<!-- [root] var.db_name&#45;&gt;[root] var.engine -->
<g id="edge_82" class="edge">
<title>[root] var.db_name&#45;&gt;[root] var.engine</title>
<path fill="none" stroke="#000000" stroke-dasharray="5,2" d="M59.4953,-519.8314C59.1944,-509 58.8135,-495.2876 58.5115,-484.4133"/>
</g>
<!-- [root] var.engine_version -->
<g id="node_8" class="node">
<title>[root] var.engine_version</title>
<polygon fill="none" stroke="#000000" points="17,-394 17,-409 90,-409 90,-394 17,-394"/>
<text text-anchor="start" x="46.2988" y="-399.6" font-family="courier new" font-size="8.00" fill="#000000">var</text>
<polygon fill="none" stroke="#000000" points="17,-379 17,-394 90,-394 90,-379 17,-379"/>
<text text-anchor="start" x="19.8945" y="-384.6" font-family="courier new" font-size="8.00" fill="#000000">engine_version</text>
</g>
<!-- [root] var.engine&#45;&gt;[root] var.engine_version -->
<g id="edge_83" class="edge">
<title>[root] var.engine&#45;&gt;[root] var.engine_version</title>
<path fill="none" stroke="#000000" stroke-dasharray="5,2" d="M56.7383,-447.8314C55.9861,-437 55.0339,-423.2876 54.2787,-412.4133"/>
</g>
<!-- [root] var.identifier -->
<g id="node_9" class="node">
<title>[root] var.identifier</title>
<polygon fill="none" stroke="#000000" points="26,-322 26,-337 80,-337 80,-322 26,-322"/>
<text text-anchor="start" x="45.7988" y="-327.6" font-family="courier new" font-size="8.00" fill="#000000">var</text>
<polygon fill="none" stroke="#000000" points="26,-307 26,-322 80,-322 80,-307 26,-307"/>
<text text-anchor="start" x="28.9961" y="-312.6" font-family="courier new" font-size="8.00" fill="#000000">identifier</text>
</g>
<!-- [root] var.engine_version&#45;&gt;[root] var.identifier -->
<g id="edge_84" class="edge">
<title>[root] var.engine_version&#45;&gt;[root] var.identifier</title>
<path fill="none" stroke="#000000" stroke-dasharray="5,2" d="M53,-375.8314C53,-365 53,-351.2876 53,-340.4133"/>
</g>
<!-- [root] var.instance_class -->
<g id="node_10" class="node">
<title>[root] var.instance_class</title>
<polygon fill="none" stroke="#000000" points="17,-250 17,-265 90,-265 90,-250 17,-250"/>
<text text-anchor="start" x="46.2988" y="-255.6" font-family="courier new" font-size="8.00" fill="#000000">var</text>
<polygon fill="none" stroke="#000000" points="17,-235 17,-250 90,-250 90,-235 17,-235"/>
<text text-anchor="start" x="19.8945" y="-240.6" font-family="courier new" font-size="8.00" fill="#000000">instance_class</text>
</g>
<!-- [root] var.identifier&#45;&gt;[root] var.instance_class -->
<g id="edge_85" class="edge">
<title>[root] var.identifier&#45;&gt;[root] var.instance_class</title>
<path fill="none" stroke="#000000" stroke-dasharray="5,2" d="M53,-303.8314C53,-293 53,-279.2876 53,-268.4133"/>
</g>
<!-- [root] var.password -->
<g id="node_11" class="node">
<title>[root] var.password</title>
<polygon fill="none" stroke="#000000" points="31,-178 31,-193 75,-193 75,-178 31,-178"/>
<text text-anchor="start" x="45.7988" y="-183.6" font-family="courier new" font-size="8.00" fill="#000000">var</text>
<polygon fill="none" stroke="#000000" points="31,-163 31,-178 75,-178 75,-163 31,-163"/>
<text text-anchor="start" x="33.7969" y="-168.6" font-family="courier new" font-size="8.00" fill="#000000">password</text>
</g>
<!-- [root] var.instance_class&#45;&gt;[root] var.password -->
<g id="edge_86" class="edge">
<title>[root] var.instance_class&#45;&gt;[root] var.password</title>
<path fill="none" stroke="#000000" stroke-dasharray="5,2" d="M53,-231.8314C53,-221 53,-207.2876 53,-196.4133"/>
</g>
<!-- [root] var.storage -->
<g id="node_12" class="node">
<title>[root] var.storage</title>
<polygon fill="none" stroke="#000000" points="34,-106 34,-121 73,-121 73,-106 34,-106"/>
<text text-anchor="start" x="46.2988" y="-111.6" font-family="courier new" font-size="8.00" fill="#000000">var</text>
<polygon fill="none" stroke="#000000" points="34,-91 34,-106 73,-106 73,-91 34,-91"/>
<text text-anchor="start" x="36.6973" y="-96.6" font-family="courier new" font-size="8.00" fill="#000000">storage</text>
</g>
<!-- [root] var.password&#45;&gt;[root] var.storage -->
<g id="edge_87" class="edge">
<title>[root] var.password&#45;&gt;[root] var.storage</title>
<path fill="none" stroke="#000000" stroke-dasharray="5,2" d="M53,-159.8314C53,-149 53,-135.2876 53,-124.4133"/>
</g>
<!-- [root] var.username -->
<g id="node_13" class="node">
<title>[root] var.username</title>
<polygon fill="none" stroke="#000000" points="31,-34 31,-49 75,-49 75,-34 31,-34"/>
<text text-anchor="start" x="45.7988" y="-39.6" font-family="courier new" font-size="8.00" fill="#000000">var</text>
<polygon fill="none" stroke="#000000" points="31,-19 31,-34 75,-34 75,-19 31,-19"/>
<text text-anchor="start" x="33.7969" y="-24.6" font-family="courier new" font-size="8.00" fill="#000000">username</text>
</g>
<!-- [root] var.storage&#45;&gt;[root] var.username -->
<g id="edge_88" class="edge">
<title>[root] var.storage&#45;&gt;[root] var.username</title>
<path fill="none" stroke="#000000" stroke-dasharray="5,2" d="M53,-87.8314C53,-77 53,-63.2876 53,-52.4133"/>
</g>
<!-- [root] var.sg_name -->
<g id="node_15" class="node">
<title>[root] var.sg_name</title>
<polygon fill="none" stroke="#000000" points="124,-322 124,-337 163,-337 163,-322 124,-322"/>
<text text-anchor="start" x="136.2988" y="-327.6" font-family="courier new" font-size="8.00" fill="#000000">var</text>
<polygon fill="none" stroke="#000000" points="124,-307 124,-322 163,-322 163,-307 124,-307"/>
<text text-anchor="start" x="126.6973" y="-312.6" font-family="courier new" font-size="8.00" fill="#000000">sg_name</text>
</g>
<!-- [root] var.cidr_blocks&#45;&gt;[root] var.sg_name -->
<g id="edge_90" class="edge">
<title>[root] var.cidr_blocks&#45;&gt;[root] var.sg_name</title>
<path fill="none" stroke="#000000" stroke-dasharray="5,2" d="M143,-375.8314C143,-365 143,-351.2876 143,-340.4133"/>
</g>
<!-- [root] var.subnet_1_cidr -->
<g id="node_18" class="node">
<title>[root] var.subnet_1_cidr</title>
<polygon fill="none" stroke="#000000" points="424,-322 424,-337 492,-337 492,-322 424,-322"/>
<text text-anchor="start" x="450.7988" y="-327.6" font-family="courier new" font-size="8.00" fill="#000000">var</text>
<polygon fill="none" stroke="#000000" points="424,-307 424,-322 492,-322 492,-307 424,-307"/>
<text text-anchor="start" x="426.7949" y="-312.6" font-family="courier new" font-size="8.00" fill="#000000">subnet_1_cidr</text>
</g>
<!-- [root] var.az_1&#45;&gt;[root] var.subnet_1_cidr -->
<g id="edge_92" class="edge">
<title>[root] var.az_1&#45;&gt;[root] var.subnet_1_cidr</title>
<path fill="none" stroke="#000000" stroke-dasharray="5,2" d="M455.0094,-375.8314C455.6111,-365 456.3729,-351.2876 456.977,-340.4133"/>
</g>
<!-- [root] var.subnet_2_cidr -->
<g id="node_20" class="node">
<title>[root] var.subnet_2_cidr</title>
<polygon fill="none" stroke="#000000" points="332,-322 332,-337 400,-337 400,-322 332,-322"/>
<text text-anchor="start" x="358.7988" y="-327.6" font-family="courier new" font-size="8.00" fill="#000000">var</text>
<polygon fill="none" stroke="#000000" points="332,-307 332,-322 400,-322 400,-307 332,-307"/>
<text text-anchor="start" x="334.7949" y="-312.6" font-family="courier new" font-size="8.00" fill="#000000">subnet_2_cidr</text>
</g>
<!-- [root] var.az_2&#45;&gt;[root] var.subnet_2_cidr -->
<g id="edge_94" class="edge">
<title>[root] var.az_2&#45;&gt;[root] var.subnet_2_cidr</title>
<path fill="none" stroke="#000000" stroke-dasharray="5,2" d="M363.757,-375.8314C364.2083,-365 364.7797,-351.2876 365.2328,-340.4133"/>
</g>
<!-- [root] output.db_instance_id -->
<g id="node_23" class="node">
<title>[root] output.db_instance_id</title>
<polygon fill="none" stroke="#000000" points="147,-682 147,-697 220,-697 220,-682 147,-682"/>
<text text-anchor="start" x="169.0977" y="-687.6" font-family="courier new" font-size="8.00" fill="#000000">output</text>
<polygon fill="none" stroke="#000000" points="147,-667 147,-682 220,-682 220,-667 147,-667"/>
<text text-anchor="start" x="149.8945" y="-672.6" font-family="courier new" font-size="8.00" fill="#000000">db_instance_id</text>
</g>
<!-- [root] output.db_instance_address&#45;&gt;[root] output.db_instance_id -->
<g id="edge_96" class="edge">
<title>[root] output.db_instance_address&#45;&gt;[root] output.db_instance_id</title>
<path fill="none" stroke="#000000" stroke-dasharray="5,2" d="M187.4859,-735.8314C186.5833,-725 185.4406,-711.2876 184.5344,-700.4133"/>
</g>
<!-- [root] output.db_instance_id&#45;&gt;[root] aws_db_instance.default -->
<g id="edge_28" class="edge">
<title>[root] output.db_instance_id&#45;&gt;[root] aws_db_instance.default</title>
<path fill="none" stroke="#000000" d="M180.9813,-663.8314C180.1257,-656.131 179.1083,-646.9743 178.1574,-638.4166"/>
<polygon fill="#000000" stroke="#000000" points="181.6289,-637.9656 177.0459,-628.4133 174.6717,-638.7386 181.6289,-637.9656"/>
</g>
<!-- [root] output.subnet_group&#45;&gt;[root] aws_db_subnet_group.default -->
<g id="edge_29" class="edge">
<title>[root] output.subnet_group&#45;&gt;[root] aws_db_subnet_group.default</title>
<path fill="none" stroke="#000000" d="M266,-591.8314C266,-584.131 266,-574.9743 266,-566.4166"/>
<polygon fill="#000000" stroke="#000000" points="269.5001,-566.4132 266,-556.4133 262.5001,-566.4133 269.5001,-566.4132"/>
</g>
</g>
</svg>

