<?xml version="1.0" encoding="UTF-8" standalone="no"?>
<!DOCTYPE svg PUBLIC "-//W3C//DTD SVG 1.1//EN"
 "http://www.w3.org/Graphics/SVG/1.1/DTD/svg11.dtd">
<!-- Generated by graphviz version 2.40.1 (20161225.0304)
 -->
<!-- Title: %3 Pages: 1 -->
<svg width="983pt" height="852pt"
 viewBox="0.00 0.00 983.00 852.00" xmlns="http://www.w3.org/2000/svg" xmlns:xlink="http://www.w3.org/1999/xlink">
<g id="graph0" class="graph" transform="scale(1 1) rotate(0) translate(4 848)">
<title>%3</title>
<polygon fill="#ffffff" stroke="transparent" points="-4,4 -4,-848 979,-848 979,4 -4,4"/>
<g id="clust2" class="cluster">
<title>cluster[root] provider.google_var_</title>
</g>
<g id="clust3" class="cluster">
<title>cluster[root] meta.count&#45;boundary (count boundary fixup)_output_[root] google_compute_forwarding_rule.my&#45;int&#45;lb&#45;forwarding&#45;rule</title>
</g>
<!-- [root] google_compute_firewall.allow&#45;all&#45;internal -->
<g id="node_0" class="node">
<title>[root] google_compute_firewall.allow&#45;all&#45;internal</title>
<polygon fill="none" stroke="#000000" points="268,-610 268,-625 384,-625 384,-610 268,-610"/>
<text text-anchor="start" x="270.791" y="-615.6" font-family="courier new" font-size="8.00" fill="#000000">google_compute_firewall</text>
<polygon fill="none" stroke="#000000" points="268,-595 268,-610 384,-610 384,-595 268,-595"/>
<text text-anchor="start" x="282.793" y="-600.6" font-family="courier new" font-size="8.00" fill="#000000">allow&#45;all&#45;internal</text>
</g>
<!-- [root] google_compute_network.my&#45;custom&#45;network -->
<g id="node_14" class="node">
<title>[root] google_compute_network.my&#45;custom&#45;network</title>
<polygon fill="none" stroke="#000000" points="221,-250 221,-265 332,-265 332,-250 221,-250"/>
<text text-anchor="start" x="223.6914" y="-255.6" font-family="courier new" font-size="8.00" fill="#000000">google_compute_network</text>
<polygon fill="none" stroke="#000000" points="221,-235 221,-250 332,-250 332,-235 221,-235"/>
<text text-anchor="start" x="235.6934" y="-240.6" font-family="courier new" font-size="8.00" fill="#000000">my&#45;custom&#45;network</text>
</g>
<!-- [root] google_compute_firewall.allow&#45;all&#45;internal&#45;&gt;[root] google_compute_network.my&#45;custom&#45;network -->
<g id="edge_0" class="edge">
<title>[root] google_compute_firewall.allow&#45;all&#45;internal&#45;&gt;[root] google_compute_network.my&#45;custom&#45;network</title>
<path fill="none" stroke="#000000" d="M297.6178,-591.9911C285.0205,-582.663 271.033,-570.2405 262,-556 239.8254,-521.0419 238,-507.3978 238,-466 238,-466 238,-466 238,-394 238,-352.3681 253.0328,-306.14 264.1881,-277.567"/>
<polygon fill="#000000" stroke="#000000" points="267.4578,-278.817 267.9412,-268.2332 260.9632,-276.2055 267.4578,-278.817"/>
</g>
<!-- [root] google_compute_firewall.allow&#45;health&#45;check -->
<g id="node_1" class="node">
<title>[root] google_compute_firewall.allow&#45;health&#45;check</title>
<polygon fill="none" stroke="#000000" points="402,-610 402,-625 518,-625 518,-610 402,-610"/>
<text text-anchor="start" x="404.791" y="-615.6" font-family="courier new" font-size="8.00" fill="#000000">google_compute_firewall</text>
<polygon fill="none" stroke="#000000" points="402,-595 402,-610 518,-610 518,-595 402,-595"/>
<text text-anchor="start" x="416.793" y="-600.6" font-family="courier new" font-size="8.00" fill="#000000">allow&#45;health&#45;check</text>
</g>
<!-- [root] google_compute_firewall.allow&#45;health&#45;check&#45;&gt;[root] google_compute_network.my&#45;custom&#45;network -->
<g id="edge_1" class="edge">
<title>[root] google_compute_firewall.allow&#45;health&#45;check&#45;&gt;[root] google_compute_network.my&#45;custom&#45;network</title>
<path fill="none" stroke="#000000" d="M402.0338,-591.9161C348.0998,-571.052 276,-531.004 276,-466 276,-466 276,-466 276,-394 276,-353.876 276,-307.4631 276,-278.4177"/>
<polygon fill="#000000" stroke="#000000" points="279.5001,-278.1853 276,-268.1854 272.5001,-278.1854 279.5001,-278.1853"/>
</g>
<!-- [root] google_compute_firewall.allow&#45;internal&#45;lb -->
<g id="node_2" class="node">
<title>[root] google_compute_firewall.allow&#45;internal&#45;lb</title>
<polygon fill="none" stroke="#000000" points="838,-610 838,-625 954,-625 954,-610 838,-610"/>
<text text-anchor="start" x="840.791" y="-615.6" font-family="courier new" font-size="8.00" fill="#000000">google_compute_firewall</text>
<polygon fill="none" stroke="#000000" points="838,-595 838,-610 954,-610 954,-595 838,-595"/>
<text text-anchor="start" x="855.1934" y="-600.6" font-family="courier new" font-size="8.00" fill="#000000">allow&#45;internal&#45;lb</text>
</g>
<!-- [root] google_compute_firewall.allow&#45;internal&#45;lb&#45;&gt;[root] google_compute_network.my&#45;custom&#45;network -->
<g id="edge_2" class="edge">
<title>[root] google_compute_firewall.allow&#45;internal&#45;lb&#45;&gt;[root] google_compute_network.my&#45;custom&#45;network</title>
<path fill="none" stroke="#000000" d="M913.9263,-591.7434C937.2346,-565.9886 975,-516.4717 975,-466 975,-466 975,-466 975,-394 975,-318.5282 902.4533,-328.2987 831,-304 742.0745,-273.7597 469.085,-258.3375 342.1599,-252.6439"/>
<polygon fill="#000000" stroke="#000000" points="341.9538,-249.1315 331.809,-252.1867 341.6448,-256.1247 341.9538,-249.1315"/>
</g>
<!-- [root] google_compute_firewall.allow&#45;ssh&#45;rdp&#45;icmp -->
<g id="node_3" class="node">
<title>[root] google_compute_firewall.allow&#45;ssh&#45;rdp&#45;icmp</title>
<polygon fill="none" stroke="#000000" points="0,-610 0,-625 116,-625 116,-610 0,-610"/>
<text text-anchor="start" x="2.791" y="-615.6" font-family="courier new" font-size="8.00" fill="#000000">google_compute_firewall</text>
<polygon fill="none" stroke="#000000" points="0,-595 0,-610 116,-610 116,-595 0,-595"/>
<text text-anchor="start" x="14.793" y="-600.6" font-family="courier new" font-size="8.00" fill="#000000">allow&#45;ssh&#45;rdp&#45;icmp</text>
</g>
<!-- [root] google_compute_firewall.allow&#45;ssh&#45;rdp&#45;icmp&#45;&gt;[root] google_compute_network.my&#45;custom&#45;network -->
<g id="edge_3" class="edge">
<title>[root] google_compute_firewall.allow&#45;ssh&#45;rdp&#45;icmp&#45;&gt;[root] google_compute_network.my&#45;custom&#45;network</title>
<path fill="none" stroke="#000000" d="M68.8493,-591.611C83.5547,-564.8991 108,-513.3709 108,-466 108,-466 108,-466 108,-394 108,-334.8142 168.8509,-294.7109 217.3081,-272.1585"/>
<polygon fill="#000000" stroke="#000000" points="218.8231,-275.3149 226.5031,-268.0164 215.948,-268.9326 218.8231,-275.3149"/>
</g>
<!-- [root] google_compute_firewall.allow&#45;ssh&#45;to&#45;standalone -->
<g id="node_4" class="node">
<title>[root] google_compute_firewall.allow&#45;ssh&#45;to&#45;standalone</title>
<polygon fill="none" stroke="#000000" points="134,-610 134,-625 250,-625 250,-610 134,-610"/>
<text text-anchor="start" x="136.791" y="-615.6" font-family="courier new" font-size="8.00" fill="#000000">google_compute_firewall</text>
<polygon fill="none" stroke="#000000" points="134,-595 134,-610 250,-610 250,-595 134,-595"/>
<text text-anchor="start" x="136.791" y="-600.6" font-family="courier new" font-size="8.00" fill="#000000">allow&#45;ssh&#45;to&#45;standalone</text>
</g>
<!-- [root] google_compute_firewall.allow&#45;ssh&#45;to&#45;standalone&#45;&gt;[root] google_compute_network.my&#45;custom&#45;network -->
<g id="edge_4" class="edge">
<title>[root] google_compute_firewall.allow&#45;ssh&#45;to&#45;standalone&#45;&gt;[root] google_compute_network.my&#45;custom&#45;network</title>
<path fill="none" stroke="#000000" d="M192.4144,-591.8157C193.0002,-564.5008 194,-511.2544 194,-466 194,-466 194,-466 194,-394 194,-347.6535 226.4722,-302.6131 250.548,-275.5884"/>
<polygon fill="#000000" stroke="#000000" points="253.2112,-277.8627 257.3929,-268.1281 248.0533,-273.1303 253.2112,-277.8627"/>
</g>
<!-- [root] google_compute_forwarding_rule.my&#45;int&#45;lb&#45;forwarding&#45;rule -->
<g id="node_5" class="node">
<title>[root] google_compute_forwarding_rule.my&#45;int&#45;lb&#45;forwarding&#45;rule</title>
<polygon fill="none" stroke="#000000" points="670,-610 670,-625 820,-625 820,-610 670,-610"/>
<text text-anchor="start" x="672.9883" y="-615.6" font-family="courier new" font-size="8.00" fill="#000000">google_compute_forwarding_rule</text>
<polygon fill="none" stroke="#000000" points="670,-595 670,-610 820,-610 820,-595 670,-595"/>
<text text-anchor="start" x="684.9902" y="-600.6" font-family="courier new" font-size="8.00" fill="#000000">my&#45;int&#45;lb&#45;forwarding&#45;rule</text>
</g>
<!-- [root] google_compute_region_backend_service.my&#45;int&#45;lb -->
<g id="node_15" class="node">
<title>[root] google_compute_region_backend_service.my&#45;int&#45;lb</title>
<polygon fill="none" stroke="#000000" points="651,-538 651,-553 834,-553 834,-538 651,-538"/>
<text text-anchor="start" x="653.6855" y="-543.6" font-family="courier new" font-size="8.00" fill="#000000">google_compute_region_backend_service</text>
<polygon fill="none" stroke="#000000" points="651,-523 651,-538 834,-538 834,-523 651,-523"/>
<text text-anchor="start" x="720.8965" y="-528.6" font-family="courier new" font-size="8.00" fill="#000000">my&#45;int&#45;lb</text>
</g>
<!-- [root] google_compute_forwarding_rule.my&#45;int&#45;lb&#45;forwarding&#45;rule&#45;&gt;[root] google_compute_region_backend_service.my&#45;int&#45;lb -->
<g id="edge_5" class="edge">
<title>[root] google_compute_forwarding_rule.my&#45;int&#45;lb&#45;forwarding&#45;rule&#45;&gt;[root] google_compute_region_backend_service.my&#45;int&#45;lb</title>
<path fill="none" stroke="#000000" d="M744.243,-591.8314C743.9221,-584.131 743.5406,-574.9743 743.184,-566.4166"/>
<polygon fill="#000000" stroke="#000000" points="746.6806,-566.2589 742.7672,-556.4133 739.6867,-566.5503 746.6806,-566.2589"/>
</g>
<!-- [root] google_compute_health_check.my&#45;tcp&#45;health&#45;check -->
<g id="node_6" class="node">
<title>[root] google_compute_health_check.my&#45;tcp&#45;health&#45;check</title>
<polygon fill="none" stroke="#000000" points="812,-466 812,-481 947,-481 947,-466 812,-466"/>
<text text-anchor="start" x="814.6895" y="-471.6" font-family="courier new" font-size="8.00" fill="#000000">google_compute_health_check</text>
<polygon fill="none" stroke="#000000" points="812,-451 812,-466 947,-466 947,-451 812,-451"/>
<text text-anchor="start" x="833.8926" y="-456.6" font-family="courier new" font-size="8.00" fill="#000000">my&#45;tcp&#45;health&#45;check</text>
</g>
<!-- [root] provider.google -->
<g id="node_17" class="node">
<title>[root] provider.google</title>
<polygon fill="none" stroke="#000000" points="457,-178 457,-193 501,-193 501,-178 457,-178"/>
<text text-anchor="start" x="459.7969" y="-183.6" font-family="courier new" font-size="8.00" fill="#000000">provider</text>
<polygon fill="none" stroke="#000000" points="457,-163 457,-178 501,-178 501,-163 457,-163"/>
<text text-anchor="start" x="464.5977" y="-168.6" font-family="courier new" font-size="8.00" fill="#000000">google</text>
</g>
<!-- [root] google_compute_health_check.my&#45;tcp&#45;health&#45;check&#45;&gt;[root] provider.google -->
<g id="edge_6" class="edge">
<title>[root] google_compute_health_check.my&#45;tcp&#45;health&#45;check&#45;&gt;[root] provider.google</title>
<path fill="none" stroke="#000000" d="M892.2238,-447.6701C903.8215,-429.1948 917.3453,-400.0514 907,-376 888.615,-333.2574 870.6412,-328.3621 831,-304 726.0166,-239.4808 583.1621,-201.3615 516.3394,-185.9685"/>
<polygon fill="#000000" stroke="#000000" points="516.811,-182.4867 506.285,-183.6925 515.2655,-189.314 516.811,-182.4867"/>
</g>
<!-- [root] google_compute_instance.ilb&#45;instance&#45;1 -->
<g id="node_7" class="node">
<title>[root] google_compute_instance.ilb&#45;instance&#45;1</title>
<polygon fill="none" stroke="#000000" points="342,-394 342,-409 458,-409 458,-394 342,-394"/>
<text text-anchor="start" x="344.791" y="-399.6" font-family="courier new" font-size="8.00" fill="#000000">google_compute_instance</text>
<polygon fill="none" stroke="#000000" points="342,-379 342,-394 458,-394 458,-379 342,-379"/>
<text text-anchor="start" x="366.3945" y="-384.6" font-family="courier new" font-size="8.00" fill="#000000">ilb&#45;instance&#45;1</text>
</g>
<!-- [root] google_compute_subnetwork.my&#45;custom&#45;subnet -->
<g id="node_16" class="node">
<title>[root] google_compute_subnetwork.my&#45;custom&#45;subnet</title>
<polygon fill="none" stroke="#000000" points="514,-322 514,-337 640,-337 640,-322 514,-322"/>
<text text-anchor="start" x="516.9902" y="-327.6" font-family="courier new" font-size="8.00" fill="#000000">google_compute_subnetwork</text>
<polygon fill="none" stroke="#000000" points="514,-307 514,-322 640,-322 640,-307 514,-307"/>
<text text-anchor="start" x="538.5938" y="-312.6" font-family="courier new" font-size="8.00" fill="#000000">my&#45;custom&#45;subnet</text>
</g>
<!-- [root] google_compute_instance.ilb&#45;instance&#45;1&#45;&gt;[root] google_compute_subnetwork.my&#45;custom&#45;subnet -->
<g id="edge_7" class="edge">
<title>[root] google_compute_instance.ilb&#45;instance&#45;1&#45;&gt;[root] google_compute_subnetwork.my&#45;custom&#45;subnet</title>
<path fill="none" stroke="#000000" d="M444.6646,-375.8314C468.5477,-366.1162 498.129,-354.0831 523.2628,-343.8592"/>
<polygon fill="#000000" stroke="#000000" points="524.7125,-347.0481 532.6566,-340.038 522.0748,-340.564 524.7125,-347.0481"/>
</g>
<!-- [root] var.region_zone -->
<g id="node_18" class="node">
<title>[root] var.region_zone</title>
<polygon fill="none" stroke="#000000" points="371,-322 371,-337 429,-337 429,-322 371,-322"/>
<text text-anchor="start" x="392.7988" y="-327.6" font-family="courier new" font-size="8.00" fill="#000000">var</text>
<polygon fill="none" stroke="#000000" points="371,-307 371,-322 429,-322 429,-307 371,-307"/>
<text text-anchor="start" x="373.5957" y="-312.6" font-family="courier new" font-size="8.00" fill="#000000">region_zone</text>
</g>
<!-- [root] google_compute_instance.ilb&#45;instance&#45;1&#45;&gt;[root] var.region_zone -->
<g id="edge_8" class="edge">
<title>[root] google_compute_instance.ilb&#45;instance&#45;1&#45;&gt;[root] var.region_zone</title>
<path fill="none" stroke="#000000" d="M400,-375.8314C400,-368.131 400,-358.9743 400,-350.4166"/>
<polygon fill="#000000" stroke="#000000" points="403.5001,-350.4132 400,-340.4133 396.5001,-350.4133 403.5001,-350.4132"/>
</g>
<!-- [root] google_compute_instance.ilb&#45;instance&#45;2 -->
<g id="node_8" class="node">
<title>[root] google_compute_instance.ilb&#45;instance&#45;2</title>
<polygon fill="none" stroke="#000000" points="476,-394 476,-409 592,-409 592,-394 476,-394"/>
<text text-anchor="start" x="478.791" y="-399.6" font-family="courier new" font-size="8.00" fill="#000000">google_compute_instance</text>
<polygon fill="none" stroke="#000000" points="476,-379 476,-394 592,-394 592,-379 476,-379"/>
<text text-anchor="start" x="500.3945" y="-384.6" font-family="courier new" font-size="8.00" fill="#000000">ilb&#45;instance&#45;2</text>
</g>
<!-- [root] google_compute_instance.ilb&#45;instance&#45;2&#45;&gt;[root] google_compute_subnetwork.my&#45;custom&#45;subnet -->
<g id="edge_9" class="edge">
<title>[root] google_compute_instance.ilb&#45;instance&#45;2&#45;&gt;[root] google_compute_subnetwork.my&#45;custom&#45;subnet</title>
<path fill="none" stroke="#000000" d="M544.8507,-375.8314C549.7023,-367.7079 555.5217,-357.9637 560.868,-349.0118"/>
<polygon fill="#000000" stroke="#000000" points="563.8806,-350.7933 566.0032,-340.4133 557.8708,-347.2041 563.8806,-350.7933"/>
</g>
<!-- [root] google_compute_instance.ilb&#45;instance&#45;2&#45;&gt;[root] var.region_zone -->
<g id="edge_10" class="edge">
<title>[root] google_compute_instance.ilb&#45;instance&#45;2&#45;&gt;[root] var.region_zone</title>
<path fill="none" stroke="#000000" d="M500.1861,-375.8314C481.3113,-365.6897 457.7356,-353.0221 438.1965,-342.5235"/>
<polygon fill="#000000" stroke="#000000" points="439.7172,-339.3674 429.2516,-337.7173 436.4039,-345.5336 439.7172,-339.3674"/>
</g>
<!-- [root] google_compute_instance.ilb&#45;instance&#45;3 -->
<g id="node_9" class="node">
<title>[root] google_compute_instance.ilb&#45;instance&#45;3</title>
<polygon fill="none" stroke="#000000" points="648,-394 648,-409 764,-409 764,-394 648,-394"/>
<text text-anchor="start" x="650.791" y="-399.6" font-family="courier new" font-size="8.00" fill="#000000">google_compute_instance</text>
<polygon fill="none" stroke="#000000" points="648,-379 648,-394 764,-394 764,-379 648,-379"/>
<text text-anchor="start" x="672.3945" y="-384.6" font-family="courier new" font-size="8.00" fill="#000000">ilb&#45;instance&#45;3</text>
</g>
<!-- [root] google_compute_instance.ilb&#45;instance&#45;3&#45;&gt;[root] google_compute_subnetwork.my&#45;custom&#45;subnet -->
<g id="edge_11" class="edge">
<title>[root] google_compute_instance.ilb&#45;instance&#45;3&#45;&gt;[root] google_compute_subnetwork.my&#45;custom&#45;subnet</title>
<path fill="none" stroke="#000000" d="M673.4479,-375.8314C656.7952,-366.5368 636.3415,-355.1208 618.5615,-345.1971"/>
<polygon fill="#000000" stroke="#000000" points="619.9795,-341.9803 609.5417,-340.1628 616.5679,-348.0927 619.9795,-341.9803"/>
</g>
<!-- [root] var.region_zone_2 -->
<g id="node_19" class="node">
<title>[root] var.region_zone_2</title>
<polygon fill="none" stroke="#000000" points="754,-322 754,-337 822,-337 822,-322 754,-322"/>
<text text-anchor="start" x="780.7988" y="-327.6" font-family="courier new" font-size="8.00" fill="#000000">var</text>
<polygon fill="none" stroke="#000000" points="754,-307 754,-322 822,-322 822,-307 754,-307"/>
<text text-anchor="start" x="756.7949" y="-312.6" font-family="courier new" font-size="8.00" fill="#000000">region_zone_2</text>
</g>
<!-- [root] google_compute_instance.ilb&#45;instance&#45;3&#45;&gt;[root] var.region_zone_2 -->
<g id="edge_12" class="edge">
<title>[root] google_compute_instance.ilb&#45;instance&#45;3&#45;&gt;[root] var.region_zone_2</title>
<path fill="none" stroke="#000000" d="M726.6921,-375.8314C736.6948,-367.0485 748.855,-356.3712 759.6999,-346.8489"/>
<polygon fill="#000000" stroke="#000000" points="762.1094,-349.3909 767.3146,-340.1628 757.4908,-344.1308 762.1094,-349.3909"/>
</g>
<!-- [root] google_compute_instance.ilb&#45;instance&#45;4 -->
<g id="node_10" class="node">
<title>[root] google_compute_instance.ilb&#45;instance&#45;4</title>
<polygon fill="none" stroke="#000000" points="782,-394 782,-409 898,-409 898,-394 782,-394"/>
<text text-anchor="start" x="784.791" y="-399.6" font-family="courier new" font-size="8.00" fill="#000000">google_compute_instance</text>
<polygon fill="none" stroke="#000000" points="782,-379 782,-394 898,-394 898,-379 782,-379"/>
<text text-anchor="start" x="806.3945" y="-384.6" font-family="courier new" font-size="8.00" fill="#000000">ilb&#45;instance&#45;4</text>
</g>
<!-- [root] google_compute_instance.ilb&#45;instance&#45;4&#45;&gt;[root] google_compute_subnetwork.my&#45;custom&#45;subnet -->
<g id="edge_13" class="edge">
<title>[root] google_compute_instance.ilb&#45;instance&#45;4&#45;&gt;[root] google_compute_subnetwork.my&#45;custom&#45;subnet</title>
<path fill="none" stroke="#000000" d="M781.958,-378.1102C743.1658,-367.4903 691.8164,-353.4326 650.2201,-342.045"/>
<polygon fill="#000000" stroke="#000000" points="650.9847,-338.6257 640.4155,-339.3609 649.1364,-345.3772 650.9847,-338.6257"/>
</g>
<!-- [root] google_compute_instance.ilb&#45;instance&#45;4&#45;&gt;[root] var.region_zone_2 -->
<g id="edge_14" class="edge">
<title>[root] google_compute_instance.ilb&#45;instance&#45;4&#45;&gt;[root] var.region_zone_2</title>
<path fill="none" stroke="#000000" d="M826.8782,-375.8314C820.9501,-367.6232 813.8271,-357.7606 807.3067,-348.7323"/>
<polygon fill="#000000" stroke="#000000" points="809.9908,-346.4708 801.2985,-340.4133 804.316,-350.5693 809.9908,-346.4708"/>
</g>
<!-- [root] google_compute_instance.standalone&#45;instance&#45;1 -->
<g id="node_11" class="node">
<title>[root] google_compute_instance.standalone&#45;instance&#45;1</title>
<polygon fill="none" stroke="#000000" points="536,-610 536,-625 652,-625 652,-610 536,-610"/>
<text text-anchor="start" x="538.791" y="-615.6" font-family="courier new" font-size="8.00" fill="#000000">google_compute_instance</text>
<polygon fill="none" stroke="#000000" points="536,-595 536,-610 652,-610 652,-595 536,-595"/>
<text text-anchor="start" x="543.5918" y="-600.6" font-family="courier new" font-size="8.00" fill="#000000">standalone&#45;instance&#45;1</text>
</g>
<!-- [root] google_compute_instance.standalone&#45;instance&#45;1&#45;&gt;[root] google_compute_subnetwork.my&#45;custom&#45;subnet -->
<g id="edge_15" class="edge">
<title>[root] google_compute_instance.standalone&#45;instance&#45;1&#45;&gt;[root] google_compute_subnetwork.my&#45;custom&#45;subnet</title>
<path fill="none" stroke="#000000" d="M597.4355,-591.8319C604.3148,-552.14 617.7478,-454.9192 601,-376 599.1019,-367.0557 595.6165,-357.7941 591.8791,-349.5203"/>
<polygon fill="#000000" stroke="#000000" points="594.9495,-347.8294 587.4559,-340.3395 588.6432,-350.8676 594.9495,-347.8294"/>
</g>
<!-- [root] google_compute_instance.standalone&#45;instance&#45;1&#45;&gt;[root] var.region_zone -->
<g id="edge_16" class="edge">
<title>[root] google_compute_instance.standalone&#45;instance&#45;1&#45;&gt;[root] var.region_zone</title>
<path fill="none" stroke="#000000" d="M549.9148,-591.9028C488.1493,-563.8255 378.3427,-503.3117 333,-412 325.8839,-397.6696 326.0952,-390.4334 333,-376 339.3813,-362.6611 350.8434,-351.5646 362.5037,-342.9704"/>
<polygon fill="#000000" stroke="#000000" points="364.7009,-345.7073 370.9594,-337.1586 360.7358,-339.9386 364.7009,-345.7073"/>
</g>
<!-- [root] google_compute_instance_group.us&#45;ig1 -->
<g id="node_12" class="node">
<title>[root] google_compute_instance_group.us&#45;ig1</title>
<polygon fill="none" stroke="#000000" points="447,-466 447,-481 592,-481 592,-466 447,-466"/>
<text text-anchor="start" x="449.8887" y="-471.6" font-family="courier new" font-size="8.00" fill="#000000">google_compute_instance_group</text>
<polygon fill="none" stroke="#000000" points="447,-451 447,-466 592,-466 592,-451 447,-451"/>
<text text-anchor="start" x="505.0977" y="-456.6" font-family="courier new" font-size="8.00" fill="#000000">us&#45;ig1</text>
</g>
<!-- [root] google_compute_instance_group.us&#45;ig1&#45;&gt;[root] google_compute_instance.ilb&#45;instance&#45;1 -->
<g id="edge_17" class="edge">
<title>[root] google_compute_instance_group.us&#45;ig1&#45;&gt;[root] google_compute_instance.ilb&#45;instance&#45;1</title>
<path fill="none" stroke="#000000" d="M488.9713,-447.8314C473.7504,-438.6221 455.0872,-427.3301 438.7917,-417.4706"/>
<polygon fill="#000000" stroke="#000000" points="440.3868,-414.345 430.0191,-412.1628 436.7631,-420.3341 440.3868,-414.345"/>
</g>
<!-- [root] google_compute_instance_group.us&#45;ig1&#45;&gt;[root] google_compute_instance.ilb&#45;instance&#45;2 -->
<g id="edge_18" class="edge">
<title>[root] google_compute_instance_group.us&#45;ig1&#45;&gt;[root] google_compute_instance.ilb&#45;instance&#45;2</title>
<path fill="none" stroke="#000000" d="M522.7851,-447.8314C524.3894,-440.131 526.297,-430.9743 528.0799,-422.4166"/>
<polygon fill="#000000" stroke="#000000" points="531.5507,-422.9169 530.1639,-412.4133 524.6979,-421.4892 531.5507,-422.9169"/>
</g>
<!-- [root] google_compute_instance_group.us&#45;ig2 -->
<g id="node_13" class="node">
<title>[root] google_compute_instance_group.us&#45;ig2</title>
<polygon fill="none" stroke="#000000" points="649,-466 649,-481 794,-481 794,-466 649,-466"/>
<text text-anchor="start" x="651.8887" y="-471.6" font-family="courier new" font-size="8.00" fill="#000000">google_compute_instance_group</text>
<polygon fill="none" stroke="#000000" points="649,-451 649,-466 794,-466 794,-451 649,-451"/>
<text text-anchor="start" x="707.0977" y="-456.6" font-family="courier new" font-size="8.00" fill="#000000">us&#45;ig2</text>
</g>
<!-- [root] google_compute_instance_group.us&#45;ig2&#45;&gt;[root] google_compute_instance.ilb&#45;instance&#45;3 -->
<g id="edge_19" class="edge">
<title>[root] google_compute_instance_group.us&#45;ig2&#45;&gt;[root] google_compute_instance.ilb&#45;instance&#45;3</title>
<path fill="none" stroke="#000000" d="M717.2149,-447.8314C715.6106,-440.131 713.703,-430.9743 711.9201,-422.4166"/>
<polygon fill="#000000" stroke="#000000" points="715.3021,-421.4892 709.8361,-412.4133 708.4493,-422.9169 715.3021,-421.4892"/>
</g>
<!-- [root] google_compute_instance_group.us&#45;ig2&#45;&gt;[root] google_compute_instance.ilb&#45;instance&#45;4 -->
<g id="edge_20" class="edge">
<title>[root] google_compute_instance_group.us&#45;ig2&#45;&gt;[root] google_compute_instance.ilb&#45;instance&#45;4</title>
<path fill="none" stroke="#000000" d="M751.0287,-447.8314C766.2496,-438.6221 784.9128,-427.3301 801.2083,-417.4706"/>
<polygon fill="#000000" stroke="#000000" points="803.2369,-420.3341 809.9809,-412.1628 799.6132,-414.345 803.2369,-420.3341"/>
</g>
<!-- [root] google_compute_network.my&#45;custom&#45;network&#45;&gt;[root] provider.google -->
<g id="edge_21" class="edge">
<title>[root] google_compute_network.my&#45;custom&#45;network&#45;&gt;[root] provider.google</title>
<path fill="none" stroke="#000000" d="M326.9634,-231.9243C362.8323,-219.2023 410.0057,-202.4709 442.235,-191.0398"/>
<polygon fill="#000000" stroke="#000000" points="443.4736,-194.3142 451.7283,-187.6727 441.1336,-187.7169 443.4736,-194.3142"/>
</g>
<!-- [root] google_compute_region_backend_service.my&#45;int&#45;lb&#45;&gt;[root] google_compute_health_check.my&#45;tcp&#45;health&#45;check -->
<g id="edge_22" class="edge">
<title>[root] google_compute_region_backend_service.my&#45;int&#45;lb&#45;&gt;[root] google_compute_health_check.my&#45;tcp&#45;health&#45;check</title>
<path fill="none" stroke="#000000" d="M776.5709,-519.8314C794.4185,-510.4516 816.3774,-498.9112 835.38,-488.9244"/>
<polygon fill="#000000" stroke="#000000" points="837.2164,-491.9132 844.4402,-484.1628 833.9599,-485.7168 837.2164,-491.9132"/>
</g>
<!-- [root] google_compute_region_backend_service.my&#45;int&#45;lb&#45;&gt;[root] google_compute_instance_group.us&#45;ig1 -->
<g id="edge_23" class="edge">
<title>[root] google_compute_region_backend_service.my&#45;int&#45;lb&#45;&gt;[root] google_compute_instance_group.us&#45;ig1</title>
<path fill="none" stroke="#000000" d="M686.0155,-519.9243C655.265,-509.9959 616.9512,-497.6255 584.7795,-487.2382"/>
<polygon fill="#000000" stroke="#000000" points="585.5992,-483.825 575.0075,-484.0831 583.4484,-490.4864 585.5992,-483.825"/>
</g>
<!-- [root] google_compute_region_backend_service.my&#45;int&#45;lb&#45;&gt;[root] google_compute_instance_group.us&#45;ig2 -->
<g id="edge_24" class="edge">
<title>[root] google_compute_region_backend_service.my&#45;int&#45;lb&#45;&gt;[root] google_compute_instance_group.us&#45;ig2</title>
<path fill="none" stroke="#000000" d="M736.7008,-519.8314C734.4302,-512.0463 731.7254,-502.7729 729.206,-494.1347"/>
<polygon fill="#000000" stroke="#000000" points="732.5306,-493.0332 726.3705,-484.4133 725.8106,-494.9933 732.5306,-493.0332"/>
</g>
<!-- [root] google_compute_subnetwork.my&#45;custom&#45;subnet&#45;&gt;[root] google_compute_network.my&#45;custom&#45;network -->
<g id="edge_25" class="edge">
<title>[root] google_compute_subnetwork.my&#45;custom&#45;subnet&#45;&gt;[root] google_compute_network.my&#45;custom&#45;network</title>
<path fill="none" stroke="#000000" d="M513.9005,-306.9064C463.4769,-294.845 393.0224,-277.9921 341.8806,-265.7588"/>
<polygon fill="#000000" stroke="#000000" points="342.4613,-262.299 331.9214,-263.3765 340.8327,-269.107 342.4613,-262.299"/>
</g>
<!-- [root] var.project_name -->
<g id="node_23" class="node">
<title>[root] var.project_name</title>
<polygon fill="none" stroke="#000000" points="448,-106 448,-121 511,-121 511,-106 448,-106"/>
<text text-anchor="start" x="472.2988" y="-111.6" font-family="courier new" font-size="8.00" fill="#000000">var</text>
<polygon fill="none" stroke="#000000" points="448,-91 448,-106 511,-106 511,-91 448,-91"/>
<text text-anchor="start" x="450.6953" y="-96.6" font-family="courier new" font-size="8.00" fill="#000000">project_name</text>
</g>
<!-- [root] provider.google&#45;&gt;[root] var.project_name -->
<g id="edge_41" class="edge">
<title>[root] provider.google&#45;&gt;[root] var.project_name</title>
<path fill="none" stroke="#000000" d="M479,-159.8314C479,-152.131 479,-142.9743 479,-134.4166"/>
<polygon fill="#000000" stroke="#000000" points="482.5001,-134.4132 479,-124.4133 475.5001,-134.4133 482.5001,-134.4132"/>
</g>
<!-- [root] meta.count&#45;boundary (count boundary fixup) -->
<g id="node_20" class="node">
<title>[root] meta.count&#45;boundary (count boundary fixup)</title>
<polygon fill="none" stroke="#000000" points="445,-754 445,-769 518,-769 518,-754 445,-754"/>
<text text-anchor="start" x="471.8984" y="-759.6" font-family="courier new" font-size="8.00" fill="#000000">meta</text>
<polygon fill="none" stroke="#000000" points="445,-739 445,-754 518,-754 518,-739 445,-739"/>
<text text-anchor="start" x="447.8945" y="-744.6" font-family="courier new" font-size="8.00" fill="#000000">count&#45;boundary</text>
</g>
<!-- [root] meta.count&#45;boundary (count boundary fixup)&#45;&gt;[root] google_compute_firewall.allow&#45;all&#45;internal -->
<g id="edge_26" class="edge">
<title>[root] meta.count&#45;boundary (count boundary fixup)&#45;&gt;[root] google_compute_firewall.allow&#45;all&#45;internal</title>
<path fill="none" stroke="#000000" d="M444.3632,-742.8336C424.4786,-735.3865 400.4654,-723.9932 383,-708 361.6003,-688.4041 345.9449,-658.8785 336.5145,-637.3579"/>
<polygon fill="#000000" stroke="#000000" points="339.7235,-635.9598 332.6213,-628.0979 333.2706,-638.6728 339.7235,-635.9598"/>
</g>
<!-- [root] meta.count&#45;boundary (count boundary fixup)&#45;&gt;[root] google_compute_firewall.allow&#45;health&#45;check -->
<g id="edge_27" class="edge">
<title>[root] meta.count&#45;boundary (count boundary fixup)&#45;&gt;[root] google_compute_firewall.allow&#45;health&#45;check</title>
<path fill="none" stroke="#000000" d="M478.3403,-735.7623C474.7585,-711.201 468.3486,-667.2474 464.135,-638.3541"/>
<polygon fill="#000000" stroke="#000000" points="467.5446,-637.4798 462.6381,-628.0896 460.6179,-638.4901 467.5446,-637.4798"/>
</g>
<!-- [root] meta.count&#45;boundary (count boundary fixup)&#45;&gt;[root] google_compute_firewall.allow&#45;internal&#45;lb -->
<g id="edge_28" class="edge">
<title>[root] meta.count&#45;boundary (count boundary fixup)&#45;&gt;[root] google_compute_firewall.allow&#45;internal&#45;lb</title>
<path fill="none" stroke="#000000" d="M517.5755,-751.6726C590.4953,-746.5579 751.1592,-732.7763 800,-708 832.5831,-691.471 860.5879,-659.562 877.8016,-636.6404"/>
<polygon fill="#000000" stroke="#000000" points="880.7873,-638.4866 883.8576,-628.3463 875.1339,-634.3587 880.7873,-638.4866"/>
</g>
<!-- [root] meta.count&#45;boundary (count boundary fixup)&#45;&gt;[root] google_compute_firewall.allow&#45;ssh&#45;rdp&#45;icmp -->
<g id="edge_29" class="edge">
<title>[root] meta.count&#45;boundary (count boundary fixup)&#45;&gt;[root] google_compute_firewall.allow&#45;ssh&#45;rdp&#45;icmp</title>
<path fill="none" stroke="#000000" d="M444.3369,-749.8005C398.2556,-743.8169 317.1789,-730.936 251,-708 194.6249,-688.4618 133.9402,-655.4632 95.9763,-633.2158"/>
<polygon fill="#000000" stroke="#000000" points="97.6871,-630.1614 87.2977,-628.085 94.1246,-636.1871 97.6871,-630.1614"/>
</g>
<!-- [root] meta.count&#45;boundary (count boundary fixup)&#45;&gt;[root] google_compute_firewall.allow&#45;ssh&#45;to&#45;standalone -->
<g id="edge_30" class="edge">
<title>[root] meta.count&#45;boundary (count boundary fixup)&#45;&gt;[root] google_compute_firewall.allow&#45;ssh&#45;to&#45;standalone</title>
<path fill="none" stroke="#000000" d="M444.286,-744.6634C415.6629,-736.7228 375.3164,-724.0589 342,-708 298.7707,-687.163 253.1701,-655.8506 223.7552,-634.2552"/>
<polygon fill="#000000" stroke="#000000" points="225.6535,-631.3057 215.5354,-628.1635 221.4856,-636.9297 225.6535,-631.3057"/>
</g>
<!-- [root] meta.count&#45;boundary (count boundary fixup)&#45;&gt;[root] google_compute_instance.standalone&#45;instance&#45;1 -->
<g id="edge_31" class="edge">
<title>[root] meta.count&#45;boundary (count boundary fixup)&#45;&gt;[root] google_compute_instance.standalone&#45;instance&#45;1</title>
<path fill="none" stroke="#000000" d="M495.3115,-735.7623C515.0947,-710.5518 550.9107,-664.9103 573.5226,-636.0952"/>
<polygon fill="#000000" stroke="#000000" points="576.3847,-638.1173 579.8047,-628.0896 570.8778,-633.7959 576.3847,-638.1173"/>
</g>
<!-- [root] output.internal_load_balancer_ip -->
<g id="node_21" class="node">
<title>[root] output.internal_load_balancer_ip</title>
<polygon fill="none" stroke="#000000" points="662,-682 662,-697 788,-697 788,-682 662,-682"/>
<text text-anchor="start" x="710.5977" y="-687.6" font-family="courier new" font-size="8.00" fill="#000000">output</text>
<polygon fill="none" stroke="#000000" points="662,-667 662,-682 788,-682 788,-667 662,-667"/>
<text text-anchor="start" x="664.9902" y="-672.6" font-family="courier new" font-size="8.00" fill="#000000">internal_load_balancer_ip</text>
</g>
<!-- [root] meta.count&#45;boundary (count boundary fixup)&#45;&gt;[root] output.internal_load_balancer_ip -->
<g id="edge_32" class="edge">
<title>[root] meta.count&#45;boundary (count boundary fixup)&#45;&gt;[root] output.internal_load_balancer_ip</title>
<path fill="none" stroke="#000000" d="M517.5293,-743.2209C553.4478,-732.622 609.2298,-716.1617 653.9103,-702.9773"/>
<polygon fill="#000000" stroke="#000000" points="654.9535,-706.3187 663.554,-700.1316 652.9723,-699.6049 654.9535,-706.3187"/>
</g>
<!-- [root] provider.google (close) -->
<g id="node_22" class="node">
<title>[root] provider.google (close)</title>
<polygon fill="none" stroke="#000000" points="397,-682 397,-697 441,-697 441,-682 397,-682"/>
<text text-anchor="start" x="399.7969" y="-687.6" font-family="courier new" font-size="8.00" fill="#000000">provider</text>
<polygon fill="none" stroke="#000000" points="397,-667 397,-682 441,-682 441,-667 397,-667"/>
<text text-anchor="start" x="404.5977" y="-672.6" font-family="courier new" font-size="8.00" fill="#000000">google</text>
</g>
<!-- [root] provider.google (close)&#45;&gt;[root] google_compute_firewall.allow&#45;all&#45;internal -->
<g id="edge_34" class="edge">
<title>[root] provider.google (close)&#45;&gt;[root] google_compute_firewall.allow&#45;all&#45;internal</title>
<path fill="none" stroke="#000000" d="M395.5322,-663.8314C383.9673,-654.8779 369.8596,-643.9558 357.3817,-634.2955"/>
<polygon fill="#000000" stroke="#000000" points="359.5102,-631.5171 349.4603,-628.1628 355.225,-637.0521 359.5102,-631.5171"/>
</g>
<!-- [root] provider.google (close)&#45;&gt;[root] google_compute_firewall.allow&#45;health&#45;check -->
<g id="edge_35" class="edge">
<title>[root] provider.google (close)&#45;&gt;[root] google_compute_firewall.allow&#45;health&#45;check</title>
<path fill="none" stroke="#000000" d="M429.346,-663.8314C433.9237,-655.7925 439.4052,-646.1666 444.4588,-637.2918"/>
<polygon fill="#000000" stroke="#000000" points="447.6077,-638.8351 449.5147,-628.4133 441.5248,-635.3712 447.6077,-638.8351"/>
</g>
<!-- [root] provider.google (close)&#45;&gt;[root] google_compute_firewall.allow&#45;internal&#45;lb -->
<g id="edge_36" class="edge">
<title>[root] provider.google (close)&#45;&gt;[root] google_compute_firewall.allow&#45;internal&#45;lb</title>
<path fill="none" stroke="#000000" d="M446.2281,-678.8884C522.4305,-670.1079 737.6333,-644.7985 827.5644,-628.104"/>
<polygon fill="#000000" stroke="#000000" points="828.4836,-631.4914 837.641,-626.1631 827.1595,-624.6177 828.4836,-631.4914"/>
</g>
<!-- [root] provider.google (close)&#45;&gt;[root] google_compute_firewall.allow&#45;ssh&#45;rdp&#45;icmp -->
<g id="edge_37" class="edge">
<title>[root] provider.google (close)&#45;&gt;[root] google_compute_firewall.allow&#45;ssh&#45;rdp&#45;icmp</title>
<path fill="none" stroke="#000000" d="M391.6936,-677.7418C341.2084,-669.7072 229.7034,-651.2056 126.0386,-628.1445"/>
<polygon fill="#000000" stroke="#000000" points="126.5572,-624.6738 116.0334,-625.8987 125.024,-631.5039 126.5572,-624.6738"/>
</g>
<!-- [root] provider.google (close)&#45;&gt;[root] google_compute_firewall.allow&#45;ssh&#45;to&#45;standalone -->
<g id="edge_38" class="edge">
<title>[root] provider.google (close)&#45;&gt;[root] google_compute_firewall.allow&#45;ssh&#45;to&#45;standalone</title>
<path fill="none" stroke="#000000" d="M391.6185,-673.3151C358.8805,-662.9313 302.9529,-645.1921 258.6105,-631.1276"/>
<polygon fill="#000000" stroke="#000000" points="259.6407,-627.7825 249.0504,-628.0953 257.5243,-634.4549 259.6407,-627.7825"/>
</g>
<!-- [root] provider.google (close)&#45;&gt;[root] google_compute_forwarding_rule.my&#45;int&#45;lb&#45;forwarding&#45;rule -->
<g id="edge_39" class="edge">
<title>[root] provider.google (close)&#45;&gt;[root] google_compute_forwarding_rule.my&#45;int&#45;lb&#45;forwarding&#45;rule</title>
<path fill="none" stroke="#000000" d="M446.2339,-675.9852C492.711,-665.7203 589.1775,-644.4148 659.9725,-628.7791"/>
<polygon fill="#000000" stroke="#000000" points="660.7738,-632.1865 669.7837,-626.6122 659.2642,-625.3512 660.7738,-632.1865"/>
</g>
<!-- [root] provider.google (close)&#45;&gt;[root] google_compute_instance.standalone&#45;instance&#45;1 -->
<g id="edge_40" class="edge">
<title>[root] provider.google (close)&#45;&gt;[root] google_compute_instance.standalone&#45;instance&#45;1</title>
<path fill="none" stroke="#000000" d="M446.3438,-670.75C471.5209,-660.3914 509.577,-644.734 540.748,-631.9094"/>
<polygon fill="#000000" stroke="#000000" points="542.2626,-635.071 550.1788,-628.0293 539.5992,-628.5974 542.2626,-635.071"/>
</g>
<!-- [root] root -->
<g id="node_25" class="node">
<title>[root] root</title>
<polygon fill="none" stroke="#000000" points="482.3089,-844 413.6911,-844 413.6911,-808 482.3089,-808 482.3089,-844"/>
<text text-anchor="middle" x="448" y="-824.1313" font-family="courier new" font-size="8.00" fill="#000000">[root] root</text>
</g>
<!-- [root] root&#45;&gt;[root] meta.count&#45;boundary (count boundary fixup) -->
<g id="edge_43" class="edge">
<title>[root] root&#45;&gt;[root] meta.count&#45;boundary (count boundary fixup)</title>
<path fill="none" stroke="#000000" d="M456.3273,-807.8314C459.973,-799.8771 464.3309,-790.369 468.3627,-781.5723"/>
<polygon fill="#000000" stroke="#000000" points="471.5757,-782.9622 472.5606,-772.4133 465.2123,-780.0456 471.5757,-782.9622"/>
</g>
<!-- [root] root&#45;&gt;[root] provider.google (close) -->
<g id="edge_44" class="edge">
<title>[root] root&#45;&gt;[root] provider.google (close)</title>
<path fill="none" stroke="#000000" d="M443.7438,-807.5369C441.3808,-797.1196 438.4358,-783.853 436,-772 431.7854,-751.491 427.409,-728.27 424.1521,-710.5523"/>
<polygon fill="#000000" stroke="#000000" points="427.5204,-709.5135 422.2805,-700.3052 420.6343,-710.7714 427.5204,-709.5135"/>
</g>
<!-- [root] var.region -->
<g id="node_24" class="node">
<title>[root] var.region</title>
<polygon fill="none" stroke="#000000" points="462,-34 462,-49 496,-49 496,-34 462,-34"/>
<text text-anchor="start" x="471.7988" y="-39.6" font-family="courier new" font-size="8.00" fill="#000000">var</text>
<polygon fill="none" stroke="#000000" points="462,-19 462,-34 496,-34 496,-19 462,-19"/>
<text text-anchor="start" x="464.5977" y="-24.6" font-family="courier new" font-size="8.00" fill="#000000">region</text>
</g>
<!-- [root] var.project_name&#45;&gt;[root] var.region -->
<g id="edge_46" class="edge">
<title>[root] var.project_name&#45;&gt;[root] var.region</title>
<path fill="none" stroke="#000000" stroke-dasharray="5,2" d="M479,-87.8314C479,-77 479,-63.2876 479,-52.4133"/>
</g>
<!-- [root] output.internal_load_balancer_ip&#45;&gt;[root] google_compute_forwarding_rule.my&#45;int&#45;lb&#45;forwarding&#45;rule -->
<g id="edge_33" class="edge">
<title>[root] output.internal_load_balancer_ip&#45;&gt;[root] google_compute_forwarding_rule.my&#45;int&#45;lb&#45;forwarding&#45;rule</title>
<path fill="none" stroke="#000000" d="M730.0468,-663.8314C732.2094,-656.0463 734.7853,-646.7729 737.1848,-638.1347"/>
<polygon fill="#000000" stroke="#000000" points="740.581,-638.9852 739.8852,-628.4133 733.8364,-637.1117 740.581,-638.9852"/>
</g>
</g>
</svg>

