<?xml version="1.0" encoding="UTF-8" standalone="no"?>
<!DOCTYPE svg PUBLIC "-//W3C//DTD SVG 1.1//EN"
 "http://www.w3.org/Graphics/SVG/1.1/DTD/svg11.dtd">
<!-- Generated by graphviz version 2.40.1 (20161225.0304)
 -->
<!-- Title: %3 Pages: 1 -->
<svg width="737pt" height="548pt"
 viewBox="0.00 0.00 737.00 548.00" xmlns="http://www.w3.org/2000/svg" xmlns:xlink="http://www.w3.org/1999/xlink">
<g id="graph0" class="graph" transform="scale(1 1) rotate(0) translate(4 544)">
<title>%3</title>
<polygon fill="#ffffff" stroke="transparent" points="-4,4 -4,-544 733,-544 733,4 -4,4"/>
<!-- [root] google_compute_firewall.default -->
<g id="node_0" class="node">
<title>[root] google_compute_firewall.default</title>
<polygon fill="none" stroke="#000000" points="102,-378 102,-393 218,-393 218,-378 102,-378"/>
<text text-anchor="start" x="104.791" y="-383.6" font-family="courier new" font-size="8.00" fill="#000000">google_compute_firewall</text>
<polygon fill="none" stroke="#000000" points="102,-363 102,-378 218,-378 218,-363 102,-363"/>
<text text-anchor="start" x="143.1973" y="-368.6" font-family="courier new" font-size="8.00" fill="#000000">default</text>
</g>
<!-- [root] provider.google -->
<g id="node_5" class="node">
<title>[root] provider.google</title>
<polygon fill="none" stroke="#000000" points="134,-90 134,-105 178,-105 178,-90 134,-90"/>
<text text-anchor="start" x="136.7969" y="-95.6" font-family="courier new" font-size="8.00" fill="#000000">provider</text>
<polygon fill="none" stroke="#000000" points="134,-75 134,-90 178,-90 178,-75 134,-75"/>
<text text-anchor="start" x="141.5977" y="-80.6" font-family="courier new" font-size="8.00" fill="#000000">google</text>
</g>
<!-- [root] google_compute_firewall.default&#45;&gt;[root] provider.google -->
<g id="edge_0" class="edge">
<title>[root] google_compute_firewall.default&#45;&gt;[root] provider.google</title>
<path fill="none" stroke="#000000" d="M145.7641,-359.6423C138.9461,-349.6872 131.5138,-336.8222 128,-324 106.856,-246.8447 109.0478,-221.7227 128,-144 130.2539,-134.7566 134.3893,-125.3312 138.8027,-116.9966"/>
<polygon fill="#000000" stroke="#000000" points="141.9471,-118.5463 143.8183,-108.118 135.8524,-115.1033 141.9471,-118.5463"/>
</g>
<!-- [root] google_compute_forwarding_rule.default -->
<g id="node_1" class="node">
<title>[root] google_compute_forwarding_rule.default</title>
<polygon fill="none" stroke="#000000" points="137,-306 137,-321 287,-321 287,-306 137,-306"/>
<text text-anchor="start" x="139.9883" y="-311.6" font-family="courier new" font-size="8.00" fill="#000000">google_compute_forwarding_rule</text>
<polygon fill="none" stroke="#000000" points="137,-291 137,-306 287,-306 287,-291 137,-291"/>
<text text-anchor="start" x="195.1973" y="-296.6" font-family="courier new" font-size="8.00" fill="#000000">default</text>
</g>
<!-- [root] google_compute_target_pool.default -->
<g id="node_4" class="node">
<title>[root] google_compute_target_pool.default</title>
<polygon fill="none" stroke="#000000" points="152,-234 152,-249 282,-249 282,-234 152,-234"/>
<text text-anchor="start" x="154.5898" y="-239.6" font-family="courier new" font-size="8.00" fill="#000000">google_compute_target_pool</text>
<polygon fill="none" stroke="#000000" points="152,-219 152,-234 282,-234 282,-219 152,-219"/>
<text text-anchor="start" x="200.1973" y="-224.6" font-family="courier new" font-size="8.00" fill="#000000">default</text>
</g>
<!-- [root] google_compute_forwarding_rule.default&#45;&gt;[root] google_compute_target_pool.default -->
<g id="edge_1" class="edge">
<title>[root] google_compute_forwarding_rule.default&#45;&gt;[root] google_compute_target_pool.default</title>
<path fill="none" stroke="#000000" d="M213.2617,-287.8314C213.7965,-280.131 214.4323,-270.9743 215.0266,-262.4166"/>
<polygon fill="#000000" stroke="#000000" points="218.52,-262.6317 215.7213,-252.4133 211.5368,-262.1467 218.52,-262.6317"/>
</g>
<!-- [root] google_compute_http_health_check.default -->
<g id="node_2" class="node">
<title>[root] google_compute_http_health_check.default</title>
<polygon fill="none" stroke="#000000" points="138,-162 138,-177 297,-177 297,-162 138,-162"/>
<text text-anchor="start" x="140.6875" y="-167.6" font-family="courier new" font-size="8.00" fill="#000000">google_compute_http_health_check</text>
<polygon fill="none" stroke="#000000" points="138,-147 138,-162 297,-162 297,-147 138,-147"/>
<text text-anchor="start" x="200.6973" y="-152.6" font-family="courier new" font-size="8.00" fill="#000000">default</text>
</g>
<!-- [root] google_compute_http_health_check.default&#45;&gt;[root] provider.google -->
<g id="edge_2" class="edge">
<title>[root] google_compute_http_health_check.default&#45;&gt;[root] provider.google</title>
<path fill="none" stroke="#000000" d="M201.6071,-143.8314C194.5096,-135.454 185.952,-125.3531 178.176,-116.1749"/>
<polygon fill="#000000" stroke="#000000" points="180.7348,-113.7807 171.6001,-108.4133 175.3939,-118.3056 180.7348,-113.7807"/>
</g>
<!-- [root] google_compute_instance.www -->
<g id="node_3" class="node">
<title>[root] google_compute_instance.www</title>
<polygon fill="none" stroke="#000000" points="327,-162 327,-177 443,-177 443,-162 327,-162"/>
<text text-anchor="start" x="329.791" y="-167.6" font-family="courier new" font-size="8.00" fill="#000000">google_compute_instance</text>
<polygon fill="none" stroke="#000000" points="327,-147 327,-162 443,-162 443,-147 327,-147"/>
<text text-anchor="start" x="377.7988" y="-152.6" font-family="courier new" font-size="8.00" fill="#000000">www</text>
</g>
<!-- [root] google_compute_instance.www&#45;&gt;[root] provider.google -->
<g id="edge_3" class="edge">
<title>[root] google_compute_instance.www&#45;&gt;[root] provider.google</title>
<path fill="none" stroke="#000000" d="M326.6362,-148.7561C290.2059,-139.7871 242.3619,-126.7331 192.8622,-108.0031"/>
<polygon fill="#000000" stroke="#000000" points="193.8634,-104.6381 183.2736,-104.3106 191.3477,-111.1705 193.8634,-104.6381"/>
</g>
<!-- [root] var.install_script_dest_path -->
<g id="node_6" class="node">
<title>[root] var.install_script_dest_path</title>
<polygon fill="none" stroke="#000000" points="374,-90 374,-105 495,-105 495,-90 374,-90"/>
<text text-anchor="start" x="427.2988" y="-95.6" font-family="courier new" font-size="8.00" fill="#000000">var</text>
<polygon fill="none" stroke="#000000" points="374,-75 374,-90 495,-90 495,-75 374,-75"/>
<text text-anchor="start" x="376.8906" y="-80.6" font-family="courier new" font-size="8.00" fill="#000000">install_script_dest_path</text>
</g>
<!-- [root] google_compute_instance.www&#45;&gt;[root] var.install_script_dest_path -->
<g id="edge_4" class="edge">
<title>[root] google_compute_instance.www&#45;&gt;[root] var.install_script_dest_path</title>
<path fill="none" stroke="#000000" d="M397.3648,-143.8314C402.9509,-135.6232 409.663,-125.7606 415.8072,-116.7323"/>
<polygon fill="#000000" stroke="#000000" points="418.736,-118.6496 421.4687,-108.4133 412.949,-114.7112 418.736,-118.6496"/>
</g>
<!-- [root] var.install_script_src_path -->
<g id="node_7" class="node">
<title>[root] var.install_script_src_path</title>
<polygon fill="none" stroke="#000000" points="513,-90 513,-105 629,-105 629,-90 513,-90"/>
<text text-anchor="start" x="563.7988" y="-95.6" font-family="courier new" font-size="8.00" fill="#000000">var</text>
<polygon fill="none" stroke="#000000" points="513,-75 513,-90 629,-90 629,-75 513,-75"/>
<text text-anchor="start" x="515.791" y="-80.6" font-family="courier new" font-size="8.00" fill="#000000">install_script_src_path</text>
</g>
<!-- [root] google_compute_instance.www&#45;&gt;[root] var.install_script_src_path -->
<g id="edge_5" class="edge">
<title>[root] google_compute_instance.www&#45;&gt;[root] var.install_script_src_path</title>
<path fill="none" stroke="#000000" d="M431.9357,-143.8314C457.1437,-134.0734 488.3926,-121.977 514.8791,-111.7242"/>
<polygon fill="#000000" stroke="#000000" points="516.3397,-114.912 524.4019,-108.038 513.8127,-108.384 516.3397,-114.912"/>
</g>
<!-- [root] var.private_key_path -->
<g id="node_8" class="node">
<title>[root] var.private_key_path</title>
<polygon fill="none" stroke="#000000" points="647,-90 647,-105 729,-105 729,-90 647,-90"/>
<text text-anchor="start" x="680.7988" y="-95.6" font-family="courier new" font-size="8.00" fill="#000000">var</text>
<polygon fill="none" stroke="#000000" points="647,-75 647,-90 729,-90 729,-75 647,-75"/>
<text text-anchor="start" x="649.5938" y="-80.6" font-family="courier new" font-size="8.00" fill="#000000">private_key_path</text>
</g>
<!-- [root] google_compute_instance.www&#45;&gt;[root] var.private_key_path -->
<g id="edge_6" class="edge">
<title>[root] google_compute_instance.www&#45;&gt;[root] var.private_key_path</title>
<path fill="none" stroke="#000000" d="M443.0728,-151.9186C492.4907,-142.8167 565.4308,-128.1502 637.2749,-108.0224"/>
<polygon fill="#000000" stroke="#000000" points="638.2787,-111.3759 646.943,-105.2783 636.3673,-104.6419 638.2787,-111.3759"/>
</g>
<!-- [root] var.public_key_path -->
<g id="node_9" class="node">
<title>[root] var.public_key_path</title>
<polygon fill="none" stroke="#000000" points="201,-90 201,-105 279,-105 279,-90 201,-90"/>
<text text-anchor="start" x="232.7988" y="-95.6" font-family="courier new" font-size="8.00" fill="#000000">var</text>
<polygon fill="none" stroke="#000000" points="201,-75 201,-90 279,-90 279,-75 201,-75"/>
<text text-anchor="start" x="203.9941" y="-80.6" font-family="courier new" font-size="8.00" fill="#000000">public_key_path</text>
</g>
<!-- [root] google_compute_instance.www&#45;&gt;[root] var.public_key_path -->
<g id="edge_7" class="edge">
<title>[root] google_compute_instance.www&#45;&gt;[root] var.public_key_path</title>
<path fill="none" stroke="#000000" d="M348.4104,-143.8314C329.2761,-134.3302 305.6771,-122.6121 285.3878,-112.5374"/>
<polygon fill="#000000" stroke="#000000" points="286.8397,-109.3506 276.3265,-108.038 283.7265,-115.6203 286.8397,-109.3506"/>
</g>
<!-- [root] var.region_zone -->
<g id="node_10" class="node">
<title>[root] var.region_zone</title>
<polygon fill="none" stroke="#000000" points="297,-90 297,-105 355,-105 355,-90 297,-90"/>
<text text-anchor="start" x="318.7988" y="-95.6" font-family="courier new" font-size="8.00" fill="#000000">var</text>
<polygon fill="none" stroke="#000000" points="297,-75 297,-90 355,-90 355,-75 297,-75"/>
<text text-anchor="start" x="299.5957" y="-80.6" font-family="courier new" font-size="8.00" fill="#000000">region_zone</text>
</g>
<!-- [root] google_compute_instance.www&#45;&gt;[root] var.region_zone -->
<g id="edge_8" class="edge">
<title>[root] google_compute_instance.www&#45;&gt;[root] var.region_zone</title>
<path fill="none" stroke="#000000" d="M370.1118,-143.8314C363.247,-135.454 354.9699,-125.3531 347.4489,-116.1749"/>
<polygon fill="#000000" stroke="#000000" points="350.1341,-113.9297 341.0886,-108.4133 344.7197,-118.3665 350.1341,-113.9297"/>
</g>
<!-- [root] google_compute_target_pool.default&#45;&gt;[root] google_compute_http_health_check.default -->
<g id="edge_9" class="edge">
<title>[root] google_compute_target_pool.default&#45;&gt;[root] google_compute_http_health_check.default</title>
<path fill="none" stroke="#000000" d="M217,-215.8314C217,-208.131 217,-198.9743 217,-190.4166"/>
<polygon fill="#000000" stroke="#000000" points="220.5001,-190.4132 217,-180.4133 213.5001,-190.4133 220.5001,-190.4132"/>
</g>
<!-- [root] google_compute_target_pool.default&#45;&gt;[root] google_compute_instance.www -->
<g id="edge_10" class="edge">
<title>[root] google_compute_target_pool.default&#45;&gt;[root] google_compute_instance.www</title>
<path fill="none" stroke="#000000" d="M259.3935,-215.8314C281.9624,-206.159 309.8921,-194.1891 333.6796,-183.9944"/>
<polygon fill="#000000" stroke="#000000" points="335.0986,-187.1943 342.9114,-180.038 332.3412,-180.7602 335.0986,-187.1943"/>
</g>
<!-- [root] var.credentials_file_path -->
<g id="node_15" class="node">
<title>[root] var.credentials_file_path</title>
<polygon fill="none" stroke="#000000" points="0,-18 0,-33 106,-33 106,-18 0,-18"/>
<text text-anchor="start" x="45.7988" y="-23.6" font-family="courier new" font-size="8.00" fill="#000000">var</text>
<polygon fill="none" stroke="#000000" points="0,-3 0,-18 106,-18 106,-3 0,-3"/>
<text text-anchor="start" x="2.5918" y="-8.6" font-family="courier new" font-size="8.00" fill="#000000">credentials_file_path</text>
</g>
<!-- [root] provider.google&#45;&gt;[root] var.credentials_file_path -->
<g id="edge_18" class="edge">
<title>[root] provider.google&#45;&gt;[root] var.credentials_file_path</title>
<path fill="none" stroke="#000000" d="M130.0088,-71.8314C117.0784,-62.7927 101.2778,-51.7476 87.3617,-42.0198"/>
<polygon fill="#000000" stroke="#000000" points="89.1843,-39.0235 78.9829,-36.1628 85.1737,-44.7608 89.1843,-39.0235"/>
</g>
<!-- [root] var.project_name -->
<g id="node_16" class="node">
<title>[root] var.project_name</title>
<polygon fill="none" stroke="#000000" points="125,-18 125,-33 188,-33 188,-18 125,-18"/>
<text text-anchor="start" x="149.2988" y="-23.6" font-family="courier new" font-size="8.00" fill="#000000">var</text>
<polygon fill="none" stroke="#000000" points="125,-3 125,-18 188,-18 188,-3 125,-3"/>
<text text-anchor="start" x="127.6953" y="-8.6" font-family="courier new" font-size="8.00" fill="#000000">project_name</text>
</g>
<!-- [root] provider.google&#45;&gt;[root] var.project_name -->
<g id="edge_19" class="edge">
<title>[root] provider.google&#45;&gt;[root] var.project_name</title>
<path fill="none" stroke="#000000" d="M156,-71.8314C156,-64.131 156,-54.9743 156,-46.4166"/>
<polygon fill="#000000" stroke="#000000" points="159.5001,-46.4132 156,-36.4133 152.5001,-46.4133 159.5001,-46.4132"/>
</g>
<!-- [root] var.region -->
<g id="node_17" class="node">
<title>[root] var.region</title>
<polygon fill="none" stroke="#000000" points="216,-18 216,-33 250,-33 250,-18 216,-18"/>
<text text-anchor="start" x="225.7988" y="-23.6" font-family="courier new" font-size="8.00" fill="#000000">var</text>
<polygon fill="none" stroke="#000000" points="216,-3 216,-18 250,-18 250,-3 216,-3"/>
<text text-anchor="start" x="218.5977" y="-8.6" font-family="courier new" font-size="8.00" fill="#000000">region</text>
</g>
<!-- [root] provider.google&#45;&gt;[root] var.region -->
<g id="edge_20" class="edge">
<title>[root] provider.google&#45;&gt;[root] var.region</title>
<path fill="none" stroke="#000000" d="M175.4304,-71.8314C184.732,-63.1337 196.0204,-52.5783 206.1286,-43.1265"/>
<polygon fill="#000000" stroke="#000000" points="208.6621,-45.5493 213.5759,-36.1628 203.8811,-40.4363 208.6621,-45.5493"/>
</g>
<!-- [root] meta.count&#45;boundary (count boundary fixup) -->
<g id="node_11" class="node">
<title>[root] meta.count&#45;boundary (count boundary fixup)</title>
<polygon fill="none" stroke="#000000" points="252,-450 252,-465 325,-465 325,-450 252,-450"/>
<text text-anchor="start" x="278.8984" y="-455.6" font-family="courier new" font-size="8.00" fill="#000000">meta</text>
<polygon fill="none" stroke="#000000" points="252,-435 252,-450 325,-450 325,-435 252,-435"/>
<text text-anchor="start" x="254.8945" y="-440.6" font-family="courier new" font-size="8.00" fill="#000000">count&#45;boundary</text>
</g>
<!-- [root] meta.count&#45;boundary (count boundary fixup)&#45;&gt;[root] google_compute_firewall.default -->
<g id="edge_11" class="edge">
<title>[root] meta.count&#45;boundary (count boundary fixup)&#45;&gt;[root] google_compute_firewall.default</title>
<path fill="none" stroke="#000000" d="M255.7002,-431.8314C239.1766,-422.5368 218.8814,-411.1208 201.2393,-401.1971"/>
<polygon fill="#000000" stroke="#000000" points="202.7212,-398.015 192.2895,-396.1628 199.2893,-404.116 202.7212,-398.015"/>
</g>
<!-- [root] output.instance_ips -->
<g id="node_12" class="node">
<title>[root] output.instance_ips</title>
<polygon fill="none" stroke="#000000" points="306,-306 306,-321 369,-321 369,-306 306,-306"/>
<text text-anchor="start" x="323.0977" y="-311.6" font-family="courier new" font-size="8.00" fill="#000000">output</text>
<polygon fill="none" stroke="#000000" points="306,-291 306,-306 369,-306 369,-291 306,-291"/>
<text text-anchor="start" x="308.6953" y="-296.6" font-family="courier new" font-size="8.00" fill="#000000">instance_ips</text>
</g>
<!-- [root] meta.count&#45;boundary (count boundary fixup)&#45;&gt;[root] output.instance_ips -->
<g id="edge_12" class="edge">
<title>[root] meta.count&#45;boundary (count boundary fixup)&#45;&gt;[root] output.instance_ips</title>
<path fill="none" stroke="#000000" d="M299.9904,-431.6709C306.1614,-421.5161 313.3454,-408.4574 318,-396 325.5225,-375.8669 330.3868,-352.0279 333.3088,-333.9441"/>
<polygon fill="#000000" stroke="#000000" points="336.7728,-334.4446 334.8102,-324.0332 329.8518,-333.3961 336.7728,-334.4446"/>
</g>
<!-- [root] output.pool_public_ip -->
<g id="node_13" class="node">
<title>[root] output.pool_public_ip</title>
<polygon fill="none" stroke="#000000" points="237,-378 237,-393 310,-393 310,-378 237,-378"/>
<text text-anchor="start" x="259.0977" y="-383.6" font-family="courier new" font-size="8.00" fill="#000000">output</text>
<polygon fill="none" stroke="#000000" points="237,-363 237,-378 310,-378 310,-363 237,-363"/>
<text text-anchor="start" x="239.8945" y="-368.6" font-family="courier new" font-size="8.00" fill="#000000">pool_public_ip</text>
</g>
<!-- [root] meta.count&#45;boundary (count boundary fixup)&#45;&gt;[root] output.pool_public_ip -->
<g id="edge_13" class="edge">
<title>[root] meta.count&#45;boundary (count boundary fixup)&#45;&gt;[root] output.pool_public_ip</title>
<path fill="none" stroke="#000000" d="M284.2149,-431.8314C282.6106,-424.131 280.703,-414.9743 278.9201,-406.4166"/>
<polygon fill="#000000" stroke="#000000" points="282.3021,-405.4892 276.8361,-396.4133 275.4493,-406.9169 282.3021,-405.4892"/>
</g>
<!-- [root] output.instance_ips&#45;&gt;[root] google_compute_instance.www -->
<g id="edge_14" class="edge">
<title>[root] output.instance_ips&#45;&gt;[root] google_compute_instance.www</title>
<path fill="none" stroke="#000000" d="M343.0792,-287.7623C351.3385,-262.9846 366.1762,-218.4714 375.802,-189.5939"/>
<polygon fill="#000000" stroke="#000000" points="379.1282,-190.6833 378.9701,-180.0896 372.4874,-188.4696 379.1282,-190.6833"/>
</g>
<!-- [root] output.pool_public_ip&#45;&gt;[root] google_compute_forwarding_rule.default -->
<g id="edge_15" class="edge">
<title>[root] output.pool_public_ip&#45;&gt;[root] google_compute_forwarding_rule.default</title>
<path fill="none" stroke="#000000" d="M257.6071,-359.8314C250.5096,-351.454 241.952,-341.3531 234.176,-332.1749"/>
<polygon fill="#000000" stroke="#000000" points="236.7348,-329.7807 227.6001,-324.4133 231.3939,-334.3056 236.7348,-329.7807"/>
</g>
<!-- [root] provider.google (close) -->
<g id="node_14" class="node">
<title>[root] provider.google (close)</title>
<polygon fill="none" stroke="#000000" points="138,-450 138,-465 182,-465 182,-450 138,-450"/>
<text text-anchor="start" x="140.7969" y="-455.6" font-family="courier new" font-size="8.00" fill="#000000">provider</text>
<polygon fill="none" stroke="#000000" points="138,-435 138,-450 182,-450 182,-435 138,-435"/>
<text text-anchor="start" x="145.5977" y="-440.6" font-family="courier new" font-size="8.00" fill="#000000">google</text>
</g>
<!-- [root] provider.google (close)&#45;&gt;[root] google_compute_firewall.default -->
<g id="edge_16" class="edge">
<title>[root] provider.google (close)&#45;&gt;[root] google_compute_firewall.default</title>
<path fill="none" stroke="#000000" d="M160,-431.8314C160,-424.131 160,-414.9743 160,-406.4166"/>
<polygon fill="#000000" stroke="#000000" points="163.5001,-406.4132 160,-396.4133 156.5001,-406.4133 163.5001,-406.4132"/>
</g>
<!-- [root] provider.google (close)&#45;&gt;[root] google_compute_forwarding_rule.default -->
<g id="edge_17" class="edge">
<title>[root] provider.google (close)&#45;&gt;[root] google_compute_forwarding_rule.default</title>
<path fill="none" stroke="#000000" d="M132.6893,-435.9378C118.0025,-426.7504 101.2525,-413.2504 93,-396 86.0952,-381.5666 84.3336,-373.4496 93,-360 101.7518,-346.4179 114.8441,-336.2135 129.1844,-328.5587"/>
<polygon fill="#000000" stroke="#000000" points="130.8094,-331.66 138.2469,-324.1145 127.7274,-325.375 130.8094,-331.66"/>
</g>
<!-- [root] provisioner.file (close) -->
<g id="node_18" class="node">
<title>[root] provisioner.file (close)</title>
<polygon fill="none" stroke="#000000" points="425,-234 425,-249 483,-249 483,-234 425,-234"/>
<text text-anchor="start" x="427.5957" y="-239.6" font-family="courier new" font-size="8.00" fill="#000000">provisioner</text>
<polygon fill="none" stroke="#000000" points="425,-219 425,-234 483,-234 483,-219 425,-219"/>
<text text-anchor="start" x="444.3984" y="-224.6" font-family="courier new" font-size="8.00" fill="#000000">file</text>
</g>
<!-- [root] provisioner.file (close)&#45;&gt;[root] google_compute_instance.www -->
<g id="edge_21" class="edge">
<title>[root] provisioner.file (close)&#45;&gt;[root] google_compute_instance.www</title>
<path fill="none" stroke="#000000" d="M436.5884,-215.8314C428.479,-207.3694 418.6844,-197.1489 409.818,-187.8971"/>
<polygon fill="#000000" stroke="#000000" points="412.0921,-185.2115 402.646,-180.4133 407.0382,-190.0549 412.0921,-185.2115"/>
</g>
<!-- [root] provisioner.remote&#45;exec (close) -->
<g id="node_19" class="node">
<title>[root] provisioner.remote&#45;exec (close)</title>
<polygon fill="none" stroke="#000000" points="367,-378 367,-393 425,-393 425,-378 367,-378"/>
<text text-anchor="start" x="369.5957" y="-383.6" font-family="courier new" font-size="8.00" fill="#000000">provisioner</text>
<polygon fill="none" stroke="#000000" points="367,-363 367,-378 425,-378 425,-363 367,-363"/>
<text text-anchor="start" x="369.5957" y="-368.6" font-family="courier new" font-size="8.00" fill="#000000">remote&#45;exec</text>
</g>
<!-- [root] provisioner.remote&#45;exec (close)&#45;&gt;[root] google_compute_instance.www -->
<g id="edge_22" class="edge">
<title>[root] provisioner.remote&#45;exec (close)&#45;&gt;[root] google_compute_instance.www</title>
<path fill="none" stroke="#000000" d="M395.0811,-359.9555C393.1682,-322.3938 388.7458,-235.5541 386.4468,-190.4103"/>
<polygon fill="#000000" stroke="#000000" points="389.9282,-189.9541 385.9241,-180.1451 382.9373,-190.3102 389.9282,-189.9541"/>
</g>
<!-- [root] root -->
<g id="node_20" class="node">
<title>[root] root</title>
<polygon fill="none" stroke="#000000" points="384.3089,-540 315.6911,-540 315.6911,-504 384.3089,-504 384.3089,-540"/>
<text text-anchor="middle" x="350" y="-520.1313" font-family="courier new" font-size="8.00" fill="#000000">[root] root</text>
</g>
<!-- [root] root&#45;&gt;[root] meta.count&#45;boundary (count boundary fixup) -->
<g id="edge_23" class="edge">
<title>[root] root&#45;&gt;[root] meta.count&#45;boundary (count boundary fixup)</title>
<path fill="none" stroke="#000000" d="M334.3548,-503.8314C327.1409,-495.454 318.443,-485.3531 310.5395,-476.1749"/>
<polygon fill="#000000" stroke="#000000" points="313.0333,-473.7071 303.8559,-468.4133 307.7289,-478.2748 313.0333,-473.7071"/>
</g>
<!-- [root] root&#45;&gt;[root] provider.google (close) -->
<g id="edge_24" class="edge">
<title>[root] root&#45;&gt;[root] provider.google (close)</title>
<path fill="none" stroke="#000000" d="M315.5924,-508.9613C282.0132,-496.2366 231.0995,-476.943 196.7435,-463.9238"/>
<polygon fill="#000000" stroke="#000000" points="197.6773,-460.5349 187.0859,-460.2641 195.1968,-467.0807 197.6773,-460.5349"/>
</g>
<!-- [root] root&#45;&gt;[root] provisioner.file (close) -->
<g id="edge_25" class="edge">
<title>[root] root&#45;&gt;[root] provisioner.file (close)</title>
<path fill="none" stroke="#000000" d="M366.1805,-503.9223C385.8893,-480.7487 418.4696,-438.4691 434,-396 450.3516,-351.2851 453.8548,-295.4871 454.3312,-262.4122"/>
<polygon fill="#000000" stroke="#000000" points="457.8328,-262.1357 454.391,-252.1155 450.8329,-262.095 457.8328,-262.1357"/>
</g>
<!-- [root] root&#45;&gt;[root] provisioner.remote&#45;exec (close) -->
<g id="edge_26" class="edge">
<title>[root] root&#45;&gt;[root] provisioner.remote&#45;exec (close)</title>
<path fill="none" stroke="#000000" d="M355.8259,-503.7623C363.7065,-479.0928 377.8365,-434.8598 387.0642,-405.9731"/>
<polygon fill="#000000" stroke="#000000" points="390.5124,-406.6805 390.2214,-396.0896 383.8443,-404.5503 390.5124,-406.6805"/>
</g>
</g>
</svg>

