<?xml version="1.0" encoding="UTF-8" standalone="no"?>
<!DOCTYPE svg PUBLIC "-//W3C//DTD SVG 1.1//EN"
 "http://www.w3.org/Graphics/SVG/1.1/DTD/svg11.dtd">
<!-- Generated by graphviz version 2.40.1 (20161225.0304)
 -->
<!-- Title: %3 Pages: 1 -->
<svg width="428pt" height="780pt"
 viewBox="0.00 0.00 428.00 780.00" xmlns="http://www.w3.org/2000/svg" xmlns:xlink="http://www.w3.org/1999/xlink">
<g id="graph0" class="graph" transform="scale(1 1) rotate(0) translate(4 776)">
<title>%3</title>
<polygon fill="#ffffff" stroke="transparent" points="-4,4 -4,-776 424,-776 424,4 -4,4"/>
<g id="clust2" class="cluster">
<title>cluster[root] google_compute_instance.www_var_</title>
</g>
<g id="clust3" class="cluster">
<title>cluster[root] provider.google_var_</title>
</g>
<g id="clust4" class="cluster">
<title>cluster[root] meta.count&#45;boundary (count boundary fixup)_output_[root] google_compute_instance.www</title>
</g>
<g id="clust5" class="cluster">
<title>cluster[root] meta.count&#45;boundary (count boundary fixup)_output_[root] google_compute_forwarding_rule.default</title>
</g>
<!-- [root] google_compute_firewall.default -->
<g id="node_0" class="node">
<title>[root] google_compute_firewall.default</title>
<polygon fill="none" stroke="#000000" points="0,-538 0,-553 116,-553 116,-538 0,-538"/>
<text text-anchor="start" x="2.791" y="-543.6" font-family="courier new" font-size="8.00" fill="#000000">google_compute_firewall</text>
<polygon fill="none" stroke="#000000" points="0,-523 0,-538 116,-538 116,-523 0,-523"/>
<text text-anchor="start" x="41.1973" y="-528.6" font-family="courier new" font-size="8.00" fill="#000000">default</text>
</g>
<!-- [root] provider.google -->
<g id="node_5" class="node">
<title>[root] provider.google</title>
<polygon fill="none" stroke="#000000" points="165,-322 165,-337 209,-337 209,-322 165,-322"/>
<text text-anchor="start" x="167.7969" y="-327.6" font-family="courier new" font-size="8.00" fill="#000000">provider</text>
<polygon fill="none" stroke="#000000" points="165,-307 165,-322 209,-322 209,-307 165,-307"/>
<text text-anchor="start" x="172.5977" y="-312.6" font-family="courier new" font-size="8.00" fill="#000000">google</text>
</g>
<!-- [root] google_compute_firewall.default&#45;&gt;[root] provider.google -->
<g id="edge_0" class="edge">
<title>[root] google_compute_firewall.default&#45;&gt;[root] provider.google</title>
<path fill="none" stroke="#000000" d="M58.1142,-519.8399C59.1928,-487.7499 65.4912,-420.237 98,-376 111.1238,-358.1415 132.0955,-345.0016 150.3855,-336.1573"/>
<polygon fill="#000000" stroke="#000000" points="152.0106,-339.2629 159.6498,-331.9217 149.0999,-332.8967 152.0106,-339.2629"/>
</g>
<!-- [root] google_compute_forwarding_rule.default -->
<g id="node_1" class="node">
<title>[root] google_compute_forwarding_rule.default</title>
<polygon fill="none" stroke="#000000" points="134,-538 134,-553 284,-553 284,-538 134,-538"/>
<text text-anchor="start" x="136.9883" y="-543.6" font-family="courier new" font-size="8.00" fill="#000000">google_compute_forwarding_rule</text>
<polygon fill="none" stroke="#000000" points="134,-523 134,-538 284,-538 284,-523 134,-523"/>
<text text-anchor="start" x="192.1973" y="-528.6" font-family="courier new" font-size="8.00" fill="#000000">default</text>
</g>
<!-- [root] google_compute_target_pool.default -->
<g id="node_4" class="node">
<title>[root] google_compute_target_pool.default</title>
<polygon fill="none" stroke="#000000" points="144,-466 144,-481 274,-481 274,-466 144,-466"/>
<text text-anchor="start" x="146.5898" y="-471.6" font-family="courier new" font-size="8.00" fill="#000000">google_compute_target_pool</text>
<polygon fill="none" stroke="#000000" points="144,-451 144,-466 274,-466 274,-451 144,-451"/>
<text text-anchor="start" x="192.1973" y="-456.6" font-family="courier new" font-size="8.00" fill="#000000">default</text>
</g>
<!-- [root] google_compute_forwarding_rule.default&#45;&gt;[root] google_compute_target_pool.default -->
<g id="edge_1" class="edge">
<title>[root] google_compute_forwarding_rule.default&#45;&gt;[root] google_compute_target_pool.default</title>
<path fill="none" stroke="#000000" d="M209,-519.8314C209,-512.131 209,-502.9743 209,-494.4166"/>
<polygon fill="#000000" stroke="#000000" points="212.5001,-494.4132 209,-484.4133 205.5001,-494.4133 212.5001,-494.4132"/>
</g>
<!-- [root] google_compute_http_health_check.default -->
<g id="node_2" class="node">
<title>[root] google_compute_http_health_check.default</title>
<polygon fill="none" stroke="#000000" points="108,-394 108,-409 267,-409 267,-394 108,-394"/>
<text text-anchor="start" x="110.6875" y="-399.6" font-family="courier new" font-size="8.00" fill="#000000">google_compute_http_health_check</text>
<polygon fill="none" stroke="#000000" points="108,-379 108,-394 267,-394 267,-379 108,-379"/>
<text text-anchor="start" x="170.6973" y="-384.6" font-family="courier new" font-size="8.00" fill="#000000">default</text>
</g>
<!-- [root] google_compute_http_health_check.default&#45;&gt;[root] provider.google -->
<g id="edge_2" class="edge">
<title>[root] google_compute_http_health_check.default&#45;&gt;[root] provider.google</title>
<path fill="none" stroke="#000000" d="M187,-375.8314C187,-368.131 187,-358.9743 187,-350.4166"/>
<polygon fill="#000000" stroke="#000000" points="190.5001,-350.4132 187,-340.4133 183.5001,-350.4133 190.5001,-350.4132"/>
</g>
<!-- [root] google_compute_instance.www -->
<g id="node_3" class="node">
<title>[root] google_compute_instance.www</title>
<polygon fill="none" stroke="#000000" points="285,-394 285,-409 401,-409 401,-394 285,-394"/>
<text text-anchor="start" x="287.791" y="-399.6" font-family="courier new" font-size="8.00" fill="#000000">google_compute_instance</text>
<polygon fill="none" stroke="#000000" points="285,-379 285,-394 401,-394 401,-379 285,-379"/>
<text text-anchor="start" x="335.7988" y="-384.6" font-family="courier new" font-size="8.00" fill="#000000">www</text>
</g>
<!-- [root] google_compute_instance.www&#45;&gt;[root] provider.google -->
<g id="edge_3" class="edge">
<title>[root] google_compute_instance.www&#45;&gt;[root] provider.google</title>
<path fill="none" stroke="#000000" d="M303.6346,-375.8314C278.9327,-364.4305 247.3146,-349.8375 223.2314,-338.7222"/>
<polygon fill="#000000" stroke="#000000" points="224.6192,-335.508 214.0729,-334.4952 221.6858,-341.8637 224.6192,-335.508"/>
</g>
<!-- [root] var.install_script_dest_path -->
<g id="node_6" class="node">
<title>[root] var.install_script_dest_path</title>
<polygon fill="none" stroke="#000000" points="283,-322 283,-337 404,-337 404,-322 283,-322"/>
<text text-anchor="start" x="336.2988" y="-327.6" font-family="courier new" font-size="8.00" fill="#000000">var</text>
<polygon fill="none" stroke="#000000" points="283,-307 283,-322 404,-322 404,-307 283,-307"/>
<text text-anchor="start" x="285.8906" y="-312.6" font-family="courier new" font-size="8.00" fill="#000000">install_script_dest_path</text>
</g>
<!-- [root] google_compute_instance.www&#45;&gt;[root] var.install_script_dest_path -->
<g id="edge_4" class="edge">
<title>[root] google_compute_instance.www&#45;&gt;[root] var.install_script_dest_path</title>
<path fill="none" stroke="#000000" d="M343,-375.8314C343,-368.131 343,-358.9743 343,-350.4166"/>
<polygon fill="#000000" stroke="#000000" points="346.5001,-350.4132 343,-340.4133 339.5001,-350.4133 346.5001,-350.4132"/>
</g>
<!-- [root] google_compute_target_pool.default&#45;&gt;[root] google_compute_http_health_check.default -->
<g id="edge_9" class="edge">
<title>[root] google_compute_target_pool.default&#45;&gt;[root] google_compute_http_health_check.default</title>
<path fill="none" stroke="#000000" d="M203.4485,-447.8314C201.0697,-440.0463 198.2362,-430.7729 195.5967,-422.1347"/>
<polygon fill="#000000" stroke="#000000" points="198.8958,-420.954 192.6263,-412.4133 192.2013,-422.9996 198.8958,-420.954"/>
</g>
<!-- [root] google_compute_target_pool.default&#45;&gt;[root] google_compute_instance.www -->
<g id="edge_10" class="edge">
<title>[root] google_compute_target_pool.default&#45;&gt;[root] google_compute_instance.www</title>
<path fill="none" stroke="#000000" d="M242.8139,-447.8314C260.2707,-438.4516 281.7487,-426.9112 300.3352,-416.9244"/>
<polygon fill="#000000" stroke="#000000" points="302.0446,-419.9792 309.197,-412.1628 298.7314,-413.8129 302.0446,-419.9792"/>
</g>
<!-- [root] var.credentials_file_path -->
<g id="node_15" class="node">
<title>[root] var.credentials_file_path</title>
<polygon fill="none" stroke="#000000" points="134,-250 134,-265 240,-265 240,-250 134,-250"/>
<text text-anchor="start" x="179.7988" y="-255.6" font-family="courier new" font-size="8.00" fill="#000000">var</text>
<polygon fill="none" stroke="#000000" points="134,-235 134,-250 240,-250 240,-235 134,-235"/>
<text text-anchor="start" x="136.5918" y="-240.6" font-family="courier new" font-size="8.00" fill="#000000">credentials_file_path</text>
</g>
<!-- [root] provider.google&#45;&gt;[root] var.credentials_file_path -->
<g id="edge_18" class="edge">
<title>[root] provider.google&#45;&gt;[root] var.credentials_file_path</title>
<path fill="none" stroke="#000000" d="M187,-303.8314C187,-296.131 187,-286.9743 187,-278.4166"/>
<polygon fill="#000000" stroke="#000000" points="190.5001,-278.4132 187,-268.4133 183.5001,-278.4133 190.5001,-278.4132"/>
</g>
<!-- [root] meta.count&#45;boundary (count boundary fixup) -->
<g id="node_11" class="node">
<title>[root] meta.count&#45;boundary (count boundary fixup)</title>
<polygon fill="none" stroke="#000000" points="165,-682 165,-697 238,-697 238,-682 165,-682"/>
<text text-anchor="start" x="191.8984" y="-687.6" font-family="courier new" font-size="8.00" fill="#000000">meta</text>
<polygon fill="none" stroke="#000000" points="165,-667 165,-682 238,-682 238,-667 165,-667"/>
<text text-anchor="start" x="167.8945" y="-672.6" font-family="courier new" font-size="8.00" fill="#000000">count&#45;boundary</text>
</g>
<!-- [root] meta.count&#45;boundary (count boundary fixup)&#45;&gt;[root] google_compute_firewall.default -->
<g id="edge_11" class="edge">
<title>[root] meta.count&#45;boundary (count boundary fixup)&#45;&gt;[root] google_compute_firewall.default</title>
<path fill="none" stroke="#000000" d="M177.6113,-663.9757C167.9136,-655.9432 156.8795,-646.0385 148,-636 129.5425,-615.1333 131.6475,-604.6971 113,-584 106.3303,-576.5972 98.4542,-569.3264 90.7783,-562.8288"/>
<polygon fill="#000000" stroke="#000000" points="92.5446,-559.7507 82.5942,-556.1121 88.1038,-565.1617 92.5446,-559.7507"/>
</g>
<!-- [root] output.instance_ips -->
<g id="node_12" class="node">
<title>[root] output.instance_ips</title>
<polygon fill="none" stroke="#000000" points="259,-610 259,-625 322,-625 322,-610 259,-610"/>
<text text-anchor="start" x="276.0977" y="-615.6" font-family="courier new" font-size="8.00" fill="#000000">output</text>
<polygon fill="none" stroke="#000000" points="259,-595 259,-610 322,-610 322,-595 259,-595"/>
<text text-anchor="start" x="261.6953" y="-600.6" font-family="courier new" font-size="8.00" fill="#000000">instance_ips</text>
</g>
<!-- [root] meta.count&#45;boundary (count boundary fixup)&#45;&gt;[root] output.instance_ips -->
<g id="edge_12" class="edge">
<title>[root] meta.count&#45;boundary (count boundary fixup)&#45;&gt;[root] output.instance_ips</title>
<path fill="none" stroke="#000000" d="M223.4585,-663.8314C234.4205,-654.9632 247.7699,-644.1637 259.6265,-634.5718"/>
<polygon fill="#000000" stroke="#000000" points="261.9755,-637.1734 267.5487,-628.1628 257.5729,-631.7313 261.9755,-637.1734"/>
</g>
<!-- [root] output.pool_public_ip -->
<g id="node_13" class="node">
<title>[root] output.pool_public_ip</title>
<polygon fill="none" stroke="#000000" points="161,-610 161,-625 234,-625 234,-610 161,-610"/>
<text text-anchor="start" x="183.0977" y="-615.6" font-family="courier new" font-size="8.00" fill="#000000">output</text>
<polygon fill="none" stroke="#000000" points="161,-595 161,-610 234,-610 234,-595 161,-595"/>
<text text-anchor="start" x="163.8945" y="-600.6" font-family="courier new" font-size="8.00" fill="#000000">pool_public_ip</text>
</g>
<!-- [root] meta.count&#45;boundary (count boundary fixup)&#45;&gt;[root] output.pool_public_ip -->
<g id="edge_13" class="edge">
<title>[root] meta.count&#45;boundary (count boundary fixup)&#45;&gt;[root] output.pool_public_ip</title>
<path fill="none" stroke="#000000" d="M199.9906,-663.8314C199.5628,-656.131 199.0541,-646.9743 198.5787,-638.4166"/>
<polygon fill="#000000" stroke="#000000" points="202.0724,-638.2037 198.023,-628.4133 195.0831,-638.592 202.0724,-638.2037"/>
</g>
<!-- [root] provider.google (close) -->
<g id="node_14" class="node">
<title>[root] provider.google (close)</title>
<polygon fill="none" stroke="#000000" points="55,-610 55,-625 99,-625 99,-610 55,-610"/>
<text text-anchor="start" x="57.7969" y="-615.6" font-family="courier new" font-size="8.00" fill="#000000">provider</text>
<polygon fill="none" stroke="#000000" points="55,-595 55,-610 99,-610 99,-595 55,-595"/>
<text text-anchor="start" x="62.5977" y="-600.6" font-family="courier new" font-size="8.00" fill="#000000">google</text>
</g>
<!-- [root] provider.google (close)&#45;&gt;[root] google_compute_firewall.default -->
<g id="edge_16" class="edge">
<title>[root] provider.google (close)&#45;&gt;[root] google_compute_firewall.default</title>
<path fill="none" stroke="#000000" d="M72.2055,-591.8314C70.1511,-584.0463 67.704,-574.7729 65.4244,-566.1347"/>
<polygon fill="#000000" stroke="#000000" points="68.7948,-565.1892 62.8591,-556.4133 62.0265,-566.9753 68.7948,-565.1892"/>
</g>
<!-- [root] provider.google (close)&#45;&gt;[root] google_compute_forwarding_rule.default -->
<g id="edge_17" class="edge">
<title>[root] provider.google (close)&#45;&gt;[root] google_compute_forwarding_rule.default</title>
<path fill="none" stroke="#000000" d="M104.0307,-595.256C122.1649,-585.3646 146.4141,-572.1378 167.0368,-560.889"/>
<polygon fill="#000000" stroke="#000000" points="168.8194,-563.9036 175.9224,-556.0423 165.4674,-557.7583 168.8194,-563.9036"/>
</g>
<!-- [root] provisioner.file (close) -->
<g id="node_18" class="node">
<title>[root] provisioner.file (close)</title>
<polygon fill="none" stroke="#000000" points="355,-682 355,-697 413,-697 413,-682 355,-682"/>
<text text-anchor="start" x="357.5957" y="-687.6" font-family="courier new" font-size="8.00" fill="#000000">provisioner</text>
<polygon fill="none" stroke="#000000" points="355,-667 355,-682 413,-682 413,-667 355,-667"/>
<text text-anchor="start" x="374.3984" y="-672.6" font-family="courier new" font-size="8.00" fill="#000000">file</text>
</g>
<!-- [root] provisioner.file (close)&#45;&gt;[root] google_compute_instance.www -->
<g id="edge_21" class="edge">
<title>[root] provisioner.file (close)&#45;&gt;[root] google_compute_instance.www</title>
<path fill="none" stroke="#000000" d="M384.1959,-663.8197C384.2452,-624.1038 382.2997,-526.8387 364,-448 361.9403,-439.1263 358.7098,-429.773 355.3946,-421.39"/>
<polygon fill="#000000" stroke="#000000" points="358.5967,-419.9746 351.5291,-412.0816 352.132,-422.6593 358.5967,-419.9746"/>
</g>
<!-- [root] provisioner.remote&#45;exec (close) -->
<g id="node_19" class="node">
<title>[root] provisioner.remote&#45;exec (close)</title>
<polygon fill="none" stroke="#000000" points="271,-682 271,-697 329,-697 329,-682 271,-682"/>
<text text-anchor="start" x="273.5957" y="-687.6" font-family="courier new" font-size="8.00" fill="#000000">provisioner</text>
<polygon fill="none" stroke="#000000" points="271,-667 271,-682 329,-682 329,-667 271,-667"/>
<text text-anchor="start" x="273.5957" y="-672.6" font-family="courier new" font-size="8.00" fill="#000000">remote&#45;exec</text>
</g>
<!-- [root] provisioner.remote&#45;exec (close)&#45;&gt;[root] google_compute_instance.www -->
<g id="edge_22" class="edge">
<title>[root] provisioner.remote&#45;exec (close)&#45;&gt;[root] google_compute_instance.www</title>
<path fill="none" stroke="#000000" d="M317.3977,-663.803C323.8501,-655.8912 330.4552,-646.1225 334,-636 359.7283,-562.5295 352.9478,-468.7428 347.2247,-422.4614"/>
<polygon fill="#000000" stroke="#000000" points="350.66,-421.7396 345.8859,-412.2814 343.7198,-422.6524 350.66,-421.7396"/>
</g>
<!-- [root] root -->
<g id="node_20" class="node">
<title>[root] root</title>
<polygon fill="none" stroke="#000000" points="277.3089,-772 208.6911,-772 208.6911,-736 277.3089,-736 277.3089,-772"/>
<text text-anchor="middle" x="243" y="-752.1313" font-family="courier new" font-size="8.00" fill="#000000">[root] root</text>
</g>
<!-- [root] root&#45;&gt;[root] meta.count&#45;boundary (count boundary fixup) -->
<g id="edge_23" class="edge">
<title>[root] root&#45;&gt;[root] meta.count&#45;boundary (count boundary fixup)</title>
<path fill="none" stroke="#000000" d="M232.4016,-735.8314C227.7123,-727.7925 222.0972,-718.1666 216.9202,-709.2918"/>
<polygon fill="#000000" stroke="#000000" points="219.8031,-707.2875 211.7411,-700.4133 213.7566,-710.8146 219.8031,-707.2875"/>
</g>
<!-- [root] root&#45;&gt;[root] provider.google (close) -->
<g id="edge_24" class="edge">
<title>[root] root&#45;&gt;[root] provider.google (close)</title>
<path fill="none" stroke="#000000" d="M208.3421,-736.0131C191.4244,-726.4379 171.2657,-713.7993 155,-700 132.4755,-680.8909 110.8001,-655.082 96.0405,-636.0018"/>
<polygon fill="#000000" stroke="#000000" points="98.8041,-633.8537 89.9621,-628.0167 93.2342,-638.0936 98.8041,-633.8537"/>
</g>
<!-- [root] root&#45;&gt;[root] provisioner.file (close) -->
<g id="edge_25" class="edge">
<title>[root] root&#45;&gt;[root] provisioner.file (close)</title>
<path fill="none" stroke="#000000" d="M277.4925,-736.3868C298.0881,-725.8699 324.2881,-712.4912 345.5484,-701.6349"/>
<polygon fill="#000000" stroke="#000000" points="347.3138,-704.6633 354.6281,-696.9984 344.1303,-698.4291 347.3138,-704.6633"/>
</g>
<!-- [root] root&#45;&gt;[root] provisioner.remote&#45;exec (close) -->
<g id="edge_26" class="edge">
<title>[root] root&#45;&gt;[root] provisioner.remote&#45;exec (close)</title>
<path fill="none" stroke="#000000" d="M257.3835,-735.8314C263.9486,-727.5386 271.8507,-717.557 279.0578,-708.4533"/>
<polygon fill="#000000" stroke="#000000" points="281.9599,-710.4262 285.4228,-700.4133 276.4716,-706.0813 281.9599,-710.4262"/>
</g>
<!-- [root] var.install_script_src_path -->
<g id="node_7" class="node">
<title>[root] var.install_script_src_path</title>
<polygon fill="none" stroke="#000000" points="285,-250 285,-265 401,-265 401,-250 285,-250"/>
<text text-anchor="start" x="335.7988" y="-255.6" font-family="courier new" font-size="8.00" fill="#000000">var</text>
<polygon fill="none" stroke="#000000" points="285,-235 285,-250 401,-250 401,-235 285,-235"/>
<text text-anchor="start" x="287.791" y="-240.6" font-family="courier new" font-size="8.00" fill="#000000">install_script_src_path</text>
</g>
<!-- [root] var.install_script_dest_path&#45;&gt;[root] var.install_script_src_path -->
<g id="edge_43" class="edge">
<title>[root] var.install_script_dest_path&#45;&gt;[root] var.install_script_src_path</title>
<path fill="none" stroke="#000000" stroke-dasharray="5,2" d="M343,-303.8314C343,-293 343,-279.2876 343,-268.4133"/>
</g>
<!-- [root] var.private_key_path -->
<g id="node_8" class="node">
<title>[root] var.private_key_path</title>
<polygon fill="none" stroke="#000000" points="302,-178 302,-193 384,-193 384,-178 302,-178"/>
<text text-anchor="start" x="335.7988" y="-183.6" font-family="courier new" font-size="8.00" fill="#000000">var</text>
<polygon fill="none" stroke="#000000" points="302,-163 302,-178 384,-178 384,-163 302,-163"/>
<text text-anchor="start" x="304.5938" y="-168.6" font-family="courier new" font-size="8.00" fill="#000000">private_key_path</text>
</g>
<!-- [root] var.install_script_src_path&#45;&gt;[root] var.private_key_path -->
<g id="edge_44" class="edge">
<title>[root] var.install_script_src_path&#45;&gt;[root] var.private_key_path</title>
<path fill="none" stroke="#000000" stroke-dasharray="5,2" d="M343,-231.8314C343,-221 343,-207.2876 343,-196.4133"/>
</g>
<!-- [root] var.public_key_path -->
<g id="node_9" class="node">
<title>[root] var.public_key_path</title>
<polygon fill="none" stroke="#000000" points="304,-106 304,-121 382,-121 382,-106 304,-106"/>
<text text-anchor="start" x="335.7988" y="-111.6" font-family="courier new" font-size="8.00" fill="#000000">var</text>
<polygon fill="none" stroke="#000000" points="304,-91 304,-106 382,-106 382,-91 304,-91"/>
<text text-anchor="start" x="306.9941" y="-96.6" font-family="courier new" font-size="8.00" fill="#000000">public_key_path</text>
</g>
<!-- [root] var.private_key_path&#45;&gt;[root] var.public_key_path -->
<g id="edge_45" class="edge">
<title>[root] var.private_key_path&#45;&gt;[root] var.public_key_path</title>
<path fill="none" stroke="#000000" stroke-dasharray="5,2" d="M343,-159.8314C343,-149 343,-135.2876 343,-124.4133"/>
</g>
<!-- [root] var.region_zone -->
<g id="node_10" class="node">
<title>[root] var.region_zone</title>
<polygon fill="none" stroke="#000000" points="314,-34 314,-49 372,-49 372,-34 314,-34"/>
<text text-anchor="start" x="335.7988" y="-39.6" font-family="courier new" font-size="8.00" fill="#000000">var</text>
<polygon fill="none" stroke="#000000" points="314,-19 314,-34 372,-34 372,-19 314,-19"/>
<text text-anchor="start" x="316.5957" y="-24.6" font-family="courier new" font-size="8.00" fill="#000000">region_zone</text>
</g>
<!-- [root] var.public_key_path&#45;&gt;[root] var.region_zone -->
<g id="edge_46" class="edge">
<title>[root] var.public_key_path&#45;&gt;[root] var.region_zone</title>
<path fill="none" stroke="#000000" stroke-dasharray="5,2" d="M343,-87.8314C343,-77 343,-63.2876 343,-52.4133"/>
</g>
<!-- [root] var.project_name -->
<g id="node_16" class="node">
<title>[root] var.project_name</title>
<polygon fill="none" stroke="#000000" points="156,-178 156,-193 219,-193 219,-178 156,-178"/>
<text text-anchor="start" x="180.2988" y="-183.6" font-family="courier new" font-size="8.00" fill="#000000">var</text>
<polygon fill="none" stroke="#000000" points="156,-163 156,-178 219,-178 219,-163 156,-163"/>
<text text-anchor="start" x="158.6953" y="-168.6" font-family="courier new" font-size="8.00" fill="#000000">project_name</text>
</g>
<!-- [root] var.credentials_file_path&#45;&gt;[root] var.project_name -->
<g id="edge_51" class="edge">
<title>[root] var.credentials_file_path&#45;&gt;[root] var.project_name</title>
<path fill="none" stroke="#000000" stroke-dasharray="5,2" d="M187,-231.8314C187,-221 187,-207.2876 187,-196.4133"/>
</g>
<!-- [root] var.region -->
<g id="node_17" class="node">
<title>[root] var.region</title>
<polygon fill="none" stroke="#000000" points="170,-106 170,-121 204,-121 204,-106 170,-106"/>
<text text-anchor="start" x="179.7988" y="-111.6" font-family="courier new" font-size="8.00" fill="#000000">var</text>
<polygon fill="none" stroke="#000000" points="170,-91 170,-106 204,-106 204,-91 170,-91"/>
<text text-anchor="start" x="172.5977" y="-96.6" font-family="courier new" font-size="8.00" fill="#000000">region</text>
</g>
<!-- [root] var.project_name&#45;&gt;[root] var.region -->
<g id="edge_52" class="edge">
<title>[root] var.project_name&#45;&gt;[root] var.region</title>
<path fill="none" stroke="#000000" stroke-dasharray="5,2" d="M187,-159.8314C187,-149 187,-135.2876 187,-124.4133"/>
</g>
<!-- [root] output.instance_ips&#45;&gt;[root] google_compute_instance.www -->
<g id="edge_14" class="edge">
<title>[root] output.instance_ips&#45;&gt;[root] google_compute_instance.www</title>
<path fill="none" stroke="#000000" d="M294.4276,-591.9555C303.6636,-554.3144 325.0422,-467.1867 336.0991,-422.1246"/>
<polygon fill="#000000" stroke="#000000" points="339.5638,-422.6911 338.5477,-412.1451 332.7655,-421.0229 339.5638,-422.6911"/>
</g>
<!-- [root] output.pool_public_ip&#45;&gt;[root] google_compute_forwarding_rule.default -->
<g id="edge_15" class="edge">
<title>[root] output.pool_public_ip&#45;&gt;[root] google_compute_forwarding_rule.default</title>
<path fill="none" stroke="#000000" d="M200.0281,-591.8314C201.3115,-584.131 202.8376,-574.9743 204.2639,-566.4166"/>
<polygon fill="#000000" stroke="#000000" points="207.7394,-566.8526 205.9311,-556.4133 200.8347,-565.7018 207.7394,-566.8526"/>
</g>
</g>
</svg>

