<?xml version="1.0" encoding="UTF-8" standalone="no"?>
<!DOCTYPE svg PUBLIC "-//W3C//DTD SVG 1.1//EN"
 "http://www.w3.org/Graphics/SVG/1.1/DTD/svg11.dtd">
<!-- Generated by graphviz version 2.40.1 (20161225.0304)
 -->
<!-- Title: %3 Pages: 1 -->
<svg width="234pt" height="852pt"
 viewBox="0.00 0.00 234.00 852.00" xmlns="http://www.w3.org/2000/svg" xmlns:xlink="http://www.w3.org/1999/xlink">
<g id="graph0" class="graph" transform="scale(1 1) rotate(0) translate(4 848)">
<title>%3</title>
<polygon fill="#ffffff" stroke="transparent" points="-4,4 -4,-848 230,-848 230,4 -4,4"/>
<g id="clust2" class="cluster">
<title>cluster[root] google_container_cluster.primary_var_</title>
</g>
<g id="clust3" class="cluster">
<title>cluster[root] provider.google_var_</title>
</g>
<g id="clust4" class="cluster">
<title>cluster[root] meta.count&#45;boundary (count boundary fixup)_output_[root] google_container_cluster.primary</title>
</g>
<!-- [root] data.google_compute_zones.available -->
<g id="node_0" class="node">
<title>[root] data.google_compute_zones.available</title>
<polygon fill="none" stroke="#000000" points="124,-250 124,-265 226,-265 226,-250 124,-250"/>
<text text-anchor="start" x="126.9922" y="-255.6" font-family="courier new" font-size="8.00" fill="#000000">google_compute_zones</text>
<polygon fill="none" stroke="#000000" points="124,-235 124,-250 226,-250 226,-235 124,-235"/>
<text text-anchor="start" x="153.3965" y="-240.6" font-family="courier new" font-size="8.00" fill="#000000">available</text>
</g>
<!-- [root] provider.google -->
<g id="node_2" class="node">
<title>[root] provider.google</title>
<polygon fill="none" stroke="#000000" points="153,-178 153,-193 197,-193 197,-178 153,-178"/>
<text text-anchor="start" x="155.7969" y="-183.6" font-family="courier new" font-size="8.00" fill="#000000">provider</text>
<polygon fill="none" stroke="#000000" points="153,-163 153,-178 197,-178 197,-163 153,-163"/>
<text text-anchor="start" x="160.5977" y="-168.6" font-family="courier new" font-size="8.00" fill="#000000">google</text>
</g>
<!-- [root] data.google_compute_zones.available&#45;&gt;[root] provider.google -->
<g id="edge_0" class="edge">
<title>[root] data.google_compute_zones.available&#45;&gt;[root] provider.google</title>
<path fill="none" stroke="#000000" d="M175,-231.8314C175,-224.131 175,-214.9743 175,-206.4166"/>
<polygon fill="#000000" stroke="#000000" points="178.5001,-206.4132 175,-196.4133 171.5001,-206.4133 178.5001,-206.4132"/>
</g>
<!-- [root] google_container_cluster.primary -->
<g id="node_1" class="node">
<title>[root] google_container_cluster.primary</title>
<polygon fill="none" stroke="#000000" points="5,-322 5,-337 126,-337 126,-322 5,-322"/>
<text text-anchor="start" x="7.8906" y="-327.6" font-family="courier new" font-size="8.00" fill="#000000">google_container_cluster</text>
<polygon fill="none" stroke="#000000" points="5,-307 5,-322 126,-322 126,-307 5,-307"/>
<text text-anchor="start" x="48.6973" y="-312.6" font-family="courier new" font-size="8.00" fill="#000000">primary</text>
</g>
<!-- [root] google_container_cluster.primary&#45;&gt;[root] data.google_compute_zones.available -->
<g id="edge_1" class="edge">
<title>[root] google_container_cluster.primary&#45;&gt;[root] data.google_compute_zones.available</title>
<path fill="none" stroke="#000000" d="M92.7576,-303.8314C106.697,-294.7074 123.7598,-283.539 138.7231,-273.7449"/>
<polygon fill="#000000" stroke="#000000" points="140.801,-276.5679 147.2512,-268.1628 136.9674,-270.711 140.801,-276.5679"/>
</g>
<!-- [root] var.cluster_name -->
<g id="node_3" class="node">
<title>[root] var.cluster_name</title>
<polygon fill="none" stroke="#000000" points="32,-250 32,-265 95,-265 95,-250 32,-250"/>
<text text-anchor="start" x="56.2988" y="-255.6" font-family="courier new" font-size="8.00" fill="#000000">var</text>
<polygon fill="none" stroke="#000000" points="32,-235 32,-250 95,-250 95,-235 32,-235"/>
<text text-anchor="start" x="34.6953" y="-240.6" font-family="courier new" font-size="8.00" fill="#000000">cluster_name</text>
</g>
<!-- [root] google_container_cluster.primary&#45;&gt;[root] var.cluster_name -->
<g id="edge_2" class="edge">
<title>[root] google_container_cluster.primary&#45;&gt;[root] var.cluster_name</title>
<path fill="none" stroke="#000000" d="M64.4953,-303.8314C64.2814,-296.131 64.0271,-286.9743 63.7894,-278.4166"/>
<polygon fill="#000000" stroke="#000000" points="67.2879,-278.3122 63.5115,-268.4133 60.2906,-278.5066 67.2879,-278.3122"/>
</g>
<!-- [root] var.region -->
<g id="node_14" class="node">
<title>[root] var.region</title>
<polygon fill="none" stroke="#000000" points="158,-106 158,-121 192,-121 192,-106 158,-106"/>
<text text-anchor="start" x="167.7988" y="-111.6" font-family="courier new" font-size="8.00" fill="#000000">var</text>
<polygon fill="none" stroke="#000000" points="158,-91 158,-106 192,-106 192,-91 158,-91"/>
<text text-anchor="start" x="160.5977" y="-96.6" font-family="courier new" font-size="8.00" fill="#000000">region</text>
</g>
<!-- [root] provider.google&#45;&gt;[root] var.region -->
<g id="edge_17" class="edge">
<title>[root] provider.google&#45;&gt;[root] var.region</title>
<path fill="none" stroke="#000000" d="M175,-159.8314C175,-152.131 175,-142.9743 175,-134.4166"/>
<polygon fill="#000000" stroke="#000000" points="178.5001,-134.4132 175,-124.4133 171.5001,-134.4133 178.5001,-134.4132"/>
</g>
<!-- [root] meta.count&#45;boundary (count boundary fixup) -->
<g id="node_7" class="node">
<title>[root] meta.count&#45;boundary (count boundary fixup)</title>
<polygon fill="none" stroke="#000000" points="17,-754 17,-769 90,-769 90,-754 17,-754"/>
<text text-anchor="start" x="43.8984" y="-759.6" font-family="courier new" font-size="8.00" fill="#000000">meta</text>
<polygon fill="none" stroke="#000000" points="17,-739 17,-754 90,-754 90,-739 17,-739"/>
<text text-anchor="start" x="19.8945" y="-744.6" font-family="courier new" font-size="8.00" fill="#000000">count&#45;boundary</text>
</g>
<!-- [root] output.additional_zones -->
<g id="node_8" class="node">
<title>[root] output.additional_zones</title>
<polygon fill="none" stroke="#000000" points="16,-682 16,-697 98,-697 98,-682 16,-682"/>
<text text-anchor="start" x="42.5977" y="-687.6" font-family="courier new" font-size="8.00" fill="#000000">output</text>
<polygon fill="none" stroke="#000000" points="16,-667 16,-682 98,-682 98,-667 16,-667"/>
<text text-anchor="start" x="18.5938" y="-672.6" font-family="courier new" font-size="8.00" fill="#000000">additional_zones</text>
</g>
<!-- [root] meta.count&#45;boundary (count boundary fixup)&#45;&gt;[root] output.additional_zones -->
<g id="edge_6" class="edge">
<title>[root] meta.count&#45;boundary (count boundary fixup)&#45;&gt;[root] output.additional_zones</title>
<path fill="none" stroke="#000000" d="M54.0094,-735.8314C54.4372,-728.131 54.9459,-718.9743 55.4213,-710.4166"/>
<polygon fill="#000000" stroke="#000000" points="58.9169,-710.592 55.977,-700.4133 51.9276,-710.2037 58.9169,-710.592"/>
</g>
<!-- [root] provider.google (close) -->
<g id="node_13" class="node">
<title>[root] provider.google (close)</title>
<polygon fill="none" stroke="#000000" points="113,-754 113,-769 157,-769 157,-754 113,-754"/>
<text text-anchor="start" x="115.7969" y="-759.6" font-family="courier new" font-size="8.00" fill="#000000">provider</text>
<polygon fill="none" stroke="#000000" points="113,-739 113,-754 157,-754 157,-739 113,-739"/>
<text text-anchor="start" x="120.5977" y="-744.6" font-family="courier new" font-size="8.00" fill="#000000">google</text>
</g>
<!-- [root] provider.google (close)&#45;&gt;[root] google_container_cluster.primary -->
<g id="edge_16" class="edge">
<title>[root] provider.google (close)&#45;&gt;[root] google_container_cluster.primary</title>
<path fill="none" stroke="#000000" d="M134.3784,-735.8172C133.4997,-708.504 132,-655.2598 132,-610 132,-610 132,-610 132,-466 132,-421.3604 131.308,-407.2258 110,-368 106.0254,-360.6832 100.5509,-353.7278 94.7867,-347.5435"/>
<polygon fill="#000000" stroke="#000000" points="96.9597,-344.7658 87.4215,-340.1534 92.0015,-349.7071 96.9597,-344.7658"/>
</g>
<!-- [root] root -->
<g id="node_15" class="node">
<title>[root] root</title>
<polygon fill="none" stroke="#000000" points="128.3089,-844 59.6911,-844 59.6911,-808 128.3089,-808 128.3089,-844"/>
<text text-anchor="middle" x="94" y="-824.1313" font-family="courier new" font-size="8.00" fill="#000000">[root] root</text>
</g>
<!-- [root] root&#45;&gt;[root] meta.count&#45;boundary (count boundary fixup) -->
<g id="edge_18" class="edge">
<title>[root] root&#45;&gt;[root] meta.count&#45;boundary (count boundary fixup)</title>
<path fill="none" stroke="#000000" d="M83.654,-807.8314C79.0763,-799.7925 73.5948,-790.1666 68.5412,-781.2918"/>
<polygon fill="#000000" stroke="#000000" points="71.4752,-779.3712 63.4853,-772.4133 65.3923,-782.8351 71.4752,-779.3712"/>
</g>
<!-- [root] root&#45;&gt;[root] provider.google (close) -->
<g id="edge_19" class="edge">
<title>[root] root&#45;&gt;[root] provider.google (close)</title>
<path fill="none" stroke="#000000" d="M104.346,-807.8314C108.9237,-799.7925 114.4052,-790.1666 119.4588,-781.2918"/>
<polygon fill="#000000" stroke="#000000" points="122.6077,-782.8351 124.5147,-772.4133 116.5248,-779.3712 122.6077,-782.8351"/>
</g>
<!-- [root] var.kubernetes_version -->
<g id="node_4" class="node">
<title>[root] var.kubernetes_version</title>
<polygon fill="none" stroke="#000000" points="16,-178 16,-193 108,-193 108,-178 16,-178"/>
<text text-anchor="start" x="54.7988" y="-183.6" font-family="courier new" font-size="8.00" fill="#000000">var</text>
<polygon fill="none" stroke="#000000" points="16,-163 16,-178 108,-178 108,-163 16,-163"/>
<text text-anchor="start" x="18.793" y="-168.6" font-family="courier new" font-size="8.00" fill="#000000">kubernetes_version</text>
</g>
<!-- [root] var.cluster_name&#45;&gt;[root] var.kubernetes_version -->
<g id="edge_29" class="edge">
<title>[root] var.cluster_name&#45;&gt;[root] var.kubernetes_version</title>
<path fill="none" stroke="#000000" stroke-dasharray="5,2" d="M62.7477,-231.8314C62.5972,-221 62.4068,-207.2876 62.2557,-196.4133"/>
</g>
<!-- [root] var.password -->
<g id="node_5" class="node">
<title>[root] var.password</title>
<polygon fill="none" stroke="#000000" points="40,-106 40,-121 84,-121 84,-106 40,-106"/>
<text text-anchor="start" x="54.7988" y="-111.6" font-family="courier new" font-size="8.00" fill="#000000">var</text>
<polygon fill="none" stroke="#000000" points="40,-91 40,-106 84,-106 84,-91 40,-91"/>
<text text-anchor="start" x="42.7969" y="-96.6" font-family="courier new" font-size="8.00" fill="#000000">password</text>
</g>
<!-- [root] var.kubernetes_version&#45;&gt;[root] var.password -->
<g id="edge_30" class="edge">
<title>[root] var.kubernetes_version&#45;&gt;[root] var.password</title>
<path fill="none" stroke="#000000" stroke-dasharray="5,2" d="M62,-159.8314C62,-149 62,-135.2876 62,-124.4133"/>
</g>
<!-- [root] var.username -->
<g id="node_6" class="node">
<title>[root] var.username</title>
<polygon fill="none" stroke="#000000" points="40,-34 40,-49 84,-49 84,-34 40,-34"/>
<text text-anchor="start" x="54.7988" y="-39.6" font-family="courier new" font-size="8.00" fill="#000000">var</text>
<polygon fill="none" stroke="#000000" points="40,-19 40,-34 84,-34 84,-19 40,-19"/>
<text text-anchor="start" x="42.7969" y="-24.6" font-family="courier new" font-size="8.00" fill="#000000">username</text>
</g>
<!-- [root] var.password&#45;&gt;[root] var.username -->
<g id="edge_31" class="edge">
<title>[root] var.password&#45;&gt;[root] var.username</title>
<path fill="none" stroke="#000000" stroke-dasharray="5,2" d="M62,-87.8314C62,-77 62,-63.2876 62,-52.4133"/>
</g>
<!-- [root] output.cluster_name -->
<g id="node_9" class="node">
<title>[root] output.cluster_name</title>
<polygon fill="none" stroke="#000000" points="27,-610 27,-625 90,-625 90,-610 27,-610"/>
<text text-anchor="start" x="44.0977" y="-615.6" font-family="courier new" font-size="8.00" fill="#000000">output</text>
<polygon fill="none" stroke="#000000" points="27,-595 27,-610 90,-610 90,-595 27,-595"/>
<text text-anchor="start" x="29.6953" y="-600.6" font-family="courier new" font-size="8.00" fill="#000000">cluster_name</text>
</g>
<!-- [root] output.additional_zones&#45;&gt;[root] output.cluster_name -->
<g id="edge_48" class="edge">
<title>[root] output.additional_zones&#45;&gt;[root] output.cluster_name</title>
<path fill="none" stroke="#000000" stroke-dasharray="5,2" d="M57.2523,-663.8314C57.4028,-653 57.5932,-639.2876 57.7443,-628.4133"/>
</g>
<!-- [root] output.endpoint -->
<g id="node_10" class="node">
<title>[root] output.endpoint</title>
<polygon fill="none" stroke="#000000" points="37,-538 37,-553 81,-553 81,-538 37,-538"/>
<text text-anchor="start" x="44.5977" y="-543.6" font-family="courier new" font-size="8.00" fill="#000000">output</text>
<polygon fill="none" stroke="#000000" points="37,-523 37,-538 81,-538 81,-523 37,-523"/>
<text text-anchor="start" x="39.7969" y="-528.6" font-family="courier new" font-size="8.00" fill="#000000">endpoint</text>
</g>
<!-- [root] output.cluster_name&#45;&gt;[root] output.endpoint -->
<g id="edge_49" class="edge">
<title>[root] output.cluster_name&#45;&gt;[root] output.endpoint</title>
<path fill="none" stroke="#000000" stroke-dasharray="5,2" d="M58.2523,-591.8314C58.4028,-581 58.5932,-567.2876 58.7443,-556.4133"/>
</g>
<!-- [root] output.node_version -->
<g id="node_11" class="node">
<title>[root] output.node_version</title>
<polygon fill="none" stroke="#000000" points="30,-466 30,-481 93,-481 93,-466 30,-466"/>
<text text-anchor="start" x="47.0977" y="-471.6" font-family="courier new" font-size="8.00" fill="#000000">output</text>
<polygon fill="none" stroke="#000000" points="30,-451 30,-466 93,-466 93,-451 30,-451"/>
<text text-anchor="start" x="32.6953" y="-456.6" font-family="courier new" font-size="8.00" fill="#000000">node_version</text>
</g>
<!-- [root] output.endpoint&#45;&gt;[root] output.node_version -->
<g id="edge_50" class="edge">
<title>[root] output.endpoint&#45;&gt;[root] output.node_version</title>
<path fill="none" stroke="#000000" stroke-dasharray="5,2" d="M59.5047,-519.8314C59.8056,-509 60.1865,-495.2876 60.4885,-484.4133"/>
</g>
<!-- [root] output.primary_zone -->
<g id="node_12" class="node">
<title>[root] output.primary_zone</title>
<polygon fill="none" stroke="#000000" points="33,-394 33,-409 96,-409 96,-394 33,-394"/>
<text text-anchor="start" x="50.0977" y="-399.6" font-family="courier new" font-size="8.00" fill="#000000">output</text>
<polygon fill="none" stroke="#000000" points="33,-379 33,-394 96,-394 96,-379 33,-379"/>
<text text-anchor="start" x="35.6953" y="-384.6" font-family="courier new" font-size="8.00" fill="#000000">primary_zone</text>
</g>
<!-- [root] output.node_version&#45;&gt;[root] output.primary_zone -->
<g id="edge_51" class="edge">
<title>[root] output.node_version&#45;&gt;[root] output.primary_zone</title>
<path fill="none" stroke="#000000" stroke-dasharray="5,2" d="M61.757,-447.8314C62.2083,-437 62.7797,-423.2876 63.2328,-412.4133"/>
</g>
<!-- [root] output.primary_zone&#45;&gt;[root] google_container_cluster.primary -->
<g id="edge_15" class="edge">
<title>[root] output.primary_zone&#45;&gt;[root] google_container_cluster.primary</title>
<path fill="none" stroke="#000000" d="M64.2523,-375.8314C64.3593,-368.131 64.4865,-358.9743 64.6053,-350.4166"/>
<polygon fill="#000000" stroke="#000000" points="68.1049,-350.4609 64.7443,-340.4133 61.1056,-350.3637 68.1049,-350.4609"/>
</g>
</g>
</svg>

