<?xml version="1.0" encoding="UTF-8" standalone="no"?>
<!DOCTYPE svg PUBLIC "-//W3C//DTD SVG 1.1//EN"
 "http://www.w3.org/Graphics/SVG/1.1/DTD/svg11.dtd">
<!-- Generated by graphviz version 2.40.1 (20161225.0304)
 -->
<!-- Title: %3 Pages: 1 -->
<svg width="470pt" height="476pt"
 viewBox="0.00 0.00 470.00 476.00" xmlns="http://www.w3.org/2000/svg" xmlns:xlink="http://www.w3.org/1999/xlink">
<g id="graph0" class="graph" transform="scale(1 1) rotate(0) translate(4 472)">
<title>%3</title>
<polygon fill="#ffffff" stroke="transparent" points="-4,4 -4,-472 466,-472 466,4 -4,4"/>
<!-- [root] data.google_compute_zones.available -->
<g id="node_0" class="node">
<title>[root] data.google_compute_zones.available</title>
<polygon fill="none" stroke="#000000" points="0,-162 0,-177 126,-177 126,-162 0,-162"/>
<text text-anchor="start" x="2.9902" y="-167.6" font-family="courier new" font-size="8.00" fill="#000000">data.google_compute_zones</text>
<polygon fill="none" stroke="#000000" points="0,-147 0,-162 126,-162 126,-147 0,-147"/>
<text text-anchor="start" x="41.3965" y="-152.6" font-family="courier new" font-size="8.00" fill="#000000">available</text>
</g>
<!-- [root] provider.google -->
<g id="node_2" class="node">
<title>[root] provider.google</title>
<polygon fill="none" stroke="#000000" points="41,-90 41,-105 85,-105 85,-90 41,-90"/>
<text text-anchor="start" x="43.7969" y="-95.6" font-family="courier new" font-size="8.00" fill="#000000">provider</text>
<polygon fill="none" stroke="#000000" points="41,-75 41,-90 85,-90 85,-75 41,-75"/>
<text text-anchor="start" x="48.5977" y="-80.6" font-family="courier new" font-size="8.00" fill="#000000">google</text>
</g>
<!-- [root] data.google_compute_zones.available&#45;&gt;[root] provider.google -->
<g id="edge_0" class="edge">
<title>[root] data.google_compute_zones.available&#45;&gt;[root] provider.google</title>
<path fill="none" stroke="#000000" d="M63,-143.8314C63,-136.131 63,-126.9743 63,-118.4166"/>
<polygon fill="#000000" stroke="#000000" points="66.5001,-118.4132 63,-108.4133 59.5001,-118.4133 66.5001,-118.4132"/>
</g>
<!-- [root] google_container_cluster.primary -->
<g id="node_1" class="node">
<title>[root] google_container_cluster.primary</title>
<polygon fill="none" stroke="#000000" points="212,-234 212,-249 333,-249 333,-234 212,-234"/>
<text text-anchor="start" x="214.8906" y="-239.6" font-family="courier new" font-size="8.00" fill="#000000">google_container_cluster</text>
<polygon fill="none" stroke="#000000" points="212,-219 212,-234 333,-234 333,-219 212,-219"/>
<text text-anchor="start" x="255.6973" y="-224.6" font-family="courier new" font-size="8.00" fill="#000000">primary</text>
</g>
<!-- [root] google_container_cluster.primary&#45;&gt;[root] data.google_compute_zones.available -->
<g id="edge_1" class="edge">
<title>[root] google_container_cluster.primary&#45;&gt;[root] data.google_compute_zones.available</title>
<path fill="none" stroke="#000000" d="M219.5302,-215.9243C190.8345,-206.0387 155.1112,-193.7321 125.04,-183.3726"/>
<polygon fill="#000000" stroke="#000000" points="126.0861,-180.0312 115.4913,-180.0831 123.806,-186.6495 126.0861,-180.0312"/>
</g>
<!-- [root] var.cluster_name -->
<g id="node_3" class="node">
<title>[root] var.cluster_name</title>
<polygon fill="none" stroke="#000000" points="145,-162 145,-177 208,-177 208,-162 145,-162"/>
<text text-anchor="start" x="169.2988" y="-167.6" font-family="courier new" font-size="8.00" fill="#000000">var</text>
<polygon fill="none" stroke="#000000" points="145,-147 145,-162 208,-162 208,-147 145,-147"/>
<text text-anchor="start" x="147.6953" y="-152.6" font-family="courier new" font-size="8.00" fill="#000000">cluster_name</text>
</g>
<!-- [root] google_container_cluster.primary&#45;&gt;[root] var.cluster_name -->
<g id="edge_2" class="edge">
<title>[root] google_container_cluster.primary&#45;&gt;[root] var.cluster_name</title>
<path fill="none" stroke="#000000" d="M247.7751,-215.8314C235.8372,-206.8779 221.2744,-195.9558 208.394,-186.2955"/>
<polygon fill="#000000" stroke="#000000" points="210.3171,-183.3629 200.2171,-180.1628 206.1171,-188.9629 210.3171,-183.3629"/>
</g>
<!-- [root] var.kubernetes_version -->
<g id="node_4" class="node">
<title>[root] var.kubernetes_version</title>
<polygon fill="none" stroke="#000000" points="226,-162 226,-177 318,-177 318,-162 226,-162"/>
<text text-anchor="start" x="264.7988" y="-167.6" font-family="courier new" font-size="8.00" fill="#000000">var</text>
<polygon fill="none" stroke="#000000" points="226,-147 226,-162 318,-162 318,-147 226,-147"/>
<text text-anchor="start" x="228.793" y="-152.6" font-family="courier new" font-size="8.00" fill="#000000">kubernetes_version</text>
</g>
<!-- [root] google_container_cluster.primary&#45;&gt;[root] var.kubernetes_version -->
<g id="edge_3" class="edge">
<title>[root] google_container_cluster.primary&#45;&gt;[root] var.kubernetes_version</title>
<path fill="none" stroke="#000000" d="M272,-215.8314C272,-208.131 272,-198.9743 272,-190.4166"/>
<polygon fill="#000000" stroke="#000000" points="275.5001,-190.4132 272,-180.4133 268.5001,-190.4133 275.5001,-190.4132"/>
</g>
<!-- [root] var.password -->
<g id="node_5" class="node">
<title>[root] var.password</title>
<polygon fill="none" stroke="#000000" points="341,-162 341,-177 385,-177 385,-162 341,-162"/>
<text text-anchor="start" x="355.7988" y="-167.6" font-family="courier new" font-size="8.00" fill="#000000">var</text>
<polygon fill="none" stroke="#000000" points="341,-147 341,-162 385,-162 385,-147 341,-147"/>
<text text-anchor="start" x="343.7969" y="-152.6" font-family="courier new" font-size="8.00" fill="#000000">password</text>
</g>
<!-- [root] google_container_cluster.primary&#45;&gt;[root] var.password -->
<g id="edge_4" class="edge">
<title>[root] google_container_cluster.primary&#45;&gt;[root] var.password</title>
<path fill="none" stroke="#000000" d="M294.9631,-215.8314C306.1715,-206.9632 319.8209,-196.1637 331.9439,-186.5718"/>
<polygon fill="#000000" stroke="#000000" points="334.3737,-189.1125 340.0442,-180.1628 330.0303,-183.6229 334.3737,-189.1125"/>
</g>
<!-- [root] var.username -->
<g id="node_6" class="node">
<title>[root] var.username</title>
<polygon fill="none" stroke="#000000" points="413,-162 413,-177 457,-177 457,-162 413,-162"/>
<text text-anchor="start" x="427.7988" y="-167.6" font-family="courier new" font-size="8.00" fill="#000000">var</text>
<polygon fill="none" stroke="#000000" points="413,-147 413,-162 457,-162 457,-147 413,-147"/>
<text text-anchor="start" x="415.7969" y="-152.6" font-family="courier new" font-size="8.00" fill="#000000">username</text>
</g>
<!-- [root] google_container_cluster.primary&#45;&gt;[root] var.username -->
<g id="edge_5" class="edge">
<title>[root] google_container_cluster.primary&#45;&gt;[root] var.username</title>
<path fill="none" stroke="#000000" d="M316.375,-215.9193C338.7895,-206.6066 366.5467,-194.8035 398.7574,-179.9991"/>
<polygon fill="#000000" stroke="#000000" points="400.3525,-183.1177 407.9598,-175.7435 397.4143,-176.7642 400.3525,-183.1177"/>
</g>
<!-- [root] var.region -->
<g id="node_14" class="node">
<title>[root] var.region</title>
<polygon fill="none" stroke="#000000" points="46,-18 46,-33 80,-33 80,-18 46,-18"/>
<text text-anchor="start" x="55.7988" y="-23.6" font-family="courier new" font-size="8.00" fill="#000000">var</text>
<polygon fill="none" stroke="#000000" points="46,-3 46,-18 80,-18 80,-3 46,-3"/>
<text text-anchor="start" x="48.5977" y="-8.6" font-family="courier new" font-size="8.00" fill="#000000">region</text>
</g>
<!-- [root] provider.google&#45;&gt;[root] var.region -->
<g id="edge_17" class="edge">
<title>[root] provider.google&#45;&gt;[root] var.region</title>
<path fill="none" stroke="#000000" d="M63,-71.8314C63,-64.131 63,-54.9743 63,-46.4166"/>
<polygon fill="#000000" stroke="#000000" points="66.5001,-46.4132 63,-36.4133 59.5001,-46.4133 66.5001,-46.4132"/>
</g>
<!-- [root] meta.count&#45;boundary (count boundary fixup) -->
<g id="node_7" class="node">
<title>[root] meta.count&#45;boundary (count boundary fixup)</title>
<polygon fill="none" stroke="#000000" points="236,-378 236,-393 309,-393 309,-378 236,-378"/>
<text text-anchor="start" x="262.8984" y="-383.6" font-family="courier new" font-size="8.00" fill="#000000">meta</text>
<polygon fill="none" stroke="#000000" points="236,-363 236,-378 309,-378 309,-363 236,-363"/>
<text text-anchor="start" x="238.8945" y="-368.6" font-family="courier new" font-size="8.00" fill="#000000">count&#45;boundary</text>
</g>
<!-- [root] output.additional_zones -->
<g id="node_8" class="node">
<title>[root] output.additional_zones</title>
<polygon fill="none" stroke="#000000" points="25,-306 25,-321 107,-321 107,-306 25,-306"/>
<text text-anchor="start" x="51.5977" y="-311.6" font-family="courier new" font-size="8.00" fill="#000000">output</text>
<polygon fill="none" stroke="#000000" points="25,-291 25,-306 107,-306 107,-291 25,-291"/>
<text text-anchor="start" x="27.5938" y="-296.6" font-family="courier new" font-size="8.00" fill="#000000">additional_zones</text>
</g>
<!-- [root] meta.count&#45;boundary (count boundary fixup)&#45;&gt;[root] output.additional_zones -->
<g id="edge_6" class="edge">
<title>[root] meta.count&#45;boundary (count boundary fixup)&#45;&gt;[root] output.additional_zones</title>
<path fill="none" stroke="#000000" d="M235.3923,-365.4704C205.7895,-355.3065 162.7955,-340.4737 116.7444,-324.2453"/>
<polygon fill="#000000" stroke="#000000" points="117.7812,-320.8997 107.1864,-320.8724 115.4517,-327.5008 117.7812,-320.8997"/>
</g>
<!-- [root] output.cluster_name -->
<g id="node_9" class="node">
<title>[root] output.cluster_name</title>
<polygon fill="none" stroke="#000000" points="126,-306 126,-321 189,-321 189,-306 126,-306"/>
<text text-anchor="start" x="143.0977" y="-311.6" font-family="courier new" font-size="8.00" fill="#000000">output</text>
<polygon fill="none" stroke="#000000" points="126,-291 126,-306 189,-306 189,-291 126,-291"/>
<text text-anchor="start" x="128.6953" y="-296.6" font-family="courier new" font-size="8.00" fill="#000000">cluster_name</text>
</g>
<!-- [root] meta.count&#45;boundary (count boundary fixup)&#45;&gt;[root] output.cluster_name -->
<g id="edge_7" class="edge">
<title>[root] meta.count&#45;boundary (count boundary fixup)&#45;&gt;[root] output.cluster_name</title>
<path fill="none" stroke="#000000" d="M242.9806,-359.8314C228.2714,-350.6221 210.2356,-339.3301 194.4878,-329.4706"/>
<polygon fill="#000000" stroke="#000000" points="196.3433,-326.5029 186.0101,-324.1628 192.6286,-332.436 196.3433,-326.5029"/>
</g>
<!-- [root] output.endpoint -->
<g id="node_10" class="node">
<title>[root] output.endpoint</title>
<polygon fill="none" stroke="#000000" points="212,-306 212,-321 256,-321 256,-306 212,-306"/>
<text text-anchor="start" x="219.5977" y="-311.6" font-family="courier new" font-size="8.00" fill="#000000">output</text>
<polygon fill="none" stroke="#000000" points="212,-291 212,-306 256,-306 256,-291 212,-291"/>
<text text-anchor="start" x="214.7969" y="-296.6" font-family="courier new" font-size="8.00" fill="#000000">endpoint</text>
</g>
<!-- [root] meta.count&#45;boundary (count boundary fixup)&#45;&gt;[root] output.endpoint -->
<g id="edge_8" class="edge">
<title>[root] meta.count&#45;boundary (count boundary fixup)&#45;&gt;[root] output.endpoint</title>
<path fill="none" stroke="#000000" d="M262.411,-359.8314C258.1683,-351.7925 253.0879,-342.1666 248.404,-333.2918"/>
<polygon fill="#000000" stroke="#000000" points="251.4811,-331.6235 243.7181,-324.4133 245.2904,-334.8908 251.4811,-331.6235"/>
</g>
<!-- [root] output.node_version -->
<g id="node_11" class="node">
<title>[root] output.node_version</title>
<polygon fill="none" stroke="#000000" points="280,-306 280,-321 343,-321 343,-306 280,-306"/>
<text text-anchor="start" x="297.0977" y="-311.6" font-family="courier new" font-size="8.00" fill="#000000">output</text>
<polygon fill="none" stroke="#000000" points="280,-291 280,-306 343,-306 343,-291 280,-291"/>
<text text-anchor="start" x="282.6953" y="-296.6" font-family="courier new" font-size="8.00" fill="#000000">node_version</text>
</g>
<!-- [root] meta.count&#45;boundary (count boundary fixup)&#45;&gt;[root] output.node_version -->
<g id="edge_9" class="edge">
<title>[root] meta.count&#45;boundary (count boundary fixup)&#45;&gt;[root] output.node_version</title>
<path fill="none" stroke="#000000" d="M281.8413,-359.8314C286.1957,-351.7925 291.4098,-342.1666 296.2169,-333.2918"/>
<polygon fill="#000000" stroke="#000000" points="299.3408,-334.8732 301.0261,-324.4133 293.1857,-331.5392 299.3408,-334.8732"/>
</g>
<!-- [root] output.primary_zone -->
<g id="node_12" class="node">
<title>[root] output.primary_zone</title>
<polygon fill="none" stroke="#000000" points="361,-306 361,-321 424,-321 424,-306 361,-306"/>
<text text-anchor="start" x="378.0977" y="-311.6" font-family="courier new" font-size="8.00" fill="#000000">output</text>
<polygon fill="none" stroke="#000000" points="361,-291 361,-306 424,-306 424,-291 361,-291"/>
<text text-anchor="start" x="363.6953" y="-296.6" font-family="courier new" font-size="8.00" fill="#000000">primary_zone</text>
</g>
<!-- [root] meta.count&#45;boundary (count boundary fixup)&#45;&gt;[root] output.primary_zone -->
<g id="edge_10" class="edge">
<title>[root] meta.count&#45;boundary (count boundary fixup)&#45;&gt;[root] output.primary_zone</title>
<path fill="none" stroke="#000000" d="M302.2811,-359.8314C317.6298,-350.6221 336.4498,-339.3301 352.8823,-329.4706"/>
<polygon fill="#000000" stroke="#000000" points="354.9544,-332.3091 361.7286,-324.1628 351.3529,-326.3066 354.9544,-332.3091"/>
</g>
<!-- [root] output.additional_zones&#45;&gt;[root] google_container_cluster.primary -->
<g id="edge_11" class="edge">
<title>[root] output.additional_zones&#45;&gt;[root] google_container_cluster.primary</title>
<path fill="none" stroke="#000000" d="M107.1864,-291.1276C110.1676,-290.065 113.1291,-289.0136 116,-288 146.8361,-277.113 181.1748,-265.2034 209.768,-255.3455"/>
<polygon fill="#000000" stroke="#000000" points="210.9164,-258.6518 219.2312,-252.0855 208.6364,-252.0335 210.9164,-258.6518"/>
</g>
<!-- [root] output.cluster_name&#45;&gt;[root] google_container_cluster.primary -->
<g id="edge_12" class="edge">
<title>[root] output.cluster_name&#45;&gt;[root] google_container_cluster.primary</title>
<path fill="none" stroke="#000000" d="M186.0194,-287.8314C200.7286,-278.6221 218.7644,-267.3301 234.5122,-257.4706"/>
<polygon fill="#000000" stroke="#000000" points="236.3714,-260.436 242.9899,-252.1628 232.6567,-254.5029 236.3714,-260.436"/>
</g>
<!-- [root] output.endpoint&#45;&gt;[root] google_container_cluster.primary -->
<g id="edge_13" class="edge">
<title>[root] output.endpoint&#45;&gt;[root] google_container_cluster.primary</title>
<path fill="none" stroke="#000000" d="M243.589,-287.8314C247.8317,-279.7925 252.9121,-270.1666 257.596,-261.2918"/>
<polygon fill="#000000" stroke="#000000" points="260.7096,-262.8908 262.2819,-252.4133 254.5189,-259.6235 260.7096,-262.8908"/>
</g>
<!-- [root] output.node_version&#45;&gt;[root] google_container_cluster.primary -->
<g id="edge_14" class="edge">
<title>[root] output.node_version&#45;&gt;[root] google_container_cluster.primary</title>
<path fill="none" stroke="#000000" d="M301.1587,-287.8314C296.8043,-279.7925 291.5902,-270.1666 286.7831,-261.2918"/>
<polygon fill="#000000" stroke="#000000" points="289.8143,-259.5392 281.9739,-252.4133 283.6592,-262.8732 289.8143,-259.5392"/>
</g>
<!-- [root] output.primary_zone&#45;&gt;[root] google_container_cluster.primary -->
<g id="edge_15" class="edge">
<title>[root] output.primary_zone&#45;&gt;[root] google_container_cluster.primary</title>
<path fill="none" stroke="#000000" d="M361.7189,-287.8314C346.3702,-278.6221 327.5502,-267.3301 311.1177,-257.4706"/>
<polygon fill="#000000" stroke="#000000" points="312.6471,-254.3066 302.2714,-252.1628 309.0456,-260.3091 312.6471,-254.3066"/>
</g>
<!-- [root] provider.google (close) -->
<g id="node_13" class="node">
<title>[root] provider.google (close)</title>
<polygon fill="none" stroke="#000000" points="381,-378 381,-393 425,-393 425,-378 381,-378"/>
<text text-anchor="start" x="383.7969" y="-383.6" font-family="courier new" font-size="8.00" fill="#000000">provider</text>
<polygon fill="none" stroke="#000000" points="381,-363 381,-378 425,-378 425,-363 381,-363"/>
<text text-anchor="start" x="388.5977" y="-368.6" font-family="courier new" font-size="8.00" fill="#000000">google</text>
</g>
<!-- [root] provider.google (close)&#45;&gt;[root] google_container_cluster.primary -->
<g id="edge_16" class="edge">
<title>[root] provider.google (close)&#45;&gt;[root] google_container_cluster.primary</title>
<path fill="none" stroke="#000000" d="M417.9501,-359.9796C432.025,-340.6963 448.7733,-309.9273 433,-288 421.8189,-272.4565 380.5351,-258.7842 342.575,-249.0858"/>
<polygon fill="#000000" stroke="#000000" points="343.0509,-245.5977 332.502,-246.5825 341.3627,-252.391 343.0509,-245.5977"/>
</g>
<!-- [root] root -->
<g id="node_15" class="node">
<title>[root] root</title>
<polygon fill="none" stroke="#000000" points="347.3089,-468 278.6911,-468 278.6911,-432 347.3089,-432 347.3089,-468"/>
<text text-anchor="middle" x="313" y="-448.1313" font-family="courier new" font-size="8.00" fill="#000000">[root] root</text>
</g>
<!-- [root] root&#45;&gt;[root] meta.count&#45;boundary (count boundary fixup) -->
<g id="edge_18" class="edge">
<title>[root] root&#45;&gt;[root] meta.count&#45;boundary (count boundary fixup)</title>
<path fill="none" stroke="#000000" d="M302.654,-431.8314C298.0763,-423.7925 292.5948,-414.1666 287.5412,-405.2918"/>
<polygon fill="#000000" stroke="#000000" points="290.4752,-403.3712 282.4853,-396.4133 284.3923,-406.8351 290.4752,-403.3712"/>
</g>
<!-- [root] root&#45;&gt;[root] provider.google (close) -->
<g id="edge_19" class="edge">
<title>[root] root&#45;&gt;[root] provider.google (close)</title>
<path fill="none" stroke="#000000" d="M335.7108,-431.8314C346.796,-422.9632 360.2954,-412.1637 372.2852,-402.5718"/>
<polygon fill="#000000" stroke="#000000" points="374.6742,-405.1429 380.2965,-396.1628 370.3013,-399.6768 374.6742,-405.1429"/>
</g>
</g>
</svg>

