<?xml version="1.0" encoding="UTF-8" standalone="no"?>
<!DOCTYPE svg PUBLIC "-//W3C//DTD SVG 1.1//EN"
 "http://www.w3.org/Graphics/SVG/1.1/DTD/svg11.dtd">
<!-- Generated by graphviz version 2.40.1 (20161225.0304)
 -->
<!-- Title: %3 Pages: 1 -->
<svg width="1868pt" height="692pt"
 viewBox="0.00 0.00 1868.00 692.00" xmlns="http://www.w3.org/2000/svg" xmlns:xlink="http://www.w3.org/1999/xlink">
<g id="graph0" class="graph" transform="scale(1 1) rotate(0) translate(4 688)">
<title>%3</title>
<polygon fill="#ffffff" stroke="transparent" points="-4,4 -4,-688 1864,-688 1864,4 -4,4"/>
<!-- [root] azurerm_network_interface.nic -->
<g id="node_0" class="node">
<title>[root] azurerm_network_interface.nic</title>
<polygon fill="none" stroke="#000000" points="1231,-306 1231,-321 1357,-321 1357,-306 1231,-306"/>
<text text-anchor="start" x="1233.9902" y="-311.6" font-family="courier new" font-size="8.00" fill="#000000">azurerm_network_interface</text>
<polygon fill="none" stroke="#000000" points="1231,-291 1231,-306 1357,-306 1357,-291 1231,-291"/>
<text text-anchor="start" x="1286.7988" y="-296.6" font-family="courier new" font-size="8.00" fill="#000000">nic</text>
</g>
<!-- [root] azurerm_subnet.subnet -->
<g id="node_3" class="node">
<title>[root] azurerm_subnet.subnet</title>
<polygon fill="none" stroke="#000000" points="1258,-234 1258,-249 1331,-249 1331,-234 1258,-234"/>
<text text-anchor="start" x="1260.8945" y="-239.6" font-family="courier new" font-size="8.00" fill="#000000">azurerm_subnet</text>
<polygon fill="none" stroke="#000000" points="1258,-219 1258,-234 1331,-234 1331,-219 1258,-219"/>
<text text-anchor="start" x="1280.0977" y="-224.6" font-family="courier new" font-size="8.00" fill="#000000">subnet</text>
</g>
<!-- [root] azurerm_network_interface.nic&#45;&gt;[root] azurerm_subnet.subnet -->
<g id="edge_0" class="edge">
<title>[root] azurerm_network_interface.nic&#45;&gt;[root] azurerm_subnet.subnet</title>
<path fill="none" stroke="#000000" d="M1294,-287.8314C1294,-280.131 1294,-270.9743 1294,-262.4166"/>
<polygon fill="#000000" stroke="#000000" points="1297.5001,-262.4132 1294,-252.4133 1290.5001,-262.4133 1297.5001,-262.4132"/>
</g>
<!-- [root] azurerm_resource_group.rg -->
<g id="node_1" class="node">
<title>[root] azurerm_resource_group.rg</title>
<polygon fill="none" stroke="#000000" points="1425,-90 1425,-105 1536,-105 1536,-90 1425,-90"/>
<text text-anchor="start" x="1427.6914" y="-95.6" font-family="courier new" font-size="8.00" fill="#000000">azurerm_resource_group</text>
<polygon fill="none" stroke="#000000" points="1425,-75 1425,-90 1536,-90 1536,-75 1425,-75"/>
<text text-anchor="start" x="1475.6992" y="-80.6" font-family="courier new" font-size="8.00" fill="#000000">rg</text>
</g>
<!-- [root] provider.azurerm -->
<g id="node_7" class="node">
<title>[root] provider.azurerm</title>
<polygon fill="none" stroke="#000000" points="1386,-18 1386,-33 1430,-33 1430,-18 1386,-18"/>
<text text-anchor="start" x="1388.7969" y="-23.6" font-family="courier new" font-size="8.00" fill="#000000">provider</text>
<polygon fill="none" stroke="#000000" points="1386,-3 1386,-18 1430,-18 1430,-3 1386,-3"/>
<text text-anchor="start" x="1391.1973" y="-8.6" font-family="courier new" font-size="8.00" fill="#000000">azurerm</text>
</g>
<!-- [root] azurerm_resource_group.rg&#45;&gt;[root] provider.azurerm -->
<g id="edge_1" class="edge">
<title>[root] azurerm_resource_group.rg&#45;&gt;[root] provider.azurerm</title>
<path fill="none" stroke="#000000" d="M1461.8314,-71.8314C1453.2848,-63.2848 1442.9443,-52.9443 1433.6198,-43.6198"/>
<polygon fill="#000000" stroke="#000000" points="1435.9592,-41.0095 1426.4133,-36.4133 1431.0095,-45.9592 1435.9592,-41.0095"/>
</g>
<!-- [root] var.location -->
<g id="node_8" class="node">
<title>[root] var.location</title>
<polygon fill="none" stroke="#000000" points="1458,-18 1458,-33 1502,-33 1502,-18 1458,-18"/>
<text text-anchor="start" x="1472.7988" y="-23.6" font-family="courier new" font-size="8.00" fill="#000000">var</text>
<polygon fill="none" stroke="#000000" points="1458,-3 1458,-18 1502,-18 1502,-3 1458,-3"/>
<text text-anchor="start" x="1460.7969" y="-8.6" font-family="courier new" font-size="8.00" fill="#000000">location</text>
</g>
<!-- [root] azurerm_resource_group.rg&#45;&gt;[root] var.location -->
<g id="edge_2" class="edge">
<title>[root] azurerm_resource_group.rg&#45;&gt;[root] var.location</title>
<path fill="none" stroke="#000000" d="M1480,-71.8314C1480,-64.131 1480,-54.9743 1480,-46.4166"/>
<polygon fill="#000000" stroke="#000000" points="1483.5001,-46.4132 1480,-36.4133 1476.5001,-46.4133 1483.5001,-46.4132"/>
</g>
<!-- [root] var.resource_group -->
<g id="node_9" class="node">
<title>[root] var.resource_group</title>
<polygon fill="none" stroke="#000000" points="1526,-18 1526,-33 1599,-33 1599,-18 1526,-18"/>
<text text-anchor="start" x="1555.2988" y="-23.6" font-family="courier new" font-size="8.00" fill="#000000">var</text>
<polygon fill="none" stroke="#000000" points="1526,-3 1526,-18 1599,-18 1599,-3 1526,-3"/>
<text text-anchor="start" x="1528.8945" y="-8.6" font-family="courier new" font-size="8.00" fill="#000000">resource_group</text>
</g>
<!-- [root] azurerm_resource_group.rg&#45;&gt;[root] var.resource_group -->
<g id="edge_3" class="edge">
<title>[root] azurerm_resource_group.rg&#45;&gt;[root] var.resource_group</title>
<path fill="none" stroke="#000000" d="M1500.6921,-71.8314C1510.6948,-63.0485 1522.855,-52.3712 1533.6999,-42.8489"/>
<polygon fill="#000000" stroke="#000000" points="1536.1094,-45.3909 1541.3146,-36.1628 1531.4908,-40.1308 1536.1094,-45.3909"/>
</g>
<!-- [root] azurerm_storage_account.stor -->
<g id="node_2" class="node">
<title>[root] azurerm_storage_account.stor</title>
<polygon fill="none" stroke="#000000" points="1501,-450 1501,-465 1617,-465 1617,-450 1501,-450"/>
<text text-anchor="start" x="1503.791" y="-455.6" font-family="courier new" font-size="8.00" fill="#000000">azurerm_storage_account</text>
<polygon fill="none" stroke="#000000" points="1501,-435 1501,-450 1617,-450 1617,-435 1501,-435"/>
<text text-anchor="start" x="1549.3984" y="-440.6" font-family="courier new" font-size="8.00" fill="#000000">stor</text>
</g>
<!-- [root] azurerm_storage_account.stor&#45;&gt;[root] azurerm_resource_group.rg -->
<g id="edge_4" class="edge">
<title>[root] azurerm_storage_account.stor&#45;&gt;[root] azurerm_resource_group.rg</title>
<path fill="none" stroke="#000000" d="M1532.0791,-431.85C1520.2007,-422.4909 1507.1201,-410.0832 1499,-396 1478.5797,-360.5836 1480,-346.8816 1480,-306 1480,-306 1480,-306 1480,-234 1480,-193.876 1480,-147.4631 1480,-118.4177"/>
<polygon fill="#000000" stroke="#000000" points="1483.5001,-118.1853 1480,-108.1854 1476.5001,-118.1854 1483.5001,-118.1853"/>
</g>
<!-- [root] var.hostname -->
<g id="node_10" class="node">
<title>[root] var.hostname</title>
<polygon fill="none" stroke="#000000" points="1756,-90 1756,-105 1800,-105 1800,-90 1756,-90"/>
<text text-anchor="start" x="1770.7988" y="-95.6" font-family="courier new" font-size="8.00" fill="#000000">var</text>
<polygon fill="none" stroke="#000000" points="1756,-75 1756,-90 1800,-90 1800,-75 1756,-75"/>
<text text-anchor="start" x="1758.7969" y="-80.6" font-family="courier new" font-size="8.00" fill="#000000">hostname</text>
</g>
<!-- [root] azurerm_storage_account.stor&#45;&gt;[root] var.hostname -->
<g id="edge_5" class="edge">
<title>[root] azurerm_storage_account.stor&#45;&gt;[root] var.hostname</title>
<path fill="none" stroke="#000000" d="M1617.0513,-441.0507C1668.5927,-431.9305 1738.6564,-416.2607 1758,-396 1786.2957,-366.3627 1778,-346.9758 1778,-306 1778,-306 1778,-306 1778,-234 1778,-193.876 1778,-147.4631 1778,-118.4177"/>
<polygon fill="#000000" stroke="#000000" points="1781.5001,-118.1853 1778,-108.1854 1774.5001,-118.1854 1781.5001,-118.1853"/>
</g>
<!-- [root] var.storage_account_tier -->
<g id="node_11" class="node">
<title>[root] var.storage_account_tier</title>
<polygon fill="none" stroke="#000000" points="1508,-378 1508,-393 1610,-393 1610,-378 1508,-378"/>
<text text-anchor="start" x="1551.7988" y="-383.6" font-family="courier new" font-size="8.00" fill="#000000">var</text>
<polygon fill="none" stroke="#000000" points="1508,-363 1508,-378 1610,-378 1610,-363 1508,-363"/>
<text text-anchor="start" x="1510.9922" y="-368.6" font-family="courier new" font-size="8.00" fill="#000000">storage_account_tier</text>
</g>
<!-- [root] azurerm_storage_account.stor&#45;&gt;[root] var.storage_account_tier -->
<g id="edge_6" class="edge">
<title>[root] azurerm_storage_account.stor&#45;&gt;[root] var.storage_account_tier</title>
<path fill="none" stroke="#000000" d="M1559,-431.8314C1559,-424.131 1559,-414.9743 1559,-406.4166"/>
<polygon fill="#000000" stroke="#000000" points="1562.5001,-406.4132 1559,-396.4133 1555.5001,-406.4133 1562.5001,-406.4132"/>
</g>
<!-- [root] var.storage_replication_type -->
<g id="node_12" class="node">
<title>[root] var.storage_replication_type</title>
<polygon fill="none" stroke="#000000" points="1629,-378 1629,-393 1750,-393 1750,-378 1629,-378"/>
<text text-anchor="start" x="1682.2988" y="-383.6" font-family="courier new" font-size="8.00" fill="#000000">var</text>
<polygon fill="none" stroke="#000000" points="1629,-363 1629,-378 1750,-378 1750,-363 1629,-363"/>
<text text-anchor="start" x="1631.8906" y="-368.6" font-family="courier new" font-size="8.00" fill="#000000">storage_replication_type</text>
</g>
<!-- [root] azurerm_storage_account.stor&#45;&gt;[root] var.storage_replication_type -->
<g id="edge_7" class="edge">
<title>[root] azurerm_storage_account.stor&#45;&gt;[root] var.storage_replication_type</title>
<path fill="none" stroke="#000000" d="M1591.8045,-431.8314C1608.5862,-422.5368 1629.1985,-411.1208 1647.1163,-401.1971"/>
<polygon fill="#000000" stroke="#000000" points="1649.1538,-404.0696 1656.206,-396.1628 1645.7623,-397.9461 1649.1538,-404.0696"/>
</g>
<!-- [root] azurerm_virtual_network.vnet -->
<g id="node_6" class="node">
<title>[root] azurerm_virtual_network.vnet</title>
<polygon fill="none" stroke="#000000" points="1336,-162 1336,-177 1452,-177 1452,-162 1336,-162"/>
<text text-anchor="start" x="1338.791" y="-167.6" font-family="courier new" font-size="8.00" fill="#000000">azurerm_virtual_network</text>
<polygon fill="none" stroke="#000000" points="1336,-147 1336,-162 1452,-162 1452,-147 1336,-147"/>
<text text-anchor="start" x="1384.3984" y="-152.6" font-family="courier new" font-size="8.00" fill="#000000">vnet</text>
</g>
<!-- [root] azurerm_subnet.subnet&#45;&gt;[root] azurerm_virtual_network.vnet -->
<g id="edge_8" class="edge">
<title>[root] azurerm_subnet.subnet&#45;&gt;[root] azurerm_virtual_network.vnet</title>
<path fill="none" stroke="#000000" d="M1319.2342,-215.8314C1331.788,-206.7927 1347.1283,-195.7476 1360.6391,-186.0198"/>
<polygon fill="#000000" stroke="#000000" points="1362.7036,-188.8463 1368.7739,-180.1628 1358.6134,-183.1655 1362.7036,-188.8463"/>
</g>
<!-- [root] var.subnet_prefix -->
<g id="node_13" class="node">
<title>[root] var.subnet_prefix</title>
<polygon fill="none" stroke="#000000" points="1250,-162 1250,-177 1318,-177 1318,-162 1250,-162"/>
<text text-anchor="start" x="1276.7988" y="-167.6" font-family="courier new" font-size="8.00" fill="#000000">var</text>
<polygon fill="none" stroke="#000000" points="1250,-147 1250,-162 1318,-162 1318,-147 1250,-147"/>
<text text-anchor="start" x="1252.7949" y="-152.6" font-family="courier new" font-size="8.00" fill="#000000">subnet_prefix</text>
</g>
<!-- [root] azurerm_subnet.subnet&#45;&gt;[root] var.subnet_prefix -->
<g id="edge_9" class="edge">
<title>[root] azurerm_subnet.subnet&#45;&gt;[root] var.subnet_prefix</title>
<path fill="none" stroke="#000000" d="M1291.4766,-215.8314C1290.4071,-208.131 1289.1353,-198.9743 1287.9468,-190.4166"/>
<polygon fill="#000000" stroke="#000000" points="1291.3999,-189.8367 1286.5574,-180.4133 1284.4664,-190.7997 1291.3999,-189.8367"/>
</g>
<!-- [root] azurerm_template_deployment.linux_vm -->
<g id="node_4" class="node">
<title>[root] azurerm_template_deployment.linux_vm</title>
<polygon fill="none" stroke="#000000" points="725,-450 725,-465 860,-465 860,-450 725,-450"/>
<text text-anchor="start" x="727.6895" y="-455.6" font-family="courier new" font-size="8.00" fill="#000000">azurerm_template_deployment</text>
<polygon fill="none" stroke="#000000" points="725,-435 725,-450 860,-450 860,-435 725,-435"/>
<text text-anchor="start" x="773.2969" y="-440.6" font-family="courier new" font-size="8.00" fill="#000000">linux_vm</text>
</g>
<!-- [root] azurerm_virtual_machine.vm -->
<g id="node_5" class="node">
<title>[root] azurerm_virtual_machine.vm</title>
<polygon fill="none" stroke="#000000" points="876,-378 876,-393 992,-393 992,-378 876,-378"/>
<text text-anchor="start" x="878.791" y="-383.6" font-family="courier new" font-size="8.00" fill="#000000">azurerm_virtual_machine</text>
<polygon fill="none" stroke="#000000" points="876,-363 876,-378 992,-378 992,-363 876,-363"/>
<text text-anchor="start" x="929.1992" y="-368.6" font-family="courier new" font-size="8.00" fill="#000000">vm</text>
</g>
<!-- [root] azurerm_template_deployment.linux_vm&#45;&gt;[root] azurerm_virtual_machine.vm -->
<g id="edge_10" class="edge">
<title>[root] azurerm_template_deployment.linux_vm&#45;&gt;[root] azurerm_virtual_machine.vm</title>
<path fill="none" stroke="#000000" d="M827.8326,-431.8314C846.4157,-422.4089 869.2989,-410.8062 889.0565,-400.7883"/>
<polygon fill="#000000" stroke="#000000" points="890.8427,-403.8069 898.1789,-396.1628 887.677,-397.5635 890.8427,-403.8069"/>
</g>
<!-- [root] var.aad_client_id -->
<g id="node_14" class="node">
<title>[root] var.aad_client_id</title>
<polygon fill="none" stroke="#000000" points="1010,-378 1010,-393 1078,-393 1078,-378 1010,-378"/>
<text text-anchor="start" x="1036.7988" y="-383.6" font-family="courier new" font-size="8.00" fill="#000000">var</text>
<polygon fill="none" stroke="#000000" points="1010,-363 1010,-378 1078,-378 1078,-363 1010,-363"/>
<text text-anchor="start" x="1012.7949" y="-368.6" font-family="courier new" font-size="8.00" fill="#000000">aad_client_id</text>
</g>
<!-- [root] azurerm_template_deployment.linux_vm&#45;&gt;[root] var.aad_client_id -->
<g id="edge_11" class="edge">
<title>[root] azurerm_template_deployment.linux_vm&#45;&gt;[root] var.aad_client_id</title>
<path fill="none" stroke="#000000" d="M859.5464,-435.1496C898.414,-426.002 948.2273,-413.2596 1000.1787,-396.0579"/>
<polygon fill="#000000" stroke="#000000" points="1001.5356,-399.2944 1009.9019,-392.7939 999.3079,-392.6583 1001.5356,-399.2944"/>
</g>
<!-- [root] var.aad_client_secret -->
<g id="node_15" class="node">
<title>[root] var.aad_client_secret</title>
<polygon fill="none" stroke="#000000" points="1097,-378 1097,-393 1184,-393 1184,-378 1097,-378"/>
<text text-anchor="start" x="1133.2988" y="-383.6" font-family="courier new" font-size="8.00" fill="#000000">var</text>
<polygon fill="none" stroke="#000000" points="1097,-363 1097,-378 1184,-378 1184,-363 1097,-363"/>
<text text-anchor="start" x="1099.6934" y="-368.6" font-family="courier new" font-size="8.00" fill="#000000">aad_client_secret</text>
</g>
<!-- [root] azurerm_template_deployment.linux_vm&#45;&gt;[root] var.aad_client_secret -->
<g id="edge_12" class="edge">
<title>[root] azurerm_template_deployment.linux_vm&#45;&gt;[root] var.aad_client_secret</title>
<path fill="none" stroke="#000000" d="M859.6885,-440.4943C917.5885,-431.7075 1003.202,-417.1624 1086.588,-395.901"/>
<polygon fill="#000000" stroke="#000000" points="1087.6746,-399.2353 1096.4804,-393.3439 1085.9227,-392.458 1087.6746,-399.2353"/>
</g>
<!-- [root] var.artifacts_location -->
<g id="node_16" class="node">
<title>[root] var.artifacts_location</title>
<polygon fill="none" stroke="#000000" points="1202,-378 1202,-393 1294,-393 1294,-378 1202,-378"/>
<text text-anchor="start" x="1240.7988" y="-383.6" font-family="courier new" font-size="8.00" fill="#000000">var</text>
<polygon fill="none" stroke="#000000" points="1202,-363 1202,-378 1294,-378 1294,-363 1202,-363"/>
<text text-anchor="start" x="1204.793" y="-368.6" font-family="courier new" font-size="8.00" fill="#000000">artifacts_location</text>
</g>
<!-- [root] azurerm_template_deployment.linux_vm&#45;&gt;[root] var.artifacts_location -->
<g id="edge_13" class="edge">
<title>[root] azurerm_template_deployment.linux_vm&#45;&gt;[root] var.artifacts_location</title>
<path fill="none" stroke="#000000" d="M859.5281,-444.5549C939.5771,-437.2582 1076.6669,-422.105 1192,-396 1192.0996,-395.9775 1192.1993,-395.9548 1192.299,-395.9321"/>
<polygon fill="#000000" stroke="#000000" points="1192.8777,-399.3954 1201.727,-393.5696 1191.1761,-392.6053 1192.8777,-399.3954"/>
</g>
<!-- [root] var.artifacts_location_sas_token -->
<g id="node_17" class="node">
<title>[root] var.artifacts_location_sas_token</title>
<polygon fill="none" stroke="#000000" points="1312,-378 1312,-393 1452,-393 1452,-378 1312,-378"/>
<text text-anchor="start" x="1374.7988" y="-383.6" font-family="courier new" font-size="8.00" fill="#000000">var</text>
<polygon fill="none" stroke="#000000" points="1312,-363 1312,-378 1452,-378 1452,-363 1312,-363"/>
<text text-anchor="start" x="1314.7891" y="-368.6" font-family="courier new" font-size="8.00" fill="#000000">artifacts_location_sas_token</text>
</g>
<!-- [root] azurerm_template_deployment.linux_vm&#45;&gt;[root] var.artifacts_location_sas_token -->
<g id="edge_14" class="edge">
<title>[root] azurerm_template_deployment.linux_vm&#45;&gt;[root] var.artifacts_location_sas_token</title>
<path fill="none" stroke="#000000" d="M859.7146,-445.4169C955.8717,-438.3391 1137.6076,-422.8624 1301.5981,-396.1266"/>
<polygon fill="#000000" stroke="#000000" points="1302.5769,-399.5126 1311.8744,-394.4324 1301.4382,-392.6058 1302.5769,-399.5126"/>
</g>
<!-- [root] var.encryption_operation -->
<g id="node_18" class="node">
<title>[root] var.encryption_operation</title>
<polygon fill="none" stroke="#000000" points="0,-378 0,-393 102,-393 102,-378 0,-378"/>
<text text-anchor="start" x="43.7988" y="-383.6" font-family="courier new" font-size="8.00" fill="#000000">var</text>
<polygon fill="none" stroke="#000000" points="0,-363 0,-378 102,-378 102,-363 0,-363"/>
<text text-anchor="start" x="2.9922" y="-368.6" font-family="courier new" font-size="8.00" fill="#000000">encryption_operation</text>
</g>
<!-- [root] azurerm_template_deployment.linux_vm&#45;&gt;[root] var.encryption_operation -->
<g id="edge_15" class="edge">
<title>[root] azurerm_template_deployment.linux_vm&#45;&gt;[root] var.encryption_operation</title>
<path fill="none" stroke="#000000" d="M724.3979,-446.4701C580.0962,-438.6448 244.9439,-418.8489 112.1686,-395.9396"/>
<polygon fill="#000000" stroke="#000000" points="112.6729,-392.4742 102.2103,-394.1429 111.43,-399.3629 112.6729,-392.4742"/>
</g>
<!-- [root] var.extension_name -->
<g id="node_19" class="node">
<title>[root] var.extension_name</title>
<polygon fill="none" stroke="#000000" points="121,-378 121,-393 194,-393 194,-378 121,-378"/>
<text text-anchor="start" x="150.2988" y="-383.6" font-family="courier new" font-size="8.00" fill="#000000">var</text>
<polygon fill="none" stroke="#000000" points="121,-363 121,-378 194,-378 194,-363 121,-363"/>
<text text-anchor="start" x="123.8945" y="-368.6" font-family="courier new" font-size="8.00" fill="#000000">extension_name</text>
</g>
<!-- [root] azurerm_template_deployment.linux_vm&#45;&gt;[root] var.extension_name -->
<g id="edge_16" class="edge">
<title>[root] azurerm_template_deployment.linux_vm&#45;&gt;[root] var.extension_name</title>
<path fill="none" stroke="#000000" d="M724.3327,-446.2703C595.0715,-438.7526 316.5223,-420.5607 203.3413,-395.8761"/>
<polygon fill="#000000" stroke="#000000" points="204.0843,-392.4557 193.5541,-393.6234 202.5142,-399.2773 204.0843,-392.4557"/>
</g>
<!-- [root] var.key_encryption_key_url -->
<g id="node_20" class="node">
<title>[root] var.key_encryption_key_url</title>
<polygon fill="none" stroke="#000000" points="212,-378 212,-393 323,-393 323,-378 212,-378"/>
<text text-anchor="start" x="260.2988" y="-383.6" font-family="courier new" font-size="8.00" fill="#000000">var</text>
<polygon fill="none" stroke="#000000" points="212,-363 212,-378 323,-378 323,-363 212,-363"/>
<text text-anchor="start" x="214.6914" y="-368.6" font-family="courier new" font-size="8.00" fill="#000000">key_encryption_key_url</text>
</g>
<!-- [root] azurerm_template_deployment.linux_vm&#45;&gt;[root] var.key_encryption_key_url -->
<g id="edge_17" class="edge">
<title>[root] azurerm_template_deployment.linux_vm&#45;&gt;[root] var.key_encryption_key_url</title>
<path fill="none" stroke="#000000" d="M724.2969,-445.4255C635.9946,-438.7136 476.6932,-424.0559 332.628,-396.173"/>
<polygon fill="#000000" stroke="#000000" points="333.2093,-392.7204 322.7226,-394.23 331.8619,-399.5895 333.2093,-392.7204"/>
</g>
<!-- [root] var.key_vault_name -->
<g id="node_21" class="node">
<title>[root] var.key_vault_name</title>
<polygon fill="none" stroke="#000000" points="341,-378 341,-393 414,-393 414,-378 341,-378"/>
<text text-anchor="start" x="370.2988" y="-383.6" font-family="courier new" font-size="8.00" fill="#000000">var</text>
<polygon fill="none" stroke="#000000" points="341,-363 341,-378 414,-378 414,-363 341,-363"/>
<text text-anchor="start" x="343.8945" y="-368.6" font-family="courier new" font-size="8.00" fill="#000000">key_vault_name</text>
</g>
<!-- [root] azurerm_template_deployment.linux_vm&#45;&gt;[root] var.key_vault_name -->
<g id="edge_18" class="edge">
<title>[root] azurerm_template_deployment.linux_vm&#45;&gt;[root] var.key_vault_name</title>
<path fill="none" stroke="#000000" d="M724.4138,-444.7584C651.8917,-438.0962 533.4529,-424.22 423.5843,-395.8079"/>
<polygon fill="#000000" stroke="#000000" points="424.2229,-392.3569 413.6613,-393.1955 422.4407,-399.1262 424.2229,-392.3569"/>
</g>
<!-- [root] var.key_vault_resource_id -->
<g id="node_22" class="node">
<title>[root] var.key_vault_resource_id</title>
<polygon fill="none" stroke="#000000" points="432,-378 432,-393 538,-393 538,-378 432,-378"/>
<text text-anchor="start" x="477.7988" y="-383.6" font-family="courier new" font-size="8.00" fill="#000000">var</text>
<polygon fill="none" stroke="#000000" points="432,-363 432,-378 538,-378 538,-363 432,-363"/>
<text text-anchor="start" x="434.5918" y="-368.6" font-family="courier new" font-size="8.00" fill="#000000">key_vault_resource_id</text>
</g>
<!-- [root] azurerm_template_deployment.linux_vm&#45;&gt;[root] var.key_vault_resource_id -->
<g id="edge_19" class="edge">
<title>[root] azurerm_template_deployment.linux_vm&#45;&gt;[root] var.key_vault_resource_id</title>
<path fill="none" stroke="#000000" d="M724.3859,-436.3429C677.4396,-426.5729 613.2494,-412.6466 548.0792,-396.1988"/>
<polygon fill="#000000" stroke="#000000" points="548.5913,-392.7177 538.0372,-393.646 546.8666,-399.5019 548.5913,-392.7177"/>
</g>
<!-- [root] var.passphrase -->
<g id="node_23" class="node">
<title>[root] var.passphrase</title>
<polygon fill="none" stroke="#000000" points="556,-378 556,-393 610,-393 610,-378 556,-378"/>
<text text-anchor="start" x="575.7988" y="-383.6" font-family="courier new" font-size="8.00" fill="#000000">var</text>
<polygon fill="none" stroke="#000000" points="556,-363 556,-378 610,-378 610,-363 556,-363"/>
<text text-anchor="start" x="558.9961" y="-368.6" font-family="courier new" font-size="8.00" fill="#000000">passphrase</text>
</g>
<!-- [root] azurerm_template_deployment.linux_vm&#45;&gt;[root] var.passphrase -->
<g id="edge_20" class="edge">
<title>[root] azurerm_template_deployment.linux_vm&#45;&gt;[root] var.passphrase</title>
<path fill="none" stroke="#000000" d="M725.404,-431.9409C695.2962,-423.1409 659.2532,-411.7253 619.8486,-396.0707"/>
<polygon fill="#000000" stroke="#000000" points="620.8914,-392.7174 610.3081,-392.2231 618.2732,-399.2093 620.8914,-392.7174"/>
</g>
<!-- [root] var.sequence_version -->
<g id="node_24" class="node">
<title>[root] var.sequence_version</title>
<polygon fill="none" stroke="#000000" points="628,-378 628,-393 710,-393 710,-378 628,-378"/>
<text text-anchor="start" x="661.7988" y="-383.6" font-family="courier new" font-size="8.00" fill="#000000">var</text>
<polygon fill="none" stroke="#000000" points="628,-363 628,-378 710,-378 710,-363 628,-363"/>
<text text-anchor="start" x="630.5938" y="-368.6" font-family="courier new" font-size="8.00" fill="#000000">sequence_version</text>
</g>
<!-- [root] azurerm_template_deployment.linux_vm&#45;&gt;[root] var.sequence_version -->
<g id="edge_21" class="edge">
<title>[root] azurerm_template_deployment.linux_vm&#45;&gt;[root] var.sequence_version</title>
<path fill="none" stroke="#000000" d="M760.9619,-431.8314C745.2295,-422.6221 725.9389,-411.3301 709.0956,-401.4706"/>
<polygon fill="#000000" stroke="#000000" points="710.4265,-398.1941 700.0282,-396.1628 706.8902,-404.2352 710.4265,-398.1941"/>
</g>
<!-- [root] var.use_kek -->
<g id="node_25" class="node">
<title>[root] var.use_kek</title>
<polygon fill="none" stroke="#000000" points="736,-378 736,-393 775,-393 775,-378 736,-378"/>
<text text-anchor="start" x="748.2988" y="-383.6" font-family="courier new" font-size="8.00" fill="#000000">var</text>
<polygon fill="none" stroke="#000000" points="736,-363 736,-378 775,-378 775,-363 736,-363"/>
<text text-anchor="start" x="738.6973" y="-368.6" font-family="courier new" font-size="8.00" fill="#000000">use_kek</text>
</g>
<!-- [root] azurerm_template_deployment.linux_vm&#45;&gt;[root] var.use_kek -->
<g id="edge_22" class="edge">
<title>[root] azurerm_template_deployment.linux_vm&#45;&gt;[root] var.use_kek</title>
<path fill="none" stroke="#000000" d="M782.6633,-431.8314C778.5757,-423.8771 773.6896,-414.369 769.1691,-405.5723"/>
<polygon fill="#000000" stroke="#000000" points="772.1461,-403.7078 764.4624,-396.4133 765.9201,-406.9074 772.1461,-403.7078"/>
</g>
<!-- [root] var.volume_type -->
<g id="node_26" class="node">
<title>[root] var.volume_type</title>
<polygon fill="none" stroke="#000000" points="800,-378 800,-393 858,-393 858,-378 800,-378"/>
<text text-anchor="start" x="821.7988" y="-383.6" font-family="courier new" font-size="8.00" fill="#000000">var</text>
<polygon fill="none" stroke="#000000" points="800,-363 800,-378 858,-378 858,-363 800,-363"/>
<text text-anchor="start" x="802.5957" y="-368.6" font-family="courier new" font-size="8.00" fill="#000000">volume_type</text>
</g>
<!-- [root] azurerm_template_deployment.linux_vm&#45;&gt;[root] var.volume_type -->
<g id="edge_23" class="edge">
<title>[root] azurerm_template_deployment.linux_vm&#45;&gt;[root] var.volume_type</title>
<path fill="none" stroke="#000000" d="M801.3367,-431.8314C805.4243,-423.8771 810.3104,-414.369 814.8309,-405.5723"/>
<polygon fill="#000000" stroke="#000000" points="818.0799,-406.9074 819.5376,-396.4133 811.8539,-403.7078 818.0799,-406.9074"/>
</g>
<!-- [root] azurerm_virtual_machine.vm&#45;&gt;[root] azurerm_network_interface.nic -->
<g id="edge_24" class="edge">
<title>[root] azurerm_virtual_machine.vm&#45;&gt;[root] azurerm_network_interface.nic</title>
<path fill="none" stroke="#000000" d="M992.018,-362.0315C995.049,-361.3168 998.0565,-360.6346 1001,-360 1094.7319,-339.7934 1122.1812,-343.5958 1220.6803,-323.9607"/>
<polygon fill="#000000" stroke="#000000" points="1221.6552,-327.3344 1230.7617,-321.9195 1220.266,-320.4737 1221.6552,-327.3344"/>
</g>
<!-- [root] var.admin_password -->
<g id="node_27" class="node">
<title>[root] var.admin_password</title>
<polygon fill="none" stroke="#000000" points="1049,-306 1049,-321 1122,-321 1122,-306 1049,-306"/>
<text text-anchor="start" x="1078.2988" y="-311.6" font-family="courier new" font-size="8.00" fill="#000000">var</text>
<polygon fill="none" stroke="#000000" points="1049,-291 1049,-306 1122,-306 1122,-291 1049,-291"/>
<text text-anchor="start" x="1051.8945" y="-296.6" font-family="courier new" font-size="8.00" fill="#000000">admin_password</text>
</g>
<!-- [root] azurerm_virtual_machine.vm&#45;&gt;[root] var.admin_password -->
<g id="edge_25" class="edge">
<title>[root] azurerm_virtual_machine.vm&#45;&gt;[root] var.admin_password</title>
<path fill="none" stroke="#000000" d="M972.1037,-359.8314C992.5,-350.1059 1017.7678,-338.0577 1039.2242,-327.8269"/>
<polygon fill="#000000" stroke="#000000" points="1040.9512,-330.881 1048.4712,-323.4177 1037.9384,-324.5625 1040.9512,-330.881"/>
</g>
<!-- [root] var.admin_username -->
<g id="node_28" class="node">
<title>[root] var.admin_username</title>
<polygon fill="none" stroke="#000000" points="1140,-306 1140,-321 1213,-321 1213,-306 1140,-306"/>
<text text-anchor="start" x="1169.2988" y="-311.6" font-family="courier new" font-size="8.00" fill="#000000">var</text>
<polygon fill="none" stroke="#000000" points="1140,-291 1140,-306 1213,-306 1213,-291 1140,-291"/>
<text text-anchor="start" x="1142.8945" y="-296.6" font-family="courier new" font-size="8.00" fill="#000000">admin_username</text>
</g>
<!-- [root] azurerm_virtual_machine.vm&#45;&gt;[root] var.admin_username -->
<g id="edge_26" class="edge">
<title>[root] azurerm_virtual_machine.vm&#45;&gt;[root] var.admin_username</title>
<path fill="none" stroke="#000000" d="M992.1106,-362.3197C1044.9838,-347.9986 1116.7491,-328.4047 1130,-324 1130.0966,-323.9679 1130.1934,-323.9357 1130.2902,-323.9034"/>
<polygon fill="#000000" stroke="#000000" points="1131.1847,-327.2985 1139.4672,-320.6917 1128.8724,-320.6915 1131.1847,-327.2985"/>
</g>
<!-- [root] var.image_offer -->
<g id="node_29" class="node">
<title>[root] var.image_offer</title>
<polygon fill="none" stroke="#000000" points="646,-306 646,-321 704,-321 704,-306 646,-306"/>
<text text-anchor="start" x="667.7988" y="-311.6" font-family="courier new" font-size="8.00" fill="#000000">var</text>
<polygon fill="none" stroke="#000000" points="646,-291 646,-306 704,-306 704,-291 646,-291"/>
<text text-anchor="start" x="648.5957" y="-296.6" font-family="courier new" font-size="8.00" fill="#000000">image_offer</text>
</g>
<!-- [root] azurerm_virtual_machine.vm&#45;&gt;[root] var.image_offer -->
<g id="edge_27" class="edge">
<title>[root] azurerm_virtual_machine.vm&#45;&gt;[root] var.image_offer</title>
<path fill="none" stroke="#000000" d="M875.9257,-362.273C872.9094,-361.4953 869.9204,-360.7334 867,-360 801.8897,-343.6482 781.2064,-346.8332 714.0004,-323.9874"/>
<polygon fill="#000000" stroke="#000000" points="714.7939,-320.558 704.1991,-320.5862 712.4991,-327.1712 714.7939,-320.558"/>
</g>
<!-- [root] var.image_publisher -->
<g id="node_30" class="node">
<title>[root] var.image_publisher</title>
<polygon fill="none" stroke="#000000" points="722,-306 722,-321 800,-321 800,-306 722,-306"/>
<text text-anchor="start" x="753.7988" y="-311.6" font-family="courier new" font-size="8.00" fill="#000000">var</text>
<polygon fill="none" stroke="#000000" points="722,-291 722,-306 800,-306 800,-291 722,-291"/>
<text text-anchor="start" x="724.9941" y="-296.6" font-family="courier new" font-size="8.00" fill="#000000">image_publisher</text>
</g>
<!-- [root] azurerm_virtual_machine.vm&#45;&gt;[root] var.image_publisher -->
<g id="edge_28" class="edge">
<title>[root] azurerm_virtual_machine.vm&#45;&gt;[root] var.image_publisher</title>
<path fill="none" stroke="#000000" d="M890.3448,-359.8314C865.7588,-349.599 834.9946,-336.7955 809.6382,-326.2425"/>
<polygon fill="#000000" stroke="#000000" points="810.7863,-322.9293 800.2091,-322.3182 808.0966,-329.392 810.7863,-322.9293"/>
</g>
<!-- [root] var.image_sku -->
<g id="node_31" class="node">
<title>[root] var.image_sku</title>
<polygon fill="none" stroke="#000000" points="821,-306 821,-321 870,-321 870,-306 821,-306"/>
<text text-anchor="start" x="838.2988" y="-311.6" font-family="courier new" font-size="8.00" fill="#000000">var</text>
<polygon fill="none" stroke="#000000" points="821,-291 821,-306 870,-306 870,-291 821,-291"/>
<text text-anchor="start" x="823.8965" y="-296.6" font-family="courier new" font-size="8.00" fill="#000000">image_sku</text>
</g>
<!-- [root] azurerm_virtual_machine.vm&#45;&gt;[root] var.image_sku -->
<g id="edge_29" class="edge">
<title>[root] azurerm_virtual_machine.vm&#45;&gt;[root] var.image_sku</title>
<path fill="none" stroke="#000000" d="M911.5415,-359.8314C900.5795,-350.9632 887.2301,-340.1637 875.3735,-330.5718"/>
<polygon fill="#000000" stroke="#000000" points="877.4271,-327.7313 867.4513,-324.1628 873.0245,-333.1734 877.4271,-327.7313"/>
</g>
<!-- [root] var.image_version -->
<g id="node_32" class="node">
<title>[root] var.image_version</title>
<polygon fill="none" stroke="#000000" points="890,-306 890,-321 958,-321 958,-306 890,-306"/>
<text text-anchor="start" x="916.7988" y="-311.6" font-family="courier new" font-size="8.00" fill="#000000">var</text>
<polygon fill="none" stroke="#000000" points="890,-291 890,-306 958,-306 958,-291 890,-291"/>
<text text-anchor="start" x="892.7949" y="-296.6" font-family="courier new" font-size="8.00" fill="#000000">image_version</text>
</g>
<!-- [root] azurerm_virtual_machine.vm&#45;&gt;[root] var.image_version -->
<g id="edge_30" class="edge">
<title>[root] azurerm_virtual_machine.vm&#45;&gt;[root] var.image_version</title>
<path fill="none" stroke="#000000" d="M931.4766,-359.8314C930.4071,-352.131 929.1353,-342.9743 927.9468,-334.4166"/>
<polygon fill="#000000" stroke="#000000" points="931.3999,-333.8367 926.5574,-324.4133 924.4664,-334.7997 931.3999,-333.8367"/>
</g>
<!-- [root] var.vm_size -->
<g id="node_33" class="node">
<title>[root] var.vm_size</title>
<polygon fill="none" stroke="#000000" points="984,-306 984,-321 1023,-321 1023,-306 984,-306"/>
<text text-anchor="start" x="996.2988" y="-311.6" font-family="courier new" font-size="8.00" fill="#000000">var</text>
<polygon fill="none" stroke="#000000" points="984,-291 984,-306 1023,-306 1023,-291 984,-291"/>
<text text-anchor="start" x="986.6973" y="-296.6" font-family="courier new" font-size="8.00" fill="#000000">vm_size</text>
</g>
<!-- [root] azurerm_virtual_machine.vm&#45;&gt;[root] var.vm_size -->
<g id="edge_31" class="edge">
<title>[root] azurerm_virtual_machine.vm&#45;&gt;[root] var.vm_size</title>
<path fill="none" stroke="#000000" d="M951.4116,-359.8314C959.521,-351.3694 969.3156,-341.1489 978.182,-331.8971"/>
<polygon fill="#000000" stroke="#000000" points="980.9618,-334.0549 985.354,-324.4133 975.9079,-329.2115 980.9618,-334.0549"/>
</g>
<!-- [root] azurerm_virtual_network.vnet&#45;&gt;[root] azurerm_resource_group.rg -->
<g id="edge_32" class="edge">
<title>[root] azurerm_virtual_network.vnet&#45;&gt;[root] azurerm_resource_group.rg</title>
<path fill="none" stroke="#000000" d="M1415.7014,-143.8314C1426.1921,-135.0485 1438.9455,-124.3712 1450.3194,-114.8489"/>
<polygon fill="#000000" stroke="#000000" points="1452.8847,-117.2659 1458.3055,-108.1628 1448.3911,-111.8986 1452.8847,-117.2659"/>
</g>
<!-- [root] azurerm_virtual_network.vnet&#45;&gt;[root] var.hostname -->
<g id="edge_34" class="edge">
<title>[root] azurerm_virtual_network.vnet&#45;&gt;[root] var.hostname</title>
<path fill="none" stroke="#000000" d="M1452.3213,-151.0647C1532.1828,-136.0907 1673.3005,-109.6311 1740.4563,-97.0394"/>
<polygon fill="#000000" stroke="#000000" points="1741.395,-100.4245 1750.5786,-95.1415 1740.1049,-93.5444 1741.395,-100.4245"/>
</g>
<!-- [root] var.address_space -->
<g id="node_34" class="node">
<title>[root] var.address_space</title>
<polygon fill="none" stroke="#000000" points="1338,-90 1338,-105 1406,-105 1406,-90 1338,-90"/>
<text text-anchor="start" x="1364.7988" y="-95.6" font-family="courier new" font-size="8.00" fill="#000000">var</text>
<polygon fill="none" stroke="#000000" points="1338,-75 1338,-90 1406,-90 1406,-75 1338,-75"/>
<text text-anchor="start" x="1340.7949" y="-80.6" font-family="courier new" font-size="8.00" fill="#000000">address_space</text>
</g>
<!-- [root] azurerm_virtual_network.vnet&#45;&gt;[root] var.address_space -->
<g id="edge_33" class="edge">
<title>[root] azurerm_virtual_network.vnet&#45;&gt;[root] var.address_space</title>
<path fill="none" stroke="#000000" d="M1388.4485,-143.8314C1386.0697,-136.0463 1383.2362,-126.7729 1380.5967,-118.1347"/>
<polygon fill="#000000" stroke="#000000" points="1383.8958,-116.954 1377.6263,-108.4133 1377.2013,-118.9996 1383.8958,-116.954"/>
</g>
<!-- [root] meta.count&#45;boundary (count boundary fixup) -->
<g id="node_35" class="node">
<title>[root] meta.count&#45;boundary (count boundary fixup)</title>
<polygon fill="none" stroke="#000000" points="1451,-594 1451,-609 1524,-609 1524,-594 1451,-594"/>
<text text-anchor="start" x="1477.8984" y="-599.6" font-family="courier new" font-size="8.00" fill="#000000">meta</text>
<polygon fill="none" stroke="#000000" points="1451,-579 1451,-594 1524,-594 1524,-579 1451,-579"/>
<text text-anchor="start" x="1453.8945" y="-584.6" font-family="courier new" font-size="8.00" fill="#000000">count&#45;boundary</text>
</g>
<!-- [root] meta.count&#45;boundary (count boundary fixup)&#45;&gt;[root] azurerm_storage_account.stor -->
<g id="edge_35" class="edge">
<title>[root] meta.count&#45;boundary (count boundary fixup)&#45;&gt;[root] azurerm_storage_account.stor</title>
<path fill="none" stroke="#000000" d="M1509.4446,-575.8818C1519.9243,-566.2743 1531.6755,-553.6465 1539,-540 1549.2509,-520.9013 1554.2532,-496.8238 1556.6912,-478.3794"/>
<polygon fill="#000000" stroke="#000000" points="1560.1906,-478.584 1557.8507,-468.2508 1553.236,-477.7878 1560.1906,-478.584"/>
</g>
<!-- [root] output.BitLockerKey -->
<g id="node_36" class="node">
<title>[root] output.BitLockerKey</title>
<polygon fill="none" stroke="#000000" points="1363,-522 1363,-537 1426,-537 1426,-522 1363,-522"/>
<text text-anchor="start" x="1380.0977" y="-527.6" font-family="courier new" font-size="8.00" fill="#000000">output</text>
<polygon fill="none" stroke="#000000" points="1363,-507 1363,-522 1426,-522 1426,-507 1363,-507"/>
<text text-anchor="start" x="1365.6953" y="-512.6" font-family="courier new" font-size="8.00" fill="#000000">BitLockerKey</text>
</g>
<!-- [root] meta.count&#45;boundary (count boundary fixup)&#45;&gt;[root] output.BitLockerKey -->
<g id="edge_36" class="edge">
<title>[root] meta.count&#45;boundary (count boundary fixup)&#45;&gt;[root] output.BitLockerKey</title>
<path fill="none" stroke="#000000" d="M1463.5322,-575.8314C1451.9673,-566.8779 1437.8596,-555.9558 1425.3817,-546.2955"/>
<polygon fill="#000000" stroke="#000000" points="1427.5102,-543.5171 1417.4603,-540.1628 1423.225,-549.0521 1427.5102,-543.5171"/>
</g>
<!-- [root] output.hostname -->
<g id="node_37" class="node">
<title>[root] output.hostname</title>
<polygon fill="none" stroke="#000000" points="1811,-234 1811,-249 1855,-249 1855,-234 1811,-234"/>
<text text-anchor="start" x="1818.5977" y="-239.6" font-family="courier new" font-size="8.00" fill="#000000">output</text>
<polygon fill="none" stroke="#000000" points="1811,-219 1811,-234 1855,-234 1855,-219 1811,-219"/>
<text text-anchor="start" x="1813.7969" y="-224.6" font-family="courier new" font-size="8.00" fill="#000000">hostname</text>
</g>
<!-- [root] meta.count&#45;boundary (count boundary fixup)&#45;&gt;[root] output.hostname -->
<g id="edge_37" class="edge">
<title>[root] meta.count&#45;boundary (count boundary fixup)&#45;&gt;[root] output.hostname</title>
<path fill="none" stroke="#000000" d="M1523.8154,-586.5039C1611.4175,-567.613 1825,-514.9003 1825,-450 1825,-450 1825,-450 1825,-378 1825,-337.8141 1828.1444,-291.417 1830.4905,-262.3918"/>
<polygon fill="#000000" stroke="#000000" points="1833.9999,-262.4235 1831.3424,-252.1674 1827.0241,-261.8422 1833.9999,-262.4235"/>
</g>
<!-- [root] var.disk_format_query -->
<g id="node_38" class="node">
<title>[root] var.disk_format_query</title>
<polygon fill="none" stroke="#000000" points="1444,-522 1444,-537 1531,-537 1531,-522 1444,-522"/>
<text text-anchor="start" x="1480.2988" y="-527.6" font-family="courier new" font-size="8.00" fill="#000000">var</text>
<polygon fill="none" stroke="#000000" points="1444,-507 1444,-522 1531,-522 1531,-507 1444,-507"/>
<text text-anchor="start" x="1446.6934" y="-512.6" font-family="courier new" font-size="8.00" fill="#000000">disk_format_query</text>
</g>
<!-- [root] meta.count&#45;boundary (count boundary fixup)&#45;&gt;[root] var.disk_format_query -->
<g id="edge_38" class="edge">
<title>[root] meta.count&#45;boundary (count boundary fixup)&#45;&gt;[root] var.disk_format_query</title>
<path fill="none" stroke="#000000" d="M1487,-575.8314C1487,-568.131 1487,-558.9743 1487,-550.4166"/>
<polygon fill="#000000" stroke="#000000" points="1490.5001,-550.4132 1487,-540.4133 1483.5001,-550.4133 1490.5001,-550.4132"/>
</g>
<!-- [root] output.BitLockerKey&#45;&gt;[root] azurerm_template_deployment.linux_vm -->
<g id="edge_39" class="edge">
<title>[root] output.BitLockerKey&#45;&gt;[root] azurerm_template_deployment.linux_vm</title>
<path fill="none" stroke="#000000" d="M1362.1168,-506.8551C1359.0789,-505.7622 1356.0091,-504.7838 1353,-504 1263.717,-480.7429 1001.5348,-462.4466 869.6439,-454.4234"/>
<polygon fill="#000000" stroke="#000000" points="869.7992,-450.9265 859.6064,-453.8173 869.3772,-457.9137 869.7992,-450.9265"/>
</g>
<!-- [root] output.hostname&#45;&gt;[root] var.hostname -->
<g id="edge_40" class="edge">
<title>[root] output.hostname&#45;&gt;[root] var.hostname</title>
<path fill="none" stroke="#000000" d="M1826.0342,-215.7623C1816.5705,-190.9846 1799.5689,-146.4714 1788.5393,-117.5939"/>
<polygon fill="#000000" stroke="#000000" points="1791.747,-116.1826 1784.9092,-108.0896 1785.2077,-118.6803 1791.747,-116.1826"/>
</g>
<!-- [root] provider.azurerm (close) -->
<g id="node_39" class="node">
<title>[root] provider.azurerm (close)</title>
<polygon fill="none" stroke="#000000" points="1295,-522 1295,-537 1339,-537 1339,-522 1295,-522"/>
<text text-anchor="start" x="1297.7969" y="-527.6" font-family="courier new" font-size="8.00" fill="#000000">provider</text>
<polygon fill="none" stroke="#000000" points="1295,-507 1295,-522 1339,-522 1339,-507 1295,-507"/>
<text text-anchor="start" x="1300.1973" y="-512.6" font-family="courier new" font-size="8.00" fill="#000000">azurerm</text>
</g>
<!-- [root] provider.azurerm (close)&#45;&gt;[root] azurerm_storage_account.stor -->
<g id="edge_41" class="edge">
<title>[root] provider.azurerm (close)&#45;&gt;[root] azurerm_storage_account.stor</title>
<path fill="none" stroke="#000000" d="M1344.2551,-507.6408C1347.1707,-506.3257 1350.1225,-505.0831 1353,-504 1397.9128,-487.0943 1450.2388,-473.4499 1490.9149,-464.1056"/>
<polygon fill="#000000" stroke="#000000" points="1491.7486,-467.5055 1500.7281,-461.8825 1490.2019,-460.6785 1491.7486,-467.5055"/>
</g>
<!-- [root] provider.azurerm (close)&#45;&gt;[root] azurerm_template_deployment.linux_vm -->
<g id="edge_42" class="edge">
<title>[root] provider.azurerm (close)&#45;&gt;[root] azurerm_template_deployment.linux_vm</title>
<path fill="none" stroke="#000000" d="M1289.8792,-518.2806C1212.6558,-507.6899 989.4761,-477.0824 869.8735,-460.6798"/>
<polygon fill="#000000" stroke="#000000" points="870.0688,-457.1739 859.6859,-459.2826 869.1176,-464.109 870.0688,-457.1739"/>
</g>
<!-- [root] root -->
<g id="node_40" class="node">
<title>[root] root</title>
<polygon fill="none" stroke="#000000" points="1436.3089,-684 1367.6911,-684 1367.6911,-648 1436.3089,-648 1436.3089,-684"/>
<text text-anchor="middle" x="1402" y="-664.1313" font-family="courier new" font-size="8.00" fill="#000000">[root] root</text>
</g>
<!-- [root] root&#45;&gt;[root] meta.count&#45;boundary (count boundary fixup) -->
<g id="edge_43" class="edge">
<title>[root] root&#45;&gt;[root] meta.count&#45;boundary (count boundary fixup)</title>
<path fill="none" stroke="#000000" d="M1423.4491,-647.8314C1433.8178,-639.0485 1446.4229,-628.3712 1457.6646,-618.8489"/>
<polygon fill="#000000" stroke="#000000" points="1460.1895,-621.297 1465.5578,-612.1628 1455.6651,-615.9556 1460.1895,-621.297"/>
</g>
<!-- [root] root&#45;&gt;[root] provider.azurerm (close) -->
<g id="edge_44" class="edge">
<title>[root] root&#45;&gt;[root] provider.azurerm (close)</title>
<path fill="none" stroke="#000000" d="M1391.2347,-647.7623C1376.4813,-622.7682 1349.874,-577.6924 1332.8436,-548.8409"/>
<polygon fill="#000000" stroke="#000000" points="1335.7753,-546.9221 1327.6779,-540.0896 1329.7471,-550.4804 1335.7753,-546.9221"/>
</g>
</g>
</svg>

