<?xml version="1.0" encoding="UTF-8" standalone="no"?>
<!DOCTYPE svg PUBLIC "-//W3C//DTD SVG 1.1//EN"
 "http://www.w3.org/Graphics/SVG/1.1/DTD/svg11.dtd">
<!-- Generated by graphviz version 2.40.1 (20161225.0304)
 -->
<!-- Title: %3 Pages: 1 -->
<svg width="941pt" height="1212pt"
 viewBox="0.00 0.00 941.00 1212.00" xmlns="http://www.w3.org/2000/svg" xmlns:xlink="http://www.w3.org/1999/xlink">
<g id="graph0" class="graph" transform="scale(1 1) rotate(0) translate(4 1208)">
<title>%3</title>
<polygon fill="#ffffff" stroke="transparent" points="-4,4 -4,-1208 937,-1208 937,4 -4,4"/>
<g id="clust2" class="cluster">
<title>cluster[root] azurerm_resource_group.rg_var_</title>
</g>
<g id="clust3" class="cluster">
<title>cluster[root] azurerm_storage_account.stor_var_</title>
</g>
<g id="clust4" class="cluster">
<title>cluster[root] azurerm_subnet.subnet_var_</title>
</g>
<g id="clust5" class="cluster">
<title>cluster[root] azurerm_template_deployment.linux_vm_var_</title>
</g>
<g id="clust6" class="cluster">
<title>cluster[root] azurerm_virtual_machine.vm_var_</title>
</g>
<g id="clust7" class="cluster">
<title>cluster[root] azurerm_virtual_network.vnet_var_</title>
</g>
<g id="clust8" class="cluster">
<title>cluster[root] meta.count&#45;boundary (count boundary fixup)_var_</title>
</g>
<g id="clust9" class="cluster">
<title>cluster[root] meta.count&#45;boundary (count boundary fixup)_output_[root] azurerm_template_deployment.linux_vm</title>
</g>
<g id="clust10" class="cluster">
<title>cluster[root] meta.count&#45;boundary (count boundary fixup)_output_[root] var.hostname</title>
</g>
<!-- [root] azurerm_network_interface.nic -->
<g id="node_0" class="node">
<title>[root] azurerm_network_interface.nic</title>
<polygon fill="none" stroke="#000000" points="349,-826 349,-841 475,-841 475,-826 349,-826"/>
<text text-anchor="start" x="351.9902" y="-831.6" font-family="courier new" font-size="8.00" fill="#000000">azurerm_network_interface</text>
<polygon fill="none" stroke="#000000" points="349,-811 349,-826 475,-826 475,-811 349,-811"/>
<text text-anchor="start" x="404.7988" y="-816.6" font-family="courier new" font-size="8.00" fill="#000000">nic</text>
</g>
<!-- [root] azurerm_subnet.subnet -->
<g id="node_3" class="node">
<title>[root] azurerm_subnet.subnet</title>
<polygon fill="none" stroke="#000000" points="220,-754 220,-769 293,-769 293,-754 220,-754"/>
<text text-anchor="start" x="222.8945" y="-759.6" font-family="courier new" font-size="8.00" fill="#000000">azurerm_subnet</text>
<polygon fill="none" stroke="#000000" points="220,-739 220,-754 293,-754 293,-739 220,-739"/>
<text text-anchor="start" x="242.0977" y="-744.6" font-family="courier new" font-size="8.00" fill="#000000">subnet</text>
</g>
<!-- [root] azurerm_network_interface.nic&#45;&gt;[root] azurerm_subnet.subnet -->
<g id="edge_0" class="edge">
<title>[root] azurerm_network_interface.nic&#45;&gt;[root] azurerm_subnet.subnet</title>
<path fill="none" stroke="#000000" d="M372.6346,-807.8314C351.1525,-797.9165 324.4396,-785.5875 302.0009,-775.2312"/>
<polygon fill="#000000" stroke="#000000" points="303.22,-771.9391 292.6736,-770.9263 300.2865,-778.2948 303.22,-771.9391"/>
</g>
<!-- [root] azurerm_resource_group.rg -->
<g id="node_1" class="node">
<title>[root] azurerm_resource_group.rg</title>
<polygon fill="none" stroke="#000000" points="8,-610 8,-625 119,-625 119,-610 8,-610"/>
<text text-anchor="start" x="10.6914" y="-615.6" font-family="courier new" font-size="8.00" fill="#000000">azurerm_resource_group</text>
<polygon fill="none" stroke="#000000" points="8,-595 8,-610 119,-610 119,-595 8,-595"/>
<text text-anchor="start" x="58.6992" y="-600.6" font-family="courier new" font-size="8.00" fill="#000000">rg</text>
</g>
<!-- [root] provider.azurerm -->
<g id="node_7" class="node">
<title>[root] provider.azurerm</title>
<polygon fill="none" stroke="#000000" points="5,-538 5,-553 49,-553 49,-538 5,-538"/>
<text text-anchor="start" x="7.7969" y="-543.6" font-family="courier new" font-size="8.00" fill="#000000">provider</text>
<polygon fill="none" stroke="#000000" points="5,-523 5,-538 49,-538 49,-523 5,-523"/>
<text text-anchor="start" x="10.1973" y="-528.6" font-family="courier new" font-size="8.00" fill="#000000">azurerm</text>
</g>
<!-- [root] azurerm_resource_group.rg&#45;&gt;[root] provider.azurerm -->
<g id="edge_1" class="edge">
<title>[root] azurerm_resource_group.rg&#45;&gt;[root] provider.azurerm</title>
<path fill="none" stroke="#000000" d="M53.9157,-591.8314C49.9385,-583.8771 45.1845,-574.369 40.7861,-565.5723"/>
<polygon fill="#000000" stroke="#000000" points="43.8093,-563.7923 36.2066,-556.4133 37.5483,-566.9228 43.8093,-563.7923"/>
</g>
<!-- [root] var.location -->
<g id="node_8" class="node">
<title>[root] var.location</title>
<polygon fill="none" stroke="#000000" points="81,-538 81,-553 125,-553 125,-538 81,-538"/>
<text text-anchor="start" x="95.7988" y="-543.6" font-family="courier new" font-size="8.00" fill="#000000">var</text>
<polygon fill="none" stroke="#000000" points="81,-523 81,-538 125,-538 125,-523 81,-523"/>
<text text-anchor="start" x="83.7969" y="-528.6" font-family="courier new" font-size="8.00" fill="#000000">location</text>
</g>
<!-- [root] azurerm_resource_group.rg&#45;&gt;[root] var.location -->
<g id="edge_2" class="edge">
<title>[root] azurerm_resource_group.rg&#45;&gt;[root] var.location</title>
<path fill="none" stroke="#000000" d="M73.0937,-591.8314C77.5597,-583.7925 82.9075,-574.1666 87.8379,-565.2918"/>
<polygon fill="#000000" stroke="#000000" points="90.9735,-566.8546 92.7704,-556.4133 84.8544,-563.4551 90.9735,-566.8546"/>
</g>
<!-- [root] azurerm_storage_account.stor -->
<g id="node_2" class="node">
<title>[root] azurerm_storage_account.stor</title>
<polygon fill="none" stroke="#000000" points="205,-970 205,-985 321,-985 321,-970 205,-970"/>
<text text-anchor="start" x="207.791" y="-975.6" font-family="courier new" font-size="8.00" fill="#000000">azurerm_storage_account</text>
<polygon fill="none" stroke="#000000" points="205,-955 205,-970 321,-970 321,-955 205,-955"/>
<text text-anchor="start" x="253.3984" y="-960.6" font-family="courier new" font-size="8.00" fill="#000000">stor</text>
</g>
<!-- [root] azurerm_storage_account.stor&#45;&gt;[root] azurerm_resource_group.rg -->
<g id="edge_4" class="edge">
<title>[root] azurerm_storage_account.stor&#45;&gt;[root] azurerm_resource_group.rg</title>
<path fill="none" stroke="#000000" d="M204.8831,-955.0237C145.8325,-935.8909 63,-896.4898 63,-826 63,-826 63,-826 63,-754 63,-713.876 63,-667.4631 63,-638.4177"/>
<polygon fill="#000000" stroke="#000000" points="66.5001,-638.1853 63,-628.1854 59.5001,-638.1854 66.5001,-638.1853"/>
</g>
<!-- [root] var.hostname -->
<g id="node_10" class="node">
<title>[root] var.hostname</title>
<polygon fill="none" stroke="#000000" points="299,-610 299,-625 343,-625 343,-610 299,-610"/>
<text text-anchor="start" x="313.7988" y="-615.6" font-family="courier new" font-size="8.00" fill="#000000">var</text>
<polygon fill="none" stroke="#000000" points="299,-595 299,-610 343,-610 343,-595 299,-595"/>
<text text-anchor="start" x="301.7969" y="-600.6" font-family="courier new" font-size="8.00" fill="#000000">hostname</text>
</g>
<!-- [root] azurerm_storage_account.stor&#45;&gt;[root] var.hostname -->
<g id="edge_5" class="edge">
<title>[root] azurerm_storage_account.stor&#45;&gt;[root] var.hostname</title>
<path fill="none" stroke="#000000" d="M275.5851,-951.8478C292.6434,-925.4241 321,-874.2435 321,-826 321,-826 321,-826 321,-754 321,-713.876 321,-667.4631 321,-638.4177"/>
<polygon fill="#000000" stroke="#000000" points="324.5001,-638.1853 321,-628.1854 317.5001,-638.1854 324.5001,-638.1853"/>
</g>
<!-- [root] var.storage_account_tier -->
<g id="node_11" class="node">
<title>[root] var.storage_account_tier</title>
<polygon fill="none" stroke="#000000" points="800,-898 800,-913 902,-913 902,-898 800,-898"/>
<text text-anchor="start" x="843.7988" y="-903.6" font-family="courier new" font-size="8.00" fill="#000000">var</text>
<polygon fill="none" stroke="#000000" points="800,-883 800,-898 902,-898 902,-883 800,-883"/>
<text text-anchor="start" x="802.9922" y="-888.6" font-family="courier new" font-size="8.00" fill="#000000">storage_account_tier</text>
</g>
<!-- [root] azurerm_storage_account.stor&#45;&gt;[root] var.storage_account_tier -->
<g id="edge_6" class="edge">
<title>[root] azurerm_storage_account.stor&#45;&gt;[root] var.storage_account_tier</title>
<path fill="none" stroke="#000000" d="M321.0765,-953.822C324.4202,-953.1419 327.745,-952.5264 331,-952 529.6929,-919.8699 586.2974,-966.6531 783,-924 788.4812,-922.8115 794.1054,-921.2537 799.6582,-919.4905"/>
<polygon fill="#000000" stroke="#000000" points="801.1913,-922.666 809.5301,-916.1302 798.9357,-916.0393 801.1913,-922.666"/>
</g>
<!-- [root] azurerm_virtual_network.vnet -->
<g id="node_6" class="node">
<title>[root] azurerm_virtual_network.vnet</title>
<polygon fill="none" stroke="#000000" points="91,-682 91,-697 207,-697 207,-682 91,-682"/>
<text text-anchor="start" x="93.791" y="-687.6" font-family="courier new" font-size="8.00" fill="#000000">azurerm_virtual_network</text>
<polygon fill="none" stroke="#000000" points="91,-667 91,-682 207,-682 207,-667 91,-667"/>
<text text-anchor="start" x="139.3984" y="-672.6" font-family="courier new" font-size="8.00" fill="#000000">vnet</text>
</g>
<!-- [root] azurerm_subnet.subnet&#45;&gt;[root] azurerm_virtual_network.vnet -->
<g id="edge_8" class="edge">
<title>[root] azurerm_subnet.subnet&#45;&gt;[root] azurerm_virtual_network.vnet</title>
<path fill="none" stroke="#000000" d="M228.9994,-735.8314C215.5669,-726.7927 199.1527,-715.7476 184.6961,-706.0198"/>
<polygon fill="#000000" stroke="#000000" points="186.2425,-702.8418 175.992,-700.1628 182.3346,-708.6494 186.2425,-702.8418"/>
</g>
<!-- [root] var.subnet_prefix -->
<g id="node_13" class="node">
<title>[root] var.subnet_prefix</title>
<polygon fill="none" stroke="#000000" points="225,-682 225,-697 293,-697 293,-682 225,-682"/>
<text text-anchor="start" x="251.7988" y="-687.6" font-family="courier new" font-size="8.00" fill="#000000">var</text>
<polygon fill="none" stroke="#000000" points="225,-667 225,-682 293,-682 293,-667 225,-667"/>
<text text-anchor="start" x="227.7949" y="-672.6" font-family="courier new" font-size="8.00" fill="#000000">subnet_prefix</text>
</g>
<!-- [root] azurerm_subnet.subnet&#45;&gt;[root] var.subnet_prefix -->
<g id="edge_9" class="edge">
<title>[root] azurerm_subnet.subnet&#45;&gt;[root] var.subnet_prefix</title>
<path fill="none" stroke="#000000" d="M256.757,-735.8314C257.0779,-728.131 257.4594,-718.9743 257.816,-710.4166"/>
<polygon fill="#000000" stroke="#000000" points="261.3133,-710.5503 258.2328,-700.4133 254.3194,-710.2589 261.3133,-710.5503"/>
</g>
<!-- [root] azurerm_template_deployment.linux_vm -->
<g id="node_4" class="node">
<title>[root] azurerm_template_deployment.linux_vm</title>
<polygon fill="none" stroke="#000000" points="340,-970 340,-985 475,-985 475,-970 340,-970"/>
<text text-anchor="start" x="342.6895" y="-975.6" font-family="courier new" font-size="8.00" fill="#000000">azurerm_template_deployment</text>
<polygon fill="none" stroke="#000000" points="340,-955 340,-970 475,-970 475,-955 340,-955"/>
<text text-anchor="start" x="388.2969" y="-960.6" font-family="courier new" font-size="8.00" fill="#000000">linux_vm</text>
</g>
<!-- [root] azurerm_virtual_machine.vm -->
<g id="node_5" class="node">
<title>[root] azurerm_virtual_machine.vm</title>
<polygon fill="none" stroke="#000000" points="354,-898 354,-913 470,-913 470,-898 354,-898"/>
<text text-anchor="start" x="356.791" y="-903.6" font-family="courier new" font-size="8.00" fill="#000000">azurerm_virtual_machine</text>
<polygon fill="none" stroke="#000000" points="354,-883 354,-898 470,-898 470,-883 354,-883"/>
<text text-anchor="start" x="407.1992" y="-888.6" font-family="courier new" font-size="8.00" fill="#000000">vm</text>
</g>
<!-- [root] azurerm_template_deployment.linux_vm&#45;&gt;[root] azurerm_virtual_machine.vm -->
<g id="edge_10" class="edge">
<title>[root] azurerm_template_deployment.linux_vm&#45;&gt;[root] azurerm_virtual_machine.vm</title>
<path fill="none" stroke="#000000" d="M408.2617,-951.8314C408.7965,-944.131 409.4323,-934.9743 410.0266,-926.4166"/>
<polygon fill="#000000" stroke="#000000" points="413.52,-926.6317 410.7213,-916.4133 406.5368,-926.1467 413.52,-926.6317"/>
</g>
<!-- [root] var.aad_client_id -->
<g id="node_14" class="node">
<title>[root] var.aad_client_id</title>
<polygon fill="none" stroke="#000000" points="636,-898 636,-913 704,-913 704,-898 636,-898"/>
<text text-anchor="start" x="662.7988" y="-903.6" font-family="courier new" font-size="8.00" fill="#000000">var</text>
<polygon fill="none" stroke="#000000" points="636,-883 636,-898 704,-898 704,-883 636,-883"/>
<text text-anchor="start" x="638.7949" y="-888.6" font-family="courier new" font-size="8.00" fill="#000000">aad_client_id</text>
</g>
<!-- [root] azurerm_template_deployment.linux_vm&#45;&gt;[root] var.aad_client_id -->
<g id="edge_11" class="edge">
<title>[root] azurerm_template_deployment.linux_vm&#45;&gt;[root] var.aad_client_id</title>
<path fill="none" stroke="#000000" d="M473.0265,-951.9243C520.8201,-938.8401 584.1053,-921.5149 625.8871,-910.0765"/>
<polygon fill="#000000" stroke="#000000" points="627.0419,-913.3893 635.7628,-907.3729 625.1935,-906.6377 627.0419,-913.3893"/>
</g>
<!-- [root] azurerm_virtual_machine.vm&#45;&gt;[root] azurerm_network_interface.nic -->
<g id="edge_24" class="edge">
<title>[root] azurerm_virtual_machine.vm&#45;&gt;[root] azurerm_network_interface.nic</title>
<path fill="none" stroke="#000000" d="M412,-879.8314C412,-872.131 412,-862.9743 412,-854.4166"/>
<polygon fill="#000000" stroke="#000000" points="415.5001,-854.4132 412,-844.4133 408.5001,-854.4133 415.5001,-854.4132"/>
</g>
<!-- [root] var.admin_password -->
<g id="node_27" class="node">
<title>[root] var.admin_password</title>
<polygon fill="none" stroke="#000000" points="532,-826 532,-841 605,-841 605,-826 532,-826"/>
<text text-anchor="start" x="561.2988" y="-831.6" font-family="courier new" font-size="8.00" fill="#000000">var</text>
<polygon fill="none" stroke="#000000" points="532,-811 532,-826 605,-826 605,-811 532,-811"/>
<text text-anchor="start" x="534.8945" y="-816.6" font-family="courier new" font-size="8.00" fill="#000000">admin_password</text>
</g>
<!-- [root] azurerm_virtual_machine.vm&#45;&gt;[root] var.admin_password -->
<g id="edge_25" class="edge">
<title>[root] azurerm_virtual_machine.vm&#45;&gt;[root] var.admin_password</title>
<path fill="none" stroke="#000000" d="M451.3654,-879.8314C472.8475,-869.9165 499.5604,-857.5875 521.9991,-847.2312"/>
<polygon fill="#000000" stroke="#000000" points="523.7135,-850.2948 531.3264,-842.9263 520.78,-843.9391 523.7135,-850.2948"/>
</g>
<!-- [root] azurerm_virtual_network.vnet&#45;&gt;[root] azurerm_resource_group.rg -->
<g id="edge_32" class="edge">
<title>[root] azurerm_virtual_network.vnet&#45;&gt;[root] azurerm_resource_group.rg</title>
<path fill="none" stroke="#000000" d="M127.2986,-663.8314C116.8079,-655.0485 104.0545,-644.3712 92.6806,-634.8489"/>
<polygon fill="#000000" stroke="#000000" points="94.6089,-631.8986 84.6945,-628.1628 90.1153,-637.2659 94.6089,-631.8986"/>
</g>
<!-- [root] azurerm_virtual_network.vnet&#45;&gt;[root] var.hostname -->
<g id="edge_34" class="edge">
<title>[root] azurerm_virtual_network.vnet&#45;&gt;[root] var.hostname</title>
<path fill="none" stroke="#000000" d="M192.4029,-663.8314C220.7657,-651.9585 257.3984,-636.6239 284.3061,-625.3603"/>
<polygon fill="#000000" stroke="#000000" points="285.8732,-628.4986 293.7461,-621.4086 283.1702,-622.0415 285.8732,-628.4986"/>
</g>
<!-- [root] var.address_space -->
<g id="node_34" class="node">
<title>[root] var.address_space</title>
<polygon fill="none" stroke="#000000" points="137,-610 137,-625 205,-625 205,-610 137,-610"/>
<text text-anchor="start" x="163.7988" y="-615.6" font-family="courier new" font-size="8.00" fill="#000000">var</text>
<polygon fill="none" stroke="#000000" points="137,-595 137,-610 205,-610 205,-595 137,-595"/>
<text text-anchor="start" x="139.7949" y="-600.6" font-family="courier new" font-size="8.00" fill="#000000">address_space</text>
</g>
<!-- [root] azurerm_virtual_network.vnet&#45;&gt;[root] var.address_space -->
<g id="edge_33" class="edge">
<title>[root] azurerm_virtual_network.vnet&#45;&gt;[root] var.address_space</title>
<path fill="none" stroke="#000000" d="M154.5515,-663.8314C156.9303,-656.0463 159.7638,-646.7729 162.4033,-638.1347"/>
<polygon fill="#000000" stroke="#000000" points="165.7987,-638.9996 165.3737,-628.4133 159.1042,-636.954 165.7987,-638.9996"/>
</g>
<!-- [root] meta.count&#45;boundary (count boundary fixup) -->
<g id="node_35" class="node">
<title>[root] meta.count&#45;boundary (count boundary fixup)</title>
<polygon fill="none" stroke="#000000" points="371,-1114 371,-1129 444,-1129 444,-1114 371,-1114"/>
<text text-anchor="start" x="397.8984" y="-1119.6" font-family="courier new" font-size="8.00" fill="#000000">meta</text>
<polygon fill="none" stroke="#000000" points="371,-1099 371,-1114 444,-1114 444,-1099 371,-1099"/>
<text text-anchor="start" x="373.8945" y="-1104.6" font-family="courier new" font-size="8.00" fill="#000000">count&#45;boundary</text>
</g>
<!-- [root] meta.count&#45;boundary (count boundary fixup)&#45;&gt;[root] azurerm_storage_account.stor -->
<g id="edge_35" class="edge">
<title>[root] meta.count&#45;boundary (count boundary fixup)&#45;&gt;[root] azurerm_storage_account.stor</title>
<path fill="none" stroke="#000000" d="M388.264,-1095.8618C380.1538,-1087.6513 370.7617,-1077.6414 363,-1068 345.5304,-1046.2995 347.4667,-1035.9285 328,-1016 320.1601,-1007.9741 310.7584,-1000.4139 301.5732,-993.8307"/>
<polygon fill="#000000" stroke="#000000" points="303.4652,-990.8837 293.2496,-988.0743 299.4835,-996.6411 303.4652,-990.8837"/>
</g>
<!-- [root] var.disk_format_query -->
<g id="node_38" class="node">
<title>[root] var.disk_format_query</title>
<polygon fill="none" stroke="#000000" points="542,-1042 542,-1057 629,-1057 629,-1042 542,-1042"/>
<text text-anchor="start" x="578.2988" y="-1047.6" font-family="courier new" font-size="8.00" fill="#000000">var</text>
<polygon fill="none" stroke="#000000" points="542,-1027 542,-1042 629,-1042 629,-1027 542,-1027"/>
<text text-anchor="start" x="544.6934" y="-1032.6" font-family="courier new" font-size="8.00" fill="#000000">disk_format_query</text>
</g>
<!-- [root] meta.count&#45;boundary (count boundary fixup)&#45;&gt;[root] var.disk_format_query -->
<g id="edge_38" class="edge">
<title>[root] meta.count&#45;boundary (count boundary fixup)&#45;&gt;[root] var.disk_format_query</title>
<path fill="none" stroke="#000000" d="M443.5789,-1101.0113C467.9589,-1092.1581 500.6166,-1079.9207 529,-1068 531.9648,-1066.7548 535.0038,-1065.4444 538.0589,-1064.1012"/>
<polygon fill="#000000" stroke="#000000" points="539.5153,-1067.284 547.2141,-1060.0054 536.6566,-1060.8942 539.5153,-1067.284"/>
</g>
<!-- [root] output.BitLockerKey -->
<g id="node_36" class="node">
<title>[root] output.BitLockerKey</title>
<polygon fill="none" stroke="#000000" points="376,-1042 376,-1057 439,-1057 439,-1042 376,-1042"/>
<text text-anchor="start" x="393.0977" y="-1047.6" font-family="courier new" font-size="8.00" fill="#000000">output</text>
<polygon fill="none" stroke="#000000" points="376,-1027 376,-1042 439,-1042 439,-1027 376,-1027"/>
<text text-anchor="start" x="378.6953" y="-1032.6" font-family="courier new" font-size="8.00" fill="#000000">BitLockerKey</text>
</g>
<!-- [root] meta.count&#45;boundary (count boundary fixup)&#45;&gt;[root] output.BitLockerKey -->
<g id="edge_36" class="edge">
<title>[root] meta.count&#45;boundary (count boundary fixup)&#45;&gt;[root] output.BitLockerKey</title>
<path fill="none" stroke="#000000" d="M407,-1095.8314C407,-1088.131 407,-1078.9743 407,-1070.4166"/>
<polygon fill="#000000" stroke="#000000" points="410.5001,-1070.4132 407,-1060.4133 403.5001,-1070.4133 410.5001,-1070.4132"/>
</g>
<!-- [root] output.hostname -->
<g id="node_37" class="node">
<title>[root] output.hostname</title>
<polygon fill="none" stroke="#000000" points="468,-1042 468,-1057 512,-1057 512,-1042 468,-1042"/>
<text text-anchor="start" x="475.5977" y="-1047.6" font-family="courier new" font-size="8.00" fill="#000000">output</text>
<polygon fill="none" stroke="#000000" points="468,-1027 468,-1042 512,-1042 512,-1027 468,-1027"/>
<text text-anchor="start" x="470.7969" y="-1032.6" font-family="courier new" font-size="8.00" fill="#000000">hostname</text>
</g>
<!-- [root] meta.count&#45;boundary (count boundary fixup)&#45;&gt;[root] output.hostname -->
<g id="edge_37" class="edge">
<title>[root] meta.count&#45;boundary (count boundary fixup)&#45;&gt;[root] output.hostname</title>
<path fill="none" stroke="#000000" d="M427.9444,-1095.8314C438.0691,-1087.0485 450.3777,-1076.3712 461.3548,-1066.8489"/>
<polygon fill="#000000" stroke="#000000" points="463.8019,-1069.3595 469.0623,-1060.1628 459.2149,-1064.0718 463.8019,-1069.3595"/>
</g>
<!-- [root] provider.azurerm (close) -->
<g id="node_39" class="node">
<title>[root] provider.azurerm (close)</title>
<polygon fill="none" stroke="#000000" points="270,-1042 270,-1057 314,-1057 314,-1042 270,-1042"/>
<text text-anchor="start" x="272.7969" y="-1047.6" font-family="courier new" font-size="8.00" fill="#000000">provider</text>
<polygon fill="none" stroke="#000000" points="270,-1027 270,-1042 314,-1042 314,-1027 270,-1027"/>
<text text-anchor="start" x="275.1973" y="-1032.6" font-family="courier new" font-size="8.00" fill="#000000">azurerm</text>
</g>
<!-- [root] provider.azurerm (close)&#45;&gt;[root] azurerm_storage_account.stor -->
<g id="edge_41" class="edge">
<title>[root] provider.azurerm (close)&#45;&gt;[root] azurerm_storage_account.stor</title>
<path fill="none" stroke="#000000" d="M284.6821,-1023.8314C281.5124,-1015.9617 277.73,-1006.5712 274.2187,-997.8533"/>
<polygon fill="#000000" stroke="#000000" points="277.3992,-996.3815 270.4165,-988.4133 270.9061,-998.9968 277.3992,-996.3815"/>
</g>
<!-- [root] provider.azurerm (close)&#45;&gt;[root] azurerm_template_deployment.linux_vm -->
<g id="edge_42" class="edge">
<title>[root] provider.azurerm (close)&#45;&gt;[root] azurerm_template_deployment.linux_vm</title>
<path fill="none" stroke="#000000" d="M319.2534,-1024.937C334.1605,-1015.6038 352.8594,-1003.8967 369.1612,-993.6904"/>
<polygon fill="#000000" stroke="#000000" points="371.3134,-996.4724 377.9319,-988.1992 367.5987,-990.5393 371.3134,-996.4724"/>
</g>
<!-- [root] root -->
<g id="node_40" class="node">
<title>[root] root</title>
<polygon fill="none" stroke="#000000" points="383.3089,-1204 314.6911,-1204 314.6911,-1168 383.3089,-1168 383.3089,-1204"/>
<text text-anchor="middle" x="349" y="-1184.1313" font-family="courier new" font-size="8.00" fill="#000000">[root] root</text>
</g>
<!-- [root] root&#45;&gt;[root] meta.count&#45;boundary (count boundary fixup) -->
<g id="edge_43" class="edge">
<title>[root] root&#45;&gt;[root] meta.count&#45;boundary (count boundary fixup)</title>
<path fill="none" stroke="#000000" d="M363.6358,-1167.8314C370.3161,-1159.5386 378.3568,-1149.557 385.6904,-1140.4533"/>
<polygon fill="#000000" stroke="#000000" points="388.6194,-1142.3965 392.1671,-1132.4133 383.1681,-1138.0052 388.6194,-1142.3965"/>
</g>
<!-- [root] root&#45;&gt;[root] provider.azurerm (close) -->
<g id="edge_44" class="edge">
<title>[root] root&#45;&gt;[root] provider.azurerm (close)</title>
<path fill="none" stroke="#000000" d="M341.7809,-1167.7623C331.9731,-1142.9846 314.3533,-1098.4714 302.9226,-1069.5939"/>
<polygon fill="#000000" stroke="#000000" points="306.0953,-1068.0995 299.1605,-1060.0896 299.5867,-1070.6759 306.0953,-1068.0995"/>
</g>
<!-- [root] var.resource_group -->
<g id="node_9" class="node">
<title>[root] var.resource_group</title>
<polygon fill="none" stroke="#000000" points="71,-466 71,-481 144,-481 144,-466 71,-466"/>
<text text-anchor="start" x="100.2988" y="-471.6" font-family="courier new" font-size="8.00" fill="#000000">var</text>
<polygon fill="none" stroke="#000000" points="71,-451 71,-466 144,-466 144,-451 71,-451"/>
<text text-anchor="start" x="73.8945" y="-456.6" font-family="courier new" font-size="8.00" fill="#000000">resource_group</text>
</g>
<!-- [root] var.location&#45;&gt;[root] var.resource_group -->
<g id="edge_46" class="edge">
<title>[root] var.location&#45;&gt;[root] var.resource_group</title>
<path fill="none" stroke="#000000" stroke-dasharray="5,2" d="M104.0094,-519.8314C104.6111,-509 105.3729,-495.2876 105.977,-484.4133"/>
</g>
<!-- [root] var.storage_replication_type -->
<g id="node_12" class="node">
<title>[root] var.storage_replication_type</title>
<polygon fill="none" stroke="#000000" points="796,-826 796,-841 917,-841 917,-826 796,-826"/>
<text text-anchor="start" x="849.2988" y="-831.6" font-family="courier new" font-size="8.00" fill="#000000">var</text>
<polygon fill="none" stroke="#000000" points="796,-811 796,-826 917,-826 917,-811 796,-811"/>
<text text-anchor="start" x="798.8906" y="-816.6" font-family="courier new" font-size="8.00" fill="#000000">storage_replication_type</text>
</g>
<!-- [root] var.storage_account_tier&#45;&gt;[root] var.storage_replication_type -->
<g id="edge_48" class="edge">
<title>[root] var.storage_account_tier&#45;&gt;[root] var.storage_replication_type</title>
<path fill="none" stroke="#000000" stroke-dasharray="5,2" d="M852.2617,-879.8314C853.0139,-869 853.9661,-855.2876 854.7213,-844.4133"/>
</g>
<!-- [root] var.aad_client_secret -->
<g id="node_15" class="node">
<title>[root] var.aad_client_secret</title>
<polygon fill="none" stroke="#000000" points="633,-826 633,-841 720,-841 720,-826 633,-826"/>
<text text-anchor="start" x="669.2988" y="-831.6" font-family="courier new" font-size="8.00" fill="#000000">var</text>
<polygon fill="none" stroke="#000000" points="633,-811 633,-826 720,-826 720,-811 633,-811"/>
<text text-anchor="start" x="635.6934" y="-816.6" font-family="courier new" font-size="8.00" fill="#000000">aad_client_secret</text>
</g>
<!-- [root] var.aad_client_id&#45;&gt;[root] var.aad_client_secret -->
<g id="edge_193" class="edge">
<title>[root] var.aad_client_id&#45;&gt;[root] var.aad_client_secret</title>
<path fill="none" stroke="#000000" stroke-dasharray="5,2" d="M671.5141,-879.8314C672.4167,-869 673.5594,-855.2876 674.4656,-844.4133"/>
</g>
<!-- [root] var.artifacts_location -->
<g id="node_16" class="node">
<title>[root] var.artifacts_location</title>
<polygon fill="none" stroke="#000000" points="643,-754 643,-769 735,-769 735,-754 643,-754"/>
<text text-anchor="start" x="681.7988" y="-759.6" font-family="courier new" font-size="8.00" fill="#000000">var</text>
<polygon fill="none" stroke="#000000" points="643,-739 643,-754 735,-754 735,-739 643,-739"/>
<text text-anchor="start" x="645.793" y="-744.6" font-family="courier new" font-size="8.00" fill="#000000">artifacts_location</text>
</g>
<!-- [root] var.aad_client_secret&#45;&gt;[root] var.artifacts_location -->
<g id="edge_194" class="edge">
<title>[root] var.aad_client_secret&#45;&gt;[root] var.artifacts_location</title>
<path fill="none" stroke="#000000" stroke-dasharray="5,2" d="M679.2804,-807.8314C681.2361,-797 683.712,-783.2876 685.6754,-772.4133"/>
</g>
<!-- [root] var.artifacts_location_sas_token -->
<g id="node_17" class="node">
<title>[root] var.artifacts_location_sas_token</title>
<polygon fill="none" stroke="#000000" points="631,-682 631,-697 771,-697 771,-682 631,-682"/>
<text text-anchor="start" x="693.7988" y="-687.6" font-family="courier new" font-size="8.00" fill="#000000">var</text>
<polygon fill="none" stroke="#000000" points="631,-667 631,-682 771,-682 771,-667 631,-667"/>
<text text-anchor="start" x="633.7891" y="-672.6" font-family="courier new" font-size="8.00" fill="#000000">artifacts_location_sas_token</text>
</g>
<!-- [root] var.artifacts_location&#45;&gt;[root] var.artifacts_location_sas_token -->
<g id="edge_195" class="edge">
<title>[root] var.artifacts_location&#45;&gt;[root] var.artifacts_location_sas_token</title>
<path fill="none" stroke="#000000" stroke-dasharray="5,2" d="M692.0281,-735.8314C693.8333,-725 696.1187,-711.2876 697.9311,-700.4133"/>
</g>
<!-- [root] var.encryption_operation -->
<g id="node_18" class="node">
<title>[root] var.encryption_operation</title>
<polygon fill="none" stroke="#000000" points="650,-610 650,-625 752,-625 752,-610 650,-610"/>
<text text-anchor="start" x="693.7988" y="-615.6" font-family="courier new" font-size="8.00" fill="#000000">var</text>
<polygon fill="none" stroke="#000000" points="650,-595 650,-610 752,-610 752,-595 650,-595"/>
<text text-anchor="start" x="652.9922" y="-600.6" font-family="courier new" font-size="8.00" fill="#000000">encryption_operation</text>
</g>
<!-- [root] var.artifacts_location_sas_token&#45;&gt;[root] var.encryption_operation -->
<g id="edge_196" class="edge">
<title>[root] var.artifacts_location_sas_token&#45;&gt;[root] var.encryption_operation</title>
<path fill="none" stroke="#000000" stroke-dasharray="5,2" d="M701,-663.8314C701,-653 701,-639.2876 701,-628.4133"/>
</g>
<!-- [root] var.extension_name -->
<g id="node_19" class="node">
<title>[root] var.extension_name</title>
<polygon fill="none" stroke="#000000" points="665,-538 665,-553 738,-553 738,-538 665,-538"/>
<text text-anchor="start" x="694.2988" y="-543.6" font-family="courier new" font-size="8.00" fill="#000000">var</text>
<polygon fill="none" stroke="#000000" points="665,-523 665,-538 738,-538 738,-523 665,-523"/>
<text text-anchor="start" x="667.8945" y="-528.6" font-family="courier new" font-size="8.00" fill="#000000">extension_name</text>
</g>
<!-- [root] var.encryption_operation&#45;&gt;[root] var.extension_name -->
<g id="edge_197" class="edge">
<title>[root] var.encryption_operation&#45;&gt;[root] var.extension_name</title>
<path fill="none" stroke="#000000" stroke-dasharray="5,2" d="M701,-591.8314C701,-581 701,-567.2876 701,-556.4133"/>
</g>
<!-- [root] var.key_encryption_key_url -->
<g id="node_20" class="node">
<title>[root] var.key_encryption_key_url</title>
<polygon fill="none" stroke="#000000" points="646,-466 646,-481 757,-481 757,-466 646,-466"/>
<text text-anchor="start" x="694.2988" y="-471.6" font-family="courier new" font-size="8.00" fill="#000000">var</text>
<polygon fill="none" stroke="#000000" points="646,-451 646,-466 757,-466 757,-451 646,-451"/>
<text text-anchor="start" x="648.6914" y="-456.6" font-family="courier new" font-size="8.00" fill="#000000">key_encryption_key_url</text>
</g>
<!-- [root] var.extension_name&#45;&gt;[root] var.key_encryption_key_url -->
<g id="edge_198" class="edge">
<title>[root] var.extension_name&#45;&gt;[root] var.key_encryption_key_url</title>
<path fill="none" stroke="#000000" stroke-dasharray="5,2" d="M701,-519.8314C701,-509 701,-495.2876 701,-484.4133"/>
</g>
<!-- [root] var.key_vault_name -->
<g id="node_21" class="node">
<title>[root] var.key_vault_name</title>
<polygon fill="none" stroke="#000000" points="665,-394 665,-409 738,-409 738,-394 665,-394"/>
<text text-anchor="start" x="694.2988" y="-399.6" font-family="courier new" font-size="8.00" fill="#000000">var</text>
<polygon fill="none" stroke="#000000" points="665,-379 665,-394 738,-394 738,-379 665,-379"/>
<text text-anchor="start" x="667.8945" y="-384.6" font-family="courier new" font-size="8.00" fill="#000000">key_vault_name</text>
</g>
<!-- [root] var.key_encryption_key_url&#45;&gt;[root] var.key_vault_name -->
<g id="edge_199" class="edge">
<title>[root] var.key_encryption_key_url&#45;&gt;[root] var.key_vault_name</title>
<path fill="none" stroke="#000000" stroke-dasharray="5,2" d="M701,-447.8314C701,-437 701,-423.2876 701,-412.4133"/>
</g>
<!-- [root] var.key_vault_resource_id -->
<g id="node_22" class="node">
<title>[root] var.key_vault_resource_id</title>
<polygon fill="none" stroke="#000000" points="648,-322 648,-337 754,-337 754,-322 648,-322"/>
<text text-anchor="start" x="693.7988" y="-327.6" font-family="courier new" font-size="8.00" fill="#000000">var</text>
<polygon fill="none" stroke="#000000" points="648,-307 648,-322 754,-322 754,-307 648,-307"/>
<text text-anchor="start" x="650.5918" y="-312.6" font-family="courier new" font-size="8.00" fill="#000000">key_vault_resource_id</text>
</g>
<!-- [root] var.key_vault_name&#45;&gt;[root] var.key_vault_resource_id -->
<g id="edge_200" class="edge">
<title>[root] var.key_vault_name&#45;&gt;[root] var.key_vault_resource_id</title>
<path fill="none" stroke="#000000" stroke-dasharray="5,2" d="M701,-375.8314C701,-365 701,-351.2876 701,-340.4133"/>
</g>
<!-- [root] var.passphrase -->
<g id="node_23" class="node">
<title>[root] var.passphrase</title>
<polygon fill="none" stroke="#000000" points="674,-250 674,-265 728,-265 728,-250 674,-250"/>
<text text-anchor="start" x="693.7988" y="-255.6" font-family="courier new" font-size="8.00" fill="#000000">var</text>
<polygon fill="none" stroke="#000000" points="674,-235 674,-250 728,-250 728,-235 674,-235"/>
<text text-anchor="start" x="676.9961" y="-240.6" font-family="courier new" font-size="8.00" fill="#000000">passphrase</text>
</g>
<!-- [root] var.key_vault_resource_id&#45;&gt;[root] var.passphrase -->
<g id="edge_201" class="edge">
<title>[root] var.key_vault_resource_id&#45;&gt;[root] var.passphrase</title>
<path fill="none" stroke="#000000" stroke-dasharray="5,2" d="M701,-303.8314C701,-293 701,-279.2876 701,-268.4133"/>
</g>
<!-- [root] var.sequence_version -->
<g id="node_24" class="node">
<title>[root] var.sequence_version</title>
<polygon fill="none" stroke="#000000" points="660,-178 660,-193 742,-193 742,-178 660,-178"/>
<text text-anchor="start" x="693.7988" y="-183.6" font-family="courier new" font-size="8.00" fill="#000000">var</text>
<polygon fill="none" stroke="#000000" points="660,-163 660,-178 742,-178 742,-163 660,-163"/>
<text text-anchor="start" x="662.5938" y="-168.6" font-family="courier new" font-size="8.00" fill="#000000">sequence_version</text>
</g>
<!-- [root] var.passphrase&#45;&gt;[root] var.sequence_version -->
<g id="edge_202" class="edge">
<title>[root] var.passphrase&#45;&gt;[root] var.sequence_version</title>
<path fill="none" stroke="#000000" stroke-dasharray="5,2" d="M701,-231.8314C701,-221 701,-207.2876 701,-196.4133"/>
</g>
<!-- [root] var.use_kek -->
<g id="node_25" class="node">
<title>[root] var.use_kek</title>
<polygon fill="none" stroke="#000000" points="682,-106 682,-121 721,-121 721,-106 682,-106"/>
<text text-anchor="start" x="694.2988" y="-111.6" font-family="courier new" font-size="8.00" fill="#000000">var</text>
<polygon fill="none" stroke="#000000" points="682,-91 682,-106 721,-106 721,-91 682,-91"/>
<text text-anchor="start" x="684.6973" y="-96.6" font-family="courier new" font-size="8.00" fill="#000000">use_kek</text>
</g>
<!-- [root] var.sequence_version&#45;&gt;[root] var.use_kek -->
<g id="edge_203" class="edge">
<title>[root] var.sequence_version&#45;&gt;[root] var.use_kek</title>
<path fill="none" stroke="#000000" stroke-dasharray="5,2" d="M701,-159.8314C701,-149 701,-135.2876 701,-124.4133"/>
</g>
<!-- [root] var.volume_type -->
<g id="node_26" class="node">
<title>[root] var.volume_type</title>
<polygon fill="none" stroke="#000000" points="672,-34 672,-49 730,-49 730,-34 672,-34"/>
<text text-anchor="start" x="693.7988" y="-39.6" font-family="courier new" font-size="8.00" fill="#000000">var</text>
<polygon fill="none" stroke="#000000" points="672,-19 672,-34 730,-34 730,-19 672,-19"/>
<text text-anchor="start" x="674.5957" y="-24.6" font-family="courier new" font-size="8.00" fill="#000000">volume_type</text>
</g>
<!-- [root] var.use_kek&#45;&gt;[root] var.volume_type -->
<g id="edge_204" class="edge">
<title>[root] var.use_kek&#45;&gt;[root] var.volume_type</title>
<path fill="none" stroke="#000000" stroke-dasharray="5,2" d="M701,-87.8314C701,-77 701,-63.2876 701,-52.4133"/>
</g>
<!-- [root] var.admin_username -->
<g id="node_28" class="node">
<title>[root] var.admin_username</title>
<polygon fill="none" stroke="#000000" points="532,-754 532,-769 605,-769 605,-754 532,-754"/>
<text text-anchor="start" x="561.2988" y="-759.6" font-family="courier new" font-size="8.00" fill="#000000">var</text>
<polygon fill="none" stroke="#000000" points="532,-739 532,-754 605,-754 605,-739 532,-739"/>
<text text-anchor="start" x="534.8945" y="-744.6" font-family="courier new" font-size="8.00" fill="#000000">admin_username</text>
</g>
<!-- [root] var.admin_password&#45;&gt;[root] var.admin_username -->
<g id="edge_241" class="edge">
<title>[root] var.admin_password&#45;&gt;[root] var.admin_username</title>
<path fill="none" stroke="#000000" stroke-dasharray="5,2" d="M568,-807.8314C568,-797 568,-783.2876 568,-772.4133"/>
</g>
<!-- [root] var.image_offer -->
<g id="node_29" class="node">
<title>[root] var.image_offer</title>
<polygon fill="none" stroke="#000000" points="539,-682 539,-697 597,-697 597,-682 539,-682"/>
<text text-anchor="start" x="560.7988" y="-687.6" font-family="courier new" font-size="8.00" fill="#000000">var</text>
<polygon fill="none" stroke="#000000" points="539,-667 539,-682 597,-682 597,-667 539,-667"/>
<text text-anchor="start" x="541.5957" y="-672.6" font-family="courier new" font-size="8.00" fill="#000000">image_offer</text>
</g>
<!-- [root] var.admin_username&#45;&gt;[root] var.image_offer -->
<g id="edge_242" class="edge">
<title>[root] var.admin_username&#45;&gt;[root] var.image_offer</title>
<path fill="none" stroke="#000000" stroke-dasharray="5,2" d="M568,-735.8314C568,-725 568,-711.2876 568,-700.4133"/>
</g>
<!-- [root] var.image_publisher -->
<g id="node_30" class="node">
<title>[root] var.image_publisher</title>
<polygon fill="none" stroke="#000000" points="529,-610 529,-625 607,-625 607,-610 529,-610"/>
<text text-anchor="start" x="560.7988" y="-615.6" font-family="courier new" font-size="8.00" fill="#000000">var</text>
<polygon fill="none" stroke="#000000" points="529,-595 529,-610 607,-610 607,-595 529,-595"/>
<text text-anchor="start" x="531.9941" y="-600.6" font-family="courier new" font-size="8.00" fill="#000000">image_publisher</text>
</g>
<!-- [root] var.image_offer&#45;&gt;[root] var.image_publisher -->
<g id="edge_243" class="edge">
<title>[root] var.image_offer&#45;&gt;[root] var.image_publisher</title>
<path fill="none" stroke="#000000" stroke-dasharray="5,2" d="M568,-663.8314C568,-653 568,-639.2876 568,-628.4133"/>
</g>
<!-- [root] var.image_sku -->
<g id="node_31" class="node">
<title>[root] var.image_sku</title>
<polygon fill="none" stroke="#000000" points="544,-538 544,-553 593,-553 593,-538 544,-538"/>
<text text-anchor="start" x="561.2988" y="-543.6" font-family="courier new" font-size="8.00" fill="#000000">var</text>
<polygon fill="none" stroke="#000000" points="544,-523 544,-538 593,-538 593,-523 544,-523"/>
<text text-anchor="start" x="546.8965" y="-528.6" font-family="courier new" font-size="8.00" fill="#000000">image_sku</text>
</g>
<!-- [root] var.image_publisher&#45;&gt;[root] var.image_sku -->
<g id="edge_244" class="edge">
<title>[root] var.image_publisher&#45;&gt;[root] var.image_sku</title>
<path fill="none" stroke="#000000" stroke-dasharray="5,2" d="M568,-591.8314C568,-581 568,-567.2876 568,-556.4133"/>
</g>
<!-- [root] var.image_version -->
<g id="node_32" class="node">
<title>[root] var.image_version</title>
<polygon fill="none" stroke="#000000" points="534,-466 534,-481 602,-481 602,-466 534,-466"/>
<text text-anchor="start" x="560.7988" y="-471.6" font-family="courier new" font-size="8.00" fill="#000000">var</text>
<polygon fill="none" stroke="#000000" points="534,-451 534,-466 602,-466 602,-451 534,-451"/>
<text text-anchor="start" x="536.7949" y="-456.6" font-family="courier new" font-size="8.00" fill="#000000">image_version</text>
</g>
<!-- [root] var.image_sku&#45;&gt;[root] var.image_version -->
<g id="edge_245" class="edge">
<title>[root] var.image_sku&#45;&gt;[root] var.image_version</title>
<path fill="none" stroke="#000000" stroke-dasharray="5,2" d="M568,-519.8314C568,-509 568,-495.2876 568,-484.4133"/>
</g>
<!-- [root] var.vm_size -->
<g id="node_33" class="node">
<title>[root] var.vm_size</title>
<polygon fill="none" stroke="#000000" points="549,-394 549,-409 588,-409 588,-394 549,-394"/>
<text text-anchor="start" x="561.2988" y="-399.6" font-family="courier new" font-size="8.00" fill="#000000">var</text>
<polygon fill="none" stroke="#000000" points="549,-379 549,-394 588,-394 588,-379 549,-379"/>
<text text-anchor="start" x="551.6973" y="-384.6" font-family="courier new" font-size="8.00" fill="#000000">vm_size</text>
</g>
<!-- [root] var.image_version&#45;&gt;[root] var.vm_size -->
<g id="edge_246" class="edge">
<title>[root] var.image_version&#45;&gt;[root] var.vm_size</title>
<path fill="none" stroke="#000000" stroke-dasharray="5,2" d="M568,-447.8314C568,-437 568,-423.2876 568,-412.4133"/>
</g>
<!-- [root] output.BitLockerKey&#45;&gt;[root] azurerm_template_deployment.linux_vm -->
<g id="edge_39" class="edge">
<title>[root] output.BitLockerKey&#45;&gt;[root] azurerm_template_deployment.linux_vm</title>
<path fill="none" stroke="#000000" d="M407,-1023.8314C407,-1016.131 407,-1006.9743 407,-998.4166"/>
<polygon fill="#000000" stroke="#000000" points="410.5001,-998.4132 407,-988.4133 403.5001,-998.4133 410.5001,-998.4132"/>
</g>
<!-- [root] output.hostname&#45;&gt;[root] var.hostname -->
<g id="edge_40" class="edge">
<title>[root] output.hostname&#45;&gt;[root] var.hostname</title>
<path fill="none" stroke="#000000" d="M492.6936,-1023.862C496.5014,-996.6061 503,-943.434 503,-898 503,-898 503,-898 503,-754 503,-680.7569 411.2294,-638.9231 358.0198,-620.8232"/>
<polygon fill="#000000" stroke="#000000" points="358.84,-617.4088 348.2472,-617.6173 356.658,-624.06 358.84,-617.4088"/>
</g>
</g>
</svg>

